<?xml version="1.0" encoding="utf-8"?>
<!-- Generator: Adobe Illustrator 27.7.0, SVG Export Plug-In . SVG Version: 6.00 Build 0)  -->
<svg version="1.1" xmlns="http://www.w3.org/2000/svg" xmlns:xlink="http://www.w3.org/1999/xlink" x="0px" y="0px" width="1500px"
	 height="145px" viewBox="0 0 1500 145" style="enable-background:new 0 0 1500 145;" xml:space="preserve">
<g id="background">
	<rect x="-80.448" y="-126.348" style="fill:#04D5D8;" width="1640.647" height="4034.435"/>
	<path style="fill:#FFED8B;" d="M524.605,148.917c-53.167,0-96.425-43.237-96.458-96.396C428.141,43.435,420.774,36,411.688,36
		H-37.689l14.856-829.771h1593.032l0.674,938.816h-463.512c-42.238,0-77.152-33.567-77.152-75.805v0
		c0-44.865,36.371-81.236,81.236-81.236l23.516,0c12.134,0,22.483-9.417,22.941-21.543c0.482-12.748-9.749-23.272-22.391-23.272
		H996.18c-34.683,0-62.816,28.379-62.863,63.062c-0.108,78.684-64.154,142.666-142.863,142.666H524.605z"/>
	<g>
		<path style="fill:#00B365;" d="M-58.401,0l470.089,0c31.181,0,56.458,25.277,56.458,56.458v0
			c0,31.181,25.277,56.458,56.458,56.458h265.847c56.81,0,102.864-46.054,102.864-102.864v0c0-56.81,46.054-102.864,102.864-102.864
			h139.332c34.466,0,62.407,27.941,62.407,62.407v0c0,34.466-27.941,62.407-62.407,62.407h-28.825
			c-20.146,0-36.478,16.332-36.478,36.478v4.758c0,20.146,16.332,36.478,36.478,36.478h423.512v-859.49H-72.084L-58.401,0z"/>
		<g>
			
				<path style="fill:none;stroke:#00B365;stroke-width:10;stroke-linecap:round;stroke-linejoin:round;stroke-dasharray:0,10.0161;" d="
				M-48.385,0h460.073c31.181,0,56.458,25.277,56.458,56.458v0c0,31.181,25.277,56.458,56.458,56.458h265.847
				c56.81,0,102.864-46.054,102.864-102.864v0c0-56.81,46.054-102.864,102.864-102.864h139.332
				c34.466,0,62.407,27.941,62.407,62.407v0c0,34.466-27.941,62.407-62.407,62.407h-28.825c-20.146,0-36.478,16.332-36.478,36.478
				v4.758c0,20.146,16.332,36.478,36.478,36.478h418.504"/>
		</g>
	</g>
	<g style="opacity:0.2;">
		<defs>
			<path id="SVGID_1_" style="opacity:0.2;" d="M1469.933,754.742l135.693-135.693c17.798-17.798,27.142-42.353,25.678-67.481
				l-16.372-281.065c0-39.432-31.966-71.399-71.399-71.399h-166.053c-39.432,0-71.399,31.966-71.399,71.399v334.633
				c0,16.501-13.377,29.878-29.878,29.878h-83.042c-16.501,0-29.877-13.377-29.877-29.877V393.007
				c0-10.563-4.196-20.692-11.665-28.161l-31.302-31.302c-7.469-7.469-17.599-11.665-28.161-11.665H821.182
				c-18.936,0-37.097-7.522-50.486-20.912l-88.768-88.768c-13.39-13.39-31.55-20.912-50.486-20.912H-21.191v711.766h209.143
				c18.936,0,37.096-7.522,50.486-20.912l57.63-57.63c13.39-13.39,31.55-20.912,50.486-20.912h392.56
				c18.936,0,37.097,7.522,50.486,20.912l83.213,83.213c13.128,13.128,30.932,20.503,49.497,20.503h172.205
				c18.565,0,36.37-7.375,49.498-20.503l111.976-111.976c13.128-13.128,30.932-20.503,49.498-20.503h114.948
				C1439,775.245,1456.805,767.87,1469.933,754.742z"/>
		</defs>
		<clipPath id="SVGID_00000096046922220123810480000017534892317173544331_">
			<use xlink:href="#SVGID_1_"  style="overflow:visible;"/>
		</clipPath>
		
			<path style="clip-path:url(#SVGID_00000096046922220123810480000017534892317173544331_);fill:none;stroke:#97CEC8;stroke-width:1.5;stroke-linecap:round;stroke-linejoin:round;stroke-miterlimit:10;" d="
			M118.26,144.813h16.599c1.073,0,1.943,0.87,1.943,1.943v6.383c0,1.073-0.87,1.943-1.943,1.943H118.26
			c-1.073,0-1.943-0.87-1.943-1.943v-6.383C116.316,145.683,117.186,144.813,118.26,144.813z"/>
		
			<path style="clip-path:url(#SVGID_00000096046922220123810480000017534892317173544331_);fill:none;stroke:#97CEC8;stroke-width:1.5;stroke-linecap:round;stroke-linejoin:round;stroke-miterlimit:10;" d="
			M97.774,144.813h16.599c1.073,0,1.943,0.87,1.943,1.943v6.383c0,1.073-0.87,1.943-1.943,1.943H97.774
			c-1.073,0-1.943-0.87-1.943-1.943v-6.383C95.831,145.683,96.701,144.813,97.774,144.813z"/>
		
			<path style="clip-path:url(#SVGID_00000096046922220123810480000017534892317173544331_);fill:none;stroke:#97CEC8;stroke-width:1.5;stroke-linecap:round;stroke-linejoin:round;stroke-miterlimit:10;" d="
			M77.267,144.813h16.599c1.073,0,1.943,0.87,1.943,1.943v6.383c0,1.073-0.87,1.943-1.943,1.943H77.267
			c-1.073,0-1.943-0.87-1.943-1.943v-6.383C75.324,145.683,76.194,144.813,77.267,144.813z"/>
		
			<path style="clip-path:url(#SVGID_00000096046922220123810480000017534892317173544331_);fill:none;stroke:#97CEC8;stroke-width:1.5;stroke-linecap:round;stroke-linejoin:round;stroke-miterlimit:10;" d="
			M56.782,144.813h16.599c1.073,0,1.943,0.87,1.943,1.943v6.383c0,1.073-0.87,1.943-1.943,1.943H56.782
			c-1.073,0-1.943-0.87-1.943-1.943v-6.383C54.838,145.683,55.708,144.813,56.782,144.813z"/>
		
			<path style="clip-path:url(#SVGID_00000096046922220123810480000017534892317173544331_);fill:none;stroke:#97CEC8;stroke-width:1.5;stroke-linecap:round;stroke-linejoin:round;stroke-miterlimit:10;" d="
			M36.293,144.813h16.599c1.073,0,1.943,0.87,1.943,1.943v6.383c0,1.073-0.87,1.943-1.943,1.943H36.293
			c-1.073,0-1.943-0.87-1.943-1.943v-6.383C34.349,145.683,35.22,144.813,36.293,144.813z"/>
		
			<path style="clip-path:url(#SVGID_00000096046922220123810480000017534892317173544331_);fill:none;stroke:#97CEC8;stroke-width:1.5;stroke-linecap:round;stroke-linejoin:round;stroke-miterlimit:10;" d="
			M15.807,144.813h16.599c1.073,0,1.943,0.87,1.943,1.943v6.383c0,1.073-0.87,1.943-1.943,1.943H15.807
			c-1.073,0-1.943-0.87-1.943-1.943v-6.383C13.864,145.683,14.734,144.813,15.807,144.813z"/>
		
			<path style="clip-path:url(#SVGID_00000096046922220123810480000017534892317173544331_);fill:none;stroke:#97CEC8;stroke-width:1.5;stroke-linecap:round;stroke-linejoin:round;stroke-miterlimit:10;" d="
			M-4.699,144.813H11.9c1.073,0,1.943,0.87,1.943,1.943v6.383c0,1.073-0.87,1.943-1.943,1.943H-4.699
			c-1.073,0-1.943-0.87-1.943-1.943v-6.383C-6.643,145.683-5.773,144.813-4.699,144.813z"/>
		
			<path style="clip-path:url(#SVGID_00000096046922220123810480000017534892317173544331_);fill:none;stroke:#97CEC8;stroke-width:1.5;stroke-linecap:round;stroke-linejoin:round;stroke-miterlimit:10;" d="
			M128.489,134.543h16.599c1.073,0,1.943,0.87,1.943,1.943v6.383c0,1.073-0.87,1.943-1.943,1.943h-16.599
			c-1.073,0-1.943-0.87-1.943-1.943v-6.383C126.545,135.413,127.415,134.543,128.489,134.543z"/>
		
			<path style="clip-path:url(#SVGID_00000096046922220123810480000017534892317173544331_);fill:none;stroke:#97CEC8;stroke-width:1.5;stroke-linecap:round;stroke-linejoin:round;stroke-miterlimit:10;" d="
			M108.003,134.543h16.599c1.073,0,1.943,0.87,1.943,1.943v6.383c0,1.073-0.87,1.943-1.943,1.943h-16.599
			c-1.073,0-1.943-0.87-1.943-1.943v-6.383C106.06,135.413,106.93,134.543,108.003,134.543z"/>
		
			<path style="clip-path:url(#SVGID_00000096046922220123810480000017534892317173544331_);fill:none;stroke:#97CEC8;stroke-width:1.5;stroke-linecap:round;stroke-linejoin:round;stroke-miterlimit:10;" d="
			M87.496,134.543h16.599c1.073,0,1.943,0.87,1.943,1.943v6.383c0,1.073-0.87,1.943-1.943,1.943H87.496
			c-1.073,0-1.943-0.87-1.943-1.943v-6.383C85.553,135.413,86.423,134.543,87.496,134.543z"/>
		
			<path style="clip-path:url(#SVGID_00000096046922220123810480000017534892317173544331_);fill:none;stroke:#97CEC8;stroke-width:1.5;stroke-linecap:round;stroke-linejoin:round;stroke-miterlimit:10;" d="
			M67.011,134.543H83.61c1.073,0,1.943,0.87,1.943,1.943v6.383c0,1.073-0.87,1.943-1.943,1.943H67.011
			c-1.073,0-1.943-0.87-1.943-1.943v-6.383C65.067,135.413,65.937,134.543,67.011,134.543z"/>
		
			<path style="clip-path:url(#SVGID_00000096046922220123810480000017534892317173544331_);fill:none;stroke:#97CEC8;stroke-width:1.5;stroke-linecap:round;stroke-linejoin:round;stroke-miterlimit:10;" d="
			M46.522,134.543h16.599c1.073,0,1.943,0.87,1.943,1.943v6.383c0,1.073-0.87,1.943-1.943,1.943H46.522
			c-1.073,0-1.943-0.87-1.943-1.943v-6.383C44.579,135.413,45.449,134.543,46.522,134.543z"/>
		
			<path style="clip-path:url(#SVGID_00000096046922220123810480000017534892317173544331_);fill:none;stroke:#97CEC8;stroke-width:1.5;stroke-linecap:round;stroke-linejoin:round;stroke-miterlimit:10;" d="
			M26.036,134.543h16.599c1.073,0,1.943,0.87,1.943,1.943v6.383c0,1.073-0.87,1.943-1.943,1.943H26.036
			c-1.073,0-1.943-0.87-1.943-1.943v-6.383C24.093,135.413,24.963,134.543,26.036,134.543z"/>
		
			<path style="clip-path:url(#SVGID_00000096046922220123810480000017534892317173544331_);fill:none;stroke:#97CEC8;stroke-width:1.5;stroke-linecap:round;stroke-linejoin:round;stroke-miterlimit:10;" d="
			M5.53,134.543h16.599c1.073,0,1.943,0.87,1.943,1.943v6.383c0,1.073-0.87,1.943-1.943,1.943H5.53c-1.073,0-1.943-0.87-1.943-1.943
			v-6.383C3.586,135.413,4.456,134.543,5.53,134.543z"/>
		
			<path style="clip-path:url(#SVGID_00000096046922220123810480000017534892317173544331_);fill:none;stroke:#97CEC8;stroke-width:1.5;stroke-linecap:round;stroke-linejoin:round;stroke-miterlimit:10;" d="
			M323.172,144.813h16.599c1.073,0,1.943,0.87,1.943,1.943v6.383c0,1.073-0.87,1.943-1.943,1.943h-16.599
			c-1.073,0-1.943-0.87-1.943-1.943v-6.383C321.228,145.683,322.098,144.813,323.172,144.813z"/>
		
			<path style="clip-path:url(#SVGID_00000096046922220123810480000017534892317173544331_);fill:none;stroke:#97CEC8;stroke-width:1.5;stroke-linecap:round;stroke-linejoin:round;stroke-miterlimit:10;" d="
			M302.686,144.813h16.599c1.073,0,1.943,0.87,1.943,1.943v6.383c0,1.073-0.87,1.943-1.943,1.943h-16.599
			c-1.073,0-1.943-0.87-1.943-1.943v-6.383C300.743,145.683,301.613,144.813,302.686,144.813z"/>
		
			<path style="clip-path:url(#SVGID_00000096046922220123810480000017534892317173544331_);fill:none;stroke:#97CEC8;stroke-width:1.5;stroke-linecap:round;stroke-linejoin:round;stroke-miterlimit:10;" d="
			M282.18,144.813h16.599c1.073,0,1.943,0.87,1.943,1.943v6.383c0,1.073-0.87,1.943-1.943,1.943H282.18
			c-1.073,0-1.943-0.87-1.943-1.943v-6.383C280.236,145.683,281.106,144.813,282.18,144.813z"/>
		
			<path style="clip-path:url(#SVGID_00000096046922220123810480000017534892317173544331_);fill:none;stroke:#97CEC8;stroke-width:1.5;stroke-linecap:round;stroke-linejoin:round;stroke-miterlimit:10;" d="
			M261.694,144.813h16.599c1.073,0,1.943,0.87,1.943,1.943v6.383c0,1.073-0.87,1.943-1.943,1.943h-16.599
			c-1.073,0-1.943-0.87-1.943-1.943v-6.383C259.751,145.683,260.621,144.813,261.694,144.813z"/>
		
			<path style="clip-path:url(#SVGID_00000096046922220123810480000017534892317173544331_);fill:none;stroke:#97CEC8;stroke-width:1.5;stroke-linecap:round;stroke-linejoin:round;stroke-miterlimit:10;" d="
			M241.205,144.813h16.599c1.073,0,1.943,0.87,1.943,1.943v6.383c0,1.073-0.87,1.943-1.943,1.943h-16.599
			c-1.073,0-1.943-0.87-1.943-1.943v-6.383C239.262,145.683,240.132,144.813,241.205,144.813z"/>
		
			<path style="clip-path:url(#SVGID_00000096046922220123810480000017534892317173544331_);fill:none;stroke:#97CEC8;stroke-width:1.5;stroke-linecap:round;stroke-linejoin:round;stroke-miterlimit:10;" d="
			M220.719,144.813h16.599c1.073,0,1.943,0.87,1.943,1.943v6.383c0,1.073-0.87,1.943-1.943,1.943h-16.599
			c-1.073,0-1.943-0.87-1.943-1.943v-6.383C218.776,145.683,219.646,144.813,220.719,144.813z"/>
		
			<path style="clip-path:url(#SVGID_00000096046922220123810480000017534892317173544331_);fill:none;stroke:#97CEC8;stroke-width:1.5;stroke-linecap:round;stroke-linejoin:round;stroke-miterlimit:10;" d="
			M200.213,144.813h16.599c1.073,0,1.943,0.87,1.943,1.943v6.383c0,1.073-0.87,1.943-1.943,1.943h-16.599
			c-1.073,0-1.943-0.87-1.943-1.943v-6.383C198.27,145.683,199.14,144.813,200.213,144.813z"/>
		
			<path style="clip-path:url(#SVGID_00000096046922220123810480000017534892317173544331_);fill:none;stroke:#97CEC8;stroke-width:1.5;stroke-linecap:round;stroke-linejoin:round;stroke-miterlimit:10;" d="
			M179.727,144.813h16.599c1.073,0,1.943,0.87,1.943,1.943v6.383c0,1.073-0.87,1.943-1.943,1.943h-16.599
			c-1.073,0-1.943-0.87-1.943-1.943v-6.383C177.784,145.683,178.654,144.813,179.727,144.813z"/>
		
			<path style="clip-path:url(#SVGID_00000096046922220123810480000017534892317173544331_);fill:none;stroke:#97CEC8;stroke-width:1.5;stroke-linecap:round;stroke-linejoin:round;stroke-miterlimit:10;" d="
			M159.266,144.813h16.599c1.073,0,1.943,0.87,1.943,1.943v6.383c0,1.073-0.87,1.943-1.943,1.943h-16.599
			c-1.073,0-1.943-0.87-1.943-1.943v-6.383C157.323,145.683,158.193,144.813,159.266,144.813z"/>
		
			<path style="clip-path:url(#SVGID_00000096046922220123810480000017534892317173544331_);fill:none;stroke:#97CEC8;stroke-width:1.5;stroke-linecap:round;stroke-linejoin:round;stroke-miterlimit:10;" d="
			M138.78,144.813h16.599c1.073,0,1.943,0.87,1.943,1.943v6.383c0,1.073-0.87,1.943-1.943,1.943H138.78
			c-1.073,0-1.943-0.87-1.943-1.943v-6.383C136.837,145.683,137.707,144.813,138.78,144.813z"/>
		
			<path style="clip-path:url(#SVGID_00000096046922220123810480000017534892317173544331_);fill:none;stroke:#97CEC8;stroke-width:1.5;stroke-linecap:round;stroke-linejoin:round;stroke-miterlimit:10;" d="
			M333.401,134.543H350c1.073,0,1.943,0.87,1.943,1.943v6.383c0,1.073-0.87,1.943-1.943,1.943h-16.599
			c-1.073,0-1.943-0.87-1.943-1.943v-6.383C331.457,135.413,332.328,134.543,333.401,134.543z"/>
		
			<path style="clip-path:url(#SVGID_00000096046922220123810480000017534892317173544331_);fill:none;stroke:#97CEC8;stroke-width:1.5;stroke-linecap:round;stroke-linejoin:round;stroke-miterlimit:10;" d="
			M312.915,134.543h16.599c1.073,0,1.943,0.87,1.943,1.943v6.383c0,1.073-0.87,1.943-1.943,1.943h-16.599
			c-1.073,0-1.943-0.87-1.943-1.943v-6.383C310.972,135.413,311.842,134.543,312.915,134.543z"/>
		
			<path style="clip-path:url(#SVGID_00000096046922220123810480000017534892317173544331_);fill:none;stroke:#97CEC8;stroke-width:1.5;stroke-linecap:round;stroke-linejoin:round;stroke-miterlimit:10;" d="
			M128.524,134.543h16.599c1.073,0,1.943,0.87,1.943,1.943v6.383c0,1.073-0.87,1.943-1.943,1.943h-16.599
			c-1.073,0-1.943-0.87-1.943-1.943v-6.383C126.58,135.413,127.45,134.543,128.524,134.543z"/>
		
			<path style="clip-path:url(#SVGID_00000096046922220123810480000017534892317173544331_);fill:none;stroke:#97CEC8;stroke-width:1.5;stroke-linecap:round;stroke-linejoin:round;stroke-miterlimit:10;" d="
			M292.409,134.543h16.599c1.073,0,1.943,0.87,1.943,1.943v6.383c0,1.073-0.87,1.943-1.943,1.943h-16.599
			c-1.073,0-1.943-0.87-1.943-1.943v-6.383C290.465,135.413,291.335,134.543,292.409,134.543z"/>
		
			<path style="clip-path:url(#SVGID_00000096046922220123810480000017534892317173544331_);fill:none;stroke:#97CEC8;stroke-width:1.5;stroke-linecap:round;stroke-linejoin:round;stroke-miterlimit:10;" d="
			M271.923,134.543h16.599c1.073,0,1.943,0.87,1.943,1.943v6.383c0,1.073-0.87,1.943-1.943,1.943h-16.599
			c-1.073,0-1.943-0.87-1.943-1.943v-6.383C269.98,135.413,270.85,134.543,271.923,134.543z"/>
		
			<path style="clip-path:url(#SVGID_00000096046922220123810480000017534892317173544331_);fill:none;stroke:#97CEC8;stroke-width:1.5;stroke-linecap:round;stroke-linejoin:round;stroke-miterlimit:10;" d="
			M251.434,134.543h16.599c1.073,0,1.943,0.87,1.943,1.943v6.383c0,1.073-0.87,1.943-1.943,1.943h-16.599
			c-1.073,0-1.943-0.87-1.943-1.943v-6.383C249.491,135.413,250.361,134.543,251.434,134.543z"/>
		
			<path style="clip-path:url(#SVGID_00000096046922220123810480000017534892317173544331_);fill:none;stroke:#97CEC8;stroke-width:1.5;stroke-linecap:round;stroke-linejoin:round;stroke-miterlimit:10;" d="
			M230.948,134.543h16.599c1.073,0,1.943,0.87,1.943,1.943v6.383c0,1.073-0.87,1.943-1.943,1.943h-16.599
			c-1.073,0-1.943-0.87-1.943-1.943v-6.383C229.005,135.413,229.875,134.543,230.948,134.543z"/>
		
			<path style="clip-path:url(#SVGID_00000096046922220123810480000017534892317173544331_);fill:none;stroke:#97CEC8;stroke-width:1.5;stroke-linecap:round;stroke-linejoin:round;stroke-miterlimit:10;" d="
			M210.442,134.543h16.599c1.073,0,1.943,0.87,1.943,1.943v6.383c0,1.073-0.87,1.943-1.943,1.943h-16.599
			c-1.073,0-1.943-0.87-1.943-1.943v-6.383C208.499,135.413,209.369,134.543,210.442,134.543z"/>
		
			<path style="clip-path:url(#SVGID_00000096046922220123810480000017534892317173544331_);fill:none;stroke:#97CEC8;stroke-width:1.5;stroke-linecap:round;stroke-linejoin:round;stroke-miterlimit:10;" d="
			M189.956,134.543h16.599c1.073,0,1.943,0.87,1.943,1.943v6.383c0,1.073-0.87,1.943-1.943,1.943h-16.599
			c-1.073,0-1.943-0.87-1.943-1.943v-6.383C188.013,135.413,188.883,134.543,189.956,134.543z"/>
		
			<path style="clip-path:url(#SVGID_00000096046922220123810480000017534892317173544331_);fill:none;stroke:#97CEC8;stroke-width:1.5;stroke-linecap:round;stroke-linejoin:round;stroke-miterlimit:10;" d="
			M169.495,134.543h16.599c1.073,0,1.943,0.87,1.943,1.943v6.383c0,1.073-0.87,1.943-1.943,1.943h-16.599
			c-1.073,0-1.943-0.87-1.943-1.943v-6.383C167.552,135.413,168.422,134.543,169.495,134.543z"/>
		
			<path style="clip-path:url(#SVGID_00000096046922220123810480000017534892317173544331_);fill:none;stroke:#97CEC8;stroke-width:1.5;stroke-linecap:round;stroke-linejoin:round;stroke-miterlimit:10;" d="
			M149.009,134.543h16.599c1.073,0,1.943,0.87,1.943,1.943v6.383c0,1.073-0.87,1.943-1.943,1.943h-16.599
			c-1.073,0-1.943-0.87-1.943-1.943v-6.383C147.066,135.413,147.936,134.543,149.009,134.543z"/>
		
			<path style="clip-path:url(#SVGID_00000096046922220123810480000017534892317173544331_);fill:none;stroke:#97CEC8;stroke-width:1.5;stroke-linecap:round;stroke-linejoin:round;stroke-miterlimit:10;" d="
			M528.052,144.813h16.599c1.073,0,1.943,0.87,1.943,1.943v6.383c0,1.073-0.87,1.943-1.943,1.943h-16.599
			c-1.073,0-1.943-0.87-1.943-1.943v-6.383C526.109,145.683,526.979,144.813,528.052,144.813z"/>
		
			<path style="clip-path:url(#SVGID_00000096046922220123810480000017534892317173544331_);fill:none;stroke:#97CEC8;stroke-width:1.5;stroke-linecap:round;stroke-linejoin:round;stroke-miterlimit:10;" d="
			M507.566,144.813h16.599c1.073,0,1.943,0.87,1.943,1.943v6.383c0,1.073-0.87,1.943-1.943,1.943h-16.599
			c-1.073,0-1.943-0.87-1.943-1.943v-6.383C505.623,145.683,506.493,144.813,507.566,144.813z"/>
		
			<path style="clip-path:url(#SVGID_00000096046922220123810480000017534892317173544331_);fill:none;stroke:#97CEC8;stroke-width:1.5;stroke-linecap:round;stroke-linejoin:round;stroke-miterlimit:10;" d="
			M487.06,144.813h16.599c1.073,0,1.943,0.87,1.943,1.943v6.383c0,1.073-0.87,1.943-1.943,1.943H487.06
			c-1.073,0-1.943-0.87-1.943-1.943v-6.383C485.116,145.683,485.987,144.813,487.06,144.813z"/>
		
			<path style="clip-path:url(#SVGID_00000096046922220123810480000017534892317173544331_);fill:none;stroke:#97CEC8;stroke-width:1.5;stroke-linecap:round;stroke-linejoin:round;stroke-miterlimit:10;" d="
			M466.574,144.813h16.599c1.073,0,1.943,0.87,1.943,1.943v6.383c0,1.073-0.87,1.943-1.943,1.943h-16.599
			c-1.073,0-1.943-0.87-1.943-1.943v-6.383C464.631,145.683,465.501,144.813,466.574,144.813z"/>
		
			<path style="clip-path:url(#SVGID_00000096046922220123810480000017534892317173544331_);fill:none;stroke:#97CEC8;stroke-width:1.5;stroke-linecap:round;stroke-linejoin:round;stroke-miterlimit:10;" d="
			M446.085,144.813h16.599c1.073,0,1.943,0.87,1.943,1.943v6.383c0,1.073-0.87,1.943-1.943,1.943h-16.599
			c-1.073,0-1.943-0.87-1.943-1.943v-6.383C444.142,145.683,445.012,144.813,446.085,144.813z"/>
		
			<path style="clip-path:url(#SVGID_00000096046922220123810480000017534892317173544331_);fill:none;stroke:#97CEC8;stroke-width:1.5;stroke-linecap:round;stroke-linejoin:round;stroke-miterlimit:10;" d="
			M425.6,144.813h16.599c1.073,0,1.943,0.87,1.943,1.943v6.383c0,1.073-0.87,1.943-1.943,1.943H425.6
			c-1.073,0-1.943-0.87-1.943-1.943v-6.383C423.656,145.683,424.526,144.813,425.6,144.813z"/>
		
			<path style="clip-path:url(#SVGID_00000096046922220123810480000017534892317173544331_);fill:none;stroke:#97CEC8;stroke-width:1.5;stroke-linecap:round;stroke-linejoin:round;stroke-miterlimit:10;" d="
			M405.093,144.813h16.599c1.073,0,1.943,0.87,1.943,1.943v6.383c0,1.073-0.87,1.943-1.943,1.943h-16.599
			c-1.073,0-1.943-0.87-1.943-1.943v-6.383C403.15,145.683,404.02,144.813,405.093,144.813z"/>
		
			<path style="clip-path:url(#SVGID_00000096046922220123810480000017534892317173544331_);fill:none;stroke:#97CEC8;stroke-width:1.5;stroke-linecap:round;stroke-linejoin:round;stroke-miterlimit:10;" d="
			M384.607,144.813h16.599c1.073,0,1.943,0.87,1.943,1.943v6.383c0,1.073-0.87,1.943-1.943,1.943h-16.599
			c-1.073,0-1.943-0.87-1.943-1.943v-6.383C382.664,145.683,383.534,144.813,384.607,144.813z"/>
		
			<path style="clip-path:url(#SVGID_00000096046922220123810480000017534892317173544331_);fill:none;stroke:#97CEC8;stroke-width:1.5;stroke-linecap:round;stroke-linejoin:round;stroke-miterlimit:10;" d="
			M364.146,144.813h16.599c1.073,0,1.943,0.87,1.943,1.943v6.383c0,1.073-0.87,1.943-1.943,1.943h-16.599
			c-1.073,0-1.943-0.87-1.943-1.943v-6.383C362.203,145.683,363.073,144.813,364.146,144.813z"/>
		
			<path style="clip-path:url(#SVGID_00000096046922220123810480000017534892317173544331_);fill:none;stroke:#97CEC8;stroke-width:1.5;stroke-linecap:round;stroke-linejoin:round;stroke-miterlimit:10;" d="
			M343.66,144.813h16.599c1.073,0,1.943,0.87,1.943,1.943v6.383c0,1.073-0.87,1.943-1.943,1.943H343.66
			c-1.073,0-1.943-0.87-1.943-1.943v-6.383C341.717,145.683,342.587,144.813,343.66,144.813z"/>
		
			<path style="clip-path:url(#SVGID_00000096046922220123810480000017534892317173544331_);fill:none;stroke:#97CEC8;stroke-width:1.5;stroke-linecap:round;stroke-linejoin:round;stroke-miterlimit:10;" d="
			M538.281,134.543h16.599c1.073,0,1.943,0.87,1.943,1.943v6.383c0,1.073-0.87,1.943-1.943,1.943h-16.599
			c-1.073,0-1.943-0.87-1.943-1.943v-6.383C536.338,135.413,537.208,134.543,538.281,134.543z"/>
		
			<path style="clip-path:url(#SVGID_00000096046922220123810480000017534892317173544331_);fill:none;stroke:#97CEC8;stroke-width:1.5;stroke-linecap:round;stroke-linejoin:round;stroke-miterlimit:10;" d="
			M517.795,134.543h16.599c1.073,0,1.943,0.87,1.943,1.943v6.383c0,1.073-0.87,1.943-1.943,1.943h-16.599
			c-1.073,0-1.943-0.87-1.943-1.943v-6.383C515.852,135.413,516.722,134.543,517.795,134.543z"/>
		
			<path style="clip-path:url(#SVGID_00000096046922220123810480000017534892317173544331_);fill:none;stroke:#97CEC8;stroke-width:1.5;stroke-linecap:round;stroke-linejoin:round;stroke-miterlimit:10;" d="
			M333.404,134.543h16.599c1.073,0,1.943,0.87,1.943,1.943v6.383c0,1.073-0.87,1.943-1.943,1.943h-16.599
			c-1.073,0-1.943-0.87-1.943-1.943v-6.383C331.461,135.413,332.331,134.543,333.404,134.543z"/>
		
			<path style="clip-path:url(#SVGID_00000096046922220123810480000017534892317173544331_);fill:none;stroke:#97CEC8;stroke-width:1.5;stroke-linecap:round;stroke-linejoin:round;stroke-miterlimit:10;" d="
			M497.289,134.543h16.599c1.073,0,1.943,0.87,1.943,1.943v6.383c0,1.073-0.87,1.943-1.943,1.943h-16.599
			c-1.073,0-1.943-0.87-1.943-1.943v-6.383C495.346,135.413,496.216,134.543,497.289,134.543z"/>
		
			<path style="clip-path:url(#SVGID_00000096046922220123810480000017534892317173544331_);fill:none;stroke:#97CEC8;stroke-width:1.5;stroke-linecap:round;stroke-linejoin:round;stroke-miterlimit:10;" d="
			M476.803,134.543h16.599c1.073,0,1.943,0.87,1.943,1.943v6.383c0,1.073-0.87,1.943-1.943,1.943h-16.599
			c-1.073,0-1.943-0.87-1.943-1.943v-6.383C474.86,135.413,475.73,134.543,476.803,134.543z"/>
		
			<path style="clip-path:url(#SVGID_00000096046922220123810480000017534892317173544331_);fill:none;stroke:#97CEC8;stroke-width:1.5;stroke-linecap:round;stroke-linejoin:round;stroke-miterlimit:10;" d="
			M456.314,134.543h16.599c1.073,0,1.943,0.87,1.943,1.943v6.383c0,1.073-0.87,1.943-1.943,1.943h-16.599
			c-1.073,0-1.943-0.87-1.943-1.943v-6.383C454.371,135.413,455.241,134.543,456.314,134.543z"/>
		
			<path style="clip-path:url(#SVGID_00000096046922220123810480000017534892317173544331_);fill:none;stroke:#97CEC8;stroke-width:1.5;stroke-linecap:round;stroke-linejoin:round;stroke-miterlimit:10;" d="
			M435.829,134.543h16.599c1.073,0,1.943,0.87,1.943,1.943v6.383c0,1.073-0.87,1.943-1.943,1.943h-16.599
			c-1.073,0-1.943-0.87-1.943-1.943v-6.383C433.885,135.413,434.755,134.543,435.829,134.543z"/>
		
			<path style="clip-path:url(#SVGID_00000096046922220123810480000017534892317173544331_);fill:none;stroke:#97CEC8;stroke-width:1.5;stroke-linecap:round;stroke-linejoin:round;stroke-miterlimit:10;" d="
			M415.322,134.543h16.599c1.073,0,1.943,0.87,1.943,1.943v6.383c0,1.073-0.87,1.943-1.943,1.943h-16.599
			c-1.073,0-1.943-0.87-1.943-1.943v-6.383C413.379,135.413,414.249,134.543,415.322,134.543z"/>
		
			<path style="clip-path:url(#SVGID_00000096046922220123810480000017534892317173544331_);fill:none;stroke:#97CEC8;stroke-width:1.5;stroke-linecap:round;stroke-linejoin:round;stroke-miterlimit:10;" d="
			M394.836,134.543h16.599c1.073,0,1.943,0.87,1.943,1.943v6.383c0,1.073-0.87,1.943-1.943,1.943h-16.599
			c-1.073,0-1.943-0.87-1.943-1.943v-6.383C392.893,135.413,393.763,134.543,394.836,134.543z"/>
		
			<path style="clip-path:url(#SVGID_00000096046922220123810480000017534892317173544331_);fill:none;stroke:#97CEC8;stroke-width:1.5;stroke-linecap:round;stroke-linejoin:round;stroke-miterlimit:10;" d="
			M374.375,134.543h16.599c1.073,0,1.943,0.87,1.943,1.943v6.383c0,1.073-0.87,1.943-1.943,1.943h-16.599
			c-1.073,0-1.943-0.87-1.943-1.943v-6.383C372.432,135.413,373.302,134.543,374.375,134.543z"/>
		
			<path style="clip-path:url(#SVGID_00000096046922220123810480000017534892317173544331_);fill:none;stroke:#97CEC8;stroke-width:1.5;stroke-linecap:round;stroke-linejoin:round;stroke-miterlimit:10;" d="
			M353.889,134.543h16.599c1.073,0,1.943,0.87,1.943,1.943v6.383c0,1.073-0.87,1.943-1.943,1.943h-16.599
			c-1.073,0-1.943-0.87-1.943-1.943v-6.383C351.946,135.413,352.816,134.543,353.889,134.543z"/>
		
			<path style="clip-path:url(#SVGID_00000096046922220123810480000017534892317173544331_);fill:none;stroke:#97CEC8;stroke-width:1.5;stroke-linecap:round;stroke-linejoin:round;stroke-miterlimit:10;" d="
			M732.964,144.813h16.599c1.073,0,1.943,0.87,1.943,1.943v6.383c0,1.073-0.87,1.943-1.943,1.943h-16.599
			c-1.073,0-1.943-0.87-1.943-1.943v-6.383C731.021,145.683,731.891,144.813,732.964,144.813z"/>
		
			<path style="clip-path:url(#SVGID_00000096046922220123810480000017534892317173544331_);fill:none;stroke:#97CEC8;stroke-width:1.5;stroke-linecap:round;stroke-linejoin:round;stroke-miterlimit:10;" d="
			M712.479,144.813h16.599c1.073,0,1.943,0.87,1.943,1.943v6.383c0,1.073-0.87,1.943-1.943,1.943h-16.599
			c-1.073,0-1.943-0.87-1.943-1.943v-6.383C710.535,145.683,711.405,144.813,712.479,144.813z"/>
		
			<path style="clip-path:url(#SVGID_00000096046922220123810480000017534892317173544331_);fill:none;stroke:#97CEC8;stroke-width:1.5;stroke-linecap:round;stroke-linejoin:round;stroke-miterlimit:10;" d="
			M691.972,144.813h16.599c1.073,0,1.943,0.87,1.943,1.943v6.383c0,1.073-0.87,1.943-1.943,1.943h-16.599
			c-1.073,0-1.943-0.87-1.943-1.943v-6.383C690.029,145.683,690.899,144.813,691.972,144.813z"/>
		
			<path style="clip-path:url(#SVGID_00000096046922220123810480000017534892317173544331_);fill:none;stroke:#97CEC8;stroke-width:1.5;stroke-linecap:round;stroke-linejoin:round;stroke-miterlimit:10;" d="
			M671.486,144.813h16.599c1.073,0,1.943,0.87,1.943,1.943v6.383c0,1.073-0.87,1.943-1.943,1.943h-16.599
			c-1.073,0-1.943-0.87-1.943-1.943v-6.383C669.543,145.683,670.413,144.813,671.486,144.813z"/>
		
			<path style="clip-path:url(#SVGID_00000096046922220123810480000017534892317173544331_);fill:none;stroke:#97CEC8;stroke-width:1.5;stroke-linecap:round;stroke-linejoin:round;stroke-miterlimit:10;" d="
			M650.997,144.813h16.599c1.073,0,1.943,0.87,1.943,1.943v6.383c0,1.073-0.87,1.943-1.943,1.943h-16.599
			c-1.073,0-1.943-0.87-1.943-1.943v-6.383C649.054,145.683,649.924,144.813,650.997,144.813z"/>
		
			<path style="clip-path:url(#SVGID_00000096046922220123810480000017534892317173544331_);fill:none;stroke:#97CEC8;stroke-width:1.5;stroke-linecap:round;stroke-linejoin:round;stroke-miterlimit:10;" d="
			M630.512,144.813h16.599c1.073,0,1.943,0.87,1.943,1.943v6.383c0,1.073-0.87,1.943-1.943,1.943h-16.599
			c-1.073,0-1.943-0.87-1.943-1.943v-6.383C628.569,145.683,629.439,144.813,630.512,144.813z"/>
		
			<path style="clip-path:url(#SVGID_00000096046922220123810480000017534892317173544331_);fill:none;stroke:#97CEC8;stroke-width:1.5;stroke-linecap:round;stroke-linejoin:round;stroke-miterlimit:10;" d="
			M610.005,144.813h16.599c1.073,0,1.943,0.87,1.943,1.943v6.383c0,1.073-0.87,1.943-1.943,1.943h-16.599
			c-1.073,0-1.943-0.87-1.943-1.943v-6.383C608.062,145.683,608.932,144.813,610.005,144.813z"/>
		
			<path style="clip-path:url(#SVGID_00000096046922220123810480000017534892317173544331_);fill:none;stroke:#97CEC8;stroke-width:1.5;stroke-linecap:round;stroke-linejoin:round;stroke-miterlimit:10;" d="
			M589.52,144.813h16.599c1.073,0,1.943,0.87,1.943,1.943v6.383c0,1.073-0.87,1.943-1.943,1.943H589.52
			c-1.073,0-1.943-0.87-1.943-1.943v-6.383C587.576,145.683,588.446,144.813,589.52,144.813z"/>
		
			<path style="clip-path:url(#SVGID_00000096046922220123810480000017534892317173544331_);fill:none;stroke:#97CEC8;stroke-width:1.5;stroke-linecap:round;stroke-linejoin:round;stroke-miterlimit:10;" d="
			M569.058,144.813h16.599c1.073,0,1.943,0.87,1.943,1.943v6.383c0,1.073-0.87,1.943-1.943,1.943h-16.599
			c-1.073,0-1.943-0.87-1.943-1.943v-6.383C567.115,145.683,567.985,144.813,569.058,144.813z"/>
		
			<path style="clip-path:url(#SVGID_00000096046922220123810480000017534892317173544331_);fill:none;stroke:#97CEC8;stroke-width:1.5;stroke-linecap:round;stroke-linejoin:round;stroke-miterlimit:10;" d="
			M548.573,144.813h16.599c1.073,0,1.943,0.87,1.943,1.943v6.383c0,1.073-0.87,1.943-1.943,1.943h-16.599
			c-1.073,0-1.943-0.87-1.943-1.943v-6.383C546.629,145.683,547.499,144.813,548.573,144.813z"/>
		
			<path style="clip-path:url(#SVGID_00000096046922220123810480000017534892317173544331_);fill:none;stroke:#97CEC8;stroke-width:1.5;stroke-linecap:round;stroke-linejoin:round;stroke-miterlimit:10;" d="
			M743.193,134.543h16.599c1.073,0,1.943,0.87,1.943,1.943v6.383c0,1.073-0.87,1.943-1.943,1.943h-16.599
			c-1.073,0-1.943-0.87-1.943-1.943v-6.383C741.25,135.413,742.12,134.543,743.193,134.543z"/>
		
			<path style="clip-path:url(#SVGID_00000096046922220123810480000017534892317173544331_);fill:none;stroke:#97CEC8;stroke-width:1.5;stroke-linecap:round;stroke-linejoin:round;stroke-miterlimit:10;" d="
			M722.708,134.543h16.599c1.073,0,1.943,0.87,1.943,1.943v6.383c0,1.073-0.87,1.943-1.943,1.943h-16.599
			c-1.073,0-1.943-0.87-1.943-1.943v-6.383C720.764,135.413,721.634,134.543,722.708,134.543z"/>
		
			<path style="clip-path:url(#SVGID_00000096046922220123810480000017534892317173544331_);fill:none;stroke:#97CEC8;stroke-width:1.5;stroke-linecap:round;stroke-linejoin:round;stroke-miterlimit:10;" d="
			M538.316,134.543h16.599c1.073,0,1.943,0.87,1.943,1.943v6.383c0,1.073-0.87,1.943-1.943,1.943h-16.599
			c-1.073,0-1.943-0.87-1.943-1.943v-6.383C536.373,135.413,537.243,134.543,538.316,134.543z"/>
		
			<path style="clip-path:url(#SVGID_00000096046922220123810480000017534892317173544331_);fill:none;stroke:#97CEC8;stroke-width:1.5;stroke-linecap:round;stroke-linejoin:round;stroke-miterlimit:10;" d="
			M702.201,134.543H718.8c1.073,0,1.943,0.87,1.943,1.943v6.383c0,1.073-0.87,1.943-1.943,1.943h-16.599
			c-1.073,0-1.943-0.87-1.943-1.943v-6.383C700.258,135.413,701.128,134.543,702.201,134.543z"/>
		
			<path style="clip-path:url(#SVGID_00000096046922220123810480000017534892317173544331_);fill:none;stroke:#97CEC8;stroke-width:1.5;stroke-linecap:round;stroke-linejoin:round;stroke-miterlimit:10;" d="
			M681.715,134.543h16.599c1.073,0,1.943,0.87,1.943,1.943v6.383c0,1.073-0.87,1.943-1.943,1.943h-16.599
			c-1.073,0-1.943-0.87-1.943-1.943v-6.383C679.772,135.413,680.642,134.543,681.715,134.543z"/>
		
			<path style="clip-path:url(#SVGID_00000096046922220123810480000017534892317173544331_);fill:none;stroke:#97CEC8;stroke-width:1.5;stroke-linecap:round;stroke-linejoin:round;stroke-miterlimit:10;" d="
			M661.227,134.543h16.599c1.073,0,1.943,0.87,1.943,1.943v6.383c0,1.073-0.87,1.943-1.943,1.943h-16.599
			c-1.073,0-1.943-0.87-1.943-1.943v-6.383C659.283,135.413,660.153,134.543,661.227,134.543z"/>
		
			<path style="clip-path:url(#SVGID_00000096046922220123810480000017534892317173544331_);fill:none;stroke:#97CEC8;stroke-width:1.5;stroke-linecap:round;stroke-linejoin:round;stroke-miterlimit:10;" d="
			M640.741,134.543h16.599c1.073,0,1.943,0.87,1.943,1.943v6.383c0,1.073-0.87,1.943-1.943,1.943h-16.599
			c-1.073,0-1.943-0.87-1.943-1.943v-6.383C638.798,135.413,639.668,134.543,640.741,134.543z"/>
		
			<path style="clip-path:url(#SVGID_00000096046922220123810480000017534892317173544331_);fill:none;stroke:#97CEC8;stroke-width:1.5;stroke-linecap:round;stroke-linejoin:round;stroke-miterlimit:10;" d="
			M620.234,134.543h16.599c1.073,0,1.943,0.87,1.943,1.943v6.383c0,1.073-0.87,1.943-1.943,1.943h-16.599
			c-1.073,0-1.943-0.87-1.943-1.943v-6.383C618.291,135.413,619.161,134.543,620.234,134.543z"/>
		
			<path style="clip-path:url(#SVGID_00000096046922220123810480000017534892317173544331_);fill:none;stroke:#97CEC8;stroke-width:1.5;stroke-linecap:round;stroke-linejoin:round;stroke-miterlimit:10;" d="
			M599.749,134.543h16.599c1.073,0,1.943,0.87,1.943,1.943v6.383c0,1.073-0.87,1.943-1.943,1.943h-16.599
			c-1.073,0-1.943-0.87-1.943-1.943v-6.383C597.805,135.413,598.675,134.543,599.749,134.543z"/>
		
			<path style="clip-path:url(#SVGID_00000096046922220123810480000017534892317173544331_);fill:none;stroke:#97CEC8;stroke-width:1.5;stroke-linecap:round;stroke-linejoin:round;stroke-miterlimit:10;" d="
			M579.287,134.543h16.599c1.073,0,1.943,0.87,1.943,1.943v6.383c0,1.073-0.87,1.943-1.943,1.943h-16.599
			c-1.073,0-1.943-0.87-1.943-1.943v-6.383C577.344,135.413,578.214,134.543,579.287,134.543z"/>
		
			<path style="clip-path:url(#SVGID_00000096046922220123810480000017534892317173544331_);fill:none;stroke:#97CEC8;stroke-width:1.5;stroke-linecap:round;stroke-linejoin:round;stroke-miterlimit:10;" d="
			M558.802,134.543h16.599c1.073,0,1.943,0.87,1.943,1.943v6.383c0,1.073-0.87,1.943-1.943,1.943h-16.599
			c-1.073,0-1.943-0.87-1.943-1.943v-6.383C556.858,135.413,557.729,134.543,558.802,134.543z"/>
		<g style="clip-path:url(#SVGID_00000096046922220123810480000017534892317173544331_);">
			<path style="fill:none;stroke:#97CEC8;stroke-width:1.5;stroke-linecap:round;stroke-linejoin:round;stroke-miterlimit:10;" d="
				M876.682,144.813h16.599c1.073,0,1.943,0.87,1.943,1.943v6.383c0,1.073-0.87,1.943-1.943,1.943h-16.599
				c-1.073,0-1.943-0.87-1.943-1.943v-6.383C874.738,145.683,875.608,144.813,876.682,144.813z"/>
			<path style="fill:none;stroke:#97CEC8;stroke-width:1.5;stroke-linecap:round;stroke-linejoin:round;stroke-miterlimit:10;" d="
				M856.196,144.813h16.599c1.073,0,1.943,0.87,1.943,1.943v6.383c0,1.073-0.87,1.943-1.943,1.943h-16.599
				c-1.073,0-1.943-0.87-1.943-1.943v-6.383C854.253,145.683,855.123,144.813,856.196,144.813z"/>
			<path style="fill:none;stroke:#97CEC8;stroke-width:1.5;stroke-linecap:round;stroke-linejoin:round;stroke-miterlimit:10;" d="
				M835.689,144.813h16.599c1.073,0,1.943,0.87,1.943,1.943v6.383c0,1.073-0.87,1.943-1.943,1.943h-16.599
				c-1.073,0-1.943-0.87-1.943-1.943v-6.383C833.746,145.683,834.616,144.813,835.689,144.813z"/>
			<path style="fill:none;stroke:#97CEC8;stroke-width:1.5;stroke-linecap:round;stroke-linejoin:round;stroke-miterlimit:10;" d="
				M815.204,144.813h16.599c1.073,0,1.943,0.87,1.943,1.943v6.383c0,1.073-0.87,1.943-1.943,1.943h-16.599
				c-1.073,0-1.943-0.87-1.943-1.943v-6.383C813.261,145.683,814.131,144.813,815.204,144.813z"/>
			<path style="fill:none;stroke:#97CEC8;stroke-width:1.5;stroke-linecap:round;stroke-linejoin:round;stroke-miterlimit:10;" d="
				M794.715,144.813h16.599c1.073,0,1.943,0.87,1.943,1.943v6.383c0,1.073-0.87,1.943-1.943,1.943h-16.599
				c-1.073,0-1.943-0.87-1.943-1.943v-6.383C792.772,145.683,793.642,144.813,794.715,144.813z"/>
			<path style="fill:none;stroke:#97CEC8;stroke-width:1.5;stroke-linecap:round;stroke-linejoin:round;stroke-miterlimit:10;" d="
				M774.229,144.813h16.599c1.073,0,1.943,0.87,1.943,1.943v6.383c0,1.073-0.87,1.943-1.943,1.943h-16.599
				c-1.073,0-1.943-0.87-1.943-1.943v-6.383C772.286,145.683,773.156,144.813,774.229,144.813z"/>
			<path style="fill:none;stroke:#97CEC8;stroke-width:1.5;stroke-linecap:round;stroke-linejoin:round;stroke-miterlimit:10;" d="
				M753.723,144.813h16.599c1.073,0,1.943,0.87,1.943,1.943v6.383c0,1.073-0.87,1.943-1.943,1.943h-16.599
				c-1.073,0-1.943-0.87-1.943-1.943v-6.383C751.779,145.683,752.65,144.813,753.723,144.813z"/>
			<path style="fill:none;stroke:#97CEC8;stroke-width:1.5;stroke-linecap:round;stroke-linejoin:round;stroke-miterlimit:10;" d="
				M886.911,134.543h16.599c1.073,0,1.943,0.87,1.943,1.943v6.383c0,1.073-0.87,1.943-1.943,1.943h-16.599
				c-1.073,0-1.943-0.87-1.943-1.943v-6.383C884.967,135.413,885.838,134.543,886.911,134.543z"/>
			<path style="fill:none;stroke:#97CEC8;stroke-width:1.5;stroke-linecap:round;stroke-linejoin:round;stroke-miterlimit:10;" d="
				M866.425,134.543h16.599c1.073,0,1.943,0.87,1.943,1.943v6.383c0,1.073-0.87,1.943-1.943,1.943h-16.599
				c-1.073,0-1.943-0.87-1.943-1.943v-6.383C864.482,135.413,865.352,134.543,866.425,134.543z"/>
			<path style="fill:none;stroke:#97CEC8;stroke-width:1.5;stroke-linecap:round;stroke-linejoin:round;stroke-miterlimit:10;" d="
				M845.919,134.543h16.599c1.073,0,1.943,0.87,1.943,1.943v6.383c0,1.073-0.87,1.943-1.943,1.943h-16.599
				c-1.073,0-1.943-0.87-1.943-1.943v-6.383C843.975,135.413,844.845,134.543,845.919,134.543z"/>
			<path style="fill:none;stroke:#97CEC8;stroke-width:1.5;stroke-linecap:round;stroke-linejoin:round;stroke-miterlimit:10;" d="
				M825.433,134.543h16.599c1.073,0,1.943,0.87,1.943,1.943v6.383c0,1.073-0.87,1.943-1.943,1.943h-16.599
				c-1.073,0-1.943-0.87-1.943-1.943v-6.383C823.49,135.413,824.36,134.543,825.433,134.543z"/>
			<path style="fill:none;stroke:#97CEC8;stroke-width:1.5;stroke-linecap:round;stroke-linejoin:round;stroke-miterlimit:10;" d="
				M804.944,134.543h16.599c1.073,0,1.943,0.87,1.943,1.943v6.383c0,1.073-0.87,1.943-1.943,1.943h-16.599
				c-1.073,0-1.943-0.87-1.943-1.943v-6.383C803.001,135.413,803.871,134.543,804.944,134.543z"/>
			<path style="fill:none;stroke:#97CEC8;stroke-width:1.5;stroke-linecap:round;stroke-linejoin:round;stroke-miterlimit:10;" d="
				M784.458,134.543h16.599c1.073,0,1.943,0.87,1.943,1.943v6.383c0,1.073-0.87,1.943-1.943,1.943h-16.599
				c-1.073,0-1.943-0.87-1.943-1.943v-6.383C782.515,135.413,783.385,134.543,784.458,134.543z"/>
			<path style="fill:none;stroke:#97CEC8;stroke-width:1.5;stroke-linecap:round;stroke-linejoin:round;stroke-miterlimit:10;" d="
				M763.952,134.543h16.599c1.073,0,1.943,0.87,1.943,1.943v6.383c0,1.073-0.87,1.943-1.943,1.943h-16.599
				c-1.073,0-1.943-0.87-1.943-1.943v-6.383C762.009,135.413,762.879,134.543,763.952,134.543z"/>
			<path style="fill:none;stroke:#97CEC8;stroke-width:1.5;stroke-linecap:round;stroke-linejoin:round;stroke-miterlimit:10;" d="
				M1081.594,144.813h16.599c1.073,0,1.943,0.87,1.943,1.943v6.383c0,1.073-0.87,1.943-1.943,1.943h-16.599
				c-1.073,0-1.943-0.87-1.943-1.943v-6.383C1079.651,145.683,1080.521,144.813,1081.594,144.813z"/>
			<path style="fill:none;stroke:#97CEC8;stroke-width:1.5;stroke-linecap:round;stroke-linejoin:round;stroke-miterlimit:10;" d="
				M1061.108,144.813h16.599c1.073,0,1.943,0.87,1.943,1.943v6.383c0,1.073-0.87,1.943-1.943,1.943h-16.599
				c-1.073,0-1.943-0.87-1.943-1.943v-6.383C1059.165,145.683,1060.035,144.813,1061.108,144.813z"/>
			<path style="fill:none;stroke:#97CEC8;stroke-width:1.5;stroke-linecap:round;stroke-linejoin:round;stroke-miterlimit:10;" d="
				M1040.602,144.813h16.599c1.073,0,1.943,0.87,1.943,1.943v6.383c0,1.073-0.87,1.943-1.943,1.943h-16.599
				c-1.073,0-1.943-0.87-1.943-1.943v-6.383C1038.658,145.683,1039.528,144.813,1040.602,144.813z"/>
			<path style="fill:none;stroke:#97CEC8;stroke-width:1.5;stroke-linecap:round;stroke-linejoin:round;stroke-miterlimit:10;" d="
				M1020.116,144.813h16.599c1.073,0,1.943,0.87,1.943,1.943v6.383c0,1.073-0.87,1.943-1.943,1.943h-16.599
				c-1.073,0-1.943-0.87-1.943-1.943v-6.383C1018.173,145.683,1019.043,144.813,1020.116,144.813z"/>
			<path style="fill:none;stroke:#97CEC8;stroke-width:1.5;stroke-linecap:round;stroke-linejoin:round;stroke-miterlimit:10;" d="
				M999.627,144.813h16.599c1.073,0,1.943,0.87,1.943,1.943v6.383c0,1.073-0.87,1.943-1.943,1.943h-16.599
				c-1.073,0-1.943-0.87-1.943-1.943v-6.383C997.684,145.683,998.554,144.813,999.627,144.813z"/>
			<path style="fill:none;stroke:#97CEC8;stroke-width:1.5;stroke-linecap:round;stroke-linejoin:round;stroke-miterlimit:10;" d="
				M979.142,144.813h16.599c1.073,0,1.943,0.87,1.943,1.943v6.383c0,1.073-0.87,1.943-1.943,1.943h-16.599
				c-1.073,0-1.943-0.87-1.943-1.943v-6.383C977.198,145.683,978.068,144.813,979.142,144.813z"/>
			<path style="fill:none;stroke:#97CEC8;stroke-width:1.5;stroke-linecap:round;stroke-linejoin:round;stroke-miterlimit:10;" d="
				M958.635,144.813h16.599c1.073,0,1.943,0.87,1.943,1.943v6.383c0,1.073-0.87,1.943-1.943,1.943h-16.599
				c-1.073,0-1.943-0.87-1.943-1.943v-6.383C956.692,145.683,957.562,144.813,958.635,144.813z"/>
			<path style="fill:none;stroke:#97CEC8;stroke-width:1.5;stroke-linecap:round;stroke-linejoin:round;stroke-miterlimit:10;" d="
				M938.149,144.813h16.599c1.073,0,1.943,0.87,1.943,1.943v6.383c0,1.073-0.87,1.943-1.943,1.943h-16.599
				c-1.073,0-1.943-0.87-1.943-1.943v-6.383C936.206,145.683,937.076,144.813,938.149,144.813z"/>
			<path style="fill:none;stroke:#97CEC8;stroke-width:1.5;stroke-linecap:round;stroke-linejoin:round;stroke-miterlimit:10;" d="
				M917.688,144.813h16.599c1.073,0,1.943,0.87,1.943,1.943v6.383c0,1.073-0.87,1.943-1.943,1.943h-16.599
				c-1.073,0-1.943-0.87-1.943-1.943v-6.383C915.745,145.683,916.615,144.813,917.688,144.813z"/>
			<path style="fill:none;stroke:#97CEC8;stroke-width:1.5;stroke-linecap:round;stroke-linejoin:round;stroke-miterlimit:10;" d="
				M897.202,144.813h16.599c1.073,0,1.943,0.87,1.943,1.943v6.383c0,1.073-0.87,1.943-1.943,1.943h-16.599
				c-1.073,0-1.943-0.87-1.943-1.943v-6.383C895.259,145.683,896.129,144.813,897.202,144.813z"/>
			<path style="fill:none;stroke:#97CEC8;stroke-width:1.5;stroke-linecap:round;stroke-linejoin:round;stroke-miterlimit:10;" d="
				M1091.823,134.543h16.599c1.073,0,1.943,0.87,1.943,1.943v6.383c0,1.073-0.87,1.943-1.943,1.943h-16.599
				c-1.073,0-1.943-0.87-1.943-1.943v-6.383C1089.88,135.413,1090.75,134.543,1091.823,134.543z"/>
			<path style="fill:none;stroke:#97CEC8;stroke-width:1.5;stroke-linecap:round;stroke-linejoin:round;stroke-miterlimit:10;" d="
				M1071.337,134.543h16.599c1.073,0,1.943,0.87,1.943,1.943v6.383c0,1.073-0.87,1.943-1.943,1.943h-16.599
				c-1.073,0-1.943-0.87-1.943-1.943v-6.383C1069.394,135.413,1070.264,134.543,1071.337,134.543z"/>
			<path style="fill:none;stroke:#97CEC8;stroke-width:1.5;stroke-linecap:round;stroke-linejoin:round;stroke-miterlimit:10;" d="
				M886.946,134.543h16.599c1.073,0,1.943,0.87,1.943,1.943v6.383c0,1.073-0.87,1.943-1.943,1.943h-16.599
				c-1.073,0-1.943-0.87-1.943-1.943v-6.383C885.003,135.413,885.873,134.543,886.946,134.543z"/>
			<path style="fill:none;stroke:#97CEC8;stroke-width:1.5;stroke-linecap:round;stroke-linejoin:round;stroke-miterlimit:10;" d="
				M1050.831,134.543h16.599c1.073,0,1.943,0.87,1.943,1.943v6.383c0,1.073-0.87,1.943-1.943,1.943h-16.599
				c-1.073,0-1.943-0.87-1.943-1.943v-6.383C1048.887,135.413,1049.758,134.543,1050.831,134.543z"/>
			<path style="fill:none;stroke:#97CEC8;stroke-width:1.5;stroke-linecap:round;stroke-linejoin:round;stroke-miterlimit:10;" d="
				M1030.345,134.543h16.599c1.073,0,1.943,0.87,1.943,1.943v6.383c0,1.073-0.87,1.943-1.943,1.943h-16.599
				c-1.073,0-1.943-0.87-1.943-1.943v-6.383C1028.402,135.413,1029.272,134.543,1030.345,134.543z"/>
			<path style="fill:none;stroke:#97CEC8;stroke-width:1.5;stroke-linecap:round;stroke-linejoin:round;stroke-miterlimit:10;" d="
				M1009.856,134.543h16.599c1.073,0,1.943,0.87,1.943,1.943v6.383c0,1.073-0.87,1.943-1.943,1.943h-16.599
				c-1.073,0-1.943-0.87-1.943-1.943v-6.383C1007.913,135.413,1008.783,134.543,1009.856,134.543z"/>
			<path style="fill:none;stroke:#97CEC8;stroke-width:1.5;stroke-linecap:round;stroke-linejoin:round;stroke-miterlimit:10;" d="
				M989.371,134.543h16.599c1.073,0,1.943,0.87,1.943,1.943v6.383c0,1.073-0.87,1.943-1.943,1.943h-16.599
				c-1.073,0-1.943-0.87-1.943-1.943v-6.383C987.427,135.413,988.297,134.543,989.371,134.543z"/>
			<path style="fill:none;stroke:#97CEC8;stroke-width:1.5;stroke-linecap:round;stroke-linejoin:round;stroke-miterlimit:10;" d="
				M968.864,134.543h16.599c1.073,0,1.943,0.87,1.943,1.943v6.383c0,1.073-0.87,1.943-1.943,1.943h-16.599
				c-1.073,0-1.943-0.87-1.943-1.943v-6.383C966.921,135.413,967.791,134.543,968.864,134.543z"/>
			<path style="fill:none;stroke:#97CEC8;stroke-width:1.5;stroke-linecap:round;stroke-linejoin:round;stroke-miterlimit:10;" d="
				M948.378,134.543h16.599c1.073,0,1.943,0.87,1.943,1.943v6.383c0,1.073-0.87,1.943-1.943,1.943h-16.599
				c-1.073,0-1.943-0.87-1.943-1.943v-6.383C946.435,135.413,947.305,134.543,948.378,134.543z"/>
			<path style="fill:none;stroke:#97CEC8;stroke-width:1.5;stroke-linecap:round;stroke-linejoin:round;stroke-miterlimit:10;" d="
				M927.917,134.543h16.599c1.073,0,1.943,0.87,1.943,1.943v6.383c0,1.073-0.87,1.943-1.943,1.943h-16.599
				c-1.073,0-1.943-0.87-1.943-1.943v-6.383C925.974,135.413,926.844,134.543,927.917,134.543z"/>
			<path style="fill:none;stroke:#97CEC8;stroke-width:1.5;stroke-linecap:round;stroke-linejoin:round;stroke-miterlimit:10;" d="
				M907.431,134.543h16.599c1.073,0,1.943,0.87,1.943,1.943v6.383c0,1.073-0.87,1.943-1.943,1.943h-16.599
				c-1.073,0-1.943-0.87-1.943-1.943v-6.383C905.488,135.413,906.358,134.543,907.431,134.543z"/>
			<path style="fill:none;stroke:#97CEC8;stroke-width:1.5;stroke-linecap:round;stroke-linejoin:round;stroke-miterlimit:10;" d="
				M1286.474,144.813h16.599c1.073,0,1.943,0.87,1.943,1.943v6.383c0,1.073-0.87,1.943-1.943,1.943h-16.599
				c-1.073,0-1.943-0.87-1.943-1.943v-6.383C1284.531,145.683,1285.401,144.813,1286.474,144.813z"/>
			<path style="fill:none;stroke:#97CEC8;stroke-width:1.5;stroke-linecap:round;stroke-linejoin:round;stroke-miterlimit:10;" d="
				M1265.989,144.813h16.599c1.073,0,1.943,0.87,1.943,1.943v6.383c0,1.073-0.87,1.943-1.943,1.943h-16.599
				c-1.073,0-1.943-0.87-1.943-1.943v-6.383C1264.045,145.683,1264.915,144.813,1265.989,144.813z"/>
			<path style="fill:none;stroke:#97CEC8;stroke-width:1.5;stroke-linecap:round;stroke-linejoin:round;stroke-miterlimit:10;" d="
				M1245.482,144.813h16.599c1.073,0,1.943,0.87,1.943,1.943v6.383c0,1.073-0.87,1.943-1.943,1.943h-16.599
				c-1.073,0-1.943-0.87-1.943-1.943v-6.383C1243.539,145.683,1244.409,144.813,1245.482,144.813z"/>
			<path style="fill:none;stroke:#97CEC8;stroke-width:1.5;stroke-linecap:round;stroke-linejoin:round;stroke-miterlimit:10;" d="
				M1224.996,144.813h16.599c1.073,0,1.943,0.87,1.943,1.943v6.383c0,1.073-0.87,1.943-1.943,1.943h-16.599
				c-1.073,0-1.943-0.87-1.943-1.943v-6.383C1223.053,145.683,1223.923,144.813,1224.996,144.813z"/>
			<path style="fill:none;stroke:#97CEC8;stroke-width:1.5;stroke-linecap:round;stroke-linejoin:round;stroke-miterlimit:10;" d="
				M1204.507,144.813h16.599c1.073,0,1.943,0.87,1.943,1.943v6.383c0,1.073-0.87,1.943-1.943,1.943h-16.599
				c-1.073,0-1.943-0.87-1.943-1.943v-6.383C1202.564,145.683,1203.434,144.813,1204.507,144.813z"/>
			<path style="fill:none;stroke:#97CEC8;stroke-width:1.5;stroke-linecap:round;stroke-linejoin:round;stroke-miterlimit:10;" d="
				M1184.022,144.813h16.599c1.073,0,1.943,0.87,1.943,1.943v6.383c0,1.073-0.87,1.943-1.943,1.943h-16.599
				c-1.073,0-1.943-0.87-1.943-1.943v-6.383C1182.079,145.683,1182.949,144.813,1184.022,144.813z"/>
			<path style="fill:none;stroke:#97CEC8;stroke-width:1.5;stroke-linecap:round;stroke-linejoin:round;stroke-miterlimit:10;" d="
				M1163.515,144.813h16.599c1.073,0,1.943,0.87,1.943,1.943v6.383c0,1.073-0.87,1.943-1.943,1.943h-16.599
				c-1.073,0-1.943-0.87-1.943-1.943v-6.383C1161.572,145.683,1162.442,144.813,1163.515,144.813z"/>
			<path style="fill:none;stroke:#97CEC8;stroke-width:1.5;stroke-linecap:round;stroke-linejoin:round;stroke-miterlimit:10;" d="
				M1143.03,144.813h16.599c1.073,0,1.943,0.87,1.943,1.943v6.383c0,1.073-0.87,1.943-1.943,1.943h-16.599
				c-1.073,0-1.943-0.87-1.943-1.943v-6.383C1141.086,145.683,1141.956,144.813,1143.03,144.813z"/>
			<path style="fill:none;stroke:#97CEC8;stroke-width:1.5;stroke-linecap:round;stroke-linejoin:round;stroke-miterlimit:10;" d="
				M1122.568,144.813h16.599c1.073,0,1.943,0.87,1.943,1.943v6.383c0,1.073-0.87,1.943-1.943,1.943h-16.599
				c-1.073,0-1.943-0.87-1.943-1.943v-6.383C1120.625,145.683,1121.495,144.813,1122.568,144.813z"/>
			<path style="fill:none;stroke:#97CEC8;stroke-width:1.5;stroke-linecap:round;stroke-linejoin:round;stroke-miterlimit:10;" d="
				M1102.083,144.813h16.599c1.073,0,1.943,0.87,1.943,1.943v6.383c0,1.073-0.87,1.943-1.943,1.943h-16.599
				c-1.073,0-1.943-0.87-1.943-1.943v-6.383C1100.139,145.683,1101.009,144.813,1102.083,144.813z"/>
			<path style="fill:none;stroke:#97CEC8;stroke-width:1.5;stroke-linecap:round;stroke-linejoin:round;stroke-miterlimit:10;" d="
				M1296.703,134.543h16.599c1.073,0,1.943,0.87,1.943,1.943v6.383c0,1.073-0.87,1.943-1.943,1.943h-16.599
				c-1.073,0-1.943-0.87-1.943-1.943v-6.383C1294.76,135.413,1295.63,134.543,1296.703,134.543z"/>
			<path style="fill:none;stroke:#97CEC8;stroke-width:1.5;stroke-linecap:round;stroke-linejoin:round;stroke-miterlimit:10;" d="
				M1276.218,134.543h16.599c1.073,0,1.943,0.87,1.943,1.943v6.383c0,1.073-0.87,1.943-1.943,1.943h-16.599
				c-1.073,0-1.943-0.87-1.943-1.943v-6.383C1274.274,135.413,1275.144,134.543,1276.218,134.543z"/>
			<path style="fill:none;stroke:#97CEC8;stroke-width:1.5;stroke-linecap:round;stroke-linejoin:round;stroke-miterlimit:10;" d="
				M1091.826,134.543h16.599c1.073,0,1.943,0.87,1.943,1.943v6.383c0,1.073-0.87,1.943-1.943,1.943h-16.599
				c-1.073,0-1.943-0.87-1.943-1.943v-6.383C1089.883,135.413,1090.753,134.543,1091.826,134.543z"/>
			<path style="fill:none;stroke:#97CEC8;stroke-width:1.5;stroke-linecap:round;stroke-linejoin:round;stroke-miterlimit:10;" d="
				M1255.711,134.543h16.599c1.073,0,1.943,0.87,1.943,1.943v6.383c0,1.073-0.87,1.943-1.943,1.943h-16.599
				c-1.073,0-1.943-0.87-1.943-1.943v-6.383C1253.768,135.413,1254.638,134.543,1255.711,134.543z"/>
			<path style="fill:none;stroke:#97CEC8;stroke-width:1.5;stroke-linecap:round;stroke-linejoin:round;stroke-miterlimit:10;" d="
				M1235.225,134.543h16.599c1.073,0,1.943,0.87,1.943,1.943v6.383c0,1.073-0.87,1.943-1.943,1.943h-16.599
				c-1.073,0-1.943-0.87-1.943-1.943v-6.383C1233.282,135.413,1234.152,134.543,1235.225,134.543z"/>
			<path style="fill:none;stroke:#97CEC8;stroke-width:1.5;stroke-linecap:round;stroke-linejoin:round;stroke-miterlimit:10;" d="
				M1214.737,134.543h16.599c1.073,0,1.943,0.87,1.943,1.943v6.383c0,1.073-0.87,1.943-1.943,1.943h-16.599
				c-1.073,0-1.943-0.87-1.943-1.943v-6.383C1212.793,135.413,1213.663,134.543,1214.737,134.543z"/>
			<path style="fill:none;stroke:#97CEC8;stroke-width:1.5;stroke-linecap:round;stroke-linejoin:round;stroke-miterlimit:10;" d="
				M1194.251,134.543h16.599c1.073,0,1.943,0.87,1.943,1.943v6.383c0,1.073-0.87,1.943-1.943,1.943h-16.599
				c-1.073,0-1.943-0.87-1.943-1.943v-6.383C1192.308,135.413,1193.178,134.543,1194.251,134.543z"/>
			<path style="fill:none;stroke:#97CEC8;stroke-width:1.5;stroke-linecap:round;stroke-linejoin:round;stroke-miterlimit:10;" d="
				M1173.744,134.543h16.599c1.073,0,1.943,0.87,1.943,1.943v6.383c0,1.073-0.87,1.943-1.943,1.943h-16.599
				c-1.073,0-1.943-0.87-1.943-1.943v-6.383C1171.801,135.413,1172.671,134.543,1173.744,134.543z"/>
			<path style="fill:none;stroke:#97CEC8;stroke-width:1.5;stroke-linecap:round;stroke-linejoin:round;stroke-miterlimit:10;" d="
				M1153.259,134.543h16.599c1.073,0,1.943,0.87,1.943,1.943v6.383c0,1.073-0.87,1.943-1.943,1.943h-16.599
				c-1.073,0-1.943-0.87-1.943-1.943v-6.383C1151.315,135.413,1152.185,134.543,1153.259,134.543z"/>
			<path style="fill:none;stroke:#97CEC8;stroke-width:1.5;stroke-linecap:round;stroke-linejoin:round;stroke-miterlimit:10;" d="
				M1132.797,134.543h16.599c1.073,0,1.943,0.87,1.943,1.943v6.383c0,1.073-0.87,1.943-1.943,1.943h-16.599
				c-1.073,0-1.943-0.87-1.943-1.943v-6.383C1130.854,135.413,1131.724,134.543,1132.797,134.543z"/>
			<path style="fill:none;stroke:#97CEC8;stroke-width:1.5;stroke-linecap:round;stroke-linejoin:round;stroke-miterlimit:10;" d="
				M1112.312,134.543h16.599c1.073,0,1.943,0.87,1.943,1.943v6.383c0,1.073-0.87,1.943-1.943,1.943h-16.599
				c-1.073,0-1.943-0.87-1.943-1.943v-6.383C1110.368,135.413,1111.238,134.543,1112.312,134.543z"/>
			<path style="fill:none;stroke:#97CEC8;stroke-width:1.5;stroke-linecap:round;stroke-linejoin:round;stroke-miterlimit:10;" d="
				M1491.386,144.813h16.599c1.073,0,1.943,0.87,1.943,1.943v6.383c0,1.073-0.87,1.943-1.943,1.943h-16.599
				c-1.073,0-1.943-0.87-1.943-1.943v-6.383C1489.443,145.683,1490.313,144.813,1491.386,144.813z"/>
			<path style="fill:none;stroke:#97CEC8;stroke-width:1.5;stroke-linecap:round;stroke-linejoin:round;stroke-miterlimit:10;" d="
				M1470.901,144.813h16.599c1.073,0,1.943,0.87,1.943,1.943v6.383c0,1.073-0.87,1.943-1.943,1.943h-16.599
				c-1.073,0-1.943-0.87-1.943-1.943v-6.383C1468.958,145.683,1469.828,144.813,1470.901,144.813z"/>
			<path style="fill:none;stroke:#97CEC8;stroke-width:1.5;stroke-linecap:round;stroke-linejoin:round;stroke-miterlimit:10;" d="
				M1450.394,144.813h16.599c1.073,0,1.943,0.87,1.943,1.943v6.383c0,1.073-0.87,1.943-1.943,1.943h-16.599
				c-1.073,0-1.943-0.87-1.943-1.943v-6.383C1448.451,145.683,1449.321,144.813,1450.394,144.813z"/>
			<path style="fill:none;stroke:#97CEC8;stroke-width:1.5;stroke-linecap:round;stroke-linejoin:round;stroke-miterlimit:10;" d="
				M1429.909,144.813h16.599c1.073,0,1.943,0.87,1.943,1.943v6.383c0,1.073-0.87,1.943-1.943,1.943h-16.599
				c-1.073,0-1.943-0.87-1.943-1.943v-6.383C1427.965,145.683,1428.835,144.813,1429.909,144.813z"/>
			<path style="fill:none;stroke:#97CEC8;stroke-width:1.5;stroke-linecap:round;stroke-linejoin:round;stroke-miterlimit:10;" d="
				M1409.42,144.813h16.599c1.073,0,1.943,0.87,1.943,1.943v6.383c0,1.073-0.87,1.943-1.943,1.943h-16.599
				c-1.073,0-1.943-0.87-1.943-1.943v-6.383C1407.476,145.683,1408.346,144.813,1409.42,144.813z"/>
			<path style="fill:none;stroke:#97CEC8;stroke-width:1.5;stroke-linecap:round;stroke-linejoin:round;stroke-miterlimit:10;" d="
				M1388.934,144.813h16.599c1.073,0,1.943,0.87,1.943,1.943v6.383c0,1.073-0.87,1.943-1.943,1.943h-16.599
				c-1.073,0-1.943-0.87-1.943-1.943v-6.383C1386.991,145.683,1387.861,144.813,1388.934,144.813z"/>
			<path style="fill:none;stroke:#97CEC8;stroke-width:1.5;stroke-linecap:round;stroke-linejoin:round;stroke-miterlimit:10;" d="
				M1368.427,144.813h16.599c1.073,0,1.943,0.87,1.943,1.943v6.383c0,1.073-0.87,1.943-1.943,1.943h-16.599
				c-1.073,0-1.943-0.87-1.943-1.943v-6.383C1366.484,145.683,1367.354,144.813,1368.427,144.813z"/>
			<path style="fill:none;stroke:#97CEC8;stroke-width:1.5;stroke-linecap:round;stroke-linejoin:round;stroke-miterlimit:10;" d="
				M1347.942,144.813h16.599c1.073,0,1.943,0.87,1.943,1.943v6.383c0,1.073-0.87,1.943-1.943,1.943h-16.599
				c-1.073,0-1.943-0.87-1.943-1.943v-6.383C1345.999,145.683,1346.869,144.813,1347.942,144.813z"/>
			<path style="fill:none;stroke:#97CEC8;stroke-width:1.5;stroke-linecap:round;stroke-linejoin:round;stroke-miterlimit:10;" d="
				M1327.48,144.813h16.599c1.073,0,1.943,0.87,1.943,1.943v6.383c0,1.073-0.87,1.943-1.943,1.943h-16.599
				c-1.073,0-1.943-0.87-1.943-1.943v-6.383C1325.537,145.683,1326.407,144.813,1327.48,144.813z"/>
			<path style="fill:none;stroke:#97CEC8;stroke-width:1.5;stroke-linecap:round;stroke-linejoin:round;stroke-miterlimit:10;" d="
				M1306.995,144.813h16.599c1.073,0,1.943,0.87,1.943,1.943v6.383c0,1.073-0.87,1.943-1.943,1.943h-16.599
				c-1.073,0-1.943-0.87-1.943-1.943v-6.383C1305.052,145.683,1305.922,144.813,1306.995,144.813z"/>
			<path style="fill:none;stroke:#97CEC8;stroke-width:1.5;stroke-linecap:round;stroke-linejoin:round;stroke-miterlimit:10;" d="
				M1501.615,134.543h16.599c1.073,0,1.943,0.87,1.943,1.943v6.383c0,1.073-0.87,1.943-1.943,1.943h-16.599
				c-1.073,0-1.943-0.87-1.943-1.943v-6.383C1499.672,135.413,1500.542,134.543,1501.615,134.543z"/>
			<path style="fill:none;stroke:#97CEC8;stroke-width:1.5;stroke-linecap:round;stroke-linejoin:round;stroke-miterlimit:10;" d="
				M1481.13,134.543h16.599c1.073,0,1.943,0.87,1.943,1.943v6.383c0,1.073-0.87,1.943-1.943,1.943h-16.599
				c-1.073,0-1.943-0.87-1.943-1.943v-6.383C1479.187,135.413,1480.057,134.543,1481.13,134.543z"/>
			<path style="fill:none;stroke:#97CEC8;stroke-width:1.5;stroke-linecap:round;stroke-linejoin:round;stroke-miterlimit:10;" d="
				M1296.738,134.543h16.599c1.073,0,1.943,0.87,1.943,1.943v6.383c0,1.073-0.87,1.943-1.943,1.943h-16.599
				c-1.073,0-1.943-0.87-1.943-1.943v-6.383C1294.795,135.413,1295.665,134.543,1296.738,134.543z"/>
			<path style="fill:none;stroke:#97CEC8;stroke-width:1.5;stroke-linecap:round;stroke-linejoin:round;stroke-miterlimit:10;" d="
				M1460.623,134.543h16.599c1.073,0,1.943,0.87,1.943,1.943v6.383c0,1.073-0.87,1.943-1.943,1.943h-16.599
				c-1.073,0-1.943-0.87-1.943-1.943v-6.383C1458.68,135.413,1459.55,134.543,1460.623,134.543z"/>
			<path style="fill:none;stroke:#97CEC8;stroke-width:1.5;stroke-linecap:round;stroke-linejoin:round;stroke-miterlimit:10;" d="
				M1440.138,134.543h16.599c1.073,0,1.943,0.87,1.943,1.943v6.383c0,1.073-0.87,1.943-1.943,1.943h-16.599
				c-1.073,0-1.943-0.87-1.943-1.943v-6.383C1438.194,135.413,1439.064,134.543,1440.138,134.543z"/>
			<path style="fill:none;stroke:#97CEC8;stroke-width:1.5;stroke-linecap:round;stroke-linejoin:round;stroke-miterlimit:10;" d="
				M1419.649,134.543h16.599c1.073,0,1.943,0.87,1.943,1.943v6.383c0,1.073-0.87,1.943-1.943,1.943h-16.599
				c-1.073,0-1.943-0.87-1.943-1.943v-6.383C1417.705,135.413,1418.576,134.543,1419.649,134.543z"/>
			<path style="fill:none;stroke:#97CEC8;stroke-width:1.5;stroke-linecap:round;stroke-linejoin:round;stroke-miterlimit:10;" d="
				M1399.163,134.543h16.599c1.073,0,1.943,0.87,1.943,1.943v6.383c0,1.073-0.87,1.943-1.943,1.943h-16.599
				c-1.073,0-1.943-0.87-1.943-1.943v-6.383C1397.22,135.413,1398.09,134.543,1399.163,134.543z"/>
			<path style="fill:none;stroke:#97CEC8;stroke-width:1.5;stroke-linecap:round;stroke-linejoin:round;stroke-miterlimit:10;" d="
				M1378.656,134.543h16.599c1.073,0,1.943,0.87,1.943,1.943v6.383c0,1.073-0.87,1.943-1.943,1.943h-16.599
				c-1.073,0-1.943-0.87-1.943-1.943v-6.383C1376.713,135.413,1377.583,134.543,1378.656,134.543z"/>
			<path style="fill:none;stroke:#97CEC8;stroke-width:1.5;stroke-linecap:round;stroke-linejoin:round;stroke-miterlimit:10;" d="
				M1358.171,134.543h16.599c1.073,0,1.943,0.87,1.943,1.943v6.383c0,1.073-0.87,1.943-1.943,1.943h-16.599
				c-1.073,0-1.943-0.87-1.943-1.943v-6.383C1356.228,135.413,1357.098,134.543,1358.171,134.543z"/>
			<path style="fill:none;stroke:#97CEC8;stroke-width:1.5;stroke-linecap:round;stroke-linejoin:round;stroke-miterlimit:10;" d="
				M1337.71,134.543h16.599c1.073,0,1.943,0.87,1.943,1.943v6.383c0,1.073-0.87,1.943-1.943,1.943h-16.599
				c-1.073,0-1.943-0.87-1.943-1.943v-6.383C1335.766,135.413,1336.636,134.543,1337.71,134.543z"/>
			<path style="fill:none;stroke:#97CEC8;stroke-width:1.5;stroke-linecap:round;stroke-linejoin:round;stroke-miterlimit:10;" d="
				M1317.224,134.543h16.599c1.073,0,1.943,0.87,1.943,1.943v6.383c0,1.073-0.87,1.943-1.943,1.943h-16.599
				c-1.073,0-1.943-0.87-1.943-1.943v-6.383C1315.281,135.413,1316.151,134.543,1317.224,134.543z"/>
		</g>
	</g>
</g>
<g id="Details">
	<g>
		
			<line style="fill:none;stroke:#4EEAE6;stroke-width:4.4327;stroke-linecap:round;stroke-linejoin:round;stroke-miterlimit:10;" x1="963.018" y1="70.407" x2="983.249" y2="70.407"/>
		
			<line style="fill:none;stroke:#4EEAE6;stroke-width:4.4327;stroke-linecap:round;stroke-linejoin:round;stroke-miterlimit:10;" x1="978.94" y1="78.591" x2="990.332" y2="78.591"/>
		
			<line style="fill:none;stroke:#4EEAE6;stroke-width:4.4327;stroke-linecap:round;stroke-linejoin:round;stroke-miterlimit:10;" x1="968.349" y1="80.516" x2="963.018" y2="80.516"/>
	</g>
	<g style="opacity:0.3308;">
		<g>
			<path style="fill:#00703A;" d="M525.818,54.134c-0.87,0-1.575-0.706-1.575-1.579v-4.944c0-0.873,0.705-1.579,1.575-1.579
				s1.575,0.706,1.575,1.579v4.944C527.393,53.427,526.688,54.134,525.818,54.134z"/>
		</g>
		<g>
			<path style="fill:#00703A;" d="M532.395,54.134c-0.87,0-1.575-0.706-1.575-1.579v-3.295c0-0.873,0.705-1.579,1.575-1.579
				c0.87,0,1.575,0.706,1.575,1.579v3.295C533.97,53.427,533.265,54.134,532.395,54.134z"/>
		</g>
		<g>
			<path style="fill:#00703A;" d="M519.788,54.134c-0.87,0-1.575-0.706-1.575-1.579v-3.295c0-0.873,0.705-1.579,1.575-1.579
				s1.575,0.706,1.575,1.579v3.295C521.364,53.427,520.658,54.134,519.788,54.134z"/>
		</g>
		<g>
			<path style="fill:#00703A;" d="M543.563,67.182c-0.87,0-1.575-0.706-1.575-1.579v-4.944c0-0.873,0.705-1.579,1.575-1.579
				s1.575,0.706,1.575,1.579v4.944C545.139,66.476,544.433,67.182,543.563,67.182z"/>
		</g>
		<g>
			<path style="fill:#00703A;" d="M550.14,67.182c-0.87,0-1.575-0.706-1.575-1.579v-3.297c0-0.873,0.705-1.579,1.575-1.579
				s1.575,0.706,1.575,1.579v3.297C551.716,66.476,551.01,67.182,550.14,67.182z"/>
		</g>
		<g>
			<path style="fill:#00703A;" d="M537.535,67.182c-0.87,0-1.575-0.706-1.575-1.579v-3.297c0-0.873,0.705-1.579,1.575-1.579
				c0.87,0,1.575,0.706,1.575,1.579v3.297C539.11,66.476,538.405,67.182,537.535,67.182z"/>
		</g>
		<g>
			<path style="fill:#00703A;" d="M549.66,39.85c-0.87,0-1.575-0.706-1.575-1.579v-4.944c0-0.873,0.705-1.579,1.575-1.579
				s1.575,0.706,1.575,1.579v4.944C551.235,39.144,550.53,39.85,549.66,39.85z"/>
		</g>
		<g>
			<path style="fill:#00703A;" d="M556.237,39.85c-0.87,0-1.575-0.706-1.575-1.579v-3.297c0-0.873,0.705-1.579,1.575-1.579
				s1.575,0.706,1.575,1.579v3.297C557.813,39.144,557.107,39.85,556.237,39.85z"/>
		</g>
		<g>
			<path style="fill:#00703A;" d="M543.631,39.85c-0.87,0-1.575-0.706-1.575-1.579v-3.297c0-0.873,0.705-1.579,1.575-1.579
				c0.87,0,1.575,0.706,1.575,1.579v3.297C545.206,39.144,544.501,39.85,543.631,39.85z"/>
		</g>
	</g>
	<g style="opacity:0.3308;">
		<g>
			<path style="fill:#00703A;" d="M1248.013,55.575c-0.87,0-1.575-0.706-1.575-1.579v-4.944c0-0.873,0.705-1.579,1.575-1.579
				s1.575,0.706,1.575,1.579v4.944C1249.588,54.869,1248.883,55.575,1248.013,55.575z"/>
		</g>
		<g>
			<path style="fill:#00703A;" d="M1254.59,55.575c-0.87,0-1.575-0.706-1.575-1.579v-3.295c0-0.873,0.705-1.579,1.575-1.579
				s1.575,0.706,1.575,1.579v3.295C1256.165,54.869,1255.46,55.575,1254.59,55.575z"/>
		</g>
		<g>
			<path style="fill:#00703A;" d="M1241.983,55.575c-0.87,0-1.575-0.706-1.575-1.579v-3.295c0-0.873,0.705-1.579,1.575-1.579
				s1.575,0.706,1.575,1.579v3.295C1243.559,54.869,1242.853,55.575,1241.983,55.575z"/>
		</g>
		<g>
			<path style="fill:#00703A;" d="M1265.758,68.624c-0.87,0-1.575-0.706-1.575-1.579v-4.944c0-0.873,0.705-1.579,1.575-1.579
				s1.575,0.706,1.575,1.579v4.944C1267.334,67.917,1266.628,68.624,1265.758,68.624z"/>
		</g>
		<g>
			<path style="fill:#00703A;" d="M1272.335,68.624c-0.87,0-1.575-0.706-1.575-1.579v-3.297c0-0.873,0.705-1.579,1.575-1.579
				s1.575,0.706,1.575,1.579v3.297C1273.911,67.917,1273.205,68.624,1272.335,68.624z"/>
		</g>
		<g>
			<path style="fill:#00703A;" d="M1259.73,68.624c-0.87,0-1.575-0.706-1.575-1.579v-3.297c0-0.873,0.705-1.579,1.575-1.579
				s1.575,0.706,1.575,1.579v3.297C1261.305,67.917,1260.6,68.624,1259.73,68.624z"/>
		</g>
		<g>
			<path style="fill:#00703A;" d="M1271.854,41.292c-0.87,0-1.575-0.706-1.575-1.579v-4.944c0-0.873,0.705-1.579,1.575-1.579
				s1.575,0.706,1.575,1.579v4.944C1273.43,40.586,1272.724,41.292,1271.854,41.292z"/>
		</g>
		<g>
			<path style="fill:#00703A;" d="M1278.432,41.292c-0.87,0-1.575-0.706-1.575-1.579v-3.297c0-0.873,0.705-1.579,1.575-1.579
				c0.87,0,1.575,0.706,1.575,1.579v3.297C1280.008,40.586,1279.302,41.292,1278.432,41.292z"/>
		</g>
		<g>
			<path style="fill:#00703A;" d="M1265.826,41.292c-0.87,0-1.575-0.706-1.575-1.579v-3.297c0-0.873,0.705-1.579,1.575-1.579
				c0.87,0,1.575,0.706,1.575,1.579v3.297C1267.401,40.586,1266.696,41.292,1265.826,41.292z"/>
		</g>
	</g>
	<g>
		<path style="fill-rule:evenodd;clip-rule:evenodd;fill:#456FB6;" d="M725.963,39.761c-0.33,0.967-0.042,2.007,0.723,2.607
			c0.765,0.6,1.844,0.632,2.704,0.08c0.466-0.298,0.891-0.57,1.24-0.794c0.6-0.384,1.322-0.493,1.976-0.296
			c0.38,0.114,0.843,0.253,1.35,0.405c0.937,0.281,1.981-0.069,2.616-0.879c0.635-0.809,0.727-1.907,0.23-2.75
			c-0.269-0.456-0.514-0.873-0.715-1.214c-0.347-0.588-0.414-1.315-0.183-1.989c0.134-0.392,0.297-0.87,0.475-1.393
			c0.33-0.967,0.042-2.007-0.723-2.607c-0.765-0.6-1.844-0.632-2.704-0.081c-0.466,0.298-0.891,0.57-1.24,0.794
			c-0.6,0.384-1.322,0.493-1.976,0.296c-0.38-0.114-0.843-0.253-1.35-0.405c-0.937-0.281-1.981,0.069-2.616,0.879
			c-0.635,0.809-0.727,1.907-0.23,2.75c0.269,0.456,0.514,0.873,0.716,1.215c0.346,0.588,0.413,1.315,0.183,1.989
			C726.305,38.76,726.142,39.238,725.963,39.761z"/>
		<path style="fill-rule:evenodd;clip-rule:evenodd;fill:#DF4A66;stroke:#DF4A66;stroke-width:0.5185;stroke-miterlimit:10;" d="
			M725.383,22.584c-0.331,0.508-0.326,1.154,0.013,1.62c0.339,0.465,0.94,0.651,1.506,0.466c0.482-0.158,0.924-0.302,1.258-0.412
			c0.395-0.129,0.817-0.08,1.154,0.135c0.285,0.182,0.663,0.422,1.074,0.684c0.484,0.308,1.123,0.267,1.601-0.103
			c0.479-0.37,0.696-0.99,0.544-1.555c-0.129-0.481-0.247-0.921-0.337-1.254c-0.106-0.394-0.034-0.824,0.197-1.179
			c0.195-0.3,0.454-0.696,0.736-1.129c0.331-0.508,0.326-1.154-0.013-1.62c-0.339-0.465-0.94-0.651-1.506-0.466
			c-0.482,0.158-0.924,0.302-1.258,0.412c-0.395,0.129-0.816,0.08-1.154-0.135c-0.285-0.182-0.663-0.422-1.074-0.684
			c-0.484-0.308-1.123-0.267-1.601,0.103s-0.695,0.99-0.544,1.555c0.129,0.481,0.247,0.921,0.337,1.254
			c0.106,0.394,0.034,0.824-0.197,1.179C725.923,21.755,725.665,22.151,725.383,22.584z"/>
		<path style="fill-rule:evenodd;clip-rule:evenodd;fill:#DF4A66;stroke:#DF4A66;stroke-width:0.5185;stroke-miterlimit:10;" d="
			M742.383,38.092c-0.285,0.438-0.281,0.994,0.011,1.395c0.292,0.401,0.809,0.561,1.297,0.401c0.415-0.136,0.796-0.26,1.083-0.354
			c0.34-0.111,0.703-0.069,0.994,0.116c0.246,0.157,0.571,0.363,0.925,0.589c0.417,0.265,0.967,0.23,1.379-0.089
			c0.412-0.318,0.599-0.853,0.469-1.339c-0.111-0.414-0.213-0.793-0.29-1.08c-0.091-0.339-0.029-0.71,0.17-1.015
			c0.168-0.258,0.391-0.6,0.634-0.972c0.285-0.438,0.281-0.994-0.011-1.395c-0.292-0.401-0.809-0.561-1.297-0.401
			c-0.415,0.136-0.795,0.26-1.083,0.354c-0.34,0.111-0.703,0.069-0.994-0.116c-0.246-0.156-0.571-0.363-0.925-0.589
			c-0.417-0.265-0.967-0.23-1.379,0.089c-0.412,0.318-0.599,0.853-0.468,1.339c0.111,0.414,0.213,0.793,0.29,1.08
			c0.091,0.339,0.029,0.71-0.17,1.015C742.848,37.378,742.626,37.719,742.383,38.092z"/>
	</g>
	<g>
		<path style="fill-rule:evenodd;clip-rule:evenodd;fill:#374315;" d="M670.501-3.212h-7.856c0,0,0,14.481,0,21.655
			c0,2.172,1.757,3.933,3.924,3.933c0.002,0,0.005,0,0.007,0c2.167,0,3.924-1.761,3.924-3.933
			C670.501,11.268,670.501-3.212,670.501-3.212z"/>
		<path style="fill-rule:evenodd;clip-rule:evenodd;fill:#8FC300;" d="M686.175-4.416c-0.584-0.915-1.799-1.182-2.711-0.595
			c-0.912,0.587-1.179,1.806-0.594,2.721l4.203,6.583c0.584,0.915,1.799,1.182,2.711,0.595c0.912-0.587,1.179-1.806,0.594-2.721
			L686.175-4.416z"/>
		<path style="fill-rule:evenodd;clip-rule:evenodd;fill:#8FC300;" d="M671.567-27.457c-1.204-1.899-3.293-3.05-5.539-3.05
			c-2.245,0-4.335,1.15-5.539,3.05c-6.56,10.346-16.609,26.194-16.609,26.194c0,8.996,9.924,16.3,22.147,16.3
			s22.147-7.304,22.147-16.3C688.176-1.263,678.127-17.111,671.567-27.457z"/>
		<g>
			<defs>
				<path id="SVGID_00000121959625791297112150000001627300953420462997_" d="M671.567-27.457c-1.204-1.899-3.293-3.05-5.539-3.05
					c-2.245,0-4.335,1.15-5.539,3.05c-6.56,10.346-16.609,26.194-16.609,26.194c0,8.996,9.924,16.3,22.147,16.3
					s22.147-7.304,22.147-16.3C688.176-1.263,678.127-17.111,671.567-27.457z"/>
			</defs>
			<clipPath id="SVGID_00000063629220300283536350000018423482612912748435_">
				<use xlink:href="#SVGID_00000121959625791297112150000001627300953420462997_"  style="overflow:visible;"/>
			</clipPath>
			
				<path style="clip-path:url(#SVGID_00000063629220300283536350000018423482612912748435_);fill-rule:evenodd;clip-rule:evenodd;fill:#5AAA00;" d="
				M670.588-42.115c-1.247-1.508-3.099-2.381-5.052-2.381c-1.954,0-3.806,0.872-5.053,2.379
				c-6.535,7.911-17.094,21.808-17.094,29.043c0,8.996,9.924,16.3,22.147,16.3s22.147-7.304,22.147-16.3
				C687.684-20.309,677.125-34.206,670.588-42.115z"/>
		</g>
		<path style="fill-rule:evenodd;clip-rule:evenodd;fill:#8FC300;" d="M658.44,11.282c0.116-1.08,1.085-1.863,2.163-1.746
			c1.078,0.116,1.859,1.087,1.743,2.168l-0.361,3.36c-0.116,1.08-1.085,1.863-2.163,1.746c-1.078-0.116-1.858-1.087-1.742-2.168
			L658.44,11.282z"/>
		<path style="fill-rule:evenodd;clip-rule:evenodd;fill:#8FC300;" d="M645.116-3.205c0.585-0.914,1.801-1.181,2.713-0.594
			c0.912,0.587,1.178,1.805,0.593,2.72l-3.508,5.48c-0.585,0.914-1.801,1.18-2.713,0.594c-0.912-0.586-1.178-1.805-0.593-2.719
			L645.116-3.205z"/>
		<path style="fill-rule:evenodd;clip-rule:evenodd;fill:#5AAA00;" d="M667.501,3.227c0-1.086-0.88-1.968-1.964-1.968
			c-1.084,0-1.964,0.882-1.964,1.968v1.968c0,1.086,0.88,1.968,1.964,1.968c1.084,0,1.964-0.882,1.964-1.968V3.227z"/>
		<path style="fill-rule:evenodd;clip-rule:evenodd;fill:#5AAA00;" d="M674.293,6.929c-0.133-1.078-1.115-1.845-2.19-1.711
			c-1.076,0.134-1.841,1.117-1.707,2.195l0.242,1.953c0.133,1.078,1.115,1.845,2.19,1.711c1.076-0.134,1.841-1.117,1.707-2.195
			L674.293,6.929z"/>
		<path style="fill-rule:evenodd;clip-rule:evenodd;fill:#5AAA00;" d="M656.919,6.929c0.133-1.078,1.115-1.845,2.191-1.711
			c1.076,0.134,1.841,1.117,1.707,2.195l-0.242,1.953c-0.133,1.078-1.115,1.845-2.19,1.711c-1.076-0.134-1.841-1.117-1.707-2.195
			L656.919,6.929z"/>
		<path style="fill-rule:evenodd;clip-rule:evenodd;fill:#5AAA00;" d="M679.431-0.888c-0.326-1.036-1.43-1.612-2.463-1.286
			c-1.034,0.327-1.609,1.433-1.283,2.469l0.827,2.63c0.326,1.036,1.43,1.612,2.463,1.286c1.034-0.326,1.609-1.433,1.283-2.469
			L679.431-0.888z"/>
		<path style="fill-rule:evenodd;clip-rule:evenodd;fill:#5AAA00;" d="M652.917,0.005c0.326-1.036,1.43-1.612,2.463-1.286
			c1.034,0.326,1.609,1.433,1.283,2.469l-0.827,2.63c-0.326,1.036-1.43,1.612-2.463,1.286c-1.034-0.327-1.608-1.433-1.283-2.469
			L652.917,0.005z"/>
		<path style="fill-rule:evenodd;clip-rule:evenodd;fill:#5AAA00;" d="M684.281-4.594c-0.542-0.941-1.744-1.264-2.683-0.72
			c-0.939,0.543-1.261,1.748-0.719,2.689l1.776,3.084c0.542,0.941,1.744,1.264,2.683,0.721c0.939-0.543,1.261-1.748,0.719-2.689
			L684.281-4.594z"/>
		<path style="fill-rule:evenodd;clip-rule:evenodd;fill:#5AAA00;" d="M648.086-4.7c0.542-0.941,1.744-1.264,2.683-0.72
			c0.939,0.543,1.261,1.748,0.719,2.689l-1.777,3.084c-0.542,0.941-1.744,1.264-2.683,0.721c-0.939-0.543-1.261-1.748-0.719-2.689
			L648.086-4.7z"/>
		<path style="fill-rule:evenodd;clip-rule:evenodd;fill:#8FC300;" d="M684.683,4.844c-0.611-0.897-1.834-1.128-2.729-0.516
			c-0.895,0.612-1.126,1.838-0.515,2.735l1.547,2.272c0.611,0.897,1.834,1.128,2.729,0.516c0.895-0.612,1.126-1.838,0.515-2.735
			L684.683,4.844z"/>
		<path style="fill-rule:evenodd;clip-rule:evenodd;fill:#A2D500;" d="M656.132-2.453c0.32-1.038,1.42-1.621,2.456-1.301
			c1.036,0.32,1.617,1.423,1.298,2.461l-0.046,0.149c-0.32,1.038-1.42,1.621-2.456,1.301c-1.036-0.32-1.617-1.423-1.298-2.461
			L656.132-2.453z"/>
		<path style="fill-rule:evenodd;clip-rule:evenodd;fill:#A2D500;" d="M675.329-2.453c-0.32-1.038-1.42-1.621-2.455-1.301
			c-1.036,0.32-1.617,1.423-1.298,2.461l0.046,0.149c0.32,1.038,1.42,1.621,2.456,1.301c1.036-0.32,1.617-1.423,1.298-2.461
			L675.329-2.453z"/>
		<path style="fill-rule:evenodd;clip-rule:evenodd;fill:#8FC300;" d="M679.257,11.456c-0.32-1.038-1.42-1.621-2.455-1.301
			c-1.036,0.32-1.617,1.423-1.298,2.461l0.046,0.149c0.32,1.038,1.42,1.621,2.456,1.301c1.036-0.32,1.617-1.423,1.298-2.461
			L679.257,11.456z"/>
		<path style="fill-rule:evenodd;clip-rule:evenodd;fill:#8FC300;" d="M652.072,9.581c0.319-1.038,1.42-1.621,2.455-1.301
			c1.036,0.32,1.617,1.423,1.298,2.461l-0.781,2.539c-0.32,1.038-1.42,1.621-2.455,1.301c-1.036-0.32-1.617-1.423-1.298-2.461
			L652.072,9.581z"/>
		<path style="fill-rule:evenodd;clip-rule:evenodd;fill:#A2D500;" d="M661.249-0.566c0.116-1.08,1.085-1.863,2.163-1.746
			c1.078,0.116,1.858,1.087,1.742,2.168l-0.017,0.155c-0.116,1.08-1.085,1.863-2.163,1.746c-1.078-0.116-1.858-1.087-1.742-2.168
			L661.249-0.566z"/>
		<path style="fill-rule:evenodd;clip-rule:evenodd;fill:#A2D500;" d="M670.212-0.566c-0.116-1.08-1.085-1.863-2.163-1.746
			c-1.078,0.116-1.859,1.087-1.742,2.168l0.017,0.155c0.116,1.08,1.085,1.863,2.163,1.746c1.078-0.116,1.858-1.087,1.742-2.168
			L670.212-0.566z"/>
		<path style="fill-rule:evenodd;clip-rule:evenodd;fill:#8FC300;" d="M674.14,13.343c-0.116-1.08-1.085-1.863-2.163-1.746
			c-1.078,0.116-1.859,1.087-1.742,2.168l0.017,0.155c0.116,1.08,1.085,1.863,2.163,1.746c1.078-0.116,1.858-1.087,1.742-2.168
			L674.14,13.343z"/>
		<path style="fill-rule:evenodd;clip-rule:evenodd;fill:#8FC300;" d="M648.001,4.81c0.585-0.914,1.801-1.18,2.714-0.594
			c0.912,0.587,1.178,1.805,0.592,2.72l-2.341,3.658c-0.585,0.914-1.801,1.18-2.713,0.594c-0.912-0.586-1.178-1.805-0.592-2.719
			L648.001,4.81z"/>
	</g>
	<path style="fill-rule:evenodd;clip-rule:evenodd;fill:#C92045;" d="M1427.145,53.634c-0.517-0.517-1.215-0.806-1.945-0.806
		s-1.428,0.289-1.945,0.806c-0.515,0.515-0.805,1.213-0.805,1.942c0-1.291,0-2.582,0-3.663c0-0.729-0.29-1.427-0.805-1.942
		c-0.517-0.516-1.215-0.806-1.945-0.806s-1.428,0.289-1.945,0.806c-0.515,0.515-0.805,1.213-0.805,1.942
		c0-0.729-0.29-1.427-0.805-1.942c-0.517-0.516-1.215-0.806-1.945-0.806s-1.428,0.289-1.945,0.806
		c-0.515,0.515-0.805,1.213-0.805,1.942c0,1.082,0,2.373,0,3.663c0-0.729-0.29-1.427-0.805-1.942
		c-0.517-0.517-1.215-0.806-1.945-0.806s-1.428,0.289-1.945,0.806c-0.515,0.515-0.805,1.213-0.805,1.942c0,0.579,0,1.205,0,1.832
		c0,2.53,2.051,4.579,4.583,4.579c0.548,0,0.917,0,0.917,0h5.5h5.5c0,0,0.369,0,0.917,0c2.532,0,4.583-2.05,4.583-4.579
		c0-0.626,0-1.253,0-1.832C1427.95,54.846,1427.66,54.149,1427.145,53.634z"/>
	<path style="fill-rule:evenodd;clip-rule:evenodd;fill:#C92045;" d="M1406.885,32.25c-0.517-0.517-1.215-0.806-1.945-0.806
		s-1.428,0.289-1.945,0.806c-0.515,0.515-0.805,1.213-0.805,1.942c0-1.291,0-2.582,0-3.663c0-0.729-0.29-1.427-0.805-1.942
		c-0.517-0.517-1.215-0.806-1.945-0.806s-1.428,0.289-1.945,0.806c-0.515,0.515-0.805,1.213-0.805,1.942
		c0-0.729-0.29-1.427-0.805-1.942c-0.517-0.517-1.215-0.806-1.945-0.806s-1.428,0.289-1.945,0.806
		c-0.515,0.515-0.805,1.213-0.805,1.942c0,1.082,0,2.373,0,3.663c0-0.729-0.29-1.427-0.805-1.942
		c-0.517-0.517-1.215-0.806-1.945-0.806s-1.428,0.289-1.945,0.806c-0.515,0.515-0.805,1.213-0.805,1.942c0,0.579,0,1.205,0,1.832
		c0,2.53,2.051,4.579,4.583,4.579c0.548,0,0.917,0,0.917,0h5.5h5.5c0,0,0.368,0,0.917,0c2.532,0,4.583-2.05,4.583-4.579
		c0-0.626,0-1.253,0-1.832C1407.69,33.462,1407.4,32.764,1406.885,32.25z"/>
	<path style="fill-rule:evenodd;clip-rule:evenodd;fill:#C92045;" d="M1360.949,67.109c-0.517-0.517-1.215-0.806-1.945-0.806
		s-1.428,0.289-1.945,0.806c-0.515,0.515-0.805,1.213-0.805,1.942c0-1.291,0-2.582,0-3.663c0-0.729-0.29-1.427-0.805-1.942
		c-0.517-0.516-1.215-0.806-1.945-0.806s-1.428,0.289-1.945,0.806c-0.515,0.515-0.805,1.213-0.805,1.942
		c0-0.729-0.29-1.427-0.805-1.942c-0.517-0.516-1.215-0.806-1.945-0.806s-1.428,0.289-1.945,0.806
		c-0.515,0.515-0.805,1.213-0.805,1.942c0,1.082,0,2.373,0,3.663c0-0.729-0.29-1.427-0.805-1.942
		c-0.517-0.517-1.215-0.806-1.945-0.806s-1.428,0.289-1.945,0.806c-0.515,0.515-0.805,1.213-0.805,1.942c0,0.579,0,1.205,0,1.832
		c0,2.53,2.051,4.579,4.583,4.579c0.548,0,0.917,0,0.917,0h5.5h5.5c0,0,0.369,0,0.917,0c2.532,0,4.583-2.05,4.583-4.579
		c0-0.626,0-1.253,0-1.832C1361.754,68.322,1361.464,67.624,1360.949,67.109z"/>
	<g>
		
			<line style="fill:none;stroke:#4EEAE6;stroke-width:4.4327;stroke-linecap:round;stroke-linejoin:round;stroke-miterlimit:10;" x1="238.897" y1="64.135" x2="259.127" y2="64.135"/>
		
			<line style="fill:none;stroke:#4EEAE6;stroke-width:4.4327;stroke-linecap:round;stroke-linejoin:round;stroke-miterlimit:10;" x1="254.818" y1="72.318" x2="266.21" y2="72.318"/>
		
			<line style="fill:none;stroke:#4EEAE6;stroke-width:4.4327;stroke-linecap:round;stroke-linejoin:round;stroke-miterlimit:10;" x1="244.227" y1="74.244" x2="238.897" y2="74.244"/>
	</g>
	<g>
		
			<line style="fill:none;stroke:#4EEAE6;stroke-width:4.4327;stroke-linecap:round;stroke-linejoin:round;stroke-miterlimit:10;" x1="135.187" y1="107.862" x2="155.418" y2="107.862"/>
		
			<line style="fill:none;stroke:#4EEAE6;stroke-width:4.4327;stroke-linecap:round;stroke-linejoin:round;stroke-miterlimit:10;" x1="151.108" y1="116.046" x2="162.501" y2="116.046"/>
		
			<line style="fill:none;stroke:#4EEAE6;stroke-width:4.4327;stroke-linecap:round;stroke-linejoin:round;stroke-miterlimit:10;" x1="140.518" y1="117.971" x2="135.187" y2="117.971"/>
	</g>
	<g>
		
			<line style="fill:none;stroke:#4EEAE6;stroke-width:4.4327;stroke-linecap:round;stroke-linejoin:round;stroke-miterlimit:10;" x1="298.842" y1="103.594" x2="314.43" y2="103.594"/>
		
			<line style="fill:none;stroke:#4EEAE6;stroke-width:4.4327;stroke-linecap:round;stroke-linejoin:round;stroke-miterlimit:10;" x1="310.675" y1="112.131" x2="318.602" y2="112.131"/>
	</g>
	<g>
		
			<line style="fill:none;stroke:#4EEAE6;stroke-width:4.4327;stroke-linecap:round;stroke-linejoin:round;stroke-miterlimit:10;" x1="437.38" y1="133.571" x2="421.792" y2="133.571"/>
		
			<line style="fill:none;stroke:#4EEAE6;stroke-width:4.4327;stroke-linecap:round;stroke-linejoin:round;stroke-miterlimit:10;" x1="425.547" y1="125.033" x2="417.62" y2="125.033"/>
	</g>
	<g>
		<g>
			<g>
				<g>
					<path style="fill-rule:evenodd;clip-rule:evenodd;fill:#95DBD4;" d="M587.678,497.687V145.045
						c0-5.647-4.578-10.225-10.225-10.225l0,0c-4.489,0-8.453,2.928-9.773,7.218l-4.243,13.791v0
						c-3.142,10.299-8.774,19.665-16.398,27.269l-24.332,24.267c-7.722,7.702-12.062,18.16-12.062,29.067v261.255H587.678z"/>
					<g>
						<defs>
							<path id="SVGID_00000146495488245199212530000016994798694305016192_" d="M588.007,495.227V145.045
								c0-5.647-4.578-10.225-10.225-10.225h0c-4.489,0-8.453,2.928-9.773,7.218l-4.243,13.791v0
								c-3.142,10.299-8.774,19.665-16.398,27.269l-24.332,24.267c-7.722,7.702-12.062,18.16-12.062,29.067v258.795H588.007z"/>
						</defs>
						<clipPath id="SVGID_00000033367847752105395610000001844278519882905279_">
							<use xlink:href="#SVGID_00000146495488245199212530000016994798694305016192_"  style="overflow:visible;"/>
						</clipPath>
						<g style="clip-path:url(#SVGID_00000033367847752105395610000001844278519882905279_);">
							<path style="fill-rule:evenodd;clip-rule:evenodd;fill:#00C1C5;" d="M572.351,130.51v4.31h1.438
								c5.472,0,9.908,4.436,9.908,9.908v6.419h4.309V130.51H572.351z"/>
						</g>
					</g>
					<g>
						<defs>
							<path id="SVGID_00000142894968740157306570000002291529317758069674_" d="M588.007,495.227V145.045
								c0-5.647-4.578-10.225-10.225-10.225h0c-4.489,0-8.453,2.928-9.773,7.218l-4.243,13.791v0
								c-3.142,10.299-8.774,19.665-16.398,27.269l-24.332,24.267c-7.722,7.702-12.062,18.16-12.062,29.067v258.795H588.007z"/>
						</defs>
						<clipPath id="SVGID_00000089548124490581294310000014245104845625553065_">
							<use xlink:href="#SVGID_00000142894968740157306570000002291529317758069674_"  style="overflow:visible;"/>
						</clipPath>
						<g style="clip-path:url(#SVGID_00000089548124490581294310000014245104845625553065_);">
							<path style="fill-rule:evenodd;clip-rule:evenodd;fill:#F5FFFF;" d="M583.863,150.982v-6.255
								c0-5.555-4.519-10.073-10.073-10.073h-1.273v-3.979h15.326v20.308H583.863z"/>
							<path style="fill:#F5FFFF;" d="M587.678,130.84v19.978h-3.65v-6.09c0-5.645-4.593-10.238-10.238-10.238h-1.109v-3.65H587.678
								 M588.007,130.51h-15.656v4.31h1.438c5.472,0,9.908,4.436,9.908,9.908v6.419h4.309V130.51L588.007,130.51z"/>
						</g>
					</g>
				</g>
			</g>
		</g>
	</g>
	<g>
		<path style="fill-rule:evenodd;clip-rule:evenodd;fill:#E38A4B;" d="M1109.193-31.134c-0.363-1.252,0.232-2.526,1.327-2.844
			c1.095-0.317,2.279,0.442,2.641,1.694l11.618,40.094l-3.968,1.15L1109.193-31.134z"/>
		<path style="fill-rule:evenodd;clip-rule:evenodd;fill:#FFED8B;" d="M1124.962,10.506L1124.962,10.506
			c0.789-0.229,1.247-1.06,1.018-1.848l-0.415-1.433c-0.228-0.788-1.059-1.245-1.847-1.017l-0.001,0
			c-0.788,0.228-1.246,1.06-1.017,1.847l0.415,1.433C1123.343,10.276,1124.174,10.734,1124.962,10.506z"/>
		<path style="fill-rule:evenodd;clip-rule:evenodd;fill:#FFED8B;" d="M1122.096,11.336l0.001,0c0.788-0.228,1.245-1.06,1.017-1.847
			l-0.415-1.433c-0.228-0.788-1.06-1.245-1.847-1.017l-0.001,0c-0.788,0.228-1.246,1.06-1.017,1.847l0.415,1.433
			C1120.477,11.106,1121.308,11.564,1122.096,11.336z"/>
	</g>
	<g>
		<path style="fill-rule:evenodd;clip-rule:evenodd;fill:#E38A4B;" d="M1076.107-19.807c0.363-1.252-0.232-2.526-1.327-2.844
			c-1.095-0.317-2.279,0.442-2.641,1.694l-11.618,40.094l3.968,1.15L1076.107-19.807z"/>
		<path style="fill:#36B34A;" d="M1050.977-6.185c-0.713-0.207-1.108-0.977-0.853-1.674c3.512-9.593,13.908-14.961,23.869-12.075
			c9.961,2.886,15.876,12.979,13.716,22.964c-0.157,0.726-0.902,1.166-1.616,0.959L1050.977-6.185z"/>
		<path style="fill:#002E40;" d="M1058.133-4.112c3.014-10.403,10.115-17.486,15.86-15.822c5.745,1.664,7.958,11.447,4.944,21.849
			L1058.133-4.112z"/>
		<path style="fill-rule:evenodd;clip-rule:evenodd;fill:#FFED8B;" d="M1060.338,21.833L1060.338,21.833
			c-0.789-0.229-1.247-1.06-1.018-1.848l0.415-1.433c0.228-0.788,1.059-1.245,1.847-1.017l0.001,0
			c0.788,0.228,1.246,1.06,1.017,1.847l-0.415,1.433C1061.957,21.604,1061.125,22.062,1060.338,21.833z"/>
		<path style="fill-rule:evenodd;clip-rule:evenodd;fill:#FFED8B;" d="M1063.203,22.664L1063.203,22.664
			c-0.789-0.229-1.247-1.06-1.018-1.848l0.415-1.433c0.228-0.788,1.059-1.245,1.847-1.017l0.001,0
			c0.788,0.228,1.246,1.06,1.017,1.847l-0.415,1.433C1064.822,22.434,1063.991,22.892,1063.203,22.664z"/>
	</g>
	<g>
		<g>
			<defs>
				<path id="SVGID_00000094588305929863554220000015733477599466993315_" d="M966.33-7.035h2.96c0.493,0,0.966,0.196,1.315,0.545
					l0.039,0.039c0.349,0.349,0.822,0.545,1.315,0.545h1.098c0.493,0,0.966,0.196,1.315,0.545v0
					c0.349,0.349,0.822,0.545,1.315,0.545h1.573l3.9,1.448l3.831-3.922l-2.884-9.673l-2.563-8.157l-7.489-0.948l-5.98,0.7
					l-8.109,1.483l-3.131,5.026l-0.659,6.962l5.397,7.378l3.749,0.697L966.33-7.035z"/>
			</defs>
			<clipPath id="SVGID_00000094605325524282827670000005042641040044037019_">
				<use xlink:href="#SVGID_00000094588305929863554220000015733477599466993315_"  style="overflow:visible;"/>
			</clipPath>
			<g style="clip-path:url(#SVGID_00000094605325524282827670000005042641040044037019_);">
				<path style="opacity:0.6;fill:#52BD44;" d="M967.712,11.665h-6.953c-0.558,0-1.014-0.456-1.014-1.014v0
					c0-0.558,0.456-1.014,1.014-1.014h6.953c0.558,0,1.014,0.456,1.014,1.014v0C968.726,11.208,968.269,11.665,967.712,11.665z"/>
				<g>
					<path style="fill-rule:evenodd;clip-rule:evenodd;fill:#E93A48;" d="M967.256,0.816c-0.59,0.338-1.043,0.872-1.281,1.509
						c-0.838,2.253-2.82,7.581-2.82,7.581l2.125,1.594c0,0,2.486-6.213,3.067-7.667c0.078-0.195,0.219-0.359,0.4-0.466
						c1.467-0.87,8.22-4.873,8.22-4.873l-0.531-2.93C976.435-4.437,969.74-0.606,967.256,0.816z"/>
					<g>
						<defs>
							<path id="SVGID_00000124127623169544010140000006854286625946846113_" d="M967.256,0.816
								c-0.59,0.338-1.043,0.872-1.281,1.509c-0.838,2.253-2.82,7.581-2.82,7.581l2.125,1.594c0,0,2.486-6.213,3.067-7.667
								c0.078-0.195,0.219-0.359,0.4-0.466c1.467-0.87,8.22-4.873,8.22-4.873l-0.531-2.93C976.435-4.437,969.74-0.606,967.256,0.816
								z"/>
						</defs>
						<clipPath id="SVGID_00000155115122070134475570000015371414117338024626_">
							<use xlink:href="#SVGID_00000124127623169544010140000006854286625946846113_"  style="overflow:visible;"/>
						</clipPath>
						
							<polygon style="clip-path:url(#SVGID_00000155115122070134475570000015371414117338024626_);fill-rule:evenodd;clip-rule:evenodd;fill:#1D3074;" points="
							968.538,-0.107 975.922,-4.378 977.939,-0.878 970.556,3.393 						"/>
					</g>
					<path style="fill-rule:evenodd;clip-rule:evenodd;fill:#E93A48;" d="M978.346,2.685c0.451,0.61,1.226,0.887,1.961,0.7
						c2.231-0.567,6.752-1.717,6.752-1.717l-0.531-2.618l-6.445,1.692l-3.306-4.836l-2.318,1.518
						C974.46-2.575,976.366,0.005,978.346,2.685z"/>
					<g>
						<defs>
							<path id="SVGID_00000175304423717285901000000009411937299394777504_" d="M978.346,2.685c0.451,0.61,1.226,0.887,1.961,0.7
								c2.231-0.567,6.752-1.717,6.752-1.717l-0.531-2.618l-6.445,1.692l-7.898-11.554l-1.062,3.718
								C971.123-7.093,976.366,0.005,978.346,2.685z"/>
						</defs>
						<clipPath id="SVGID_00000021084252917253307830000013224037003697333160_">
							<use xlink:href="#SVGID_00000175304423717285901000000009411937299394777504_"  style="overflow:visible;"/>
						</clipPath>
						
							<polygon style="clip-path:url(#SVGID_00000021084252917253307830000013224037003697333160_);fill-rule:evenodd;clip-rule:evenodd;fill:#1D3074;" points="
							970.527,-1.027 978.126,-5.422 980.106,-1.986 972.507,2.41 						"/>
					</g>
					<polygon style="fill-rule:evenodd;clip-rule:evenodd;fill:#061C1C;" points="962.231,9.301 965.614,10.673 965.261,11.548 
						961.878,10.176 					"/>
					<polygon style="fill-rule:evenodd;clip-rule:evenodd;fill:#061C1C;" points="986.531,2.829 985.617,-0.71 986.529,-0.947 
						987.443,2.593 					"/>
				</g>
			</g>
		</g>
	</g>
</g>
<g id="aulas" style="display:none;">
	<g style="display:inline;">
		<rect x="368.174" style="fill-rule:evenodd;clip-rule:evenodd;fill:#FFFFFF;" width="33.652" height="145"/>
		<circle style="fill-rule:evenodd;clip-rule:evenodd;fill:#5654A2;" cx="385" cy="72.5" r="42.5"/>
	</g>
</g>
</svg>
