<?xml version="1.0" encoding="utf-8"?>
<!-- Generator: Adobe Illustrator 27.7.0, SVG Export Plug-In . SVG Version: 6.00 Build 0)  -->
<svg version="1.1" xmlns="http://www.w3.org/2000/svg" xmlns:xlink="http://www.w3.org/1999/xlink" x="0px" y="0px" width="1500px"
	 height="145px" viewBox="0 0 1500 145" style="enable-background:new 0 0 1500 145;" xml:space="preserve">
<g id="background">
	<rect x="-80.448" y="-3461.348" style="fill:#04D5D8;" width="1640.647" height="4034.435"/>
	<path style="fill:#3EE1DE;" d="M1587.821-426.861h-354.039c-28.645,0-56.114,11.373-76.373,31.623
		c-40.171,40.155-87.422,87.383-101.797,101.742c-8.341,8.332-22.399,5.974-27.574-4.619l-0.147-0.3
		c-9.094-18.62-28.005-30.43-48.728-30.43h-63.402c-14.499,0-28.138,5.644-38.406,15.895
		c-10.271,10.257-15.927,23.889-15.927,38.387v45.11c0,14.072,5.464,27.595,15.24,37.717l0.745,0.771
		c4.257,4.408,4.194,11.558-0.141,15.889l-61.406,61.355c-19.16,19.144-29.925,45.117-29.925,72.202v13.449
		c0,27.07,10.753,53.03,29.894,72.171l47.302,47.302c3.329,3.329,2.977,8.857-0.794,11.677c-2.737,2.046-5.346,4.3-7.807,6.758
		l-34.281,34.254c-0.787,0.786-1.546,1.59-2.279,2.409c-3.438,3.845-9.583,3.298-12.367-1.045c-1.811-2.825-3.939-5.475-6.369-7.907
		l-71.91-71.909c-8.867-8.87-20.659-13.755-33.204-13.755h-14.258l-2.01-2.011c-8.8-8.805-20.738-13.752-33.187-13.752H534.364
		c-12.331,0-23.981,4.745-32.803,13.359l-43.763,42.735c-8.992,8.781-14.15,21.025-14.15,33.593v31.879
		c0,12.453,4.947,24.397,13.753,33.202l41.563,41.562c8.805,8.804,20.746,13.751,33.198,13.751h53.144
		c12.542,0,24.333-4.884,33.201-13.751l6.638-6.639c2.313,5.218,5.594,10.017,9.751,14.175l24.334,24.334
		c8.869,8.867,20.659,13.751,33.201,13.751h32.001c12.542,0,24.333-4.884,33.201-13.751l41.608-41.609
		c0.866-0.866,1.693-1.76,2.482-2.68c3.284-3.833,9.283-3.717,12.217,0.39c1.93,2.701,4.115,5.274,6.556,7.687
		c6.829,6.748,16.077,10.487,25.678,10.487h5.739c6.285,11.166,18.26,18.725,31.969,18.725h24.582
		c19.259,0,37.364-7.494,50.981-21.099l0.821-0.819c13.617-13.607,21.117-31.698,21.117-50.94v-1.345
		c0-4.292,3.479-7.771,7.771-7.771h0.206h36.408c27.069,0,53.03,10.753,72.171,29.894l17.977,17.977
		c7.102,7.102,6.906,18.544-0.217,25.625c-0.045,0.045-0.09,0.09-0.135,0.135l-4.751,4.751
		c-23.714,23.715-23.958,62.763-0.543,86.774l35.972,36.886c11.55,11.843,27.663,18.636,44.208,18.637h29.159
		c16.494,0,32-6.424,43.663-18.086l36.456-36.456c7.903-7.903,13.392-17.573,16.111-28.118c2.05-7.953,9.375-13.41,17.588-13.41
		h241.322C1574.746,299.956,1606.532-426.861,1587.821-426.861z"/>
	<path style="fill:#04D5D8;" d="M1570.565-302.321h-143.769c-8.037,0-15.744,3.193-21.427,8.875l-54.842,54.842
		c-5.683,5.683-13.39,8.875-21.427,8.875h-59.987c-8.037,0-15.744,3.193-21.427,8.875l-15.658,15.658
		c-5.683,5.683-8.875,13.39-8.875,21.427v2.855c0,8.037,3.193,15.744,8.875,21.427l49.309,49.309
		c5.683,5.683,8.875,13.39,8.875,21.427v46.372c0,8.037,3.193,15.744,8.875,21.427l23.843,23.843
		c5.683,5.683,8.875,13.39,8.875,21.427v0c0,8.037-3.193,15.744-8.875,21.427l-56.164,56.164c-5.683,5.683-8.875,13.39-8.875,21.427
		v15.217c0,8.037,3.193,15.744,8.875,21.427l11.242,11.242c5.683,5.683,13.39,8.875,21.427,8.875h97.044
		c8.037,0,15.744-3.193,21.427-8.875l116.536-116.536c4.311-4.311,7.221-9.822,8.351-15.813l57.548-305.279
		C1603.86-285.062,1589.55-302.321,1570.565-302.321z"/>
	<path style="fill:#04D5D8;" d="M1254.251,41.996l-27.034,27.034c-2.31,2.31-5.443,3.608-8.709,3.608h-31.279
		c-8.175,0-16.014,3.247-21.795,9.028v0c-5.78,5.78-13.62,9.028-21.795,9.028h-50.677c-10.276,0-20.131-4.082-27.398-11.348
		l-19.505-19.505c-7.266-7.266-11.349-17.121-11.349-27.398v0c0-10.276,4.082-20.131,11.349-27.398l18.585-18.585
		c7.266-7.266,17.121-11.348,27.397-11.348h77.665c8.175,0,16.014,3.247,21.795,9.028l33.224,33.224
		c2.31,2.31,5.443,3.608,8.709,3.608h12.106c6.802,0,12.317,5.514,12.317,12.317v0C1257.859,36.553,1256.561,39.686,1254.251,41.996
		z"/>
</g>
<g id="Details">
	<g>
		<g>
			<path style="fill-rule:evenodd;clip-rule:evenodd;fill:#00B465;" d="M940.154,216.948l0.819-0.819
				c8.405-8.398,13.127-19.787,13.127-31.664v-19.927c0-11.876-4.722-23.266-13.127-31.664l-3.764-3.761
				c-8.405-8.398-19.804-13.115-31.69-13.115h0c-11.886,0-23.286,4.718-31.69,13.115l-34.281,34.253
				c-12.5,12.49-12.5,32.74,0,45.229v0c1.757,1.756,4.141,2.742,6.626,2.742h18.969c5.175,0,9.37,4.192,9.37,9.362v0
				c0,5.171,4.195,9.362,9.37,9.362h24.582C920.35,230.063,931.749,225.345,940.154,216.948z"/>
			
				<path style="fill:none;stroke:#00B465;stroke-width:10.9038;stroke-linecap:round;stroke-linejoin:round;stroke-dasharray:0,10.8937;" d="
				M940.154,216.948l0.819-0.819c8.405-8.398,13.127-19.788,13.127-31.664v-19.927c0-11.876-4.722-23.266-13.127-31.664l-3.764-3.76
				c-8.405-8.398-19.804-13.116-31.69-13.116h0c-11.886,0-23.286,4.718-31.69,13.116l-34.281,34.252
				c-12.5,12.49-12.5,32.74,0,45.229v0c1.757,1.755,4.141,2.742,6.626,2.742h18.969c5.175,0,9.37,4.192,9.37,9.362
				c0,5.171,4.195,9.362,9.37,9.362h24.582C920.35,230.063,931.749,225.345,940.154,216.948z"/>
		</g>
		<g>
			<path style="fill-rule:evenodd;clip-rule:evenodd;fill:#79708A;" d="M881.356,165.51c-1.031,0-1.995-0.511-2.573-1.365
				c-0.578-0.853-0.696-1.938-0.312-2.894c2.575-6.432,7.37-18.41,9.397-23.472c0.572-1.428,1.952-2.355,3.491-2.355h13.432
				c1.681,0,3.157,1.113,3.619,2.728l2.984,10.435l11.501,3.283c1.061,0.303,1.933,1.05,2.39,2.054
				c1.412,3.104,4.598,10.107,6.696,14.717c0.437,0.961,0.356,2.079-0.216,2.966c-0.572,0.888-1.556,1.424-2.614,1.424
				c-6.551,0-18.001,0-22.924,0c-1.511,0-2.96-0.6-4.029-1.667c-1.246-1.246-2.943-2.941-4.189-4.187
				c-1.069-1.067-2.518-1.667-4.029-1.667C890.864,165.51,885.312,165.51,881.356,165.51z"/>
			<g>
				<defs>
					<path id="SVGID_00000001633625977307900990000000623156930776236453_" d="M881.356,165.51c-1.031,0-1.995-0.511-2.573-1.365
						c-0.578-0.853-0.696-1.938-0.312-2.894c2.575-6.432,7.37-18.41,9.397-23.472c0.572-1.428,1.952-2.355,3.491-2.355h13.432
						c1.681,0,3.157,1.113,3.619,2.728l2.984,10.435l11.501,3.283c1.061,0.303,1.933,1.05,2.39,2.054
						c1.412,3.104,4.598,10.107,6.696,14.717c0.437,0.961,0.356,2.079-0.216,2.966c-0.572,0.888-1.556,1.424-2.614,1.424
						c-6.551,0-18.001,0-22.924,0c-1.511,0-2.96-0.6-4.029-1.667c-1.246-1.246-2.943-2.941-4.189-4.187
						c-1.069-1.067-2.518-1.667-4.029-1.667C890.864,165.51,885.312,165.51,881.356,165.51z"/>
				</defs>
				<clipPath id="SVGID_00000037678456436652461060000017516040490561378996_">
					<use xlink:href="#SVGID_00000001633625977307900990000000623156930776236453_"  style="overflow:visible;"/>
				</clipPath>
				
					<path style="clip-path:url(#SVGID_00000037678456436652461060000017516040490561378996_);fill-rule:evenodd;clip-rule:evenodd;fill:#00A980;" d="
					M933.809,141.657v-6.995c0-1.662-1.348-3.009-3.011-3.009h-7.85c-1.663,0-3.011-1.347-3.011-3.009v-0.013
					c0-1.662-1.348-3.009-3.011-3.009h-7.85c-1.663,0-3.011-1.347-3.011-3.009v-2.658c0-1.662-1.348-3.009-3.011-3.009h-9.4
					c-1.663,0-3.011,1.347-3.011,3.009v2.658c0,1.662-1.348,3.009-3.011,3.009h-7.85c-1.663,0-3.011,1.347-3.011,3.009v8.579
					c0,1.662-1.348,3.009-3.011,3.009h-7.85c-1.663,0-3.011,1.347-3.011,3.009v23.659c0,1.662,1.348,3.009,3.011,3.009l7.847-0.652
					c1.663,0,3.011-1.347,3.011-3.009l2.471-8.578c0-0.406,0.704-0.141,0.85-0.494c0.451-1.093,1.528-1.862,2.785-1.862h3.968
					c2.956,0,5.352-2.394,5.352-5.348l0,0c0-1.838,1.491-3.328,3.331-3.328h1.927c2.256,0,4.085,1.827,4.085,4.082v0.729
					c0,2.91,2.361,5.27,5.274,5.27h8.568c1.663,0,3.011,1.347,3.011,3.009v0.862c0,2.849,2.312,5.159,5.163,5.159h5.193
					c1.169,0,2.182,0.665,2.681,1.638c0.211,0.411,2.227,2.644,2.227,2.644c0,1.662,0.213,3.009,1.876,3.009h9.142
					c1.663,0,3.011-1.347,3.011-3.009v-22.342c0-1.662-1.348-3.009-3.011-3.009h-7.85
					C935.157,144.666,933.809,143.319,933.809,141.657z"/>
				
					<path style="clip-path:url(#SVGID_00000037678456436652461060000017516040490561378996_);fill-rule:evenodd;clip-rule:evenodd;fill:#00957D;" d="
					M909.016,140.087c-1.999-0.571-4.082,0.585-4.653,2.582c-0.572,1.998,0.586,4.079,2.585,4.649
					c4.288,1.225,10.857,3.101,10.857,3.101l2.069-7.232C919.873,143.187,913.303,141.311,909.016,140.087z"/>
			</g>
		</g>
	</g>
	<g>
		<path style="fill-rule:evenodd;clip-rule:evenodd;fill:#3EE1DE;" d="M631.04,21.605c-11.768,0-21.342-9.566-21.342-21.326
			c0-11.758,9.574-21.324,21.342-21.324h10.746c11.77,0,21.344,9.566,21.344,21.324c0,11.76-9.574,21.326-21.344,21.326H631.04z"/>
		<path style="fill-rule:evenodd;clip-rule:evenodd;fill:#00B465;" d="M641.793,7.975h-10.759c-4.233,0-7.696-3.463-7.696-7.696v0
			c0-4.233,3.463-7.696,7.696-7.696h10.759c4.233,0,7.695,3.463,7.695,7.696v0C649.489,4.512,646.026,7.975,641.793,7.975z"/>
	</g>
	<g>
		<path style="fill-rule:evenodd;clip-rule:evenodd;fill:#3EE1DE;" d="M98.489,113.395c-11.69,0-22.679-4.548-30.942-12.808
			L37.342,70.408c-12.653-12.641-19.621-29.45-19.621-47.331v-39.955c0-17.881,6.968-34.689,19.624-47.331l61.188-61.139
			c8.263-8.256,19.251-12.803,30.939-12.803h7.998c22.527,0,41.132,17.097,43.499,38.986l21.755,21.736
			c6.089,6.085,14.187,9.437,22.801,9.437h51.533c24.125,0,43.753,19.611,43.753,43.716v13.361c0,11.68-4.553,22.659-12.821,30.916
			l-80.661,80.592c-8.258,8.255-19.247,12.803-30.937,12.803H98.489z"/>
		<path style="fill-rule:evenodd;clip-rule:evenodd;fill:#FFF5C3;" d="M117.826-106.072L81.839-70.116
			c-7.447,7.441-11.631,17.532-11.631,28.055v39.955c0,10.523,4.184,20.614,11.631,28.055l30.21,30.184
			c3.089,3.086,7.278,4.82,11.646,4.82h97.905c4.368,0,8.557-1.734,11.646-4.82L288.705,0.72c3.089-3.086,4.824-7.272,4.824-11.636
			v-13.361c0-9.089-7.374-16.456-16.47-16.456h-51.533c-15.788,0-30.93-6.267-42.094-17.421l-24.666-24.645
			c-3.089-3.086-4.824-7.272-4.824-11.636v0c0-9.089-7.374-16.456-16.47-16.456h-8C125.104-110.892,120.914-109.158,117.826-106.072
			z"/>
		<g>
			<path style="fill-rule:evenodd;clip-rule:evenodd;fill:#00B465;" d="M92.621-80.889L56.634-44.932
				C49.187-37.492,45.003-27.4,45.003-16.877v39.955c0,10.523,4.184,20.614,11.631,28.055l30.21,30.184
				c3.089,3.086,7.278,4.82,11.646,4.82h97.905c4.368,0,8.557-1.734,11.646-4.82L263.5,25.904c3.089-3.086,4.824-7.272,4.824-11.636
				V0.907c0-9.089-7.374-16.456-16.47-16.456h-51.533c-15.788,0-30.93-6.267-42.094-17.421l-24.666-24.645
				c-3.089-3.086-4.824-7.272-4.824-11.636v0c0-9.089-7.374-16.456-16.47-16.456h-8C99.899-85.709,95.71-83.975,92.621-80.889z"/>
			
				<path style="fill:none;stroke:#00B465;stroke-width:10.9038;stroke-linecap:round;stroke-linejoin:round;stroke-dasharray:0,10.8978;" d="
				M92.621-80.889L56.634-44.932c-7.447,7.44-11.631,17.532-11.631,28.055v39.955c0,10.523,4.184,20.614,11.631,28.055l30.21,30.184
				c3.089,3.086,7.278,4.82,11.646,4.82h97.905c4.368,0,8.557-1.734,11.646-4.82L263.5,25.904c3.089-3.086,4.824-7.272,4.824-11.636
				V0.907c0-9.089-7.374-16.457-16.47-16.457h-51.533c-15.788,0-30.93-6.266-42.094-17.421l-24.666-24.645
				c-3.089-3.086-4.824-7.272-4.824-11.636c0-9.089-7.374-16.456-16.47-16.456h-8C99.899-85.709,95.71-83.975,92.621-80.889z"/>
		</g>
		<g>
			<g>
				<path style="fill:#A5AFCE;" d="M137.368-60.322h23.306c5.07,0,9.844,2.387,12.887,6.443l73.996,98.661H50.486l73.996-98.661
					C127.523-57.934,132.298-60.322,137.368-60.322z"/>
				<g>
					<defs>
						<path id="SVGID_00000171711817074526503650000017935078641861454506_" d="M137.368-60.322h23.306
							c5.07,0,9.844,2.387,12.887,6.443l73.996,98.661H50.486l73.996-98.661C127.523-57.934,132.298-60.322,137.368-60.322z"/>
					</defs>
					<clipPath id="SVGID_00000011753817112764755770000002276702787806302358_">
						<use xlink:href="#SVGID_00000171711817074526503650000017935078641861454506_"  style="overflow:visible;"/>
					</clipPath>
					<path style="clip-path:url(#SVGID_00000011753817112764755770000002276702787806302358_);fill:#00B465;" d="M227.391,11.675
						h-9.032c-2.672,0-5.235,1.062-7.125,2.951l-5.602,5.602c-1.89,1.89-4.452,2.951-7.125,2.951h-20.823
						c-2.672,0-5.235-1.062-7.125-2.951l-6.401-6.401c-4.305-4.305-11.285-4.305-15.591,0l0,0c-2.067,2.067-4.871,3.229-7.795,3.229
						h-0.739c-2.924,0-5.728,1.161-7.795,3.229l-2.238,2.238c-2.067,2.067-4.871,3.229-7.795,3.229h-9.715
						c-2.672,0-5.235-1.062-7.125-2.951l-0.019-0.019c-1.89-1.89-4.452-2.951-7.125-2.951h-9.349c-2.672,0-5.235-1.062-7.125-2.951
						l-2.28-2.28c-3.935-3.935-10.314-3.935-14.249,0L47.993,36.365h200.545l-13.323-20.962
						C233.302,13.045,230.427,11.675,227.391,11.675z"/>
					
						<rect x="48.936" y="-63.668" style="opacity:0.15;clip-path:url(#SVGID_00000011753817112764755770000002276702787806302358_);fill:#7886AE;" width="100.085" height="101.882"/>
					
						<polygon style="opacity:0.15;clip-path:url(#SVGID_00000011753817112764755770000002276702787806302358_);fill:#CCCCED;" points="
						271.626,38.214 206.342,38.214 178.833,-63.668 271.626,-63.668 					"/>
					
						<polygon style="opacity:0.15;clip-path:url(#SVGID_00000011753817112764755770000002276702787806302358_);fill:#7886AE;" points="
						17.738,38.214 90.708,38.214 119.465,-63.668 17.738,-63.668 					"/>
				</g>
				<path style="fill:#00B465;" d="M237.722,31.645H60.32c-5.096,0-9.833,2.625-12.534,6.947l2.699,6.191h197.07l2.699-6.191
					C247.554,34.27,242.818,31.645,237.722,31.645z"/>
			</g>
			<g>
				<g>
					
						<line style="fill:none;stroke:#00B465;stroke-width:6.8149;stroke-linecap:round;stroke-linejoin:round;" x1="56.638" y1="31.645" x2="56.638" y2="31.645"/>
					
						<line style="fill:none;stroke:#00B465;stroke-width:6.8149;stroke-linecap:round;stroke-linejoin:round;stroke-dasharray:0,6.8799;" x1="63.518" y1="31.645" x2="238.957" y2="31.645"/>
					
						<line style="fill:none;stroke:#00B465;stroke-width:6.8149;stroke-linecap:round;stroke-linejoin:round;" x1="242.397" y1="31.645" x2="242.397" y2="31.645"/>
				</g>
			</g>
		</g>
		<g>
			<path style="fill-rule:evenodd;clip-rule:evenodd;fill:#FFD700;" d="M129.467,60.197l-0.989-0.988l0.989-0.988
				c0.546-0.545,0.546-1.431,0-1.975c-0.546-0.545-1.431-0.545-1.977,0l-0.989,0.988l-0.989-0.988c-0.545-0.545-1.431-0.545-1.977,0
				c-0.546,0.544-0.546,1.43,0,1.975l0.989,0.988l-0.989,0.988c-0.546,0.545-0.546,1.431,0,1.976c0.546,0.544,1.432,0.544,1.977,0
				l0.989-0.988l0.989,0.988c0.546,0.544,1.431,0.544,1.977,0C130.012,61.628,130.012,60.742,129.467,60.197z"/>
			<path style="fill-rule:evenodd;clip-rule:evenodd;fill:#FFD700;" d="M120.154,65.103c-0.546-0.545-1.431-0.545-1.977,0
				l-0.989,0.988l-0.989-0.988c-0.545-0.545-1.431-0.545-1.977,0c-0.546,0.544-0.546,1.43,0,1.975l0.988,0.988l-0.988,0.988
				c-0.546,0.545-0.546,1.431,0,1.976c0.546,0.544,1.432,0.544,1.977,0l0.989-0.988l0.989,0.988c0.546,0.544,1.431,0.544,1.977,0
				c0.546-0.545,0.546-1.431,0-1.976l-0.988-0.988l0.988-0.988C120.699,66.533,120.699,65.647,120.154,65.103z"/>
			<path style="fill-rule:evenodd;clip-rule:evenodd;fill:#FFD700;" d="M135.229,71.887l0.988-0.988
				c0.546-0.545,0.546-1.431,0-1.975c-0.546-0.545-1.431-0.545-1.977,0l-0.989,0.988l-0.989-0.988c-0.545-0.545-1.431-0.545-1.977,0
				c-0.546,0.544-0.546,1.43,0,1.975l0.988,0.988l-0.988,0.988c-0.546,0.545-0.546,1.431,0,1.976c0.546,0.544,1.432,0.544,1.977,0
				l0.989-0.988l0.989,0.988c0.546,0.544,1.431,0.544,1.977,0c0.546-0.545,0.546-1.431,0-1.976L135.229,71.887z"/>
		</g>
	</g>
	<g>
		<path style="fill:#FFF5C3;" d="M717.981,157.099l-57.416-57.416h-62.92l-39.231,39.231v37.455l-23.457,23.457h-30.071
			l13.352,13.352c3.693,3.693,8.702,5.768,13.925,5.768h53.144c5.223,0,10.232-2.075,13.925-5.768l11.452-11.452
			c7.691-7.691,7.691-20.16,0-27.851l-2.589-2.589c-7.691-7.691-7.691-20.16,0-27.85l0,0c7.691-7.691,20.16-7.691,27.851,0
			l19.903,19.902c7.691,7.691,7.691,20.16,0,27.851l-1.675,1.675c-7.691,7.691-7.691,20.16,0,27.851l9.953,9.953l53.855-53.855
			V157.099z"/>
		
			<path style="fill:#00B465;stroke:#00B465;stroke-width:10.9038;stroke-linecap:round;stroke-linejoin:round;stroke-miterlimit:10;stroke-dasharray:0,10.9038;" d="
			M692.431,250.815h32.001c5.223,0,10.232-2.075,13.926-5.768l41.608-41.608c3.693-3.693,5.768-8.702,5.768-13.925v-18.762
			c0-5.223-2.075-10.232-5.768-13.925l-71.913-71.913c-3.693-3.693-8.702-5.768-13.925-5.768h-17.393
			c-5.223,0-10.232-2.075-13.925-5.768l-4.227-4.227c-3.693-3.693-8.702-5.768-13.925-5.768H534.363
			c-5.142,0-10.08,2.011-13.759,5.604l-43.763,42.735c-3.795,3.706-5.934,8.786-5.934,14.09v31.878
			c0,5.223,2.075,10.232,5.768,13.925l28.211,28.211h30.071l23.457-23.457v-37.455l39.231-39.231h62.92l57.416,57.416v19.714
			l-53.855,53.855l14.38,14.38C682.199,248.74,687.208,250.815,692.431,250.815z"/>
		<g>
			<path style="opacity:0.5;fill:#009352;" d="M534.607,143.262c-0.925,0-1.674-0.748-1.674-1.673v-5.237
				c0-0.925,0.75-1.673,1.674-1.673c0.925,0,1.674,0.748,1.674,1.673v5.237C536.281,142.514,535.532,143.262,534.607,143.262z"/>
			<path style="opacity:0.5;fill:#009352;" d="M541.306,143.262c-0.925,0-1.674-0.748-1.674-1.673v-3.493
				c0-0.925,0.75-1.673,1.674-1.673c0.925,0,1.674,0.748,1.674,1.673v3.493C542.98,142.514,542.23,143.262,541.306,143.262z"/>
			<path style="opacity:0.5;fill:#009352;" d="M527.909,143.262c-0.925,0-1.674-0.748-1.674-1.673v-3.493
				c0-0.925,0.75-1.673,1.674-1.673c0.925,0,1.674,0.748,1.674,1.673v3.493C529.583,142.514,528.833,143.262,527.909,143.262z"/>
		</g>
		<g>
			<path style="opacity:0.5;fill:#009352;" d="M625.39,91.721c-0.925,0-1.674-0.748-1.674-1.673v-5.237
				c0-0.925,0.75-1.673,1.674-1.673c0.925,0,1.674,0.748,1.674,1.673v5.237C627.064,90.973,626.315,91.721,625.39,91.721z"/>
			<path style="opacity:0.5;fill:#009352;" d="M632.089,91.721c-0.925,0-1.674-0.748-1.674-1.673v-3.493
				c0-0.925,0.75-1.673,1.674-1.673c0.925,0,1.674,0.748,1.674,1.673v3.493C633.763,90.973,633.013,91.721,632.089,91.721z"/>
			<path style="opacity:0.5;fill:#009352;" d="M618.692,91.721c-0.925,0-1.674-0.748-1.674-1.673v-3.493
				c0-0.925,0.75-1.673,1.674-1.673c0.925,0,1.674,0.748,1.674,1.673v3.493C620.366,90.973,619.616,91.721,618.692,91.721z"/>
		</g>
		<g>
			<path style="fill:#BD7F46;" d="M501.259,98.866h-10.807l-2.929,26.724c-0.162,1.481,0.999,2.775,2.49,2.775h11.738
				c1.493,0,2.655-1.297,2.489-2.78L501.259,98.866z"/>
			<g>
				<defs>
					<path id="SVGID_00000099649853487430320570000013852786583978088838_" d="M501.259,98.866h-10.807l-2.929,26.724
						c-0.162,1.481,0.999,2.775,2.49,2.775h11.738c1.493,0,2.655-1.297,2.489-2.78L501.259,98.866z"/>
				</defs>
				<clipPath id="SVGID_00000093875537598520009930000005525472130535000759_">
					<use xlink:href="#SVGID_00000099649853487430320570000013852786583978088838_"  style="overflow:visible;"/>
				</clipPath>
				
					<path style="opacity:0.25;clip-path:url(#SVGID_00000093875537598520009930000005525472130535000759_);fill-rule:evenodd;clip-rule:evenodd;fill:#6A6862;" d="
					M495.89,118.183l-8.834-6.433c-4.88-3.553-5.431-10.62-1.162-14.886l3.09-3.088l13.811,0l3.09,3.088
					c4.269,4.266,3.718,11.333-1.162,14.886L495.89,118.183z"/>
			</g>
			<path style="fill-rule:evenodd;clip-rule:evenodd;fill:#00A600;" d="M495.882,98.017c0,3.896,1.549,7.633,4.306,10.389
				c2.758,2.756,6.498,4.303,10.399,4.303c7.387,0,14.791,0,14.791,0s0-4.546,0-9.713c0-3.898-1.549-7.635-4.306-10.391
				c-2.758-2.754-6.498-4.303-10.399-4.303c-7.387,0-14.791,0-14.791,0S495.882,92.848,495.882,98.017z"/>
			<g>
				<defs>
					<path id="SVGID_00000157999523241593936630000001498223334551468466_" d="M495.882,98.017c0,3.896,1.549,7.633,4.306,10.389
						c2.758,2.756,6.498,4.303,10.399,4.303c7.387,0,14.791,0,14.791,0s0-4.546,0-9.713c0-3.898-1.549-7.635-4.306-10.391
						c-2.758-2.754-6.498-4.303-10.399-4.303c-7.387,0-14.791,0-14.791,0S495.882,92.848,495.882,98.017z"/>
				</defs>
				<clipPath id="SVGID_00000047053850155058881010000005714417500275336612_">
					<use xlink:href="#SVGID_00000157999523241593936630000001498223334551468466_"  style="overflow:visible;"/>
				</clipPath>
				
					<polygon style="clip-path:url(#SVGID_00000047053850155058881010000005714417500275336612_);fill-rule:evenodd;clip-rule:evenodd;fill:#009238;" points="
					495.882,88.302 528.798,116.436 495.882,116.436 				"/>
				
					<rect x="508.788" y="81.299" transform="matrix(0.6325 -0.7745 0.7745 0.6325 109.9232 432.3596)" style="clip-path:url(#SVGID_00000047053850155058881010000005714417500275336612_);fill-rule:evenodd;clip-rule:evenodd;fill:#00B500;" width="3.685" height="38.063"/>
				
					<path style="clip-path:url(#SVGID_00000047053850155058881010000005714417500275336612_);fill-rule:evenodd;clip-rule:evenodd;fill:#007B62;" d="
					M513.088,114.299h-3.687c0,0,0-3.824,0-6.196c0-1.017,0.826-1.842,1.844-1.842c1.018,0,1.844,0.825,1.844,1.842
					C513.088,110.476,513.088,114.299,513.088,114.299z"/>
				
					<path style="clip-path:url(#SVGID_00000047053850155058881010000005714417500275336612_);fill-rule:evenodd;clip-rule:evenodd;fill:#007B62;" d="
					M505.714,114.572h-3.687c0,0,0-8.412,0-12.227c0-1.017,0.824-1.84,1.842-1.84c0.002,0,0.002,0,0.004,0
					c1.018,0,1.842,0.823,1.842,1.84C505.714,106.16,505.714,114.572,505.714,114.572z"/>
				
					<path style="clip-path:url(#SVGID_00000047053850155058881010000005714417500275336612_);fill-rule:evenodd;clip-rule:evenodd;fill:#009238;" d="
					M525.378,102.382v-3.489c0,0-3.447,0-5.628,0c-0.463,0-0.907,0.184-1.235,0.512c-0.326,0.326-0.511,0.77-0.511,1.232l0,0
					c0,0.464,0.184,0.906,0.511,1.234c0.328,0.328,0.772,0.51,1.235,0.51C521.931,102.382,525.378,102.382,525.378,102.382z"/>
				
					<path style="clip-path:url(#SVGID_00000047053850155058881010000005714417500275336612_);fill-rule:evenodd;clip-rule:evenodd;fill:#009238;" d="
					M525.378,95.209v-3.684c0,0-7.498,0-11.063,0c-1.018,0-1.842,0.823-1.842,1.84c0,0.002,0,0.004,0,0.004
					c0,1.017,0.824,1.84,1.842,1.84C517.881,95.209,525.378,95.209,525.378,95.209z"/>
			</g>
			<path style="fill-rule:evenodd;clip-rule:evenodd;fill:#00A600;" d="M495.882,98.017c0,3.896-1.549,7.633-4.306,10.389
				s-6.498,4.303-10.399,4.303c-7.387,0-14.791,0-14.791,0s0-4.546,0-9.713c0-3.898,1.549-7.635,4.306-10.391
				c2.758-2.754,6.498-4.303,10.399-4.303c7.387,0,14.791,0,14.791,0S495.882,92.848,495.882,98.017z"/>
			<g>
				<defs>
					<path id="SVGID_00000089539955084166029730000002561103173594464183_" d="M495.882,98.017c0,3.896-1.549,7.633-4.306,10.389
						s-6.498,4.303-10.399,4.303c-7.387,0-14.791,0-14.791,0s0-4.546,0-9.713c0-3.898,1.549-7.635,4.306-10.391
						c2.758-2.754,6.498-4.303,10.399-4.303c7.387,0,14.791,0,14.791,0S495.882,92.848,495.882,98.017z"/>
				</defs>
				<clipPath id="SVGID_00000075128074677709017050000004969784569736474275_">
					<use xlink:href="#SVGID_00000089539955084166029730000002561103173594464183_"  style="overflow:visible;"/>
				</clipPath>
				
					<polygon style="clip-path:url(#SVGID_00000075128074677709017050000004969784569736474275_);fill-rule:evenodd;clip-rule:evenodd;fill:#009238;" points="
					495.882,88.302 462.966,116.436 495.882,116.436 				"/>
				
					<rect x="462.103" y="98.488" transform="matrix(0.775 -0.632 0.632 0.775 44.8673 326.6654)" style="clip-path:url(#SVGID_00000075128074677709017050000004969784569736474275_);fill-rule:evenodd;clip-rule:evenodd;fill:#00B500;" width="38.063" height="3.685"/>
				
					<path style="clip-path:url(#SVGID_00000075128074677709017050000004969784569736474275_);fill-rule:evenodd;clip-rule:evenodd;fill:#007B62;" d="
					M478.676,114.299h3.687c0,0,0-3.824,0-6.196c0-1.017-0.826-1.842-1.844-1.842c-1.018,0-1.844,0.825-1.844,1.842
					C478.676,110.476,478.676,114.299,478.676,114.299z"/>
				
					<path style="clip-path:url(#SVGID_00000075128074677709017050000004969784569736474275_);fill-rule:evenodd;clip-rule:evenodd;fill:#007B62;" d="
					M486.05,114.572h3.687c0,0,0-8.41,0-12.225c0-0.488-0.194-0.956-0.54-1.302c-0.345-0.344-0.815-0.54-1.303-0.54
					s-0.959,0.195-1.303,0.54c-0.347,0.346-0.54,0.814-0.54,1.302C486.05,106.162,486.05,114.572,486.05,114.572z"/>
				
					<path style="clip-path:url(#SVGID_00000075128074677709017050000004969784569736474275_);fill-rule:evenodd;clip-rule:evenodd;fill:#009238;" d="
					M466.386,102.577v-3.684c0,0,3.348,0,5.532,0c0.489,0,0.957,0.193,1.302,0.54c0.347,0.344,0.54,0.812,0.54,1.3
					c0,0.002,0,0.004,0,0.004c0,0.488-0.194,0.956-0.54,1.302c-0.345,0.344-0.813,0.538-1.302,0.538
					C469.734,102.577,466.386,102.577,466.386,102.577z"/>
				
					<path style="clip-path:url(#SVGID_00000075128074677709017050000004969784569736474275_);fill-rule:evenodd;clip-rule:evenodd;fill:#009238;" d="
					M466.386,95.209v-3.684c0,0,7.496,0,11.061,0c0.489,0,0.959,0.195,1.303,0.54c0.347,0.346,0.54,0.814,0.54,1.302
					c0,0.488-0.194,0.958-0.54,1.302c-0.345,0.346-0.815,0.54-1.303,0.54C473.882,95.209,466.386,95.209,466.386,95.209z"/>
			</g>
			<g>
				<defs>
					<path id="SVGID_00000009552698993086728290000005299315654852687278_" d="M521.072,92.605
						c-2.758-2.754-6.498-4.303-10.399-4.303c-7.387,0-14.791,0-14.791,0s-7.403,0-14.79,0c-3.901,0-7.642,1.549-10.4,4.303
						c-2.757,2.756-4.306,6.493-4.306,10.391c0,5.167,0,9.713,0,9.713s7.404,0,14.791,0c3.901,0,7.641-1.547,10.399-4.303
						c2.758-2.756,4.306-6.493,4.306-10.389c0,3.896,1.549,7.633,4.306,10.389c2.758,2.756,6.499,4.303,10.4,4.303
						c7.387,0,14.79,0,14.79,0s0-4.546,0-9.713C525.378,99.098,523.83,95.36,521.072,92.605z"/>
				</defs>
				<clipPath id="SVGID_00000055674285676940530150000007835883637784195714_">
					<use xlink:href="#SVGID_00000009552698993086728290000005299315654852687278_"  style="overflow:visible;"/>
				</clipPath>
			</g>
			<path style="fill-rule:evenodd;clip-rule:evenodd;fill:#00B500;" d="M495.89,112.708l-8.834-6.433
				c-4.88-3.553-5.431-10.62-1.162-14.886l3.09-3.088l13.811,0l3.09,3.088c4.269,4.266,3.718,11.333-1.162,14.886L495.89,112.708z"
				/>
			<g>
				<defs>
					<path id="SVGID_00000170268667171277411300000006313436138257984159_" d="M495.89,112.708l-8.834-6.433
						c-4.88-3.553-5.431-10.62-1.162-14.886l3.09-3.088l13.811,0l3.09,3.088c4.269,4.266,3.718,11.333-1.162,14.886L495.89,112.708z
						"/>
				</defs>
				<clipPath id="SVGID_00000037660522994926674820000008781364060352180877_">
					<use xlink:href="#SVGID_00000170268667171277411300000006313436138257984159_"  style="overflow:visible;"/>
				</clipPath>
				<g style="clip-path:url(#SVGID_00000037660522994926674820000008781364060352180877_);">
					<rect x="495.89" y="87.184" style="fill:#009238;" width="13.938" height="26.431"/>
				</g>
				<g style="clip-path:url(#SVGID_00000037660522994926674820000008781364060352180877_);">
					<rect x="494.039" y="85.641" style="fill:#26C21A;" width="3.687" height="32.128"/>
				</g>
				<g style="clip-path:url(#SVGID_00000037660522994926674820000008781364060352180877_);">
					<g>
						<path style="fill:#009238;" d="M482.81,101.76c-0.6,0-1.191-0.293-1.543-0.831c-0.559-0.851-0.322-1.993,0.53-2.551
							l7.494-4.912c0.852-0.561,1.995-0.319,2.552,0.529c0.559,0.851,0.322,1.993-0.53,2.551l-7.494,4.912
							C483.506,101.663,483.156,101.76,482.81,101.76z"/>
					</g>
					<g>
						<path style="fill:#007B62;" d="M508.953,101.76c-0.346,0-0.696-0.097-1.008-0.302l-7.492-4.912
							c-0.852-0.558-1.09-1.699-0.53-2.551c0.557-0.848,1.692-1.091,2.552-0.529l7.492,4.912c0.852,0.558,1.09,1.699,0.53,2.551
							C510.144,101.467,509.553,101.76,508.953,101.76z"/>
					</g>
					<g>
						<path style="fill:#009238;" d="M482.81,110.159c-0.6,0-1.191-0.293-1.543-0.831c-0.559-0.851-0.322-1.993,0.53-2.551
							l7.494-4.912c0.852-0.561,1.995-0.319,2.552,0.529c0.559,0.851,0.322,1.993-0.53,2.551l-7.494,4.912
							C483.506,110.062,483.156,110.159,482.81,110.159z"/>
					</g>
					<g>
						<path style="fill:#007B62;" d="M508.953,110.159c-0.346,0-0.696-0.097-1.008-0.302l-7.492-4.912
							c-0.852-0.558-1.09-1.699-0.53-2.551c0.557-0.848,1.692-1.091,2.552-0.529l7.492,4.912c0.852,0.558,1.09,1.699,0.53,2.551
							C510.144,109.866,509.553,110.159,508.953,110.159z"/>
					</g>
				</g>
			</g>
			<path style="fill-rule:evenodd;clip-rule:evenodd;fill:#00B465;" d="M505.833,121.918c-1.981,0-3.602,1.62-3.602,3.599
				c0-1.98-1.621-3.599-3.602-3.599c-1.981,0-3.602,1.62-3.602,3.599c0-1.98-1.621-3.599-3.602-3.599
				c-1.981,0-3.602,1.62-3.602,3.599c0-1.98-1.621-3.599-3.602-3.599c-1.981,0-3.602,1.62-3.602,3.599l3.256,2.847l8.377,0.897
				l12.006-0.593l5.179-3.152C509.435,123.537,507.814,121.918,505.833,121.918z"/>
		</g>
		<g>
			<path style="fill:#BD7F46;" d="M549.385,51.616h-10.807l-2.929,26.724c-0.162,1.481,0.999,2.775,2.49,2.775h11.738
				c1.493,0,2.655-1.297,2.489-2.78L549.385,51.616z"/>
			<g>
				<defs>
					<path id="SVGID_00000064322709750632964030000012619184193841568412_" d="M549.385,51.616h-10.807l-2.929,26.724
						c-0.162,1.481,0.999,2.775,2.49,2.775h11.738c1.493,0,2.655-1.297,2.489-2.78L549.385,51.616z"/>
				</defs>
				<clipPath id="SVGID_00000166648804048641564630000000664462896225379256_">
					<use xlink:href="#SVGID_00000064322709750632964030000012619184193841568412_"  style="overflow:visible;"/>
				</clipPath>
				
					<path style="opacity:0.25;clip-path:url(#SVGID_00000166648804048641564630000000664462896225379256_);fill-rule:evenodd;clip-rule:evenodd;fill:#6A6862;" d="
					M544.016,70.934l-8.834-6.433c-4.88-3.553-5.431-10.62-1.162-14.886l3.09-3.088l13.811,0l3.09,3.088
					c4.269,4.266,3.718,11.333-1.162,14.886L544.016,70.934z"/>
			</g>
			<path style="fill-rule:evenodd;clip-rule:evenodd;fill:#00A600;" d="M544.008,50.767c0,3.896,1.549,7.633,4.306,10.389
				c2.758,2.756,6.498,4.303,10.399,4.303c7.387,0,14.791,0,14.791,0s0-4.546,0-9.713c0-3.898-1.549-7.635-4.306-10.391
				c-2.758-2.754-6.498-4.303-10.399-4.303c-7.387,0-14.791,0-14.791,0S544.008,45.599,544.008,50.767z"/>
			<g>
				<defs>
					<path id="SVGID_00000118385083873655590220000016896240697946353809_" d="M544.008,50.767c0,3.896,1.549,7.633,4.306,10.389
						c2.758,2.756,6.498,4.303,10.399,4.303c7.387,0,14.791,0,14.791,0s0-4.546,0-9.713c0-3.898-1.549-7.635-4.306-10.391
						c-2.758-2.754-6.498-4.303-10.399-4.303c-7.387,0-14.791,0-14.791,0S544.008,45.599,544.008,50.767z"/>
				</defs>
				<clipPath id="SVGID_00000073688344551362100740000007386334388870494392_">
					<use xlink:href="#SVGID_00000118385083873655590220000016896240697946353809_"  style="overflow:visible;"/>
				</clipPath>
				
					<polygon style="clip-path:url(#SVGID_00000073688344551362100740000007386334388870494392_);fill-rule:evenodd;clip-rule:evenodd;fill:#009238;" points="
					544.008,41.053 576.924,69.187 544.008,69.187 				"/>
				
					<rect x="556.914" y="34.05" transform="matrix(0.6325 -0.7745 0.7745 0.6325 164.2026 452.2722)" style="clip-path:url(#SVGID_00000073688344551362100740000007386334388870494392_);fill-rule:evenodd;clip-rule:evenodd;fill:#00B500;" width="3.685" height="38.063"/>
				
					<path style="clip-path:url(#SVGID_00000073688344551362100740000007386334388870494392_);fill-rule:evenodd;clip-rule:evenodd;fill:#007B62;" d="
					M561.214,67.05h-3.687c0,0,0-3.824,0-6.196c0-1.017,0.826-1.842,1.844-1.842s1.844,0.825,1.844,1.842
					C561.214,63.226,561.214,67.05,561.214,67.05z"/>
				
					<path style="clip-path:url(#SVGID_00000073688344551362100740000007386334388870494392_);fill-rule:evenodd;clip-rule:evenodd;fill:#007B62;" d="
					M553.84,67.323h-3.687c0,0,0-8.412,0-12.227c0-1.017,0.824-1.84,1.842-1.84c0.002,0,0.002,0,0.004,0
					c1.018,0,1.842,0.823,1.842,1.84C553.84,58.911,553.84,67.323,553.84,67.323z"/>
				
					<path style="clip-path:url(#SVGID_00000073688344551362100740000007386334388870494392_);fill-rule:evenodd;clip-rule:evenodd;fill:#009238;" d="
					M573.504,55.133v-3.489c0,0-3.447,0-5.628,0c-0.463,0-0.907,0.184-1.235,0.512c-0.326,0.326-0.511,0.77-0.511,1.232l0,0
					c0,0.464,0.184,0.906,0.511,1.234c0.328,0.328,0.772,0.51,1.235,0.51C570.057,55.133,573.504,55.133,573.504,55.133z"/>
				
					<path style="clip-path:url(#SVGID_00000073688344551362100740000007386334388870494392_);fill-rule:evenodd;clip-rule:evenodd;fill:#009238;" d="
					M573.504,47.96v-3.684c0,0-7.498,0-11.063,0c-1.018,0-1.842,0.823-1.842,1.84c0,0.002,0,0.004,0,0.004
					c0,1.017,0.824,1.84,1.842,1.84C566.007,47.96,573.504,47.96,573.504,47.96z"/>
			</g>
			<path style="fill-rule:evenodd;clip-rule:evenodd;fill:#00A600;" d="M544.008,50.767c0,3.896-1.549,7.633-4.306,10.389
				c-2.758,2.756-6.498,4.303-10.399,4.303c-7.387,0-14.791,0-14.791,0s0-4.546,0-9.713c0-3.898,1.549-7.635,4.306-10.391
				c2.758-2.754,6.498-4.303,10.399-4.303c7.387,0,14.791,0,14.791,0S544.008,45.599,544.008,50.767z"/>
			<g>
				<defs>
					<path id="SVGID_00000062168923725261436810000000791231003743477927_" d="M544.008,50.767c0,3.896-1.549,7.633-4.306,10.389
						c-2.758,2.756-6.498,4.303-10.399,4.303c-7.387,0-14.791,0-14.791,0s0-4.546,0-9.713c0-3.898,1.549-7.635,4.306-10.391
						c2.758-2.754,6.498-4.303,10.399-4.303c7.387,0,14.791,0,14.791,0S544.008,45.599,544.008,50.767z"/>
				</defs>
				<clipPath id="SVGID_00000088843082105373022000000010198041502101654681_">
					<use xlink:href="#SVGID_00000062168923725261436810000000791231003743477927_"  style="overflow:visible;"/>
				</clipPath>
				
					<polygon style="clip-path:url(#SVGID_00000088843082105373022000000010198041502101654681_);fill-rule:evenodd;clip-rule:evenodd;fill:#009238;" points="
					544.008,41.053 511.092,69.187 544.008,69.187 				"/>
				
					<rect x="510.228" y="51.239" transform="matrix(0.775 -0.632 0.632 0.775 85.5604 346.4485)" style="clip-path:url(#SVGID_00000088843082105373022000000010198041502101654681_);fill-rule:evenodd;clip-rule:evenodd;fill:#00B500;" width="38.063" height="3.685"/>
				
					<path style="clip-path:url(#SVGID_00000088843082105373022000000010198041502101654681_);fill-rule:evenodd;clip-rule:evenodd;fill:#007B62;" d="
					M526.802,67.05h3.687c0,0,0-3.824,0-6.196c0-1.017-0.826-1.842-1.844-1.842s-1.844,0.825-1.844,1.842
					C526.802,63.226,526.802,67.05,526.802,67.05z"/>
				
					<path style="clip-path:url(#SVGID_00000088843082105373022000000010198041502101654681_);fill-rule:evenodd;clip-rule:evenodd;fill:#007B62;" d="
					M534.176,67.323h3.687c0,0,0-8.41,0-12.225c0-0.488-0.194-0.956-0.54-1.302c-0.345-0.344-0.815-0.54-1.303-0.54
					s-0.959,0.195-1.303,0.54c-0.347,0.346-0.54,0.814-0.54,1.302C534.176,58.912,534.176,67.323,534.176,67.323z"/>
				
					<path style="clip-path:url(#SVGID_00000088843082105373022000000010198041502101654681_);fill-rule:evenodd;clip-rule:evenodd;fill:#009238;" d="
					M514.512,55.328v-3.684c0,0,3.348,0,5.532,0c0.489,0,0.957,0.193,1.302,0.54c0.347,0.344,0.54,0.812,0.54,1.3
					c0,0.002,0,0.004,0,0.004c0,0.488-0.194,0.956-0.54,1.302c-0.345,0.344-0.813,0.538-1.302,0.538
					C517.859,55.328,514.512,55.328,514.512,55.328z"/>
				
					<path style="clip-path:url(#SVGID_00000088843082105373022000000010198041502101654681_);fill-rule:evenodd;clip-rule:evenodd;fill:#009238;" d="
					M514.512,47.96v-3.684c0,0,7.496,0,11.061,0c0.489,0,0.959,0.195,1.303,0.54c0.347,0.346,0.54,0.814,0.54,1.302
					c0,0.488-0.194,0.958-0.54,1.302c-0.345,0.346-0.815,0.54-1.303,0.54C522.007,47.96,514.512,47.96,514.512,47.96z"/>
			</g>
			<g>
				<defs>
					<path id="SVGID_00000151520314923104221440000007035110105454365353_" d="M569.198,45.355
						c-2.758-2.754-6.498-4.303-10.399-4.303c-7.387,0-14.791,0-14.791,0s-7.403,0-14.79,0c-3.901,0-7.642,1.549-10.4,4.303
						c-2.757,2.756-4.306,6.493-4.306,10.391c0,5.167,0,9.713,0,9.713s7.404,0,14.791,0c3.901,0,7.641-1.547,10.399-4.303
						c2.758-2.756,4.306-6.493,4.306-10.389c0,3.896,1.549,7.633,4.306,10.389c2.758,2.756,6.499,4.303,10.4,4.303
						c7.387,0,14.79,0,14.79,0s0-4.546,0-9.713C573.504,51.848,571.956,48.111,569.198,45.355z"/>
				</defs>
				<clipPath id="SVGID_00000016049685229656916180000002318799518220170377_">
					<use xlink:href="#SVGID_00000151520314923104221440000007035110105454365353_"  style="overflow:visible;"/>
				</clipPath>
			</g>
			<path style="fill-rule:evenodd;clip-rule:evenodd;fill:#00B500;" d="M544.016,65.459l-8.834-6.433
				c-4.88-3.553-5.431-10.62-1.162-14.886l3.09-3.088l13.811,0l3.09,3.088c4.269,4.266,3.718,11.333-1.162,14.886L544.016,65.459z"
				/>
			<g>
				<defs>
					<path id="SVGID_00000123425038268436439810000010666984894269888645_" d="M544.016,65.459l-8.834-6.433
						c-4.88-3.553-5.431-10.62-1.162-14.886l3.09-3.088l13.811,0l3.09,3.088c4.269,4.266,3.718,11.333-1.162,14.886L544.016,65.459z
						"/>
				</defs>
				<clipPath id="SVGID_00000018216837690985298450000008326206956664371114_">
					<use xlink:href="#SVGID_00000123425038268436439810000010666984894269888645_"  style="overflow:visible;"/>
				</clipPath>
				<g style="clip-path:url(#SVGID_00000018216837690985298450000008326206956664371114_);">
					<rect x="544.016" y="39.935" style="fill:#009238;" width="13.938" height="26.431"/>
				</g>
				<g style="clip-path:url(#SVGID_00000018216837690985298450000008326206956664371114_);">
					<rect x="542.165" y="38.392" style="fill:#26C21A;" width="3.687" height="32.128"/>
				</g>
				<g style="clip-path:url(#SVGID_00000018216837690985298450000008326206956664371114_);">
					<g>
						<path style="fill:#009238;" d="M530.936,54.51c-0.6,0-1.191-0.293-1.543-0.831c-0.559-0.851-0.322-1.993,0.531-2.551
							l7.494-4.912c0.852-0.561,1.995-0.319,2.552,0.529c0.559,0.851,0.322,1.993-0.531,2.551l-7.494,4.912
							C531.632,54.413,531.282,54.51,530.936,54.51z"/>
					</g>
					<g>
						<path style="fill:#007B62;" d="M557.079,54.51c-0.346,0-0.696-0.097-1.008-0.302l-7.492-4.912
							c-0.852-0.558-1.09-1.699-0.53-2.551c0.557-0.848,1.692-1.091,2.552-0.529l7.492,4.912c0.852,0.558,1.09,1.699,0.53,2.551
							C558.27,54.218,557.679,54.51,557.079,54.51z"/>
					</g>
					<g>
						<path style="fill:#009238;" d="M530.936,62.91c-0.6,0-1.191-0.293-1.543-0.831c-0.559-0.851-0.322-1.993,0.531-2.551
							l7.494-4.912c0.852-0.561,1.995-0.319,2.552,0.529c0.559,0.851,0.322,1.993-0.531,2.551l-7.494,4.912
							C531.632,62.812,531.282,62.91,530.936,62.91z"/>
					</g>
					<g>
						<path style="fill:#007B62;" d="M557.079,62.91c-0.346,0-0.696-0.097-1.008-0.302l-7.492-4.912
							c-0.852-0.558-1.09-1.699-0.53-2.551c0.557-0.848,1.692-1.091,2.552-0.529l7.492,4.912c0.852,0.558,1.09,1.699,0.53,2.551
							C558.27,62.617,557.679,62.91,557.079,62.91z"/>
					</g>
				</g>
			</g>
			<path style="fill-rule:evenodd;clip-rule:evenodd;fill:#00B465;" d="M553.959,74.668c-1.981,0-3.602,1.62-3.602,3.599
				c0-1.98-1.621-3.599-3.602-3.599s-3.602,1.62-3.602,3.599c0-1.98-1.621-3.599-3.602-3.599s-3.602,1.62-3.602,3.599
				c0-1.98-1.621-3.599-3.602-3.599c-1.981,0-3.602,1.62-3.602,3.599l3.256,2.847l8.377,0.897l12.006-0.593l5.179-3.152
				C557.561,76.288,555.94,74.668,553.959,74.668z"/>
		</g>
		<g>
			<path style="fill:#BD7F46;" d="M567.806,92.576H557l-2.929,26.724c-0.162,1.481,0.999,2.775,2.49,2.775h11.738
				c1.493,0,2.655-1.297,2.489-2.78L567.806,92.576z"/>
			<g>
				<defs>
					<path id="SVGID_00000021807601589721387610000002087431587506521220_" d="M567.806,92.576H557l-2.929,26.724
						c-0.162,1.481,0.999,2.775,2.49,2.775h11.738c1.493,0,2.655-1.297,2.489-2.78L567.806,92.576z"/>
				</defs>
				<clipPath id="SVGID_00000070818989802504626880000007167752200905676971_">
					<use xlink:href="#SVGID_00000021807601589721387610000002087431587506521220_"  style="overflow:visible;"/>
				</clipPath>
				
					<path style="opacity:0.25;clip-path:url(#SVGID_00000070818989802504626880000007167752200905676971_);fill-rule:evenodd;clip-rule:evenodd;fill:#6A6862;" d="
					M562.438,111.894l-8.834-6.433c-4.88-3.553-5.431-10.62-1.162-14.886l3.09-3.088l13.811,0l3.09,3.088
					c4.269,4.266,3.718,11.333-1.162,14.886L562.438,111.894z"/>
			</g>
			<path style="fill-rule:evenodd;clip-rule:evenodd;fill:#00A600;" d="M562.43,91.727c0,3.896,1.549,7.633,4.306,10.389
				c2.758,2.756,6.498,4.303,10.399,4.303c7.387,0,14.791,0,14.791,0s0-4.546,0-9.713c0-3.898-1.549-7.635-4.306-10.391
				c-2.758-2.754-6.498-4.303-10.399-4.303c-7.387,0-14.791,0-14.791,0S562.43,86.558,562.43,91.727z"/>
			<g>
				<defs>
					<path id="SVGID_00000021827730357615463940000002865218008551709827_" d="M562.43,91.727c0,3.896,1.549,7.633,4.306,10.389
						c2.758,2.756,6.498,4.303,10.399,4.303c7.387,0,14.791,0,14.791,0s0-4.546,0-9.713c0-3.898-1.549-7.635-4.306-10.391
						c-2.758-2.754-6.498-4.303-10.399-4.303c-7.387,0-14.791,0-14.791,0S562.43,86.558,562.43,91.727z"/>
				</defs>
				<clipPath id="SVGID_00000116957099533585601030000007858749297636912782_">
					<use xlink:href="#SVGID_00000021827730357615463940000002865218008551709827_"  style="overflow:visible;"/>
				</clipPath>
				
					<polygon style="clip-path:url(#SVGID_00000116957099533585601030000007858749297636912782_);fill-rule:evenodd;clip-rule:evenodd;fill:#009238;" points="
					562.43,82.012 595.346,110.147 562.43,110.147 				"/>
				
					<rect x="575.335" y="75.01" transform="matrix(0.6325 -0.7745 0.7745 0.6325 139.2475 481.5908)" style="clip-path:url(#SVGID_00000116957099533585601030000007858749297636912782_);fill-rule:evenodd;clip-rule:evenodd;fill:#00B500;" width="3.685" height="38.063"/>
				
					<path style="clip-path:url(#SVGID_00000116957099533585601030000007858749297636912782_);fill-rule:evenodd;clip-rule:evenodd;fill:#007B62;" d="
					M579.636,108.01h-3.687c0,0,0-3.824,0-6.196c0-1.017,0.826-1.842,1.844-1.842c1.018,0,1.844,0.825,1.844,1.842
					C579.636,104.186,579.636,108.01,579.636,108.01z"/>
				
					<path style="clip-path:url(#SVGID_00000116957099533585601030000007858749297636912782_);fill-rule:evenodd;clip-rule:evenodd;fill:#007B62;" d="
					M572.262,108.282h-3.687c0,0,0-8.412,0-12.227c0-1.017,0.824-1.84,1.842-1.84c0.002,0,0.002,0,0.004,0
					c1.018,0,1.842,0.823,1.842,1.84C572.262,99.87,572.262,108.282,572.262,108.282z"/>
				
					<path style="clip-path:url(#SVGID_00000116957099533585601030000007858749297636912782_);fill-rule:evenodd;clip-rule:evenodd;fill:#009238;" d="
					M591.926,96.092v-3.489c0,0-3.447,0-5.628,0c-0.463,0-0.907,0.184-1.235,0.512c-0.326,0.326-0.511,0.77-0.511,1.232l0,0
					c0,0.464,0.184,0.906,0.511,1.234c0.328,0.328,0.772,0.51,1.235,0.51C588.479,96.092,591.926,96.092,591.926,96.092z"/>
				
					<path style="clip-path:url(#SVGID_00000116957099533585601030000007858749297636912782_);fill-rule:evenodd;clip-rule:evenodd;fill:#009238;" d="
					M591.926,88.92v-3.684c0,0-7.498,0-11.063,0c-1.018,0-1.842,0.823-1.842,1.84c0,0.002,0,0.004,0,0.004
					c0,1.017,0.824,1.84,1.842,1.84C584.428,88.92,591.926,88.92,591.926,88.92z"/>
			</g>
			<path style="fill-rule:evenodd;clip-rule:evenodd;fill:#00A600;" d="M562.43,91.727c0,3.896-1.549,7.633-4.307,10.389
				c-2.758,2.756-6.498,4.303-10.399,4.303c-7.387,0-14.791,0-14.791,0s0-4.546,0-9.713c0-3.898,1.549-7.635,4.306-10.391
				c2.758-2.754,6.498-4.303,10.399-4.303c7.387,0,14.791,0,14.791,0S562.43,86.558,562.43,91.727z"/>
			<g>
				<defs>
					<path id="SVGID_00000033359387286841951140000012051580829170532770_" d="M562.43,91.727c0,3.896-1.549,7.633-4.307,10.389
						c-2.758,2.756-6.498,4.303-10.399,4.303c-7.387,0-14.791,0-14.791,0s0-4.546,0-9.713c0-3.898,1.549-7.635,4.306-10.391
						c2.758-2.754,6.498-4.303,10.399-4.303c7.387,0,14.791,0,14.791,0S562.43,86.558,562.43,91.727z"/>
				</defs>
				<clipPath id="SVGID_00000018219974290643436170000000835672759638039200_">
					<use xlink:href="#SVGID_00000033359387286841951140000012051580829170532770_"  style="overflow:visible;"/>
				</clipPath>
				
					<polygon style="clip-path:url(#SVGID_00000018219974290643436170000000835672759638039200_);fill-rule:evenodd;clip-rule:evenodd;fill:#009238;" points="
					562.43,82.012 529.513,110.147 562.43,110.147 				"/>
				
					<rect x="528.65" y="92.199" transform="matrix(0.775 -0.632 0.632 0.775 63.8188 367.3092)" style="clip-path:url(#SVGID_00000018219974290643436170000000835672759638039200_);fill-rule:evenodd;clip-rule:evenodd;fill:#00B500;" width="38.063" height="3.685"/>
				
					<path style="clip-path:url(#SVGID_00000018219974290643436170000000835672759638039200_);fill-rule:evenodd;clip-rule:evenodd;fill:#007B62;" d="
					M545.223,108.01h3.687c0,0,0-3.824,0-6.196c0-1.017-0.826-1.842-1.844-1.842c-1.018,0-1.844,0.825-1.844,1.842
					C545.223,104.186,545.223,108.01,545.223,108.01z"/>
				
					<path style="clip-path:url(#SVGID_00000018219974290643436170000000835672759638039200_);fill-rule:evenodd;clip-rule:evenodd;fill:#007B62;" d="
					M552.597,108.282h3.687c0,0,0-8.41,0-12.225c0-0.488-0.194-0.956-0.54-1.302c-0.345-0.344-0.815-0.54-1.303-0.54
					c-0.489,0-0.959,0.195-1.303,0.54c-0.347,0.346-0.54,0.814-0.54,1.302C552.597,99.872,552.597,108.282,552.597,108.282z"/>
				
					<path style="clip-path:url(#SVGID_00000018219974290643436170000000835672759638039200_);fill-rule:evenodd;clip-rule:evenodd;fill:#009238;" d="
					M532.933,96.288v-3.684c0,0,3.348,0,5.532,0c0.489,0,0.957,0.193,1.302,0.54c0.347,0.344,0.54,0.812,0.54,1.3
					c0,0.002,0,0.004,0,0.004c0,0.488-0.194,0.956-0.54,1.302c-0.345,0.344-0.813,0.538-1.302,0.538
					C536.281,96.288,532.933,96.288,532.933,96.288z"/>
				
					<path style="clip-path:url(#SVGID_00000018219974290643436170000000835672759638039200_);fill-rule:evenodd;clip-rule:evenodd;fill:#009238;" d="
					M532.933,88.92v-3.684c0,0,7.496,0,11.061,0c0.489,0,0.959,0.195,1.303,0.54c0.347,0.346,0.54,0.814,0.54,1.302
					s-0.194,0.958-0.54,1.302c-0.345,0.346-0.815,0.54-1.303,0.54C540.429,88.92,532.933,88.92,532.933,88.92z"/>
			</g>
			<g>
				<defs>
					<path id="SVGID_00000011033679687538698830000011508217787209062820_" d="M587.619,86.315
						c-2.758-2.754-6.498-4.303-10.399-4.303c-7.387,0-14.791,0-14.791,0s-7.403,0-14.79,0c-3.901,0-7.642,1.549-10.4,4.303
						c-2.757,2.756-4.306,6.493-4.306,10.391c0,5.167,0,9.713,0,9.713s7.404,0,14.791,0c3.901,0,7.641-1.547,10.399-4.303
						c2.758-2.756,4.306-6.493,4.306-10.389c0,3.896,1.549,7.633,4.306,10.389c2.758,2.756,6.499,4.303,10.4,4.303
						c7.387,0,14.79,0,14.79,0s0-4.546,0-9.713C591.926,92.808,590.377,89.071,587.619,86.315z"/>
				</defs>
				<clipPath id="SVGID_00000003067920884673754230000005439994729285750155_">
					<use xlink:href="#SVGID_00000011033679687538698830000011508217787209062820_"  style="overflow:visible;"/>
				</clipPath>
			</g>
			<path style="fill-rule:evenodd;clip-rule:evenodd;fill:#00B500;" d="M562.438,106.418l-8.834-6.433
				c-4.88-3.553-5.431-10.62-1.162-14.886l3.09-3.088l13.811,0l3.09,3.088c4.269,4.266,3.718,11.333-1.162,14.886L562.438,106.418z"
				/>
			<g>
				<defs>
					<path id="SVGID_00000106147438862977961740000007672756651805036169_" d="M562.438,106.418l-8.834-6.433
						c-4.88-3.553-5.431-10.62-1.162-14.886l3.09-3.088l13.811,0l3.09,3.088c4.269,4.266,3.718,11.333-1.162,14.886L562.438,106.418
						z"/>
				</defs>
				<clipPath id="SVGID_00000002386664302749734390000015953042942470733462_">
					<use xlink:href="#SVGID_00000106147438862977961740000007672756651805036169_"  style="overflow:visible;"/>
				</clipPath>
				<g style="clip-path:url(#SVGID_00000002386664302749734390000015953042942470733462_);">
					<rect x="562.438" y="80.894" style="fill:#009238;" width="13.938" height="26.431"/>
				</g>
				<g style="clip-path:url(#SVGID_00000002386664302749734390000015953042942470733462_);">
					<rect x="560.587" y="79.352" style="fill:#26C21A;" width="3.687" height="32.128"/>
				</g>
				<g style="clip-path:url(#SVGID_00000002386664302749734390000015953042942470733462_);">
					<g>
						<path style="fill:#009238;" d="M549.358,95.47c-0.6,0-1.191-0.293-1.543-0.831c-0.559-0.851-0.322-1.993,0.53-2.551
							l7.494-4.912c0.852-0.561,1.995-0.319,2.552,0.529c0.559,0.851,0.322,1.993-0.531,2.551l-7.494,4.912
							C550.054,95.373,549.703,95.47,549.358,95.47z"/>
					</g>
					<g>
						<path style="fill:#007B62;" d="M575.501,95.47c-0.346,0-0.696-0.097-1.008-0.302l-7.492-4.912
							c-0.852-0.558-1.09-1.699-0.531-2.551c0.557-0.848,1.692-1.091,2.552-0.529l7.492,4.912c0.852,0.558,1.09,1.699,0.531,2.551
							C576.691,95.177,576.101,95.47,575.501,95.47z"/>
					</g>
					<g>
						<path style="fill:#009238;" d="M549.358,103.869c-0.6,0-1.191-0.293-1.543-0.831c-0.559-0.851-0.322-1.993,0.53-2.551
							l7.494-4.912c0.852-0.561,1.995-0.319,2.552,0.529c0.559,0.851,0.322,1.993-0.531,2.551l-7.494,4.912
							C550.054,103.772,549.703,103.869,549.358,103.869z"/>
					</g>
					<g>
						<path style="fill:#007B62;" d="M575.501,103.869c-0.346,0-0.696-0.097-1.008-0.302l-7.492-4.912
							c-0.852-0.558-1.09-1.699-0.531-2.551c0.557-0.848,1.692-1.091,2.552-0.529l7.492,4.912c0.852,0.558,1.09,1.699,0.531,2.551
							C576.691,103.577,576.101,103.869,575.501,103.869z"/>
					</g>
				</g>
			</g>
			<path style="fill-rule:evenodd;clip-rule:evenodd;fill:#00B465;" d="M572.38,115.628c-1.981,0-3.602,1.62-3.602,3.599
				c0-1.98-1.621-3.599-3.602-3.599c-1.981,0-3.602,1.62-3.602,3.599c0-1.98-1.621-3.599-3.602-3.599
				c-1.981,0-3.602,1.62-3.602,3.599c0-1.98-1.621-3.599-3.602-3.599s-3.602,1.62-3.602,3.599l3.256,2.847l8.377,0.897l12.006-0.593
				l5.179-3.152C575.983,117.248,574.362,115.628,572.38,115.628z"/>
		</g>
		<g>
			<g>
				<g>
					<g>
						<g>
							<defs>
								<path id="SVGID_00000137114090205101701370000009445673586907768469_" d="M615.978,145.154c-9.941,0-18,5.74-18,12.821
									c0,7.081,8.059,12.821,17.999,12.821c9.941,0,18-5.74,18-12.821C633.977,150.894,625.919,145.154,615.978,145.154z"/>
							</defs>
							<clipPath id="SVGID_00000136407715815052974900000007630639607124320447_">
								<use xlink:href="#SVGID_00000137114090205101701370000009445673586907768469_"  style="overflow:visible;"/>
							</clipPath>
							<g style="clip-path:url(#SVGID_00000136407715815052974900000007630639607124320447_);">
								
									<line style="opacity:0.1883;fill:none;stroke:#4A4890;stroke-width:3.4954;stroke-linecap:round;stroke-linejoin:round;stroke-miterlimit:1.5;" x1="623.27" y1="136.101" x2="623.27" y2="180.648"/>
								
									<line style="opacity:0.1883;fill:none;stroke:#4A4890;stroke-width:3.4954;stroke-linecap:round;stroke-linejoin:round;stroke-miterlimit:1.5;" x1="608.685" y1="136.101" x2="608.685" y2="180.648"/>
							</g>
						</g>
					</g>
				</g>
			</g>
		</g>
	</g>
</g>
<g id="aulas" style="display:none;">
	<g style="display:inline;">
		<rect x="368.174" style="fill-rule:evenodd;clip-rule:evenodd;fill:#FFFFFF;" width="33.652" height="145"/>
		<circle style="fill-rule:evenodd;clip-rule:evenodd;fill:#5654A2;" cx="385" cy="72.5" r="42.5"/>
	</g>
</g>
</svg>
