<?xml version="1.0" encoding="utf-8"?>
<!-- Generator: Adobe Illustrator 27.8.1, SVG Export Plug-In . SVG Version: 6.00 Build 0)  -->
<svg version="1.1" id="Layer_1" xmlns="http://www.w3.org/2000/svg" xmlns:xlink="http://www.w3.org/1999/xlink" x="0px" y="0px"
	 width="1500px" height="145px" viewBox="0 0 1500 145" style="enable-background:new 0 0 1500 145;" xml:space="preserve">
<g id="background">
	<rect x="-80.448" y="-1721.348" style="fill:#04D5D8;" width="1640.647" height="4034.435"/>
	<path style="fill:#4EEAE6;" d="M1086.327,1251.512c-49.706,0-90-40.294-90-90v-134.57c0-49.706,40.294-90,90-90h1.646
		c5.523,0,10-4.477,10-10V920c0-5.523-4.477-10-10-10H898.671c-5.523,0-10,4.477-10,10l0,0c0,114.599-92.901,207.5-207.5,207.5
		H580.273c-11.046,0-20,8.954-20,20v4.012c0,55.229-44.772,100-100,100H177.596c-55.228,0-100-44.771-100-100v-28.561
		c0-11.046-8.954-20-20-20H-8.858V2.572h250.766c6.415,0,11.615-5.2,11.615-11.615l0,0c0-42.526,34.474-77,77-77h71.434
		c8.402,0,15.648-5.903,17.343-14.133c7.213-35.029,38.29-61.45,75.422-61.45h144.932c42.526,0,77,34.474,77,77v74.76
		c0,39.977,32.408,72.384,72.384,72.384h64.547c42.751,0,77.86,33.144,81.659,74.952c0.389,4.279,4.029,7.529,8.326,7.529h94.125
		c4.459,0,8.126-3.497,8.354-7.951c4.139-80.754,71-143.599,152.874-143.599h362.181V1114.68h-269.837
		c-25.865,0-46.832,20.967-46.832,46.832l0,0c0,49.706-40.294,90-90,90L1086.327,1251.512L1086.327,1251.512z"/>
	<g>
		<path style="fill:#FFED8B;" d="M1034.372,583.06L1034.372,583.06c0-51.28,41.571-92.851,92.85-92.851h57.665
			c32.387,0,58.642-26.255,58.642-58.642l0,0c0-32.387,26.255-58.642,58.642-58.642h218.932V33.451h-322.181
			c-62.45,0-113.076,50.626-113.076,113.076l0,0c0,23.196-18.804,42-42,42H937.585c-23.196,0-42-18.804-42-42v-2.009
			c0-23.196-18.804-42-42-42H777.81c-55.867,0-101.156-45.289-101.156-101.156v-85.988c0-20.435-16.565-37-37-37H494.722
			c-20.435,0-37,16.565-37,37v1.583c0,20.435-16.565,37-37,37h-77.199c-27.614,0-50,22.386-50,50v1.615c0,20.435-16.565,37-37,37
			H-42.694V1062.95h100.29c33.137,0,60,26.863,60,60v28.561c0,33.137,26.863,60,60,60h282.678c33.137,0,60-26.863,60-60v-4.011
			c0-33.137,26.863-60,60-60h100.898c92.508,0,167.5-74.992,167.5-167.5l0,0c0-27.614,22.386-50,50-50h189.302
			c27.614,0,50,22.386,50,50v6.942c0,27.614-22.386,50-50,50h-1.647c-27.614,0-50,22.386-50,50v134.569c0,27.614,22.386,50,50,50
			h68.108c27.614,0,50-22.386,50-50l0,0c0-47.956,38.876-86.832,86.832-86.832h229.837V746.642
			c0-39.064-31.668-70.732-70.732-70.732h-323.15C1075.943,675.911,1034.372,634.34,1034.372,583.06z"/>
		<g>
			<g>
				<path style="fill:#2EC624;" d="M1198.924,93.451c-29.313,0-53.076,23.763-53.076,53.076l0,0c0,56.333-45.667,102-102,102H690.26
					c-40.652,0-73.606-32.955-73.606-73.606V-35.626c0-14.359-11.641-26-26-26h-56.442c-10.394,0-19.895,6.146-23.89,15.742
					c-14.612,35.099-49.272,59.841-89.6,59.841h-46.653c-11.17,0-21.157,7.295-24.204,18.042
					c-11.534,40.685-49.013,70.574-93.342,70.574H-12.798l-11.374,905.641l115.314-0.491c49.895,14.55,86.454,60.7,86.454,115.229
					v0.695c0.001,13.259,10.754,24.004,24.012,23.997l236.679-0.131c11.698-0.007,21.708-8.443,23.64-19.98
					c9.508-56.77,58.875-100.032,118.346-100.032h100.898c59.37,0,107.5-48.129,107.5-107.5l0,0c0-60.751,49.249-110,110-110
					h189.003c21.384,0,38.798-17.186,39.08-38.568l0,0c0.246-18.686-12.768-34.942-31.062-38.758
					c-28.801-6.009-55.263-20.244-76.552-41.532c-28.869-28.87-44.769-67.254-44.769-108.082s15.899-79.212,44.769-108.081
					s67.254-44.769,108.082-44.769h28.622c14.589,0,27.327-10.069,30.48-24.313c11.76-53.123,59.237-92.972,115.846-92.972h312.76
					V93.451H1198.924z"/>
				<g>
					
						<path style="fill:none;stroke:#2EC624;stroke-width:10;stroke-linecap:round;stroke-linejoin:round;stroke-dasharray:0,9.9759;" d="
						M1604.956,93.451h-406.032c-29.313,0-53.076,23.763-53.076,53.076l0,0c0,56.333-45.667,102-102,102H690.26
						c-40.652,0-73.606-32.955-73.606-73.606V-35.626c0-14.359-11.641-26-26-26h-56.442c-10.394,0-19.895,6.146-23.89,15.742
						c-14.612,35.099-49.272,59.841-89.6,59.841h-46.653c-11.17,0-21.157,7.295-24.204,18.042
						c-11.534,40.685-49.013,70.574-93.342,70.574H-7.81"/>
				</g>
			</g>
		</g>
	</g>
	<g style="opacity:0.35;">
		<g>
			
				<ellipse transform="matrix(0.5206 -0.8538 0.8538 0.5206 -12.625 118.0153)" style="opacity:0.6;fill-rule:evenodd;clip-rule:evenodd;fill:#FFAD38;enable-background:new    ;" cx="98.779" cy="70.25" rx="1.857" ry="1.856"/>
			
				<ellipse transform="matrix(0.5206 -0.8538 0.8538 0.5206 -10.7521 124.9048)" style="opacity:0.6;fill-rule:evenodd;clip-rule:evenodd;fill:#FFAD38;enable-background:new    ;" cx="105.85" cy="72.027" rx="1.857" ry="1.856"/>
			
				<ellipse transform="matrix(0.5206 -0.8538 0.8538 0.5206 -16.5068 124.255)" style="opacity:0.6;fill-rule:evenodd;clip-rule:evenodd;fill:#FFAD38;enable-background:new    ;" cx="102.394" cy="76.827" rx="1.857" ry="1.856"/>
			
				<ellipse transform="matrix(0.5206 -0.8538 0.8538 0.5206 -10.5468 139.7661)" style="opacity:0.6;fill-rule:evenodd;clip-rule:evenodd;fill:#FFAD38;enable-background:new    ;" cx="119.187" cy="79.275" rx="1.857" ry="1.856"/>
			
				<ellipse transform="matrix(0.5206 -0.8538 0.8538 0.5206 -0.1532 133.2362)" style="opacity:0.6;fill-rule:evenodd;clip-rule:evenodd;fill:#FFAD38;enable-background:new    ;" cx="118.569" cy="66.755" rx="1.857" ry="1.856"/>
		</g>
	</g>
	<g style="opacity:0.35;">
		<g>
			
				<ellipse transform="matrix(0.5414 -0.8408 0.8408 0.5414 212.0612 616.8043)" style="opacity:0.6;fill-rule:evenodd;clip-rule:evenodd;fill:#FFAD38;enable-background:new    ;" cx="671.421" cy="114.017" rx="1.857" ry="1.856"/>
			
				<ellipse transform="matrix(0.5414 -0.8408 0.8408 0.5414 210.4773 610.003)" style="opacity:0.6;fill-rule:evenodd;clip-rule:evenodd;fill:#FFAD38;enable-background:new    ;" cx="664.395" cy="112.069" rx="1.857" ry="1.856"/>
			
				<ellipse transform="matrix(0.5414 -0.8408 0.8408 0.5414 216.079 610.8441)" style="opacity:0.6;fill-rule:evenodd;clip-rule:evenodd;fill:#FFAD38;enable-background:new    ;" cx="667.966" cy="107.354" rx="1.857" ry="1.856"/>
			
				<ellipse transform="matrix(0.5414 -0.8408 0.8408 0.5414 210.8105 595.4679)" style="opacity:0.6;fill-rule:evenodd;clip-rule:evenodd;fill:#FFAD38;enable-background:new    ;" cx="651.238" cy="104.496" rx="1.857" ry="1.856"/>
			
				<ellipse transform="matrix(0.5414 -0.8408 0.8408 0.5414 200.4175 601.4781)" style="opacity:0.6;fill-rule:evenodd;clip-rule:evenodd;fill:#FFAD38;enable-background:new    ;" cx="651.55" cy="117.027" rx="1.857" ry="1.856"/>
		</g>
	</g>
	<g style="opacity:0.35;">
		<g>
			
				<ellipse transform="matrix(0.9837 -0.1796 0.1796 0.9837 4.6535 58.8174)" style="opacity:0.6;fill-rule:evenodd;clip-rule:evenodd;fill:#FFAD38;enable-background:new    ;" cx="327.143" cy="3.71" rx="1.856" ry="1.857"/>
		</g>
	</g>
	<g style="opacity:0.35;">
		<g>
			
				<ellipse transform="matrix(0.8781 -0.4784 0.4784 0.8781 97.4659 556.5375)" style="opacity:0.6;fill-rule:evenodd;clip-rule:evenodd;fill:#FFAD38;enable-background:new    ;" cx="1141.137" cy="86.957" rx="1.856" ry="1.857"/>
			
				<ellipse transform="matrix(0.8781 -0.4784 0.4784 0.8781 94.344 554.7451)" style="opacity:0.6;fill-rule:evenodd;clip-rule:evenodd;fill:#FFAD38;enable-background:new    ;" cx="1136.058" cy="92.189" rx="1.856" ry="1.857"/>
			
				<ellipse transform="matrix(0.8781 -0.4784 0.4784 0.8781 96.6291 552.9277)" style="opacity:0.6;fill-rule:evenodd;clip-rule:evenodd;fill:#FFAD38;enable-background:new    ;" cx="1133.633" cy="86.795" rx="1.856" ry="1.857"/>
			
				<ellipse transform="matrix(0.8781 -0.4784 0.4784 0.8781 88.9781 549.514)" style="opacity:0.6;fill-rule:evenodd;clip-rule:evenodd;fill:#FFAD38;enable-background:new    ;" cx="1123.107" cy="100.106" rx="1.856" ry="1.857"/>
			
				<ellipse transform="matrix(0.8781 -0.4784 0.4784 0.8781 87.594 555.5457)" style="opacity:0.6;fill-rule:evenodd;clip-rule:evenodd;fill:#FFAD38;enable-background:new    ;" cx="1134.255" cy="105.838" rx="1.856" ry="1.857"/>
		</g>
	</g>
</g>
<g id="Details">
	<g>
		<path style="fill-rule:evenodd;clip-rule:evenodd;fill:#3EE1DE;" d="M783.956,17.141c-12.682,0-23-10.309-23-22.982
			c0-12.672,10.318-22.981,23-22.981h11.581c12.684,0,23.002,10.309,23.002,22.981c0,12.673-10.318,22.982-23.002,22.982H783.956z"
			/>
		<path style="fill-rule:evenodd;clip-rule:evenodd;fill:#00B465;" d="M795.545,2.453H783.95c-4.561,0-8.293-3.732-8.293-8.293l0,0
			c0-4.561,3.732-8.293,8.293-8.293h11.595c4.561,0,8.293,3.732,8.293,8.293l0,0C803.838-1.279,800.106,2.453,795.545,2.453z"/>
	</g>
	<g>
		<g>
			<g>
				<path style="fill-rule:evenodd;clip-rule:evenodd;fill:#8A8AB3;" d="M984.787,71.821l-3.768,6.583c0,0-8.78,0.324-12.022,0.443
					c-0.219,0.008-0.424-0.11-0.527-0.304c-0.103-0.194-0.085-0.43,0.045-0.607c0.724-0.985,1.836-2.499,2.482-3.377
					c0.328-0.447,0.821-0.745,1.369-0.829C975.303,73.278,984.787,71.821,984.787,71.821z"/>
				<path style="fill-rule:evenodd;clip-rule:evenodd;fill:#9595BA;" d="M979.393,57.751c0,0,7.886-2.545,10.951-3.534
					c0.168-0.054,0.351,0.006,0.454,0.149c0.103,0.143,0.102,0.336-0.002,0.478c-0.958,1.303-2.596,3.531-3.432,4.669
					c-1.109,1.509-0.892,3.614,0.501,4.865l0,0L979.393,57.751z"/>
				<g>
					<g>
						<defs>
							<path id="SVGID_1_" d="M979.328,62.472c0,0,2.62-7.862,3.639-10.917c0.056-0.167,0.213-0.279,0.389-0.278
								c0.176,0.002,0.331,0.117,0.384,0.285c0.483,1.544,1.308,4.183,1.729,5.531c0.559,1.787,2.384,2.859,4.217,2.478l0,0
								L979.328,62.472z"/>
						</defs>
						<clipPath id="SVGID_00000033341895196960917200000008394767519003833501_">
							<use xlink:href="#SVGID_1_"  style="overflow:visible;"/>
						</clipPath>
						
							<rect x="982.603" y="51.988" transform="matrix(0.5923 -0.8057 0.8057 0.5923 352.7468 817.4765)" style="clip-path:url(#SVGID_00000033341895196960917200000008394767519003833501_);fill-rule:evenodd;clip-rule:evenodd;fill:#8A8AB3;" width="2.981" height="16.427"/>
					</g>
				</g>
				<path style="fill-rule:evenodd;clip-rule:evenodd;fill:#8A8AB3;" d="M1005.806,87.593c0,0-0.035,2.731-0.059,4.627
					c-0.003,0.249,0.155,0.471,0.39,0.55s0.495-0.003,0.643-0.203c0.3-0.408,0.626-0.852,0.924-1.256
					c0.593-0.806,1.653-1.113,2.585-0.746l0,0L1005.806,87.593z"/>
				<path style="fill-rule:evenodd;clip-rule:evenodd;fill:#8A8AB3;" d="M1010.136,81.703c0,0,2.596-0.848,4.399-1.438
					c0.237-0.077,0.495,0.007,0.641,0.208s0.145,0.474-0.002,0.674c-0.344,0.467-0.723,0.983-1.06,1.442
					c-0.258,0.351-0.366,0.789-0.3,1.22c0.066,0.43,0.3,0.817,0.65,1.074l0,0L1010.136,81.703z"/>
				<path style="fill-rule:evenodd;clip-rule:evenodd;fill:#C6C6E3;" d="M1017.614,93.823l-53.668-41.604
					c0,0-0.506,0.689-1.017,1.384c-0.667,0.907-0.945,2.042-0.774,3.154c0.045,0.295,0.095,0.621,0.149,0.971
					c1.364,8.878,7.28,16.392,15.59,19.802C993.628,83.983,1017.614,93.823,1017.614,93.823z"/>
				<polygon style="fill-rule:evenodd;clip-rule:evenodd;fill:#F5F5F5;" points="964.47,57.47 964.255,54.002 967.844,56.639 				
					"/>
				<path style="fill-rule:evenodd;clip-rule:evenodd;fill:#9595BA;" d="M1020.686,89.643c0,0-24.89-20.082-29.201-23.559
					c-0.421-0.34-0.851-0.671-1.287-0.991c-3.425-2.517-19.397-14.257-26.628-19.572c-0.598-0.44-1.4-0.478-2.032-0.097
					c-0.632,0.381-0.969,1.105-0.854,1.836c0,0,0,0,0,0.001c0.536,3.406,2.402,6.47,5.19,8.519
					c13.179,9.687,51.746,38.035,51.746,38.035L1020.686,89.643z"/>
				<polygon style="fill-rule:evenodd;clip-rule:evenodd;fill:#280029;" points="964.291,47.634 964.303,47.643 964.314,47.653 
					964.325,47.662 964.336,47.672 964.347,47.682 964.357,47.693 964.367,47.703 964.377,47.714 964.387,47.725 964.396,47.737 
					964.406,47.748 964.415,47.76 964.423,47.772 964.432,47.784 964.44,47.796 964.448,47.809 964.455,47.821 964.462,47.834 
					964.469,47.847 964.476,47.86 964.482,47.873 964.489,47.887 964.494,47.9 964.5,47.914 964.505,47.928 964.51,47.942 
					964.514,47.956 964.518,47.97 964.522,47.984 964.526,47.999 964.529,48.013 964.532,48.027 964.534,48.042 964.537,48.056 
					964.539,48.071 964.54,48.086 964.541,48.1 964.542,48.115 964.543,48.13 964.543,48.144 964.543,48.159 964.542,48.174 
					964.542,48.189 964.541,48.203 964.539,48.218 964.537,48.233 964.535,48.247 964.533,48.262 964.53,48.276 964.527,48.291 
					964.523,48.305 964.52,48.319 964.516,48.333 964.511,48.347 964.506,48.361 964.501,48.375 964.496,48.389 964.49,48.402 
					964.484,48.416 964.478,48.429 964.472,48.442 964.465,48.455 964.458,48.468 964.45,48.481 964.442,48.493 964.434,48.506 
					964.426,48.518 964.417,48.53 964.409,48.542 964.399,48.553 964.39,48.565 964.38,48.576 964.37,48.587 964.36,48.597 
					964.35,48.608 964.339,48.618 964.328,48.628 964.317,48.638 964.306,48.647 964.295,48.656 964.283,48.665 964.271,48.674 
					964.259,48.682 964.247,48.691 964.234,48.698 964.222,48.706 964.209,48.713 964.196,48.72 964.183,48.727 964.169,48.733 
					964.156,48.739 964.142,48.745 964.129,48.75 964.115,48.756 964.101,48.76 964.087,48.765 964.073,48.769 964.059,48.773 
					964.044,48.777 964.03,48.78 964.016,48.783 964.001,48.785 963.986,48.787 963.972,48.789 963.957,48.791 963.943,48.792 
					963.928,48.793 963.913,48.794 963.898,48.794 963.884,48.794 963.869,48.793 963.854,48.792 963.84,48.791 963.825,48.79 
					963.81,48.788 963.796,48.786 963.781,48.783 963.767,48.781 963.752,48.778 963.738,48.774 963.724,48.77 963.71,48.766 
					963.695,48.762 963.682,48.757 963.668,48.752 963.654,48.747 963.64,48.741 963.627,48.735 963.614,48.729 963.6,48.722 
					963.587,48.715 963.575,48.708 963.562,48.701 963.549,48.693 963.537,48.685 963.525,48.677 963.513,48.668 962.829,48.166 
					962.817,48.157 962.806,48.148 962.794,48.138 962.783,48.129 962.772,48.119 962.762,48.108 962.751,48.098 962.741,48.087 
					962.731,48.077 962.721,48.066 962.712,48.054 962.703,48.043 962.694,48.031 962.685,48.019 962.677,48.007 962.669,47.995 
					962.661,47.982 962.653,47.97 962.646,47.957 962.639,47.944 962.632,47.931 962.626,47.917 962.62,47.904 962.614,47.891 
					962.609,47.877 962.604,47.863 962.599,47.849 962.594,47.835 962.59,47.821 962.586,47.807 962.583,47.792 962.579,47.778 
					962.576,47.764 962.574,47.749 962.572,47.735 962.57,47.72 962.568,47.705 962.567,47.691 962.566,47.676 962.566,47.661 
					962.565,47.647 962.565,47.632 962.566,47.617 962.567,47.602 962.568,47.588 962.569,47.573 962.571,47.558 962.573,47.544 
					962.576,47.529 962.578,47.515 962.582,47.5 962.585,47.486 962.589,47.472 962.593,47.458 962.597,47.444 962.602,47.43 
					962.607,47.416 962.612,47.402 962.618,47.389 962.624,47.375 962.63,47.362 962.637,47.349 962.644,47.336 962.651,47.323 
					962.658,47.31 962.666,47.298 962.674,47.285 962.682,47.273 962.691,47.261 962.7,47.249 962.709,47.238 962.718,47.226 
					962.728,47.215 962.738,47.204 962.748,47.194 962.758,47.183 962.769,47.173 962.78,47.163 962.791,47.153 962.802,47.144 
					962.814,47.135 962.825,47.126 962.837,47.117 962.849,47.109 962.862,47.1 962.874,47.093 962.887,47.085 962.9,47.078 
					962.913,47.071 962.926,47.064 962.939,47.058 962.952,47.052 962.966,47.046 962.98,47.04 962.993,47.035 963.007,47.031 
					963.021,47.026 963.036,47.022 963.05,47.018 963.064,47.014 963.078,47.011 963.093,47.008 963.107,47.006 963.122,47.004 
					963.137,47.002 963.151,47 963.166,46.999 963.181,46.998 963.195,46.997 963.21,46.997 963.225,46.997 963.24,46.998 
					963.254,46.999 963.269,47 963.284,47.001 963.298,47.003 963.313,47.005 963.327,47.007 963.342,47.01 963.356,47.013 
					963.37,47.017 963.385,47.021 963.399,47.025 963.413,47.029 963.427,47.034 963.441,47.039 963.454,47.044 963.468,47.05 
					963.481,47.056 963.495,47.062 963.508,47.069 963.521,47.076 963.534,47.083 963.547,47.09 963.559,47.098 963.571,47.106 
					963.584,47.114 963.596,47.123 964.279,47.625 				"/>
				<g>
					
						<line style="fill:none;stroke:#8A8AB3;stroke-width:2.0488;stroke-linecap:round;stroke-linejoin:round;stroke-miterlimit:10;" x1="978.478" y1="59.421" x2="977.232" y2="61.116"/>
					
						<line style="fill:none;stroke:#8A8AB3;stroke-width:2.0488;stroke-linecap:round;stroke-linejoin:round;stroke-miterlimit:10;" x1="981.826" y1="61.882" x2="980.58" y2="63.577"/>
					
						<line style="fill:none;stroke:#8A8AB3;stroke-width:2.0488;stroke-linecap:round;stroke-linejoin:round;stroke-miterlimit:10;" x1="985.174" y1="64.343" x2="983.928" y2="66.038"/>
				</g>
				<path style="fill-rule:evenodd;clip-rule:evenodd;fill:#9595BA;" d="M1018.949,88.366c0,0,8.648-1.438,12.9-2.213
					c0.269-0.049,0.537,0.09,0.652,0.337c0.115,0.248,0.049,0.542-0.161,0.716c-2.392,1.98-6.564,5.434-8.38,6.938
					c-0.582,0.482-1.037,1.1-1.323,1.8c-0.893,2.182-2.945,7.195-4.121,10.069c-0.103,0.253-0.365,0.404-0.635,0.368
					c-0.271-0.036-0.483-0.25-0.516-0.522c-0.529-4.29-1.481-13.323-1.481-13.323l1.087-2.359L1018.949,88.366z"/>
				<g>
					<g>
						<defs>
							<path id="SVGID_00000082349870473674738690000008786671015512539550_" d="M1009.218,89.299c0,0,3.963-7.82,5.857-11.706
								c0.12-0.246,0.391-0.379,0.658-0.326c0.268,0.054,0.466,0.282,0.482,0.554c0.179,3.1,0.491,8.508,0.627,10.862
								c0.044,0.754,0.272,1.487,0.667,2.132c1.229,2.012,4.053,6.635,5.673,9.285c0.143,0.233,0.109,0.533-0.08,0.73
								c-0.19,0.197-0.487,0.241-0.726,0.107c-3.77-2.115-11.613-6.698-11.613-6.698l-1.257-2.273L1009.218,89.299z"/>
						</defs>
						<clipPath id="SVGID_00000093168744392874847660000010282509820527704507_">
							<use xlink:href="#SVGID_00000082349870473674738690000008786671015512539550_"  style="overflow:visible;"/>
						</clipPath>
						
							<rect x="1009.746" y="85.178" transform="matrix(0.5923 -0.8057 0.8057 0.5923 334.5403 858.0469)" style="clip-path:url(#SVGID_00000093168744392874847660000010282509820527704507_);fill-rule:evenodd;clip-rule:evenodd;fill:#8A8AB3;" width="10.661" height="26.595"/>
					</g>
					<g>
						<defs>
							<path id="SVGID_00000142892660488157745320000005818331035271601563_" d="M1023.135,91.622c0,0,3.963-7.82,5.857-11.706
								c0.12-0.246,0.391-0.379,0.658-0.326c0.268,0.054,0.466,0.282,0.482,0.554c0.179,3.1,0.491,8.508,0.627,10.862
								c0.044,0.754,0.272,1.487,0.667,2.132c1.229,2.012,4.053,6.635,5.673,9.285c0.143,0.233,0.109,0.533-0.08,0.73
								c-0.19,0.197-0.488,0.241-0.726,0.107c-3.77-2.115-11.613-6.698-11.613-6.698l-1.257-2.273L1023.135,91.622z"/>
						</defs>
						<clipPath id="SVGID_00000178908604252204973950000015553299365858406787_">
							<use xlink:href="#SVGID_00000142892660488157745320000005818331035271601563_"  style="overflow:visible;"/>
						</clipPath>
						
							<rect x="1019.211" y="72.589" transform="matrix(0.5923 -0.8057 0.8057 0.5923 348.4573 860.3691)" style="clip-path:url(#SVGID_00000178908604252204973950000015553299365858406787_);fill-rule:evenodd;clip-rule:evenodd;fill:#8A8AB3;" width="10.237" height="26.595"/>
					</g>
				</g>
				<polygon style="fill-rule:evenodd;clip-rule:evenodd;fill:#F5F5F5;" points="969.502,60.651 969.359,58.339 971.751,60.097 				
					"/>
				<polygon style="fill-rule:evenodd;clip-rule:evenodd;fill:#F5F5F5;" points="967.109,58.892 966.966,56.58 969.359,58.339 				
					"/>
				<polygon style="fill-rule:evenodd;clip-rule:evenodd;fill:#F5F5F5;" points="971.894,62.41 971.751,60.097 974.144,61.856 				
					"/>
				<g>
					<path style="fill-rule:evenodd;clip-rule:evenodd;fill:#7C7CAA;" d="M973.26,55.498c0.09-0.123,0.128-0.277,0.105-0.428
						s-0.105-0.287-0.228-0.377c-1.212-0.891-4.463-3.281-5.675-4.172c-0.123-0.09-0.277-0.128-0.428-0.105
						s-0.287,0.105-0.377,0.228c-0.159,0.216-0.339,0.46-0.497,0.676c-0.09,0.123-0.128,0.277-0.105,0.428s0.105,0.287,0.228,0.377
						c1.212,0.891,4.463,3.281,5.676,4.172c0.123,0.09,0.277,0.128,0.428,0.105s0.287-0.105,0.377-0.228
						C972.922,55.958,973.102,55.713,973.26,55.498z"/>
					<path style="fill-rule:evenodd;clip-rule:evenodd;fill:#FFEC44;" d="M971.849,54.46c0.188-0.256,0.133-0.617-0.123-0.805
						c-0.785-0.577-2.298-1.689-3.082-2.266c-0.256-0.188-0.617-0.133-0.805,0.123c-0.225,0.306-0.567,0.771-0.792,1.077
						c-0.188,0.256-0.133,0.617,0.123,0.805c0.785,0.577,2.298,1.689,3.082,2.266c0.256,0.188,0.617,0.133,0.805-0.123
						C971.282,55.231,971.624,54.766,971.849,54.46z"/>
					<path style="fill-rule:evenodd;clip-rule:evenodd;fill:#280029;" d="M970.987,53.112l-1.604-1.179c0,0-0.695,0.945-1.13,1.538
						c-0.19,0.258-0.134,0.621,0.124,0.811c0.211,0.155,0.459,0.337,0.669,0.492c0.258,0.19,0.621,0.134,0.811-0.124
						C970.292,54.057,970.987,53.112,970.987,53.112z"/>
				</g>
				<path style="fill-rule:evenodd;clip-rule:evenodd;fill:#C6C6E3;" d="M986.177,72.842l-5.158,5.561c0,0,2.312,8.477,3.165,11.606
					c0.058,0.212,0.232,0.372,0.447,0.412c0.216,0.04,0.436-0.047,0.566-0.224c0.724-0.985,1.837-2.499,2.482-3.377
					c0.328-0.447,0.466-1.006,0.383-1.554C987.617,82.33,986.177,72.842,986.177,72.842z"/>
			</g>
			<path style="fill:#04D5D8;" d="M1001.827,72.901h-17.542c-2.407,0-4.716-0.956-6.418-2.658l0,0
				c-1.702-1.702-4.011-2.658-6.418-2.658h-12.174l6.272,15.417l19.341,12.505l32.513,15.264l16.753-14.065l3.351-14.628
				L1001.827,72.901z"/>
		</g>
		<path style="fill:#D1F2F1;" d="M1002.888,70.754c-0.413,0.516-2.386,1.067-2.386,1.067s0.105-2.046,0.518-2.562
			s1.166-0.599,1.682-0.186C1003.218,69.485,1003.301,70.238,1002.888,70.754z"/>
		<path style="fill:#D1F2F1;" d="M997.808,68.357c0.023,0.515,1.014,1.768,1.014,1.768s0.873-1.337,0.85-1.852
			s-0.459-0.913-0.974-0.89S997.784,67.843,997.808,68.357z"/>
		<path style="fill:#D1F2F1;" d="M962.57,67.784c0.609,0.257,2.606-0.2,2.606-0.2s-1.067-1.749-1.676-2.005
			c-0.609-0.257-1.311,0.029-1.567,0.638C961.676,66.826,961.961,67.527,962.57,67.784z"/>
		<path style="fill:#D1F2F1;" d="M967.507,65.167c-0.063,0.511-1.149,1.683-1.149,1.683s-0.766-1.401-0.703-1.913
			c0.063-0.511,0.529-0.874,1.041-0.811C967.207,64.19,967.57,64.656,967.507,65.167z"/>
	</g>
	<g>
		<rect x="1295.087" y="45.394" style="fill-rule:evenodd;clip-rule:evenodd;fill:#DF575E;" width="64.135" height="31.439"/>
		<rect x="1325.268" y="59.227" style="fill-rule:evenodd;clip-rule:evenodd;fill:#1FD2F1;" width="5.03" height="5.03"/>
		<rect x="1325.268" y="59.227" style="fill-rule:evenodd;clip-rule:evenodd;fill:#17B3AB;" width="5.03" height="3.773"/>
		<rect x="1318.98" y="69.288" style="fill-rule:evenodd;clip-rule:evenodd;fill:#EE8C8D;" width="5.03" height="5.03"/>
		<rect x="1318.98" y="69.288" style="fill-rule:evenodd;clip-rule:evenodd;fill:#FFB1B5;" width="5.03" height="2.515"/>
		<rect x="1317.722" y="51.682" style="fill-rule:evenodd;clip-rule:evenodd;fill:#F1841F;" width="5.03" height="5.03"/>
		<rect x="1317.722" y="51.682" style="fill-rule:evenodd;clip-rule:evenodd;fill:#F1AB1F;" width="5.03" height="3.773"/>
		<path style="fill-rule:evenodd;clip-rule:evenodd;fill:#092220;" d="M1337.843,44.377c0-1.521,1.235-2.755,2.755-2.755h9.58
			c1.52,0,2.755,1.235,2.755,2.755v5.808c0,1.521-1.235,2.755-2.755,2.755h-9.58c-1.52,0-2.755-1.235-2.755-2.755V44.377z"/>
		<rect x="1342.873" y="52.94" style="fill-rule:evenodd;clip-rule:evenodd;fill:#E09E0F;" width="3.727" height="1.258"/>
		<path style="fill-rule:evenodd;clip-rule:evenodd;fill:#FBE62E;" d="M1337.843,46.28c0-1.183,0.961-2.143,2.143-2.143h4.517
			c1.182,0,2.143,0.96,2.143,2.143v4.517c0,1.183-0.961,2.143-2.143,2.143h-4.517c-1.182,0-2.143-0.96-2.143-2.143V46.28z"/>
		<path style="fill-rule:evenodd;clip-rule:evenodd;fill:#092220;" d="M1345.388,41.622c0,0-3.233,0-5.781,0
			c-1.669,0-3.022,1.353-3.022,3.022c0,1.068,0,2.008,0,2.008h8.803V41.622z"/>
		<path style="fill-rule:evenodd;clip-rule:evenodd;fill:#092220;" d="M1352.934,44.137h-8.803v10.06c0,0,3.795,0,6.402,0
			c1.325,0,2.401-1.075,2.401-2.401C1352.934,48.821,1352.934,44.137,1352.934,44.137z"/>
		<path style="fill-rule:evenodd;clip-rule:evenodd;fill:#E0CF0F;" d="M1345.084,56.373c0.238-0.238,0.371-0.562,0.37-0.9
			c-0.001-0.337-0.138-0.66-0.379-0.896c0,0,0-0.001-0.001-0.001c-0.507-0.498-1.32-0.494-1.822,0.009
			c-1.704,1.704-5.363,5.362-7.064,7.064c-0.24,0.24-0.375,0.565-0.375,0.904s0.135,0.664,0.375,0.904c0,0.001,0,0.001,0.001,0.001
			c0.499,0.499,1.309,0.499,1.808,0C1339.704,61.752,1343.379,58.077,1345.084,56.373z"/>
		<g>
			<path style="fill:#1E3272;" d="M1348.494,61.114c-1.343,0-2.492-0.96-2.725-2.283c-0.242-1.371-0.553-3.133-0.817-4.634
				c-0.629,0-1.232,0-1.702,0c-0.236,0-0.459,0.104-0.611,0.285c-0.151,0.18-0.215,0.419-0.173,0.651
				c0.44,2.496,1.61,9.125,1.61,9.125h6.344c0,0-0.246-1.396-0.555-3.144C1349.865,61.114,1348.494,61.114,1348.494,61.114z"/>
			<path style="fill:#FBE62E;" d="M1348.489,61.114h1.375c-0.238-1.351-0.514-2.912-0.743-4.209
				c-0.277-1.569-1.639-2.707-3.233-2.707h-0.938c0.265,1.502,0.576,3.265,0.818,4.637
				C1346.002,60.155,1347.148,61.114,1348.489,61.114z"/>
		</g>
		<rect x="1342.956" y="64.258" style="fill-rule:evenodd;clip-rule:evenodd;fill:#1E3272;" width="7.462" height="2.515"/>
		<path style="fill-rule:evenodd;clip-rule:evenodd;fill:#FBE62E;" d="M1342.956,64.258c0,0-1.259,0-2.518,0
			c-1.388,0-2.513,1.125-2.513,2.513c0,0.001,0,0.002,0,0.003c0,1.389,1.125,2.515,2.515,2.515c1.257,0,2.515,0,2.515,0
			L1342.956,64.258L1342.956,64.258z"/>
		<rect x="1341.699" y="66.773" style="fill-rule:evenodd;clip-rule:evenodd;fill:#FBE62E;" width="8.803" height="2.515"/>
		<path style="fill-rule:evenodd;clip-rule:evenodd;fill:#092220;" d="M1352.988,71.803
			C1352.988,71.803,1352.988,71.803,1352.988,71.803c-1.373,0-2.486-1.113-2.486-2.485c0-1.267,0-2.545,0-2.545h2.486V71.803z"/>
		<path style="fill-rule:evenodd;clip-rule:evenodd;fill:#081C1C;" d="M1340.452,48.071c0-0.115,0.093-0.208,0.209-0.208h0.83
			c0.114,0,0.207,0.093,0.207,0.208v2.145c0,0.115-0.093,0.208-0.207,0.208h-0.83c-0.116,0-0.209-0.093-0.209-0.208V48.071z"/>
		<path style="fill-rule:evenodd;clip-rule:evenodd;fill:#FBE62E;" d="M1344.309,46.652c-1.29,0-2.338,1.047-2.338,2.337
			c0,1.29,1.047,2.337,2.338,2.337c1.289,0,2.337-1.047,2.337-2.337S1345.598,46.652,1344.309,46.652z"/>
		<path style="fill-rule:evenodd;clip-rule:evenodd;fill:#FBE62E;" d="M1345.128,56.373c0.239-0.238,0.372-0.562,0.371-0.9
			c-0.003-0.337-0.138-0.66-0.379-0.896c-0.001,0-0.001-0.001-0.001-0.001c-0.507-0.498-1.32-0.494-1.823,0.009
			c-1.704,1.704-5.362,5.362-7.064,7.064c-0.24,0.24-0.375,0.565-0.375,0.904s0.135,0.664,0.375,0.904
			c0,0.001,0.001,0.001,0.001,0.001c0.499,0.499,1.309,0.499,1.808,0C1339.748,61.752,1343.424,58.077,1345.128,56.373z"/>
		<path style="fill-rule:evenodd;clip-rule:evenodd;fill:#0FA5E0;" d="M1315.207,46.28c0-1.183-0.961-2.143-2.143-2.143h-7.032
			c-1.182,0-2.143,0.96-2.143,2.143v4.517c0,1.183,0.961,2.143,2.143,2.143h7.032c1.182,0,2.143-0.96,2.143-2.143V46.28z"/>
		<path style="fill-rule:evenodd;clip-rule:evenodd;fill:#092220;" d="M1301.374,46.652c0,0,7.663,0,12.069,0
			c0.801,0,1.569-0.318,2.137-0.885c0.567-0.567,0.885-1.336,0.885-2.137c0-1.068,0-2.008,0-2.008s-7.264,0-11.713,0
			c-0.895,0-1.754,0.356-2.388,0.989c-0.634,0.633-0.99,1.493-0.99,2.389C1301.374,45.912,1301.374,46.652,1301.374,46.652z"/>
		<path style="fill-rule:evenodd;clip-rule:evenodd;fill:#092220;" d="M1301.374,48.268c0,2.58,2.091,4.672,4.672,4.672
			c0.197,0,0.313,0,0.313,0V41.622c0,0-0.91,0-1.953,0c-1.674,0-3.032,1.358-3.032,3.032
			C1301.374,45.764,1301.374,47.048,1301.374,48.268z"/>
		<rect x="1306.404" y="52.94" style="fill-rule:evenodd;clip-rule:evenodd;fill:#0D81A7;" width="3.773" height="1.258"/>
		<path style="fill-rule:evenodd;clip-rule:evenodd;fill:#FFFFFF;" d="M1311.435,54.994c0-0.211-0.084-0.414-0.234-0.564
			c-0.148-0.149-0.352-0.233-0.563-0.233c-1.012,0-2.782,0-4.051,0c-0.397,0-0.777,0.158-1.058,0.438
			c-0.282,0.281-0.439,0.661-0.439,1.058c0,2.803,0,8.564,0,8.564h6.344C1311.435,64.258,1311.435,57.373,1311.435,54.994z"/>
		<rect x="1305.144" y="64.258" style="fill-rule:evenodd;clip-rule:evenodd;fill:#1E6572;" width="7.574" height="2.515"/>
		<path style="fill-rule:evenodd;clip-rule:evenodd;fill:#0FA5E0;" d="M1312.664,64.258c0,0,1.259,0,2.518,0
			c1.387,0,2.511,1.125,2.513,2.513c0,0.001,0,0.002,0,0.003c0,1.389-1.127,2.515-2.515,2.515c-1.258,0-2.515,0-2.515,0
			L1312.664,64.258L1312.664,64.258z"/>
		<rect x="1305.119" y="66.773" style="fill-rule:evenodd;clip-rule:evenodd;fill:#0FA5E0;" width="8.803" height="2.515"/>
		<path style="fill-rule:evenodd;clip-rule:evenodd;fill:#092220;" d="M1302.632,71.803c0,0,0.001,0,0.002,0
			c1.372,0,2.485-1.113,2.485-2.485c0-1.267,0-2.545,0-2.545h-2.487L1302.632,71.803L1302.632,71.803z"/>
		<path style="fill-rule:evenodd;clip-rule:evenodd;fill:#081C1C;" d="M1312.681,48.071c0-0.115-0.093-0.208-0.209-0.208h-0.83
			c-0.114,0-0.208,0.093-0.208,0.208v2.145c0,0.115,0.093,0.208,0.208,0.208h0.83c0.116,0,0.209-0.093,0.209-0.208V48.071z"/>
		<path style="fill-rule:evenodd;clip-rule:evenodd;fill:#0FA5E0;" d="M1306.226,46.652c1.29,0,2.338,1.047,2.338,2.337
			c0,1.29-1.047,2.337-2.338,2.337c-1.289,0-2.337-1.047-2.337-2.337C1303.889,47.699,1304.937,46.652,1306.226,46.652z"/>
		<path style="fill-rule:evenodd;clip-rule:evenodd;fill:#0FA5E0;" d="M1306.359,55.483c0-0.34,0.136-0.667,0.377-0.906
			c0.241-0.24,0.568-0.373,0.909-0.371c0,0,0,0,0.001,0c0.704,0.005,1.273,0.577,1.273,1.281c0,1.665,0,4.566,0,6.234
			c0,0.706-0.572,1.279-1.279,1.279c-0.001,0-0.001,0-0.003,0c-0.338,0-0.664-0.135-0.904-0.375
			c-0.239-0.24-0.375-0.565-0.375-0.904C1306.359,60.054,1306.359,57.154,1306.359,55.483z"/>
		<path style="fill-rule:evenodd;clip-rule:evenodd;fill:#0FA5E0;" d="M1307.646,63c-0.341,0-0.667-0.136-0.907-0.377
			c-0.239-0.241-0.373-0.569-0.371-0.909c0,0,0,0,0-0.001c0.005-0.704,0.577-1.273,1.281-1.273c1.665,0,4.566,0,6.234,0
			c0.707,0,1.279,0.573,1.279,1.279c0,0.001,0,0.001,0,0.002c0,0.339-0.135,0.664-0.374,0.904c-0.24,0.24-0.566,0.375-0.905,0.375
			C1312.217,63,1309.317,63,1307.646,63z"/>
	</g>
	<g>
		<rect x="1220.946" y="51.454" style="fill:#FFB1B5;" width="42.777" height="16.707"/>
		<g>
			<g>
				<path style="fill:#F19322;" d="M2692.094-6503.4c0.676,1.7,2.324,2.812,4.155,2.812c3.523,0,9.305,0,12.828,0
					c1.831,0,3.472-1.112,4.155-2.812c1.685-4.22,4.685-11.717,4.685-11.717h-30.509
					C2687.408-6515.117,2690.401-6507.62,2692.094-6503.4z"/>
				<g transform="matrix(0.520016,0,0,0.577795,-117.755,3807.38)">
					<path style="fill:#F19322;" d="M5423.508-17881.041c-8.248,0.139-15.703,6.461-15.866,14.281v5.52h6.99
						c0-4.715-0.075-10.008,4.514-12.41c5.393-2.828,13.603,0.768,13.64,7.078v5.332h6.99c0-3.521,0.314-7.041-0.942-10.221
						C5436.583-17877.119,5430.648-17881.08,5423.508-17881.041z"/>
				</g>
			</g>
		</g>
		<g transform="matrix(0.635773,0,0,0.635773,-13.0585,1884.8)">
			<g transform="matrix(0.959188,0,0,0.940319,-603.651,2939.9)">
				<rect x="2678.085" y="-6204.416" style="fill:#0D81A7;" width="8.901" height="9.262"/>
			</g>
			<g transform="matrix(0.940319,0,0,0.940319,-543.671,2938.72)">
				<path style="fill:#071C1C;" d="M2671.485-6218.382c0-1.068,0.429-2.092,1.184-2.848c0.755-0.755,1.787-1.184,2.855-1.184l0,0
					c1.075,0,2.099,0.429,2.854,1.184c0.756,0.756,1.184,1.78,1.184,2.848c0,5.651,0,15.218,0,15.218h-8.078
					C2671.485-6203.165,2671.485-6212.731,2671.485-6218.382z"/>
			</g>
			<g transform="matrix(1.38372,0,-0.142946,1.25792,-3267.26,2265.1)">
				<path style="fill:#0D81A7;" d="M3365.226-4096.531c0,0,0.908,0,1.823,0c1.031,0,1.984,0.85,2.217,1.976
					c0.884,4.279,2.893,14.005,2.893,14.005h-3.632L3365.226-4096.531z"/>
			</g>
			<g transform="matrix(0.943443,0,0,0.922478,-1710.19,3132.4)">
				<rect x="3908.621" y="-6506.719" style="fill:#0D81A7;" width="7.99" height="2.179"/>
			</g>
			<g transform="matrix(1.38372,0,0,1.38372,-3634.4,1943.32)">
				<path style="fill:#0FA5E0;" d="M4037.762-3487.91c-0.494,0-0.958-0.24-1.249-0.639c-0.291-0.4-0.371-0.915-0.218-1.38
					c0.836-2.594,2.259-7.01,2.942-9.146c0.24-0.726,0.915-1.213,1.685-1.206c0.014,0,0.022,0,0.037,0
					c0.566,0,1.089,0.283,1.416,0.741c0.32,0.458,0.407,1.046,0.218,1.577c-0.901,2.586-2.23,6.421-2.23,6.421h6.901v3.632
					C4047.264-3487.91,4041.118-3487.91,4037.762-3487.91z"/>
			</g>
			<g transform="matrix(0.492694,0,0,0.63132,1578.38,2175.34)">
				<path style="fill:#0FA5E0;" d="M771.855-8040.272c0-3.007,3.131-5.448,6.98-5.448h29.623c3.85,0,6.98,2.44,6.98,5.448v10.896
					c0,3.007-3.131,5.448-6.98,5.448h-29.623c-3.85,0-6.98-2.441-6.98-5.448V-8040.272z"/>
			</g>
			<g transform="matrix(0.940319,0,0,0.940319,-1998,2737.96)">
				<path style="fill:#071C1C;" d="M4223.388-5993.383c0-0.356,0.283-0.639,0.632-0.639h1.271c0.355,0,0.639,0.283,0.639,0.639v4.17
					c0,0.356-0.284,0.64-0.639,0.64h-1.271c-0.349,0-0.632-0.284-0.632-0.64V-5993.383z"/>
			</g>
			<g transform="matrix(0.940319,0,0,0.940319,-1982.96,2737.96)">
				<path style="fill:#071C1C;" d="M4195.775-5993.383c0-0.356,0.283-0.639,0.631-0.639h1.271c0.355,0,0.639,0.283,0.639,0.639v4.17
					c0,0.356-0.284,0.64-0.639,0.64h-1.271c-0.348,0-0.631-0.284-0.631-0.64V-5993.383z"/>
			</g>
			<g transform="matrix(1.05594,0,0,1.05594,-2823.2,2653.67)">
				<path style="fill:#0FA5E0;" d="M4549.369-5259.946c-1.806,0-3.269,1.463-3.269,3.269s1.463,3.269,3.269,3.269
					c1.805,0,3.269-1.463,3.269-3.269C4552.637-5258.483,4551.174-5259.946,4549.369-5259.946z"/>
			</g>
			<g transform="matrix(1.10037,0,0,1.03779,-2338.84,2638.69)">
				<path style="fill:#071C1C;" d="M3909.073-5343.32c0,0,9.596,0,14.397,0c1.474,0,2.673,1.264,2.673,2.833
					c0,1.475,0,2.978,0,2.978s-9.225,0-14.107,0c-0.792,0-1.54-0.327-2.099-0.922c-0.552-0.588-0.865-1.387-0.865-2.216
					C3909.073-5342.021,3909.073-5343.32,3909.073-5343.32z"/>
			</g>
			<g transform="matrix(0.908807,0,0,1.36321,-444.597,1806.65)">
				<rect x="2646.073" y="-3457.432" style="fill:#071C1C;" width="7.904" height="2.179"/>
			</g>
			<g transform="matrix(-0.320108,0,0,1.03779,3817.67,2638.69)">
				<path style="fill:#071C1C;" d="M5795.216-5343.32c0,0,3.843,0,7.889,0c2.434,0,4.772,0.298,6.494,0.828
					c1.722,0.53,2.688,1.257,2.688,2.005c0,1.475,0,2.978,0,2.978s-3.239,0-6.893,0c-5.623,0-10.178-1.401-10.178-3.139
					C5795.216-5342.021,5795.216-5343.32,5795.216-5343.32z"/>
			</g>
			<g transform="matrix(0.437468,0,0,0.991553,1670.76,322.83)">
				<path style="fill:#DF575E;" d="M668.053-3238.182h29.238c0,0,2.346,13.606,3.334,19.315c0.108,0.639-0.393,1.271-1.373,1.736
					c-0.987,0.472-2.375,0.741-3.828,0.741c-6.915,0-18.588,0-25.503,0c-1.453,0-2.841-0.269-3.829-0.741
					c-0.987-0.465-1.482-1.097-1.373-1.736C665.707-3224.576,668.053-3238.182,668.053-3238.182z"/>
			</g>
			<g transform="matrix(0.940319,0,0,-0.940319,-547.558,8033.25)">
				<path style="fill:#0FA5E0;" d="M2672.171,11614.411c0-2.506,2.034-4.54,4.54-4.54s4.54,2.034,4.54,4.54H2672.171z"/>
			</g>
			<g transform="matrix(0.0978435,-0.0978435,0.553026,0.553026,-620.391,2796.45)">
				<path style="fill:#0FA5E0;" d="M42159.246-2788.496c10.84,0,19.586,1.55,19.586,3.462c0,0.261,0,0.525,0,0.787
					c-0.004,1.912-8.746,3.462-19.586,3.463c-24.516,0-63.391,0-63.391,0l-0.453,13.346l-39.742-0.059c0,0-0.004-8.521,0-14.707
					c-0.004-1.667,3.734-3.268,10.426-4.448c6.652-1.179,15.684-1.843,25.129-1.843
					C42113.387-2788.496,42141.02-2788.496,42159.246-2788.496z"/>
			</g>
			<g transform="matrix(1.33657,-0.358132,0.369319,1.37832,-4373.32,3542.6)">
				<path style="fill:#0FA5E0;" d="M5620.687-3180.132l2.202,1.233l-3.184,5.347c0,0-0.125-0.07-0.308-0.172
					c-0.503-0.282-0.865-0.745-1.018-1.292c-0.15-0.537-0.071-1.121,0.218-1.606
					C5619.518-3178.169,5620.687-3180.132,5620.687-3180.132z"/>
			</g>
			<g transform="matrix(0.0978435,-0.0978435,0.553026,0.553026,-633.555,2796.45)">
				<path style="fill:#0FA5E0;" d="M42275.383-2767.949c10.84,0,19.586,1.55,19.586,3.462c0,0.261,0,0.525,0,0.787
					c0,1.913-8.746,3.462-19.586,3.463c-24.512,0-63.391-0.001-63.391-0.001l-0.453,13.345l-39.742-0.059c0,0,0-8.521,0-14.707
					c-0.004-1.667,3.734-3.268,10.43-4.448c6.648-1.18,15.68-1.843,25.125-1.843
					C42229.523-2767.949,42257.156-2767.949,42275.383-2767.949z"/>
			</g>
			<g transform="matrix(1.33657,-0.358132,0.369319,1.37832,-4386.48,3542.6)">
				<path style="fill:#0FA5E0;" d="M5636.546-3176.011l2.202,1.233l-3.184,5.347c0,0-0.125-0.07-0.308-0.172
					c-0.503-0.282-0.865-0.745-1.018-1.292c-0.15-0.537-0.07-1.121,0.218-1.606
					C5635.377-3174.049,5636.546-3176.011,5636.546-3176.011z"/>
			</g>
		</g>
	</g>
	<g>
		<path style="fill:#FFFFFF;" d="M682.333,141.265c0.07-0.023,0.074-0.016,0.143-0.037c0.148-0.032,0.244-0.007,0.413,0.002
			c0.533,0.068,1.076,0.442,1.485,1.009c0.131,0.084,0.202,0.205,0.271,0.325c0.034,0.06,0.07,0.121,0.108,0.188l24.284,42.062
			l-3.535-0.012l-23.396-40.521c-0.038-0.067-0.074-0.128-0.108-0.188c-0.105-0.181-0.213-0.368-0.253-0.577
			c-0.246-0.715-0.233-1.402,0.082-1.851c0.092-0.125,0.134-0.194,0.254-0.272c0.059-0.034,0.123-0.071,0.123-0.071
			C682.271,141.294,682.274,141.301,682.333,141.265z"/>
		<path style="fill:#5A93F2;" d="M715.158,144.658c-7.434-12.878-23.894-17.289-36.773-9.853
			c-12.877,7.435-17.287,23.896-9.853,36.774L715.158,144.658z"/>
	</g>
	<g>
		<g>
			<path style="fill:#1BAF10;" d="M551.001,7.495c-0.87,0-1.575-0.706-1.575-1.579V0.973c0-0.873,0.705-1.579,1.575-1.579
				s1.575,0.706,1.575,1.579v4.944C552.577,6.789,551.871,7.495,551.001,7.495z"/>
		</g>
		<g>
			<path style="fill:#1BAF10;" d="M557.578,7.495c-0.87,0-1.575-0.706-1.575-1.579V2.62c0-0.873,0.705-1.579,1.575-1.579
				s1.575,0.706,1.575,1.579v3.297C559.154,6.789,558.448,7.495,557.578,7.495z"/>
		</g>
		<g>
			<path style="fill:#1BAF10;" d="M544.973,7.495c-0.87,0-1.575-0.706-1.575-1.579V2.62c0-0.873,0.705-1.579,1.575-1.579
				s1.575,0.706,1.575,1.579v3.297C546.548,6.789,545.843,7.495,544.973,7.495z"/>
		</g>
	</g>
	<g>
		<g>
			<path style="fill:#1BAF10;" d="M493.763,92.262c0.87,0,1.575-0.706,1.575-1.579v-4.944c0-0.873-0.705-1.579-1.575-1.579
				s-1.575,0.706-1.575,1.579v4.944C492.188,91.556,492.893,92.262,493.763,92.262z"/>
		</g>
		<g>
			<path style="fill:#1BAF10;" d="M487.186,92.262c0.87,0,1.575-0.706,1.575-1.579v-3.295c0-0.873-0.705-1.579-1.575-1.579
				c-0.87,0-1.575,0.706-1.575,1.579v3.295C485.611,91.556,486.316,92.262,487.186,92.262z"/>
		</g>
		<g>
			<path style="fill:#1BAF10;" d="M499.792,92.262c0.87,0,1.575-0.706,1.575-1.579v-3.295c0-0.873-0.705-1.579-1.575-1.579
				c-0.87,0-1.575,0.706-1.575,1.579v3.295C498.217,91.556,498.922,92.262,499.792,92.262z"/>
		</g>
		<g>
			<path style="fill:#1BAF10;" d="M476.018,105.31c0.87,0,1.575-0.706,1.575-1.579v-4.944c0-0.873-0.705-1.579-1.575-1.579
				c-0.87,0-1.575,0.706-1.575,1.579v4.944C474.442,104.604,475.148,105.31,476.018,105.31z"/>
		</g>
		<g>
			<path style="fill:#1BAF10;" d="M469.441,105.31c0.87,0,1.575-0.706,1.575-1.579v-3.297c0-0.873-0.705-1.579-1.575-1.579
				c-0.87,0-1.575,0.706-1.575,1.579v3.297C467.865,104.604,468.571,105.31,469.441,105.31z"/>
		</g>
		<g>
			<path style="fill:#1BAF10;" d="M482.046,105.31c0.87,0,1.575-0.706,1.575-1.579v-3.297c0-0.873-0.705-1.579-1.575-1.579
				c-0.87,0-1.575,0.706-1.575,1.579v3.297C480.471,104.604,481.176,105.31,482.046,105.31z"/>
		</g>
		<g>
			<path style="fill:#1BAF10;" d="M469.921,77.978c0.87,0,1.575-0.706,1.575-1.579v-4.944c0-0.873-0.705-1.579-1.575-1.579
				c-0.87,0-1.575,0.706-1.575,1.579v4.944C468.346,77.272,469.051,77.978,469.921,77.978z"/>
		</g>
		<g>
			<path style="fill:#1BAF10;" d="M463.344,77.978c0.87,0,1.575-0.706,1.575-1.579v-3.297c0-0.873-0.705-1.579-1.575-1.579
				c-0.87,0-1.575,0.706-1.575,1.579v3.297C461.768,77.272,462.474,77.978,463.344,77.978z"/>
		</g>
		<g>
			<path style="fill:#1BAF10;" d="M475.95,77.978c0.87,0,1.575-0.706,1.575-1.579v-3.297c0-0.873-0.705-1.579-1.575-1.579
				c-0.87,0-1.575,0.706-1.575,1.579v3.297C474.374,77.272,475.08,77.978,475.95,77.978z"/>
		</g>
	</g>
	<g>
		<g>
			<path style="fill:#1BAF10;" d="M323.995,149.668c0.87,0,1.575-0.706,1.575-1.579v-4.944c0-0.873-0.705-1.579-1.575-1.579
				c-0.87,0-1.575,0.706-1.575,1.579v4.944C322.42,148.962,323.125,149.668,323.995,149.668z"/>
		</g>
		<g>
			<path style="fill:#1BAF10;" d="M317.418,149.668c0.87,0,1.575-0.706,1.575-1.579v-3.295c0-0.873-0.705-1.579-1.575-1.579
				c-0.87,0-1.575,0.706-1.575,1.579v3.295C315.843,148.962,316.548,149.668,317.418,149.668z"/>
		</g>
		<g>
			<path style="fill:#1BAF10;" d="M330.024,149.668c0.87,0,1.575-0.706,1.575-1.579v-3.295c0-0.873-0.705-1.579-1.575-1.579
				c-0.87,0-1.575,0.706-1.575,1.579v3.295C328.449,148.962,329.154,149.668,330.024,149.668z"/>
		</g>
		<g>
			<path style="fill:#1BAF10;" d="M300.153,135.385c0.87,0,1.575-0.706,1.575-1.579v-4.944c0-0.873-0.705-1.579-1.575-1.579
				c-0.87,0-1.575,0.706-1.575,1.579v4.944C298.578,134.679,299.283,135.385,300.153,135.385z"/>
		</g>
		<g>
			<path style="fill:#1BAF10;" d="M293.575,135.385c0.87,0,1.575-0.706,1.575-1.579v-3.297c0-0.873-0.705-1.579-1.575-1.579
				c-0.87,0-1.575,0.706-1.575,1.579v3.297C292,134.679,292.705,135.385,293.575,135.385z"/>
		</g>
		<g>
			<path style="fill:#1BAF10;" d="M306.182,135.385c0.87,0,1.575-0.706,1.575-1.579v-3.297c0-0.873-0.705-1.579-1.575-1.579
				c-0.87,0-1.575,0.706-1.575,1.579v3.297C304.606,134.679,305.312,135.385,306.182,135.385z"/>
		</g>
	</g>
</g>
<g id="aulas" style="display:none;">
	<g style="display:inline;">
		<rect x="368.174" y="0" style="fill-rule:evenodd;clip-rule:evenodd;fill:#FFFFFF;" width="33.652" height="145"/>
		<circle style="fill-rule:evenodd;clip-rule:evenodd;fill:#5654A2;" cx="385" cy="72.5" r="42.5"/>
	</g>
</g>
</svg>
