<?xml version="1.0" encoding="utf-8"?>
<!-- Generator: Adobe Illustrator 27.7.0, SVG Export Plug-In . SVG Version: 6.00 Build 0)  -->
<svg version="1.1" xmlns="http://www.w3.org/2000/svg" xmlns:xlink="http://www.w3.org/1999/xlink" x="0px" y="0px" width="1500px"
	 height="145px" viewBox="0 0 1500 145" style="enable-background:new 0 0 1500 145;" xml:space="preserve">
<g id="background">
	<rect x="-80.448" y="-3026.348" style="fill:#04D5D8;" width="1640.647" height="4034.435"/>
	<path style="fill:#3EE1DE;" d="M1587.821,8.139h-354.039c-28.645,0-56.114,11.373-76.373,31.623
		c-40.171,40.155-87.422,87.383-101.797,101.742c-8.341,8.332-22.399,5.974-27.574-4.619l-0.147-0.3
		c-9.094-18.62-28.005-30.43-48.728-30.43h-63.402c-14.499,0-28.138,5.644-38.406,15.895
		c-10.271,10.257-15.927,23.889-15.927,38.387v45.11c0,14.072,5.464,27.595,15.24,37.717l0.745,0.771
		c4.257,4.408,4.194,11.558-0.141,15.889l-61.406,61.355c-19.16,19.144-29.925,45.117-29.925,72.202v13.449
		c0,27.07,10.753,53.03,29.894,72.171l47.302,47.302c3.329,3.329,2.977,8.857-0.794,11.677c-2.737,2.046-5.346,4.3-7.807,6.758
		l-34.281,34.254c-0.787,0.786-1.546,1.59-2.279,2.409c-3.438,3.846-9.583,3.298-12.367-1.045c-1.811-2.825-3.939-5.475-6.369-7.906
		l-71.91-71.909c-8.867-8.87-20.659-13.755-33.204-13.755h-14.258l-2.01-2.011c-8.8-8.805-20.738-13.752-33.187-13.752H534.364
		c-12.331,0-23.981,4.745-32.803,13.359l-43.763,42.735c-8.992,8.781-14.15,21.025-14.15,33.593v31.879
		c0,12.453,4.947,24.397,13.753,33.202l41.563,41.562c8.805,8.804,20.746,13.751,33.198,13.751h53.144
		c12.542,0,24.333-4.884,33.201-13.751l6.638-6.639c2.313,5.218,5.594,10.017,9.751,14.175l24.334,24.334
		c8.869,8.867,20.659,13.751,33.201,13.751h32.001c12.542,0,24.333-4.884,33.201-13.751l41.608-41.609
		c0.866-0.866,1.693-1.76,2.482-2.68c3.284-3.833,9.283-3.717,12.217,0.39c1.93,2.701,4.115,5.274,6.556,7.687
		c6.829,6.748,16.077,10.487,25.678,10.487h5.739c6.285,11.166,18.26,18.725,31.969,18.725h24.582
		c19.259,0,37.364-7.494,50.981-21.099l0.821-0.819c13.617-13.607,21.117-31.698,21.117-50.94v-1.345
		c0-4.292,3.479-7.771,7.771-7.771h0.206h36.408c27.069,0,53.03,10.753,72.171,29.894l17.977,17.977
		c7.102,7.102,6.906,18.544-0.217,25.625c-0.045,0.045-0.09,0.09-0.135,0.135l-4.751,4.751
		c-23.714,23.715-23.958,62.763-0.543,86.774l35.972,36.886c11.55,11.843,27.663,18.636,44.208,18.637h29.159
		c16.494,0,32-6.424,43.663-18.086l36.456-36.456c7.903-7.903,13.392-17.573,16.111-28.118c2.05-7.953,9.375-13.41,17.588-13.41
		h241.322C1574.746,734.956,1606.532,8.139,1587.821,8.139z"/>
	<path style="fill:#04D5D8;" d="M1570.565,132.679h-143.769c-8.037,0-15.744,3.193-21.427,8.875l-54.842,54.842
		c-5.683,5.683-13.39,8.875-21.427,8.875h-59.987c-8.037,0-15.744,3.193-21.427,8.875l-15.658,15.658
		c-5.683,5.683-8.875,13.39-8.875,21.427v2.855c0,8.037,3.193,15.744,8.875,21.427l49.309,49.309
		c5.683,5.683,8.875,13.39,8.875,21.427v46.372c0,8.037,3.193,15.744,8.875,21.427l23.843,23.843
		c5.683,5.683,8.875,13.39,8.875,21.427v0c0,8.037-3.193,15.744-8.875,21.427l-56.164,56.164c-5.683,5.683-8.875,13.39-8.875,21.427
		v15.217c0,8.037,3.193,15.744,8.875,21.427l11.242,11.242c5.683,5.683,13.39,8.875,21.427,8.875h97.044
		c8.037,0,15.744-3.193,21.427-8.875l116.536-116.536c4.311-4.311,7.221-9.822,8.351-15.813l57.548-305.279
		C1603.86,149.938,1589.55,132.679,1570.565,132.679z"/>
	<path style="fill:#00C5C1;" d="M-23.244,25.422H82.93c11.349,0,22.233,4.508,30.258,12.533l1.478,1.478
		c8.025,8.025,18.909,12.533,30.258,12.533h8.787c11.349,0,22.233,4.508,30.258,12.533l12.942,12.942
		c8.025,8.025,12.533,18.909,12.533,30.258v0c0,11.349-4.508,22.233-12.533,30.258l-27.377,27.377
		c-8.025,8.025-18.909,12.533-30.258,12.533h-27.413c-11.349,0-22.233,4.508-30.258,12.533L-23.244,295.254V25.422z"/>
</g>
<g id="Details">
	<g>
		<path style="fill-rule:evenodd;clip-rule:evenodd;fill:#00B465;" d="M1022.631,181.085c5.054,10.365,2.969,22.792-5.195,30.945
			c-12.605,12.594-31.464,31.435-45.556,45.532c-10.575,10.554-27.687,10.554-38.262,0c-11.542-11.533-25.634-25.615-34.25-34.228
			c-5.075-5.066-7.931-11.941-7.931-19.108c0-11.5,0-29.839,0-45.152c0-7.167,2.856-14.04,7.931-19.108
			c5.075-5.066,11.944-7.915,19.12-7.915c19.898,0,46.335,0,63.33,0c10.339,0,19.78,5.896,24.312,15.188
			C1011.039,157.324,1017.507,170.59,1022.631,181.085z"/>
		
			<path style="fill:none;stroke:#00B465;stroke-width:10.9038;stroke-linecap:round;stroke-linejoin:round;stroke-dasharray:0,10.9947;" d="
			M1022.631,181.085c5.054,10.365,2.969,22.792-5.195,30.945c-12.605,12.594-31.464,31.436-45.556,45.532
			c-10.575,10.554-27.687,10.554-38.262,0c-11.542-11.533-25.634-25.615-34.25-34.228c-5.075-5.066-7.931-11.941-7.931-19.108
			c0-11.5,0-29.839,0-45.152c0-7.167,2.856-14.04,7.931-19.108c5.075-5.066,11.944-7.915,19.12-7.915c19.898,0,46.335,0,63.33,0
			c10.339,0,19.78,5.896,24.312,15.188C1011.039,157.324,1017.507,170.59,1022.631,181.085z"/>
	</g>
	<g>
		<path style="fill-rule:evenodd;clip-rule:evenodd;fill:#3EE1DE;" d="M549.06,180.08c-19.258,0-37.363-7.492-50.98-21.097
			l-3.766-3.761c-13.619-13.61-21.117-31.7-21.117-50.94V84.356c0-19.241,7.5-37.333,21.117-50.94l0.821-0.819
			c13.617-13.606,31.723-21.099,50.982-21.099h24.582c13.709,0,25.684,7.559,31.969,18.725h5.739
			c9.791,0,18.995,3.809,25.918,10.725c23.116,23.1,23.116,60.682,0,83.78l-34.282,34.254
			C586.426,172.588,568.319,180.08,549.06,180.08z"/>
		<g>
			<path style="fill-rule:evenodd;clip-rule:evenodd;fill:#00B465;" d="M514.426,51.873l-0.819,0.819
				c-8.405,8.398-13.127,19.787-13.127,31.664v19.927c0,11.876,4.722,23.266,13.127,31.664l3.764,3.761
				c8.405,8.398,19.804,13.115,31.69,13.115l0,0c11.886,0,23.286-4.718,31.69-13.115l34.282-34.253c12.5-12.49,12.5-32.74,0-45.229
				l0,0c-1.757-1.756-4.141-2.742-6.626-2.742h-18.969c-5.175,0-9.37-4.192-9.37-9.362v0c0-5.171-4.195-9.362-9.37-9.362h-24.582
				C534.23,38.758,522.831,43.475,514.426,51.873z"/>
			
				<path style="fill:none;stroke:#00B465;stroke-width:10.9038;stroke-linecap:round;stroke-linejoin:round;stroke-dasharray:0,10.8937;" d="
				M514.426,51.873l-0.819,0.819c-8.405,8.398-13.127,19.787-13.127,31.664v19.927c0,11.876,4.722,23.266,13.127,31.664l3.764,3.76
				c8.405,8.398,19.804,13.115,31.69,13.115l0,0c11.886,0,23.286-4.718,31.69-13.115l34.282-34.253c12.5-12.49,12.5-32.74,0-45.229
				c-1.757-1.756-4.141-2.742-6.626-2.742h-18.969c-5.175,0-9.37-4.191-9.37-9.362s-4.195-9.362-9.37-9.362h-24.582
				C534.23,38.758,522.831,43.475,514.426,51.873z"/>
		</g>
		<g>
			<path style="fill-rule:evenodd;clip-rule:evenodd;fill:#79708A;" d="M508.18,81.858c-1.031,0-1.995-0.511-2.573-1.365
				c-0.578-0.853-0.696-1.938-0.312-2.894c2.575-6.432,7.37-18.41,9.397-23.472c0.572-1.428,1.952-2.355,3.491-2.355h13.432
				c1.681,0,3.157,1.113,3.619,2.728l2.984,10.435l11.501,3.283c1.061,0.303,1.933,1.05,2.39,2.054
				c1.412,3.104,4.598,10.107,6.696,14.717c0.437,0.961,0.356,2.079-0.216,2.966c-0.572,0.888-1.556,1.424-2.614,1.424
				c-6.551,0-18.001,0-22.924,0c-1.511,0-2.96-0.6-4.029-1.667c-1.246-1.246-2.943-2.941-4.189-4.187
				c-1.069-1.067-2.518-1.667-4.029-1.667C517.688,81.858,512.136,81.858,508.18,81.858z"/>
			<g>
				<defs>
					<path id="SVGID_00000165230024482631590920000004456266895719483579_" d="M508.18,81.858c-1.031,0-1.995-0.511-2.573-1.365
						c-0.578-0.853-0.696-1.938-0.312-2.894c2.575-6.432,7.37-18.41,9.397-23.472c0.572-1.428,1.952-2.355,3.491-2.355h13.432
						c1.681,0,3.157,1.113,3.619,2.728l2.984,10.435l11.501,3.283c1.061,0.303,1.933,1.05,2.39,2.054
						c1.412,3.104,4.598,10.107,6.696,14.717c0.437,0.961,0.356,2.079-0.216,2.966c-0.572,0.888-1.556,1.424-2.614,1.424
						c-6.551,0-18.001,0-22.924,0c-1.511,0-2.96-0.6-4.029-1.667c-1.246-1.246-2.943-2.941-4.189-4.187
						c-1.069-1.067-2.518-1.667-4.029-1.667C517.688,81.858,512.136,81.858,508.18,81.858z"/>
				</defs>
				<clipPath id="SVGID_00000168090639337196811120000014976180953325480358_">
					<use xlink:href="#SVGID_00000165230024482631590920000004456266895719483579_"  style="overflow:visible;"/>
				</clipPath>
				
					<path style="clip-path:url(#SVGID_00000168090639337196811120000014976180953325480358_);fill-rule:evenodd;clip-rule:evenodd;fill:#695D80;" d="
					M528.717,78.097c0-2.077-1.684-3.761-3.764-3.761s-3.764,1.684-3.764,3.761c0,4.456,0,11.282,0,11.282h7.528
					C528.717,89.379,528.717,82.553,528.717,78.097z"/>
				
					<path style="clip-path:url(#SVGID_00000168090639337196811120000014976180953325480358_);fill-rule:evenodd;clip-rule:evenodd;fill:#00A980;" d="
					M560.633,58.006v-6.995c0-1.662-1.348-3.009-3.011-3.009h-7.85c-1.663,0-3.011-1.347-3.011-3.009v-0.013
					c0-1.662-1.348-3.009-3.011-3.009h-7.85c-1.663,0-3.011-1.347-3.011-3.009v-2.658c0-1.662-1.348-3.009-3.011-3.009h-9.4
					c-1.663,0-3.011,1.347-3.011,3.009v2.658c0,1.662-1.348,3.009-3.011,3.009h-7.85c-1.663,0-3.011,1.347-3.011,3.009v8.579
					c0,1.662-1.348,3.009-3.011,3.009h-7.85c-1.663,0-3.011,1.347-3.011,3.009v23.659c0,1.662,1.348,3.009,3.011,3.009l7.847-0.652
					c1.663,0,3.011-1.347,3.011-3.009l2.471-8.578c0-0.406,0.704-0.141,0.85-0.494c0.451-1.093,1.528-1.862,2.785-1.862h3.968
					c2.956,0,5.352-2.394,5.352-5.348v0c0-1.838,1.491-3.328,3.331-3.328h1.927c2.256,0,4.085,1.827,4.085,4.082v0.729
					c0,2.91,2.361,5.27,5.274,5.27h8.568c1.663,0,3.011,1.347,3.011,3.009v0.862c0,2.849,2.312,5.159,5.163,5.159h5.193
					c1.169,0,2.182,0.665,2.681,1.638c0.211,0.411,2.227,2.644,2.227,2.644c0,1.662,0.213,3.009,1.876,3.009h9.142
					c1.663,0,3.011-1.347,3.011-3.009V64.023c0-1.662-1.348-3.009-3.011-3.009h-7.85C561.981,61.014,560.633,59.667,560.633,58.006z
					"/>
				
					<path style="clip-path:url(#SVGID_00000168090639337196811120000014976180953325480358_);fill-rule:evenodd;clip-rule:evenodd;fill:#00957D;" d="
					M535.839,56.435c-1.999-0.571-4.082,0.585-4.653,2.582c-0.571,1.998,0.586,4.079,2.585,4.649
					c4.288,1.225,10.857,3.101,10.857,3.101l2.069-7.232C546.696,59.535,540.127,57.659,535.839,56.435z"/>
			</g>
		</g>
		<g>
			<path style="opacity:0.5;fill:#009352;" d="M603.343,85.708c0.925,0,1.674-0.748,1.674-1.673v-5.237
				c0-0.925-0.75-1.673-1.674-1.673c-0.925,0-1.674,0.748-1.674,1.673v5.237C601.669,84.96,602.419,85.708,603.343,85.708z"/>
			<path style="opacity:0.5;fill:#009352;" d="M596.354,85.708c0.925,0,1.674-0.748,1.674-1.673v-3.491
				c0-0.925-0.75-1.673-1.674-1.673c-0.925,0-1.674,0.748-1.674,1.673v3.491C594.68,84.96,595.429,85.708,596.354,85.708z"/>
			<path style="opacity:0.5;fill:#009352;" d="M609.751,85.708c0.925,0,1.674-0.748,1.674-1.673v-3.491
				c0-0.925-0.75-1.673-1.674-1.673c-0.925,0-1.674,0.748-1.674,1.673v3.491C608.077,84.96,608.826,85.708,609.751,85.708z"/>
			<path style="opacity:0.5;fill:#009352;" d="M578.006,70.575c0.925,0,1.674-0.748,1.674-1.673v-5.237
				c0-0.925-0.75-1.673-1.674-1.673c-0.925,0-1.674,0.748-1.674,1.673v5.237C576.331,69.827,577.081,70.575,578.006,70.575z"/>
			<path style="opacity:0.5;fill:#009352;" d="M571.015,70.575c0.925,0,1.674-0.748,1.674-1.673V65.41
				c0-0.925-0.75-1.673-1.674-1.673c-0.925,0-1.674,0.748-1.674,1.673v3.493C569.341,69.827,570.091,70.575,571.015,70.575z"/>
			<path style="opacity:0.5;fill:#009352;" d="M584.412,70.575c0.925,0,1.674-0.748,1.674-1.673V65.41
				c0-0.925-0.75-1.673-1.674-1.673c-0.925,0-1.674,0.748-1.674,1.673v3.493C582.738,69.827,583.488,70.575,584.412,70.575z"/>
		</g>
		<path style="fill-rule:evenodd;clip-rule:evenodd;fill:#D60040;" d="M582.076,89.794l1.198-1.197c0.661-0.661,0.661-1.734,0-2.394
			c-0.661-0.661-1.734-0.661-2.396,0L579.68,87.4l-1.198-1.197c-0.66-0.661-1.734-0.661-2.396,0c-0.661,0.66-0.661,1.733,0,2.394
			l1.198,1.197l-1.198,1.197c-0.661,0.661-0.661,1.734,0,2.395c0.661,0.66,1.735,0.66,2.396,0l1.198-1.197l1.198,1.197
			c0.661,0.66,1.734,0.66,2.396,0c0.661-0.661,0.661-1.734,0-2.395L582.076,89.794z"/>
		<g>
			<path style="fill-rule:evenodd;clip-rule:evenodd;fill:#00957D;" d="M547.672,123.121c0-0.729-0.289-1.429-0.805-1.944
				c-0.515-0.516-1.215-0.805-1.945-0.805c-4.937,0-15.247,0-20.184,0c-0.73,0-1.43,0.289-1.945,0.805
				c-0.516,0.515-0.805,1.214-0.805,1.944c0,0.001,0,0.001,0,0.002c0,0.729,0.289,1.429,0.805,1.944
				c0.515,0.516,1.215,0.805,1.945,0.805c4.937,0,15.247,0,20.184,0c0.73,0,1.43-0.289,1.945-0.805
				c0.516-0.515,0.805-1.214,0.805-1.944C547.672,123.122,547.672,123.122,547.672,123.121z"/>
			<path style="fill-rule:evenodd;clip-rule:evenodd;fill:#FFD700;" d="M529.325,117.621c0-0.728-0.29-1.427-0.805-1.944
				c-0.516-0.515-1.215-0.805-1.945-0.805c-0.001,0-0.002,0-0.002,0c-0.73,0-1.43,0.29-1.945,0.805
				c-0.516,0.516-0.805,1.215-0.805,1.944c0,0.924,0,1.967,0,2.938c0,0.923,0.367,1.808,1.019,2.461
				c0.653,0.652,1.539,1.018,2.463,1.018c1.093,0,2.022,0,2.022,0S529.325,120.322,529.325,117.621z"/>
			<path style="fill-rule:evenodd;clip-rule:evenodd;fill:#FFD700;" d="M540.334,113.955c0-1.518-1.231-2.748-2.751-2.748
				c-0.001,0-0.002,0-0.002,0c-1.519,0-2.751,1.23-2.751,2.748c0,3.77,0,10.083,0,10.083h5.504
				C540.334,124.038,540.334,117.725,540.334,113.955z"/>
			<path style="fill-rule:evenodd;clip-rule:evenodd;fill:#FFD700;" d="M534.83,113.955c0-1.518-1.233-2.748-2.751-2.748
				c-0.001,0-0.002,0-0.003,0c-1.519,0-2.751,1.23-2.751,2.748c0,3.77,0,10.083,0,10.083h5.505
				C534.83,124.038,534.83,117.725,534.83,113.955z"/>
			<path style="fill-rule:evenodd;clip-rule:evenodd;fill:#FFD700;" d="M545.839,117.621c0-0.728-0.29-1.427-0.807-1.944
				c-0.515-0.515-1.215-0.805-1.944-0.805c-0.001,0-0.002,0-0.003,0c-0.73,0-1.429,0.29-1.945,0.805
				c-0.515,0.516-0.805,1.215-0.805,1.944c0,2.701,0,6.417,0,6.417s0.928,0,2.023,0c0.923,0,1.808-0.366,2.462-1.018
				c0.652-0.653,1.02-1.538,1.02-2.461C545.839,119.588,545.839,118.545,545.839,117.621z"/>
		</g>
	</g>
	<g>
		<path style="fill-rule:evenodd;clip-rule:evenodd;fill:#00C5C1;" d="M895.567,67.543c0.546-0.545,1.176-1.175,1.176-1.175
			s-0.631-0.63-1.176-1.175c-0.501-0.5-1.18-0.781-1.888-0.781c-2.07,0-6.552,0-9.098,0c-1.195,0-2.341,0.474-3.186,1.319
			c-0.372,0.372-0.678,0.677-0.678,0.677s0.266,0.265,0.599,0.599c0.845,0.844,1.991,1.319,3.186,1.319c2.563,0,7.092,0,9.176,0
			C894.387,68.325,895.066,68.044,895.567,67.543z"/>
		<path style="fill-rule:evenodd;clip-rule:evenodd;fill:#00C5C1;" d="M899.948,63.806l-3.205,2.562l3.205,2.562
			C898.968,67.363,898.968,65.374,899.948,63.806z"/>
		<path style="fill-rule:evenodd;clip-rule:evenodd;fill:#00C5C1;" d="M920.458,70.564c-2.07,0-6.552,0-9.098,0
			c-1.195,0-2.341,0.474-3.186,1.319c-0.372,0.372-0.678,0.677-0.678,0.677s0.266,0.266,0.599,0.599
			c0.845,0.844,1.991,1.319,3.186,1.319c2.563,0,7.092,0,9.176,0c0.708,0,1.388-0.281,1.888-0.782
			c0.545-0.545,1.176-1.175,1.176-1.175s-0.631-0.63-1.176-1.175C921.846,70.845,921.166,70.564,920.458,70.564z"/>
		<path style="fill-rule:evenodd;clip-rule:evenodd;fill:#00C5C1;" d="M923.523,72.52l3.205,2.562c-0.98-1.568-0.98-3.557,0-5.124
			L923.523,72.52z"/>
		<path style="fill-rule:evenodd;clip-rule:evenodd;fill:#00C5C1;" d="M889.112,59.931c0.546-0.545,1.176-1.175,1.176-1.175
			s-0.63-0.63-1.176-1.175c-0.501-0.5-1.18-0.781-1.888-0.781c-2.071,0-6.552,0-9.098,0c-1.195,0-2.341,0.474-3.186,1.319
			c-0.372,0.372-0.678,0.677-0.678,0.677s0.266,0.266,0.599,0.599c0.845,0.844,1.991,1.319,3.186,1.319c2.563,0,7.092,0,9.177,0
			C887.932,60.712,888.611,60.431,889.112,59.931z"/>
		<path style="fill-rule:evenodd;clip-rule:evenodd;fill:#00C5C1;" d="M893.493,56.193l-3.205,2.562l3.205,2.562
			C892.513,59.75,892.513,57.761,893.493,56.193z"/>
		<path style="fill-rule:evenodd;clip-rule:evenodd;fill:#00C5C1;" d="M945.713,36.989c2.563,0,7.092,0,9.176,0
			c0.708,0,1.388-0.281,1.888-0.781c0.546-0.545,1.176-1.175,1.176-1.175s-0.63-0.63-1.176-1.175c-0.501-0.5-1.18-0.781-1.888-0.781
			c-2.07,0-6.552,0-9.098,0c-1.195,0-2.341,0.474-3.186,1.319c-0.372,0.372-0.678,0.677-0.678,0.677s0.266,0.265,0.599,0.599
			C943.372,36.514,944.518,36.989,945.713,36.989z"/>
		<path style="fill-rule:evenodd;clip-rule:evenodd;fill:#00C5C1;" d="M961.159,32.47l-3.206,2.562l3.206,2.562
			C960.178,36.027,960.178,34.037,961.159,32.47z"/>
		<path style="fill-rule:evenodd;clip-rule:evenodd;fill:#00C5C1;" d="M948.467,51.792c-2.07,0-6.552,0-9.098,0
			c-1.195,0-2.341,0.474-3.186,1.319c-0.372,0.372-0.678,0.677-0.678,0.677s0.266,0.265,0.599,0.599
			c0.845,0.844,1.991,1.319,3.186,1.319c2.563,0,7.092,0,9.176,0c0.708,0,1.388-0.281,1.888-0.781
			c0.546-0.545,1.176-1.175,1.176-1.175s-0.631-0.63-1.176-1.175C949.855,52.073,949.175,51.792,948.467,51.792z"/>
		<path style="fill-rule:evenodd;clip-rule:evenodd;fill:#00C5C1;" d="M951.532,53.749l3.205,2.562c-0.98-1.568-0.98-3.557,0-5.124
			L951.532,53.749z"/>
		<path style="fill-rule:evenodd;clip-rule:evenodd;fill:#00C5C1;" d="M929.195,44.64c0,0,0.266,0.265,0.599,0.599
			c0.845,0.844,1.991,1.319,3.186,1.319c2.563,0,7.092,0,9.177,0c0.708,0,1.387-0.281,1.888-0.782
			c0.545-0.545,1.176-1.175,1.176-1.175s-0.63-0.63-1.176-1.175c-0.501-0.5-1.18-0.781-1.888-0.781c-2.071,0-6.552,0-9.098,0
			c-1.195,0-2.341,0.474-3.186,1.319C929.5,44.335,929.195,44.64,929.195,44.64z"/>
		<path style="fill-rule:evenodd;clip-rule:evenodd;fill:#00C5C1;" d="M948.426,42.039l-3.205,2.562l3.205,2.562
			C947.446,45.596,947.446,43.607,948.426,42.039z"/>
		<path style="fill-rule:evenodd;clip-rule:evenodd;fill:#00C5C1;" d="M929.865,84.156c-2.07,0-6.552,0-9.098,0
			c-1.195,0-2.341,0.474-3.186,1.319c-0.372,0.372-0.678,0.677-0.678,0.677s0.266,0.265,0.599,0.599
			c0.845,0.844,1.991,1.319,3.186,1.319c2.563,0,7.092,0,9.176,0c0.708,0,1.388-0.281,1.888-0.782
			c0.546-0.545,1.176-1.175,1.176-1.175s-0.631-0.63-1.176-1.175C931.253,84.438,930.574,84.156,929.865,84.156z"/>
		<path style="fill-rule:evenodd;clip-rule:evenodd;fill:#00C5C1;" d="M932.93,86.113l3.205,2.562c-0.98-1.568-0.98-3.557,0-5.124
			L932.93,86.113z"/>
		<path style="fill-rule:evenodd;clip-rule:evenodd;fill:#00C5C1;" d="M916.91,38.945c2.563,0,7.092,0,9.176,0
			c0.708,0,1.387-0.281,1.888-0.781c0.546-0.545,1.176-1.175,1.176-1.175s-0.63-0.63-1.176-1.175c-0.501-0.5-1.18-0.781-1.888-0.781
			c-2.07,0-6.552,0-9.098,0c-1.195,0-2.341,0.474-3.186,1.319c-0.372,0.372-0.678,0.677-0.678,0.677s0.266,0.265,0.599,0.599
			C914.568,38.471,915.714,38.945,916.91,38.945z"/>
		<path style="fill-rule:evenodd;clip-rule:evenodd;fill:#00C5C1;" d="M932.356,34.427l-3.206,2.562l3.206,2.562
			C931.375,37.983,931.375,35.994,932.356,34.427z"/>
		<path style="fill-rule:evenodd;clip-rule:evenodd;fill:#00C5C1;" d="M917.809,53.91c-2.07,0-6.552,0-9.098,0
			c-1.195,0-2.341,0.474-3.186,1.319c-0.372,0.372-0.678,0.677-0.678,0.677s0.266,0.265,0.599,0.599
			c0.845,0.844,1.991,1.319,3.186,1.319c2.563,0,7.092,0,9.176,0c0.708,0,1.388-0.281,1.888-0.781
			c0.545-0.545,1.176-1.175,1.176-1.175s-0.631-0.63-1.176-1.175C919.197,54.191,918.517,53.91,917.809,53.91z"/>
		<path style="fill-rule:evenodd;clip-rule:evenodd;fill:#00C5C1;" d="M920.874,55.867l3.205,2.562c-0.98-1.568-0.98-3.557,0-5.124
			L920.874,55.867z"/>
		<path style="fill-rule:evenodd;clip-rule:evenodd;fill:#00C5C1;" d="M904.853,79.032c-2.071,0-6.552,0-9.098,0
			c-1.195,0-2.341,0.474-3.186,1.319c-0.372,0.372-0.678,0.677-0.678,0.677s0.266,0.265,0.599,0.599
			c0.845,0.844,1.991,1.319,3.186,1.319c2.563,0,7.092,0,9.177,0c0.708,0,1.387-0.281,1.888-0.781
			c0.546-0.545,1.176-1.175,1.176-1.175s-0.63-0.63-1.176-1.175C906.24,79.313,905.561,79.032,904.853,79.032z"/>
		<path style="fill-rule:evenodd;clip-rule:evenodd;fill:#00C5C1;" d="M911.122,78.427l-3.205,2.562l3.205,2.562
			C910.142,81.983,910.142,79.994,911.122,78.427z"/>
		<path style="fill-rule:evenodd;clip-rule:evenodd;fill:#00C5C1;" d="M929.946,62.272c-2.07,0-6.552,0-9.098,0
			c-1.195,0-2.341,0.474-3.186,1.319c-0.372,0.372-0.678,0.677-0.678,0.677s0.266,0.265,0.599,0.599
			c0.845,0.844,1.991,1.319,3.186,1.319c2.563,0,7.092,0,9.176,0c0.708,0,1.388-0.281,1.888-0.781
			c0.546-0.545,1.176-1.175,1.176-1.175s-0.631-0.63-1.176-1.175C931.334,62.554,930.654,62.272,929.946,62.272z"/>
		<path style="fill-rule:evenodd;clip-rule:evenodd;fill:#00C5C1;" d="M933.01,64.229l3.205,2.562c-0.98-1.568-0.98-3.557,0-5.124
			L933.01,64.229z"/>
		<path style="fill-rule:evenodd;clip-rule:evenodd;fill:#00C5C1;" d="M956.942,44.076c-0.372,0.372-0.678,0.677-0.678,0.677
			s0.266,0.265,0.599,0.599c0.845,0.844,1.991,1.319,3.186,1.319c2.563,0,7.092,0,9.176,0c0.708,0,1.387-0.281,1.888-0.782
			c0.546-0.545,1.176-1.175,1.176-1.175s-0.631-0.63-1.176-1.175c-0.501-0.5-1.18-0.781-1.888-0.781c-2.07,0-6.552,0-9.098,0
			C958.933,42.758,957.787,43.232,956.942,44.076z"/>
		<path style="fill-rule:evenodd;clip-rule:evenodd;fill:#00C5C1;" d="M975.496,42.152l-3.205,2.562l3.205,2.562
			C974.515,45.709,974.515,43.72,975.496,42.152z"/>
		<path style="fill-rule:evenodd;clip-rule:evenodd;fill:#00C5C1;" d="M969.078,52.438c-0.372,0.372-0.677,0.677-0.677,0.677
			s0.265,0.265,0.599,0.599c0.845,0.844,1.991,1.319,3.187,1.319c2.563,0,7.092,0,9.176,0c0.708,0,1.387-0.281,1.888-0.782
			c0.546-0.545,1.176-1.175,1.176-1.175s-0.63-0.63-1.176-1.175c-0.501-0.5-1.18-0.781-1.888-0.781c-2.07,0-6.552,0-9.098,0
			C971.07,51.12,969.924,51.594,969.078,52.438z"/>
		<path style="fill-rule:evenodd;clip-rule:evenodd;fill:#00C5C1;" d="M987.633,50.514l-3.206,2.562l3.206,2.562
			C986.652,54.071,986.652,52.082,987.633,50.514z"/>
		<path style="fill-rule:evenodd;clip-rule:evenodd;fill:#00C5C1;" d="M1015.131,52.938c0.845,0.844,1.991,1.319,3.186,1.319
			c2.563,0,7.092,0,9.177,0c0.708,0,1.387-0.281,1.888-0.781c0.546-0.545,1.176-1.175,1.176-1.175s-0.63-0.63-1.176-1.175
			c-0.501-0.5-1.18-0.781-1.888-0.781c-2.071,0-6.552,0-9.098,0c-1.195,0-2.341,0.474-3.186,1.319
			c-0.372,0.372-0.677,0.677-0.677,0.677S1014.798,52.604,1015.131,52.938z"/>
		<path style="fill-rule:evenodd;clip-rule:evenodd;fill:#00C5C1;" d="M1033.764,49.738l-3.205,2.562l3.205,2.562
			C1032.783,53.294,1032.783,51.305,1033.764,49.738z"/>
		<path style="fill-rule:evenodd;clip-rule:evenodd;fill:#00C5C1;" d="M1021.496,67.966c0.545-0.545,1.176-1.175,1.176-1.175
			s-0.63-0.63-1.176-1.175c-0.501-0.5-1.18-0.781-1.888-0.781c-2.071,0-6.552,0-9.098,0c-1.195,0-2.341,0.474-3.186,1.319
			c-0.372,0.372-0.677,0.677-0.677,0.677s0.266,0.265,0.599,0.599c0.845,0.844,1.991,1.319,3.186,1.319c2.563,0,7.092,0,9.177,0
			C1020.315,68.748,1020.995,68.467,1021.496,67.966z"/>
		<path style="fill-rule:evenodd;clip-rule:evenodd;fill:#00C5C1;" d="M1025.877,64.229l-3.205,2.562l3.205,2.562
			C1024.896,67.786,1024.896,65.797,1025.877,64.229z"/>
		<path style="fill-rule:evenodd;clip-rule:evenodd;fill:#00C5C1;" d="M1028.424,74.11c-2.071,0-6.552,0-9.098,0
			c-1.195,0-2.341,0.474-3.186,1.319c-0.372,0.372-0.678,0.677-0.678,0.677s0.266,0.265,0.599,0.599
			c0.845,0.844,1.991,1.319,3.186,1.319c2.563,0,7.092,0,9.177,0c0.708,0,1.387-0.281,1.888-0.782
			c0.545-0.545,1.176-1.175,1.176-1.175s-0.631-0.63-1.176-1.175C1029.811,74.391,1029.132,74.11,1028.424,74.11z"/>
		<path style="fill-rule:evenodd;clip-rule:evenodd;fill:#00C5C1;" d="M1034.693,73.504l-3.205,2.562l3.205,2.562
			C1033.713,77.061,1033.713,75.072,1034.693,73.504z"/>
		<path style="fill-rule:evenodd;clip-rule:evenodd;fill:#00C5C1;" d="M962.767,71.556c0.546-0.545,1.176-1.175,1.176-1.175
			s-0.63-0.63-1.176-1.175c-0.501-0.5-1.18-0.781-1.888-0.781c-2.071,0-6.552,0-9.098,0c-1.195,0-2.341,0.474-3.186,1.319
			c-0.372,0.372-0.677,0.677-0.677,0.677s0.265,0.266,0.599,0.599c0.845,0.844,1.991,1.319,3.186,1.319c2.563,0,7.092,0,9.177,0
			C961.587,72.338,962.266,72.057,962.767,71.556z"/>
		<path style="fill-rule:evenodd;clip-rule:evenodd;fill:#00C5C1;" d="M967.149,67.819l-3.206,2.562l3.206,2.562
			C966.168,71.376,966.168,69.387,967.149,67.819z"/>
		<path style="fill-rule:evenodd;clip-rule:evenodd;fill:#00C5C1;" d="M982.831,60.823c-2.071,0-6.552,0-9.098,0
			c-1.195,0-2.341,0.474-3.186,1.319c-0.372,0.372-0.678,0.677-0.678,0.677s0.266,0.266,0.599,0.599
			c0.845,0.844,1.991,1.319,3.186,1.319c2.563,0,7.092,0,9.177,0c0.708,0,1.387-0.281,1.888-0.781
			c0.546-0.545,1.176-1.175,1.176-1.175s-0.63-0.63-1.176-1.175C984.219,61.104,983.539,60.823,982.831,60.823z"/>
		<path style="fill-rule:evenodd;clip-rule:evenodd;fill:#00C5C1;" d="M985.896,62.78l3.206,2.562c-0.981-1.568-0.981-3.557,0-5.124
			L985.896,62.78z"/>
		<path style="fill-rule:evenodd;clip-rule:evenodd;fill:#00C5C1;" d="M945.273,76.893c-2.07,0-6.552,0-9.098,0
			c-1.195,0-2.341,0.474-3.186,1.319c-0.372,0.372-0.677,0.677-0.677,0.677s0.266,0.265,0.599,0.599
			c0.845,0.844,1.991,1.319,3.186,1.319c2.563,0,7.092,0,9.177,0c0.708,0,1.387-0.281,1.888-0.782
			c0.545-0.545,1.176-1.175,1.176-1.175s-0.631-0.63-1.176-1.175C946.661,77.174,945.982,76.893,945.273,76.893z"/>
		<path style="fill-rule:evenodd;clip-rule:evenodd;fill:#00C5C1;" d="M948.338,78.85l3.205,2.562c-0.98-1.568-0.98-3.557,0-5.124
			L948.338,78.85z"/>
		<path style="fill-rule:evenodd;clip-rule:evenodd;fill:#00C5C1;" d="M965.991,87.71c-2.07,0-6.552,0-9.098,0
			c-1.195,0-2.341,0.474-3.186,1.319c-0.372,0.372-0.678,0.677-0.678,0.677s0.266,0.265,0.599,0.599
			c0.845,0.844,1.991,1.319,3.186,1.319c2.563,0,7.092,0,9.176,0c0.708,0,1.387-0.281,1.888-0.782
			c0.546-0.545,1.176-1.175,1.176-1.175s-0.63-0.63-1.176-1.175C967.378,87.992,966.699,87.71,965.991,87.71z"/>
		<path style="fill-rule:evenodd;clip-rule:evenodd;fill:#00C5C1;" d="M969.055,89.667l3.206,2.562
			c-0.981-1.568-0.981-3.557,0-5.124L969.055,89.667z"/>
		<path style="fill-rule:evenodd;clip-rule:evenodd;fill:#00C5C1;" d="M973.216,79.455c-2.071,0-6.552,0-9.098,0
			c-1.195,0-2.341,0.474-3.186,1.319c-0.372,0.372-0.678,0.677-0.678,0.677s0.266,0.265,0.599,0.599
			c0.845,0.844,1.991,1.319,3.186,1.319c2.563,0,7.092,0,9.177,0c0.708,0,1.387-0.281,1.888-0.782
			c0.546-0.545,1.176-1.175,1.176-1.175s-0.631-0.63-1.176-1.175C974.603,79.736,973.924,79.455,973.216,79.455z"/>
		<path style="fill-rule:evenodd;clip-rule:evenodd;fill:#00C5C1;" d="M976.28,81.412l3.205,2.562c-0.98-1.568-0.98-3.557,0-5.124
			L976.28,81.412z"/>
		<path style="fill-rule:evenodd;clip-rule:evenodd;fill:#00C5C1;" d="M921.535,93.832c-2.07,0-6.552,0-9.098,0
			c-1.195,0-2.341,0.474-3.186,1.319c-0.372,0.372-0.678,0.677-0.678,0.677s0.266,0.266,0.599,0.599
			c0.845,0.844,1.991,1.319,3.187,1.319c2.563,0,7.092,0,9.176,0c0.708,0,1.387-0.281,1.888-0.781
			c0.545-0.545,1.176-1.175,1.176-1.175s-0.63-0.63-1.176-1.175C922.922,94.114,922.243,93.832,921.535,93.832z"/>
		<path style="fill-rule:evenodd;clip-rule:evenodd;fill:#00C5C1;" d="M924.599,95.789l3.206,2.562
			c-0.981-1.568-0.981-3.557,0-5.124L924.599,95.789z"/>
		<path style="fill-rule:evenodd;clip-rule:evenodd;fill:#00C5C1;" d="M894.118,49.402c2.563,0,7.092,0,9.177,0
			c0.708,0,1.387-0.281,1.888-0.782c0.546-0.545,1.176-1.175,1.176-1.175s-0.63-0.63-1.176-1.175c-0.501-0.5-1.18-0.781-1.888-0.781
			c-2.071,0-6.552,0-9.098,0c-1.195,0-2.341,0.474-3.186,1.319c-0.372,0.372-0.678,0.677-0.678,0.677s0.266,0.266,0.599,0.599
			C891.777,48.927,892.923,49.402,894.118,49.402z"/>
		<path style="fill-rule:evenodd;clip-rule:evenodd;fill:#00C5C1;" d="M909.564,44.883l-3.205,2.562l3.205,2.562
			C908.583,48.44,908.583,46.451,909.564,44.883z"/>
	</g>
	<g>
		<path style="fill-rule:evenodd;clip-rule:evenodd;fill:#00C5C1;" d="M640.602,138.302c-0.358,0-0.889,0-1.506,0
			c0,0,0.076-0.075,0.189-0.189c0.573-0.573,0.573-1.503,0-2.076c-0.114-0.113-0.189-0.189-0.189-0.189h-3.683l-1.841,2.453
			c-0.339,0-0.634,0-0.852,0c-0.286,0-0.56,0.113-0.762,0.315c-0.659,0.658-2.18,2.178-3.097,3.094
			c-0.169-0.139-0.377-0.234-0.613-0.234c-0.539,0-0.977,0.437-0.977,0.976s0.438,0.976,0.977,0.976
			c0.108,0,0.206-0.029,0.303-0.061c1.611,3.151,4.847,5.188,8.444,5.188c0.012,0,0.024,0,0.036,0c3.623,0,6.789-2.442,7.707-5.943
			c0,0-2.423-2.873-3.313-3.928C641.221,138.442,640.92,138.302,640.602,138.302z"/>
		<path style="fill-rule:evenodd;clip-rule:evenodd;fill:#00C5C1;" d="M647.298,140.22
			C647.298,140.22,647.298,140.219,647.298,140.22l-2.559,2.393l2.559,2.394v0c0.675-0.613,1.06-1.482,1.06-2.394
			C648.358,141.702,647.973,140.833,647.298,140.22z"/>
	</g>
	<g>
		<g>
			<g>
				<g>
					<path style="fill:#C3DCE2;" d="M1318.343,45.709c-0.957-0.112-1.641-0.979-1.529-1.936l3.17-26.994
						c0.112-0.957,0.979-1.641,1.936-1.529c0.957,0.112,1.641,0.979,1.529,1.936l-3.17,26.994
						C1320.167,45.137,1319.3,45.821,1318.343,45.709z"/>
				</g>
				<g>
					<path style="fill:#C3DCE2;" d="M1289.576,42.33c-0.957-0.112-1.641-0.979-1.529-1.936l3.17-26.994
						c0.112-0.957,0.979-1.641,1.936-1.529c0.957,0.112,1.641,0.979,1.529,1.936l-3.17,26.994
						C1291.4,41.758,1290.533,42.443,1289.576,42.33z"/>
				</g>
			</g>
			<g>
				<g>
					<g>
						
							<rect x="1311.116" y="42.847" transform="matrix(0.1166 -0.9932 0.9932 0.1166 1112.9008 1344.4376)" style="fill-rule:evenodd;clip-rule:evenodd;fill:#009E7B;" width="2.246" height="7.488"/>
					</g>
					<g>
						<path style="fill-rule:evenodd;clip-rule:evenodd;fill:#092220;" d="M1307.495,25.998c0.126-1.077,1.103-1.849,2.18-1.722
							c2.601,0.306,7.179,0.843,9.781,1.149c1.078,0.127,1.849,1.103,1.722,2.181c-0.539,4.588-1.77,15.068-1.77,15.068
							l-13.683-1.607C1305.726,41.065,1306.957,30.585,1307.495,25.998z"/>
					</g>
					<g>
						<path style="fill-rule:evenodd;clip-rule:evenodd;fill:#00A6F2;" d="M1309.891,35.397c0.061-0.051,0.14-0.077,0.219-0.07
							c0.079,0.006,0.153,0.045,0.204,0.106c0.277,0.329,0.783,0.93,1.06,1.259c0.051,0.061,0.076,0.139,0.069,0.219
							c-0.007,0.079-0.045,0.153-0.106,0.204c-1.081,0.911-5.611,4.727-5.611,4.727l-1.447-1.718
							C1304.28,40.124,1308.81,36.308,1309.891,35.397z"/>
					</g>
					<g>
						<path style="fill-rule:evenodd;clip-rule:evenodd;fill:#FCE517;" d="M1309.891,35.397c0.127-0.107,0.316-0.091,0.423,0.036
							c0.277,0.329,0.783,0.93,1.06,1.259c0.107,0.127,0.091,0.316-0.036,0.423c-0.537,0.453-1.832,1.543-1.832,1.543l-1.447-1.718
							C1308.059,36.94,1309.353,35.849,1309.891,35.397z"/>
					</g>
					<g>
						<path style="fill-rule:evenodd;clip-rule:evenodd;fill:#00A6F2;" d="M1316.237,38.24c-0.079-0.009-0.152-0.05-0.201-0.112
							c-0.049-0.063-0.072-0.142-0.062-0.221c0.05-0.426,0.142-1.207,0.192-1.634c0.009-0.079,0.05-0.152,0.112-0.201
							c0.062-0.049,0.142-0.072,0.221-0.063c1.404,0.165,7.287,0.856,7.287,0.856l-0.262,2.231
							C1323.524,39.096,1317.641,38.405,1316.237,38.24z"/>
					</g>
					<g>
						<circle style="fill-rule:evenodd;clip-rule:evenodd;fill:#00B28C;" cx="1323.655" cy="37.98" r="1.123"/>
					</g>
					<g>
						<path style="fill-rule:evenodd;clip-rule:evenodd;fill:#FCE517;" d="M1316.237,38.24c-0.165-0.019-0.283-0.169-0.264-0.334
							c0.05-0.426,0.142-1.207,0.192-1.634c0.019-0.165,0.169-0.283,0.334-0.264c0.698,0.082,2.378,0.279,2.378,0.279l-0.262,2.231
							C1318.615,38.519,1316.934,38.322,1316.237,38.24z"/>
					</g>
					<g>
						<path style="fill-rule:evenodd;clip-rule:evenodd;fill:#00A6F2;" d="M1324.891,30.695c0.033-0.098,0.104-0.179,0.197-0.225
							c0.093-0.046,0.2-0.053,0.298-0.019c0.389,0.132,0.999,0.337,1.388,0.469c0.098,0.033,0.179,0.104,0.225,0.197
							s0.053,0.2,0.02,0.299c-0.5,1.476-2.322,6.865-2.322,6.865l-2.128-0.72C1322.569,37.56,1324.392,32.171,1324.891,30.695z"/>
					</g>
					<g>
						<path style="fill-rule:evenodd;clip-rule:evenodd;fill:#00A6F2;" d="M1323.994,36.855c-0.588-0.198-1.225,0.117-1.424,0.704
							c-0.198,0.587,0.117,1.225,0.704,1.424c0.587,0.199,1.225-0.117,1.424-0.704C1324.896,37.692,1324.58,37.054,1323.994,36.855z
							"/>
					</g>
					<g>
						<path style="fill-rule:evenodd;clip-rule:evenodd;fill:#FCE517;" d="M1309.752,35.674c0.014-0.12,0.075-0.229,0.169-0.304
							c0.094-0.075,0.215-0.108,0.334-0.094c1.327,0.156,5.209,0.612,6.535,0.768c0.12,0.014,0.229,0.075,0.303,0.169
							c0.075,0.094,0.109,0.215,0.095,0.335c-0.226,1.926-1.1,9.366-1.1,9.366l-7.437-0.873
							C1308.652,45.039,1309.526,37.599,1309.752,35.674z"/>
					</g>
					<g>
						
							<rect x="1312.861" y="33.418" transform="matrix(0.1166 -0.9932 0.9932 0.1166 1125.7076 1335.486)" style="fill-rule:evenodd;clip-rule:evenodd;fill:#008CC9;" width="1.498" height="2.995"/>
					</g>
					<g>
						<path style="fill-rule:evenodd;clip-rule:evenodd;fill:#00A6F2;" d="M1309.565,28.596c0.042-0.356,0.224-0.682,0.505-0.904
							c0.282-0.223,0.64-0.324,0.997-0.282c1.859,0.218,5.195,0.61,7.054,0.828c0.356,0.042,0.682,0.224,0.904,0.506
							c0.222,0.281,0.324,0.64,0.282,0.996c-0.127,1.082-0.305,2.595-0.432,3.677c-0.042,0.356-0.224,0.682-0.505,0.904
							c-0.282,0.223-0.641,0.324-0.997,0.282c-1.859-0.218-5.195-0.61-7.054-0.828c-0.356-0.042-0.682-0.224-0.904-0.506
							c-0.223-0.281-0.324-0.64-0.282-0.996C1309.26,31.192,1309.438,29.678,1309.565,28.596z"/>
					</g>
					<g>
						<path style="fill-rule:evenodd;clip-rule:evenodd;fill:#00A6F2;" d="M1308.768,29.175c-0.872-0.124-1.68,0.483-1.805,1.354
							c-0.124,0.871,0.482,1.68,1.354,1.804c0.872,0.124,1.68-0.482,1.805-1.354C1310.247,30.108,1309.64,29.299,1308.768,29.175z"
							/>
					</g>
					<g>
						<path style="fill-rule:evenodd;clip-rule:evenodd;fill:#092220;" d="M1309.458,29.443l1.522,0.179
							c0.539,0.063,1.028-0.323,1.091-0.862l0.147-1.254l-2.499-0.293L1309.458,29.443z"/>
					</g>
					<g>
						<path style="fill-rule:evenodd;clip-rule:evenodd;fill:#092220;" d="M1315.164,30.113l4.675,0.549l0.262-2.231l-5.652-0.664
							l-0.147,1.254C1314.239,29.561,1314.625,30.05,1315.164,30.113z"/>
					</g>
					<g>
						<path style="fill-rule:evenodd;clip-rule:evenodd;fill:#081C1C;" d="M1312.135,30.465c0.01-0.089,0.091-0.153,0.18-0.142
							l0.645,0.076c0.089,0.01,0.153,0.091,0.143,0.18l-0.192,1.631c-0.01,0.089-0.091,0.153-0.18,0.142l-0.645-0.076
							c-0.089-0.01-0.153-0.091-0.142-0.18L1312.135,30.465z"/>
					</g>
					<g>
						<path style="fill-rule:evenodd;clip-rule:evenodd;fill:#081C1C;" d="M1316.299,30.954c0.01-0.089,0.091-0.153,0.18-0.143
							l0.645,0.076c0.089,0.01,0.153,0.091,0.142,0.18l-0.192,1.631c-0.01,0.089-0.091,0.153-0.18,0.142l-0.645-0.076
							c-0.089-0.01-0.153-0.091-0.142-0.18L1316.299,30.954z"/>
					</g>
				</g>
			</g>
			<g>
				<g style="opacity:0.2537;">
					<path style="fill-rule:evenodd;clip-rule:evenodd;fill:#515151;" d="M1301.044,51.057c0.031-0.265-0.044-0.532-0.21-0.742
						c-0.166-0.21-0.408-0.345-0.673-0.376c-2.728-0.32-10.276-1.207-13.004-1.527c-0.265-0.031-0.532,0.044-0.742,0.21
						c-0.21,0.166-0.345,0.408-0.376,0.673s0.044,0.532,0.21,0.742c0.166,0.21,0.408,0.345,0.673,0.376
						c2.728,0.32,10.276,1.207,13.004,1.527c0.265,0.031,0.532-0.044,0.742-0.21C1300.877,51.564,1301.012,51.322,1301.044,51.057z"
						/>
				</g>
				<g>
					<path style="fill-rule:evenodd;clip-rule:evenodd;fill:#092220;" d="M1290.04,23.865c0.095-0.806,0.826-1.384,1.633-1.289
						l10.082,1.184c0.806,0.095,1.384,0.826,1.289,1.633l-0.362,3.08c-0.095,0.806-0.826,1.384-1.633,1.289l-10.082-1.184
						c-0.806-0.095-1.384-0.826-1.289-1.633L1290.04,23.865z"/>
				</g>
				<g>
					<path style="fill-rule:evenodd;clip-rule:evenodd;fill:#F4CA24;" d="M1289.667,25.819c-1.026-0.121-1.957,0.615-2.077,1.641
						c-0.12,1.026,0.615,1.957,1.641,2.077c1.026,0.12,1.957-0.615,2.077-1.641C1291.428,26.87,1290.693,25.939,1289.667,25.819z"/>
				</g>
				<g>
					<path style="fill-rule:evenodd;clip-rule:evenodd;fill:#F4CA24;" d="M1302.671,27.346c-1.026-0.121-1.957,0.615-2.077,1.641
						c-0.12,1.026,0.615,1.957,1.641,2.077c1.026,0.12,1.957-0.615,2.077-1.641C1304.432,28.397,1303.697,27.466,1302.671,27.346z"
						/>
				</g>
				<g>
					<path style="fill-rule:evenodd;clip-rule:evenodd;fill:#FFE510;" d="M1290.776,26.226c0.11-0.941,0.964-1.615,1.905-1.504
						l7.594,0.892c0.941,0.11,1.615,0.964,1.504,1.905l-0.422,3.593c-0.111,0.941-0.964,1.615-1.905,1.504l-7.594-0.892
						c-0.941-0.11-1.615-0.964-1.504-1.905L1290.776,26.226z"/>
				</g>
				<g>
					
						<rect x="1295.075" y="31.176" transform="matrix(0.1166 -0.9932 0.9932 0.1166 1112.0115 1315.5927)" style="fill-rule:evenodd;clip-rule:evenodd;fill:#F4CA24;" width="1.007" height="2.985"/>
				</g>
				<g>
					<path style="fill-rule:evenodd;clip-rule:evenodd;fill:#FFE510;" d="M1299.586,33.941c-0.168-0.211-0.414-0.346-0.683-0.375
						c-0.268-0.029-0.537,0.05-0.747,0.221c0,0,0,0-0.001,0.001c-0.442,0.359-0.512,1.007-0.157,1.452
						c1.203,1.509,2.348,3.032,3.549,4.539c0.169,0.212,0.416,0.349,0.686,0.379c0.27,0.03,0.541-0.048,0.753-0.217
						c0,0,0.001-0.001,0.001-0.001c0.442-0.353,0.515-0.997,0.163-1.439C1301.947,36.989,1300.79,35.451,1299.586,33.941z"/>
				</g>
				<g>
					<path style="fill-rule:evenodd;clip-rule:evenodd;fill:#FFE510;" d="M1292.919,33.891c0.031-0.268-0.046-0.538-0.214-0.749
						c-0.168-0.211-0.414-0.346-0.683-0.375c0,0,0,0-0.001,0c-0.566-0.061-1.075,0.345-1.142,0.91
						c-0.225,1.916-0.708,6.032-0.933,7.946c-0.032,0.27,0.045,0.541,0.214,0.754c0.168,0.213,0.415,0.351,0.684,0.382
						c0,0,0.001,0,0.002,0c0.562,0.066,1.071-0.336,1.137-0.898C1292.208,39.943,1292.693,35.809,1292.919,33.891z"/>
				</g>
				<g>
					
						<rect x="1291.04" y="33.647" transform="matrix(0.1166 -0.9932 0.9932 0.1166 1107.0878 1319.064)" style="fill-rule:evenodd;clip-rule:evenodd;fill:#FE8A2B;" width="8.057" height="7.05"/>
				</g>
				<g>
					
						<rect x="1293.465" y="38.656" transform="matrix(0.1166 -0.9932 0.9932 0.1166 1101.5947 1322.8889)" style="fill-rule:evenodd;clip-rule:evenodd;fill:#54DBC2;" width="2.014" height="7.032"/>
				</g>
				<g>
					
						<rect x="1287.982" y="44.429" transform="matrix(0.1166 -0.9932 0.9932 0.1166 1095.6786 1323.772)" style="fill-rule:evenodd;clip-rule:evenodd;fill:#54DBC2;" width="8.057" height="3.022"/>
				</g>
				<g>
					
						<rect x="1290.095" y="46.805" transform="matrix(0.1166 -0.9932 0.9932 0.1166 1091.0712 1325.359)" style="fill-rule:evenodd;clip-rule:evenodd;fill:#FE8A2B;" width="1.007" height="5.036"/>
				</g>
				<g>
					
						<rect x="1291.983" y="44.899" transform="matrix(0.1166 -0.9932 0.9932 0.1166 1098.7463 1328.161)" style="fill-rule:evenodd;clip-rule:evenodd;fill:#54DBC2;" width="8.057" height="3.022"/>
				</g>
				<g>
					<path style="fill-rule:evenodd;clip-rule:evenodd;fill:#081C1C;" d="M1292.619,27.888c0.011-0.091,0.094-0.157,0.185-0.146
						l0.66,0.078c0.091,0.011,0.157,0.094,0.146,0.185l-0.2,1.707c-0.011,0.091-0.093,0.157-0.185,0.146l-0.66-0.078
						c-0.091-0.011-0.156-0.094-0.146-0.185L1292.619,27.888z"/>
				</g>
				<g>
					<path style="fill-rule:evenodd;clip-rule:evenodd;fill:#081C1C;" d="M1298.612,28.591c0.011-0.091,0.094-0.157,0.185-0.146
						l0.66,0.078c0.091,0.011,0.156,0.094,0.146,0.185l-0.2,1.707c-0.011,0.091-0.093,0.157-0.185,0.146l-0.66-0.078
						c-0.091-0.011-0.157-0.094-0.146-0.185L1298.612,28.591z"/>
				</g>
				<g>
					
						<rect x="1296.097" y="47.51" transform="matrix(0.1166 -0.9932 0.9932 0.1166 1095.6729 1331.9426)" style="fill-rule:evenodd;clip-rule:evenodd;fill:#FE8A2B;" width="1.007" height="5.036"/>
				</g>
				<g>
					<path style="fill-rule:evenodd;clip-rule:evenodd;fill:#092220;" d="M1305.216,24.166l-9.144-1.074
						c0,0-0.106,0.899-0.217,1.844c-0.14,1.191,0.712,2.27,1.904,2.41c1.457,0.171,3.373,0.396,4.83,0.567
						c1.191,0.14,2.27-0.712,2.41-1.904C1305.11,25.065,1305.216,24.166,1305.216,24.166z"/>
				</g>
			</g>
			<g>
				<g>
					<g>
						<path style="fill:#124EAF;" d="M1314.772,18.784l9.168,1.077c1.856,0.218,3.679-0.611,4.735-2.153l16.299-23.808
							l-12.186-1.431L1314.772,18.784z"/>
					</g>
					<g>
						<polygon style="fill:#5292DD;" points="1310.324,-10.17 1307.03,17.875 1314.772,18.784 1332.788,-7.532 						"/>
					</g>
					<g>
						<polygon style="fill:#3B76CC;" points="1287.86,-12.808 1299.289,16.965 1307.03,17.875 1310.324,-10.17 						"/>
					</g>
					<g>
						<g>
							<path style="fill:#124EAF;" d="M1287.86-12.808l-12.186-1.431l10.339,26.937c0.67,1.744,2.251,2.974,4.107,3.191l9.168,1.077
								L1287.86-12.808z"/>
						</g>
					</g>
				</g>
				<g>
					<g>
						<g>
							<path style="fill:#DAEDF2;" d="M1314.567,20.516c-0.271-0.032-0.539-0.128-0.78-0.293c-0.795-0.544-0.998-1.629-0.454-2.425
								l22.541-32.926c5.534-7.266,8.991-15.83,10.049-24.839c2.644-22.508-10.137-44.224-31.081-52.809
								c-0.892-0.365-1.318-1.385-0.953-2.276c0.366-0.892,1.382-1.32,2.276-0.953c22.387,9.178,36.048,32.388,33.223,56.445
								c-1.131,9.629-4.827,18.784-10.687,26.475l-22.49,32.853C1315.832,20.323,1315.19,20.589,1314.567,20.516z"/>
						</g>
						<g>
							<path style="fill:#DAEDF2;" d="M1299.087,18.698c-0.623-0.073-1.186-0.481-1.427-1.107l-14.299-37.252
								c-3.885-8.758-5.36-18.52-4.229-28.149c2.825-24.055,21.492-43.469,45.395-47.211c0.955-0.149,1.844,0.502,1.994,1.454
								c0.149,0.952-0.502,1.845-1.454,1.994c-22.362,3.5-39.826,21.663-42.47,44.171c-1.058,9.009,0.32,18.141,3.987,26.41
								l14.332,37.334c0.345,0.9-0.104,1.909-1.003,2.253C1299.641,18.699,1299.359,18.73,1299.087,18.698z"/>
						</g>
					</g>
					<g>
						<path style="fill:#DAEDF2;" d="M1306.827,19.607c-0.957-0.112-1.641-0.979-1.529-1.936l13.38-113.921
							c0.112-0.957,0.979-1.641,1.936-1.529c0.957,0.112,1.641,0.979,1.529,1.936l-13.38,113.921
							C1308.651,19.035,1307.784,19.72,1306.827,19.607z"/>
					</g>
				</g>
			</g>
			<g>
				<defs>
					<path id="SVGID_00000101071291268708585550000012713656417703097483_" d="M1317.629,65.353l-31.909-3.748
						c-1.914-0.225-3.283-1.958-3.058-3.872l1.893-16.116c0.225-1.914,1.958-3.283,3.872-3.058l31.909,3.748
						c1.914,0.225,3.283,1.958,3.058,3.872l-1.893,16.116C1321.276,64.209,1319.542,65.578,1317.629,65.353z"/>
				</defs>
				<clipPath id="SVGID_00000092427194582862313870000004202965635708259497_">
					<use xlink:href="#SVGID_00000101071291268708585550000012713656417703097483_"  style="overflow:visible;"/>
				</clipPath>
				<g style="clip-path:url(#SVGID_00000092427194582862313870000004202965635708259497_);">
					
						<rect x="1283.475" y="40.354" transform="matrix(0.9932 0.1166 -0.1166 0.9932 14.9552 -151.6364)" style="fill:#C48014;" width="39.106" height="23.204"/>
				</g>
				<g style="clip-path:url(#SVGID_00000092427194582862313870000004202965635708259497_);">
					<path style="fill:#D69625;" d="M1319.555,48.955l-31.909-3.748c-1.914-0.225-3.283-1.958-3.058-3.872l1.893-16.116
						c0.225-1.914,1.958-3.283,3.872-3.058l31.909,3.748c1.914,0.225,3.283,1.958,3.058,3.872l-1.893,16.116
						C1323.202,47.811,1321.468,49.18,1319.555,48.955z"/>
				</g>
				<g style="opacity:0.3;clip-path:url(#SVGID_00000092427194582862313870000004202965635708259497_);">
					<path style="fill:#FF8C4D;" d="M1286.609,65.1c-0.957-0.112-1.641-0.979-1.529-1.936l3.085-26.268
						c0.112-0.957,0.979-1.641,1.936-1.529s1.641,0.979,1.529,1.936l-3.085,26.268C1288.432,64.528,1287.565,65.212,1286.609,65.1z"
						/>
				</g>
				<g style="opacity:0.3;clip-path:url(#SVGID_00000092427194582862313870000004202965635708259497_);">
					<path style="fill:#FF8C4D;" d="M1293.76,65.94c-0.957-0.112-1.641-0.979-1.529-1.936l3.085-26.268
						c0.112-0.957,0.979-1.641,1.936-1.529c0.957,0.112,1.641,0.979,1.529,1.936l-3.085,26.268
						C1295.583,65.368,1294.717,66.052,1293.76,65.94z"/>
				</g>
				<g style="opacity:0.3;clip-path:url(#SVGID_00000092427194582862313870000004202965635708259497_);">
					<path style="fill:#FF8C4D;" d="M1300.911,66.78c-0.957-0.112-1.641-0.979-1.529-1.936l3.085-26.268
						c0.112-0.957,0.979-1.641,1.936-1.529s1.641,0.979,1.529,1.936l-3.085,26.268C1302.735,66.207,1301.868,66.892,1300.911,66.78z
						"/>
				</g>
				<g style="opacity:0.3;clip-path:url(#SVGID_00000092427194582862313870000004202965635708259497_);">
					<path style="fill:#FF8C4D;" d="M1308.063,67.62c-0.957-0.112-1.641-0.979-1.529-1.936l3.085-26.268
						c0.112-0.957,0.979-1.641,1.936-1.529c0.957,0.112,1.641,0.979,1.529,1.936l-3.085,26.268
						C1309.886,67.047,1309.02,67.732,1308.063,67.62z"/>
				</g>
				<g style="opacity:0.3;clip-path:url(#SVGID_00000092427194582862313870000004202965635708259497_);">
					<path style="fill:#FF8C4D;" d="M1315.214,68.459c-0.957-0.112-1.641-0.979-1.529-1.936l3.085-26.268
						c0.112-0.957,0.979-1.641,1.936-1.529s1.641,0.979,1.529,1.936l-3.085,26.268C1317.038,67.887,1316.171,68.572,1315.214,68.459
						z"/>
				</g>
				<g style="opacity:0.3;clip-path:url(#SVGID_00000092427194582862313870000004202965635708259497_);">
					<path style="fill:#FF8C4D;" d="M1323.963,56.662l-43.996-5.167c-0.957-0.112-1.641-0.979-1.529-1.936
						c0.112-0.957,0.979-1.641,1.936-1.529l43.996,5.167c0.957,0.112,1.641,0.979,1.529,1.936
						C1325.787,56.089,1324.92,56.774,1323.963,56.662z"/>
				</g>
				<g style="opacity:0.3;clip-path:url(#SVGID_00000092427194582862313870000004202965635708259497_);">
					<path style="fill:#FF8C4D;" d="M1323.187,63.269l-43.996-5.167c-0.957-0.112-1.641-0.979-1.529-1.936
						c0.112-0.957,0.979-1.641,1.936-1.529l43.996,5.167c0.957,0.112,1.641,0.979,1.529,1.936
						C1325.011,62.697,1324.144,63.382,1323.187,63.269z"/>
				</g>
			</g>
			<g>
				<path style="fill-rule:evenodd;clip-rule:evenodd;fill:#FFE510;" d="M1302.987,39.943c0.214-0.171,0.352-0.42,0.382-0.692
					c0.03-0.272-0.05-0.545-0.222-0.759c0,0,0,0,0,0c-0.352-0.437-0.991-0.507-1.43-0.158c-0.874,0.697-2.273,1.812-3.15,2.511
					c-0.213,0.169-0.349,0.416-0.379,0.686c-0.031,0.27,0.047,0.541,0.217,0.753c0,0,0.001,0.001,0.001,0.001
					c0.169,0.212,0.416,0.349,0.686,0.379c0.27,0.03,0.541-0.047,0.754-0.217C1300.718,41.752,1302.11,40.643,1302.987,39.943z"/>
			</g>
			<g>
				<path style="fill-rule:evenodd;clip-rule:evenodd;fill:#00A6F2;" d="M1312.431,41.746c0.1,0.029,0.184,0.096,0.234,0.187
					c0.05,0.09,0.062,0.197,0.033,0.297c-0.114,0.395-0.292,1.012-0.406,1.407c-0.029,0.099-0.096,0.184-0.187,0.234
					c-0.091,0.05-0.198,0.062-0.297,0.033c-1.497-0.432-6.963-2.009-6.963-2.009l0.623-2.158
					C1305.468,39.738,1310.933,41.315,1312.431,41.746z"/>
			</g>
			<g>
				<path style="fill-rule:evenodd;clip-rule:evenodd;fill:#00A6F2;" d="M1306.236,41.128c0.172-0.596-0.172-1.219-0.768-1.39
					c-0.596-0.172-1.219,0.172-1.391,0.768c-0.172,0.596,0.172,1.219,0.768,1.39C1305.441,42.068,1306.064,41.724,1306.236,41.128z"
					/>
			</g>
		</g>
		<path style="fill:#04D5D8;" d="M1336.935,108.068h-26.298c-4.918,0-8.905-3.987-8.905-8.905v0c0-4.918,3.987-8.905,8.905-8.905
			h26.298c4.918,0,8.905,3.987,8.905,8.905v0C1345.84,104.081,1341.853,108.068,1336.935,108.068z"/>
	</g>
</g>
<g id="aulas" style="display:none;">
	<g style="display:inline;">
		<rect x="368.174" style="fill-rule:evenodd;clip-rule:evenodd;fill:#FFFFFF;" width="33.652" height="145"/>
		<circle style="fill-rule:evenodd;clip-rule:evenodd;fill:#5654A2;" cx="385" cy="72.5" r="42.5"/>
	</g>
</g>
</svg>
