<?xml version="1.0" encoding="utf-8"?>
<!-- Generator: Adobe Illustrator 27.8.1, SVG Export Plug-In . SVG Version: 6.00 Build 0)  -->
<svg version="1.1" xmlns="http://www.w3.org/2000/svg" xmlns:xlink="http://www.w3.org/1999/xlink" x="0px" y="0px" width="1500px"
	 height="145px" viewBox="0 0 1500 145" style="enable-background:new 0 0 1500 145;" xml:space="preserve">
<g id="background">
	<rect x="-80.448" y="-2591.348" style="fill:#04D5D8;" width="1640.647" height="4034.435"/>
	<path style="fill:#4EEAE6;" d="M1086.327,381.512c-49.706,0-90-40.294-90-90v-134.57c0-49.706,40.294-90,90-90h1.646
		c5.523,0,10-4.477,10-10V50c0-5.523-4.477-10-10-10H898.671c-5.523,0-10,4.477-10,10v0c0,114.599-92.901,207.5-207.5,207.5H580.273
		c-11.046,0-20,8.954-20,20v4.012c0,55.228-44.772,100-100,100H177.596c-55.228,0-100-44.772-100-100v-28.561
		c0-11.046-8.954-20-20-20H-8.858V-867.428h250.766c6.415,0,11.615-5.2,11.615-11.615v0c0-42.526,34.474-77,77-77h71.434
		c8.402,0,15.648-5.903,17.343-14.133c7.213-35.029,38.29-61.45,75.422-61.45h144.932c42.526,0,77,34.474,77,77v74.76
		c0,39.977,32.408,72.384,72.384,72.384h64.547c42.751,0,77.86,33.144,81.659,74.952c0.389,4.279,4.029,7.529,8.326,7.529h94.125
		c4.459,0,8.126-3.497,8.354-7.951c4.139-80.754,71-143.599,152.874-143.599h362.181V244.68h-269.837
		c-25.865,0-46.832,20.967-46.832,46.832v0c0,49.706-40.294,90-90,90H1086.327z"/>
	<g>
		<path style="fill:#FFED8B;" d="M1034.372-286.94L1034.372-286.94c0-51.28,41.571-92.851,92.85-92.851h57.665
			c32.387,0,58.642-26.255,58.642-58.642l0,0c0-32.387,26.255-58.642,58.642-58.642h218.932v-339.474h-322.181
			c-62.45,0-113.076,50.626-113.076,113.076v0c0,23.196-18.804,42-42,42H937.585c-23.196,0-42-18.804-42-42v-2.009
			c0-23.196-18.804-42-42-42H777.81c-55.867,0-101.156-45.289-101.156-101.156v-85.988c0-20.435-16.565-37-37-37H494.722
			c-20.435,0-37,16.565-37,37v1.583c0,20.435-16.565,37-37,37h-77.199c-27.614,0-50,22.386-50,50v1.615c0,20.435-16.565,37-37,37
			H-42.694V192.951H57.596c33.137,0,60,26.863,60,60v28.561c0,33.137,26.863,60,60,60h282.678c33.137,0,60-26.863,60-60V277.5
			c0-33.137,26.863-60,60-60h100.898c92.508,0,167.5-74.992,167.5-167.5v0c0-27.614,22.386-50,50-50l189.302,0
			c27.614,0,50,22.386,50,50v6.942c0,27.614-22.386,50-50,50h-1.647c-27.614,0-50,22.386-50,50v134.57c0,27.614,22.386,50,50,50
			h68.108c27.614,0,50-22.386,50-50v0c0-47.956,38.876-86.832,86.832-86.832h229.837v-328.037c0-39.064-31.668-70.732-70.732-70.732
			h-323.15C1075.943-194.089,1034.372-235.66,1034.372-286.94z"/>
		<g>
			<g>
				<path style="fill:#2EC624;" d="M1198.924-776.549c-29.313,0-53.076,23.763-53.076,53.076v0c0,56.333-45.667,102-102,102H690.26
					c-40.652,0-73.606-32.955-73.606-73.606v-210.547c0-14.359-11.641-26-26-26h-56.442c-10.394,0-19.895,6.146-23.89,15.742
					c-14.612,35.099-49.272,59.841-89.6,59.841h-46.653c-11.17,0-21.157,7.295-24.204,18.042
					c-11.534,40.685-49.013,70.574-93.342,70.574H-12.798l-11.374,905.641l115.314-0.491c49.895,14.55,86.454,60.7,86.454,115.229
					l0,0.695c0.001,13.259,10.754,24.004,24.012,23.997l236.679-0.131c11.698-0.007,21.708-8.443,23.64-19.98
					c9.508-56.77,58.875-100.032,118.346-100.032h100.898c59.37,0,107.5-48.129,107.5-107.5v0c0-60.751,49.249-110,110-110h189.003
					c21.384,0,38.798-17.186,39.08-38.568l0,0c0.246-18.686-12.768-34.942-31.062-38.758c-28.801-6.009-55.263-20.244-76.552-41.532
					c-28.869-28.87-44.769-67.254-44.769-108.082s15.899-79.212,44.769-108.081c28.87-28.869,67.254-44.769,108.082-44.769h28.622
					c14.589,0,27.327-10.069,30.48-24.313c11.76-53.123,59.237-92.972,115.846-92.972h312.76v-219.474H1198.924z"/>
				<g>
					
						<path style="fill:none;stroke:#2EC624;stroke-width:10;stroke-linecap:round;stroke-linejoin:round;stroke-dasharray:0,9.9826;" d="
						M-14.19,138.171l105.332-0.449c49.895,14.55,86.454,60.7,86.454,115.229l0,0.695c0.001,13.259,10.754,24.004,24.012,23.997
						l236.679-0.131c11.698-0.007,21.708-8.443,23.64-19.98c9.508-56.77,58.875-100.032,118.346-100.032h100.898
						c59.37,0,107.5-48.129,107.5-107.5v0c0-60.751,49.249-110,110-110h189.003c21.384,0,38.798-17.186,39.08-38.568
						c0.246-18.686-12.768-34.942-31.062-38.758c-28.801-6.009-55.263-20.244-76.552-41.532
						c-28.869-28.87-44.769-67.254-44.769-108.082s15.899-79.212,44.769-108.081c28.87-28.869,67.254-44.769,108.082-44.769h28.622
						c14.589,0,27.327-10.069,30.48-24.313c11.76-53.123,59.237-92.972,115.846-92.972h307.769"/>
				</g>
			</g>
		</g>
	</g>
	<g>
		<path style="fill:#1BAF10;" d="M903.404-419.081v168.5c0,30.12-24.417,54.537-54.537,54.537h-80.08
			c-29.292,0-53.038,23.746-53.038,53.038V10.899c0,29.292-23.746,53.038-53.038,53.038H479.224
			c-37.785,0-68.416,30.631-68.416,68.416v0c0,37.785-30.631,68.416-68.416,68.416h-33.231c-37.785,0-68.416-30.631-68.416-68.416
			V48.299c0-37.785-30.631-68.416-68.416-68.416H-5.553c-15.114,0-27.366-12.252-27.366-27.366v-603.975
			c0-15.114,12.252-27.366,27.366-27.366h253.161c41.552,0,75.237,33.685,75.237,75.237v0c0,41.552,33.685,75.237,75.237,75.237
			h247.297c15.114,0,27.366,12.252,27.366,27.366v0c0,15.114,12.252,27.366,27.366,27.366h148.757
			C878.987-473.618,903.404-449.201,903.404-419.081z"/>
		
			<path style="fill:none;stroke:#1BAF10;stroke-width:10;stroke-linecap:round;stroke-linejoin:round;stroke-dasharray:0,10.001;" d="
			M903.404-419.081v168.5c0,30.12-24.417,54.537-54.537,54.537h-80.08c-29.292,0-53.038,23.746-53.038,53.038V10.899
			c0,29.292-23.746,53.038-53.038,53.038H479.224c-37.785,0-68.416,30.631-68.416,68.416v0c0,37.785-30.631,68.416-68.416,68.416
			h-33.231c-37.785,0-68.416-30.631-68.416-68.416V48.299c0-37.785-30.631-68.416-68.416-68.416H-5.553
			c-15.114,0-27.366-12.252-27.366-27.366v-603.975c0-15.114,12.252-27.366,27.366-27.366h253.161
			c41.552,0,75.237,33.685,75.237,75.237v0c0,41.552,33.685,75.236,75.237,75.236h247.297c15.114,0,27.366,12.252,27.366,27.366v0
			c0,15.114,12.252,27.366,27.366,27.366h148.757C878.987-473.618,903.404-449.201,903.404-419.081z"/>
	</g>
	<g>
		<g style="opacity:0.3;">
			<defs>
				<path id="SVGID_00000149357822970656678280000004145166083262224028_" style="opacity:0.3;" d="M336.125-79.955V-169.7
					c0-32.162-26.05-58.234-58.185-58.234H-60.887c-10.803,0-19.561,8.758-19.561,19.561c0,10.803-8.758,19.561-19.561,19.561
					h-159.717v-59.271c-11.79-12.068-19.067-28.57-19.067-46.781v-128.364c0-18.211,7.277-34.714,19.067-46.781v-127.094h125.851
					c29.507,0,53.427,23.94,53.427,53.472v0c0,29.532,23.92,53.472,53.427,53.472H165.83c22.148,0,40.102,17.954,40.102,40.102
					v26.828c0,36.964,29.94,66.93,66.873,66.93h154.62h12.544c13.535,0,24.507-10.972,24.507-24.507v-8.366
					c0-13.535,10.972-24.507,24.507-24.507h213.516c13.535,0,24.507,10.973,24.507,24.507v105.031
					c0,13.535-10.972,24.507-24.507,24.507h0c-13.535,0-24.507,10.972-24.507,24.507v75.937c0,13.535-10.972,24.507-24.507,24.507
					h-64.225c-13.535,0-24.507,10.972-24.507,24.507v28.788c0,13.535-10.972,24.507-24.507,24.507H359.2
					C346.457-56.88,336.125-67.211,336.125-79.955z"/>
			</defs>
			<clipPath id="SVGID_00000102530771059955746620000008840186649461366432_">
				<use xlink:href="#SVGID_00000149357822970656678280000004145166083262224028_"  style="overflow:visible;"/>
			</clipPath>
		</g>
	</g>
	<g style="opacity:0.35;">
		<g>
			
				<ellipse transform="matrix(0.5414 -0.8408 0.8408 0.5414 541.2225 1214.5281)" style="opacity:0.6;fill-rule:evenodd;clip-rule:evenodd;fill:#FFAD38;" cx="1383.881" cy="111.165" rx="1.857" ry="1.856"/>
			
				<ellipse transform="matrix(0.5414 -0.8408 0.8408 0.5414 539.6393 1207.7262)" style="opacity:0.6;fill-rule:evenodd;clip-rule:evenodd;fill:#FFAD38;" cx="1376.855" cy="109.215" rx="1.857" ry="1.856"/>
			
				<ellipse transform="matrix(0.5414 -0.8408 0.8408 0.5414 545.2407 1208.5675)" style="opacity:0.6;fill-rule:evenodd;clip-rule:evenodd;fill:#FFAD38;" cx="1380.427" cy="104.501" rx="1.857" ry="1.856"/>
			
				<ellipse transform="matrix(0.5414 -0.8408 0.8408 0.5414 539.9724 1193.1918)" style="opacity:0.6;fill-rule:evenodd;clip-rule:evenodd;fill:#FFAD38;" cx="1363.699" cy="101.642" rx="1.857" ry="1.856"/>
			
				<ellipse transform="matrix(0.5414 -0.8408 0.8408 0.5414 529.5789 1199.2018)" style="opacity:0.6;fill-rule:evenodd;clip-rule:evenodd;fill:#FFAD38;" cx="1364.011" cy="114.174" rx="1.857" ry="1.856"/>
		</g>
	</g>
	<g style="opacity:0.35;">
		<g>
			
				<ellipse transform="matrix(0.5414 -0.8408 0.8408 0.5414 480.0962 1086.2216)" style="opacity:0.6;fill-rule:evenodd;clip-rule:evenodd;fill:#FFAD38;" cx="1235.709" cy="103.041" rx="1.857" ry="1.856"/>
			
				<ellipse transform="matrix(0.5414 -0.8408 0.8408 0.5414 478.513 1079.4197)" style="opacity:0.6;fill-rule:evenodd;clip-rule:evenodd;fill:#FFAD38;" cx="1228.682" cy="101.092" rx="1.857" ry="1.856"/>
			
				<ellipse transform="matrix(0.5414 -0.8408 0.8408 0.5414 484.1143 1080.261)" style="opacity:0.6;fill-rule:evenodd;clip-rule:evenodd;fill:#FFAD38;" cx="1232.254" cy="96.378" rx="1.857" ry="1.856"/>
			
				<ellipse transform="matrix(0.5414 -0.8408 0.8408 0.5414 478.846 1064.8853)" style="opacity:0.6;fill-rule:evenodd;clip-rule:evenodd;fill:#FFAD38;" cx="1215.526" cy="93.519" rx="1.857" ry="1.856"/>
			
				<ellipse transform="matrix(0.5414 -0.8408 0.8408 0.5414 468.4525 1070.8954)" style="opacity:0.6;fill-rule:evenodd;clip-rule:evenodd;fill:#FFAD38;" cx="1215.839" cy="106.051" rx="1.857" ry="1.856"/>
		</g>
	</g>
	<g style="opacity:0.35;">
		<g>
			
				<ellipse transform="matrix(0.5414 -0.8408 0.8408 0.5414 622.7124 1219.2927)" style="opacity:0.6;fill-rule:evenodd;clip-rule:evenodd;fill:#FFAD38;" cx="1428.994" cy="38.851" rx="1.857" ry="1.856"/>
			
				<ellipse transform="matrix(0.5414 -0.8408 0.8408 0.5414 621.1292 1212.4908)" style="opacity:0.6;fill-rule:evenodd;clip-rule:evenodd;fill:#FFAD38;" cx="1421.967" cy="36.901" rx="1.857" ry="1.856"/>
			
				<ellipse transform="matrix(0.5414 -0.8408 0.8408 0.5414 626.7305 1213.3322)" style="opacity:0.6;fill-rule:evenodd;clip-rule:evenodd;fill:#FFAD38;" cx="1425.539" cy="32.188" rx="1.857" ry="1.856"/>
			
				<ellipse transform="matrix(0.5414 -0.8408 0.8408 0.5414 621.4622 1197.9563)" style="opacity:0.6;fill-rule:evenodd;clip-rule:evenodd;fill:#FFAD38;" cx="1408.811" cy="29.329" rx="1.857" ry="1.856"/>
			
				<ellipse transform="matrix(0.5414 -0.8408 0.8408 0.5414 611.0687 1203.9664)" style="opacity:0.6;fill-rule:evenodd;clip-rule:evenodd;fill:#FFAD38;" cx="1409.123" cy="41.861" rx="1.857" ry="1.856"/>
		</g>
	</g>
</g>
<g id="Details">
	<g>
		<path style="fill:#F2C100;" d="M627.542,143.282c-0.073-0.023-0.076-0.016-0.146-0.038c-0.151-0.032-0.248-0.007-0.421,0.003
			c-0.545,0.07-1.101,0.452-1.52,1.031c-0.135,0.086-0.208,0.211-0.278,0.333c-0.035,0.062-0.07,0.123-0.111,0.192l-24.831,43.011
			l3.617-0.014l23.921-41.435c0.041-0.069,0.076-0.13,0.111-0.192c0.108-0.185,0.219-0.376,0.259-0.59
			c0.251-0.731,0.238-1.435-0.084-1.893c-0.094-0.128-0.138-0.198-0.262-0.277c-0.059-0.036-0.124-0.073-0.124-0.073
			C627.606,143.312,627.601,143.319,627.542,143.282z"/>
		<path style="fill:#8100FF;" d="M593.882,146.719c7.602-13.168,24.434-17.678,37.603-10.075
			c13.169,7.603,17.677,24.435,10.075,37.603L593.882,146.719z"/>
		<g transform="matrix(0.75944,-0.438463,0.438463,0.75944,-28282.3,20880.8)">
			<defs>
				<path id="SVGID_00000090265051796516941660000011505289778263008408_" d="M593.882,146.719
					c7.602-13.168,24.434-17.678,37.603-10.075c13.169,7.603,17.677,24.435,10.075,37.603L593.882,146.719z"/>
			</defs>
			<clipPath id="SVGID_00000127020536914822642590000011451935894114866843_">
				<use xlink:href="#SVGID_00000090265051796516941660000011505289778263008408_"  style="overflow:visible;"/>
			</clipPath>
			<path style="clip-path:url(#SVGID_00000127020536914822642590000011451935894114866843_);fill:#5C00C6;" d="M632.195,136.478
				c1.422,3.591,2.334,7.327,2.76,11.133c0.018,0.174,0.079,0.201,0.025,0.614c0,0,0.077,0.93,0.114,1.558
				c0.933,15.784-7.294,31.269-20.559,39.4c-1.745,1.069-3.837,2.159-4.93,2.647c-3.425,1.534-7.087,2.624-10.801,3.217
				c-0.51,0.081-1.131-0.217-1.282-0.6c-4.132-10.432-3.95-22.85,0.627-33.263c5.877-13.373,18.858-23.179,33.131-25.365
				C631.973,135.772,632.086,136.201,632.195,136.478z M630.803,137.48c-8.299,1.418-16.12,5.374-22.144,11.24
				c-11.881,11.565-15.594,29.745-9.844,44.74l0.097-0.017c2.817-0.481,5.589-1.242,8.255-2.287
				c0.932-0.366,2.094-0.937,2.094-0.937c14.612-6.702,24.289-22,24.343-37.741c0.008-2.161-0.187-4.53-0.187-4.53
				c-0.381-3.544-1.215-7.043-2.479-10.383C630.868,137.376,630.803,137.48,630.803,137.48z"/>
		</g>
	</g>
	<g>
		<path style="fill:#FDB015;" d="M1139.334,184.677c9.056-15.685,3.685-35.732-12-44.788c-15.684-9.056-35.733-3.685-44.789,12
			L1139.334,184.677z"/>
		<g transform="matrix(0.882782,0.509674,-0.509674,0.882782,-31659.3,-16299.7)">
			<defs>
				<path id="SVGID_00000028323157878699176600000001634370188287452055_" d="M1139.334,184.677
					c9.056-15.685,3.685-35.732-12-44.788c-15.684-9.056-35.733-3.685-44.789,12L1139.334,184.677z"/>
			</defs>
			<clipPath id="SVGID_00000096778933305154700660000005414377436517429909_">
				<use xlink:href="#SVGID_00000028323157878699176600000001634370188287452055_"  style="overflow:visible;"/>
			</clipPath>
			<path style="clip-path:url(#SVGID_00000096778933305154700660000005414377436517429909_);fill:#FD8E0C;" d="M1104.645,195.523
				c-3.647,1.633-7.525,2.765-11.534,3.338c-1.47-3.744-2.397-7.638-2.785-11.564l0.039-0.067
				c-0.933-9.536,1.295-19.291,6.635-27.65c4.625-7.239,11.183-12.799,18.74-16.214l0.038-0.067
				c3.671-1.654,7.58-2.798,11.621-3.376c1.468,3.743,2.397,7.639,2.785,11.564l0.011,0.112c0.929,9.531-1.301,19.278-6.638,27.631
				c-4.641,7.267-11.232,12.842-18.825,16.254L1104.645,195.523z"/>
		</g>
	</g>
	<g>
		<g>
			<g>
				<g>
					<g>
						<path style="fill:#704A45;" d="M111.603,44.265h16.356l4.433,40.447c0.246,2.242-1.511,4.2-3.768,4.2h-17.765
							c-2.26,0-4.018-1.963-3.767-4.207L111.603,44.265z"/>
						<g>
							<defs>
								<path id="SVGID_00000043457054234278988930000006331983852352580746_" d="M111.603,44.265h16.356l4.433,40.447
									c0.246,2.242-1.511,4.2-3.768,4.2h-17.765c-2.26,0-4.018-1.963-3.767-4.207L111.603,44.265z"/>
							</defs>
							<clipPath id="SVGID_00000085953544502833683020000000234327326947272336_">
								<use xlink:href="#SVGID_00000043457054234278988930000006331983852352580746_"  style="overflow:visible;"/>
							</clipPath>
							
								<path style="clip-path:url(#SVGID_00000085953544502833683020000000234327326947272336_);fill-rule:evenodd;clip-rule:evenodd;fill:#5D4136;" d="
								M119.729,73.503l13.371-9.736c7.385-5.378,8.22-16.074,1.758-22.53l-4.677-4.673l-20.904,0l-4.677,4.673
								c-6.462,6.456-5.627,17.152,1.758,22.53L119.729,73.503z"/>
						</g>
					</g>
					<g>
						<g>
							<path style="fill-rule:evenodd;clip-rule:evenodd;fill:#A7C000;" d="M119.741,42.796c0,5.783-2.299,11.331-6.393,15.422
								s-9.647,6.388-15.438,6.388c-10.966,0-21.957,0-21.957,0s0-6.749,0-14.419c0-5.786,2.299-11.334,6.393-15.425
								c4.094-4.088,9.647-6.388,15.438-6.388c10.966,0,21.957,0,21.957,0S119.741,35.123,119.741,42.796z"/>
							<g>
								<defs>
									<path id="SVGID_00000126317302743932231570000013625347862196634775_" d="M119.741,42.796
										c0,5.783-2.299,11.331-6.393,15.422s-9.647,6.388-15.438,6.388c-10.966,0-21.957,0-21.957,0s0-6.749,0-14.419
										c0-5.786,2.299-11.334,6.393-15.425c4.094-4.088,9.647-6.388,15.438-6.388c10.966,0,21.957,0,21.957,0
										S119.741,35.123,119.741,42.796z"/>
								</defs>
								<clipPath id="SVGID_00000060730897090345663710000010431840855598937984_">
									<use xlink:href="#SVGID_00000126317302743932231570000013625347862196634775_"  style="overflow:visible;"/>
								</clipPath>
								
									<polygon style="clip-path:url(#SVGID_00000060730897090345663710000010431840855598937984_);fill-rule:evenodd;clip-rule:evenodd;fill:#7E9E00;" points="
									119.741,28.374 70.877,70.14 119.741,70.14 								"/>
								
									<rect x="69.595" y="43.496" transform="matrix(0.7745 -0.6325 0.6325 0.7745 -7.1806 72.3174)" style="clip-path:url(#SVGID_00000060730897090345663710000010431840855598937984_);fill-rule:evenodd;clip-rule:evenodd;fill:#BAD000;" width="56.505" height="5.47"/>
								
									<path style="opacity:0.5;clip-path:url(#SVGID_00000060730897090345663710000010431840855598937984_);fill-rule:evenodd;clip-rule:evenodd;fill:#3F7C37;" d="
									M94.198,66.968h5.474c0,0,0-5.677,0-9.199c0-1.509-1.226-2.734-2.737-2.734c-1.511,0-2.737,1.225-2.737,2.734
									C94.198,61.291,94.198,66.968,94.198,66.968z"/>
								
									<path style="opacity:0.5;clip-path:url(#SVGID_00000060730897090345663710000010431840855598937984_);fill-rule:evenodd;clip-rule:evenodd;fill:#3F7C37;" d="
									M105.145,67.373h5.473c0,0,0-12.488,0-18.151c0-1.509-1.223-2.732-2.734-2.732c-0.003,0-0.003,0-0.006,0
									c-1.511,0-2.734,1.222-2.734,2.732C105.145,54.884,105.145,67.373,105.145,67.373z"/>
								
									<path style="opacity:0.75;clip-path:url(#SVGID_00000060730897090345663710000010431840855598937984_);fill-rule:evenodd;clip-rule:evenodd;fill:#7E9E00;" d="
									M75.953,49.276v-5.179c0,0,5.118,0,8.355,0c0.687,0,1.346,0.273,1.834,0.76C86.627,45.341,86.9,46,86.9,46.687l0,0
									c0,0.689-0.274,1.345-0.758,1.832c-0.487,0.487-1.147,0.757-1.834,0.757C81.071,49.276,75.953,49.276,75.953,49.276z"/>
								
									<path style="opacity:0.75;clip-path:url(#SVGID_00000060730897090345663710000010431840855598937984_);fill-rule:evenodd;clip-rule:evenodd;fill:#7E9E00;" d="
									M75.953,38.628v-5.469c0,0,11.13,0,16.423,0c1.511,0,2.734,1.222,2.734,2.732c0,0.003,0,0.005,0,0.005
									c0,1.509-1.223,2.732-2.734,2.732C87.084,38.628,75.953,38.628,75.953,38.628z"/>
							</g>
						</g>
						<g>
							<path style="fill-rule:evenodd;clip-rule:evenodd;fill:#A7C000;" d="M119.741,42.796c0,5.783,2.299,11.331,6.393,15.422
								s9.647,6.388,15.438,6.388c10.966,0,21.957,0,21.957,0s0-6.749,0-14.419c0-5.786-2.299-11.334-6.393-15.425
								c-4.094-4.088-9.647-6.388-15.438-6.388c-10.966,0-21.957,0-21.957,0S119.741,35.123,119.741,42.796z"/>
							<g>
								<defs>
									<path id="SVGID_00000004524850395761260180000010759859909112476074_" d="M119.741,42.796
										c0,5.783,2.299,11.331,6.393,15.422s9.647,6.388,15.438,6.388c10.966,0,21.957,0,21.957,0s0-6.749,0-14.419
										c0-5.786-2.299-11.334-6.393-15.425c-4.094-4.088-9.647-6.388-15.438-6.388c-10.966,0-21.957,0-21.957,0
										S119.741,35.123,119.741,42.796z"/>
								</defs>
								<clipPath id="SVGID_00000057828536110232474110000007347403877221168052_">
									<use xlink:href="#SVGID_00000004524850395761260180000010759859909112476074_"  style="overflow:visible;"/>
								</clipPath>
								
									<polygon style="clip-path:url(#SVGID_00000057828536110232474110000007347403877221168052_);fill-rule:evenodd;clip-rule:evenodd;fill:#7E9E00;" points="
									119.741,28.374 168.606,70.14 119.741,70.14 								"/>
								
									<rect x="138.9" y="17.978" transform="matrix(0.632 -0.775 0.775 0.632 16.2924 126.7725)" style="clip-path:url(#SVGID_00000057828536110232474110000007347403877221168052_);fill-rule:evenodd;clip-rule:evenodd;fill:#BAD000;" width="5.47" height="56.505"/>
								
									<path style="opacity:0.5;clip-path:url(#SVGID_00000057828536110232474110000007347403877221168052_);fill-rule:evenodd;clip-rule:evenodd;fill:#3F7C37;" d="
									M145.284,66.968h-5.473c0,0,0-5.677,0-9.199c0-1.509,1.226-2.734,2.737-2.734c1.511,0,2.737,1.225,2.737,2.734
									C145.284,61.291,145.284,66.968,145.284,66.968z"/>
								
									<path style="opacity:0.5;clip-path:url(#SVGID_00000057828536110232474110000007347403877221168052_);fill-rule:evenodd;clip-rule:evenodd;fill:#3F7C37;" d="
									M134.337,67.373h-5.474c0,0,0-12.485,0-18.148c0-0.725,0.287-1.419,0.802-1.933c0.512-0.511,1.21-0.801,1.935-0.801
									s1.423,0.29,1.935,0.801c0.515,0.514,0.802,1.209,0.802,1.933C134.337,54.887,134.337,67.373,134.337,67.373z"/>
								
									<path style="opacity:0.75;clip-path:url(#SVGID_00000057828536110232474110000007347403877221168052_);fill-rule:evenodd;clip-rule:evenodd;fill:#7E9E00;" d="
									M163.529,49.566v-5.469c0,0-4.97,0-8.213,0c-0.725,0-1.42,0.287-1.932,0.801c-0.515,0.511-0.802,1.206-0.802,1.931
									c0,0.003,0,0.005,0,0.005c0,0.725,0.287,1.419,0.802,1.933c0.512,0.511,1.207,0.798,1.932,0.798
									C158.559,49.566,163.529,49.566,163.529,49.566z"/>
								
									<path style="opacity:0.75;clip-path:url(#SVGID_00000057828536110232474110000007347403877221168052_);fill-rule:evenodd;clip-rule:evenodd;fill:#7E9E00;" d="
									M163.529,38.628v-5.469c0,0-11.128,0-16.421,0c-0.725,0-1.423,0.29-1.935,0.801c-0.515,0.514-0.802,1.209-0.802,1.933
									s0.287,1.422,0.802,1.933c0.512,0.514,1.21,0.801,1.935,0.801C152.402,38.628,163.529,38.628,163.529,38.628z"/>
							</g>
						</g>
						<g>
							<defs>
								<path id="SVGID_00000079481257791072418580000013372920014618633870_" d="M82.347,34.762
									c4.094-4.088,9.646-6.387,15.437-6.387c10.967,0,21.958,0,21.958,0s10.99,0,21.956,0c5.791,0,11.344,2.3,15.439,6.387
									c4.093,4.091,6.393,9.639,6.393,15.425c0,7.67,0,14.419,0,14.419s-10.992,0-21.958,0c-5.791,0-11.343-2.297-15.437-6.388
									s-6.393-9.639-6.393-15.422c0,5.783-2.3,11.331-6.393,15.422c-4.094,4.091-9.648,6.388-15.439,6.388
									c-10.967,0-21.956,0-21.956,0s0-6.749,0-14.419C75.954,44.401,78.252,38.852,82.347,34.762z"/>
							</defs>
							<clipPath id="SVGID_00000155116411698274685240000004944129700591072414_">
								<use xlink:href="#SVGID_00000079481257791072418580000013372920014618633870_"  style="overflow:visible;"/>
							</clipPath>
						</g>
						<g>
							<path style="fill-rule:evenodd;clip-rule:evenodd;fill:#BAD000;" d="M119.729,64.605l13.115-9.549
								c7.244-5.275,8.062-15.766,1.725-22.098l-4.588-4.584l-20.503,0l-4.588,4.584c-6.338,6.333-5.519,16.824,1.725,22.098
								L119.729,64.605z"/>
							<g>
								<defs>
									<path id="SVGID_00000116198773669275149040000014189298312645512852_" d="M119.729,64.605l13.115-9.549
										c7.244-5.275,8.062-15.766,1.725-22.098l-4.588-4.584l-20.503,0l-4.588,4.584c-6.338,6.333-5.519,16.824,1.725,22.098
										L119.729,64.605z"/>
								</defs>
								<clipPath id="SVGID_00000036933979200228078780000010231626710348584370_">
									<use xlink:href="#SVGID_00000116198773669275149040000014189298312645512852_"  style="overflow:visible;"/>
								</clipPath>
								<g style="clip-path:url(#SVGID_00000036933979200228078780000010231626710348584370_);">
									
										<rect x="99.038" y="26.714" transform="matrix(-1 -4.492419e-11 4.492419e-11 -1 218.7676 92.6663)" style="fill:#7E9E00;" width="20.691" height="39.238"/>
								</g>
								<g style="clip-path:url(#SVGID_00000036933979200228078780000010231626710348584370_);">
									<rect x="117.003" y="24.424" style="fill:#D4E214;" width="5.474" height="47.694"/>
								</g>
								<g style="clip-path:url(#SVGID_00000036933979200228078780000010231626710348584370_);">
									<g style="opacity:0.5;">
										<path style="fill:#7E9E00;" d="M139.147,48.352c0.891,0,1.767-0.434,2.291-1.234c0.83-1.264,0.477-2.959-0.788-3.787
											l-11.125-7.292c-1.265-0.833-2.961-0.474-3.788,0.785c-0.83,1.264-0.478,2.959,0.788,3.787l11.125,7.292
											C138.113,48.208,138.633,48.352,139.147,48.352z"/>
									</g>
									<g style="opacity:0.5;">
										<path style="fill:#3F7C37;" d="M100.337,48.352c0.513,0,1.033-0.144,1.497-0.449l11.122-7.292
											c1.265-0.828,1.618-2.523,0.788-3.787c-0.827-1.259-2.512-1.62-3.788-0.785l-11.122,7.292
											c-1.265,0.828-1.618,2.523-0.788,3.787C98.569,47.918,99.446,48.352,100.337,48.352z"/>
									</g>
									<g>
										<path style="opacity:0.5;fill:#7E9E00;" d="M139.147,60.821c0.891,0,1.767-0.434,2.291-1.234
											c0.83-1.264,0.477-2.959-0.788-3.787l-11.125-7.292c-1.265-0.833-2.961-0.474-3.788,0.785
											c-0.83,1.264-0.478,2.959,0.788,3.787l11.125,7.292C138.113,60.677,138.633,60.821,139.147,60.821z"/>
									</g>
									<g style="opacity:0.5;">
										<path style="fill:#3F7C37;" d="M100.337,60.821c0.513,0,1.033-0.144,1.497-0.449l11.122-7.292
											c1.265-0.828,1.618-2.523,0.788-3.787c-0.827-1.259-2.512-1.62-3.788-0.785l-11.122,7.292
											c-1.265,0.828-1.618,2.523-0.788,3.787C98.569,60.387,99.446,60.821,100.337,60.821z"/>
									</g>
								</g>
							</g>
						</g>
					</g>
				</g>
			</g>
		</g>
		
			<line style="fill:#2EC624;stroke:#2EC624;stroke-width:10;stroke-linecap:round;stroke-linejoin:round;stroke-miterlimit:10;stroke-dasharray:0,10;" x1="97.508" y1="88.912" x2="141.976" y2="88.427"/>
	</g>
	<g>
		<path style="fill-rule:evenodd;clip-rule:evenodd;fill:#1BAF10;" d="M659.185,114.57h-20.783c-1.042,0-1.895-0.853-1.895-1.895
			l0,0c0-1.042,0.853-1.895,1.895-1.895h20.783c1.042,0,1.895,0.853,1.895,1.895l0,0C661.08,113.717,660.227,114.57,659.185,114.57z
			"/>
		<g>
			<g>
				<path style="fill-rule:evenodd;clip-rule:evenodd;fill:#F69129;" d="M637.389,94.846c-0.456-0.472-0.443-1.224,0.029-1.68
					l4.252-4.088c0.417-0.401,1.081-0.389,1.483,0.027l0.192,0.199c0.404,0.418,0.391,1.084-0.027,1.487l-4.248,4.084
					C638.598,95.331,637.845,95.318,637.389,94.846L637.389,94.846z"/>
				<g>
					<path style="fill-rule:evenodd;clip-rule:evenodd;fill:#005437;" d="M639.797,90.047l2.36,2.53l2.021-1.951
						c0.75-0.724,0.65-1.953-0.207-2.546c-0.117-0.081-0.233-0.161-0.344-0.239c-0.566-0.392-1.33-0.32-1.814,0.169L639.797,90.047z
						"/>
				</g>
				<path style="fill-rule:evenodd;clip-rule:evenodd;fill:#F69129;" d="M639.131,93.232c-1.328-1.502-3.036-3.434-4.059-4.59
					c-0.232-0.262-0.629-0.286-0.891-0.054c-0.258,0.228-0.576,0.509-0.834,0.738c-0.262,0.232-0.285,0.631-0.053,0.893l4.057,4.588
					c0.435,0.492,1.186,0.538,1.677,0.103l0,0C639.519,94.474,639.566,93.724,639.131,93.232z"/>
			</g>
			
				<rect x="642.71" y="97.456" transform="matrix(-1 -4.618362e-11 4.618362e-11 -1 1292.1155 196.8537)" style="fill-rule:evenodd;clip-rule:evenodd;fill:#1E3272;" width="6.696" height="1.942"/>
			<path style="fill-rule:evenodd;clip-rule:evenodd;fill:#F69129;" d="M642.723,98.637l-0.071,6.301
				c-0.008,0.75,0.61,1.356,1.359,1.333l0,0c0.706-0.022,1.27-0.597,1.278-1.304l0.068-6.301c0.008-0.749-0.609-1.354-1.358-1.331
				l0,0C643.294,97.357,642.731,97.931,642.723,98.637z"/>
			<path style="fill-rule:evenodd;clip-rule:evenodd;fill:#F69129;" d="M642.653,104.952v7.723h2.634v-7.705
				c0.005-0.749-0.615-1.352-1.363-1.325l0,0C643.219,103.67,642.658,104.246,642.653,104.952z"/>
			<path style="fill-rule:evenodd;clip-rule:evenodd;fill:#081C1C;" d="M645.276,111.317c0,0-2.215,0-3.555,0
				c-0.254,0-0.497,0.101-0.676,0.28s-0.28,0.423-0.28,0.676c0,0.226,0,0.403,0,0.403h4.511V111.317z"/>
			<path style="fill-rule:evenodd;clip-rule:evenodd;fill:#1E3272;" d="M645.865,97.088l-3.092-0.815l-0.231,0.443
				c-0.22,0.422-0.321,0.896-0.293,1.371l0.139,6.32h3.095L645.865,97.088z"/>
			<path style="fill-rule:evenodd;clip-rule:evenodd;fill:#F69129;" d="M646.908,98.686l1.804,6.037
				c0.215,0.719,0.985,1.114,1.694,0.869l0,0c0.668-0.231,1.035-0.947,0.833-1.624l-1.807-6.037
				c-0.215-0.718-0.984-1.112-1.692-0.867l0,0C647.073,97.295,646.706,98.01,646.908,98.686z"/>
			<path style="fill-rule:evenodd;clip-rule:evenodd;fill:#F69129;" d="M648.866,105.062l4.197,6.484l2.211-1.432l-4.187-6.468
				c-0.403-0.632-1.25-0.801-1.865-0.372h0C648.644,103.678,648.487,104.466,648.866,105.062z"/>
			<path style="fill-rule:evenodd;clip-rule:evenodd;fill:#081C1C;" d="M654.529,108.962c0,0-1.878,1.216-3.014,1.951
				c-0.215,0.139-0.366,0.358-0.42,0.609c-0.054,0.25-0.005,0.512,0.134,0.727c0.124,0.192,0.221,0.341,0.221,0.341l3.825-2.476
				L654.529,108.962z"/>
			<path style="fill-rule:evenodd;clip-rule:evenodd;fill:#1E3272;" d="M646.251,97.162l2.817-1.512l0.328,0.377
				c0.312,0.36,0.521,0.797,0.604,1.266l1.335,6.179l-3.01,0.72L646.251,97.162z"/>
			<polygon style="fill-rule:evenodd;clip-rule:evenodd;fill:#E0590F;" points="644.538,88.294 647.918,88.294 647.918,85.577 
				644.538,86.058 			"/>
			<path style="fill-rule:evenodd;clip-rule:evenodd;fill:#006837;" d="M642.454,87.992c0.009-0.217,0.187-0.389,0.405-0.39h6.552
				c0.218,0,0.396,0.172,0.405,0.39l0.395,9.89h-8.15L642.454,87.992z"/>
			<g>
				<path style="fill-rule:evenodd;clip-rule:evenodd;fill:#F69129;" d="M651.212,96.154c0.642-0.136,1.052-0.767,0.917-1.409
					l-1.235-5.767c-0.121-0.566-0.678-0.928-1.244-0.808l-0.27,0.057c-0.568,0.12-0.931,0.679-0.81,1.247l1.234,5.762
					C649.939,95.879,650.57,96.29,651.212,96.154L651.212,96.154z"/>
				<g>
					<path style="fill-rule:evenodd;clip-rule:evenodd;fill:#009245;" d="M651.851,91.561l-3.372,0.775l-0.582-2.748
						c-0.216-1.019,0.555-1.982,1.597-1.994c0.143-0.002,0.283-0.003,0.419-0.005c0.688-0.008,1.281,0.479,1.409,1.156
						L651.851,91.561z"/>
				</g>
				<path style="fill-rule:evenodd;clip-rule:evenodd;fill:#F69129;" d="M652.147,95.005c0.134,2.001,0.306,4.573,0.409,6.114
					c0.023,0.349-0.239,0.648-0.588,0.672c-0.344,0.023-0.768,0.052-1.111,0.075c-0.349,0.023-0.649-0.241-0.673-0.59l-0.409-6.11
					c-0.044-0.655,0.451-1.221,1.106-1.265l0,0C651.537,93.855,652.103,94.35,652.147,95.005z"/>
			</g>
			<g>
				<path style="fill-rule:evenodd;clip-rule:evenodd;fill:#081C1C;" d="M649.935,86.259l-0.886-0.002l0-15.068l1.335,0.003
					c2.365,0.005,4.279,1.924,4.28,4.289v6.06C654.663,84.151,652.545,86.265,649.935,86.259z"/>
				<g>
					<ellipse style="fill-rule:evenodd;clip-rule:evenodd;fill:#E0590F;" cx="637.696" cy="80.258" rx="3.093" ry="3.118"/>
				</g>
				<path style="fill-rule:evenodd;clip-rule:evenodd;fill:#F69129;" d="M637.394,77.536c0-1.611,1.308-2.92,2.92-2.92l9.894,0
					c1.612,0,2.92,1.308,2.92,2.92v5.84c0,1.611-1.308,2.92-2.92,2.92l-9.894,0c-1.611,0-2.92-1.308-2.92-2.92V77.536z"/>
				<g>
					<path style="fill-rule:evenodd;clip-rule:evenodd;fill:#081C1C;" d="M646.419,80.029c0-0.19,0.154-0.344,0.344-0.344h1.373
						c0.19,0,0.344,0.154,0.344,0.344l0.009,3.08c0,0.19-0.154,0.344-0.344,0.344h-1.373c-0.19,0-0.344-0.154-0.344-0.344
						L646.419,80.029z"/>
					<path style="fill-rule:evenodd;clip-rule:evenodd;fill:#081C1C;" d="M639.416,80.093c0-0.19,0.154-0.344,0.344-0.344l1.373,0
						c0.19,0,0.344,0.154,0.344,0.344l0.009,3.08c0,0.19-0.154,0.344-0.344,0.344l-1.373,0c-0.19,0-0.344-0.154-0.344-0.344
						L639.416,80.093z"/>
				</g>
				<path style="fill-rule:evenodd;clip-rule:evenodd;fill:#081C1C;" d="M634.412,72.502l0.004-1.313l15.677,0
					c2.374,0,4.296,1.928,4.289,4.301l-0.004,1.313l-15.677,0C636.328,76.804,634.405,74.876,634.412,72.502z"/>
				<polygon style="fill-rule:evenodd;clip-rule:evenodd;fill:#081C1C;" points="649.289,76.804 649.293,71.189 654.638,75.42 
					654.633,81.034 				"/>
				<g>
					<ellipse style="fill-rule:evenodd;clip-rule:evenodd;fill:#F69129;" cx="653.319" cy="80.784" rx="3.093" ry="3.118"/>
					<path style="fill-rule:evenodd;clip-rule:evenodd;fill:#E0590F;" d="M653.319,79.745c-0.569,0-1.031,0.466-1.031,1.039
						c0,0.574,0.462,1.039,1.031,1.039s1.031-0.466,1.031-1.039C654.35,80.211,653.888,79.745,653.319,79.745z"/>
				</g>
			</g>
		</g>
	</g>
	<g>
		<path style="fill-rule:evenodd;clip-rule:evenodd;fill:#1BAF10;" d="M622.599,119.646h-20.783c-1.042,0-1.895-0.853-1.895-1.895
			l0,0c0-1.042,0.853-1.895,1.895-1.895h20.783c1.042,0,1.895,0.853,1.895,1.895l0,0
			C624.494,118.793,623.641,119.646,622.599,119.646z"/>
		<g>
			<g>
				<rect x="610.917" y="91.744" style="fill-rule:evenodd;clip-rule:evenodd;fill:#CE3170;" width="2.82" height="1.905"/>
				<g>
					<path style="fill-rule:evenodd;clip-rule:evenodd;fill:#CE3170;" d="M615.458,109.839l0.814,7.066l-2.879,0.315l-0.81-7.04
						c-0.097-0.817,0.506-1.551,1.327-1.613l0,0C614.684,108.508,615.367,109.069,615.458,109.839z"/>
					<path style="fill-rule:evenodd;clip-rule:evenodd;fill:#0D9171;" d="M613.393,117.219c0,0,2.444-0.267,3.921-0.428
						c0.28-0.031,0.56,0.051,0.78,0.228s0.36,0.432,0.39,0.712c0.027,0.249,0.049,0.444,0.049,0.444l-4.976,0.544L613.393,117.219z"
						/>
					<polygon style="fill-rule:evenodd;clip-rule:evenodd;fill:#CE3170;" points="614.937,102.088 611.733,102.331 611.56,102.997 
						612.584,110.18 615.48,110.115 					"/>
				</g>
				<g>
					<path style="fill-rule:evenodd;clip-rule:evenodd;fill:#F14F8F;" d="M613.736,104.912l-0.182,6.623
						c0.044,0.823-0.607,1.516-1.431,1.525l0,0c-0.776,0.008-1.421-0.597-1.462-1.372l-0.443-8.42L613.736,104.912z"/>
					<path style="fill-rule:evenodd;clip-rule:evenodd;fill:#F14F8F;" d="M612.732,112.935l-6.642,3.305l-1.316-2.607l6.669-3.289
						c0.737-0.366,1.631-0.046,1.966,0.706l0,0C613.724,111.758,613.426,112.59,612.732,112.935z"/>
					<path style="fill-rule:evenodd;clip-rule:evenodd;fill:#0D9171;" d="M605.087,113.476c0,0,1.09,2.203,1.75,3.535
						c0.125,0.252,0.144,0.544,0.054,0.81s-0.282,0.486-0.535,0.611c-0.225,0.111-0.4,0.198-0.4,0.198l-2.22-4.486L605.087,113.476z
						"/>
				</g>
				<g>
					<path style="fill-rule:evenodd;clip-rule:evenodd;fill:#85D152;" d="M616.844,109.172h-7.94l0.874-14.545
						c0.026-0.611,0.529-1.093,1.14-1.093h2.052c1.378,0,2.529,1.049,2.656,2.421L616.844,109.172z"/>
				</g>
				<polygon style="fill-rule:evenodd;clip-rule:evenodd;fill:#0D9171;" points="616.844,109.172 616.129,101.219 609.385,101.219 
					608.904,109.172 				"/>
				<g>
					<path style="fill-rule:evenodd;clip-rule:evenodd;fill:#F14F8F;" d="M607.834,101.917c0.66,0.291,1.43-0.009,1.721-0.668
						l2.598-5.936c0.255-0.583-0.01-1.262-0.592-1.519l-0.278-0.122c-0.584-0.257-1.266,0.008-1.522,0.593l-2.596,5.931
						C606.875,100.856,607.174,101.627,607.834,101.917L607.834,101.917z"/>
					<path style="fill-rule:evenodd;clip-rule:evenodd;fill:#F14F8F;" d="M609.139,99.701c1.767,1.315,4.039,3.007,5.399,4.021
						c0.308,0.23,0.371,0.662,0.142,0.971c-0.226,0.303-0.505,0.678-0.731,0.982c-0.23,0.308-0.665,0.37-0.973,0.141l-5.396-4.019
						c-0.578-0.431-0.698-1.249-0.267-1.827v0C607.744,99.391,608.561,99.27,609.139,99.701z"/>
				</g>
				<g>
					<g>
						<path style="fill-rule:evenodd;clip-rule:evenodd;fill:#F14F8F;" d="M620.912,81.191c0.005-1.547-1.245-2.806-2.793-2.811
							l-10.957-0.038c-1.547-0.005-2.806,1.245-2.811,2.793l-0.014,7.088c-0.008,2.277,1.832,4.13,4.11,4.137l9.636,0.033
							c1.547,0.005,2.806-1.245,2.811-2.793L620.912,81.191z"/>
						<path style="fill-rule:evenodd;clip-rule:evenodd;fill:#081C1C;" d="M619.314,85.614c0.001-0.182-0.149-0.328-0.331-0.329
							h-1.413c-0.182-0.001-0.328,0.147-0.329,0.329v3.117c-0.001,0.182,0.147,0.33,0.329,0.331h1.413
							c0.182,0.001,0.33-0.149,0.331-0.331V85.614z"/>
						<path style="fill-rule:evenodd;clip-rule:evenodd;fill:#081C1C;" d="M602.541,81.214c0.985-2.512,3.339-4.015,5.844-4.006
							h13.177l-0.008,1.86c-0.005,1.265-0.711,2.422-1.832,3.006l-5.402,2.796V96.62l-12.216-5.052l0.036-8.078
							C602.142,82.715,602.258,81.936,602.541,81.214z"/>
						<path style="fill-rule:evenodd;clip-rule:evenodd;fill:#F14F8F;" d="M610.172,83.649l-0.021,6.389
							c-1.749-0.006-3.164-1.442-3.158-3.205C606.999,85.069,608.424,83.643,610.172,83.649z"/>
						<path style="fill-rule:evenodd;clip-rule:evenodd;fill:#CE3170;" d="M610.165,85.778l-0.007,2.13
							c-0.583-0.002-1.055-0.481-1.053-1.068C609.107,86.252,609.582,85.776,610.165,85.778z"/>
					</g>
					<path style="fill-rule:evenodd;clip-rule:evenodd;fill:#85D152;" d="M612.534,84.099l3.303,0.015
						c0.18,0.001,0.326,0.149,0.326,0.328l-0.004,0.873c-0.001,0.18-0.149,0.326-0.328,0.326l-3.303-0.015
						c-0.18-0.001-0.326-0.149-0.326-0.328l0.004-0.873C612.207,84.244,612.355,84.098,612.534,84.099z"/>
				</g>
				<polygon style="fill-rule:evenodd;clip-rule:evenodd;fill:#85D152;" points="605.087,113.476 606.277,112.891 607.543,115.517 
					606.383,116.094 				"/>
				<polygon style="fill-rule:evenodd;clip-rule:evenodd;fill:#85D152;" points="613.393,117.219 613.25,115.971 616.126,115.635 
					616.273,116.905 				"/>
			</g>
		</g>
	</g>
	<g>
		<path style="fill-rule:evenodd;clip-rule:evenodd;fill:#F6CB50;fill-opacity:0.4;" d="M815.815,130.731h-20.783
			c-1.042,0-1.895-0.853-1.895-1.895v0c0-1.042,0.853-1.895,1.895-1.895h20.783c1.042,0,1.895,0.853,1.895,1.895v0
			C817.71,129.878,816.858,130.731,815.815,130.731z"/>
		<g>
			<g>
				<g>
					<g>
						<path style="fill-rule:evenodd;clip-rule:evenodd;fill:#021D1C;" d="M816.274,90.945c-0.982-2.506-3.331-4.004-5.829-3.996
							l-5.919,0.006v14.317l12.184,5.039l-0.036-13.095C816.672,92.441,816.556,91.665,816.274,90.945z"/>
						<path style="fill-rule:evenodd;clip-rule:evenodd;fill:#021D1C;" d="M796.321,90.945c0.982-2.506,3.331-4.004,5.829-3.996
							l5.919,0.006v14.317l-12.184,5.039l0.036-13.095C795.923,92.441,796.038,91.665,796.321,90.945z"/>
					</g>
					
						<rect x="795.903" y="99.219" transform="matrix(-1 -4.471147e-11 4.471147e-11 -1 1612.5947 205.5294)" style="fill-rule:evenodd;clip-rule:evenodd;fill:#021D1C;" width="20.789" height="7.092"/>
				</g>
				<g>
					<g>
						<path style="fill-rule:evenodd;clip-rule:evenodd;fill:#FF3A8F;" d="M810.357,119.68l-0.597,7.087l-2.884-0.259l0.596-7.061
							c0.066-0.82,0.802-1.42,1.619-1.32l0,0C809.861,118.223,810.419,118.907,810.357,119.68z"/>
						<path style="fill-rule:evenodd;clip-rule:evenodd;fill:#00936F;" d="M806.874,126.531c0,0,2.45,0.198,3.931,0.331
							c0.28,0.025,0.539,0.161,0.719,0.377c0.18,0.216,0.267,0.495,0.242,0.775c-0.023,0.25-0.04,0.445-0.04,0.445l-4.979-0.42
							L806.874,126.531z"/>
						<polygon style="fill-rule:evenodd;clip-rule:evenodd;fill:#FF3A8F;" points="808.73,111.249 805.585,111.908 805.5,112.59 
							807.452,119.58 810.314,119.138 						"/>
					</g>
					
						<rect x="807.732" y="124.562" transform="matrix(0.0834 -0.9965 0.9965 0.0834 615.3974 921.059)" style="fill-rule:evenodd;clip-rule:evenodd;fill:#6BD436;" width="1.277" height="2.896"/>
				</g>
				<g>
					<g>
						<path style="fill-rule:evenodd;clip-rule:evenodd;fill:#FF3A8F;" d="M802.39,119.826l-0.001,7.113l2.896-0.016l-0.001-7.086
							c0.003-0.823-0.68-1.483-1.503-1.451l0,0C803.007,118.416,802.393,119.051,802.39,119.826z"/>
						<path style="fill-rule:evenodd;clip-rule:evenodd;fill:#00936F;" d="M805.286,126.945c0,0-2.458-0.009-3.945,0
							c-0.281,0.002-0.551,0.115-0.748,0.315c-0.198,0.2-0.308,0.471-0.306,0.752c0.001,0.251,0.003,0.447,0.003,0.447h4.997
							V126.945z"/>
						<polygon style="fill-rule:evenodd;clip-rule:evenodd;fill:#FF3A8F;" points="802.392,112.057 805.604,112.081 
							805.823,112.733 805.294,119.97 802.4,120.103 						"/>
					</g>
					<rect x="802.39" y="125.661" style="fill-rule:evenodd;clip-rule:evenodd;fill:#6BD436;" width="2.896" height="1.277"/>
				</g>
				
					<rect x="804.888" y="101.681" transform="matrix(-1 -4.580437e-11 4.580437e-11 -1 1612.5947 205.2656)" style="fill-rule:evenodd;clip-rule:evenodd;fill:#DD0E71;" width="2.82" height="1.905"/>
				<g>
					<path style="fill-rule:evenodd;clip-rule:evenodd;fill:#FF3A8F;" d="M814.79,93.373l0.021,6.372
						c1.744-0.006,3.156-1.438,3.15-3.196C817.956,94.79,816.535,93.367,814.79,93.373z"/>
					<path style="fill-rule:evenodd;clip-rule:evenodd;fill:#FF3A8F;" d="M797.804,93.373l-0.021,6.372
						c-1.744-0.006-3.156-1.438-3.15-3.196C794.639,94.79,796.06,93.367,797.804,93.373z"/>
				</g>
				<path style="fill-rule:evenodd;clip-rule:evenodd;fill:#FF3A8F;" d="M800.575,102.134h11.444c1.433,0,2.594-1.162,2.594-2.594
					v-8.862c0-1.433-1.162-2.594-2.594-2.594h-11.444c-1.433,0-2.594,1.162-2.594,2.594v8.862
					C797.981,100.972,799.142,102.134,800.575,102.134z"/>
				<g>
					<path style="fill-rule:evenodd;clip-rule:evenodd;fill:#021D1C;" d="M808.862,95.355c-0.001-0.182,0.149-0.328,0.331-0.329
						h1.413c0.182-0.001,0.328,0.147,0.329,0.329v3.117c0.001,0.182-0.147,0.33-0.329,0.331h-1.413
						c-0.182,0.001-0.33-0.149-0.331-0.331V95.355z"/>
					<path style="fill-rule:evenodd;clip-rule:evenodd;fill:#021D1C;" d="M801.659,95.355c-0.001-0.182,0.149-0.328,0.331-0.329
						h1.413c0.182-0.001,0.328,0.147,0.329,0.329v3.117c0.001,0.182-0.147,0.33-0.329,0.331h-1.413
						c-0.182,0.001-0.331-0.149-0.331-0.331V95.355z"/>
				</g>
				<g>
					<path style="fill-rule:evenodd;clip-rule:evenodd;fill:#021D1C;" d="M810.484,86.949h-4.282l0.008,1.86
						c0.005,1.265,0.711,2.422,1.833,3.006l5.402,2.796v11.751l3.257-5.052v-8.144C816.701,89.732,813.918,86.949,810.484,86.949z"
						/>
					<path style="fill-rule:evenodd;clip-rule:evenodd;fill:#6BD436;" d="M815.23,93.84l-3.303,0.015
						c-0.18,0.001-0.326,0.149-0.326,0.328l0.004,0.873c0.001,0.18,0.149,0.326,0.328,0.326l3.303-0.015
						c0.18-0.001,0.326-0.149,0.326-0.328l-0.004-0.873C815.557,93.986,815.41,93.839,815.23,93.84z"/>
					<path style="fill-rule:evenodd;clip-rule:evenodd;fill:#021D1C;" d="M802.111,86.949h4.282l-0.008,1.86
						c-0.005,1.265-0.711,2.422-1.833,3.006l-5.402,2.796v11.751l-3.257-5.052v-8.144C795.894,89.732,798.677,86.949,802.111,86.949
						z"/>
				</g>
				<path style="fill-rule:evenodd;clip-rule:evenodd;fill:#FF3A8F;" d="M812.697,111.815c-0.66,0.291-1.431-0.009-1.721-0.668
					l-2.598-5.936c-0.255-0.583,0.01-1.262,0.592-1.519l0.278-0.122c0.584-0.257,1.266,0.008,1.522,0.593l2.596,5.931
					C813.656,110.753,813.357,111.524,812.697,111.815L812.697,111.815z"/>
				<g>
					<path style="fill-rule:evenodd;clip-rule:evenodd;fill:#FF3A8F;" d="M799.912,111.815c0.66,0.291,1.43-0.009,1.721-0.668
						l2.598-5.936c0.255-0.583-0.01-1.262-0.592-1.519l-0.278-0.122c-0.584-0.257-1.266,0.008-1.522,0.593l-2.596,5.931
						C798.953,110.753,799.252,111.524,799.912,111.815L799.912,111.815z"/>
					<path style="fill-rule:evenodd;clip-rule:evenodd;fill:#FF3A8F;" d="M801.495,111.393c-1.262,1.806-2.885,4.128-3.857,5.518
						c-0.22,0.315-0.651,0.391-0.966,0.171c-0.31-0.217-0.693-0.484-1.003-0.701c-0.315-0.22-0.39-0.653-0.17-0.968l3.854-5.515
						c0.413-0.591,1.227-0.735,1.818-0.322l0,0C801.763,109.989,801.908,110.802,801.495,111.393z"/>
				</g>
				<g>
					<polygon style="fill-rule:evenodd;clip-rule:evenodd;fill:#6BD436;" points="801.532,119.109 802.974,103.471 809.621,103.471 
						811.063,119.109 					"/>
					<polygon style="fill-rule:evenodd;clip-rule:evenodd;fill:#00936F;" points="801.532,119.109 802.26,111.156 810.329,111.156 
						811.063,119.109 					"/>
				</g>
				<path style="fill-rule:evenodd;clip-rule:evenodd;fill:#FF3A8F;" d="M811.392,109.598c-1.767,1.315-4.039,3.007-5.399,4.021
					c-0.308,0.23-0.371,0.662-0.142,0.971c0.226,0.303,0.505,0.678,0.731,0.982c0.23,0.308,0.665,0.37,0.973,0.141l5.396-4.019
					c0.578-0.431,0.698-1.249,0.267-1.827l0,0C812.787,109.288,811.97,109.168,811.392,109.598z"/>
			</g>
		</g>
	</g>
	<g>
		<g>
			<path style="fill:#1BAF10;" d="M169.178,96.832c-0.87,0-1.575-0.706-1.575-1.579v-4.944c0-0.873,0.705-1.579,1.575-1.579
				c0.87,0,1.575,0.706,1.575,1.579v4.944C170.754,96.126,170.048,96.832,169.178,96.832z"/>
		</g>
		<g>
			<path style="fill:#1BAF10;" d="M175.755,96.832c-0.87,0-1.575-0.706-1.575-1.579v-3.295c0-0.873,0.705-1.579,1.575-1.579
				s1.575,0.706,1.575,1.579v3.295C177.331,96.126,176.625,96.832,175.755,96.832z"/>
		</g>
		<g>
			<path style="fill:#1BAF10;" d="M163.149,96.832c-0.87,0-1.575-0.706-1.575-1.579v-3.295c0-0.873,0.705-1.579,1.575-1.579
				s1.575,0.706,1.575,1.579v3.295C164.725,96.126,164.019,96.832,163.149,96.832z"/>
		</g>
		<g>
			<path style="fill:#1BAF10;" d="M186.924,109.88c-0.87,0-1.575-0.706-1.575-1.579v-4.944c0-0.873,0.705-1.579,1.575-1.579
				s1.575,0.706,1.575,1.579v4.944C188.499,109.174,187.794,109.88,186.924,109.88z"/>
		</g>
		<g>
			<path style="fill:#1BAF10;" d="M193.501,109.88c-0.87,0-1.575-0.706-1.575-1.579v-3.297c0-0.873,0.705-1.579,1.575-1.579
				s1.575,0.706,1.575,1.579v3.297C195.076,109.174,194.371,109.88,193.501,109.88z"/>
		</g>
		<g>
			<path style="fill:#1BAF10;" d="M180.896,109.88c-0.87,0-1.575-0.706-1.575-1.579v-3.297c0-0.873,0.705-1.579,1.575-1.579
				s1.575,0.706,1.575,1.579v3.297C182.471,109.174,181.766,109.88,180.896,109.88z"/>
		</g>
		<g>
			<path style="fill:#1BAF10;" d="M193.02,82.549c-0.87,0-1.575-0.706-1.575-1.579v-4.944c0-0.873,0.705-1.579,1.575-1.579
				s1.575,0.706,1.575,1.579v4.944C194.596,81.842,193.89,82.549,193.02,82.549z"/>
		</g>
		<g>
			<path style="fill:#1BAF10;" d="M199.598,82.549c-0.87,0-1.575-0.706-1.575-1.579v-3.297c0-0.873,0.705-1.579,1.575-1.579
				s1.575,0.706,1.575,1.579v3.297C201.173,81.842,200.468,82.549,199.598,82.549z"/>
		</g>
		<g>
			<path style="fill:#1BAF10;" d="M186.992,82.549c-0.87,0-1.575-0.706-1.575-1.579v-3.297c0-0.873,0.705-1.579,1.575-1.579
				s1.575,0.706,1.575,1.579v3.297C188.567,81.842,187.862,82.549,186.992,82.549z"/>
		</g>
	</g>
	<g style="opacity:0.3308;">
		<g>
			<path style="fill:#00703A;" d="M304.785,85.702c-0.87,0-1.575-0.706-1.575-1.579V79.18c0-0.873,0.705-1.579,1.575-1.579
				c0.87,0,1.575,0.706,1.575,1.579v4.944C306.36,84.996,305.655,85.702,304.785,85.702z"/>
		</g>
		<g>
			<path style="fill:#00703A;" d="M311.362,85.702c-0.87,0-1.575-0.706-1.575-1.579v-3.295c0-0.873,0.705-1.579,1.575-1.579
				c0.87,0,1.575,0.706,1.575,1.579v3.295C312.937,84.996,312.232,85.702,311.362,85.702z"/>
		</g>
		<g>
			<path style="fill:#00703A;" d="M298.755,85.702c-0.87,0-1.575-0.706-1.575-1.579v-3.295c0-0.873,0.705-1.579,1.575-1.579
				c0.87,0,1.575,0.706,1.575,1.579v3.295C300.331,84.996,299.625,85.702,298.755,85.702z"/>
		</g>
		<g>
			<path style="fill:#00703A;" d="M322.53,98.751c-0.87,0-1.575-0.706-1.575-1.579v-4.944c0-0.873,0.705-1.579,1.575-1.579
				c0.87,0,1.575,0.706,1.575,1.579v4.944C324.106,98.044,323.4,98.751,322.53,98.751z"/>
		</g>
		<g>
			<path style="fill:#00703A;" d="M329.107,98.751c-0.87,0-1.575-0.706-1.575-1.579v-3.297c0-0.873,0.705-1.579,1.575-1.579
				c0.87,0,1.575,0.706,1.575,1.579v3.297C330.683,98.044,329.977,98.751,329.107,98.751z"/>
		</g>
		<g>
			<path style="fill:#00703A;" d="M316.502,98.751c-0.87,0-1.575-0.706-1.575-1.579v-3.297c0-0.873,0.705-1.579,1.575-1.579
				c0.87,0,1.575,0.706,1.575,1.579v3.297C318.077,98.044,317.372,98.751,316.502,98.751z"/>
		</g>
		<g>
			<path style="fill:#00703A;" d="M328.627,71.419c-0.87,0-1.575-0.706-1.575-1.579v-4.944c0-0.873,0.705-1.579,1.575-1.579
				c0.87,0,1.575,0.706,1.575,1.579v4.944C330.202,70.713,329.497,71.419,328.627,71.419z"/>
		</g>
		<g>
			<path style="fill:#00703A;" d="M335.204,71.419c-0.87,0-1.575-0.706-1.575-1.579v-3.297c0-0.873,0.705-1.579,1.575-1.579
				c0.87,0,1.575,0.706,1.575,1.579v3.297C336.78,70.713,336.074,71.419,335.204,71.419z"/>
		</g>
		<g>
			<path style="fill:#00703A;" d="M322.598,71.419c-0.87,0-1.575-0.706-1.575-1.579v-3.297c0-0.873,0.705-1.579,1.575-1.579
				c0.87,0,1.575,0.706,1.575,1.579v3.297C324.173,70.713,323.468,71.419,322.598,71.419z"/>
		</g>
	</g>
	
		<line style="fill:none;stroke:#FFED8B;stroke-width:5;stroke-linecap:round;stroke-linejoin:round;stroke-miterlimit:10;stroke-dasharray:0,5;" x1="1389.979" y1="98.848" x2="1377.505" y2="98.848"/>
	
		<line style="fill:none;stroke:#FFED8B;stroke-width:5;stroke-linecap:round;stroke-linejoin:round;stroke-miterlimit:10;stroke-dasharray:0,5;" x1="1309.787" y1="103.658" x2="1282.788" y2="103.658"/>
	
		<line style="fill:none;stroke:#FFED8B;stroke-width:5;stroke-linecap:round;stroke-linejoin:round;stroke-miterlimit:10;stroke-dasharray:0,5;" x1="1299.985" y1="77.998" x2="1312.459" y2="77.998"/>
	
		<line style="fill:none;stroke:#FFED8B;stroke-width:5;stroke-linecap:round;stroke-linejoin:round;stroke-miterlimit:10;stroke-dasharray:0,5;" x1="1266.292" y1="81.381" x2="1245.367" y2="81.381"/>
	<g>
		<g>
			<g>
				<g>
					<rect x="477.276" y="-103.384" style="fill:#FDCB00;" width="108.65" height="138.494"/>
					<g>
						<rect x="477.276" y="-17.251" style="fill:#87C533;" width="36.289" height="43.072"/>
						<rect x="549.854" y="-17.251" style="fill:#87C533;" width="36.289" height="43.072"/>
						<rect x="482.957" y="-17.257" style="opacity:0.5;fill:#D6DF00;" width="24.941" height="43.072"/>
						<rect x="555.532" y="-17.257" style="opacity:0.5;fill:#D6DF00;" width="24.951" height="43.072"/>
						<rect x="488.625" y="-9.391" style="fill:#00D6C2;" width="13.609" height="23.372"/>
						<rect x="561.194" y="-9.391" style="fill:#00D6C2;" width="13.609" height="23.372"/>
					</g>
					<g>
						<rect x="513.574" y="-7.966" style="fill:#0067FF;" width="36.289" height="43.072"/>
						<rect x="519.24" y="-7.966" style="fill:#2980FF;" width="24.951" height="43.072"/>
						<rect x="524.909" y="0.03" style="fill:#00D6C2;" width="13.6" height="23.372"/>
					</g>
					<rect x="524.919" y="0.02" style="opacity:0.25;fill:#218499;" width="13.6" height="6.094"/>
				</g>
				<g>
					<g>
						<g>
							<g transform="matrix(0.25,0,0,0.833333,74.2812,1893.33)">
								
									<rect x="2373.02" y="-2396.084" style="fill-rule:evenodd;clip-rule:evenodd;fill:#00D6C2;" width="110.817" height="166.226"/>
							</g>
							<g transform="matrix(0.25,0,0,0.833333,84.2812,1893.33)">
								<g>
									
										<rect x="2222.202" y="-2396.084" style="fill-rule:evenodd;clip-rule:evenodd;fill:#963AD6;" width="110.817" height="166.226"/>
								</g>
							</g>
							<rect x="667.52" y="-103.406" style="opacity:0.25;fill:#218499;" width="5.669" height="138.522"/>
						</g>
						<rect x="639.823" y="7.666" style="fill:#8431C7;" width="27.564" height="6.094"/>
						
							<rect x="667.676" y="7.666" transform="matrix(-1 5.278996e-13 -5.278996e-13 -1 1362.9169 21.4265)" style="opacity:0.25;fill:#218499;" width="27.564" height="6.094"/>
					</g>
					<g transform="matrix(1.75,0,0,0.0666667,-3640.03,496.667)">
						
							<rect x="2445.637" y="-7708.819" style="fill-rule:evenodd;clip-rule:evenodd;fill:#87C533;" width="6.332" height="373.843"/>
					</g>
					<g transform="matrix(1.75,0,0,0.0666667,-3640.03,496.667)">
						
							<rect x="2451.967" y="-7708.819" style="fill-rule:evenodd;clip-rule:evenodd;fill:#FDCB00;" width="25.33" height="373.843"/>
					</g>
				</g>
			</g>
		</g>
		
			<line style="fill:#1BAF10;stroke:#1BAF10;stroke-width:8.5149;stroke-linecap:round;stroke-linejoin:round;stroke-miterlimit:10;stroke-dasharray:0,8.5149;" x1="477.276" y1="35.111" x2="513.574" y2="35.111"/>
		
			<line style="fill:#1BAF10;stroke:#1BAF10;stroke-width:8.5149;stroke-linecap:round;stroke-linejoin:round;stroke-miterlimit:10;stroke-dasharray:0,8.5149;" x1="553.253" y1="35.111" x2="700.382" y2="35.111"/>
	</g>
	<g>
		<g>
			<g>
				<g>
					<g>
						<path style="fill:#704A45;" d="M476.574,6.001h16.356l4.433,40.447c0.246,2.242-1.511,4.2-3.768,4.2h-17.765
							c-2.26,0-4.018-1.963-3.767-4.207L476.574,6.001z"/>
						<g>
							<defs>
								<path id="SVGID_00000060738614983878771120000016102108961200307888_" d="M476.574,6.001h16.356l4.433,40.447
									c0.246,2.242-1.511,4.2-3.768,4.2h-17.765c-2.26,0-4.018-1.963-3.767-4.207L476.574,6.001z"/>
							</defs>
							<clipPath id="SVGID_00000149340178371240625380000014960471219946870419_">
								<use xlink:href="#SVGID_00000060738614983878771120000016102108961200307888_"  style="overflow:visible;"/>
							</clipPath>
							
								<path style="clip-path:url(#SVGID_00000149340178371240625380000014960471219946870419_);fill-rule:evenodd;clip-rule:evenodd;fill:#5D4136;" d="
								M484.7,35.238l13.371-9.736c7.385-5.378,8.22-16.074,1.758-22.53l-4.677-4.673l-20.904,0l-4.677,4.673
								c-6.462,6.456-5.627,17.152,1.758,22.53L484.7,35.238z"/>
						</g>
					</g>
					<g>
						<g>
							<path style="fill-rule:evenodd;clip-rule:evenodd;fill:#A7C000;" d="M484.712,4.531c0,5.783-2.299,11.332-6.393,15.422
								s-9.647,6.388-15.438,6.388c-10.966,0-21.957,0-21.957,0s0-6.749,0-14.419c0-5.786,2.299-11.334,6.393-15.425
								c4.094-4.088,9.647-6.388,15.438-6.388c10.966,0,21.957,0,21.957,0S484.712-3.142,484.712,4.531z"/>
							<g>
								<defs>
									<path id="SVGID_00000068642007185170986450000017219347348692194183_" d="M484.712,4.531
										c0,5.783-2.299,11.332-6.393,15.422s-9.647,6.388-15.438,6.388c-10.966,0-21.957,0-21.957,0s0-6.749,0-14.419
										c0-5.786,2.299-11.334,6.393-15.425c4.094-4.088,9.647-6.388,15.438-6.388c10.966,0,21.957,0,21.957,0
										S484.712-3.142,484.712,4.531z"/>
								</defs>
								<clipPath id="SVGID_00000081619317052293440600000010394035192224500636_">
									<use xlink:href="#SVGID_00000068642007185170986450000017219347348692194183_"  style="overflow:visible;"/>
								</clipPath>
								
									<polygon style="clip-path:url(#SVGID_00000081619317052293440600000010394035192224500636_);fill-rule:evenodd;clip-rule:evenodd;fill:#7E9E00;" points="
									484.712,-9.891 435.847,31.875 484.712,31.875 								"/>
								
									<rect x="434.565" y="5.231" transform="matrix(0.7745 -0.6325 0.6325 0.7745 99.3175 294.5515)" style="clip-path:url(#SVGID_00000081619317052293440600000010394035192224500636_);fill-rule:evenodd;clip-rule:evenodd;fill:#BAD000;" width="56.505" height="5.47"/>
								
									<path style="opacity:0.5;clip-path:url(#SVGID_00000081619317052293440600000010394035192224500636_);fill-rule:evenodd;clip-rule:evenodd;fill:#3F7C37;" d="
									M459.169,28.703h5.474c0,0,0-5.677,0-9.199c0-1.509-1.226-2.734-2.737-2.734c-1.511,0-2.737,1.225-2.737,2.734
									C459.169,23.027,459.169,28.703,459.169,28.703z"/>
								
									<path style="opacity:0.5;clip-path:url(#SVGID_00000081619317052293440600000010394035192224500636_);fill-rule:evenodd;clip-rule:evenodd;fill:#3F7C37;" d="
									M470.116,29.108h5.473c0,0,0-12.488,0-18.151c0-1.509-1.223-2.732-2.734-2.732c-0.003,0-0.003,0-0.006,0
									c-1.511,0-2.734,1.222-2.734,2.732C470.116,16.62,470.116,29.108,470.116,29.108z"/>
								
									<path style="opacity:0.75;clip-path:url(#SVGID_00000081619317052293440600000010394035192224500636_);fill-rule:evenodd;clip-rule:evenodd;fill:#7E9E00;" d="
									M440.924,11.011V5.832c0,0,5.118,0,8.355,0c0.687,0,1.346,0.273,1.834,0.76c0.484,0.484,0.758,1.143,0.758,1.829l0,0
									c0,0.689-0.274,1.345-0.758,1.832c-0.487,0.487-1.147,0.757-1.834,0.757C446.041,11.011,440.924,11.011,440.924,11.011z"/>
								
									<path style="opacity:0.75;clip-path:url(#SVGID_00000081619317052293440600000010394035192224500636_);fill-rule:evenodd;clip-rule:evenodd;fill:#7E9E00;" d="
									M440.924,0.364v-5.469c0,0,11.13,0,16.423,0c1.511,0,2.734,1.222,2.734,2.732c0,0.003,0,0.005,0,0.005
									c0,1.509-1.223,2.732-2.734,2.732C452.054,0.364,440.924,0.364,440.924,0.364z"/>
							</g>
						</g>
						<g>
							<path style="fill-rule:evenodd;clip-rule:evenodd;fill:#A7C000;" d="M484.712,4.531c0,5.783,2.299,11.332,6.393,15.422
								s9.647,6.388,15.438,6.388c10.966,0,21.957,0,21.957,0s0-6.749,0-14.419c0-5.786-2.299-11.334-6.393-15.425
								c-4.094-4.088-9.647-6.388-15.438-6.388c-10.966,0-21.957,0-21.957,0S484.712-3.142,484.712,4.531z"/>
							<g>
								<defs>
									<path id="SVGID_00000161631096668322559530000005496467827239688327_" d="M484.712,4.531
										c0,5.783,2.299,11.332,6.393,15.422s9.647,6.388,15.438,6.388c10.966,0,21.957,0,21.957,0s0-6.749,0-14.419
										c0-5.786-2.299-11.334-6.393-15.425c-4.094-4.088-9.647-6.388-15.438-6.388c-10.966,0-21.957,0-21.957,0
										S484.712-3.142,484.712,4.531z"/>
								</defs>
								<clipPath id="SVGID_00000065072679989358172110000002227980867702371990_">
									<use xlink:href="#SVGID_00000161631096668322559530000005496467827239688327_"  style="overflow:visible;"/>
								</clipPath>
								
									<polygon style="clip-path:url(#SVGID_00000065072679989358172110000002227980867702371990_);fill-rule:evenodd;clip-rule:evenodd;fill:#7E9E00;" points="
									484.712,-9.891 533.576,31.875 484.712,31.875 								"/>
								
									<rect x="503.871" y="-20.287" transform="matrix(0.632 -0.775 0.775 0.632 180.2476 395.5266)" style="clip-path:url(#SVGID_00000065072679989358172110000002227980867702371990_);fill-rule:evenodd;clip-rule:evenodd;fill:#BAD000;" width="5.47" height="56.505"/>
								
									<path style="opacity:0.5;clip-path:url(#SVGID_00000065072679989358172110000002227980867702371990_);fill-rule:evenodd;clip-rule:evenodd;fill:#3F7C37;" d="
									M510.255,28.703h-5.474c0,0,0-5.677,0-9.199c0-1.509,1.226-2.734,2.737-2.734s2.737,1.225,2.737,2.734
									C510.255,23.027,510.255,28.703,510.255,28.703z"/>
								
									<path style="opacity:0.5;clip-path:url(#SVGID_00000065072679989358172110000002227980867702371990_);fill-rule:evenodd;clip-rule:evenodd;fill:#3F7C37;" d="
									M499.308,29.108h-5.473c0,0,0-12.485,0-18.148c0-0.725,0.287-1.419,0.802-1.933c0.512-0.511,1.21-0.801,1.935-0.801
									c0.725,0,1.423,0.29,1.935,0.801c0.515,0.514,0.802,1.209,0.802,1.933C499.308,16.622,499.308,29.108,499.308,29.108z"/>
								
									<path style="opacity:0.75;clip-path:url(#SVGID_00000065072679989358172110000002227980867702371990_);fill-rule:evenodd;clip-rule:evenodd;fill:#7E9E00;" d="
									M528.5,11.301V5.832c0,0-4.97,0-8.213,0c-0.725,0-1.42,0.287-1.932,0.801c-0.515,0.511-0.802,1.206-0.802,1.931
									c0,0.003,0,0.005,0,0.005c0,0.725,0.287,1.419,0.802,1.933c0.512,0.511,1.207,0.798,1.932,0.798
									C523.53,11.301,528.5,11.301,528.5,11.301z"/>
								
									<path style="opacity:0.75;clip-path:url(#SVGID_00000065072679989358172110000002227980867702371990_);fill-rule:evenodd;clip-rule:evenodd;fill:#7E9E00;" d="
									M528.5,0.364v-5.469c0,0-11.128,0-16.421,0c-0.725,0-1.423,0.29-1.935,0.801c-0.515,0.514-0.802,1.209-0.802,1.933
									s0.287,1.422,0.802,1.933c0.512,0.514,1.21,0.801,1.935,0.801C517.372,0.364,528.5,0.364,528.5,0.364z"/>
							</g>
						</g>
						<g>
							<defs>
								<path id="SVGID_00000069361625476410702860000017239734414886391219_" d="M447.317-3.503
									c4.094-4.088,9.646-6.387,15.437-6.387c10.967,0,21.958,0,21.958,0s10.99,0,21.956,0c5.791,0,11.344,2.3,15.439,6.387
									c4.093,4.091,6.393,9.639,6.393,15.425c0,7.67,0,14.419,0,14.419s-10.992,0-21.958,0c-5.791,0-11.343-2.297-15.437-6.388
									c-4.094-4.091-6.393-9.639-6.393-15.422c0,5.783-2.3,11.331-6.393,15.422c-4.094,4.091-9.648,6.388-15.439,6.388
									c-10.967,0-21.956,0-21.956,0s0-6.749,0-14.419C440.924,6.136,443.223,0.588,447.317-3.503z"/>
							</defs>
							<clipPath id="SVGID_00000019675125605467639030000000957305192101180833_">
								<use xlink:href="#SVGID_00000069361625476410702860000017239734414886391219_"  style="overflow:visible;"/>
							</clipPath>
						</g>
						<g>
							<path style="fill-rule:evenodd;clip-rule:evenodd;fill:#BAD000;" d="M484.7,26.341l13.115-9.549
								c7.244-5.275,8.062-15.766,1.725-22.098l-4.588-4.584l-20.503,0l-4.588,4.584c-6.338,6.333-5.519,16.824,1.725,22.098
								L484.7,26.341z"/>
							<g>
								<defs>
									<path id="SVGID_00000009563354327791649080000013977428557400808105_" d="M484.7,26.341l13.115-9.549
										c7.244-5.275,8.062-15.766,1.725-22.098l-4.588-4.584l-20.503,0l-4.588,4.584c-6.338,6.333-5.519,16.824,1.725,22.098
										L484.7,26.341z"/>
								</defs>
								<clipPath id="SVGID_00000106843772551761704940000003262891228018588806_">
									<use xlink:href="#SVGID_00000009563354327791649080000013977428557400808105_"  style="overflow:visible;"/>
								</clipPath>
								<g style="clip-path:url(#SVGID_00000106843772551761704940000003262891228018588806_);">
									
										<rect x="464.009" y="-11.551" transform="matrix(-1 -4.501212e-11 4.501212e-11 -1 948.7086 16.1369)" style="fill:#7E9E00;" width="20.691" height="39.238"/>
								</g>
								<g style="clip-path:url(#SVGID_00000106843772551761704940000003262891228018588806_);">
									<rect x="481.974" y="-13.84" style="fill:#D4E214;" width="5.474" height="47.694"/>
								</g>
								<g style="clip-path:url(#SVGID_00000106843772551761704940000003262891228018588806_);">
									<g style="opacity:0.5;">
										<path style="fill:#7E9E00;" d="M504.117,10.088c0.891,0,1.767-0.434,2.291-1.234c0.83-1.264,0.478-2.959-0.788-3.787
											l-11.125-7.292c-1.265-0.833-2.961-0.474-3.788,0.785c-0.83,1.264-0.478,2.959,0.788,3.787l11.125,7.292
											C503.084,9.943,503.604,10.088,504.117,10.088z"/>
									</g>
									<g style="opacity:0.5;">
										<path style="fill:#3F7C37;" d="M465.307,10.088c0.513,0,1.033-0.144,1.497-0.449l11.122-7.292
											c1.265-0.828,1.618-2.523,0.788-3.787c-0.827-1.259-2.512-1.62-3.788-0.785l-11.122,7.292
											c-1.265,0.828-1.618,2.523-0.788,3.787C463.54,9.653,464.416,10.088,465.307,10.088z"/>
									</g>
									<g>
										<path style="opacity:0.5;fill:#7E9E00;" d="M504.117,22.556c0.891,0,1.767-0.434,2.291-1.234
											c0.83-1.264,0.478-2.959-0.788-3.787l-11.125-7.292c-1.265-0.833-2.961-0.474-3.788,0.785
											c-0.83,1.264-0.478,2.959,0.788,3.787l11.125,7.292C503.084,22.412,503.604,22.556,504.117,22.556z"/>
									</g>
									<g style="opacity:0.5;">
										<path style="fill:#3F7C37;" d="M465.307,22.556c0.513,0,1.033-0.144,1.497-0.449l11.122-7.292
											c1.265-0.828,1.618-2.523,0.788-3.787c-0.827-1.259-2.512-1.62-3.788-0.785l-11.122,7.292
											c-1.265,0.828-1.618,2.523-0.788,3.787C463.54,22.122,464.416,22.556,465.307,22.556z"/>
									</g>
								</g>
							</g>
						</g>
					</g>
				</g>
			</g>
		</g>
		
			<line style="fill:#1BAF10;stroke:#1BAF10;stroke-width:10;stroke-linecap:round;stroke-linejoin:round;stroke-miterlimit:10;stroke-dasharray:0,10;" x1="462.478" y1="50.647" x2="506.946" y2="50.162"/>
	</g>
	<g>
		<path style="fill:#FCE26C;" d="M1478.659,85.016c0-6.068-4.926-10.992-10.993-10.992h-67.065c-6.067,0-10.993,4.925-10.993,10.992
			c0,6.069,4.926,10.993,10.993,10.993h67.065C1473.733,96.009,1478.659,91.085,1478.659,85.016z"/>
		<path style="fill:#FFFFFF;" d="M1390.186,40.984c0.068-0.022,0.071-0.016,0.137-0.036c0.142-0.031,0.236-0.006,0.399,0.002
			c0.514,0.066,1.037,0.426,1.432,0.973c0.126,0.081,0.194,0.198,0.261,0.314c0.033,0.058,0.068,0.116,0.104,0.181l23.42,40.565
			l-3.409-0.012l-22.563-39.079c-0.036-0.065-0.071-0.123-0.104-0.181c-0.101-0.175-0.206-0.355-0.244-0.557
			c-0.237-0.689-0.224-1.352,0.079-1.785c0.089-0.121,0.13-0.187,0.245-0.262c0.057-0.033,0.119-0.068,0.119-0.068
			C1390.126,41.012,1390.129,41.018,1390.186,40.984z"/>
		<path style="fill:#5790F4;" d="M1421.843,44.256c-7.169-12.419-23.044-16.673-35.464-9.503
			c-12.418,7.171-16.672,23.046-9.503,35.466L1421.843,44.256z"/>
		<rect x="1426.041" y="78.208" style="fill:#13CCA1;" width="36.43" height="13.684"/>
		<g transform="matrix(0.628269,0,0,0.628269,1081.04,1908.9)">
			<path style="fill:#061C1C;" d="M577.755-2936.409c-0.757,0-1.491,0.306-2.027,0.843c-0.464,0.46-0.739,1.073-0.809,1.724h-0.016
				v0.164c-0.002,0.047-0.014,0.093-0.014,0.141c0,1.461,0,2.944,0,2.944s0.011,0,0.014,0v5.127h6.443v-5.127
				c3.411,0,7.657,0,11.435,0v5.127h6.443v-5.14c0.8-0.033,1.552-0.353,2.115-0.917c0.595-0.596,0.933-1.403,0.933-2.254
				c0-1.352,0-2.631,0-2.631S584.781-2936.409,577.755-2936.409z"/>
			<g transform="matrix(1.10359,0,0,0.919662,-3032.13,3040.61)">
				<rect x="3276.018" y="-6481.998" style="fill:#844885;" width="7.006" height="9.107"/>
			</g>
			<path style="fill:#844885;" d="M581.91-2915.096c0,0-1.202,0-2.404,0c-1.386,0-2.561,1.039-2.718,2.423
				c-0.444,3.903-1.305,11.48-1.709,15.035h-2.869v1.939h7.27v-0.01h0.226L581.91-2915.096z"/>
			<path style="fill:#A159A2;" d="M603.204-2910.238c0.669,0,1.299-0.32,1.687-0.863c0.398-0.533,0.504-1.231,0.301-1.871
				c-1.513-4.691-4.45-13.794-4.45-13.794l-5.011,0.049l4.042,11.632h-9.209v4.847
				C590.564-2910.238,598.726-2910.238,603.204-2910.238z"/>
			<path style="fill:#A159A2;" d="M594.201-2930.6h-14.075c-1.83,0-3.317,1.486-3.317,3.317v0.122c0,0-0.001,0-0.001,0
				c-1.838,0-3.328,1.49-3.328,3.329c0,1.839,1.49,3.329,3.328,3.329c0.005,0,0.01-0.001,0.015-0.001
				c0.077,1.763,1.522,3.173,3.303,3.173h14.075c1.829,0,3.317-1.486,3.317-3.317v-6.634
				C597.518-2929.114,596.031-2930.6,594.201-2930.6z"/>
			<path style="fill:#F29300;" d="M597.203-2915.079h-3.872c0-0.001-0.001-0.009-0.001-0.009h-12.335v0c-0.428,0-0.953,0-1.484,0
				c-1.387,0-2.562,1.046-2.719,2.427c-0.221,1.948-0.495,4.357-0.495,4.357h4.181c-0.305,4.006-0.672,8.827-0.888,11.658
				c-0.049,0.618,0.166,1.229,0.586,1.681c0.423,0.458,1.014,0.715,1.633,0.715c2.915,0,7.791,0,10.705,0
				c0.619,0,1.211-0.257,1.633-0.715c0.42-0.451,0.634-1.063,0.585-1.681c-0.25-3.284-0.703-9.242-1.027-13.5h3.497V-2915.079z"/>
			<path style="fill:#A159A2;" d="M598.445-2900.317c-0.088-0.152-0.178-0.307-0.266-0.459c-0.73-1.264-2.347-1.697-3.609-0.968
				c-3.25,1.877-9.028,5.212-11.141,6.432c0-2.856,0-6.951,0-9.613c0-0.697-0.278-1.369-0.775-1.866
				c-0.495-0.496-1.167-0.775-1.868-0.775c-0.176,0-0.355,0-0.53,0c-0.702,0-1.373,0.279-1.869,0.775
				c-0.497,0.497-0.775,1.169-0.775,1.866c0,3.89,0,10.863,0,12.51c-1.575,0.072-2.824,1.36-2.824,2.943c0,0.271,0,0.437,0,0.437
				h8.504v2.542c0,0,0.174,0,0.436,0c1.639,0,2.957-1.32,2.957-2.959c0-0.333,0-0.677,0-1.023c2.34-1.351,7.704-4.448,10.793-6.231
				C598.742-2897.437,599.174-2899.053,598.445-2900.317z"/>
			<g transform="matrix(0.919662,0,0,0.919662,-1900.29,2795.75)">
				<path style="fill:#061C1C;" d="M2701.221-6221.611c0-0.343-0.273-0.616-0.609-0.616h-1.226c-0.343,0-0.616,0.273-0.616,0.616
					v4.021c0,0.344,0.274,0.617,0.616,0.617h1.226c0.336,0,0.609-0.273,0.609-0.617V-6221.611z"/>
			</g>
			<g transform="matrix(0.919662,0,0,0.919662,-1886.03,2795.75)">
				<path style="fill:#061C1C;" d="M2696.578-6221.611c0-0.343-0.274-0.616-0.61-0.616h-1.226c-0.343,0-0.616,0.273-0.616,0.616
					v4.021c0,0.344,0.274,0.617,0.616,0.617h1.226c0.336,0,0.61-0.273,0.61-0.617V-6221.611z"/>
			</g>
		</g>
	</g>
	<g>
		<path style="fill:#E99600;" d="M1278.38,72.936L1278.38,72.936c-0.783-0.378-1.112-1.319-0.734-2.102l5.072-10.515
			c0.378-0.783,1.319-1.112,2.102-0.734v0c0.783,0.378,1.112,1.319,0.734,2.102l-5.072,10.515
			C1280.105,72.985,1279.164,73.314,1278.38,72.936z"/>
		<path style="fill:#F7D900;" d="M1267.443,76.824L1267.443,76.824c-0.805,0.328-1.724-0.058-2.053-0.864l-4.408-10.81
			c-0.328-0.805,0.058-1.724,0.864-2.053l0,0c0.805-0.328,1.724,0.058,2.053,0.864l4.408,10.81
			C1268.635,75.577,1268.248,76.496,1267.443,76.824z"/>
		<path style="fill:#FCE26C;" d="M1301.684,79.571c0-1.518-1.232-2.75-2.75-2.75h-49.497c-1.518,0-2.75,1.232-2.75,2.75
			c0,1.518,1.232,2.75,2.75,2.75h49.497C1300.451,82.321,1301.684,81.089,1301.684,79.571z"/>
		<path style="fill:#F6CB42;" d="M1219.589,76.897c0.443-0.785,1.275-1.27,2.176-1.27c0.9,0,1.732,0.484,2.176,1.27
			c1.722,3.05,3.839,6.801,3.839,6.801h-12.031C1215.749,83.698,1217.867,79.947,1219.589,76.897z"/>
		<path style="fill:#F6CB42;" d="M1312.396,78.444c0.443-0.785,1.275-1.27,2.176-1.27c0.901,0,1.732,0.484,2.176,1.27
			c1.722,3.05,3.839,6.801,3.839,6.801h-12.031C1308.557,85.245,1310.674,81.494,1312.396,78.444z"/>
		<path style="fill:#F6CB42;" d="M1237.635,58.336c0.444-0.785,1.276-1.27,2.176-1.27c0.901,0,1.733,0.484,2.176,1.27
			c1.722,3.051,3.839,6.801,3.839,6.801h-12.031C1233.795,65.137,1235.913,61.386,1237.635,58.336z"/>
		<path style="fill:#F6CB42;" d="M1229.538,78.429c0.738-1.307,2.122-2.119,3.621-2.119s2.889,0.812,3.627,2.119
			c2.889,5.122,6.464,11.455,6.464,11.455h-20.18C1223.068,89.884,1226.643,83.551,1229.538,78.429z"/>
		<path style="fill:#F6CB42;" d="M1187.855,59.217c0.785-1.069,2.03-1.702,3.356-1.702c1.326,0,2.571,0.633,3.355,1.702
			c2.935,4.002,6.735,9.182,6.735,9.182h-20.18C1181.121,68.4,1184.921,63.219,1187.855,59.217z"/>
		<path style="fill:#FCE26C;" d="M1348.627,74.762c0-1.708-1.386-3.094-3.094-3.094h-13.258c-1.708,0-3.094,1.386-3.094,3.094
			c0,1.708,1.386,3.094,3.094,3.094h13.258C1347.241,77.855,1348.627,76.469,1348.627,74.762z"/>
		<path style="fill:#76D7CC;" d="M1342.548,63.464c3.009,1.737,4.041,5.586,2.303,8.595c-1.738,3.01-5.586,4.041-8.595,2.303
			c-3.01-1.738-4.041-5.586-2.303-8.596C1335.69,62.758,1339.538,61.727,1342.548,63.464z"/>
		<g transform="matrix(0.0277748,0.0160358,-0.0160358,0.0277748,2553.22,5500.97)">
			<defs>
				<path id="SVGID_00000056420813595530986900000012694910108927203758_" d="M1342.548,63.464c3.009,1.737,4.041,5.586,2.303,8.595
					c-1.738,3.01-5.586,4.041-8.595,2.303c-3.01-1.738-4.041-5.586-2.303-8.596C1335.69,62.758,1339.538,61.727,1342.548,63.464z"/>
			</defs>
			<clipPath id="SVGID_00000041297412860557915770000017995229779410914954_">
				<use xlink:href="#SVGID_00000056420813595530986900000012694910108927203758_"  style="overflow:visible;"/>
			</clipPath>
			<g style="clip-path:url(#SVGID_00000041297412860557915770000017995229779410914954_);">
				<g transform="matrix(2.02187,1.13464e-16,-1.13464e-16,2.02187,-2369.02,-123.725)">
					<path style="fill:#6A57CC;" d="M1833.634,97.692c-0.337,0.151-0.696,0.256-1.067,0.309c-0.136-0.346-0.222-0.706-0.257-1.069
						l0.003-0.006c-0.086-0.882,0.12-1.784,0.614-2.556c0.428-0.669,1.034-1.183,1.733-1.499l0.004-0.006
						c0.339-0.153,0.701-0.259,1.074-0.312c0.136,0.346,0.222,0.706,0.258,1.069l0.001,0.01c0.086,0.881-0.12,1.782-0.614,2.555
						c-0.429,0.672-1.039,1.187-1.741,1.503L1833.634,97.692z"/>
				</g>
			</g>
		</g>
		<g transform="matrix(0.0626349,-0.016783,0.016783,0.0626349,2469.26,5526.6)">
			<path style="fill:#FFFFFF;fill-opacity:0.3373;" d="M5024.096-85827.773c0.002-4.602-1.824-9.031-5.083-12.289
				c-3.259-3.258-7.683-5.086-12.287-5.086c-0.004,0-0.004,0-0.004,0c-4.615,0-9.028,1.828-12.291,5.086s-5.085,7.68-5.088,12.289
				c0,7.422-0.001,16.07,0.003,23.492c-0.002,4.609,1.826,9.023,5.083,12.289c3.261,3.25,7.679,5.086,12.287,5.086
				c0,0,0.005,0,0.012,0c4.604,0,9.023-1.836,12.286-5.094c3.258-3.258,5.085-7.68,5.083-12.289
				C5024.1-85811.703,5024.095-85820.344,5024.096-85827.773z"/>
		</g>
		<g transform="matrix(0.0339768,-0.00588091,0.00354363,0.0204732,2513.85,5526.41)">
			<path style="fill:#FFFFFF;fill-opacity:0.3373;" d="M-6446.192-268342c0-15.938-7.771-28.844-17.365-28.844l-0.021,0.031
				c-9.603-0.031-17.37,12.875-17.372,28.812c0,0.188-0.001,0.375-0.001,0.594c0.008,15.906,7.771,28.812,17.365,28.812
				c0.009,0,0.019,0,0.03,0c9.592,0,17.36-12.906,17.36-28.812C-6446.194-268341.625-6446.193-268341.812-6446.192-268342z"/>
		</g>
		<g transform="matrix(0.146001,-3.52894e-19,2.75215e-19,0.114051,2337.01,4904.28)">
			<rect x="-7398.134" y="-42468.941" style="fill:#F1B600;" width="25.208" height="26.174"/>
		</g>
		<g transform="matrix(0.404457,0,0,0.326262,1730.38,3824.41)">
			<path style="fill:#FF6D5B;" d="M-1146.185-11497.521c0-4.927-3.224-8.925-7.198-8.925h-21.298c-3.974,0-7.198,3.998-7.198,8.925
				c0,4.925,3.224,8.923,7.198,8.923h21.298C-1149.41-11488.598-1146.185-11492.596-1146.185-11497.521z"/>
		</g>
		<g transform="matrix(0.289971,0,-0.050297,0.479185,2186.48,3016.27)">
			<path style="fill:#00CFB4;" d="M-4250.628-6158.732c0-2.463-3.302-4.462-7.371-4.462h-20.953c-4.068,0-7.37,2-7.37,4.462v8.923
				c-0.001,2.463,3.301,4.462,7.37,4.462h20.953c4.069,0,7.37-1.999,7.371-4.462V-6158.732z"/>
		</g>
		<path style="fill:#F7D900;" d="M1260.465,76.824L1260.465,76.824c-0.805,0.328-1.724-0.058-2.053-0.864l-4.408-10.81
			c-0.328-0.805,0.058-1.724,0.864-2.053h0c0.805-0.328,1.724,0.058,2.053,0.864l4.408,10.81
			C1261.657,75.577,1261.271,76.496,1260.465,76.824z"/>
		<g transform="matrix(0.76,0,0,0.76,581.071,1343.32)">
			<path style="fill:#061C1C;" d="M904.831-1694.686c-1.421-0.477-2.832-0.952-2.832-0.952s-0.537-1.577-1.05-3.084
				c-0.169-0.497-0.439-0.936-0.769-1.317c1.088-0.357,2.317-0.844,2.829-1.356c0.798-0.798,0.798-2.093,0-2.891
				c-0.798-0.798-2.094-0.798-2.891,0c-0.565,0.565-1.1,2.003-1.462,3.161c-0.462-0.185-0.958-0.296-1.477-0.296
				c-3.044,0-7.847,0-10.935,0c-0.436,0-0.858,0.072-1.255,0.204c-0.361-1.139-0.88-2.512-1.43-3.062
				c-0.796-0.796-2.088-0.796-2.884,0c-0.796,0.796-0.796,2.089,0,2.885c0.481,0.48,1.592,0.937,2.625,1.286
				c-0.391,0.431-0.697,0.945-0.872,1.529c-0.437,1.462-0.879,2.941-0.879,2.941s-1.326,0.456-2.682,0.922
				c-1.713,0.589-2.863,2.201-2.863,4.012c0,0.132,0,0.265,0,0.399c0,1.125,0.447,2.205,1.242,3c0.795,0.796,1.875,1.243,3,1.243
				c6.069,0,17.164,0,23.233,0c1.125,0,2.204-0.447,3-1.243c0.796-0.795,1.243-1.875,1.243-3c0-0.12,0-0.241,0-0.36
				C907.722-1692.486,906.558-1694.105,904.831-1694.686z"/>
			<g transform="matrix(0.481496,0,0,0.559549,1597.77,2551.41)">
				<path style="fill:#F7D900;" d="M-1447.751-7586.4c0-2.463-2.321-4.461-5.188-4.461h-25.318c-2.868,0-5.187,1.999-5.187,4.461
					v8.924c0,2.462,2.32,4.461,5.187,4.461h25.318c2.868,0,5.188-1.999,5.188-4.461V-7586.4z"/>
			</g>
			<g transform="matrix(0.760257,0,0,0.760257,-1150.63,3262.36)">
				<path style="fill:#061C1C;" d="M2684.222-6516.142c0-0.292-0.232-0.523-0.518-0.523h-1.041c-0.291,0-0.523,0.232-0.523,0.523
					v3.415c0,0.292,0.232,0.523,0.523,0.523h1.041c0.286,0,0.518-0.232,0.518-0.523V-6516.142z"/>
			</g>
			<g transform="matrix(0.760257,0,0,0.760257,-1135.81,3262.36)">
				<path style="fill:#061C1C;" d="M2676.324-6516.142c0-0.292-0.232-0.523-0.517-0.523h-1.041c-0.292,0-0.524,0.232-0.524,0.523
					v3.415c0,0.292,0.232,0.523,0.524,0.523h1.041c0.285,0,0.517-0.232,0.517-0.523V-6516.142z"/>
			</g>
			<g transform="matrix(0.0861752,-3.22631e-33,7.87598e-33,0.104717,2445,5575.6)">
				<rect x="-18084.697" y="-69457.383" style="fill:#061C1C;" width="133.89" height="41.643"/>
			</g>
			<g transform="matrix(0.929203,0,0,0.929203,-2195.5,2993.37)">
				<circle style="fill:#F7D900;" cx="3312.858" cy="-5041.131" r="2.677"/>
			</g>
		</g>
		<g transform="matrix(-0.146001,-3.52894e-19,-2.75215e-19,0.114051,2553.21,4898.5)">
			<rect x="8653.589" y="-42422.234" style="fill:#E99600;" width="25.208" height="-26.177"/>
		</g>
		<g transform="matrix(-0.404457,0,0,0.326262,3159.84,3818.63)">
			<path style="fill:#061C1C;" d="M4648.17-11490.345c0-4.925-3.225-8.923-7.198-8.923h-21.298c-3.974,0-7.198,3.998-7.198,8.923
				c0,4.927,3.225,8.925,7.198,8.925h21.298C4644.946-11481.42,4648.17-11485.418,4648.17-11490.345z"/>
		</g>
		<g transform="matrix(-0.289971,0,0.050297,0.479185,2703.74,3010.49)">
			<path style="fill:#C84500;" d="M3832.295-6153.846c0-2.463-3.302-4.461-7.371-4.461h-20.953c-4.068,0-7.37,1.999-7.37,4.461
				v8.924c-0.001,2.463,3.301,4.461,7.37,4.461h20.953c4.069,0,7.37-1.999,7.371-4.461L3832.295-6153.846z"/>
		</g>
		<g transform="matrix(-0.76,0,0,0.76,4309.15,1337.54)">
			<path style="fill:#FFB700;" d="M3966.238-1689.818c0.319,0,0.621,0.065,0.901,0.174v-1.686c0-1.536,1.249-2.784,2.784-2.784
				h11.618c1.535,0,2.784,1.247,2.784,2.784v5.568c0,1.537-1.249,2.784-2.784,2.784h-11.618c-1.291,0-2.369-0.886-2.683-2.08
				c-0.307,0.135-0.645,0.214-1.002,0.214c-1.374,0-2.487-1.114-2.487-2.488C3963.75-1688.705,3964.864-1689.818,3966.238-1689.818z
				"/>
			<g transform="matrix(0.760257,0,0,0.760257,-1150.63,3262.36)">
				<path style="fill:#061C1C;" d="M6740.274-6512.089c0-0.292-0.232-0.524-0.518-0.524h-1.041c-0.291,0-0.523,0.232-0.523,0.524
					v3.415c0,0.291,0.232,0.523,0.523,0.523h1.041c0.286,0,0.518-0.232,0.518-0.523V-6512.089z"/>
			</g>
			<g transform="matrix(0.760257,0,0,0.760257,-1135.81,3262.36)">
				<path style="fill:#061C1C;" d="M6732.377-6512.089c0-0.292-0.232-0.524-0.518-0.524h-1.041c-0.292,0-0.523,0.232-0.523,0.524
					v3.415c0,0.291,0.231,0.523,0.523,0.523h1.041c0.286,0,0.518-0.232,0.518-0.523V-6512.089z"/>
			</g>
			<path style="fill:#061C1C;" d="M3966.441-1695.23c0.709-0.71,1.671-1.108,2.674-1.108c0.666,0,1.327,0,1.904,0
				c0.085-0.779,0.416-1.512,0.976-2.071c0.648-0.649,1.528-1.013,2.445-1.013c3.681,0,8.98,0,8.98,0s0,0.179,0,0.476
				c0,0.8-0.168,1.56-0.466,2.25c0.519,0.252,1.006,0.571,1.421,0.987c0.982,0.983,1.534,2.315,1.534,3.705c0,1.501,0,2.74,0,2.74
				s-3.882,0-7.422,0c-1.51,0-2.958-0.6-4.026-1.668c-0.653-0.653-1.105-1.456-1.378-2.32c-0.099,0-0.193,0-0.287,0
				c0,0.197,0,0.394,0,0.59c0,1.66-1.344,3.004-3.003,3.004c-2.074,0-4.459,0-4.459,0s0-1.388,0-2.899
				C3965.333-1693.559,3965.732-1694.521,3966.441-1695.23z"/>
		</g>
		<path style="fill:#E99600;" d="M1285.887,72.936L1285.887,72.936c-0.783-0.378-1.112-1.319-0.734-2.102l5.072-10.515
			c0.378-0.783,1.319-1.112,2.102-0.734v0c0.783,0.378,1.112,1.319,0.734,2.102l-5.072,10.515
			C1287.612,72.985,1286.671,73.314,1285.887,72.936z"/>
		<polygon style="fill:#F1B600;" points="1296.873,68.917 1294.811,68.917 1294.811,70.194 1292.745,70.194 1292.745,68.745 
			1290.682,68.745 1290.682,70.194 1288.622,70.194 1288.622,68.917 1286.56,68.917 1286.56,70.194 1284.497,70.194 
			1284.499,59.982 1282.437,59.982 1282.437,61.352 1280.371,61.352 1280.371,59.982 1278.308,59.982 1278.308,61.352 
			1276.248,61.352 1276.248,59.982 1274.186,59.982 1274.186,61.352 1274.185,61.352 1274.185,66.278 1272.125,66.278 
			1272.125,64.794 1270.063,64.794 1270.063,66.278 1267.997,66.278 1267.997,64.794 1265.934,64.794 1265.938,70.292 
			1263.874,70.292 1263.874,68.917 1261.812,68.917 1261.812,70.292 1259.746,70.292 1259.746,68.917 1257.683,68.917 
			1257.683,70.292 1255.623,70.292 1255.623,68.917 1253.561,68.917 1253.561,79.916 1296.874,79.917 		"/>
		<rect x="1278.055" y="64.791" style="fill:#E89300;" width="1.891" height="3.265"/>
	</g>
</g>
<g id="aulas" style="display:none;">
	<g style="display:inline;">
		<rect x="368.174" y="0" style="fill-rule:evenodd;clip-rule:evenodd;fill:#FFFFFF;" width="33.652" height="145"/>
		<circle style="fill-rule:evenodd;clip-rule:evenodd;fill:#5654A2;" cx="385" cy="72.5" r="42.5"/>
	</g>
</g>
</svg>
