<?xml version="1.0" encoding="utf-8"?>
<!-- Generator: Adobe Illustrator 27.7.0, SVG Export Plug-In . SVG Version: 6.00 Build 0)  -->
<svg version="1.1" xmlns="http://www.w3.org/2000/svg" xmlns:xlink="http://www.w3.org/1999/xlink" x="0px" y="0px" width="1500px"
	 height="145px" viewBox="0 0 1500 145" style="enable-background:new 0 0 1500 145;" xml:space="preserve">
<g id="background">
	<rect x="-80.448" y="-2881.348" style="fill:#04D5D8;" width="1640.647" height="4034.435"/>
	<path style="fill:#4EEAE6;" d="M1086.327,91.512c-49.706,0-90-40.294-90-90v-134.57c0-49.706,40.294-90,90-90h1.646
		c5.523,0,10-4.477,10-10V-240c0-5.523-4.477-10-10-10H898.671c-5.523,0-10,4.477-10,10v0c0,114.599-92.901,207.5-207.5,207.5
		H580.273c-11.046,0-20,8.954-20,20v4.012c0,55.228-44.772,100-100,100H177.596c-55.228,0-100-44.772-100-100v-28.561
		c0-11.046-8.954-20-20-20H-8.858v-1100.379h250.766c6.415,0,11.615-5.2,11.615-11.615v0c0-42.526,34.474-77,77-77h71.434
		c8.402,0,15.648-5.903,17.343-14.133c7.213-35.029,38.29-61.45,75.422-61.45h144.932c42.526,0,77,34.474,77,77v74.76
		c0,39.977,32.408,72.384,72.384,72.384h64.547c42.751,0,77.86,33.144,81.659,74.952c0.389,4.279,4.029,7.529,8.326,7.529h94.125
		c4.459,0,8.126-3.497,8.354-7.951c4.139-80.754,71-143.599,152.874-143.599h362.181V-45.32h-269.837
		c-25.865,0-46.832,20.967-46.832,46.832v0c0,49.706-40.294,90-90,90H1086.327z"/>
	<g>
		<path style="fill:#FFED8B;" d="M1034.372-576.94L1034.372-576.94c0-51.28,41.571-92.851,92.85-92.851h57.665
			c32.387,0,58.642-26.255,58.642-58.642l0,0c0-32.387,26.255-58.642,58.642-58.642h218.932v-339.474h-322.181
			c-62.45,0-113.076,50.626-113.076,113.076v0c0,23.196-18.804,42-42,42H937.585c-23.196,0-42-18.804-42-42v-2.009
			c0-23.196-18.804-42-42-42H777.81c-55.867,0-101.156-45.289-101.156-101.156v-85.988c0-20.435-16.565-37-37-37H494.722
			c-20.435,0-37,16.565-37,37v1.583c0,20.435-16.565,37-37,37h-77.199c-27.614,0-50,22.386-50,50v1.615c0,20.435-16.565,37-37,37
			H-42.694V-97.049H57.596c33.137,0,60,26.863,60,60v28.561c0,33.137,26.863,60,60,60h282.678c33.137,0,60-26.863,60-60V-12.5
			c0-33.137,26.863-60,60-60h100.898c92.508,0,167.5-74.992,167.5-167.5v0c0-27.614,22.386-50,50-50h189.302
			c27.614,0,50,22.386,50,50v6.942c0,27.614-22.386,50-50,50h-1.647c-27.614,0-50,22.386-50,50V1.511c0,27.614,22.386,50,50,50
			h68.108c27.614,0,50-22.386,50-50v0c0-47.956,38.876-86.832,86.832-86.832h229.837v-328.037c0-39.064-31.668-70.732-70.732-70.732
			h-323.15C1075.943-484.089,1034.372-525.66,1034.372-576.94z"/>
	</g>
	<g>
		<g style="opacity:0.3;">
			<defs>
				<path id="SVGID_00000160901767832375631520000000193328455485473175_" style="opacity:0.3;" d="M336.125-369.955V-459.7
					c0-32.162-26.05-58.234-58.185-58.234H-60.887c-10.803,0-19.561,8.758-19.561,19.561c0,10.803-8.758,19.561-19.561,19.561
					h-159.717v-59.271c-11.79-12.068-19.067-28.57-19.067-46.781v-128.364c0-18.211,7.277-34.714,19.067-46.781v-127.094h125.851
					c29.507,0,53.427,23.94,53.427,53.472v0c0,29.532,23.92,53.472,53.427,53.472H165.83c22.148,0,40.102,17.954,40.102,40.102
					v26.828c0,36.964,29.94,66.93,66.873,66.93h154.62h12.544c13.535,0,24.507-10.972,24.507-24.507v-8.366
					c0-13.535,10.972-24.507,24.507-24.507h213.516c13.535,0,24.507,10.973,24.507,24.507v105.031
					c0,13.535-10.972,24.507-24.507,24.507h0c-13.535,0-24.507,10.972-24.507,24.507v75.937c0,13.535-10.972,24.507-24.507,24.507
					h-64.225c-13.535,0-24.507,10.972-24.507,24.507v28.788c0,13.535-10.972,24.507-24.507,24.507H359.2
					C346.457-346.88,336.125-357.211,336.125-369.955z"/>
			</defs>
			<clipPath id="SVGID_00000160872383560424822320000012374856758310429589_">
				<use xlink:href="#SVGID_00000160901767832375631520000000193328455485473175_"  style="overflow:visible;"/>
			</clipPath>
			
				<path style="clip-path:url(#SVGID_00000160872383560424822320000012374856758310429589_);fill:none;stroke:#97CEC8;stroke-width:1.5;stroke-linecap:round;stroke-linejoin:round;stroke-miterlimit:10;" d="
				M88.584,5.067h16.599c1.073,0,1.943,0.87,1.943,1.943v4.44c0,2.147-1.74,3.887-3.887,3.887H88.584
				c-1.073,0-1.943-0.87-1.943-1.943V7.011C86.641,5.937,87.511,5.067,88.584,5.067z"/>
			
				<path style="clip-path:url(#SVGID_00000160872383560424822320000012374856758310429589_);fill:none;stroke:#97CEC8;stroke-width:1.5;stroke-linecap:round;stroke-linejoin:round;stroke-miterlimit:10;" d="
				M68.098,5.067h16.599c1.073,0,1.943,0.87,1.943,1.943v6.383c0,1.073-0.87,1.943-1.943,1.943H68.098
				c-1.073,0-1.943-0.87-1.943-1.943V7.011C66.155,5.937,67.025,5.067,68.098,5.067z"/>
			
				<path style="clip-path:url(#SVGID_00000160872383560424822320000012374856758310429589_);fill:none;stroke:#97CEC8;stroke-width:1.5;stroke-linecap:round;stroke-linejoin:round;stroke-miterlimit:10;" d="
				M47.592,5.067h16.599c1.073,0,1.943,0.87,1.943,1.943v6.383c0,1.073-0.87,1.943-1.943,1.943H47.592
				c-1.073,0-1.943-0.87-1.943-1.943V7.011C45.648,5.937,46.519,5.067,47.592,5.067z"/>
			
				<path style="clip-path:url(#SVGID_00000160872383560424822320000012374856758310429589_);fill:none;stroke:#97CEC8;stroke-width:1.5;stroke-linecap:round;stroke-linejoin:round;stroke-miterlimit:10;" d="
				M27.106,5.067h16.599c1.073,0,1.943,0.87,1.943,1.943v6.383c0,1.073-0.87,1.943-1.943,1.943H27.106
				c-1.073,0-1.943-0.87-1.943-1.943V7.011C25.163,5.937,26.033,5.067,27.106,5.067z"/>
			
				<path style="clip-path:url(#SVGID_00000160872383560424822320000012374856758310429589_);fill:none;stroke:#97CEC8;stroke-width:1.5;stroke-linecap:round;stroke-linejoin:round;stroke-miterlimit:10;" d="
				M6.617,5.067h16.599c1.073,0,1.943,0.87,1.943,1.943v6.383c0,1.073-0.87,1.943-1.943,1.943H6.617
				c-1.073,0-1.943-0.87-1.943-1.943V7.011C4.674,5.937,5.544,5.067,6.617,5.067z"/>
			
				<path style="clip-path:url(#SVGID_00000160872383560424822320000012374856758310429589_);fill:none;stroke:#97CEC8;stroke-width:1.5;stroke-linecap:round;stroke-linejoin:round;stroke-miterlimit:10;" d="
				M-13.868,5.067H2.731c1.073,0,1.943,0.87,1.943,1.943v6.383c0,1.073-0.87,1.943-1.943,1.943h-16.599
				c-1.073,0-1.943-0.87-1.943-1.943V7.011C-15.812,5.937-14.942,5.067-13.868,5.067z"/>
			
				<path style="clip-path:url(#SVGID_00000160872383560424822320000012374856758310429589_);fill:none;stroke:#97CEC8;stroke-width:1.5;stroke-linecap:round;stroke-linejoin:round;stroke-miterlimit:10;" d="
				M98.813-5.202h16.599c1.073,0,1.943,0.87,1.943,1.943v6.383c0,1.073-0.87,1.943-1.943,1.943H98.813
				c-1.073,0-1.943-0.87-1.943-1.943v-6.383C96.87-4.332,97.74-5.202,98.813-5.202z"/>
			
				<path style="clip-path:url(#SVGID_00000160872383560424822320000012374856758310429589_);fill:none;stroke:#97CEC8;stroke-width:1.5;stroke-linecap:round;stroke-linejoin:round;stroke-miterlimit:10;" d="
				M78.327-5.202h16.599c1.073,0,1.943,0.87,1.943,1.943v6.383c0,1.073-0.87,1.943-1.943,1.943H78.327
				c-1.073,0-1.943-0.87-1.943-1.943v-6.383C76.384-4.332,77.254-5.202,78.327-5.202z"/>
			
				<path style="clip-path:url(#SVGID_00000160872383560424822320000012374856758310429589_);fill:none;stroke:#97CEC8;stroke-width:1.5;stroke-linecap:round;stroke-linejoin:round;stroke-miterlimit:10;" d="
				M57.821-5.202H74.42c1.073,0,1.943,0.87,1.943,1.943v6.383c0,1.073-0.87,1.943-1.943,1.943H57.821
				c-1.073,0-1.943-0.87-1.943-1.943v-6.383C55.878-4.332,56.748-5.202,57.821-5.202z"/>
			
				<path style="clip-path:url(#SVGID_00000160872383560424822320000012374856758310429589_);fill:none;stroke:#97CEC8;stroke-width:1.5;stroke-linecap:round;stroke-linejoin:round;stroke-miterlimit:10;" d="
				M37.335-5.202h16.599c1.073,0,1.943,0.87,1.943,1.943v6.383c0,1.073-0.87,1.943-1.943,1.943H37.335
				c-1.073,0-1.943-0.87-1.943-1.943v-6.383C35.392-4.332,36.262-5.202,37.335-5.202z"/>
			
				<path style="clip-path:url(#SVGID_00000160872383560424822320000012374856758310429589_);fill:none;stroke:#97CEC8;stroke-width:1.5;stroke-linecap:round;stroke-linejoin:round;stroke-miterlimit:10;" d="
				M16.846-5.202h16.599c1.073,0,1.943,0.87,1.943,1.943v6.383c0,1.073-0.87,1.943-1.943,1.943H16.846
				c-1.073,0-1.943-0.87-1.943-1.943v-6.383C14.903-4.332,15.773-5.202,16.846-5.202z"/>
			
				<path style="clip-path:url(#SVGID_00000160872383560424822320000012374856758310429589_);fill:none;stroke:#97CEC8;stroke-width:1.5;stroke-linecap:round;stroke-linejoin:round;stroke-miterlimit:10;" d="
				M-3.639-5.202H12.96c1.073,0,1.943,0.87,1.943,1.943v6.383c0,1.073-0.87,1.943-1.943,1.943H-3.639
				c-1.073,0-1.943-0.87-1.943-1.943v-6.383C-5.583-4.332-4.713-5.202-3.639-5.202z"/>
			
				<path style="clip-path:url(#SVGID_00000160872383560424822320000012374856758310429589_);fill:none;stroke:#97CEC8;stroke-width:1.5;stroke-linecap:round;stroke-linejoin:round;stroke-miterlimit:10;" d="
				M252.504,5.067h16.599c1.073,0,1.943,0.87,1.943,1.943v6.383c0,1.073-0.87,1.943-1.943,1.943h-16.599
				c-1.073,0-1.943-0.87-1.943-1.943V7.011C250.561,5.937,251.431,5.067,252.504,5.067z"/>
			
				<path style="clip-path:url(#SVGID_00000160872383560424822320000012374856758310429589_);fill:none;stroke:#97CEC8;stroke-width:1.5;stroke-linecap:round;stroke-linejoin:round;stroke-miterlimit:10;" d="
				M232.018,5.067h16.599c1.073,0,1.943,0.87,1.943,1.943v6.383c0,1.073-0.87,1.943-1.943,1.943h-16.599
				c-1.073,0-1.943-0.87-1.943-1.943V7.011C230.075,5.937,230.945,5.067,232.018,5.067z"/>
			
				<path style="clip-path:url(#SVGID_00000160872383560424822320000012374856758310429589_);fill:none;stroke:#97CEC8;stroke-width:1.5;stroke-linecap:round;stroke-linejoin:round;stroke-miterlimit:10;" d="
				M211.53,5.067h16.599c1.073,0,1.943,0.87,1.943,1.943v6.383c0,1.073-0.87,1.943-1.943,1.943H211.53
				c-1.073,0-1.943-0.87-1.943-1.943V7.011C209.586,5.937,210.456,5.067,211.53,5.067z"/>
			
				<path style="clip-path:url(#SVGID_00000160872383560424822320000012374856758310429589_);fill:none;stroke:#97CEC8;stroke-width:1.5;stroke-linecap:round;stroke-linejoin:round;stroke-miterlimit:10;" d="
				M191.044,5.067h16.599c1.073,0,1.943,0.87,1.943,1.943v6.383c0,1.073-0.87,1.943-1.943,1.943h-16.599
				c-1.073,0-1.943-0.87-1.943-1.943V7.011C189.101,5.937,189.971,5.067,191.044,5.067z"/>
			
				<path style="clip-path:url(#SVGID_00000160872383560424822320000012374856758310429589_);fill:none;stroke:#97CEC8;stroke-width:1.5;stroke-linecap:round;stroke-linejoin:round;stroke-miterlimit:10;" d="
				M170.537,5.067h16.599c1.073,0,1.943,0.87,1.943,1.943v6.383c0,1.073-0.87,1.943-1.943,1.943h-16.599
				c-1.073,0-1.943-0.87-1.943-1.943V7.011C168.594,5.937,169.464,5.067,170.537,5.067z"/>
			
				<path style="clip-path:url(#SVGID_00000160872383560424822320000012374856758310429589_);fill:none;stroke:#97CEC8;stroke-width:1.5;stroke-linecap:round;stroke-linejoin:round;stroke-miterlimit:10;" d="
				M150.052,5.067h16.599c1.073,0,1.943,0.87,1.943,1.943v6.383c0,1.073-0.87,1.943-1.943,1.943h-16.599
				c-1.073,0-1.943-0.87-1.943-1.943V7.011C148.108,5.937,148.978,5.067,150.052,5.067z"/>
			
				<path style="clip-path:url(#SVGID_00000160872383560424822320000012374856758310429589_);fill:none;stroke:#97CEC8;stroke-width:1.5;stroke-linecap:round;stroke-linejoin:round;stroke-miterlimit:10;" d="
				M129.59,5.067h16.599c1.073,0,1.943,0.87,1.943,1.943v6.383c0,1.073-0.87,1.943-1.943,1.943H129.59
				c-1.073,0-1.943-0.87-1.943-1.943V7.011C127.647,5.937,128.517,5.067,129.59,5.067z"/>
			
				<path style="clip-path:url(#SVGID_00000160872383560424822320000012374856758310429589_);fill:none;stroke:#97CEC8;stroke-width:1.5;stroke-linecap:round;stroke-linejoin:round;stroke-miterlimit:10;" d="
				M109.105,5.067h16.599c1.073,0,1.943,0.87,1.943,1.943v6.383c0,1.073-0.87,1.943-1.943,1.943h-14.656
				c-2.147,0-3.887-1.74-3.887-3.887v-4.44C107.161,5.937,108.031,5.067,109.105,5.067z"/>
			
				<path style="clip-path:url(#SVGID_00000160872383560424822320000012374856758310429589_);fill:none;stroke:#97CEC8;stroke-width:1.5;stroke-linecap:round;stroke-linejoin:round;stroke-miterlimit:10;" d="
				M98.848-5.202h16.599c1.073,0,1.943,0.87,1.943,1.943v6.383c0,1.073-0.87,1.943-1.943,1.943H98.848
				c-1.073,0-1.943-0.87-1.943-1.943v-6.383C96.905-4.332,97.775-5.202,98.848-5.202z"/>
			
				<path style="clip-path:url(#SVGID_00000160872383560424822320000012374856758310429589_);fill:none;stroke:#97CEC8;stroke-width:1.5;stroke-linecap:round;stroke-linejoin:round;stroke-miterlimit:10;" d="
				M242.247-5.202h16.599c1.073,0,1.943,0.87,1.943,1.943v6.383c0,1.073-0.87,1.943-1.943,1.943h-16.599
				c-1.073,0-1.943-0.87-1.943-1.943v-6.383C240.304-4.332,241.174-5.202,242.247-5.202z"/>
			
				<path style="clip-path:url(#SVGID_00000160872383560424822320000012374856758310429589_);fill:none;stroke:#97CEC8;stroke-width:1.5;stroke-linecap:round;stroke-linejoin:round;stroke-miterlimit:10;" d="
				M221.759-5.202h16.599c1.073,0,1.943,0.87,1.943,1.943v6.383c0,1.073-0.87,1.943-1.943,1.943h-16.599
				c-1.073,0-1.943-0.87-1.943-1.943v-6.383C219.815-4.332,220.685-5.202,221.759-5.202z"/>
			
				<path style="clip-path:url(#SVGID_00000160872383560424822320000012374856758310429589_);fill:none;stroke:#97CEC8;stroke-width:1.5;stroke-linecap:round;stroke-linejoin:round;stroke-miterlimit:10;" d="
				M201.273-5.202h16.599c1.073,0,1.943,0.87,1.943,1.943v6.383c0,1.073-0.87,1.943-1.943,1.943h-16.599
				c-1.073,0-1.943-0.87-1.943-1.943v-6.383C199.33-4.332,200.2-5.202,201.273-5.202z"/>
			
				<path style="clip-path:url(#SVGID_00000160872383560424822320000012374856758310429589_);fill:none;stroke:#97CEC8;stroke-width:1.5;stroke-linecap:round;stroke-linejoin:round;stroke-miterlimit:10;" d="
				M180.766-5.202h16.599c1.073,0,1.943,0.87,1.943,1.943v6.383c0,1.073-0.87,1.943-1.943,1.943h-16.599
				c-1.073,0-1.943-0.87-1.943-1.943v-6.383C178.823-4.332,179.693-5.202,180.766-5.202z"/>
			
				<path style="clip-path:url(#SVGID_00000160872383560424822320000012374856758310429589_);fill:none;stroke:#97CEC8;stroke-width:1.5;stroke-linecap:round;stroke-linejoin:round;stroke-miterlimit:10;" d="
				M160.281-5.202h16.599c1.073,0,1.943,0.87,1.943,1.943v6.383c0,1.073-0.87,1.943-1.943,1.943h-16.599
				c-1.073,0-1.943-0.87-1.943-1.943v-6.383C158.337-4.332,159.207-5.202,160.281-5.202z"/>
			
				<path style="clip-path:url(#SVGID_00000160872383560424822320000012374856758310429589_);fill:none;stroke:#97CEC8;stroke-width:1.5;stroke-linecap:round;stroke-linejoin:round;stroke-miterlimit:10;" d="
				M139.819-5.202h16.599c1.073,0,1.943,0.87,1.943,1.943v6.383c0,1.073-0.87,1.943-1.943,1.943h-16.599
				c-1.073,0-1.943-0.87-1.943-1.943v-6.383C137.876-4.332,138.746-5.202,139.819-5.202z"/>
			
				<path style="clip-path:url(#SVGID_00000160872383560424822320000012374856758310429589_);fill:none;stroke:#97CEC8;stroke-width:1.5;stroke-linecap:round;stroke-linejoin:round;stroke-miterlimit:10;" d="
				M119.334-5.202h16.599c1.073,0,1.943,0.87,1.943,1.943v6.383c0,1.073-0.87,1.943-1.943,1.943h-16.599
				c-1.073,0-1.943-0.87-1.943-1.943v-6.383C117.39-4.332,118.261-5.202,119.334-5.202z"/>
			
				<path style="clip-path:url(#SVGID_00000160872383560424822320000012374856758310429589_);fill:none;stroke:#97CEC8;stroke-width:1.5;stroke-linecap:round;stroke-linejoin:round;stroke-miterlimit:10;" d="
				M88.584,66.69h16.599c1.073,0,1.943,0.87,1.943,1.943v4.44c0,2.147-1.74,3.887-3.887,3.887H88.584
				c-1.073,0-1.943-0.87-1.943-1.943v-6.383C86.641,67.56,87.511,66.69,88.584,66.69z"/>
			
				<path style="clip-path:url(#SVGID_00000160872383560424822320000012374856758310429589_);fill:none;stroke:#97CEC8;stroke-width:1.5;stroke-linecap:round;stroke-linejoin:round;stroke-miterlimit:10;" d="
				M68.098,66.69h16.599c1.073,0,1.943,0.87,1.943,1.943v6.383c0,1.073-0.87,1.943-1.943,1.943H68.098
				c-1.073,0-1.943-0.87-1.943-1.943v-6.383C66.155,67.56,67.025,66.69,68.098,66.69z"/>
			
				<path style="clip-path:url(#SVGID_00000160872383560424822320000012374856758310429589_);fill:none;stroke:#97CEC8;stroke-width:1.5;stroke-linecap:round;stroke-linejoin:round;stroke-miterlimit:10;" d="
				M47.592,66.69h16.599c1.073,0,1.943,0.87,1.943,1.943v6.383c0,1.073-0.87,1.943-1.943,1.943H47.592
				c-1.073,0-1.943-0.87-1.943-1.943v-6.383C45.648,67.56,46.519,66.69,47.592,66.69z"/>
			
				<path style="clip-path:url(#SVGID_00000160872383560424822320000012374856758310429589_);fill:none;stroke:#97CEC8;stroke-width:1.5;stroke-linecap:round;stroke-linejoin:round;stroke-miterlimit:10;" d="
				M27.106,66.69h16.599c1.073,0,1.943,0.87,1.943,1.943v6.383c0,1.073-0.87,1.943-1.943,1.943H27.106
				c-1.073,0-1.943-0.87-1.943-1.943v-6.383C25.163,67.56,26.033,66.69,27.106,66.69z"/>
			
				<path style="clip-path:url(#SVGID_00000160872383560424822320000012374856758310429589_);fill:none;stroke:#97CEC8;stroke-width:1.5;stroke-linecap:round;stroke-linejoin:round;stroke-miterlimit:10;" d="
				M6.617,66.69h16.599c1.073,0,1.943,0.87,1.943,1.943v6.383c0,1.073-0.87,1.943-1.943,1.943H6.617
				c-1.073,0-1.943-0.87-1.943-1.943v-6.383C4.674,67.56,5.544,66.69,6.617,66.69z"/>
			
				<path style="clip-path:url(#SVGID_00000160872383560424822320000012374856758310429589_);fill:none;stroke:#97CEC8;stroke-width:1.5;stroke-linecap:round;stroke-linejoin:round;stroke-miterlimit:10;" d="
				M-13.868,66.69H2.731c1.073,0,1.943,0.87,1.943,1.943v6.383c0,1.073-0.87,1.943-1.943,1.943h-16.599
				c-1.073,0-1.943-0.87-1.943-1.943v-6.383C-15.812,67.56-14.942,66.69-13.868,66.69z"/>
			
				<path style="clip-path:url(#SVGID_00000160872383560424822320000012374856758310429589_);fill:none;stroke:#97CEC8;stroke-width:1.5;stroke-linecap:round;stroke-linejoin:round;stroke-miterlimit:10;" d="
				M98.813,56.421h16.599c1.073,0,1.943,0.87,1.943,1.943v6.383c0,1.073-0.87,1.943-1.943,1.943H98.813
				c-1.073,0-1.943-0.87-1.943-1.943v-6.383C96.87,57.291,97.74,56.421,98.813,56.421z"/>
			
				<path style="clip-path:url(#SVGID_00000160872383560424822320000012374856758310429589_);fill:none;stroke:#97CEC8;stroke-width:1.5;stroke-linecap:round;stroke-linejoin:round;stroke-miterlimit:10;" d="
				M78.327,56.421h16.599c1.073,0,1.943,0.87,1.943,1.943v6.383c0,1.073-0.87,1.943-1.943,1.943H78.327
				c-1.073,0-1.943-0.87-1.943-1.943v-6.383C76.384,57.291,77.254,56.421,78.327,56.421z"/>
			
				<path style="clip-path:url(#SVGID_00000160872383560424822320000012374856758310429589_);fill:none;stroke:#97CEC8;stroke-width:1.5;stroke-linecap:round;stroke-linejoin:round;stroke-miterlimit:10;" d="
				M57.821,56.421H74.42c1.073,0,1.943,0.87,1.943,1.943v6.383c0,1.073-0.87,1.943-1.943,1.943H57.821
				c-1.073,0-1.943-0.87-1.943-1.943v-6.383C55.878,57.291,56.748,56.421,57.821,56.421z"/>
			
				<path style="clip-path:url(#SVGID_00000160872383560424822320000012374856758310429589_);fill:none;stroke:#97CEC8;stroke-width:1.5;stroke-linecap:round;stroke-linejoin:round;stroke-miterlimit:10;" d="
				M37.335,56.421h16.599c1.073,0,1.943,0.87,1.943,1.943v6.383c0,1.073-0.87,1.943-1.943,1.943H37.335
				c-1.073,0-1.943-0.87-1.943-1.943v-6.383C35.392,57.291,36.262,56.421,37.335,56.421z"/>
			
				<path style="clip-path:url(#SVGID_00000160872383560424822320000012374856758310429589_);fill:none;stroke:#97CEC8;stroke-width:1.5;stroke-linecap:round;stroke-linejoin:round;stroke-miterlimit:10;" d="
				M16.846,56.421h16.599c1.073,0,1.943,0.87,1.943,1.943v6.383c0,1.073-0.87,1.943-1.943,1.943H16.846
				c-1.073,0-1.943-0.87-1.943-1.943v-6.383C14.903,57.291,15.773,56.421,16.846,56.421z"/>
			
				<path style="clip-path:url(#SVGID_00000160872383560424822320000012374856758310429589_);fill:none;stroke:#97CEC8;stroke-width:1.5;stroke-linecap:round;stroke-linejoin:round;stroke-miterlimit:10;" d="
				M-3.639,56.421H12.96c1.073,0,1.943,0.87,1.943,1.943v6.383c0,1.073-0.87,1.943-1.943,1.943H-3.639
				c-1.073,0-1.943-0.87-1.943-1.943v-6.383C-5.583,57.291-4.713,56.421-3.639,56.421z"/>
			
				<path style="clip-path:url(#SVGID_00000160872383560424822320000012374856758310429589_);fill:none;stroke:#97CEC8;stroke-width:1.5;stroke-linecap:round;stroke-linejoin:round;stroke-miterlimit:10;" d="
				M88.584,46.151h16.599c1.073,0,1.943,0.87,1.943,1.943v6.383c0,1.073-0.87,1.943-1.943,1.943H88.584
				c-1.073,0-1.943-0.87-1.943-1.943v-6.383C86.641,47.022,87.511,46.151,88.584,46.151z"/>
			
				<path style="clip-path:url(#SVGID_00000160872383560424822320000012374856758310429589_);fill:none;stroke:#97CEC8;stroke-width:1.5;stroke-linecap:round;stroke-linejoin:round;stroke-miterlimit:10;" d="
				M68.098,46.151h16.599c1.073,0,1.943,0.87,1.943,1.943v6.383c0,1.073-0.87,1.943-1.943,1.943H68.098
				c-1.073,0-1.943-0.87-1.943-1.943v-6.383C66.155,47.022,67.025,46.151,68.098,46.151z"/>
			
				<path style="clip-path:url(#SVGID_00000160872383560424822320000012374856758310429589_);fill:none;stroke:#97CEC8;stroke-width:1.5;stroke-linecap:round;stroke-linejoin:round;stroke-miterlimit:10;" d="
				M47.592,46.151h16.599c1.073,0,1.943,0.87,1.943,1.943v6.383c0,1.073-0.87,1.943-1.943,1.943H47.592
				c-1.073,0-1.943-0.87-1.943-1.943v-6.383C45.648,47.022,46.519,46.151,47.592,46.151z"/>
			
				<path style="clip-path:url(#SVGID_00000160872383560424822320000012374856758310429589_);fill:none;stroke:#97CEC8;stroke-width:1.5;stroke-linecap:round;stroke-linejoin:round;stroke-miterlimit:10;" d="
				M27.106,46.151h16.599c1.073,0,1.943,0.87,1.943,1.943v6.383c0,1.073-0.87,1.943-1.943,1.943H27.106
				c-1.073,0-1.943-0.87-1.943-1.943v-6.383C25.163,47.022,26.033,46.151,27.106,46.151z"/>
			
				<path style="clip-path:url(#SVGID_00000160872383560424822320000012374856758310429589_);fill:none;stroke:#97CEC8;stroke-width:1.5;stroke-linecap:round;stroke-linejoin:round;stroke-miterlimit:10;" d="
				M6.617,46.151h16.599c1.073,0,1.943,0.87,1.943,1.943v6.383c0,1.073-0.87,1.943-1.943,1.943H6.617
				c-1.073,0-1.943-0.87-1.943-1.943v-6.383C4.674,47.022,5.544,46.151,6.617,46.151z"/>
			
				<path style="clip-path:url(#SVGID_00000160872383560424822320000012374856758310429589_);fill:none;stroke:#97CEC8;stroke-width:1.5;stroke-linecap:round;stroke-linejoin:round;stroke-miterlimit:10;" d="
				M-13.868,46.151H2.731c1.073,0,1.943,0.87,1.943,1.943v6.383c0,1.073-0.87,1.943-1.943,1.943h-16.599
				c-1.073,0-1.943-0.87-1.943-1.943v-6.383C-15.812,47.022-14.942,46.151-13.868,46.151z"/>
			
				<path style="clip-path:url(#SVGID_00000160872383560424822320000012374856758310429589_);fill:none;stroke:#97CEC8;stroke-width:1.5;stroke-linecap:round;stroke-linejoin:round;stroke-miterlimit:10;" d="
				M98.813,35.882h16.599c1.073,0,1.943,0.87,1.943,1.943v6.383c0,1.073-0.87,1.943-1.943,1.943H98.813
				c-1.073,0-1.943-0.87-1.943-1.943v-6.383C96.87,36.752,97.74,35.882,98.813,35.882z"/>
			
				<path style="clip-path:url(#SVGID_00000160872383560424822320000012374856758310429589_);fill:none;stroke:#97CEC8;stroke-width:1.5;stroke-linecap:round;stroke-linejoin:round;stroke-miterlimit:10;" d="
				M78.327,35.882h16.599c1.073,0,1.943,0.87,1.943,1.943v6.383c0,1.073-0.87,1.943-1.943,1.943H78.327
				c-1.073,0-1.943-0.87-1.943-1.943v-6.383C76.384,36.752,77.254,35.882,78.327,35.882z"/>
			
				<path style="clip-path:url(#SVGID_00000160872383560424822320000012374856758310429589_);fill:none;stroke:#97CEC8;stroke-width:1.5;stroke-linecap:round;stroke-linejoin:round;stroke-miterlimit:10;" d="
				M57.821,35.882H74.42c1.073,0,1.943,0.87,1.943,1.943v6.383c0,1.073-0.87,1.943-1.943,1.943H57.821
				c-1.073,0-1.943-0.87-1.943-1.943v-6.383C55.878,36.752,56.748,35.882,57.821,35.882z"/>
			
				<path style="clip-path:url(#SVGID_00000160872383560424822320000012374856758310429589_);fill:none;stroke:#97CEC8;stroke-width:1.5;stroke-linecap:round;stroke-linejoin:round;stroke-miterlimit:10;" d="
				M37.335,35.882h16.599c1.073,0,1.943,0.87,1.943,1.943v6.383c0,1.073-0.87,1.943-1.943,1.943H37.335
				c-1.073,0-1.943-0.87-1.943-1.943v-6.383C35.392,36.752,36.262,35.882,37.335,35.882z"/>
			
				<path style="clip-path:url(#SVGID_00000160872383560424822320000012374856758310429589_);fill:none;stroke:#97CEC8;stroke-width:1.5;stroke-linecap:round;stroke-linejoin:round;stroke-miterlimit:10;" d="
				M16.846,35.882h16.599c1.073,0,1.943,0.87,1.943,1.943v6.383c0,1.073-0.87,1.943-1.943,1.943H16.846
				c-1.073,0-1.943-0.87-1.943-1.943v-6.383C14.903,36.752,15.773,35.882,16.846,35.882z"/>
			
				<path style="clip-path:url(#SVGID_00000160872383560424822320000012374856758310429589_);fill:none;stroke:#97CEC8;stroke-width:1.5;stroke-linecap:round;stroke-linejoin:round;stroke-miterlimit:10;" d="
				M-3.639,35.882H12.96c1.073,0,1.943,0.87,1.943,1.943v6.383c0,1.073-0.87,1.943-1.943,1.943H-3.639
				c-1.073,0-1.943-0.87-1.943-1.943v-6.383C-5.583,36.752-4.713,35.882-3.639,35.882z"/>
			
				<path style="clip-path:url(#SVGID_00000160872383560424822320000012374856758310429589_);fill:none;stroke:#97CEC8;stroke-width:1.5;stroke-linecap:round;stroke-linejoin:round;stroke-miterlimit:10;" d="
				M88.584,25.641h16.599c1.073,0,1.943,0.87,1.943,1.943v6.383c0,1.073-0.87,1.943-1.943,1.943H88.584
				c-1.073,0-1.943-0.87-1.943-1.943v-6.383C86.641,26.511,87.511,25.641,88.584,25.641z"/>
			
				<path style="clip-path:url(#SVGID_00000160872383560424822320000012374856758310429589_);fill:none;stroke:#97CEC8;stroke-width:1.5;stroke-linecap:round;stroke-linejoin:round;stroke-miterlimit:10;" d="
				M68.098,25.641h16.599c1.073,0,1.943,0.87,1.943,1.943v6.383c0,1.073-0.87,1.943-1.943,1.943H68.098
				c-1.073,0-1.943-0.87-1.943-1.943v-6.383C66.155,26.511,67.025,25.641,68.098,25.641z"/>
			
				<path style="clip-path:url(#SVGID_00000160872383560424822320000012374856758310429589_);fill:none;stroke:#97CEC8;stroke-width:1.5;stroke-linecap:round;stroke-linejoin:round;stroke-miterlimit:10;" d="
				M47.592,25.641h16.599c1.073,0,1.943,0.87,1.943,1.943v6.383c0,1.073-0.87,1.943-1.943,1.943H47.592
				c-1.073,0-1.943-0.87-1.943-1.943v-6.383C45.648,26.511,46.519,25.641,47.592,25.641z"/>
			
				<path style="clip-path:url(#SVGID_00000160872383560424822320000012374856758310429589_);fill:none;stroke:#97CEC8;stroke-width:1.5;stroke-linecap:round;stroke-linejoin:round;stroke-miterlimit:10;" d="
				M27.106,25.641h16.599c1.073,0,1.943,0.87,1.943,1.943v6.383c0,1.073-0.87,1.943-1.943,1.943H27.106
				c-1.073,0-1.943-0.87-1.943-1.943v-6.383C25.163,26.511,26.033,25.641,27.106,25.641z"/>
			
				<path style="clip-path:url(#SVGID_00000160872383560424822320000012374856758310429589_);fill:none;stroke:#97CEC8;stroke-width:1.5;stroke-linecap:round;stroke-linejoin:round;stroke-miterlimit:10;" d="
				M6.617,25.641h16.599c1.073,0,1.943,0.87,1.943,1.943v6.383c0,1.073-0.87,1.943-1.943,1.943H6.617
				c-1.073,0-1.943-0.87-1.943-1.943v-6.383C4.674,26.511,5.544,25.641,6.617,25.641z"/>
			
				<path style="clip-path:url(#SVGID_00000160872383560424822320000012374856758310429589_);fill:none;stroke:#97CEC8;stroke-width:1.5;stroke-linecap:round;stroke-linejoin:round;stroke-miterlimit:10;" d="
				M-13.868,25.641H2.731c1.073,0,1.943,0.87,1.943,1.943v6.383c0,1.073-0.87,1.943-1.943,1.943h-16.599
				c-1.073,0-1.943-0.87-1.943-1.943v-6.383C-15.812,26.511-14.942,25.641-13.868,25.641z"/>
			
				<path style="clip-path:url(#SVGID_00000160872383560424822320000012374856758310429589_);fill:none;stroke:#97CEC8;stroke-width:1.5;stroke-linecap:round;stroke-linejoin:round;stroke-miterlimit:10;" d="
				M98.813,15.371h16.599c1.073,0,1.943,0.87,1.943,1.943v6.383c0,1.073-0.87,1.943-1.943,1.943H98.813
				c-1.073,0-1.943-0.87-1.943-1.943v-6.383C96.87,16.241,97.74,15.371,98.813,15.371z"/>
			
				<path style="clip-path:url(#SVGID_00000160872383560424822320000012374856758310429589_);fill:none;stroke:#97CEC8;stroke-width:1.5;stroke-linecap:round;stroke-linejoin:round;stroke-miterlimit:10;" d="
				M78.327,15.371h16.599c1.073,0,1.943,0.87,1.943,1.943v6.383c0,1.073-0.87,1.943-1.943,1.943H78.327
				c-1.073,0-1.943-0.87-1.943-1.943v-6.383C76.384,16.241,77.254,15.371,78.327,15.371z"/>
			
				<path style="clip-path:url(#SVGID_00000160872383560424822320000012374856758310429589_);fill:none;stroke:#97CEC8;stroke-width:1.5;stroke-linecap:round;stroke-linejoin:round;stroke-miterlimit:10;" d="
				M57.821,15.371H74.42c1.073,0,1.943,0.87,1.943,1.943v6.383c0,1.073-0.87,1.943-1.943,1.943H57.821
				c-1.073,0-1.943-0.87-1.943-1.943v-6.383C55.878,16.241,56.748,15.371,57.821,15.371z"/>
			
				<path style="clip-path:url(#SVGID_00000160872383560424822320000012374856758310429589_);fill:none;stroke:#97CEC8;stroke-width:1.5;stroke-linecap:round;stroke-linejoin:round;stroke-miterlimit:10;" d="
				M37.335,15.371h16.599c1.073,0,1.943,0.87,1.943,1.943v6.383c0,1.073-0.87,1.943-1.943,1.943H37.335
				c-1.073,0-1.943-0.87-1.943-1.943v-6.383C35.392,16.241,36.262,15.371,37.335,15.371z"/>
			
				<path style="clip-path:url(#SVGID_00000160872383560424822320000012374856758310429589_);fill:none;stroke:#97CEC8;stroke-width:1.5;stroke-linecap:round;stroke-linejoin:round;stroke-miterlimit:10;" d="
				M16.846,15.371h16.599c1.073,0,1.943,0.87,1.943,1.943v6.383c0,1.073-0.87,1.943-1.943,1.943H16.846
				c-1.073,0-1.943-0.87-1.943-1.943v-6.383C14.903,16.241,15.773,15.371,16.846,15.371z"/>
			
				<path style="clip-path:url(#SVGID_00000160872383560424822320000012374856758310429589_);fill:none;stroke:#97CEC8;stroke-width:1.5;stroke-linecap:round;stroke-linejoin:round;stroke-miterlimit:10;" d="
				M-3.639,15.371H12.96c1.073,0,1.943,0.87,1.943,1.943v6.383c0,1.073-0.87,1.943-1.943,1.943H-3.639
				c-1.073,0-1.943-0.87-1.943-1.943v-6.383C-5.583,16.241-4.713,15.371-3.639,15.371z"/>
			
				<path style="clip-path:url(#SVGID_00000160872383560424822320000012374856758310429589_);fill:none;stroke:#97CEC8;stroke-width:1.5;stroke-linecap:round;stroke-linejoin:round;stroke-miterlimit:10;" d="
				M252.504,66.69h16.599c1.073,0,1.943,0.87,1.943,1.943v6.383c0,1.073-0.87,1.943-1.943,1.943h-16.599
				c-1.073,0-1.943-0.87-1.943-1.943v-6.383C250.561,67.56,251.431,66.69,252.504,66.69z"/>
			
				<path style="clip-path:url(#SVGID_00000160872383560424822320000012374856758310429589_);fill:none;stroke:#97CEC8;stroke-width:1.5;stroke-linecap:round;stroke-linejoin:round;stroke-miterlimit:10;" d="
				M232.018,66.69h16.599c1.073,0,1.943,0.87,1.943,1.943v6.383c0,1.073-0.87,1.943-1.943,1.943h-16.599
				c-1.073,0-1.943-0.87-1.943-1.943v-6.383C230.075,67.56,230.945,66.69,232.018,66.69z"/>
			
				<path style="clip-path:url(#SVGID_00000160872383560424822320000012374856758310429589_);fill:none;stroke:#97CEC8;stroke-width:1.5;stroke-linecap:round;stroke-linejoin:round;stroke-miterlimit:10;" d="
				M211.53,66.69h16.599c1.073,0,1.943,0.87,1.943,1.943v6.383c0,1.073-0.87,1.943-1.943,1.943H211.53
				c-1.073,0-1.943-0.87-1.943-1.943v-6.383C209.586,67.56,210.456,66.69,211.53,66.69z"/>
			
				<path style="clip-path:url(#SVGID_00000160872383560424822320000012374856758310429589_);fill:none;stroke:#97CEC8;stroke-width:1.5;stroke-linecap:round;stroke-linejoin:round;stroke-miterlimit:10;" d="
				M191.044,66.69h16.599c1.073,0,1.943,0.87,1.943,1.943v6.383c0,1.073-0.87,1.943-1.943,1.943h-16.599
				c-1.073,0-1.943-0.87-1.943-1.943v-6.383C189.101,67.56,189.971,66.69,191.044,66.69z"/>
			
				<path style="clip-path:url(#SVGID_00000160872383560424822320000012374856758310429589_);fill:none;stroke:#97CEC8;stroke-width:1.5;stroke-linecap:round;stroke-linejoin:round;stroke-miterlimit:10;" d="
				M170.537,66.69h16.599c1.073,0,1.943,0.87,1.943,1.943v6.383c0,1.073-0.87,1.943-1.943,1.943h-16.599
				c-1.073,0-1.943-0.87-1.943-1.943v-6.383C168.594,67.56,169.464,66.69,170.537,66.69z"/>
			
				<path style="clip-path:url(#SVGID_00000160872383560424822320000012374856758310429589_);fill:none;stroke:#97CEC8;stroke-width:1.5;stroke-linecap:round;stroke-linejoin:round;stroke-miterlimit:10;" d="
				M150.052,66.69h16.599c1.073,0,1.943,0.87,1.943,1.943v6.383c0,1.073-0.87,1.943-1.943,1.943h-16.599
				c-1.073,0-1.943-0.87-1.943-1.943v-6.383C148.108,67.56,148.978,66.69,150.052,66.69z"/>
			
				<path style="clip-path:url(#SVGID_00000160872383560424822320000012374856758310429589_);fill:none;stroke:#97CEC8;stroke-width:1.5;stroke-linecap:round;stroke-linejoin:round;stroke-miterlimit:10;" d="
				M129.59,66.69h16.599c1.073,0,1.943,0.87,1.943,1.943v6.383c0,1.073-0.87,1.943-1.943,1.943H129.59
				c-1.073,0-1.943-0.87-1.943-1.943v-6.383C127.647,67.56,128.517,66.69,129.59,66.69z"/>
			
				<path style="clip-path:url(#SVGID_00000160872383560424822320000012374856758310429589_);fill:none;stroke:#97CEC8;stroke-width:1.5;stroke-linecap:round;stroke-linejoin:round;stroke-miterlimit:10;" d="
				M109.105,66.69h16.599c1.073,0,1.943,0.87,1.943,1.943v6.383c0,1.073-0.87,1.943-1.943,1.943h-14.656
				c-2.147,0-3.887-1.74-3.887-3.887v-4.44C107.161,67.56,108.031,66.69,109.105,66.69z"/>
			
				<path style="clip-path:url(#SVGID_00000160872383560424822320000012374856758310429589_);fill:none;stroke:#97CEC8;stroke-width:1.5;stroke-linecap:round;stroke-linejoin:round;stroke-miterlimit:10;" d="
				M98.848,56.421h16.599c1.073,0,1.943,0.87,1.943,1.943v6.383c0,1.073-0.87,1.943-1.943,1.943H98.848
				c-1.073,0-1.943-0.87-1.943-1.943v-6.383C96.905,57.291,97.775,56.421,98.848,56.421z"/>
			
				<path style="clip-path:url(#SVGID_00000160872383560424822320000012374856758310429589_);fill:none;stroke:#97CEC8;stroke-width:1.5;stroke-linecap:round;stroke-linejoin:round;stroke-miterlimit:10;" d="
				M242.247,56.421h16.599c1.073,0,1.943,0.87,1.943,1.943v6.383c0,1.073-0.87,1.943-1.943,1.943h-16.599
				c-1.073,0-1.943-0.87-1.943-1.943v-6.383C240.304,57.291,241.174,56.421,242.247,56.421z"/>
			
				<path style="clip-path:url(#SVGID_00000160872383560424822320000012374856758310429589_);fill:none;stroke:#97CEC8;stroke-width:1.5;stroke-linecap:round;stroke-linejoin:round;stroke-miterlimit:10;" d="
				M221.759,56.421h16.599c1.073,0,1.943,0.87,1.943,1.943v6.383c0,1.073-0.87,1.943-1.943,1.943h-16.599
				c-1.073,0-1.943-0.87-1.943-1.943v-6.383C219.815,57.291,220.685,56.421,221.759,56.421z"/>
			
				<path style="clip-path:url(#SVGID_00000160872383560424822320000012374856758310429589_);fill:none;stroke:#97CEC8;stroke-width:1.5;stroke-linecap:round;stroke-linejoin:round;stroke-miterlimit:10;" d="
				M201.273,56.421h16.599c1.073,0,1.943,0.87,1.943,1.943v6.383c0,1.073-0.87,1.943-1.943,1.943h-16.599
				c-1.073,0-1.943-0.87-1.943-1.943v-6.383C199.33,57.291,200.2,56.421,201.273,56.421z"/>
			
				<path style="clip-path:url(#SVGID_00000160872383560424822320000012374856758310429589_);fill:none;stroke:#97CEC8;stroke-width:1.5;stroke-linecap:round;stroke-linejoin:round;stroke-miterlimit:10;" d="
				M180.766,56.421h16.599c1.073,0,1.943,0.87,1.943,1.943v6.383c0,1.073-0.87,1.943-1.943,1.943h-16.599
				c-1.073,0-1.943-0.87-1.943-1.943v-6.383C178.823,57.291,179.693,56.421,180.766,56.421z"/>
			
				<path style="clip-path:url(#SVGID_00000160872383560424822320000012374856758310429589_);fill:none;stroke:#97CEC8;stroke-width:1.5;stroke-linecap:round;stroke-linejoin:round;stroke-miterlimit:10;" d="
				M160.281,56.421h16.599c1.073,0,1.943,0.87,1.943,1.943v6.383c0,1.073-0.87,1.943-1.943,1.943h-16.599
				c-1.073,0-1.943-0.87-1.943-1.943v-6.383C158.337,57.291,159.207,56.421,160.281,56.421z"/>
			
				<path style="clip-path:url(#SVGID_00000160872383560424822320000012374856758310429589_);fill:none;stroke:#97CEC8;stroke-width:1.5;stroke-linecap:round;stroke-linejoin:round;stroke-miterlimit:10;" d="
				M139.819,56.421h16.599c1.073,0,1.943,0.87,1.943,1.943v6.383c0,1.073-0.87,1.943-1.943,1.943h-16.599
				c-1.073,0-1.943-0.87-1.943-1.943v-6.383C137.876,57.291,138.746,56.421,139.819,56.421z"/>
			
				<path style="clip-path:url(#SVGID_00000160872383560424822320000012374856758310429589_);fill:none;stroke:#97CEC8;stroke-width:1.5;stroke-linecap:round;stroke-linejoin:round;stroke-miterlimit:10;" d="
				M119.334,56.421h16.599c1.073,0,1.943,0.87,1.943,1.943v6.383c0,1.073-0.87,1.943-1.943,1.943h-16.599
				c-1.073,0-1.943-0.87-1.943-1.943v-6.383C117.39,57.291,118.261,56.421,119.334,56.421z"/>
			
				<path style="clip-path:url(#SVGID_00000160872383560424822320000012374856758310429589_);fill:none;stroke:#97CEC8;stroke-width:1.5;stroke-linecap:round;stroke-linejoin:round;stroke-miterlimit:10;" d="
				M252.504,46.151h16.599c1.073,0,1.943,0.87,1.943,1.943v6.383c0,1.073-0.87,1.943-1.943,1.943h-16.599
				c-1.073,0-1.943-0.87-1.943-1.943v-6.383C250.561,47.022,251.431,46.151,252.504,46.151z"/>
			
				<path style="clip-path:url(#SVGID_00000160872383560424822320000012374856758310429589_);fill:none;stroke:#97CEC8;stroke-width:1.5;stroke-linecap:round;stroke-linejoin:round;stroke-miterlimit:10;" d="
				M232.018,46.151h16.599c1.073,0,1.943,0.87,1.943,1.943v6.383c0,1.073-0.87,1.943-1.943,1.943h-16.599
				c-1.073,0-1.943-0.87-1.943-1.943v-6.383C230.075,47.022,230.945,46.151,232.018,46.151z"/>
			
				<path style="clip-path:url(#SVGID_00000160872383560424822320000012374856758310429589_);fill:none;stroke:#97CEC8;stroke-width:1.5;stroke-linecap:round;stroke-linejoin:round;stroke-miterlimit:10;" d="
				M211.53,46.151h16.599c1.073,0,1.943,0.87,1.943,1.943v6.383c0,1.073-0.87,1.943-1.943,1.943H211.53
				c-1.073,0-1.943-0.87-1.943-1.943v-6.383C209.586,47.022,210.456,46.151,211.53,46.151z"/>
			
				<path style="clip-path:url(#SVGID_00000160872383560424822320000012374856758310429589_);fill:none;stroke:#97CEC8;stroke-width:1.5;stroke-linecap:round;stroke-linejoin:round;stroke-miterlimit:10;" d="
				M191.044,46.151h16.599c1.073,0,1.943,0.87,1.943,1.943v6.383c0,1.073-0.87,1.943-1.943,1.943h-16.599
				c-1.073,0-1.943-0.87-1.943-1.943v-6.383C189.101,47.022,189.971,46.151,191.044,46.151z"/>
			
				<path style="clip-path:url(#SVGID_00000160872383560424822320000012374856758310429589_);fill:none;stroke:#97CEC8;stroke-width:1.5;stroke-linecap:round;stroke-linejoin:round;stroke-miterlimit:10;" d="
				M170.537,46.151h16.599c1.073,0,1.943,0.87,1.943,1.943v6.383c0,1.073-0.87,1.943-1.943,1.943h-16.599
				c-1.073,0-1.943-0.87-1.943-1.943v-6.383C168.594,47.022,169.464,46.151,170.537,46.151z"/>
			
				<path style="clip-path:url(#SVGID_00000160872383560424822320000012374856758310429589_);fill:none;stroke:#97CEC8;stroke-width:1.5;stroke-linecap:round;stroke-linejoin:round;stroke-miterlimit:10;" d="
				M150.052,46.151h16.599c1.073,0,1.943,0.87,1.943,1.943v6.383c0,1.073-0.87,1.943-1.943,1.943h-16.599
				c-1.073,0-1.943-0.87-1.943-1.943v-6.383C148.108,47.022,148.978,46.151,150.052,46.151z"/>
			
				<path style="clip-path:url(#SVGID_00000160872383560424822320000012374856758310429589_);fill:none;stroke:#97CEC8;stroke-width:1.5;stroke-linecap:round;stroke-linejoin:round;stroke-miterlimit:10;" d="
				M129.59,46.151h16.599c1.073,0,1.943,0.87,1.943,1.943v6.383c0,1.073-0.87,1.943-1.943,1.943H129.59
				c-1.073,0-1.943-0.87-1.943-1.943v-6.383C127.647,47.022,128.517,46.151,129.59,46.151z"/>
			
				<path style="clip-path:url(#SVGID_00000160872383560424822320000012374856758310429589_);fill:none;stroke:#97CEC8;stroke-width:1.5;stroke-linecap:round;stroke-linejoin:round;stroke-miterlimit:10;" d="
				M109.105,46.151h16.599c1.073,0,1.943,0.87,1.943,1.943v6.383c0,1.073-0.87,1.943-1.943,1.943h-16.599
				c-1.073,0-1.943-0.87-1.943-1.943v-6.383C107.161,47.022,108.031,46.151,109.105,46.151z"/>
			
				<path style="clip-path:url(#SVGID_00000160872383560424822320000012374856758310429589_);fill:none;stroke:#97CEC8;stroke-width:1.5;stroke-linecap:round;stroke-linejoin:round;stroke-miterlimit:10;" d="
				M98.848,35.882h16.599c1.073,0,1.943,0.87,1.943,1.943v6.383c0,1.073-0.87,1.943-1.943,1.943H98.848
				c-1.073,0-1.943-0.87-1.943-1.943v-6.383C96.905,36.752,97.775,35.882,98.848,35.882z"/>
			
				<path style="clip-path:url(#SVGID_00000160872383560424822320000012374856758310429589_);fill:none;stroke:#97CEC8;stroke-width:1.5;stroke-linecap:round;stroke-linejoin:round;stroke-miterlimit:10;" d="
				M242.247,35.882h16.599c1.073,0,1.943,0.87,1.943,1.943v6.383c0,1.073-0.87,1.943-1.943,1.943h-16.599
				c-1.073,0-1.943-0.87-1.943-1.943v-6.383C240.304,36.752,241.174,35.882,242.247,35.882z"/>
			
				<path style="clip-path:url(#SVGID_00000160872383560424822320000012374856758310429589_);fill:none;stroke:#97CEC8;stroke-width:1.5;stroke-linecap:round;stroke-linejoin:round;stroke-miterlimit:10;" d="
				M221.759,35.882h16.599c1.073,0,1.943,0.87,1.943,1.943v6.383c0,1.073-0.87,1.943-1.943,1.943h-16.599
				c-1.073,0-1.943-0.87-1.943-1.943v-6.383C219.815,36.752,220.685,35.882,221.759,35.882z"/>
			
				<path style="clip-path:url(#SVGID_00000160872383560424822320000012374856758310429589_);fill:none;stroke:#97CEC8;stroke-width:1.5;stroke-linecap:round;stroke-linejoin:round;stroke-miterlimit:10;" d="
				M201.273,35.882h16.599c1.073,0,1.943,0.87,1.943,1.943v6.383c0,1.073-0.87,1.943-1.943,1.943h-16.599
				c-1.073,0-1.943-0.87-1.943-1.943v-6.383C199.33,36.752,200.2,35.882,201.273,35.882z"/>
			
				<path style="clip-path:url(#SVGID_00000160872383560424822320000012374856758310429589_);fill:none;stroke:#97CEC8;stroke-width:1.5;stroke-linecap:round;stroke-linejoin:round;stroke-miterlimit:10;" d="
				M180.766,35.882h16.599c1.073,0,1.943,0.87,1.943,1.943v6.383c0,1.073-0.87,1.943-1.943,1.943h-16.599
				c-1.073,0-1.943-0.87-1.943-1.943v-6.383C178.823,36.752,179.693,35.882,180.766,35.882z"/>
			
				<path style="clip-path:url(#SVGID_00000160872383560424822320000012374856758310429589_);fill:none;stroke:#97CEC8;stroke-width:1.5;stroke-linecap:round;stroke-linejoin:round;stroke-miterlimit:10;" d="
				M160.281,35.882h16.599c1.073,0,1.943,0.87,1.943,1.943v6.383c0,1.073-0.87,1.943-1.943,1.943h-16.599
				c-1.073,0-1.943-0.87-1.943-1.943v-6.383C158.337,36.752,159.207,35.882,160.281,35.882z"/>
			
				<path style="clip-path:url(#SVGID_00000160872383560424822320000012374856758310429589_);fill:none;stroke:#97CEC8;stroke-width:1.5;stroke-linecap:round;stroke-linejoin:round;stroke-miterlimit:10;" d="
				M139.819,35.882h16.599c1.073,0,1.943,0.87,1.943,1.943v6.383c0,1.073-0.87,1.943-1.943,1.943h-16.599
				c-1.073,0-1.943-0.87-1.943-1.943v-6.383C137.876,36.752,138.746,35.882,139.819,35.882z"/>
			
				<path style="clip-path:url(#SVGID_00000160872383560424822320000012374856758310429589_);fill:none;stroke:#97CEC8;stroke-width:1.5;stroke-linecap:round;stroke-linejoin:round;stroke-miterlimit:10;" d="
				M119.334,35.882h16.599c1.073,0,1.943,0.87,1.943,1.943v6.383c0,1.073-0.87,1.943-1.943,1.943h-16.599
				c-1.073,0-1.943-0.87-1.943-1.943v-6.383C117.39,36.752,118.261,35.882,119.334,35.882z"/>
			
				<path style="clip-path:url(#SVGID_00000160872383560424822320000012374856758310429589_);fill:none;stroke:#97CEC8;stroke-width:1.5;stroke-linecap:round;stroke-linejoin:round;stroke-miterlimit:10;" d="
				M252.504,25.641h16.599c1.073,0,1.943,0.87,1.943,1.943v6.383c0,1.073-0.87,1.943-1.943,1.943h-16.599
				c-1.073,0-1.943-0.87-1.943-1.943v-6.383C250.561,26.511,251.431,25.641,252.504,25.641z"/>
			
				<path style="clip-path:url(#SVGID_00000160872383560424822320000012374856758310429589_);fill:none;stroke:#97CEC8;stroke-width:1.5;stroke-linecap:round;stroke-linejoin:round;stroke-miterlimit:10;" d="
				M232.018,25.641h16.599c1.073,0,1.943,0.87,1.943,1.943v6.383c0,1.073-0.87,1.943-1.943,1.943h-16.599
				c-1.073,0-1.943-0.87-1.943-1.943v-6.383C230.075,26.511,230.945,25.641,232.018,25.641z"/>
			
				<path style="clip-path:url(#SVGID_00000160872383560424822320000012374856758310429589_);fill:none;stroke:#97CEC8;stroke-width:1.5;stroke-linecap:round;stroke-linejoin:round;stroke-miterlimit:10;" d="
				M211.53,25.641h16.599c1.073,0,1.943,0.87,1.943,1.943v6.383c0,1.073-0.87,1.943-1.943,1.943H211.53
				c-1.073,0-1.943-0.87-1.943-1.943v-6.383C209.586,26.511,210.456,25.641,211.53,25.641z"/>
			
				<path style="clip-path:url(#SVGID_00000160872383560424822320000012374856758310429589_);fill:none;stroke:#97CEC8;stroke-width:1.5;stroke-linecap:round;stroke-linejoin:round;stroke-miterlimit:10;" d="
				M191.044,25.641h16.599c1.073,0,1.943,0.87,1.943,1.943v6.383c0,1.073-0.87,1.943-1.943,1.943h-16.599
				c-1.073,0-1.943-0.87-1.943-1.943v-6.383C189.101,26.511,189.971,25.641,191.044,25.641z"/>
			
				<path style="clip-path:url(#SVGID_00000160872383560424822320000012374856758310429589_);fill:none;stroke:#97CEC8;stroke-width:1.5;stroke-linecap:round;stroke-linejoin:round;stroke-miterlimit:10;" d="
				M170.537,25.641h16.599c1.073,0,1.943,0.87,1.943,1.943v6.383c0,1.073-0.87,1.943-1.943,1.943h-16.599
				c-1.073,0-1.943-0.87-1.943-1.943v-6.383C168.594,26.511,169.464,25.641,170.537,25.641z"/>
			
				<path style="clip-path:url(#SVGID_00000160872383560424822320000012374856758310429589_);fill:none;stroke:#97CEC8;stroke-width:1.5;stroke-linecap:round;stroke-linejoin:round;stroke-miterlimit:10;" d="
				M150.052,25.641h16.599c1.073,0,1.943,0.87,1.943,1.943v6.383c0,1.073-0.87,1.943-1.943,1.943h-16.599
				c-1.073,0-1.943-0.87-1.943-1.943v-6.383C148.108,26.511,148.978,25.641,150.052,25.641z"/>
			
				<path style="clip-path:url(#SVGID_00000160872383560424822320000012374856758310429589_);fill:none;stroke:#97CEC8;stroke-width:1.5;stroke-linecap:round;stroke-linejoin:round;stroke-miterlimit:10;" d="
				M129.59,25.641h16.599c1.073,0,1.943,0.87,1.943,1.943v6.383c0,1.073-0.87,1.943-1.943,1.943H129.59
				c-1.073,0-1.943-0.87-1.943-1.943v-6.383C127.647,26.511,128.517,25.641,129.59,25.641z"/>
			
				<path style="clip-path:url(#SVGID_00000160872383560424822320000012374856758310429589_);fill:none;stroke:#97CEC8;stroke-width:1.5;stroke-linecap:round;stroke-linejoin:round;stroke-miterlimit:10;" d="
				M109.105,25.641h16.599c1.073,0,1.943,0.87,1.943,1.943v6.383c0,1.073-0.87,1.943-1.943,1.943h-16.599
				c-1.073,0-1.943-0.87-1.943-1.943v-6.383C107.161,26.511,108.031,25.641,109.105,25.641z"/>
			
				<path style="clip-path:url(#SVGID_00000160872383560424822320000012374856758310429589_);fill:none;stroke:#97CEC8;stroke-width:1.5;stroke-linecap:round;stroke-linejoin:round;stroke-miterlimit:10;" d="
				M98.848,15.371h16.599c1.073,0,1.943,0.87,1.943,1.943v6.383c0,1.073-0.87,1.943-1.943,1.943H98.848
				c-1.073,0-1.943-0.87-1.943-1.943v-6.383C96.905,16.241,97.775,15.371,98.848,15.371z"/>
			
				<path style="clip-path:url(#SVGID_00000160872383560424822320000012374856758310429589_);fill:none;stroke:#97CEC8;stroke-width:1.5;stroke-linecap:round;stroke-linejoin:round;stroke-miterlimit:10;" d="
				M242.247,15.371h16.599c1.073,0,1.943,0.87,1.943,1.943v6.383c0,1.073-0.87,1.943-1.943,1.943h-16.599
				c-1.073,0-1.943-0.87-1.943-1.943v-6.383C240.304,16.241,241.174,15.371,242.247,15.371z"/>
			
				<path style="clip-path:url(#SVGID_00000160872383560424822320000012374856758310429589_);fill:none;stroke:#97CEC8;stroke-width:1.5;stroke-linecap:round;stroke-linejoin:round;stroke-miterlimit:10;" d="
				M221.759,15.371h16.599c1.073,0,1.943,0.87,1.943,1.943v6.383c0,1.073-0.87,1.943-1.943,1.943h-16.599
				c-1.073,0-1.943-0.87-1.943-1.943v-6.383C219.815,16.241,220.685,15.371,221.759,15.371z"/>
			
				<path style="clip-path:url(#SVGID_00000160872383560424822320000012374856758310429589_);fill:none;stroke:#97CEC8;stroke-width:1.5;stroke-linecap:round;stroke-linejoin:round;stroke-miterlimit:10;" d="
				M201.273,15.371h16.599c1.073,0,1.943,0.87,1.943,1.943v6.383c0,1.073-0.87,1.943-1.943,1.943h-16.599
				c-1.073,0-1.943-0.87-1.943-1.943v-6.383C199.33,16.241,200.2,15.371,201.273,15.371z"/>
			
				<path style="clip-path:url(#SVGID_00000160872383560424822320000012374856758310429589_);fill:none;stroke:#97CEC8;stroke-width:1.5;stroke-linecap:round;stroke-linejoin:round;stroke-miterlimit:10;" d="
				M180.766,15.371h16.599c1.073,0,1.943,0.87,1.943,1.943v6.383c0,1.073-0.87,1.943-1.943,1.943h-16.599
				c-1.073,0-1.943-0.87-1.943-1.943v-6.383C178.823,16.241,179.693,15.371,180.766,15.371z"/>
			
				<path style="clip-path:url(#SVGID_00000160872383560424822320000012374856758310429589_);fill:none;stroke:#97CEC8;stroke-width:1.5;stroke-linecap:round;stroke-linejoin:round;stroke-miterlimit:10;" d="
				M160.281,15.371h16.599c1.073,0,1.943,0.87,1.943,1.943v6.383c0,1.073-0.87,1.943-1.943,1.943h-16.599
				c-1.073,0-1.943-0.87-1.943-1.943v-6.383C158.337,16.241,159.207,15.371,160.281,15.371z"/>
			
				<path style="clip-path:url(#SVGID_00000160872383560424822320000012374856758310429589_);fill:none;stroke:#97CEC8;stroke-width:1.5;stroke-linecap:round;stroke-linejoin:round;stroke-miterlimit:10;" d="
				M139.819,15.371h16.599c1.073,0,1.943,0.87,1.943,1.943v6.383c0,1.073-0.87,1.943-1.943,1.943h-16.599
				c-1.073,0-1.943-0.87-1.943-1.943v-6.383C137.876,16.241,138.746,15.371,139.819,15.371z"/>
			
				<path style="clip-path:url(#SVGID_00000160872383560424822320000012374856758310429589_);fill:none;stroke:#97CEC8;stroke-width:1.5;stroke-linecap:round;stroke-linejoin:round;stroke-miterlimit:10;" d="
				M119.334,15.371h16.599c1.073,0,1.943,0.87,1.943,1.943v6.383c0,1.073-0.87,1.943-1.943,1.943h-16.599
				c-1.073,0-1.943-0.87-1.943-1.943v-6.383C117.39,16.241,118.261,15.371,119.334,15.371z"/>
		</g>
	</g>
	<g style="opacity:0.35;">
		<g>
			
				<ellipse transform="matrix(0.5414 -0.8408 0.8408 0.5414 98.9689 231.7015)" style="opacity:0.6;fill-rule:evenodd;clip-rule:evenodd;fill:#FFAD38;" cx="261.868" cy="25.133" rx="1.857" ry="1.856"/>
			
				<ellipse transform="matrix(0.5414 -0.8408 0.8408 0.5414 97.3857 224.8996)" style="opacity:0.6;fill-rule:evenodd;clip-rule:evenodd;fill:#FFAD38;" cx="254.842" cy="23.183" rx="1.857" ry="1.856"/>
			
				<ellipse transform="matrix(0.5414 -0.8408 0.8408 0.5414 102.987 225.7409)" style="opacity:0.6;fill-rule:evenodd;clip-rule:evenodd;fill:#FFAD38;" cx="258.414" cy="18.47" rx="1.857" ry="1.856"/>
			
				<ellipse transform="matrix(0.5414 -0.8408 0.8408 0.5414 97.7188 210.3651)" style="opacity:0.6;fill-rule:evenodd;clip-rule:evenodd;fill:#FFAD38;" cx="241.686" cy="15.611" rx="1.857" ry="1.856"/>
			
				<ellipse transform="matrix(0.5414 -0.8408 0.8408 0.5414 87.3252 216.3752)" style="opacity:0.6;fill-rule:evenodd;clip-rule:evenodd;fill:#FFAD38;" cx="241.998" cy="28.143" rx="1.857" ry="1.856"/>
		</g>
	</g>
</g>
<g id="Details">
	<g>
		<g>
			<g>
				<g>
					<g>
						<path style="fill:#FFEE76;" d="M1343.151,121.131c2.272-4.904,3.84-10.233,4.505-15.894
							c2.604-22.172-9.043-42.716-27.688-52.519l-7.61,64.797L1343.151,121.131z"/>
					</g>
					<g>
						<polygon style="fill:#FFFFFF;" points="1319.968,52.718 1319.968,52.718 1319.968,52.718 						"/>
					</g>
					<g>
						<path style="fill:#FFFFFF;" d="M1319.968,52.718l0.008-0.066c-0.055-0.006-0.109-0.016-0.165-0.022
							C1319.864,52.658,1319.914,52.69,1319.968,52.718C1319.968,52.718,1319.968,52.718,1319.968,52.718z"/>
					</g>
					<g>
						<path style="fill:#FFE700;" d="M1280.865,97.393c-0.665,5.661-0.374,11.208,0.7,16.505l30.793,3.617l7.61-64.797l0,0
							C1299.559,57.934,1283.469,75.221,1280.865,97.393z"/>
					</g>
					<g>
						<path style="fill:#FFFFFF;" d="M1320.127,52.672c-0.051-0.006-0.101-0.014-0.151-0.02l-0.008,0.066
							C1320.021,52.704,1320.073,52.686,1320.127,52.672z"/>
					</g>
					<g>
						<path style="fill:#F0F6F7;" d="M1281.565,113.898c0.76,3.749,1.901,7.377,3.425,10.815l2.87,7.478l22.464,2.638l2.034-17.315
							L1281.565,113.898z"/>
					</g>
					<g>
						<path style="fill:#FFFFFF;" d="M1310.324,134.83l22.464,2.638l4.525-6.61c2.28-2.992,4.23-6.257,5.838-9.728l-30.793-3.617
							L1310.324,134.83z"/>
					</g>
					<g>
						<path style="fill:#124EAF;" d="M1314.772,163.784l9.168,1.077c1.856,0.218,3.679-0.611,4.735-2.153l16.299-23.808
							l-12.186-1.431L1314.772,163.784z"/>
					</g>
					<g>
						<path style="fill:#F0F6F7;" d="M1355.91,122.63l-12.759-1.499c-1.608,3.471-3.558,6.736-5.838,9.728l-4.525,6.61l12.186,1.431
							l7.192-10.505C1353.549,126.579,1354.792,124.646,1355.91,122.63z"/>
					</g>
					<g>
						<polygon style="fill:#5292DD;" points="1310.324,134.83 1307.03,162.875 1314.772,163.784 1332.788,137.468 						"/>
					</g>
					<g>
						<path style="fill:#FFCE00;" d="M1320.127,52.672c-0.054,0.014-0.106,0.032-0.159,0.046v0
							c18.645,9.803,30.292,30.347,27.688,52.519c-0.665,5.661-2.233,10.989-4.505,15.894l12.759,1.499
							c2.898-5.23,4.864-11.088,5.604-17.394C1364.561,79.294,1346.04,55.8,1320.127,52.672z"/>
					</g>
					<g>
						<polygon style="fill:#3B76CC;" points="1287.86,132.192 1299.289,161.965 1307.03,162.875 1310.324,134.83 						"/>
					</g>
					<g>
						<g>
							<path style="fill:#F0F6F7;" d="M1284.99,124.714c-1.525-3.438-2.665-7.066-3.425-10.815l-12.766-1.499
								c0.62,2.222,1.387,4.388,2.313,6.476l4.562,11.886l12.186,1.431L1284.99,124.714z"/>
						</g>
						<g>
							<path style="fill:#124EAF;" d="M1287.86,132.192l-12.186-1.431l10.339,26.937c0.67,1.744,2.251,2.974,4.107,3.191
								l9.168,1.077L1287.86,132.192z"/>
						</g>
					</g>
					<g>
						<path style="fill:#FFCE00;" d="M1280.865,97.393c2.604-22.172,18.694-39.459,39.103-44.675
							c-0.053-0.028-0.104-0.06-0.157-0.088c-0.931-0.106-1.869-0.192-2.818-0.245c-24.263-1.349-45.943,16.434-49.437,40.482
							c-0.983,6.763-0.475,13.374,1.243,19.531l12.766,1.499C1280.491,108.601,1280.2,103.054,1280.865,97.393z"/>
					</g>
				</g>
				<g>
					<g>
						<g>
							<path style="fill:#DAEDF2;" d="M1314.567,165.516c-0.271-0.032-0.539-0.128-0.78-0.293c-0.795-0.544-0.998-1.629-0.454-2.425
								l22.541-32.926c5.534-7.266,8.991-15.83,10.049-24.839c2.644-22.508-10.137-44.224-31.081-52.809
								c-0.892-0.365-1.318-1.385-0.953-2.276c0.366-0.892,1.382-1.32,2.276-0.953c22.387,9.178,36.048,32.388,33.223,56.445
								c-1.131,9.629-4.827,18.784-10.687,26.475l-22.49,32.854C1315.832,165.323,1315.19,165.589,1314.567,165.516z"/>
						</g>
						<g>
							<path style="fill:#DAEDF2;" d="M1299.087,163.698c-0.623-0.073-1.186-0.481-1.427-1.107l-14.299-37.252
								c-3.885-8.758-5.36-18.52-4.229-28.149c2.825-24.055,21.492-43.469,45.395-47.211c0.955-0.149,1.844,0.502,1.994,1.454
								c0.149,0.952-0.502,1.845-1.454,1.994c-22.362,3.5-39.826,21.663-42.47,44.171c-1.058,9.009,0.32,18.141,3.987,26.41
								l14.332,37.334c0.345,0.9-0.104,1.909-1.003,2.253C1299.641,163.699,1299.359,163.73,1299.087,163.698z"/>
						</g>
					</g>
					<g>
						<path style="fill:#DAEDF2;" d="M1355.72,124.364l-87.137-10.234c-0.957-0.112-1.641-0.979-1.529-1.936
							c0.112-0.957,0.979-1.641,1.936-1.529l87.137,10.234c0.957,0.112,1.641,0.979,1.529,1.936
							C1357.544,123.792,1356.677,124.476,1355.72,124.364z"/>
					</g>
					<g>
						<path style="fill:#DAEDF2;" d="M1344.77,140.632l-69.299-8.139c-0.957-0.112-1.641-0.979-1.529-1.936
							c0.112-0.957,0.979-1.641,1.936-1.529l69.299,8.139c0.957,0.112,1.641,0.979,1.529,1.936
							C1346.594,140.059,1345.727,140.744,1344.77,140.632z"/>
					</g>
					<g>
						<path style="fill:#DAEDF2;" d="M1306.827,164.607c-0.957-0.112-1.641-0.979-1.529-1.936l13.38-113.921
							c0.112-0.957,0.979-1.641,1.936-1.529c0.957,0.112,1.641,0.979,1.529,1.936l-13.38,113.921
							C1308.651,164.035,1307.784,164.72,1306.827,164.607z"/>
					</g>
				</g>
			</g>
		</g>
	</g>
	<g>
		<path style="opacity:0.3;fill:#FFAD38;" d="M1179.104-0.199c0-1.563-1.269-2.832-2.832-2.832h-111.155
			c-1.563,0-2.832,1.269-2.832,2.832s1.269,2.832,2.832,2.832h111.155C1177.834,2.633,1179.104,1.364,1179.104-0.199z"/>
	</g>
	<g>
		<g>
			<g>
				<g>
					<path style="fill:#3B3181;" d="M213.541,44.157L203,36.782v37.614h11.082c0.883,0,1.586-0.75,1.54-1.644l-1.417-27.391
						C214.18,44.877,213.935,44.432,213.541,44.157z"/>
					<g>
						<defs>
							<path id="SVGID_00000143615941957791965510000001184776581933859223_" d="M213.541,44.157L203,36.782v37.614h11.082
								c0.883,0,1.586-0.75,1.54-1.644l-1.417-27.391C214.18,44.877,213.935,44.432,213.541,44.157z"/>
						</defs>
						<clipPath id="SVGID_00000135669235204612292670000005093252549261729190_">
							<use xlink:href="#SVGID_00000143615941957791965510000001184776581933859223_"  style="overflow:visible;"/>
						</clipPath>
						<g style="clip-path:url(#SVGID_00000135669235204612292670000005093252549261729190_);">
							<rect x="202.825" y="58.759" style="opacity:0.146;fill:#053540;" width="13.95" height="2.197"/>
							<rect x="202.825" y="63.239" style="opacity:0.146;fill:#053540;" width="13.95" height="2.197"/>
							<rect x="202.825" y="67.719" style="opacity:0.146;fill:#053540;" width="13.95" height="2.197"/>
							<rect x="202.825" y="72.199" style="opacity:0.146;fill:#053540;" width="13.95" height="2.197"/>
							<rect x="202.825" y="54.279" style="opacity:0.146;fill:#053540;" width="13.95" height="2.197"/>
							<rect x="202.825" y="49.799" style="opacity:0.146;fill:#053540;" width="13.95" height="2.197"/>
							<rect x="202.825" y="45.319" style="opacity:0.146;fill:#053540;" width="13.95" height="2.197"/>
							<rect x="202.825" y="40.839" style="opacity:0.146;fill:#053540;" width="13.95" height="2.197"/>
							<rect x="202.825" y="36.359" style="opacity:0.146;fill:#053540;" width="13.95" height="2.197"/>
						</g>
						
							<polygon style="opacity:0.146;clip-path:url(#SVGID_00000135669235204612292670000005093252549261729190_);fill:#053540;" points="
							203.635,75.03 216.05,75.03 216.05,42.687 214.912,42.687 						"/>
					</g>
					
						<line style="fill:none;stroke:#132143;stroke-width:2.5688;stroke-linecap:round;stroke-linejoin:round;stroke-miterlimit:10;" x1="202.918" y1="37.015" x2="202.918" y2="81.416"/>
					<path style="fill:#132143;" d="M204.185,80.046h-2.533c-1.135,0-2.055,0.92-2.055,2.055v2.258h6.643v-2.258
						C206.24,80.966,205.32,80.046,204.185,80.046z"/>
				</g>
				<g>
					<path style="fill:#3B3181;" d="M194.225,44.157l-10.541-7.375v37.614h11.082c0.883,0,1.586-0.75,1.54-1.644l-1.417-27.391
						C194.864,44.877,194.619,44.432,194.225,44.157z"/>
					<g>
						<defs>
							<path id="SVGID_00000145031096318359036440000005122877264920086963_" d="M194.225,44.157l-10.541-7.375v37.614h11.082
								c0.883,0,1.586-0.75,1.54-1.644l-1.417-27.391C194.864,44.877,194.619,44.432,194.225,44.157z"/>
						</defs>
						<clipPath id="SVGID_00000054224814476386951910000005253469756778343859_">
							<use xlink:href="#SVGID_00000145031096318359036440000005122877264920086963_"  style="overflow:visible;"/>
						</clipPath>
						<g style="clip-path:url(#SVGID_00000054224814476386951910000005253469756778343859_);">
							<rect x="183.509" y="58.759" style="opacity:0.146;fill:#053540;" width="13.95" height="2.197"/>
							<rect x="183.509" y="63.239" style="opacity:0.146;fill:#053540;" width="13.95" height="2.197"/>
							<rect x="183.509" y="67.719" style="opacity:0.146;fill:#053540;" width="13.95" height="2.197"/>
							<rect x="183.509" y="72.199" style="opacity:0.146;fill:#053540;" width="13.95" height="2.197"/>
							<rect x="183.509" y="54.279" style="opacity:0.146;fill:#053540;" width="13.95" height="2.197"/>
							<rect x="183.509" y="49.799" style="opacity:0.146;fill:#053540;" width="13.95" height="2.197"/>
							<rect x="183.509" y="45.319" style="opacity:0.146;fill:#053540;" width="13.95" height="2.197"/>
							<rect x="183.509" y="40.839" style="opacity:0.146;fill:#053540;" width="13.95" height="2.197"/>
							<rect x="183.509" y="36.359" style="opacity:0.146;fill:#053540;" width="13.95" height="2.197"/>
						</g>
						
							<polygon style="opacity:0.146;clip-path:url(#SVGID_00000054224814476386951910000005253469756778343859_);fill:#053540;" points="
							184.319,75.03 196.734,75.03 196.734,42.687 195.596,42.687 						"/>
					</g>
					
						<line style="fill:none;stroke:#132143;stroke-width:2.5688;stroke-linecap:round;stroke-linejoin:round;stroke-miterlimit:10;" x1="183.602" y1="37.015" x2="183.602" y2="81.416"/>
					<path style="fill:#132143;" d="M184.869,80.046h-2.533c-1.135,0-2.055,0.92-2.055,2.055v2.258h6.643v-2.258
						C186.924,80.966,186.004,80.046,184.869,80.046z"/>
				</g>
				<g>
					<path style="fill:#3B3181;" d="M174.813,44.157l-10.541-7.375v37.614h11.082c0.883,0,1.586-0.75,1.54-1.644l-1.417-27.391
						C175.451,44.877,175.206,44.432,174.813,44.157z"/>
					<g>
						<defs>
							<path id="SVGID_00000080918756370226234250000010766379842739885995_" d="M174.813,44.157l-10.541-7.375v37.614h11.082
								c0.883,0,1.586-0.75,1.54-1.644l-1.417-27.391C175.451,44.877,175.206,44.432,174.813,44.157z"/>
						</defs>
						<clipPath id="SVGID_00000166653484230177782320000012716476542256356799_">
							<use xlink:href="#SVGID_00000080918756370226234250000010766379842739885995_"  style="overflow:visible;"/>
						</clipPath>
						<g style="clip-path:url(#SVGID_00000166653484230177782320000012716476542256356799_);">
							<rect x="164.096" y="58.759" style="opacity:0.146;fill:#053540;" width="13.95" height="2.197"/>
							<rect x="164.096" y="63.239" style="opacity:0.146;fill:#053540;" width="13.95" height="2.197"/>
							<rect x="164.096" y="67.719" style="opacity:0.146;fill:#053540;" width="13.95" height="2.197"/>
							<rect x="164.096" y="72.199" style="opacity:0.146;fill:#053540;" width="13.95" height="2.197"/>
							<rect x="164.096" y="54.279" style="opacity:0.146;fill:#053540;" width="13.95" height="2.197"/>
							<rect x="164.096" y="49.799" style="opacity:0.146;fill:#053540;" width="13.95" height="2.197"/>
							<rect x="164.096" y="45.319" style="opacity:0.146;fill:#053540;" width="13.95" height="2.197"/>
							<rect x="164.096" y="40.839" style="opacity:0.146;fill:#053540;" width="13.95" height="2.197"/>
							<rect x="164.096" y="36.359" style="opacity:0.146;fill:#053540;" width="13.95" height="2.197"/>
						</g>
						
							<polygon style="opacity:0.146;clip-path:url(#SVGID_00000166653484230177782320000012716476542256356799_);fill:#053540;" points="
							164.906,75.03 177.321,75.03 177.321,42.687 176.183,42.687 						"/>
					</g>
					
						<line style="fill:none;stroke:#132143;stroke-width:2.5688;stroke-linecap:round;stroke-linejoin:round;stroke-miterlimit:10;" x1="164.19" y1="37.015" x2="164.19" y2="81.416"/>
					<path style="fill:#132143;" d="M165.456,80.046h-2.533c-1.135,0-2.055,0.92-2.055,2.055v2.258h6.643v-2.258
						C167.511,80.966,166.591,80.046,165.456,80.046z"/>
				</g>
			</g>
			<g>
				<path style="fill:#FFFFFF;" d="M267.958,82.435h-48.115v-2.499c0-8.509,6.806-15.406,15.202-15.406h23.611
					c1.998,0,3.773,1.292,4.411,3.21L267.958,82.435z"/>
				<g>
					<defs>
						<path id="SVGID_00000006708241099690806900000015084104415278390169_" d="M267.958,82.435h-48.115v-2.499
							c0-8.509,6.806-15.406,15.202-15.406h23.611c1.998,0,3.773,1.292,4.411,3.21L267.958,82.435z"/>
					</defs>
					<clipPath id="SVGID_00000014625910823979121730000013485562747713705860_">
						<use xlink:href="#SVGID_00000006708241099690806900000015084104415278390169_"  style="overflow:visible;"/>
					</clipPath>
					<path style="clip-path:url(#SVGID_00000014625910823979121730000013485562747713705860_);fill:#F4F8FF;" d="M266.291,84.011
						h-48.115v-2.499c0-8.509,6.806-15.406,15.202-15.406h23.611c1.998,0,3.773,1.292,4.411,3.21L266.291,84.011z"/>
				</g>
				<g>
					<g>
						<defs>
							<path id="SVGID_00000055670594372338366560000018141832998196369071_" d="M228.068,82.435h39.89l-3.975-11.942h-24.86
								c-6.106,0-11.056,5.017-11.056,11.205V82.435z"/>
						</defs>
						<clipPath id="SVGID_00000080203335827377460510000008611052233751992980_">
							<use xlink:href="#SVGID_00000055670594372338366560000018141832998196369071_"  style="overflow:visible;"/>
						</clipPath>
						<path style="clip-path:url(#SVGID_00000080203335827377460510000008611052233751992980_);fill:#00A7C1;" d="M226.335,82.435
							h41.623l-3.975-11.942h-26.592c-6.106,0-11.056,5.017-11.056,11.205V82.435z"/>
						
							<polygon style="opacity:0.2;clip-path:url(#SVGID_00000080203335827377460510000008611052233751992980_);fill:#0070A8;" points="
							264.939,73.366 229.18,73.366 229.18,70.493 263.983,70.493 						"/>
						
							<polygon style="opacity:0.2;clip-path:url(#SVGID_00000080203335827377460510000008611052233751992980_);fill:#F1F1F1;" points="
							263.854,69.117 259.182,69.229 252.29,83.477 257.059,83.477 						"/>
						
							<polygon style="opacity:0.2;clip-path:url(#SVGID_00000080203335827377460510000008611052233751992980_);fill:#F1F1F1;" points="
							247.147,69.425 235.797,69.605 229.087,83.477 240.497,83.477 						"/>
						
							<polygon style="opacity:0.2;clip-path:url(#SVGID_00000080203335827377460510000008611052233751992980_);fill:#F1F1F1;" points="
							252.471,69.182 250.376,69.52 243.625,83.477 245.785,83.312 						"/>
						
							<polygon style="opacity:0.2;clip-path:url(#SVGID_00000080203335827377460510000008611052233751992980_);fill:#F1F1F1;" points="
							268.2,71.535 265.538,71.535 259.761,83.477 262.549,83.477 						"/>
					</g>
				</g>
				<g>
					<path style="fill:none;stroke:#132143;stroke-width:2.2144;stroke-miterlimit:10;" d="M270.837,83.516v-3.182
						c0-1.581-1.268-2.861-2.828-2.856l-6.206,0.023l-104.652-0.023c-1.497,0-2.712,1.23-2.712,2.747v8.923"/>
					
						<line style="fill:none;stroke:#132143;stroke-width:2.2144;stroke-miterlimit:10;" x1="261.138" y1="83.516" x2="261.138" y2="77.501"/>
					
						<line style="fill:none;stroke:#132143;stroke-width:2.2144;stroke-miterlimit:10;" x1="251.438" y1="77.53" x2="251.438" y2="83.516"/>
					
						<line style="fill:none;stroke:#132143;stroke-width:2.2144;stroke-miterlimit:10;" x1="241.738" y1="77.453" x2="241.738" y2="83.516"/>
					
						<line style="fill:none;stroke:#132143;stroke-width:2.2144;stroke-miterlimit:10;" x1="232.038" y1="77.453" x2="232.038" y2="83.516"/>
					
						<line style="fill:none;stroke:#132143;stroke-width:2.2144;stroke-miterlimit:10;" x1="222.338" y1="77.453" x2="222.338" y2="83.516"/>
					
						<line style="fill:none;stroke:#132143;stroke-width:2.2144;stroke-miterlimit:10;" x1="212.638" y1="77.453" x2="212.638" y2="83.516"/>
					
						<line style="fill:none;stroke:#132143;stroke-width:2.2144;stroke-miterlimit:10;" x1="202.939" y1="77.453" x2="202.939" y2="83.516"/>
					
						<line style="fill:none;stroke:#132143;stroke-width:2.2144;stroke-miterlimit:10;" x1="193.239" y1="77.453" x2="193.239" y2="83.516"/>
					
						<line style="fill:none;stroke:#132143;stroke-width:2.2144;stroke-miterlimit:10;" x1="183.539" y1="77.453" x2="183.539" y2="83.516"/>
					
						<line style="fill:none;stroke:#132143;stroke-width:2.2144;stroke-miterlimit:10;" x1="173.839" y1="77.453" x2="173.839" y2="83.516"/>
					
						<line style="fill:none;stroke:#132143;stroke-width:2.2144;stroke-miterlimit:10;" x1="164.139" y1="77.453" x2="164.139" y2="83.516"/>
				</g>
				<path style="fill:#FFFFFF;" d="M282.342,99.896H141.13l3.639-11.416c1.149-3.604,4.458-6.046,8.195-6.049l119.743-0.047
					c1.86,0,3.526,1.165,4.187,2.927L282.342,99.896z"/>
				<g>
					<defs>
						<path id="SVGID_00000035504760428517965340000016899327460151062917_" d="M282.342,99.896H141.13l3.639-11.416
							c1.149-3.604,4.458-6.046,8.195-6.049l119.743-0.047c1.86,0,3.526,1.165,4.187,2.927L282.342,99.896z"/>
					</defs>
					<clipPath id="SVGID_00000143587845032112319400000007604748002761456276_">
						<use xlink:href="#SVGID_00000035504760428517965340000016899327460151062917_"  style="overflow:visible;"/>
					</clipPath>
					<path style="opacity:0.5;clip-path:url(#SVGID_00000143587845032112319400000007604748002761456276_);fill:#E1EFFF;" d="
						M280.838,102.1H139.627l3.639-11.416c1.149-3.604,4.458-6.046,8.195-6.049l119.743-0.047c1.86,0,3.526,1.165,4.187,2.927
						L280.838,102.1z"/>
				</g>
				<g>
					<rect x="246.023" y="86.391" style="fill-rule:evenodd;clip-rule:evenodd;fill:#00A7C1;" width="8.694" height="4.622"/>
					<rect x="259.047" y="86.373" style="fill-rule:evenodd;clip-rule:evenodd;fill:#00A7C1;" width="8.694" height="4.622"/>
					<polygon style="fill-rule:evenodd;clip-rule:evenodd;fill:#00A7C1;" points="279.019,90.995 272.205,90.995 272.205,86.373 
						277.297,86.402 					"/>
					<g>
						<polygon style="opacity:0.2;fill:#F1F1F1;" points="267.153,86.373 265.308,86.369 260.393,91.013 262.142,91.013 						"/>
						<polygon style="opacity:0.2;fill:#F1F1F1;" points="263.024,86.373 261.182,86.414 259.047,88.389 259.083,89.989 						"/>
						<polygon style="opacity:0.2;fill:#F1F1F1;" points="253.737,86.391 251.912,86.391 246.94,91.013 248.733,91.013 						"/>
						<polygon style="opacity:0.2;fill:#F1F1F1;" points="249.619,86.391 247.791,86.391 245.656,88.367 245.693,89.966 						"/>
						<polygon style="opacity:0.2;fill:#F1F1F1;" points="277.925,88.077 277.468,86.859 272.917,90.995 274.666,90.995 						"/>
						<polygon style="opacity:0.2;fill:#F1F1F1;" points="275.534,86.471 273.706,86.471 272.205,87.86 272.205,89.815 						"/>
					</g>
					
						<rect x="245.982" y="86.369" style="opacity:0.2;fill-rule:evenodd;clip-rule:evenodd;fill:#0070A8;" width="8.734" height="2.315"/>
					
						<rect x="259.047" y="86.373" style="opacity:0.2;fill-rule:evenodd;clip-rule:evenodd;fill:#0070A8;" width="8.694" height="2.328"/>
					<polygon style="opacity:0.2;fill-rule:evenodd;clip-rule:evenodd;fill:#0070A8;" points="278.152,88.684 272.185,88.684 
						272.185,86.391 277.25,86.391 					"/>
				</g>
				<g>
					<g>
						<rect x="232.894" y="86.391" style="fill-rule:evenodd;clip-rule:evenodd;fill:#00A7C1;" width="8.694" height="4.622"/>
						<polygon style="opacity:0.2;fill:#F1F1F1;" points="240.608,86.391 238.783,86.391 233.811,91.013 235.604,91.013 						"/>
						<polygon style="opacity:0.2;fill:#F1F1F1;" points="236.49,86.391 234.662,86.391 232.527,88.367 232.564,89.966 						"/>
						
							<rect x="232.853" y="86.369" style="opacity:0.2;fill-rule:evenodd;clip-rule:evenodd;fill:#0070A8;" width="8.734" height="2.315"/>
					</g>
					<g>
						<rect x="219.765" y="86.391" style="fill-rule:evenodd;clip-rule:evenodd;fill:#00A7C1;" width="8.694" height="4.622"/>
						<polygon style="opacity:0.2;fill:#F1F1F1;" points="227.479,86.391 225.654,86.391 220.682,91.013 222.475,91.013 						"/>
						<polygon style="opacity:0.2;fill:#F1F1F1;" points="223.361,86.391 221.533,86.391 219.398,88.367 219.435,89.966 						"/>
						
							<rect x="219.724" y="86.369" style="opacity:0.2;fill-rule:evenodd;clip-rule:evenodd;fill:#0070A8;" width="8.734" height="2.315"/>
					</g>
					<g>
						<rect x="206.636" y="86.391" style="fill-rule:evenodd;clip-rule:evenodd;fill:#00A7C1;" width="8.694" height="4.622"/>
						<polygon style="opacity:0.2;fill:#F1F1F1;" points="214.35,86.391 212.525,86.391 207.553,91.013 209.346,91.013 						"/>
						<polygon style="opacity:0.2;fill:#F1F1F1;" points="210.232,86.391 208.404,86.391 206.269,88.367 206.306,89.966 						"/>
						
							<rect x="206.595" y="86.369" style="opacity:0.2;fill-rule:evenodd;clip-rule:evenodd;fill:#0070A8;" width="8.734" height="2.315"/>
					</g>
				</g>
				<g>
					<g>
						<rect x="193.586" y="86.402" style="fill-rule:evenodd;clip-rule:evenodd;fill:#00A7C1;" width="8.694" height="4.622"/>
						<polygon style="opacity:0.2;fill:#F1F1F1;" points="201.3,86.402 199.475,86.402 194.503,91.024 196.296,91.024 						"/>
						<polygon style="opacity:0.2;fill:#F1F1F1;" points="197.182,86.402 195.354,86.402 193.219,88.378 193.256,89.977 						"/>
						
							<rect x="193.545" y="86.38" style="opacity:0.2;fill-rule:evenodd;clip-rule:evenodd;fill:#0070A8;" width="8.734" height="2.315"/>
					</g>
					<g>
						<rect x="180.457" y="86.402" style="fill-rule:evenodd;clip-rule:evenodd;fill:#00A7C1;" width="8.694" height="4.622"/>
						<polygon style="opacity:0.2;fill:#F1F1F1;" points="188.171,86.402 186.346,86.402 181.374,91.024 183.167,91.024 						"/>
						<polygon style="opacity:0.2;fill:#F1F1F1;" points="184.053,86.402 182.225,86.402 180.09,88.378 180.127,89.977 						"/>
						
							<rect x="180.416" y="86.38" style="opacity:0.2;fill-rule:evenodd;clip-rule:evenodd;fill:#0070A8;" width="8.734" height="2.315"/>
					</g>
				</g>
			</g>
			<g>
				<g>
					<defs>
						<path id="SVGID_00000036233338341805978080000006369826093851105682_" d="M235.832,95.319c-2.494,0-4.516,2.049-4.516,4.577
							c0,2.528,2.022,4.577,4.516,4.577s4.516-2.049,4.516-4.577C240.348,97.368,238.327,95.319,235.832,95.319z M235.832,101.924
							c-1.105,0-2.001-0.908-2.001-2.028c0-1.12,0.896-2.028,2.001-2.028c1.105,0,2.001,0.908,2.001,2.028
							C237.833,101.016,236.938,101.924,235.832,101.924z"/>
					</defs>
					<clipPath id="SVGID_00000089568099212948482380000005451988880807591308_">
						<use xlink:href="#SVGID_00000036233338341805978080000006369826093851105682_"  style="overflow:visible;"/>
					</clipPath>
					<path style="clip-path:url(#SVGID_00000089568099212948482380000005451988880807591308_);fill:#F25910;" d="M235.832,95.319
						c-2.494,0-4.516,2.049-4.516,4.577c0,2.528,2.022,4.577,4.516,4.577s4.516-2.049,4.516-4.577
						C240.348,97.368,238.327,95.319,235.832,95.319z M235.832,101.924c-1.105,0-2.001-0.908-2.001-2.028
						c0-1.12,0.896-2.028,2.001-2.028c1.105,0,2.001,0.908,2.001,2.028C237.833,101.016,236.938,101.924,235.832,101.924z"/>
					
						<line style="clip-path:url(#SVGID_00000089568099212948482380000005451988880807591308_);fill:none;stroke:#F1F1F1;stroke-width:2.2423;stroke-miterlimit:10;" x1="240.859" y1="94.812" x2="230.806" y2="105"/>
					
						<line style="clip-path:url(#SVGID_00000089568099212948482380000005451988880807591308_);fill:none;stroke:#F1F1F1;stroke-width:2.2423;stroke-miterlimit:10;" x1="230.806" y1="94.812" x2="240.859" y2="105"/>
				</g>
			</g>
			<g>
				<g>
					<defs>
						<path id="SVGID_00000150812091890184621330000009785254752401591957_" d="M250.839,95.319c-2.494,0-4.516,2.049-4.516,4.577
							c0,2.528,2.022,4.577,4.516,4.577c2.494,0,4.516-2.049,4.516-4.577C255.355,97.368,253.333,95.319,250.839,95.319z
							 M250.839,101.924c-1.105,0-2.001-0.908-2.001-2.028c0-1.12,0.896-2.028,2.001-2.028c1.105,0,2.001,0.908,2.001,2.028
							C252.84,101.016,251.944,101.924,250.839,101.924z"/>
					</defs>
					<clipPath id="SVGID_00000006700060855841542770000001439397142178634685_">
						<use xlink:href="#SVGID_00000150812091890184621330000009785254752401591957_"  style="overflow:visible;"/>
					</clipPath>
					<path style="clip-path:url(#SVGID_00000006700060855841542770000001439397142178634685_);fill:#F25910;" d="M250.839,95.319
						c-2.494,0-4.516,2.049-4.516,4.577c0,2.528,2.022,4.577,4.516,4.577c2.494,0,4.516-2.049,4.516-4.577
						C255.355,97.368,253.333,95.319,250.839,95.319z M250.839,101.924c-1.105,0-2.001-0.908-2.001-2.028
						c0-1.12,0.896-2.028,2.001-2.028c1.105,0,2.001,0.908,2.001,2.028C252.84,101.016,251.944,101.924,250.839,101.924z"/>
					
						<line style="clip-path:url(#SVGID_00000006700060855841542770000001439397142178634685_);fill:none;stroke:#F1F1F1;stroke-width:2.2423;stroke-miterlimit:10;" x1="255.866" y1="94.812" x2="245.813" y2="105"/>
					
						<line style="clip-path:url(#SVGID_00000006700060855841542770000001439397142178634685_);fill:none;stroke:#F1F1F1;stroke-width:2.2423;stroke-miterlimit:10;" x1="245.813" y1="94.812" x2="255.866" y2="105"/>
				</g>
			</g>
			<g>
				<g>
					<defs>
						<path id="SVGID_00000114049040365590000790000007368644756456630668_" d="M265.781,95.319c-2.494,0-4.516,2.049-4.516,4.577
							c0,2.528,2.022,4.577,4.516,4.577c2.494,0,4.516-2.049,4.516-4.577C270.297,97.368,268.275,95.319,265.781,95.319z
							 M265.781,101.924c-1.105,0-2.001-0.908-2.001-2.028c0-1.12,0.896-2.028,2.001-2.028c1.105,0,2.001,0.908,2.001,2.028
							C267.782,101.016,266.886,101.924,265.781,101.924z"/>
					</defs>
					<clipPath id="SVGID_00000055671004007606582540000003011852115717783427_">
						<use xlink:href="#SVGID_00000114049040365590000790000007368644756456630668_"  style="overflow:visible;"/>
					</clipPath>
					<path style="clip-path:url(#SVGID_00000055671004007606582540000003011852115717783427_);fill:#F25910;" d="M265.781,95.319
						c-2.494,0-4.516,2.049-4.516,4.577c0,2.528,2.022,4.577,4.516,4.577c2.494,0,4.516-2.049,4.516-4.577
						C270.297,97.368,268.275,95.319,265.781,95.319z M265.781,101.924c-1.105,0-2.001-0.908-2.001-2.028
						c0-1.12,0.896-2.028,2.001-2.028c1.105,0,2.001,0.908,2.001,2.028C267.782,101.016,266.886,101.924,265.781,101.924z"/>
					
						<line style="clip-path:url(#SVGID_00000055671004007606582540000003011852115717783427_);fill:none;stroke:#F1F1F1;stroke-width:2.2423;stroke-miterlimit:10;" x1="270.808" y1="94.812" x2="260.755" y2="105"/>
					
						<line style="clip-path:url(#SVGID_00000055671004007606582540000003011852115717783427_);fill:none;stroke:#F1F1F1;stroke-width:2.2423;stroke-miterlimit:10;" x1="260.755" y1="94.812" x2="270.808" y2="105"/>
				</g>
			</g>
		</g>
		<g>
			<defs>
				<path id="SVGID_00000157310297475519663590000015939163813386842037_" d="M305.006,99.942l-169.235-0.045
					c-1.664,0-2.909,1.527-2.573,3.157l2.399,11.632c1.126,5.461,5.877,9.374,11.382,9.374h139.069
					c5.879,0,11.321-3.15,14.308-8.282l6.919-11.888C308.294,102.139,307.032,99.942,305.006,99.942z"/>
			</defs>
			<clipPath id="SVGID_00000042702216280761105830000014403849020721489053_">
				<use xlink:href="#SVGID_00000157310297475519663590000015939163813386842037_"  style="overflow:visible;"/>
			</clipPath>
			<path style="clip-path:url(#SVGID_00000042702216280761105830000014403849020721489053_);fill:#132143;" d="M305.006,99.942
				l-169.235-0.045c-1.664,0-2.909,1.527-2.573,3.157l2.399,11.632c1.126,5.461,5.877,9.374,11.382,9.374h139.069
				c5.879,0,11.321-3.15,14.308-8.282l6.919-11.888C308.294,102.139,307.032,99.942,305.006,99.942z"/>
			
				<line style="clip-path:url(#SVGID_00000042702216280761105830000014403849020721489053_);fill-rule:evenodd;clip-rule:evenodd;fill:none;stroke:#C22527;stroke-width:3.1341;stroke-miterlimit:10;" x1="130.805" y1="105.886" x2="319.194" y2="105.886"/>
		</g>
		<path style="fill:#04D5D8;" d="M301.337,117.28l-10.151-3.333c-2.839-0.932-5.918-0.813-8.677,0.335l-2.109,0.878
			c-3.242,1.35-6.903,1.269-10.082-0.223l-0.079-0.037c-3.25-1.525-6.999-1.574-10.287-0.135l-0.732,0.32
			c-3.195,1.398-6.83,1.393-10.021-0.014l0,0c-3.662-1.614-7.876-1.371-11.329,0.653l-0.619,0.363
			c-1.304,0.765-2.854,0.995-4.324,0.642l-8.769-2.106c-2.231-0.536-4.567-0.445-6.751,0.262l-2.976,0.964
			c-2.844,0.922-5.925,0.79-8.68-0.371l-3.475-1.464c-2.339-0.986-4.923-1.234-7.407-0.71l-9.478,1.996
			c-2.084,0.439-4.253,0.214-6.203-0.642l-0.352-0.155c-2.853-1.254-6.141-1.022-8.791,0.619v0c-1.33,0.824-2.935,1.08-4.456,0.712
			l-11.109-2.69c-1.684-0.408-3.463-0.048-4.856,0.983h0c-1.561,1.156-3.595,1.461-5.426,0.814l-8.161-2.881
			c-1.765-0.623-3.722-0.364-5.264,0.698l-3.41,2.349v6.733l14.769,6.516l77.589,8.036l74.012-1.738L301.337,117.28z"/>
	</g>
</g>
<g id="aulas" style="display:none;">
	<g style="display:inline;">
		<rect x="368.174" style="fill-rule:evenodd;clip-rule:evenodd;fill:#FFFFFF;" width="33.652" height="145"/>
		<circle style="fill-rule:evenodd;clip-rule:evenodd;fill:#5654A2;" cx="385" cy="72.5" r="42.5"/>
	</g>
</g>
</svg>
