<?xml version="1.0" encoding="utf-8"?>
<!-- Generator: Adobe Illustrator 27.7.0, SVG Export Plug-In . SVG Version: 6.00 Build 0)  -->
<svg version="1.1" xmlns="http://www.w3.org/2000/svg" xmlns:xlink="http://www.w3.org/1999/xlink" x="0px" y="0px" width="1500px"
	 height="145px" viewBox="0 0 1500 145" style="enable-background:new 0 0 1500 145;" xml:space="preserve">
<g id="background">
	<rect x="-80.448" y="-3171.348" style="fill:#04D5D8;" width="1640.647" height="4034.435"/>
	<path style="fill:#3EE1DE;" d="M1587.821-136.861h-354.039c-28.645,0-56.114,11.373-76.373,31.623
		c-40.171,40.155-87.422,87.383-101.797,101.742c-8.341,8.332-22.399,5.974-27.574-4.619l-0.147-0.3
		c-9.094-18.62-28.005-30.43-48.728-30.43h-63.402c-14.499,0-28.138,5.644-38.406,15.895
		c-10.271,10.257-15.927,23.889-15.927,38.387v45.11c0,14.072,5.464,27.595,15.24,37.717l0.745,0.771
		c4.257,4.408,4.194,11.558-0.141,15.889l-61.406,61.355c-19.16,19.144-29.925,45.117-29.925,72.202v13.449
		c0,27.07,10.753,53.03,29.894,72.171l47.302,47.302c3.329,3.329,2.977,8.857-0.794,11.677c-2.737,2.046-5.346,4.3-7.807,6.758
		l-34.281,34.254c-0.787,0.786-1.546,1.59-2.279,2.409c-3.438,3.845-9.583,3.298-12.367-1.045c-1.811-2.825-3.939-5.475-6.369-7.907
		l-71.91-71.909c-8.867-8.87-20.659-13.755-33.204-13.755h-14.258l-2.01-2.011c-8.8-8.805-20.738-13.752-33.187-13.752H534.364
		c-12.331,0-23.981,4.745-32.803,13.359l-43.763,42.735c-8.992,8.781-14.15,21.025-14.15,33.593v31.879
		c0,12.453,4.947,24.397,13.753,33.202l41.563,41.562c8.805,8.804,20.746,13.751,33.198,13.751h53.144
		c12.542,0,24.333-4.884,33.201-13.751l6.638-6.639c2.313,5.218,5.594,10.017,9.751,14.175l24.334,24.334
		c8.869,8.867,20.659,13.751,33.201,13.751h32.001c12.542,0,24.333-4.884,33.201-13.751l41.608-41.609
		c0.866-0.866,1.693-1.76,2.482-2.68c3.284-3.833,9.283-3.717,12.217,0.39c1.93,2.701,4.115,5.274,6.556,7.687
		c6.829,6.748,16.077,10.487,25.678,10.487h5.739c6.285,11.166,18.26,18.725,31.969,18.725h24.582
		c19.259,0,37.364-7.494,50.981-21.099l0.821-0.819c13.617-13.607,21.117-31.698,21.117-50.94v-1.345
		c0-4.292,3.479-7.771,7.771-7.771h0.206h36.408c27.069,0,53.03,10.753,72.171,29.894l17.977,17.977
		c7.102,7.102,6.906,18.544-0.217,25.625c-0.045,0.045-0.09,0.09-0.135,0.135l-4.751,4.751
		c-23.714,23.715-23.958,62.763-0.543,86.774l35.972,36.886c11.55,11.843,27.663,18.636,44.208,18.637h29.159
		c16.494,0,32-6.424,43.663-18.086l36.456-36.456c7.903-7.903,13.392-17.573,16.111-28.118c2.05-7.953,9.375-13.41,17.588-13.41
		h241.322C1574.746,589.956,1606.532-136.861,1587.821-136.861z"/>
	<path style="fill:#04D5D8;" d="M1570.565-12.321h-143.769c-8.037,0-15.744,3.193-21.427,8.875l-54.842,54.842
		c-5.683,5.683-13.39,8.875-21.427,8.875h-59.987c-8.037,0-15.744,3.193-21.427,8.875l-15.658,15.658
		c-5.683,5.683-8.875,13.39-8.875,21.427v2.855c0,8.037,3.193,15.744,8.875,21.427l49.309,49.309
		c5.683,5.683,8.875,13.39,8.875,21.427v46.372c0,8.037,3.193,15.744,8.875,21.427l23.843,23.843
		c5.683,5.683,8.875,13.39,8.875,21.427v0c0,8.037-3.193,15.744-8.875,21.427l-56.164,56.164c-5.683,5.683-8.875,13.39-8.875,21.427
		v15.217c0,8.037,3.193,15.744,8.875,21.427l11.242,11.242c5.683,5.683,13.39,8.875,21.427,8.875h97.044
		c8.037,0,15.744-3.193,21.427-8.875l116.536-116.536c4.311-4.311,7.221-9.822,8.351-15.813l57.548-305.279
		C1603.86,4.938,1589.55-12.321,1570.565-12.321z"/>
	<path style="fill:#00C5C1;" d="M-23.244-119.578H82.93c11.349,0,22.233,4.508,30.258,12.533l1.478,1.478
		c8.025,8.025,18.909,12.533,30.258,12.533h8.787c11.349,0,22.233,4.508,30.258,12.533l12.942,12.942
		c8.025,8.025,12.533,18.909,12.533,30.258v0c0,11.349-4.508,22.233-12.533,30.258l-27.377,27.377
		c-8.025,8.025-18.909,12.533-30.258,12.533h-27.413c-11.349,0-22.233,4.508-30.258,12.533L-23.244,150.254V-119.578z"/>
	<path style="fill:#00C5C1;" d="M111.84,109.894l5.086,5.086c4.252,4.252,10.019,6.641,16.033,6.641h41.256
		c6.013,0,11.781,2.389,16.033,6.641l19.867,19.867c4.252,4.252,10.019,6.641,16.033,6.641h73.172
		c6.013,0,11.781-2.389,16.033-6.641l4.555-4.555c4.252-4.252,6.641-10.019,6.641-16.033v-8.403c0-6.013-2.389-11.781-6.641-16.033
		l-43.419-43.419c-4.252-4.252-10.019-6.641-16.033-6.641h-77.447c-6.013,0-11.781,2.389-16.033,6.641l-4.86,4.86
		c-4.252,4.252-10.019,6.641-16.033,6.641h-18.209c-5.514,0-10.839,2.009-14.979,5.652l0,0
		C103.066,85.488,102.583,100.638,111.84,109.894z"/>
</g>
<g id="Details">
	<g>
		<path style="fill-rule:evenodd;clip-rule:evenodd;fill:#00B465;" d="M1022.631,36.085c5.054,10.365,2.969,22.792-5.195,30.945
			c-12.605,12.594-31.464,31.435-45.556,45.532c-10.575,10.554-27.687,10.554-38.262,0c-11.542-11.533-25.634-25.615-34.25-34.228
			c-5.075-5.066-7.931-11.941-7.931-19.108c0-11.5,0-29.839,0-45.152c0-7.167,2.856-14.04,7.931-19.108
			c5.075-5.066,11.944-7.915,19.12-7.915c19.898,0,46.335,0,63.33,0c10.339,0,19.78,5.896,24.312,15.188
			C1011.039,12.324,1017.507,25.59,1022.631,36.085z"/>
		
			<path style="fill:none;stroke:#00B465;stroke-width:10.9038;stroke-linecap:round;stroke-linejoin:round;stroke-dasharray:0,10.9947;" d="
			M1022.631,36.085c5.054,10.365,2.969,22.792-5.195,30.945c-12.605,12.594-31.464,31.436-45.556,45.532
			c-10.575,10.554-27.687,10.554-38.262,0c-11.542-11.533-25.634-25.615-34.25-34.228c-5.075-5.066-7.931-11.941-7.931-19.108
			c0-11.5,0-29.839,0-45.152c0-7.167,2.856-14.04,7.931-19.108c5.075-5.066,11.944-7.915,19.12-7.915c19.898,0,46.335,0,63.33,0
			c10.339,0,19.78,5.896,24.312,15.188C1011.039,12.324,1017.507,25.59,1022.631,36.085z"/>
	</g>
	<g>
		<path style="fill-rule:evenodd;clip-rule:evenodd;fill:#FFD700;" d="M988.009,9.584l-0.989-0.988l0.989-0.988
			c0.546-0.545,0.546-1.431,0-1.975c-0.546-0.545-1.431-0.545-1.977,0l-0.989,0.988l-0.989-0.988c-0.545-0.545-1.431-0.545-1.977,0
			c-0.546,0.544-0.546,1.43,0,1.975l0.989,0.988l-0.989,0.988c-0.546,0.545-0.546,1.431,0,1.976c0.546,0.544,1.432,0.544,1.977,0
			l0.989-0.988l0.989,0.988c0.546,0.544,1.431,0.544,1.977,0C988.555,11.015,988.555,10.129,988.009,9.584z"/>
		<path style="fill-rule:evenodd;clip-rule:evenodd;fill:#FFD700;" d="M978.696,14.49c-0.546-0.545-1.431-0.545-1.977,0
			l-0.989,0.988l-0.989-0.988c-0.545-0.545-1.431-0.545-1.977,0c-0.546,0.544-0.546,1.43,0,1.975l0.988,0.988l-0.988,0.988
			c-0.546,0.545-0.546,1.431,0,1.976c0.546,0.544,1.432,0.544,1.977,0l0.989-0.988l0.989,0.988c0.546,0.544,1.431,0.544,1.977,0
			c0.546-0.545,0.546-1.431,0-1.976l-0.988-0.988l0.988-0.988C979.241,15.92,979.241,15.034,978.696,14.49z"/>
		<path style="fill-rule:evenodd;clip-rule:evenodd;fill:#FFD700;" d="M993.771,21.274l0.988-0.988c0.546-0.545,0.546-1.431,0-1.975
			c-0.546-0.545-1.431-0.545-1.977,0l-0.989,0.988l-0.989-0.988c-0.545-0.545-1.431-0.545-1.977,0c-0.546,0.544-0.546,1.43,0,1.975
			l0.988,0.988l-0.988,0.988c-0.546,0.545-0.546,1.431,0,1.976c0.546,0.544,1.432,0.544,1.977,0l0.989-0.988l0.989,0.988
			c0.545,0.544,1.431,0.544,1.977,0c0.546-0.545,0.546-1.431,0-1.976L993.771,21.274z"/>
	</g>
	<g>
		<path style="fill-rule:evenodd;clip-rule:evenodd;fill:#3EE1DE;" d="M549.06,35.08c-19.258,0-37.363-7.492-50.98-21.097
			l-3.766-3.761c-13.619-13.61-21.117-31.7-21.117-50.94v-19.927c0-19.241,7.5-37.333,21.117-50.94l0.821-0.819
			c13.617-13.606,31.723-21.099,50.982-21.099h24.582c13.709,0,25.684,7.559,31.969,18.725h5.739
			c9.791,0,18.995,3.809,25.918,10.725c23.116,23.1,23.116,60.682,0,83.78l-34.282,34.254
			C586.426,27.588,568.319,35.08,549.06,35.08z"/>
		<g>
			<path style="fill-rule:evenodd;clip-rule:evenodd;fill:#00B465;" d="M514.426-93.127l-0.819,0.819
				c-8.405,8.398-13.127,19.787-13.127,31.664v19.927c0,11.876,4.722,23.266,13.127,31.664l3.764,3.761
				c8.405,8.398,19.804,13.115,31.69,13.115l0,0c11.886,0,23.286-4.718,31.69-13.115l34.282-34.253c12.5-12.49,12.5-32.74,0-45.229
				l0,0c-1.757-1.756-4.141-2.742-6.626-2.742h-18.969c-5.175,0-9.37-4.192-9.37-9.362v0c0-5.171-4.195-9.362-9.37-9.362h-24.582
				C534.23-106.242,522.831-101.525,514.426-93.127z"/>
			
				<path style="fill:none;stroke:#00B465;stroke-width:10.9038;stroke-linecap:round;stroke-linejoin:round;stroke-dasharray:0,10.8937;" d="
				M514.426-93.127l-0.819,0.819c-8.405,8.398-13.127,19.787-13.127,31.664v19.927c0,11.876,4.722,23.266,13.127,31.664l3.764,3.76
				c8.405,8.398,19.804,13.115,31.69,13.115l0,0c11.886,0,23.286-4.718,31.69-13.115l34.282-34.253c12.5-12.49,12.5-32.74,0-45.229
				c-1.757-1.756-4.141-2.742-6.626-2.742h-18.969c-5.175,0-9.37-4.191-9.37-9.362s-4.195-9.362-9.37-9.362h-24.582
				C534.23-106.242,522.831-101.525,514.426-93.127z"/>
		</g>
	</g>
	<g>
		<path style="fill-rule:evenodd;clip-rule:evenodd;fill:#3EE1DE;" d="M456.396,110.463c-11.768,0-21.342-9.566-21.342-21.326
			c0-11.758,9.574-21.324,21.342-21.324h10.746c11.77,0,21.344,9.566,21.344,21.324c0,11.76-9.574,21.326-21.344,21.326H456.396z"/>
		<path style="fill-rule:evenodd;clip-rule:evenodd;fill:#00B465;" d="M467.149,96.833H456.39c-4.233,0-7.696-3.463-7.696-7.696v0
			c0-4.233,3.463-7.696,7.696-7.696h10.759c4.233,0,7.696,3.463,7.696,7.696v0C474.845,93.37,471.382,96.833,467.149,96.833z"/>
	</g>
	<g>
		<path style="fill:#3EE1DE;" d="M571.023,243.393c-17.253,0-33.474-6.712-45.673-18.902l-12.5-12.488
			c-12.2-12.19-18.918-28.397-18.918-45.636v-13.851c0-17.238,6.718-33.446,18.918-45.634l1.152-1.151
			c12.2-12.19,28.422-18.903,45.674-18.903h27.139c2.688,0,5.214-1.049,7.11-2.952l38.317-38.473
			c12.037-12.084,28.725-19.015,45.786-19.015h12.999c35.616,0,64.593,28.953,64.593,64.539v18.25
			c0,17.238-6.719,33.446-18.919,45.636l-69.737,69.678c-12.204,12.191-28.424,18.903-45.676,18.903H571.023z"/>
		<path style="fill:#FFF5C3;" d="M691.027,53.647h-12.998c-9.927,0-19.445,3.953-26.447,10.983l-38.319,38.474
			c-0.931,0.935-1.91,1.811-2.925,2.635v34.898l29.645,29.62h42.676l8.003-7.996l26.748-26.725
			c6.997-6.991,10.928-16.473,10.928-26.361V90.927C728.338,70.338,711.633,53.647,691.027,53.647z"/>
		<g>
			<path style="fill:#00B465;" d="M610.337,140.638V105.74c-6.619,5.372-14.915,8.348-23.522,8.348h-27.139
				c-9.896,0-19.386,3.928-26.383,10.919l-1.151,1.15c-6.997,6.991-10.928,16.473-10.928,26.361v13.85
				c0,9.887,3.931,19.369,10.928,26.361l12.498,12.487c6.997,6.991,16.487,10.919,26.383,10.919h50.266
				c9.896,0,19.386-3.928,26.383-10.919l34.986-34.957h-42.676L610.337,140.638z"/>
			<g>
				
					<line style="fill:none;stroke:#00B465;stroke-width:10.9038;stroke-linecap:round;stroke-linejoin:round;" x1="610.337" y1="140.638" x2="610.337" y2="140.638"/>
				
					<line style="fill:none;stroke:#00B465;stroke-width:10.9038;stroke-linecap:round;stroke-linejoin:round;stroke-dasharray:0,11.6328;" x1="610.337" y1="129.005" x2="610.337" y2="111.556"/>
				
					<line style="fill:none;stroke:#00B465;stroke-width:10.9038;stroke-linecap:round;stroke-linejoin:round;" x1="610.337" y1="105.74" x2="610.337" y2="105.74"/>
				
					<path style="fill:none;stroke:#00B465;stroke-width:10.9038;stroke-linecap:round;stroke-linejoin:round;stroke-dasharray:0,11.0618;" d="
					M600.847,111.348c-4.414,1.792-9.173,2.74-14.031,2.74h-27.139c-9.896,0-19.386,3.928-26.383,10.919l-1.151,1.15
					c-6.997,6.991-10.928,16.474-10.928,26.361v13.85c0,9.887,3.931,19.369,10.928,26.361l12.498,12.487
					c6.997,6.991,16.487,10.919,26.383,10.919h50.266c9.896,0,19.386-3.927,26.383-10.919l31.073-31.047"/>
				
					<polyline style="fill:none;stroke:#00B465;stroke-width:10.9038;stroke-linecap:round;stroke-linejoin:round;stroke-dasharray:0,10.5728;" points="
					672.085,170.258 639.982,170.258 614.077,144.375 				"/>
			</g>
		</g>
		<g>
			<path style="opacity:0.5;fill:#009352;" d="M577.654,131.925c-0.925,0-1.674-0.748-1.674-1.673v-5.237
				c0-0.925,0.75-1.673,1.674-1.673c0.925,0,1.674,0.748,1.674,1.673v5.237C579.328,131.176,578.578,131.925,577.654,131.925z"/>
			<path style="opacity:0.5;fill:#009352;" d="M584.352,131.925c-0.925,0-1.674-0.748-1.674-1.673v-3.493
				c0-0.925,0.75-1.673,1.674-1.673s1.674,0.748,1.674,1.673v3.493C586.026,131.176,585.277,131.925,584.352,131.925z"/>
			<path style="opacity:0.5;fill:#009352;" d="M570.955,131.925c-0.925,0-1.674-0.748-1.674-1.673v-3.493
				c0-0.925,0.75-1.673,1.674-1.673s1.674,0.748,1.674,1.673v3.493C572.629,131.176,571.88,131.925,570.955,131.925z"/>
		</g>
		<g>
			<g>
				<g>
					<rect x="711.886" y="138.544" style="fill-rule:evenodd;clip-rule:evenodd;fill:#2E2F5F;" width="2.338" height="11.339"/>
					<rect x="737.811" y="138.544" style="fill-rule:evenodd;clip-rule:evenodd;fill:#2E2F5F;" width="2.338" height="11.339"/>
				</g>
				<g>
					<path style="fill-rule:evenodd;clip-rule:evenodd;fill:#5652A2;" d="M726.017,118.896c-10.569,0-19.137,6.599-19.137,14.739
						c0,8.14,8.568,14.739,19.137,14.739c10.569,0,19.137-6.599,19.137-14.739C745.154,125.494,736.586,118.896,726.017,118.896z"/>
					<g>
						<defs>
							<path id="SVGID_00000096757499639250391490000009237371010355259836_" d="M726.017,117.398
								c-10.569,0-19.137,6.599-19.137,14.739c0,8.14,8.568,14.739,19.137,14.739c10.569,0,19.137-6.599,19.137-14.739
								C745.154,123.997,736.586,117.398,726.017,117.398z"/>
						</defs>
						<clipPath id="SVGID_00000098179232773590085420000012484244454810463403_">
							<use xlink:href="#SVGID_00000096757499639250391490000009237371010355259836_"  style="overflow:visible;"/>
						</clipPath>
						
							<rect x="704.701" y="124.308" style="clip-path:url(#SVGID_00000098179232773590085420000012484244454810463403_);fill-rule:evenodd;clip-rule:evenodd;fill:#424186;" width="42.633" height="24.197"/>
						<g style="clip-path:url(#SVGID_00000098179232773590085420000012484244454810463403_);">
							
								<line style="opacity:0.1883;fill:none;stroke:#4A4890;stroke-width:1.7477;stroke-linejoin:round;stroke-miterlimit:1.5;" x1="704.701" y1="128.201" x2="747.334" y2="128.201"/>
							
								<line style="opacity:0.1883;fill:none;stroke:#4A4890;stroke-width:1.7477;stroke-linejoin:round;stroke-miterlimit:1.5;" x1="704.701" y1="132.303" x2="747.334" y2="132.303"/>
							
								<line style="opacity:0.1883;fill:none;stroke:#4A4890;stroke-width:1.7477;stroke-linejoin:round;stroke-miterlimit:1.5;" x1="704.701" y1="136.407" x2="747.334" y2="136.407"/>
							
								<line style="opacity:0.1883;fill:none;stroke:#4A4890;stroke-width:1.7477;stroke-linejoin:round;stroke-miterlimit:1.5;" x1="704.701" y1="140.51" x2="747.334" y2="140.51"/>
							
								<line style="opacity:0.1883;fill:none;stroke:#4A4890;stroke-width:1.7477;stroke-linejoin:round;stroke-miterlimit:1.5;" x1="704.701" y1="144.612" x2="747.334" y2="144.612"/>
						</g>
					</g>
					<path style="fill-rule:evenodd;clip-rule:evenodd;fill:#D2F4FD;" d="M726.017,117.862c-9.804,0-17.751,6.121-17.751,13.672
						c0,7.551,7.948,13.672,17.751,13.672c9.804,0,17.751-6.121,17.751-13.672C743.768,123.983,735.821,117.862,726.017,117.862z"/>
					<path style="fill-rule:evenodd;clip-rule:evenodd;fill:#87DFEE;" d="M708.267,126.816c0,7.31,7.947,13.237,17.751,13.237
						c9.804,0,17.751-5.926,17.751-13.236c0-7.31-7.947-13.237-17.751-13.237C716.214,113.58,708.267,119.506,708.267,126.816z"/>
					<path style="opacity:0.5;fill-rule:evenodd;clip-rule:evenodd;fill:#00B4BB;" d="M710.063,127.004
						c0,5.795,7.143,10.492,15.955,10.492c8.812,0,15.955-4.698,15.955-10.492c0-5.795-7.143-10.492-15.955-10.492
						C717.206,116.512,710.063,121.209,710.063,127.004z"/>
					<g>
						<defs>
							
								<rect id="SVGID_00000130637914127701063070000014420566773146513046_" x="719.458" y="130.304" width="13.82" height="14.903"/>
						</defs>
						<clipPath id="SVGID_00000076575565235323814600000002178247805244959926_">
							<use xlink:href="#SVGID_00000130637914127701063070000014420566773146513046_"  style="overflow:visible;"/>
						</clipPath>
						
							<path style="clip-path:url(#SVGID_00000076575565235323814600000002178247805244959926_);fill-rule:evenodd;clip-rule:evenodd;fill:#87DFEE;" d="
							M708.266,131.616c0,7.506,7.947,13.59,17.751,13.59c9.804,0,17.751-6.084,17.751-13.59c0-7.506-7.948-13.59-17.751-13.59
							C716.214,118.026,708.266,124.111,708.266,131.616z"/>
					</g>
					<path style="opacity:0.5;fill-rule:evenodd;clip-rule:evenodd;fill:#00B4BB;" d="M720.437,124.448v19.765
						c0,0,2.655-1.384,5.931-1.384h0c3.275,0,5.931,1.384,5.931,1.384v-19.765H720.437z"/>
					<path style="opacity:0.5;fill-rule:evenodd;clip-rule:evenodd;fill:#807DB9;" d="M719.458,144.242l0.979-0.531
						c0,0,2.655-1.384,5.931-1.384h0c3.275,0,5.931,1.384,5.931,1.384l0.979,0.309l-3.197,0.192l-7.935,0.312L719.458,144.242z"/>
					<g>
						<polygon style="fill-rule:evenodd;clip-rule:evenodd;fill:#87DFEE;" points="711.886,133.287 709.354,130.195 
							709.354,120.721 711.886,120.721 						"/>
						<polygon style="fill-rule:evenodd;clip-rule:evenodd;fill:#87DFEE;" points="742.681,130.195 740.149,133.287 
							740.149,120.721 742.681,120.721 						"/>
					</g>
					<g>
						<polygon style="fill-rule:evenodd;clip-rule:evenodd;fill:#D2F4FD;" points="709.773,132.608 708.266,131.358 
							708.266,116.935 709.773,116.935 						"/>
						<polygon style="fill-rule:evenodd;clip-rule:evenodd;fill:#D2F4FD;" points="743.768,131.358 742.261,132.608 
							742.261,116.935 743.768,116.935 						"/>
					</g>
					<g>
						<rect x="718.474" y="131.797" style="fill-rule:evenodd;clip-rule:evenodd;fill:#87DFEE;" width="1.376" height="7.92"/>
						<rect x="732.91" y="131.797" style="fill-rule:evenodd;clip-rule:evenodd;fill:#87DFEE;" width="1.376" height="7.92"/>
					</g>
					<rect x="717.019" y="129.867" style="fill-rule:evenodd;clip-rule:evenodd;fill:#D2F4FD;" width="2.552" height="10.661"/>
					<rect x="733.189" y="129.867" style="fill-rule:evenodd;clip-rule:evenodd;fill:#D2F4FD;" width="2.552" height="10.661"/>
					<g>
						<g>
							<path style="fill:#FFFFFF;" d="M731.607,122.909v19.884c-1.141,0.315-3.074,0.738-5.239,0.738
								c-2.29,0-4.133-0.304-5.239-0.547v-20.075H731.607 M733.282,121.234h-13.829v23.043c0,0,2.763,0.929,6.914,0.929
								c3.819,0,6.914-1.185,6.914-1.185V121.234L733.282,121.234z"/>
						</g>
						<g>
							
								<line style="fill:none;stroke:#FFFFFF;stroke-width:1.6753;stroke-miterlimit:10;" x1="726.368" y1="144.786" x2="726.368" y2="129.826"/>
						</g>
						<g style="opacity:0.35;">
							<defs>
								<polygon id="SVGID_00000170261677097210600340000006914207075344637367_" style="opacity:0.35;" points="719.453,121.234 
									719.453,144.278 733.282,144.021 733.282,121.234 								"/>
							</defs>
							<clipPath id="SVGID_00000063606460417601232650000001168431714434952859_">
								<use xlink:href="#SVGID_00000170261677097210600340000006914207075344637367_"  style="overflow:visible;"/>
							</clipPath>
							
								<polygon style="clip-path:url(#SVGID_00000063606460417601232650000001168431714434952859_);fill-rule:evenodd;clip-rule:evenodd;fill:#FFFFFF;" points="
								724.888,145.175 719.458,145.175 727.501,126.512 732.932,126.512 							"/>
						</g>
						<path style="fill-rule:evenodd;clip-rule:evenodd;fill:none;stroke:#FFFFFF;stroke-width:0.8376;stroke-miterlimit:10;" d="
							M728.616,138.503L728.616,138.503c-0.133,0-0.242-0.109-0.242-0.241v-0.701c0-0.133,0.109-0.241,0.241-0.241h0
							c0.133,0,0.241,0.109,0.241,0.241v0.701C728.858,138.394,728.749,138.503,728.616,138.503z"/>
					</g>
					<path style="fill-rule:evenodd;clip-rule:evenodd;fill:#C8DEEF;" d="M726.017,110.255c-9.804,0-17.751,5.234-17.751,11.69
						c0,6.456,7.948,11.69,17.751,11.69c9.804,0,17.751-5.234,17.751-11.69C743.768,115.489,735.821,110.255,726.017,110.255z"/>
					<g>
						<path style="fill-rule:evenodd;clip-rule:evenodd;fill:#322D4F;" d="M726.017,106.946c-9.941,0-18,5.74-18,12.821
							c0,7.081,8.059,12.821,17.999,12.821c9.941,0,18-5.74,18-12.821C744.017,112.686,735.958,106.946,726.017,106.946z"/>
						<path style="fill-rule:evenodd;clip-rule:evenodd;fill:#5652A2;" d="M726.017,105.384c-9.941,0-18,5.74-18,12.821
							c0,7.081,8.059,12.821,17.999,12.821c9.941,0,18-5.74,18-12.821C744.017,111.124,735.958,105.384,726.017,105.384z"/>
						<g>
							<defs>
								<path id="SVGID_00000077288492112923072930000009950883638620247445_" d="M726.017,105.384c-9.941,0-18,5.74-18,12.821
									c0,7.081,8.059,12.821,17.999,12.821c9.941,0,18-5.74,18-12.821C744.017,111.124,735.958,105.384,726.017,105.384z"/>
							</defs>
							<clipPath id="SVGID_00000003802926616288262990000013723505469573606846_">
								<use xlink:href="#SVGID_00000077288492112923072930000009950883638620247445_"  style="overflow:visible;"/>
							</clipPath>
							<g style="clip-path:url(#SVGID_00000003802926616288262990000013723505469573606846_);">
								
									<line style="opacity:0.1883;fill:none;stroke:#4A4890;stroke-width:3.4954;stroke-linecap:round;stroke-linejoin:round;stroke-miterlimit:1.5;" x1="733.31" y1="96.331" x2="733.31" y2="140.878"/>
								
									<line style="opacity:0.1883;fill:none;stroke:#4A4890;stroke-width:3.4954;stroke-linecap:round;stroke-linejoin:round;stroke-miterlimit:1.5;" x1="718.725" y1="96.331" x2="718.725" y2="140.878"/>
							</g>
							<g style="clip-path:url(#SVGID_00000003802926616288262990000013723505469573606846_);">
								
									<line style="opacity:0.1883;fill:none;stroke:#4A4890;stroke-width:1.7477;stroke-linecap:round;stroke-linejoin:round;stroke-miterlimit:1.5;" x1="704.981" y1="118.23" x2="747.615" y2="118.23"/>
								
									<line style="opacity:0.1883;fill:none;stroke:#4A4890;stroke-width:1.7477;stroke-linecap:round;stroke-linejoin:round;stroke-miterlimit:1.5;" x1="704.981" y1="112.955" x2="747.615" y2="112.955"/>
								
									<line style="opacity:0.1883;fill:none;stroke:#4A4890;stroke-width:1.7477;stroke-linecap:round;stroke-linejoin:round;stroke-miterlimit:1.5;" x1="704.981" y1="107.68" x2="747.615" y2="107.68"/>
								
									<line style="opacity:0.1883;fill:none;stroke:#4A4890;stroke-width:1.7477;stroke-linecap:round;stroke-linejoin:round;stroke-miterlimit:1.5;" x1="704.981" y1="124.092" x2="747.615" y2="124.092"/>
								<polygon style="opacity:0.1477;fill-rule:evenodd;clip-rule:evenodd;fill:#5652A2;" points="746.675,109.439 
									704.42,129.529 744.484,134.566 								"/>
							</g>
						</g>
					</g>
				</g>
			</g>
		</g>
		<g>
			<g>
				<path style="fill:#BD7F46;" d="M620.306,126.734h-10.98l-2.976,27.152c-0.165,1.505,1.015,2.819,2.53,2.819h11.926
					c1.517,0,2.697-1.318,2.529-2.824L620.306,126.734z"/>
				<g>
					<defs>
						<path id="SVGID_00000008119670618692607830000016038442225213940403_" d="M620.306,126.734h-10.98l-2.976,27.152
							c-0.165,1.505,1.015,2.819,2.53,2.819h11.926c1.517,0,2.697-1.318,2.529-2.824L620.306,126.734z"/>
					</defs>
					<clipPath id="SVGID_00000008829919971242427150000009160314544326400163_">
						<use xlink:href="#SVGID_00000008119670618692607830000016038442225213940403_"  style="overflow:visible;"/>
					</clipPath>
					
						<path style="opacity:0.25;clip-path:url(#SVGID_00000008829919971242427150000009160314544326400163_);fill-rule:evenodd;clip-rule:evenodd;fill:#6A6862;" d="
						M614.851,146.362l-8.976-6.536c-4.958-3.61-5.518-10.79-1.18-15.124l3.14-3.137l14.033,0l3.14,3.137
						c4.338,4.334,3.778,11.515-1.18,15.124L614.851,146.362z"/>
				</g>
			</g>
			<g>
				<path style="fill-rule:evenodd;clip-rule:evenodd;fill:#00A600;" d="M614.843,125.871c0,3.958,1.573,7.756,4.376,10.555
					c2.802,2.8,6.603,4.372,10.566,4.372c7.505,0,15.028,0,15.028,0s0-4.619,0-9.868c0-3.96-1.573-7.757-4.375-10.557
					c-2.802-2.798-6.603-4.372-10.566-4.372c-7.505,0-15.028,0-15.028,0S614.843,120.62,614.843,125.871z"/>
				<g>
					<defs>
						<path id="SVGID_00000086660839431319602010000008180937425120896678_" d="M614.843,125.871c0,3.958,1.573,7.756,4.376,10.555
							c2.802,2.8,6.603,4.372,10.566,4.372c7.505,0,15.028,0,15.028,0s0-4.619,0-9.868c0-3.96-1.573-7.757-4.375-10.557
							c-2.802-2.798-6.603-4.372-10.566-4.372c-7.505,0-15.028,0-15.028,0S614.843,120.62,614.843,125.871z"/>
					</defs>
					<clipPath id="SVGID_00000160164554375084650300000010445199297705694884_">
						<use xlink:href="#SVGID_00000086660839431319602010000008180937425120896678_"  style="overflow:visible;"/>
					</clipPath>
					
						<polygon style="clip-path:url(#SVGID_00000160164554375084650300000010445199297705694884_);fill-rule:evenodd;clip-rule:evenodd;fill:#009238;" points="
						614.843,116.001 648.287,144.586 614.843,144.586 					"/>
					
						<rect x="627.956" y="108.886" transform="matrix(0.6325 -0.7745 0.7745 0.6325 132.1193 534.929)" style="clip-path:url(#SVGID_00000160164554375084650300000010445199297705694884_);fill-rule:evenodd;clip-rule:evenodd;fill:#00B500;" width="3.744" height="38.673"/>
					
						<path style="clip-path:url(#SVGID_00000160164554375084650300000010445199297705694884_);fill-rule:evenodd;clip-rule:evenodd;fill:#007B62;" d="
						M632.325,142.416h-3.746c0,0,0-3.885,0-6.296c0-1.033,0.839-1.872,1.873-1.872s1.873,0.838,1.873,1.872
						C632.325,138.53,632.325,142.416,632.325,142.416z"/>
					
						<path style="clip-path:url(#SVGID_00000160164554375084650300000010445199297705694884_);fill-rule:evenodd;clip-rule:evenodd;fill:#007B62;" d="
						M624.832,142.693h-3.746c0,0,0-8.547,0-12.423c0-1.033,0.837-1.87,1.871-1.87c0.002,0,0.002,0,0.004,0
						c1.034,0,1.871,0.837,1.871,1.87C624.832,134.145,624.832,142.693,624.832,142.693z"/>
					
						<path style="clip-path:url(#SVGID_00000160164554375084650300000010445199297705694884_);fill-rule:evenodd;clip-rule:evenodd;fill:#009238;" d="
						M644.812,130.307v-3.545c0,0-3.503,0-5.719,0c-0.47,0-0.922,0.187-1.255,0.52c-0.331,0.331-0.519,0.782-0.519,1.252l0,0
						c0,0.472,0.187,0.921,0.519,1.254c0.333,0.333,0.785,0.518,1.255,0.518C641.309,130.307,644.812,130.307,644.812,130.307z"/>
					
						<path style="clip-path:url(#SVGID_00000160164554375084650300000010445199297705694884_);fill-rule:evenodd;clip-rule:evenodd;fill:#009238;" d="
						M644.812,123.019v-3.743c0,0-7.618,0-11.24,0c-1.034,0-1.871,0.837-1.871,1.87c0,0.002,0,0.004,0,0.004
						c0,1.033,0.837,1.87,1.871,1.87C637.194,123.019,644.812,123.019,644.812,123.019z"/>
				</g>
			</g>
			<g>
				<path style="fill-rule:evenodd;clip-rule:evenodd;fill:#00A600;" d="M614.843,125.871c0,3.958-1.573,7.756-4.376,10.555
					c-2.802,2.8-6.603,4.372-10.566,4.372c-7.505,0-15.028,0-15.028,0s0-4.619,0-9.868c0-3.96,1.573-7.757,4.376-10.557
					c2.802-2.798,6.603-4.372,10.566-4.372c7.505,0,15.028,0,15.028,0S614.843,120.62,614.843,125.871z"/>
				<g>
					<defs>
						<path id="SVGID_00000088116295822309378390000016705223214070001544_" d="M614.843,125.871c0,3.958-1.573,7.756-4.376,10.555
							c-2.802,2.8-6.603,4.372-10.566,4.372c-7.505,0-15.028,0-15.028,0s0-4.619,0-9.868c0-3.96,1.573-7.757,4.376-10.557
							c2.802-2.798,6.603-4.372,10.566-4.372c7.505,0,15.028,0,15.028,0S614.843,120.62,614.843,125.871z"/>
					</defs>
					<clipPath id="SVGID_00000049932299605917192780000015861098295821511862_">
						<use xlink:href="#SVGID_00000088116295822309378390000016705223214070001544_"  style="overflow:visible;"/>
					</clipPath>
					
						<polygon style="clip-path:url(#SVGID_00000049932299605917192780000015861098295821511862_);fill-rule:evenodd;clip-rule:evenodd;fill:#009238;" points="
						614.843,116.001 581.399,144.586 614.843,144.586 					"/>
					
						<rect x="580.521" y="126.351" transform="matrix(0.775 -0.632 0.632 0.775 53.9576 407.9783)" style="clip-path:url(#SVGID_00000049932299605917192780000015861098295821511862_);fill-rule:evenodd;clip-rule:evenodd;fill:#00B500;" width="38.673" height="3.744"/>
					
						<path style="clip-path:url(#SVGID_00000049932299605917192780000015861098295821511862_);fill-rule:evenodd;clip-rule:evenodd;fill:#007B62;" d="
						M597.36,142.416h3.746c0,0,0-3.885,0-6.296c0-1.033-0.839-1.872-1.873-1.872c-1.034,0-1.873,0.838-1.873,1.872
						C597.36,138.53,597.36,142.416,597.36,142.416z"/>
					
						<path style="clip-path:url(#SVGID_00000049932299605917192780000015861098295821511862_);fill-rule:evenodd;clip-rule:evenodd;fill:#007B62;" d="
						M604.853,142.693h3.746c0,0,0-8.545,0-12.421c0-0.496-0.197-0.971-0.549-1.323c-0.35-0.35-0.828-0.548-1.324-0.548
						c-0.496,0-0.974,0.198-1.324,0.548c-0.352,0.352-0.549,0.827-0.549,1.323C604.853,134.147,604.853,142.693,604.853,142.693z"/>
					
						<path style="clip-path:url(#SVGID_00000049932299605917192780000015861098295821511862_);fill-rule:evenodd;clip-rule:evenodd;fill:#009238;" d="
						M584.873,130.505v-3.743c0,0,3.402,0,5.621,0c0.496,0,0.972,0.197,1.322,0.548c0.352,0.35,0.549,0.825,0.549,1.321
						c0,0.002,0,0.004,0,0.004c0,0.496-0.197,0.971-0.549,1.323c-0.35,0.35-0.826,0.546-1.322,0.546
						C588.275,130.505,584.873,130.505,584.873,130.505z"/>
					
						<path style="clip-path:url(#SVGID_00000049932299605917192780000015861098295821511862_);fill-rule:evenodd;clip-rule:evenodd;fill:#009238;" d="
						M584.873,123.019v-3.743c0,0,7.616,0,11.239,0c0.496,0,0.974,0.198,1.324,0.548c0.352,0.352,0.549,0.827,0.549,1.323
						s-0.197,0.973-0.549,1.323c-0.35,0.352-0.828,0.548-1.324,0.548C592.489,123.019,584.873,123.019,584.873,123.019z"/>
				</g>
			</g>
			<g>
				<defs>
					<path id="SVGID_00000047040091779178081780000011296521838393845920_" d="M640.436,120.373
						c-2.802-2.798-6.602-4.372-10.565-4.372c-7.506,0-15.029,0-15.029,0s-7.522,0-15.027,0c-3.963,0-7.764,1.574-10.567,4.372
						c-2.801,2.8-4.375,6.597-4.375,10.557c0,5.25,0,9.869,0,9.869s7.523,0,15.029,0c3.963,0,7.763-1.572,10.565-4.372
						c2.802-2.8,4.375-6.597,4.375-10.555c0,3.958,1.574,7.755,4.375,10.555c2.802,2.8,6.603,4.372,10.567,4.372
						c7.506,0,15.027,0,15.027,0s0-4.619,0-9.869C644.812,126.97,643.239,123.173,640.436,120.373z"/>
				</defs>
				<clipPath id="SVGID_00000129895369130292686010000005952575374436973452_">
					<use xlink:href="#SVGID_00000047040091779178081780000011296521838393845920_"  style="overflow:visible;"/>
				</clipPath>
			</g>
			<g>
				<path style="fill-rule:evenodd;clip-rule:evenodd;fill:#00B500;" d="M614.851,140.799l-8.976-6.536
					c-4.958-3.61-5.518-10.79-1.18-15.124l3.14-3.137l14.033,0l3.14,3.137c4.338,4.334,3.778,11.515-1.18,15.124L614.851,140.799z"
					/>
				<g>
					<defs>
						<path id="SVGID_00000036244319493110000660000000437365304576807836_" d="M614.851,140.799l-8.976-6.536
							c-4.958-3.61-5.518-10.79-1.18-15.124l3.14-3.137l14.033,0l3.14,3.137c4.338,4.334,3.778,11.515-1.18,15.124L614.851,140.799z
							"/>
					</defs>
					<clipPath id="SVGID_00000148627141881424833460000015083897385749239218_">
						<use xlink:href="#SVGID_00000036244319493110000660000000437365304576807836_"  style="overflow:visible;"/>
					</clipPath>
					<g style="clip-path:url(#SVGID_00000148627141881424833460000015083897385749239218_);">
						<rect x="614.851" y="114.865" style="fill:#009238;" width="14.161" height="26.855"/>
					</g>
					<g style="clip-path:url(#SVGID_00000148627141881424833460000015083897385749239218_);">
						<rect x="612.97" y="113.298" style="fill:#26C21A;" width="3.746" height="32.643"/>
					</g>
					<g style="clip-path:url(#SVGID_00000148627141881424833460000015083897385749239218_);">
						<g>
							<path style="fill:#009238;" d="M601.561,129.675c-0.61,0-1.21-0.297-1.568-0.844c-0.568-0.865-0.327-2.025,0.539-2.592
								l7.614-4.991c0.866-0.57,2.027-0.324,2.593,0.537c0.568,0.865,0.327,2.025-0.539,2.592l-7.614,4.991
								C602.268,129.576,601.912,129.675,601.561,129.675z"/>
						</g>
						<g>
							<path style="fill:#007B62;" d="M628.123,129.675c-0.351,0-0.707-0.099-1.024-0.307l-7.612-4.991
								c-0.866-0.567-1.107-1.727-0.539-2.592c0.566-0.861,1.719-1.109,2.593-0.537l7.612,4.991
								c0.866,0.567,1.107,1.727,0.539,2.592C629.333,129.377,628.733,129.675,628.123,129.675z"/>
						</g>
						<g>
							<path style="fill:#009238;" d="M601.561,138.209c-0.61,0-1.21-0.297-1.568-0.844c-0.568-0.865-0.327-2.025,0.539-2.592
								l7.614-4.991c0.866-0.57,2.027-0.324,2.593,0.537c0.568,0.865,0.327,2.025-0.539,2.592l-7.614,4.991
								C602.268,138.11,601.912,138.209,601.561,138.209z"/>
						</g>
						<g>
							<path style="fill:#007B62;" d="M628.123,138.209c-0.351,0-0.707-0.099-1.024-0.307l-7.612-4.991
								c-0.866-0.567-1.107-1.727-0.539-2.592c0.566-0.861,1.719-1.109,2.593-0.537l7.612,4.991
								c0.866,0.567,1.107,1.727,0.539,2.592C629.333,137.911,628.733,138.209,628.123,138.209z"/>
						</g>
					</g>
				</g>
			</g>
			<path style="fill:#E87100;" d="M642.254,123.657l-2.958-3.806c-0.165-0.463-0.34-1.025-0.477-1.54
				c-0.164-0.614-0.3-1.233-0.408-1.847c-0.213-1.227-0.285-2.44-0.167-3.511l0.005-0.046v-0.001
				c0.148-1.344-0.823-2.553-2.168-2.701c-1.345-0.148-2.555,0.822-2.703,2.166c-0.191,1.739-0.062,3.368,0.203,4.921
				c0.136,0.776,0.304,1.537,0.505,2.287c0.209,0.766,0.415,1.45,0.727,2.279l0,0l0.237,0.471c0.081,0.158,0.2,0.3,0.356,0.409
				l4.646,3.235c0.565,0.393,1.344,0.395,1.917-0.049C642.674,125.377,642.802,124.362,642.254,123.657z"/>
			<path style="fill:#E87100;" d="M626.813,122.682L626.813,122.682c-0.185-1.241-0.592-2.242-1.038-3.178
				c-0.227-0.465-0.471-0.91-0.729-1.345c-0.27-0.446-0.507-0.83-0.862-1.312l-0.074-0.1c-0.094-0.125-0.201-0.244-0.322-0.353
				c-1.01-0.914-2.57-0.837-3.485,0.172c-0.915,1.009-0.838,2.568,0.172,3.482c0.216,0.196,0.513,0.519,0.755,0.797
				c0.251,0.29,0.492,0.588,0.712,0.888c0.394,0.536,0.716,1.089,0.911,1.558l-0.307,2.201c-0.093,0.67,0.258,1.35,0.906,1.644
				c0.789,0.358,1.719,0.009,2.077-0.78l1.243-2.738c0.076-0.169,0.11-0.364,0.086-0.562L626.813,122.682z"/>
			<path style="fill:#EB8000;" d="M628.005,112.147l-4.843,2.171l-2.104,0.943c-1.472,0.66-2.129,2.387-1.469,3.858l0.272,0.606
				c0.51,1.136,1.845,1.643,2.982,1.133v0c0.387-0.174,0.816-0.235,1.237-0.176l2.754,0.386c2.024,0.283,4.087-0.01,5.952-0.846v0
				c4.058-1.82,5.871-6.581,4.05-10.636v0c-0.289-0.644-1.046-0.931-1.69-0.642L628.005,112.147z"/>
			<path style="fill:#F09C3A;" d="M635.593,125.138l-2.927-4.243c-0.01-0.484-0.005-1.008,0.018-1.493
				c0.032-0.708,0.101-1.405,0.208-2.068c0.11-0.659,0.264-1.287,0.464-1.807c0.195-0.521,0.455-0.91,0.625-1.063l0.017-0.016
				c0.009-0.008,0.018-0.017,0.027-0.025c0.984-0.928,1.029-2.477,0.101-3.461c-0.929-0.984-2.48-1.029-3.464-0.101
				c-0.988,0.932-1.507,1.963-1.88,2.908c-0.364,0.955-0.575,1.871-0.726,2.767c-0.146,0.895-0.229,1.772-0.269,2.64
				c-0.037,0.886-0.044,1.69,0.01,2.65v0.001l0.067,0.468c0.056,0.382,0.247,0.746,0.568,1.012l4.798,3.985
				c0.542,0.45,1.339,0.507,1.948,0.088C635.914,126.875,636.099,125.871,635.593,125.138z"/>
			<path style="fill:#EB8000;" d="M637.676,104.144h-0.264c-3.54,0-6.409,2.867-6.409,6.404v0c0,1.233,0.118,2.463,0.351,3.673
				l0.092,0.476c0.117,0.606,0.648,1.044,1.266,1.044h9.664c0.618,0,1.149-0.438,1.266-1.044l0.092-0.476
				c0.234-1.21,0.351-2.44,0.351-3.673v0C644.085,107.011,641.216,104.144,637.676,104.144z"/>
			<path style="fill:#F2B474;" d="M638.166,114.164l-0.003,0c-1.796,0.006-3.257-1.446-3.263-3.242l-0.006-1.9
				c-0.006-1.796,1.446-3.257,3.242-3.263l0.003,0c1.796-0.006,3.257,1.446,3.263,3.242l0.006,1.9
				C641.414,112.697,639.962,114.158,638.166,114.164z"/>
			<circle style="fill:#723800;" cx="639.693" cy="109.36" r="0.895"/>
			<circle style="fill:#723800;" cx="636.707" cy="109.392" r="0.895"/>
			<path style="fill:#EB8000;" d="M602.509,126.625c-4.049,0-7.793-0.982-8.019-1.042c-0.57-0.152-0.909-0.738-0.757-1.308
				c0.153-0.571,0.74-0.907,1.309-0.757c0.075,0.02,7.505,1.966,12.201,0.291c3.359-1.197,5.565-2.908,7.698-4.562
				c1.667-1.293,3.391-2.63,5.616-3.696c0.531-0.256,1.171-0.031,1.427,0.502c0.256,0.532,0.031,1.17-0.502,1.426
				c-2.019,0.968-3.578,2.177-5.229,3.458c-2.266,1.758-4.61,3.575-8.292,4.887C606.287,126.419,604.366,126.625,602.509,126.625z"
				/>
			<path style="fill:#F09C3A;" d="M624.518,119.65c-0.027-0.462-0.053-0.871-0.12-1.385l-0.015-0.117
				c-0.022-0.163-0.062-0.327-0.119-0.488c-0.454-1.285-1.864-1.959-3.15-1.505c-1.286,0.453-1.96,1.862-1.506,3.147
				c0.097,0.274,0.202,0.661,0.288,0.996c0.087,0.347,0.167,0.697,0.229,1.036c0.121,0.623,0.177,1.254,0.171,1.671l-1.372,2.551
				c-0.332,0.618-0.216,1.405,0.327,1.898c0.64,0.58,1.629,0.532,2.21-0.107l2.382-2.623c0.096-0.107,0.175-0.24,0.22-0.386
				l0.086-0.282l0,0c0.179-0.587,0.259-1.105,0.318-1.605c0.058-0.5,0.074-0.967,0.082-1.433
				C624.555,120.551,624.542,120.1,624.518,119.65z"/>
			<path style="fill-rule:evenodd;clip-rule:evenodd;fill:#FFEA85;" d="M572.466,158.095c0,0-16.892-14.955-20.505-18.152h-1.348
				c-3.613,3.198-20.505,18.152-20.505,18.152s0,12.434,0,16.794c0,0.395,0.157,0.773,0.436,1.052
				c0.28,0.28,0.659,0.437,1.054,0.437c6.558,0,32.82,0,39.378,0c0.395,0,0.774-0.157,1.054-0.437
				c0.279-0.279,0.436-0.657,0.436-1.052C572.466,170.529,572.466,158.095,572.466,158.095z"/>
			<g>
				<defs>
					<path id="SVGID_00000183929225336031039130000016194739038693498283_" d="M572.466,158.095c0,0-16.892-14.955-20.505-18.152
						h-1.348c-3.613,3.198-20.505,18.152-20.505,18.152s0,12.434,0,16.794c0,0.395,0.157,0.773,0.436,1.052
						c0.28,0.28,0.659,0.437,1.054,0.437c6.558,0,32.82,0,39.378,0c0.395,0,0.774-0.157,1.054-0.437
						c0.279-0.279,0.436-0.657,0.436-1.052C572.466,170.529,572.466,158.095,572.466,158.095z"/>
				</defs>
				<clipPath id="SVGID_00000112629431053711369170000016142000988686636977_">
					<use xlink:href="#SVGID_00000183929225336031039130000016194739038693498283_"  style="overflow:visible;"/>
				</clipPath>
				
					<rect x="528.862" y="142.769" style="clip-path:url(#SVGID_00000112629431053711369170000016142000988686636977_);fill-rule:evenodd;clip-rule:evenodd;fill:#F8D653;" width="44.85" height="3.734"/>
				
					<polyline style="clip-path:url(#SVGID_00000112629431053711369170000016142000988686636977_);fill:none;stroke:#D5B224;stroke-width:3.7359;stroke-linejoin:bevel;stroke-miterlimit:1.5;" points="
					528.239,161.251 551.287,142.147 574.563,161.44 				"/>
			</g>
			
				<line style="fill:none;stroke:#618D38;stroke-width:4.4831;stroke-linecap:round;stroke-linejoin:round;stroke-miterlimit:1.5;" x1="528.52" y1="158.329" x2="551.287" y2="139.284"/>
			
				<line style="fill:none;stroke:#618D38;stroke-width:4.4831;stroke-linecap:round;stroke-linejoin:round;stroke-miterlimit:1.5;" x1="528.52" y1="152.727" x2="551.287" y2="133.682"/>
			
				<line style="fill:none;stroke:#618D38;stroke-width:4.4831;stroke-linecap:round;stroke-linejoin:round;stroke-miterlimit:1.5;" x1="528.52" y1="147.126" x2="551.287" y2="128.081"/>
			
				<line style="fill:none;stroke:#618D38;stroke-width:4.4831;stroke-linecap:round;stroke-linejoin:round;stroke-miterlimit:1.5;" x1="574.054" y1="158.329" x2="551.287" y2="139.284"/>
			
				<line style="fill:none;stroke:#618D38;stroke-width:4.4831;stroke-linecap:round;stroke-linejoin:round;stroke-miterlimit:1.5;" x1="574.054" y1="152.727" x2="551.287" y2="133.682"/>
			
				<line style="fill:none;stroke:#618D38;stroke-width:4.4831;stroke-linecap:round;stroke-linejoin:round;stroke-miterlimit:1.5;" x1="574.054" y1="147.126" x2="551.287" y2="128.081"/>
			<path style="fill-rule:evenodd;clip-rule:evenodd;fill:#467519;" d="M551.288,144.885c1.049,0,1.899-0.85,1.899-1.897
				c0-3.848,0-12.525,0-16.371c0-1.048-0.85-1.897-1.899-1.897c-0.001,0-0.001,0-0.003,0c-1.049,0-1.899,0.849-1.899,1.897
				c0,3.846,0,12.524,0,16.371c0,1.047,0.85,1.897,1.899,1.897C551.287,144.885,551.287,144.885,551.288,144.885z"/>
		</g>
	</g>
	<path style="fill-rule:evenodd;clip-rule:evenodd;fill:#00C5C1;" d="M814.668,79.466V76.81c0.491-0.039,0.881-0.439,0.881-0.939
		c0-0.5-0.391-0.899-0.881-0.939v-0.088c0-0.526-0.428-0.954-0.955-0.954c-0.527,0-0.955,0.427-0.955,0.954v1.027h-2.643v-1.027
		c0-0.526-0.428-0.954-0.955-0.954s-0.955,0.427-0.955,0.954v0.088c-0.491,0.039-0.881,0.439-0.881,0.939
		c0,0.5,0.39,0.9,0.881,0.939v2.656h-9.251c0,6.764,5.393,12.257,12.115,12.453v6.401c0,0.202,0.164,0.367,0.367,0.367
		c0.203,0,0.367-0.164,0.367-0.367v-6.401c6.722-0.196,12.115-5.689,12.115-12.453H814.668z"/>
	<g>
		<g>
			<path style="fill-rule:evenodd;clip-rule:evenodd;fill:#04D5D8;" d="M1062.433,98.559c0,0.16,0.12,0.295,0.279,0.313
				c0.854,0.1,3.472,0.405,5.108,0.595c0.312,0.036,0.587,0.224,0.734,0.501c0.147,0.277,0.149,0.61,0.005,0.889l0,0
				c-0.989,1.909-0.972,4.183,0.045,6.077c0.139,0.259,0.264,0.491,0.363,0.676c0.136,0.254,0.09,0.566-0.114,0.77
				c-0.187,0.187-0.422,0.422-0.632,0.631c-0.089,0.088-0.115,0.221-0.067,0.337c0.048,0.115,0.16,0.191,0.286,0.191
				c0.896,0,2.45,0,3.843,0c1.828,0,3.536-0.91,4.555-2.426c0.429-0.638,0.863-1.284,1.192-1.772c0.35-0.52,0.936-0.832,1.562-0.832
				c0.358,0,0.75,0,1.064,0c0.159,0,0.312-0.063,0.425-0.176c0.113-0.113,0.176-0.265,0.176-0.425v0
				c0-0.159-0.063-0.312-0.176-0.425c-0.113-0.113-0.266-0.176-0.425-0.176c-0.314,0-0.705,0-1.064,0
				c-0.627,0-1.213-0.312-1.562-0.832c-0.328-0.489-0.763-1.134-1.192-1.772c-1.019-1.516-2.728-2.426-4.555-2.426
				c-3.287,0-8.328,0-9.567,0C1062.559,98.277,1062.433,98.403,1062.433,98.559L1062.433,98.559z"/>
		</g>
		<g>
			<defs>
				<path id="SVGID_00000134244910566299613540000018081581780156034226_" d="M1062.433,98.559c0,0.16,0.12,0.295,0.279,0.313
					c0.854,0.1,3.472,0.405,5.108,0.595c0.312,0.036,0.587,0.224,0.734,0.501c0.147,0.277,0.149,0.61,0.005,0.889l0,0
					c-0.989,1.909-0.972,4.183,0.045,6.077c0.139,0.259,0.264,0.491,0.363,0.676c0.136,0.254,0.09,0.566-0.114,0.77
					c-0.187,0.187-0.422,0.422-0.632,0.631c-0.089,0.088-0.115,0.221-0.067,0.337c0.048,0.115,0.16,0.191,0.286,0.191
					c0.896,0,2.45,0,3.843,0c1.828,0,3.536-0.91,4.555-2.426c0.429-0.638,0.863-1.284,1.192-1.772
					c0.35-0.52,0.936-0.832,1.562-0.832c0.358,0,0.75,0,1.064,0c0.159,0,0.312-0.063,0.425-0.176
					c0.113-0.113,0.176-0.265,0.176-0.425v0c0-0.159-0.063-0.312-0.176-0.425c-0.113-0.113-0.266-0.176-0.425-0.176
					c-0.314,0-0.705,0-1.064,0c-0.627,0-1.213-0.312-1.562-0.832c-0.328-0.489-0.763-1.134-1.192-1.772
					c-1.019-1.516-2.728-2.426-4.555-2.426c-3.287,0-8.328,0-9.567,0C1062.559,98.277,1062.433,98.403,1062.433,98.559
					L1062.433,98.559z"/>
			</defs>
			
				<use xlink:href="#SVGID_00000134244910566299613540000018081581780156034226_"  style="overflow:visible;fill-rule:evenodd;clip-rule:evenodd;fill:#04D5D8;"/>
			<clipPath id="SVGID_00000106856906696032168090000016137147043022655647_">
				<use xlink:href="#SVGID_00000134244910566299613540000018081581780156034226_"  style="overflow:visible;"/>
			</clipPath>
			<g style="clip-path:url(#SVGID_00000106856906696032168090000016137147043022655647_);">
				<circle style="fill-rule:evenodd;clip-rule:evenodd;fill:#04D5D8;" cx="1075.996" cy="103.897" r="1.882"/>
			</g>
			<g style="clip-path:url(#SVGID_00000106856906696032168090000016137147043022655647_);">
				<circle style="fill-rule:evenodd;clip-rule:evenodd;fill:#04D5D8;" cx="1070.433" cy="109.539" r="1.411"/>
			</g>
			<g style="clip-path:url(#SVGID_00000106856906696032168090000016137147043022655647_);">
				<circle style="fill-rule:evenodd;clip-rule:evenodd;fill:#04D5D8;" cx="1071.466" cy="101.773" r="0.941"/>
			</g>
			<g style="clip-path:url(#SVGID_00000106856906696032168090000016137147043022655647_);">
				<circle style="fill-rule:evenodd;clip-rule:evenodd;fill:#04D5D8;" cx="1074.668" cy="98.945" r="1.477"/>
			</g>
			<g style="clip-path:url(#SVGID_00000106856906696032168090000016137147043022655647_);">
				<circle style="fill-rule:evenodd;clip-rule:evenodd;fill:#04D5D8;" cx="1062.903" cy="98.724" r="0.941"/>
			</g>
			<g style="clip-path:url(#SVGID_00000106856906696032168090000016137147043022655647_);">
				<circle style="fill-rule:evenodd;clip-rule:evenodd;fill:#04D5D8;" cx="1065.256" cy="97.784" r="0.941"/>
			</g>
			<g style="clip-path:url(#SVGID_00000106856906696032168090000016137147043022655647_);">
				<circle style="fill-rule:evenodd;clip-rule:evenodd;fill:#04D5D8;" cx="1067.609" cy="99.665" r="0.941"/>
			</g>
			<g style="clip-path:url(#SVGID_00000106856906696032168090000016137147043022655647_);">
				<circle style="fill-rule:evenodd;clip-rule:evenodd;fill:#04D5D8;" cx="1070.433" cy="98.724" r="0.941"/>
			</g>
			<g style="clip-path:url(#SVGID_00000106856906696032168090000016137147043022655647_);">
				<circle style="fill-rule:evenodd;clip-rule:evenodd;fill:#04D5D8;" cx="1071.845" cy="105.777" r="1.646"/>
			</g>
			<g style="clip-path:url(#SVGID_00000106856906696032168090000016137147043022655647_);">
				<circle style="fill-rule:evenodd;clip-rule:evenodd;fill:#04D5D8;" cx="1075.139" cy="108.128" r="1.411"/>
			</g>
			<g style="clip-path:url(#SVGID_00000106856906696032168090000016137147043022655647_);">
				<circle style="fill-rule:evenodd;clip-rule:evenodd;fill:#04D5D8;" cx="1068.551" cy="103.897" r="1.411"/>
			</g>
			<g style="clip-path:url(#SVGID_00000106856906696032168090000016137147043022655647_);">
				<rect x="1079.421" y="102.027" style="fill-rule:evenodd;clip-rule:evenodd;fill:#04D5D8;" width="4.612" height="3.762"/>
			</g>
		</g>
		<g>
			<path style="fill-rule:evenodd;clip-rule:evenodd;fill:#04D5D8;" d="M1065.242,101.282c-0.05-0.134,0.006-0.285,0.131-0.353
				c0.126-0.069,0.282-0.035,0.368,0.08c0.971,1.294,2.177,2.899,2.177,2.899s-1.205,1.605-2.177,2.899
				c-0.086,0.114-0.243,0.148-0.368,0.08c-0.126-0.069-0.182-0.219-0.131-0.353c0.166-0.443,0.34-0.906,0.494-1.317
				c0.317-0.844,0.317-1.773,0-2.617C1065.582,102.188,1065.408,101.725,1065.242,101.282z"/>
		</g>
		<g>
			<path style="fill-rule:evenodd;clip-rule:evenodd;fill:#04D5D8;" d="M1075.996,102.969c-0.518,0-0.939,0.421-0.939,0.939
				c0,0.518,0.421,0.939,0.939,0.939c0.519,0,0.939-0.421,0.939-0.939C1076.936,103.39,1076.515,102.969,1075.996,102.969z"/>
		</g>
		<g>
			<path style="fill-rule:evenodd;clip-rule:evenodd;fill:#04D5D8;" d="M1075.996,102.969c0.519,0,0.939,0.42,0.939,0.939
				c0,0.518-0.42,0.939-0.939,0.939V102.969z"/>
		</g>
	</g>
	<g>
		<path style="fill-rule:evenodd;clip-rule:evenodd;fill:#00C5C1;" d="M640.602-6.698c-0.358,0-0.889,0-1.506,0
			c0,0,0.076-0.075,0.189-0.189c0.573-0.573,0.573-1.503,0-2.076c-0.114-0.113-0.189-0.189-0.189-0.189h-3.683l-1.841,2.453
			c-0.339,0-0.634,0-0.852,0c-0.286,0-0.56,0.113-0.762,0.315c-0.659,0.658-2.18,2.178-3.097,3.094
			c-0.169-0.139-0.377-0.234-0.613-0.234c-0.539,0-0.977,0.437-0.977,0.976s0.438,0.976,0.977,0.976
			c0.108,0,0.206-0.029,0.303-0.061c1.611,3.151,4.847,5.188,8.444,5.188c0.012,0,0.024,0,0.036,0c3.623,0,6.789-2.442,7.707-5.943
			c0,0-2.423-2.873-3.313-3.928C641.221-6.558,640.92-6.698,640.602-6.698z"/>
		<path style="fill-rule:evenodd;clip-rule:evenodd;fill:#00C5C1;" d="M647.298-4.78C647.298-4.78,647.298-4.781,647.298-4.78
			l-2.559,2.393l2.559,2.394v0c0.675-0.613,1.06-1.482,1.06-2.394S647.973-4.167,647.298-4.78z"/>
	</g>
	<g>
		<path style="fill-rule:evenodd;clip-rule:evenodd;fill:#00BCBF;" d="M232.767,19.212c-0.358,0-0.889,0-1.506,0
			c0,0,0.076-0.075,0.189-0.189c0.574-0.573,0.574-1.503,0-2.076c-0.114-0.113-0.189-0.189-0.189-0.189h-3.683l-1.841,2.453
			c-0.339,0-0.634,0-0.852,0c-0.286,0-0.559,0.113-0.762,0.315c-0.659,0.658-2.18,2.178-3.097,3.094
			c-0.169-0.139-0.377-0.234-0.613-0.234c-0.539,0-0.976,0.437-0.976,0.976c0,0.538,0.438,0.976,0.976,0.976
			c0.108,0,0.206-0.029,0.303-0.061c1.611,3.151,4.847,5.188,8.444,5.188c0.012,0,0.024,0,0.036,0c3.623,0,6.789-2.442,7.707-5.943
			c0,0-2.423-2.873-3.313-3.928C233.385,19.352,233.084,19.212,232.767,19.212z"/>
		<path style="fill-rule:evenodd;clip-rule:evenodd;fill:#00BCBF;" d="M239.462,21.129
			C239.462,21.129,239.462,21.129,239.462,21.129l-2.559,2.393l2.559,2.394v0c0.675-0.613,1.06-1.482,1.06-2.394
			C240.522,22.611,240.137,21.742,239.462,21.129z"/>
	</g>
	<g>
		<path style="fill-rule:evenodd;clip-rule:evenodd;fill:#BCD200;" d="M988.831,36.994c0-1.473-1.196-2.667-2.669-2.667
			c-1.473,0-2.669,1.194-2.669,2.667c0,1.331,0,2.662,0,2.662h5.338C988.831,39.655,988.831,38.325,988.831,36.994z"/>
		<path style="fill-rule:evenodd;clip-rule:evenodd;fill:#BCD200;" d="M983.505,36.989c0-1.473-1.196-2.667-2.669-2.667
			c-1.473,0-2.669,1.194-2.669,2.667c0,1.331,0,2.662,0,2.662h5.338C983.505,39.651,983.505,38.32,983.505,36.989z"/>
		<path style="fill-rule:evenodd;clip-rule:evenodd;fill:#BCD200;" d="M994.157,36.994c0-1.473-1.196-2.667-2.669-2.667
			c-1.473,0-2.669,1.194-2.669,2.667c0,1.331,0,2.662,0,2.662h5.338C994.157,39.655,994.157,38.325,994.157,36.994z"/>
		<path style="fill-rule:evenodd;clip-rule:evenodd;fill:#BCD200;" d="M999.483,36.994c0-1.473-1.196-2.667-2.669-2.667
			c-1.473,0-2.669,1.194-2.669,2.667c0,1.331,0,2.662,0,2.662h5.338C999.483,39.655,999.483,38.325,999.483,36.994z"/>
		<path style="fill-rule:evenodd;clip-rule:evenodd;fill:#BCD200;" d="M1010.135,36.994c0-1.473-1.196-2.667-2.669-2.667
			c-1.473,0-2.669,1.194-2.669,2.667c0,1.331,0,2.662,0,2.662h5.338C1010.135,39.655,1010.135,38.325,1010.135,36.994z"/>
		<path style="fill-rule:evenodd;clip-rule:evenodd;fill:#BCD200;" d="M1004.809,36.989c0-1.473-1.196-2.667-2.669-2.667
			c-1.473,0-2.669,1.194-2.669,2.667c0,1.331,0,2.662,0,2.662h5.338C1004.809,39.651,1004.809,38.32,1004.809,36.989z"/>
		<path style="fill-rule:evenodd;clip-rule:evenodd;fill:#BCD200;" d="M1015.461,36.994c0-1.473-1.196-2.667-2.669-2.667
			c-1.473,0-2.669,1.194-2.669,2.667c0,1.331,0,2.662,0,2.662h5.338C1015.461,39.655,1015.461,38.325,1015.461,36.994z"/>
		<g>
			<polygon style="fill-rule:evenodd;clip-rule:evenodd;fill:#00C8C5;" points="978.202,88.409 996.814,88.409 996.838,73.278 
				1014.613,73.278 1014.613,41.097 978.202,41.097 			"/>
		</g>
		<g>
			<defs>
				<polygon id="SVGID_00000068677297563752647170000010606476510146774912_" points="978.202,88.409 996.814,88.409 
					996.838,73.278 1014.613,73.278 1014.613,41.097 978.202,41.097 				"/>
			</defs>
			<clipPath id="SVGID_00000044893335564330082870000002441972853305734820_">
				<use xlink:href="#SVGID_00000068677297563752647170000010606476510146774912_"  style="overflow:visible;"/>
			</clipPath>
			
				<polygon style="opacity:0.25;clip-path:url(#SVGID_00000044893335564330082870000002441972853305734820_);fill-rule:evenodd;clip-rule:evenodd;fill:#ACF2FF;" points="
				990.704,37.332 1001.35,37.396 977.817,89.671 975.556,71.202 			"/>
			
				<polygon style="opacity:0.25;clip-path:url(#SVGID_00000044893335564330082870000002441972853305734820_);fill-rule:evenodd;clip-rule:evenodd;fill:#ACF2FF;" points="
				1010.663,37.332 1015.831,37.396 992.562,90.765 986.868,90.536 			"/>
		</g>
		
			<rect x="996.408" y="61.422" style="opacity:0.5;fill-rule:evenodd;clip-rule:evenodd;fill:#DBD0DB;" width="17.358" height="3.387"/>
		
			<rect x="979.862" y="74.972" style="opacity:0.5;fill-rule:evenodd;clip-rule:evenodd;fill:#DBD0DB;" width="16.976" height="3.387"/>
		
			<rect x="979.862" y="46.179" style="opacity:0.5;fill-rule:evenodd;clip-rule:evenodd;fill:#DBD0DB;" width="33.903" height="3.387"/>
		<rect x="978.167" y="37.71" style="fill-rule:evenodd;clip-rule:evenodd;fill:#B26514;" width="37.294" height="3.387"/>
		<rect x="978.215" y="41.097" style="fill-rule:evenodd;clip-rule:evenodd;fill:#975219;" width="37.246" height="5.081"/>
		<rect x="978.167" y="86.289" style="fill-rule:evenodd;clip-rule:evenodd;fill:#B26514;" width="20.342" height="2.12"/>
		<rect x="1012.071" y="41.097" style="fill-rule:evenodd;clip-rule:evenodd;fill:#975219;" width="3.39" height="60.795"/>
		<rect x="995.119" y="41.097" style="fill-rule:evenodd;clip-rule:evenodd;fill:#975219;" width="3.39" height="47.311"/>
		<rect x="995.119" y="46.179" style="fill-rule:evenodd;clip-rule:evenodd;fill:#793300;" width="3.39" height="38.956"/>
		<rect x="978.167" y="41.097" style="fill-rule:evenodd;clip-rule:evenodd;fill:#975219;" width="3.39" height="47.311"/>
		<rect x="995.119" y="58.035" style="fill-rule:evenodd;clip-rule:evenodd;fill:#975219;" width="19.759" height="3.387"/>
		<rect x="978.75" y="71.585" style="fill-rule:evenodd;clip-rule:evenodd;fill:#975219;" width="36.128" height="3.387"/>
		<g>
			<path style="fill-rule:evenodd;clip-rule:evenodd;fill:#00B465;" d="M988.358,86.582c0-1.544-1.253-2.796-2.798-2.796
				c-1.544,0-2.798,1.251-2.798,2.796c0,1.396,0,2.791,0,2.791h5.596C988.358,89.372,988.358,87.978,988.358,86.582z"/>
			<path style="fill-rule:evenodd;clip-rule:evenodd;fill:#00B465;" d="M982.801,86.577c0-1.544-1.253-2.796-2.798-2.796
				c-1.544,0-2.798,1.252-2.798,2.796c0,1.396,0,2.791,0,2.791h5.596C982.801,89.368,982.801,87.973,982.801,86.577z"/>
			<path style="fill-rule:evenodd;clip-rule:evenodd;fill:#00B465;" d="M993.915,86.582c0-1.544-1.253-2.796-2.798-2.796
				c-1.544,0-2.798,1.251-2.798,2.796c0,1.396,0,2.791,0,2.791h5.596C993.915,89.372,993.915,87.978,993.915,86.582z"/>
			<path style="fill-rule:evenodd;clip-rule:evenodd;fill:#00B465;" d="M999.471,86.582c0-1.627-1.392-2.93-3.051-2.784
				c-1.469,0.129-2.545,1.456-2.545,2.93v2.617c0,0.016,0.013,0.028,0.028,0.028h5.539c0.016,0,0.028-0.013,0.028-0.028V86.582z"/>
			<path style="fill-rule:evenodd;clip-rule:evenodd;fill:#3EE1DE;" d="M1016.564,101.129c0-1.627-1.393-2.93-3.051-2.784
				c-1.469,0.129-2.545,1.456-2.545,2.93v2.617c0,0.016,0.013,0.028,0.028,0.028h5.539c0.016,0,0.028-0.013,0.028-0.028V101.129z"/>
		</g>
	</g>
	<g>
		<path style="fill:#BD7F46;" d="M939.243,27.21h-10.807l-2.929,26.724c-0.162,1.481,0.999,2.775,2.49,2.775h11.738
			c1.493,0,2.655-1.297,2.489-2.78L939.243,27.21z"/>
		<g>
			<defs>
				<path id="SVGID_00000033342128238532871070000017993321950806464923_" d="M939.243,27.21h-10.807l-2.929,26.724
					c-0.162,1.481,0.999,2.775,2.49,2.775h11.738c1.493,0,2.655-1.297,2.489-2.78L939.243,27.21z"/>
			</defs>
			<clipPath id="SVGID_00000064355697821247731510000015353621253213495686_">
				<use xlink:href="#SVGID_00000033342128238532871070000017993321950806464923_"  style="overflow:visible;"/>
			</clipPath>
			
				<path style="opacity:0.25;clip-path:url(#SVGID_00000064355697821247731510000015353621253213495686_);fill-rule:evenodd;clip-rule:evenodd;fill:#6A6862;" d="
				M933.875,46.528l-8.834-6.433c-4.88-3.553-5.431-10.62-1.162-14.886l3.09-3.088l13.811,0l3.09,3.088
				c4.269,4.266,3.718,11.333-1.162,14.886L933.875,46.528z"/>
		</g>
		<path style="fill-rule:evenodd;clip-rule:evenodd;fill:#00A600;" d="M933.866,26.361c0,3.896,1.549,7.633,4.306,10.389
			c2.758,2.756,6.498,4.303,10.399,4.303c7.387,0,14.791,0,14.791,0s0-4.546,0-9.713c0-3.898-1.549-7.635-4.306-10.391
			c-2.758-2.754-6.498-4.303-10.399-4.303c-7.387,0-14.791,0-14.791,0S933.866,21.193,933.866,26.361z"/>
		<g>
			<defs>
				<path id="SVGID_00000003071021635822385860000000848821753135394191_" d="M933.866,26.361c0,3.896,1.549,7.633,4.306,10.389
					c2.758,2.756,6.498,4.303,10.399,4.303c7.387,0,14.791,0,14.791,0s0-4.546,0-9.713c0-3.898-1.549-7.635-4.306-10.391
					c-2.758-2.754-6.498-4.303-10.399-4.303c-7.387,0-14.791,0-14.791,0S933.866,21.193,933.866,26.361z"/>
			</defs>
			<clipPath id="SVGID_00000005254956304493794220000003121272163935457194_">
				<use xlink:href="#SVGID_00000003071021635822385860000000848821753135394191_"  style="overflow:visible;"/>
			</clipPath>
			
				<polygon style="clip-path:url(#SVGID_00000005254956304493794220000003121272163935457194_);fill-rule:evenodd;clip-rule:evenodd;fill:#009238;" points="
				933.866,16.647 966.782,44.781 933.866,44.781 			"/>
			
				<rect x="946.772" y="9.644" transform="matrix(0.6325 -0.7745 0.7745 0.6325 326.359 745.2572)" style="clip-path:url(#SVGID_00000005254956304493794220000003121272163935457194_);fill-rule:evenodd;clip-rule:evenodd;fill:#00B500;" width="3.685" height="38.063"/>
			
				<path style="clip-path:url(#SVGID_00000005254956304493794220000003121272163935457194_);fill-rule:evenodd;clip-rule:evenodd;fill:#007B62;" d="
				M951.073,42.644h-3.687c0,0,0-3.824,0-6.196c0-1.017,0.826-1.842,1.844-1.842s1.844,0.825,1.844,1.842
				C951.073,38.82,951.073,42.644,951.073,42.644z"/>
			
				<path style="clip-path:url(#SVGID_00000005254956304493794220000003121272163935457194_);fill-rule:evenodd;clip-rule:evenodd;fill:#007B62;" d="
				M943.698,42.917h-3.687c0,0,0-8.412,0-12.227c0-1.017,0.824-1.84,1.842-1.84c0.002,0,0.002,0,0.004,0
				c1.018,0,1.842,0.823,1.842,1.84C943.698,34.504,943.698,42.917,943.698,42.917z"/>
			
				<path style="clip-path:url(#SVGID_00000005254956304493794220000003121272163935457194_);fill-rule:evenodd;clip-rule:evenodd;fill:#009238;" d="
				M963.363,30.727v-3.489c0,0-3.447,0-5.628,0c-0.463,0-0.907,0.184-1.235,0.512c-0.326,0.326-0.511,0.77-0.511,1.232l0,0
				c0,0.464,0.184,0.906,0.511,1.234c0.328,0.328,0.772,0.51,1.235,0.51C959.915,30.727,963.363,30.727,963.363,30.727z"/>
			
				<path style="clip-path:url(#SVGID_00000005254956304493794220000003121272163935457194_);fill-rule:evenodd;clip-rule:evenodd;fill:#009238;" d="
				M963.363,23.554V19.87c0,0-7.498,0-11.063,0c-1.018,0-1.842,0.823-1.842,1.84c0,0.002,0,0.004,0,0.004
				c0,1.017,0.824,1.84,1.842,1.84C955.865,23.554,963.363,23.554,963.363,23.554z"/>
		</g>
		<path style="fill-rule:evenodd;clip-rule:evenodd;fill:#00A600;" d="M933.866,26.361c0,3.896-1.549,7.633-4.306,10.389
			c-2.758,2.756-6.498,4.303-10.399,4.303c-7.387,0-14.791,0-14.791,0s0-4.546,0-9.713c0-3.898,1.549-7.635,4.306-10.391
			c2.758-2.754,6.498-4.303,10.399-4.303c7.387,0,14.791,0,14.791,0S933.866,21.193,933.866,26.361z"/>
		<g>
			<defs>
				<path id="SVGID_00000074436369375463263470000007203167763578914703_" d="M933.866,26.361c0,3.896-1.549,7.633-4.306,10.389
					c-2.758,2.756-6.498,4.303-10.399,4.303c-7.387,0-14.791,0-14.791,0s0-4.546,0-9.713c0-3.898,1.549-7.635,4.306-10.391
					c2.758-2.754,6.498-4.303,10.399-4.303c7.387,0,14.791,0,14.791,0S933.866,21.193,933.866,26.361z"/>
			</defs>
			<clipPath id="SVGID_00000116939709447951549470000012413159735879352212_">
				<use xlink:href="#SVGID_00000074436369375463263470000007203167763578914703_"  style="overflow:visible;"/>
			</clipPath>
			
				<polygon style="clip-path:url(#SVGID_00000116939709447951549470000012413159735879352212_);fill-rule:evenodd;clip-rule:evenodd;fill:#009238;" points="
				933.866,16.647 900.95,44.781 933.866,44.781 			"/>
			
				<rect x="900.087" y="26.833" transform="matrix(0.775 -0.632 0.632 0.775 188.7223 587.3542)" style="clip-path:url(#SVGID_00000116939709447951549470000012413159735879352212_);fill-rule:evenodd;clip-rule:evenodd;fill:#00B500;" width="38.063" height="3.685"/>
			
				<path style="clip-path:url(#SVGID_00000116939709447951549470000012413159735879352212_);fill-rule:evenodd;clip-rule:evenodd;fill:#007B62;" d="
				M916.66,42.644h3.687c0,0,0-3.824,0-6.196c0-1.017-0.826-1.842-1.844-1.842s-1.844,0.825-1.844,1.842
				C916.66,38.82,916.66,42.644,916.66,42.644z"/>
			
				<path style="clip-path:url(#SVGID_00000116939709447951549470000012413159735879352212_);fill-rule:evenodd;clip-rule:evenodd;fill:#007B62;" d="
				M924.034,42.917h3.687c0,0,0-8.41,0-12.225c0-0.488-0.194-0.956-0.54-1.302c-0.345-0.344-0.815-0.54-1.303-0.54
				s-0.959,0.195-1.303,0.54c-0.347,0.346-0.54,0.814-0.54,1.302C924.034,34.506,924.034,42.917,924.034,42.917z"/>
			
				<path style="clip-path:url(#SVGID_00000116939709447951549470000012413159735879352212_);fill-rule:evenodd;clip-rule:evenodd;fill:#009238;" d="
				M904.37,30.922v-3.684c0,0,3.348,0,5.532,0c0.489,0,0.957,0.193,1.302,0.54c0.347,0.344,0.54,0.812,0.54,1.3
				c0,0.002,0,0.004,0,0.004c0,0.488-0.194,0.956-0.54,1.302c-0.345,0.344-0.813,0.538-1.302,0.538
				C907.718,30.922,904.37,30.922,904.37,30.922z"/>
			
				<path style="clip-path:url(#SVGID_00000116939709447951549470000012413159735879352212_);fill-rule:evenodd;clip-rule:evenodd;fill:#009238;" d="
				M904.37,23.554V19.87c0,0,7.496,0,11.061,0c0.489,0,0.959,0.195,1.303,0.54c0.347,0.346,0.54,0.814,0.54,1.302
				s-0.194,0.958-0.54,1.302c-0.345,0.346-0.815,0.54-1.303,0.54C911.866,23.554,904.37,23.554,904.37,23.554z"/>
		</g>
		<g>
			<defs>
				<path id="SVGID_00000095302088212706306790000009756297200783871893_" d="M959.056,20.949
					c-2.758-2.754-6.498-4.303-10.399-4.303c-7.387,0-14.791,0-14.791,0s-7.403,0-14.79,0c-3.901,0-7.642,1.549-10.4,4.303
					c-2.757,2.756-4.306,6.493-4.306,10.391c0,5.167,0,9.713,0,9.713s7.404,0,14.791,0c3.901,0,7.641-1.547,10.399-4.303
					c2.758-2.756,4.306-6.493,4.306-10.389c0,3.896,1.549,7.633,4.306,10.389c2.758,2.756,6.499,4.303,10.4,4.303
					c7.387,0,14.79,0,14.79,0s0-4.546,0-9.713C963.362,27.442,961.814,23.705,959.056,20.949z"/>
			</defs>
			<clipPath id="SVGID_00000175308466766619759100000018121205566186623399_">
				<use xlink:href="#SVGID_00000095302088212706306790000009756297200783871893_"  style="overflow:visible;"/>
			</clipPath>
		</g>
		<path style="fill-rule:evenodd;clip-rule:evenodd;fill:#00B500;" d="M933.875,41.053l-8.834-6.433
			c-4.88-3.553-5.431-10.62-1.162-14.886l3.09-3.088l13.811,0l3.09,3.088c4.269,4.266,3.718,11.333-1.162,14.886L933.875,41.053z"/>
		<g>
			<defs>
				<path id="SVGID_00000083799025318863414040000013023890100263608194_" d="M933.875,41.053l-8.834-6.433
					c-4.88-3.553-5.431-10.62-1.162-14.886l3.09-3.088l13.811,0l3.09,3.088c4.269,4.266,3.718,11.333-1.162,14.886L933.875,41.053z"
					/>
			</defs>
			<clipPath id="SVGID_00000003065419671855315460000003196585050333312670_">
				<use xlink:href="#SVGID_00000083799025318863414040000013023890100263608194_"  style="overflow:visible;"/>
			</clipPath>
			<g style="clip-path:url(#SVGID_00000003065419671855315460000003196585050333312670_);">
				<rect x="933.875" y="15.528" style="fill:#009238;" width="13.938" height="26.431"/>
			</g>
			<g style="clip-path:url(#SVGID_00000003065419671855315460000003196585050333312670_);">
				<rect x="932.024" y="13.986" style="fill:#26C21A;" width="3.687" height="32.128"/>
			</g>
			<g style="clip-path:url(#SVGID_00000003065419671855315460000003196585050333312670_);">
				<g>
					<path style="fill:#009238;" d="M920.795,30.104c-0.6,0-1.191-0.293-1.543-0.831c-0.559-0.851-0.322-1.993,0.531-2.551
						l7.494-4.912c0.852-0.561,1.995-0.319,2.552,0.529c0.559,0.851,0.322,1.993-0.53,2.551l-7.494,4.912
						C921.491,30.007,921.14,30.104,920.795,30.104z"/>
				</g>
				<g>
					<path style="fill:#007B62;" d="M946.938,30.104c-0.346,0-0.696-0.097-1.008-0.302l-7.492-4.912
						c-0.852-0.558-1.09-1.699-0.53-2.551c0.557-0.848,1.692-1.091,2.552-0.529l7.492,4.912c0.852,0.558,1.09,1.699,0.531,2.551
						C948.128,29.812,947.538,30.104,946.938,30.104z"/>
				</g>
				<g>
					<path style="fill:#009238;" d="M920.795,38.503c-0.6,0-1.191-0.293-1.543-0.831c-0.559-0.851-0.322-1.993,0.531-2.551
						l7.494-4.912c0.852-0.561,1.995-0.319,2.552,0.529c0.559,0.851,0.322,1.993-0.53,2.551l-7.494,4.912
						C921.491,38.406,921.14,38.503,920.795,38.503z"/>
				</g>
				<g>
					<path style="fill:#007B62;" d="M946.938,38.503c-0.346,0-0.696-0.097-1.008-0.302l-7.492-4.912
						c-0.852-0.558-1.09-1.699-0.53-2.551c0.557-0.848,1.692-1.091,2.552-0.529l7.492,4.912c0.852,0.558,1.09,1.699,0.531,2.551
						C948.128,38.211,947.538,38.503,946.938,38.503z"/>
				</g>
			</g>
		</g>
		<path style="fill-rule:evenodd;clip-rule:evenodd;fill:#00B465;" d="M943.817,50.262c-1.981,0-3.602,1.62-3.602,3.599
			c0-1.98-1.621-3.599-3.602-3.599s-3.602,1.62-3.602,3.599c0-1.98-1.621-3.599-3.602-3.599c-1.981,0-3.602,1.62-3.602,3.599
			c0-1.98-1.621-3.599-3.602-3.599c-1.981,0-3.602,1.62-3.602,3.599l3.256,2.847l8.377,0.897l12.006-0.593l5.179-3.152
			C947.419,51.882,945.798,50.262,943.817,50.262z"/>
	</g>
	<g>
		<path style="fill:#BD7F46;" d="M956.106,74.409h-10.807l-2.929,26.724c-0.162,1.481,0.999,2.775,2.49,2.775h11.738
			c1.493,0,2.655-1.297,2.489-2.78L956.106,74.409z"/>
		<g>
			<defs>
				<path id="SVGID_00000090999243275851635550000008192475405906747283_" d="M956.106,74.409h-10.807l-2.929,26.724
					c-0.162,1.481,0.999,2.775,2.49,2.775h11.738c1.493,0,2.655-1.297,2.489-2.78L956.106,74.409z"/>
			</defs>
			<clipPath id="SVGID_00000000206643039408822060000011341339035220010164_">
				<use xlink:href="#SVGID_00000090999243275851635550000008192475405906747283_"  style="overflow:visible;"/>
			</clipPath>
			
				<path style="opacity:0.25;clip-path:url(#SVGID_00000000206643039408822060000011341339035220010164_);fill-rule:evenodd;clip-rule:evenodd;fill:#6A6862;" d="
				M950.737,93.727l-8.834-6.433c-4.88-3.553-5.431-10.62-1.162-14.886l3.09-3.088l13.811,0l3.09,3.088
				c4.269,4.266,3.718,11.333-1.162,14.886L950.737,93.727z"/>
		</g>
		<path style="fill-rule:evenodd;clip-rule:evenodd;fill:#00A600;" d="M950.729,73.56c0,3.896,1.549,7.633,4.306,10.389
			c2.758,2.756,6.498,4.303,10.399,4.303c7.387,0,14.791,0,14.791,0s0-4.546,0-9.713c0-3.898-1.549-7.635-4.306-10.391
			c-2.758-2.754-6.498-4.303-10.399-4.303c-7.387,0-14.791,0-14.791,0S950.729,68.392,950.729,73.56z"/>
		<g>
			<defs>
				<path id="SVGID_00000115499461979576334030000001592897640259880093_" d="M950.729,73.56c0,3.896,1.549,7.633,4.306,10.389
					c2.758,2.756,6.498,4.303,10.399,4.303c7.387,0,14.791,0,14.791,0s0-4.546,0-9.713c0-3.898-1.549-7.635-4.306-10.391
					c-2.758-2.754-6.498-4.303-10.399-4.303c-7.387,0-14.791,0-14.791,0S950.729,68.392,950.729,73.56z"/>
			</defs>
			<clipPath id="SVGID_00000114061616563942818590000009778270322505394106_">
				<use xlink:href="#SVGID_00000115499461979576334030000001592897640259880093_"  style="overflow:visible;"/>
			</clipPath>
			
				<polygon style="clip-path:url(#SVGID_00000114061616563942818590000009778270322505394106_);fill-rule:evenodd;clip-rule:evenodd;fill:#009238;" points="
				950.729,63.846 983.645,91.98 950.729,91.98 			"/>
			
				<rect x="963.635" y="56.843" transform="matrix(0.6325 -0.7745 0.7745 0.6325 295.9984 775.6607)" style="clip-path:url(#SVGID_00000114061616563942818590000009778270322505394106_);fill-rule:evenodd;clip-rule:evenodd;fill:#00B500;" width="3.685" height="38.063"/>
			
				<path style="clip-path:url(#SVGID_00000114061616563942818590000009778270322505394106_);fill-rule:evenodd;clip-rule:evenodd;fill:#007B62;" d="
				M967.935,89.843h-3.687c0,0,0-3.824,0-6.196c0-1.017,0.826-1.842,1.844-1.842s1.844,0.825,1.844,1.842
				C967.935,86.019,967.935,89.843,967.935,89.843z"/>
			
				<path style="clip-path:url(#SVGID_00000114061616563942818590000009778270322505394106_);fill-rule:evenodd;clip-rule:evenodd;fill:#007B62;" d="
				M960.561,90.116h-3.687c0,0,0-8.412,0-12.227c0-1.017,0.824-1.84,1.842-1.84c0.002,0,0.002,0,0.004,0
				c1.018,0,1.842,0.823,1.842,1.84C960.561,81.704,960.561,90.116,960.561,90.116z"/>
			
				<path style="clip-path:url(#SVGID_00000114061616563942818590000009778270322505394106_);fill-rule:evenodd;clip-rule:evenodd;fill:#009238;" d="
				M980.225,77.926v-3.489c0,0-3.447,0-5.628,0c-0.463,0-0.907,0.184-1.235,0.512c-0.326,0.326-0.511,0.77-0.511,1.232l0,0
				c0,0.464,0.184,0.906,0.511,1.234c0.328,0.328,0.772,0.51,1.235,0.51C976.778,77.926,980.225,77.926,980.225,77.926z"/>
			
				<path style="clip-path:url(#SVGID_00000114061616563942818590000009778270322505394106_);fill-rule:evenodd;clip-rule:evenodd;fill:#009238;" d="
				M980.225,70.753v-3.684c0,0-7.498,0-11.063,0c-1.018,0-1.842,0.823-1.842,1.84c0,0.002,0,0.004,0,0.004
				c0,1.017,0.824,1.84,1.842,1.84C972.727,70.753,980.225,70.753,980.225,70.753z"/>
		</g>
		<path style="fill-rule:evenodd;clip-rule:evenodd;fill:#00A600;" d="M950.729,73.56c0,3.896-1.549,7.633-4.306,10.389
			s-6.498,4.303-10.399,4.303c-7.387,0-14.791,0-14.791,0s0-4.546,0-9.713c0-3.898,1.549-7.635,4.306-10.391
			c2.758-2.754,6.498-4.303,10.399-4.303c7.387,0,14.791,0,14.791,0S950.729,68.392,950.729,73.56z"/>
		<g>
			<defs>
				<path id="SVGID_00000041992469187859963880000012195615128918329530_" d="M950.729,73.56c0,3.896-1.549,7.633-4.306,10.389
					s-6.498,4.303-10.399,4.303c-7.387,0-14.791,0-14.791,0s0-4.546,0-9.713c0-3.898,1.549-7.635,4.306-10.391
					c2.758-2.754,6.498-4.303,10.399-4.303c7.387,0,14.791,0,14.791,0S950.729,68.392,950.729,73.56z"/>
			</defs>
			<clipPath id="SVGID_00000070111533271106581320000007718192735108304523_">
				<use xlink:href="#SVGID_00000041992469187859963880000012195615128918329530_"  style="overflow:visible;"/>
			</clipPath>
			
				<polygon style="clip-path:url(#SVGID_00000070111533271106581320000007718192735108304523_);fill-rule:evenodd;clip-rule:evenodd;fill:#009238;" points="
				950.729,63.846 917.813,91.98 950.729,91.98 			"/>
			
				<rect x="916.949" y="74.032" transform="matrix(0.775 -0.632 0.632 0.775 162.6863 608.6336)" style="clip-path:url(#SVGID_00000070111533271106581320000007718192735108304523_);fill-rule:evenodd;clip-rule:evenodd;fill:#00B500;" width="38.063" height="3.685"/>
			
				<path style="clip-path:url(#SVGID_00000070111533271106581320000007718192735108304523_);fill-rule:evenodd;clip-rule:evenodd;fill:#007B62;" d="
				M933.522,89.843h3.687c0,0,0-3.824,0-6.196c0-1.017-0.826-1.842-1.844-1.842s-1.844,0.825-1.844,1.842
				C933.522,86.019,933.522,89.843,933.522,89.843z"/>
			
				<path style="clip-path:url(#SVGID_00000070111533271106581320000007718192735108304523_);fill-rule:evenodd;clip-rule:evenodd;fill:#007B62;" d="
				M940.897,90.116h3.687c0,0,0-8.41,0-12.225c0-0.488-0.194-0.956-0.54-1.302c-0.345-0.344-0.815-0.54-1.303-0.54
				s-0.959,0.195-1.303,0.54c-0.347,0.346-0.54,0.814-0.54,1.302C940.897,81.705,940.897,90.116,940.897,90.116z"/>
			
				<path style="clip-path:url(#SVGID_00000070111533271106581320000007718192735108304523_);fill-rule:evenodd;clip-rule:evenodd;fill:#009238;" d="
				M921.232,78.121v-3.684c0,0,3.348,0,5.532,0c0.489,0,0.957,0.193,1.302,0.54c0.347,0.344,0.54,0.812,0.54,1.3
				c0,0.002,0,0.004,0,0.004c0,0.488-0.194,0.956-0.54,1.302c-0.345,0.344-0.813,0.538-1.302,0.538
				C924.58,78.121,921.232,78.121,921.232,78.121z"/>
			
				<path style="clip-path:url(#SVGID_00000070111533271106581320000007718192735108304523_);fill-rule:evenodd;clip-rule:evenodd;fill:#009238;" d="
				M921.232,70.753v-3.684c0,0,7.496,0,11.061,0c0.489,0,0.959,0.195,1.303,0.54c0.347,0.346,0.54,0.814,0.54,1.302
				s-0.194,0.958-0.54,1.302c-0.345,0.346-0.815,0.54-1.303,0.54C928.728,70.753,921.232,70.753,921.232,70.753z"/>
		</g>
		<g>
			<defs>
				<path id="SVGID_00000117634309603207783870000015767262798036783035_" d="M975.918,68.149
					c-2.758-2.754-6.498-4.303-10.399-4.303c-7.387,0-14.791,0-14.791,0s-7.403,0-14.79,0c-3.901,0-7.642,1.549-10.4,4.303
					c-2.757,2.756-4.306,6.493-4.306,10.391c0,5.167,0,9.713,0,9.713s7.404,0,14.791,0c3.901,0,7.641-1.547,10.399-4.303
					c2.758-2.756,4.306-6.493,4.306-10.389c0,3.896,1.549,7.633,4.306,10.389c2.758,2.756,6.499,4.303,10.4,4.303
					c7.387,0,14.79,0,14.79,0s0-4.546,0-9.713C980.225,74.642,978.676,70.904,975.918,68.149z"/>
			</defs>
			<clipPath id="SVGID_00000183218353999920910280000003865418513720482190_">
				<use xlink:href="#SVGID_00000117634309603207783870000015767262798036783035_"  style="overflow:visible;"/>
			</clipPath>
		</g>
		<path style="fill-rule:evenodd;clip-rule:evenodd;fill:#00B500;" d="M950.737,88.252l-8.834-6.433
			c-4.88-3.553-5.431-10.62-1.162-14.886l3.09-3.088l13.811,0l3.09,3.088c4.269,4.266,3.718,11.333-1.162,14.886L950.737,88.252z"/>
		<g>
			<defs>
				<path id="SVGID_00000182488696595083854410000014104739491756750743_" d="M950.737,88.252l-8.834-6.433
					c-4.88-3.553-5.431-10.62-1.162-14.886l3.09-3.088l13.811,0l3.09,3.088c4.269,4.266,3.718,11.333-1.162,14.886L950.737,88.252z"
					/>
			</defs>
			<clipPath id="SVGID_00000060722894902608657540000002936536755119547566_">
				<use xlink:href="#SVGID_00000182488696595083854410000014104739491756750743_"  style="overflow:visible;"/>
			</clipPath>
			<g style="clip-path:url(#SVGID_00000060722894902608657540000002936536755119547566_);">
				<rect x="950.737" y="62.728" style="fill:#009238;" width="13.938" height="26.431"/>
			</g>
			<g style="clip-path:url(#SVGID_00000060722894902608657540000002936536755119547566_);">
				<rect x="948.886" y="61.185" style="fill:#26C21A;" width="3.687" height="32.128"/>
			</g>
			<g style="clip-path:url(#SVGID_00000060722894902608657540000002936536755119547566_);">
				<g>
					<path style="fill:#009238;" d="M937.657,77.303c-0.6,0-1.191-0.293-1.543-0.831c-0.559-0.851-0.322-1.993,0.531-2.551
						l7.494-4.912c0.852-0.561,1.995-0.319,2.552,0.529c0.559,0.851,0.322,1.993-0.53,2.551l-7.494,4.912
						C938.353,77.206,938.003,77.303,937.657,77.303z"/>
				</g>
				<g>
					<path style="fill:#007B62;" d="M963.8,77.303c-0.346,0-0.696-0.097-1.008-0.302l-7.492-4.912
						c-0.852-0.558-1.09-1.699-0.53-2.551c0.557-0.848,1.692-1.091,2.552-0.529l7.492,4.912c0.852,0.558,1.09,1.699,0.53,2.551
						C964.99,77.011,964.4,77.303,963.8,77.303z"/>
				</g>
				<g>
					<path style="fill:#009238;" d="M937.657,85.703c-0.6,0-1.191-0.293-1.543-0.831c-0.559-0.851-0.322-1.993,0.531-2.551
						l7.494-4.912c0.852-0.561,1.995-0.319,2.552,0.529c0.559,0.851,0.322,1.993-0.53,2.551l-7.494,4.912
						C938.353,85.606,938.003,85.703,937.657,85.703z"/>
				</g>
				<g>
					<path style="fill:#007B62;" d="M963.8,85.703c-0.346,0-0.696-0.097-1.008-0.302l-7.492-4.912
						c-0.852-0.558-1.09-1.699-0.53-2.551c0.557-0.848,1.692-1.091,2.552-0.529l7.492,4.912c0.852,0.558,1.09,1.699,0.53,2.551
						C964.99,85.41,964.4,85.703,963.8,85.703z"/>
				</g>
			</g>
		</g>
		<path style="fill-rule:evenodd;clip-rule:evenodd;fill:#00B465;" d="M960.679,97.462c-1.981,0-3.602,1.62-3.602,3.599
			c0-1.98-1.621-3.599-3.602-3.599s-3.602,1.62-3.602,3.599c0-1.98-1.621-3.599-3.602-3.599s-3.602,1.62-3.602,3.599
			c0-1.98-1.621-3.599-3.602-3.599c-1.981,0-3.602,1.62-3.602,3.599l3.256,2.847l8.377,0.897l12.006-0.593l5.179-3.152
			C964.282,99.081,962.661,97.462,960.679,97.462z"/>
	</g>
	<g>
		<g>
			<path style="fill:#F4E600;" d="M1014.187,40.348l-2.069-4.152c-0.179-0.359-0.033-0.795,0.327-0.974v0
				c0.359-0.179,0.796-0.033,0.974,0.326l2.069,4.152c0.179,0.359,0.033,0.795-0.327,0.974l0,0
				C1014.802,40.853,1014.366,40.707,1014.187,40.348z"/>
		</g>
		<g>
			<path style="fill:#F5B500;" d="M1015.009,39.645l-2.321-4.017c-0.201-0.347-0.082-0.791,0.266-0.992v0
				c0.348-0.201,0.792-0.082,0.993,0.266l2.321,4.017c0.201,0.347,0.082,0.791-0.266,0.992l0,0
				C1015.654,40.112,1015.21,39.993,1015.009,39.645z"/>
		</g>
		<g>
			<path style="fill:#F4E600;" d="M1016.135,38.898l-3.283-3.28c-0.284-0.284-0.284-0.743,0-1.027l0,0
				c0.284-0.284,0.744-0.284,1.028,0l3.283,3.28c0.284,0.284,0.284,0.743,0,1.027l0,0
				C1016.879,39.181,1016.419,39.181,1016.135,38.898z"/>
		</g>
		<g>
			<path style="fill:#F5B500;" d="M1017.249,38.163l-3.866-2.567c-0.334-0.222-0.425-0.673-0.203-1.007l0,0
				c0.222-0.334,0.673-0.425,1.008-0.203l3.866,2.567c0.334,0.222,0.425,0.673,0.203,1.007l0,0
				C1018.034,38.294,1017.583,38.385,1017.249,38.163z"/>
		</g>
		<g>
			<path style="fill:#AFAFAF;" d="M1011.497,37.433h-2.86c-0.295,0-0.533-0.238-0.533-0.532c0-0.294,0.238-0.532,0.533-0.532h2.86
				c0.295,0,0.533,0.238,0.533,0.532C1012.03,37.195,1011.791,37.433,1011.497,37.433z"/>
		</g>
		<g>
			<path style="fill:#AFAFAF;" d="M1010.244,37.433c-0.295,0-0.533-0.238-0.533-0.532v-1.252c0-0.294,0.238-0.532,0.533-0.532
				s0.533,0.238,0.533,0.532v1.252C1010.777,37.195,1010.538,37.433,1010.244,37.433z"/>
		</g>
		<g>
			<path style="fill:#007F93;" d="M1010.301,36.001L1010.301,36.001c-0.434,0-0.785-0.351-0.785-0.785l-0.527-2.859l2.51,0.432
				l-0.412,2.426C1011.086,35.65,1010.735,36.001,1010.301,36.001z"/>
		</g>
		<g>
			<path style="fill:#BFCCD2;" d="M1010.403,37.433h-2.86c-0.295,0-0.533-0.238-0.533-0.532c0-0.294,0.238-0.532,0.533-0.532h2.86
				c0.295,0,0.533,0.238,0.533,0.532C1010.936,37.195,1010.698,37.433,1010.403,37.433z"/>
		</g>
		<g>
			<path style="fill:#BFCCD2;" d="M1009.15,37.433c-0.295,0-0.533-0.238-0.533-0.532v-1.252c0-0.294,0.238-0.532,0.533-0.532
				s0.533,0.238,0.533,0.532v1.252C1009.683,37.195,1009.444,37.433,1009.15,37.433z"/>
		</g>
		<g>
			<path style="fill:#00B4D1;" d="M1009.207,36.001L1009.207,36.001c-0.434,0-0.785-0.351-0.785-0.785l-0.527-2.859l2.51,0.432
				l-0.412,2.426C1009.992,35.65,1009.641,36.001,1009.207,36.001z"/>
		</g>
		<g>
			<g>
				<path style="fill:#0095BA;" d="M1014.749,35.406l-4.091-7.614c-0.217-0.362-0.734-0.955-0.997-1.243
					c-0.496-0.544-2.093-2.139-3.778-2.775c-0.978-0.369-2.128-0.002-2.797,0.642c-0.462,0.444-0.834,1.245-0.655,1.966
					c0.18,0.723,1.38,1.293,2.1,1.487l0.025,0.007c0.534,0.144,0.907,0.634,0.871,1.181c-0.066,1.01,0.487,1.925,1.373,2.609
					c1.722,1.329,6.279,5.156,6.279,5.156c0.434,0.369,1.077,0.349,1.488-0.046C1014.939,36.418,1015.015,35.85,1014.749,35.406z"/>
			</g>
		</g>
		<g>
			<path style="fill:#D60040;" d="M1015.075,34.869l-3.947-1.421c-2.149-0.774-3.849-2.453-4.647-4.592v0
				c-0.661-1.772,1.261-3.397,2.901-2.453l2.137,1.23c1.608,0.926,2.832,2.397,3.449,4.146l0.835,2.368
				C1015.961,34.598,1015.525,35.031,1015.075,34.869z"/>
		</g>
		<g>
			<g>
				<circle style="fill:#FFFFFF;" cx="1004.233" cy="25.864" r="1.848"/>
				<path style="fill:#698098;" d="M1004.004,26.965l0.205,0.204c0.368,0.367,0.964,0.367,1.332,0l0,0l-0.918,0.918
					c-0.481,0.48-1.26,0.48-1.741,0L1004.004,26.965z"/>
				<path style="fill:#99A0C1;" d="M1002.926,25.888c-0.368-0.367-0.368-0.963,0-1.331l0,0c-0.111,0.111,0.019-0.019-0.434,0.433
					c-0.922,0.921-0.96,2.391-0.114,3.357c0.06,0.069,0.168,0.068,0.232,0.004l1.391-1.389L1002.926,25.888z"/>
				<g>
					<circle style="fill:#99A0C1;" cx="1003.826" cy="25.265" r="0.563"/>
					<circle style="fill:#2D2220;" cx="1003.826" cy="25.265" r="0.349"/>
				</g>
			</g>
			<g>
				<defs>
					<path id="SVGID_00000034072001689924584790000013516453714977219251_" d="M1005.54,24.557
						c-0.316-0.316-0.746-0.938-1.151-0.848c-0.564,0.126-1.058,0.442-1.464,0.848c-0.046,0.046-0.046,0.046,0,0
						c-0.111,0.111,0.019-0.019-0.434,0.433c-0.922,0.921-0.96,2.391-0.114,3.357c0.06,0.069,0.168,0.068,0.232,0.004l0.828-0.828
						c0.687,0.328,1.532,0.215,2.102-0.354C1006.262,26.448,1006.262,25.279,1005.54,24.557z"/>
				</defs>
				<clipPath id="SVGID_00000059273581983555690450000003020411695821079952_">
					<use xlink:href="#SVGID_00000034072001689924584790000013516453714977219251_"  style="overflow:visible;"/>
				</clipPath>
				<g style="clip-path:url(#SVGID_00000059273581983555690450000003020411695821079952_);">
					<path style="fill:#F4E600;" d="M1001.796,27.381l-0.856,0.06c-0.703,0.049-1.313-0.481-1.362-1.183l-0.06-0.855
						c-0.049-0.703,0.481-1.312,1.184-1.361l3.329-0.233c0,0-1.168,0.676-1.101,1.501l0.05,0.71
						C1003.03,26.722,1002.5,27.332,1001.796,27.381z"/>
				</g>
			</g>
		</g>
	</g>
</g>
<g id="aulas" style="display:none;">
	<g style="display:inline;">
		<rect x="368.174" style="fill-rule:evenodd;clip-rule:evenodd;fill:#FFFFFF;" width="33.652" height="145"/>
		<circle style="fill-rule:evenodd;clip-rule:evenodd;fill:#5654A2;" cx="385" cy="72.5" r="42.5"/>
	</g>
</g>
</svg>
