<?xml version="1.0" encoding="utf-8"?>
<!-- Generator: Adobe Illustrator 27.8.1, SVG Export Plug-In . SVG Version: 6.00 Build 0)  -->
<svg version="1.1" id="Layer_1" xmlns="http://www.w3.org/2000/svg" xmlns:xlink="http://www.w3.org/1999/xlink" x="0px" y="0px"
	 width="1500px" height="145px" viewBox="0 0 1500 145" style="enable-background:new 0 0 1500 145;" xml:space="preserve">
<g id="background">
	<rect x="-80.448" y="-1866.348" style="fill:#04D5D8;" width="1640.647" height="4034.435"/>
	<path style="fill:#4EEAE6;" d="M1086.327,1106.512c-49.706,0-90-40.294-90-90v-134.57c0-49.706,40.294-90,90-90h1.646
		c5.523,0,10-4.477,10-10V775c0-5.523-4.477-10-10-10H898.671c-5.523,0-10,4.477-10,10l0,0c0,114.599-92.901,207.5-207.5,207.5
		H580.273c-11.046,0-20,8.954-20,20v4.012c0,55.229-44.772,100-100,100H177.596c-55.228,0-100-44.771-100-100v-28.561
		c0-11.046-8.954-20-20-20H-8.858V-142.428h250.766c6.415,0,11.615-5.2,11.615-11.615l0,0c0-42.526,34.474-77,77-77h71.434
		c8.402,0,15.648-5.903,17.343-14.133c7.213-35.029,38.29-61.45,75.422-61.45h144.932c42.526,0,77,34.474,77,77v74.76
		c0,39.977,32.408,72.384,72.384,72.384h64.547c42.751,0,77.86,33.144,81.659,74.952C935.633-3.25,939.273,0,943.57,0h94.125
		c4.459,0,8.126-3.497,8.354-7.951c4.139-80.754,71-143.599,152.874-143.599h362.181V969.68h-269.837
		c-25.865,0-46.832,20.967-46.832,46.832l0,0c0,49.706-40.294,90-90,90H1086.327z"/>
	<g>
		<path style="fill:#FFED8B;" d="M1034.372,438.06L1034.372,438.06c0-51.28,41.571-92.851,92.85-92.851h57.665
			c32.387,0,58.642-26.255,58.642-58.642l0,0c0-32.387,26.255-58.642,58.642-58.642h218.932v-339.474h-322.181
			c-62.45,0-113.076,50.626-113.076,113.076l0,0c0,23.196-18.804,42-42,42H937.585c-23.196,0-42-18.804-42-42v-2.009
			c0-23.196-18.804-42-42-42H777.81c-55.867,0-101.156-45.289-101.156-101.156v-85.988c0-20.435-16.565-37-37-37H494.722
			c-20.435,0-37,16.565-37,37v1.583c0,20.435-16.565,37-37,37h-77.199c-27.614,0-50,22.386-50,50v1.615c0,20.435-16.565,37-37,37
			H-42.694V917.951h100.29c33.137,0,60,26.863,60,60v28.561c0,33.137,26.863,60,60,60h282.678c33.137,0,60-26.863,60-60v-4.011
			c0-33.137,26.863-60,60-60h100.898c92.508,0,167.5-74.992,167.5-167.5l0,0c0-27.614,22.386-50,50-50h189.302
			c27.614,0,50,22.386,50,50v6.942c0,27.614-22.386,50-50,50h-1.647c-27.614,0-50,22.386-50,50v134.57c0,27.614,22.386,50,50,50
			h68.108c27.614,0,50-22.386,50-50l0,0c0-47.956,38.876-86.832,86.832-86.832h229.837V601.642
			c0-39.064-31.668-70.732-70.732-70.732h-323.15C1075.943,530.911,1034.372,489.34,1034.372,438.06z"/>
		<g>
			<g>
				<path style="fill:#2EC624;" d="M1198.924-51.549c-29.313,0-53.076,23.763-53.076,53.076l0,0c0,56.333-45.667,102-102,102H690.26
					c-40.652,0-73.606-32.955-73.606-73.606v-210.547c0-14.359-11.641-26-26-26h-56.442c-10.394,0-19.895,6.146-23.89,15.742
					c-14.612,35.099-49.272,59.841-89.6,59.841h-46.653c-11.17,0-21.157,7.295-24.204,18.042
					c-11.534,40.685-49.013,70.574-93.342,70.574H-12.798l-11.374,905.641l115.314-0.491c49.895,14.55,86.454,60.7,86.454,115.229
					v0.695c0.001,13.259,10.754,24.004,24.012,23.997l236.679-0.131c11.698-0.007,21.708-8.443,23.64-19.98
					c9.508-56.77,58.875-100.032,118.346-100.032h100.898c59.37,0,107.5-48.129,107.5-107.5l0,0c0-60.751,49.249-110,110-110
					h189.003c21.384,0,38.798-17.186,39.08-38.568l0,0c0.246-18.686-12.768-34.942-31.062-38.758
					c-28.801-6.009-55.263-20.244-76.552-41.532c-28.869-28.87-44.769-67.254-44.769-108.082s15.899-79.212,44.769-108.081
					s67.254-44.769,108.082-44.769h28.622c14.589,0,27.327-10.069,30.48-24.313c11.76-53.123,59.237-92.972,115.846-92.972h312.76
					V-51.549H1198.924z"/>
				<g>
					
						<path style="fill:none;stroke:#2EC624;stroke-width:10;stroke-linecap:round;stroke-linejoin:round;stroke-dasharray:0,9.9759;" d="
						M1604.956-51.549h-406.032c-29.313,0-53.076,23.763-53.076,53.076l0,0c0,56.333-45.667,102-102,102H690.26
						c-40.652,0-73.606-32.955-73.606-73.606v-210.547c0-14.359-11.641-26-26-26h-56.442c-10.394,0-19.895,6.146-23.89,15.742
						c-14.612,35.099-49.272,59.841-89.6,59.841h-46.653c-11.17,0-21.157,7.295-24.204,18.042
						c-11.534,40.685-49.013,70.574-93.342,70.574H-7.81"/>
				</g>
			</g>
		</g>
	</g>
	<g>
		<path style="fill:#1BAF10;" d="M1676.181,20.112h-403.068c-28.933,0-52.388,23.455-52.388,52.388l0,0
			c0,28.933,23.455,52.388,52.388,52.388H1684"/>
		<g>
			
				<path style="fill:none;stroke:#1BAF10;stroke-width:10;stroke-linecap:round;stroke-linejoin:round;stroke-dasharray:0,9.9846;" d="
				M1666.196,20.112h-393.084c-28.933,0-52.388,23.455-52.388,52.388s23.455,52.388,52.388,52.388h405.895"/>
		</g>
	</g>
	<g>
		<path style="fill:#1BAF10;" d="M903.404,305.919v168.5c0,30.12-24.417,54.537-54.537,54.537h-80.08
			c-29.292,0-53.038,23.746-53.038,53.038v153.905c0,29.292-23.746,53.038-53.038,53.038H479.224
			c-37.785,0-68.416,30.631-68.416,68.416l0,0c0,37.785-30.631,68.416-68.416,68.416h-33.231c-37.785,0-68.416-30.631-68.416-68.416
			v-84.054c0-37.785-30.631-68.416-68.416-68.416H-5.553c-15.114,0-27.366-12.252-27.366-27.366V73.542
			c0-15.114,12.252-27.366,27.366-27.366h253.161c41.552,0,75.237,33.685,75.237,75.237l0,0c0,41.552,33.685,75.237,75.237,75.237
			h247.297c15.114,0,27.366,12.252,27.366,27.366l0,0c0,15.114,12.252,27.366,27.366,27.366h148.757
			C878.987,251.382,903.404,275.799,903.404,305.919z"/>
		
			<path style="fill:none;stroke:#1BAF10;stroke-width:10;stroke-linecap:round;stroke-linejoin:round;stroke-dasharray:0,10.001;" d="
			M903.404,305.919v168.5c0,30.12-24.417,54.537-54.537,54.537h-80.08c-29.292,0-53.038,23.746-53.038,53.038v153.905
			c0,29.292-23.746,53.038-53.038,53.038H479.224c-37.785,0-68.416,30.631-68.416,68.416l0,0c0,37.785-30.631,68.416-68.416,68.416
			h-33.231c-37.785,0-68.416-30.631-68.416-68.416v-84.054c0-37.785-30.631-68.416-68.416-68.416H-5.553
			c-15.114,0-27.366-12.252-27.366-27.366V73.542c0-15.114,12.252-27.366,27.366-27.366h253.161
			c41.552,0,75.237,33.685,75.237,75.237l0,0c0,41.552,33.685,75.236,75.237,75.236h247.297c15.114,0,27.366,12.252,27.366,27.366
			l0,0c0,15.114,12.252,27.366,27.366,27.366h148.757C878.987,251.382,903.404,275.799,903.404,305.919z"/>
	</g>
	<g>
		<g>
			<path style="fill:#BAE8E5;" d="M336.125,645.045V555.3c0-32.162-26.05-58.234-58.185-58.234H-60.887
				c-10.803,0-19.561,8.758-19.561,19.561s-8.758,19.561-19.561,19.561h-159.717v-59.272c-11.79-12.068-19.067-28.57-19.067-46.781
				V301.772c0-18.211,7.277-34.714,19.067-46.781V127.897h125.851c29.507,0,53.427,23.94,53.427,53.472l0,0
				c0,29.532,23.92,53.472,53.427,53.472H165.83c22.148,0,40.102,17.954,40.102,40.102v26.828c0,36.964,29.94,66.93,66.873,66.93
				h154.62h12.544c13.535,0,24.507-10.972,24.507-24.507v-8.366c0-13.535,10.972-24.507,24.507-24.507h213.516
				c13.535,0,24.507,10.973,24.507,24.507V440.86c0,13.535-10.972,24.507-24.507,24.507l0,0c-13.535,0-24.507,10.972-24.507,24.507
				v75.937c0,13.535-10.972,24.507-24.507,24.507H589.26c-13.535,0-24.507,10.972-24.507,24.507v28.788
				c0,13.535-10.972,24.507-24.507,24.507H359.2C346.457,668.12,336.125,657.789,336.125,645.045z"/>
		</g>
		<g>
			<g>
				<path style="fill:#1BAF10;" d="M527.51,668.12c0-2.761,2.24-5,5-5l0,0c2.71,0,4.92,2.159,5,4.85l0,0
					c0.01-2.54,1.96-4.7,4.54-4.93l0,0c2.19-0.2,4.19,1.04,5.03,2.95l0,0c-0.37-2.051,0.59-4.2,2.52-5.25l0,0
					c1.94-1.07,4.27-0.711,5.8,0.71l0,0c-1.16-1.75-1.13-4.101,0.23-5.841l0,0c1.36-1.739,3.64-2.34,5.61-1.64l0,0
					c-1.75-1.14-2.66-3.31-2.11-5.44l0,0c0.58-2.25,2.6-3.739,4.82-3.75l0,0c-2.38-0.38-4.2-2.449-4.2-4.93l0,0c0-2.76,2.24-5,5-5
					l0,0c2.76,0,5,2.24,5,5l0,0c0,2.76-2.23,4.99-4.99,5l0,0c0.16,0.021,0.31,0.05,0.46,0.09l0,0c2.68,0.69,4.28,3.42,3.59,6.101
					l0,0c-0.69,2.67-3.42,4.27-6.1,3.58l0,0c-0.14-0.04-0.28-0.08-0.42-0.13l0,0c0.12,0.079,0.24,0.159,0.36,0.25l0,0
					c2.17,1.699,2.56,4.85,0.86,7.02l0,0c-1.7,2.18-4.84,2.57-7.02,0.87l0,0c-0.11-0.09-0.22-0.18-0.32-0.28l0,0
					c0.08,0.12,0.15,0.24,0.22,0.37l0,0c1.33,2.42,0.44,5.46-1.98,6.78l0,0c-2.43,1.33-5.46,0.45-6.79-1.98l0,0
					c-0.07-0.13-0.14-0.26-0.19-0.39l0,0c0.02,0.14,0.04,0.29,0.05,0.43l0,0c0.26,2.75-1.77,5.19-4.52,5.44l0,0
					c-2.75,0.25-5.18-1.78-5.43-4.53l0,0c-0.01-0.1-0.02-0.21-0.02-0.31l0,0c-0.02,2.739-2.25,4.96-5,4.96l0,0
					C529.75,673.12,527.51,670.88,527.51,668.12z M517.5,668.12c0-2.761,2.24-5,5-5l0,0c2.76,0,5,2.239,5,5l0,0c0,2.76-2.24,5-5,5
					l0,0C519.74,673.12,517.5,670.88,517.5,668.12z M507.5,668.12c0-2.761,2.24-5,5-5l0,0c2.76,0,5,2.239,5,5l0,0c0,2.76-2.24,5-5,5
					l0,0C509.74,673.12,507.5,670.88,507.5,668.12z M497.5,668.12c0-2.761,2.24-5,5-5l0,0c2.76,0,5,2.239,5,5l0,0c0,2.76-2.24,5-5,5
					l0,0C499.74,673.12,497.5,670.88,497.5,668.12z M487.49,668.12c0-2.761,2.24-5,5-5l0,0c2.76,0,5.01,2.239,5.01,5l0,0
					c0,2.76-2.25,5-5.01,5l0,0C489.73,673.12,487.49,670.88,487.49,668.12z M477.49,668.12c0-2.761,2.24-5,5-5l0,0
					c2.76,0,5,2.239,5,5l0,0c0,2.76-2.24,5-5,5l0,0C479.73,673.12,477.49,670.88,477.49,668.12z M467.49,668.12c0-2.761,2.24-5,5-5
					l0,0c2.76,0,5,2.239,5,5l0,0c0,2.76-2.24,5-5,5l0,0C469.73,673.12,467.49,670.88,467.49,668.12z M457.48,668.12
					c0-2.761,2.24-5,5-5l0,0c2.77,0,5,2.239,5,5l0,0c0,2.76-2.23,5-5,5l0,0C459.72,673.12,457.48,670.88,457.48,668.12z
					 M447.48,668.12c0-2.761,2.24-5,5-5l0,0c2.76,0,5,2.239,5,5l0,0c0,2.76-2.24,5-5,5l0,0
					C449.72,673.12,447.48,670.88,447.48,668.12z M437.48,668.12c0-2.761,2.24-5,5-5l0,0c2.76,0,5,2.239,5,5l0,0c0,2.76-2.24,5-5,5
					l0,0C439.72,673.12,437.48,670.88,437.48,668.12z M427.48,668.12c0-2.761,2.23-5,5-5l0,0c2.76,0,5,2.239,5,5l0,0
					c0,2.76-2.24,5-5,5l0,0C429.71,673.12,427.48,670.88,427.48,668.12z M417.47,668.12c0-2.761,2.24-5,5-5l0,0c2.76,0,5,2.239,5,5
					l0,0c0,2.76-2.24,5-5,5l0,0C419.71,673.12,417.47,670.88,417.47,668.12z M407.47,668.12c0-2.761,2.24-5,5-5l0,0
					c2.76,0,5,2.239,5,5l0,0c0,2.76-2.24,5-5,5l0,0C409.71,673.12,407.47,670.88,407.47,668.12z M397.47,668.12c0-2.761,2.23-5,5-5
					l0,0c2.76,0,5,2.239,5,5l0,0c0,2.76-2.24,5-5,5l0,0C399.7,673.12,397.47,670.88,397.47,668.12z M387.46,668.12
					c0-2.761,2.24-5,5-5l0,0c2.76,0,5,2.239,5,5l0,0c0,2.76-2.24,5-5,5l0,0C389.7,673.12,387.46,670.88,387.46,668.12z
					 M377.46,668.12c0-2.761,2.24-5,5-5l0,0c2.76,0,5,2.239,5,5l0,0c0,2.76-2.24,5-5,5l0,0
					C379.7,673.12,377.46,670.88,377.46,668.12z M367.46,668.12c0-2.761,2.24-5,5-5l0,0c2.76,0,5,2.239,5,5l0,0c0,2.76-2.24,5-5,5
					l0,0C369.7,673.12,367.46,670.88,367.46,668.12z M357.45,668.12L357.45,668.12L357.45,668.12c-0.03,0.159-0.07,0.31-0.11,0.46
					l0,0c-0.8,2.649-3.59,4.149-6.23,3.35l0,0c-2.64-0.79-4.14-3.58-3.35-6.22l0,0c0.04-0.15,0.1-0.3,0.15-0.44l0,0
					c-0.09,0.12-0.18,0.24-0.28,0.36l0,0c-1.84,2.06-5,2.25-7.06,0.42l0,0c0,0,0,0,0-0.01l0,0c-2.07-1.83-2.26-4.99-0.42-7.05l0,0
					c0.1-0.12,0.2-0.221,0.31-0.33l0,0c-0.13,0.08-0.27,0.14-0.41,0.199l0,0c-2.53,1.11-5.48-0.04-6.58-2.569l0,0
					c-1.11-2.53,0.05-5.48,2.58-6.59l0,0c0.14-0.061,0.28-0.11,0.43-0.16l0,0c-0.12,0.01-0.24,0.01-0.36,0.01l0,0
					c-2.76,0-5-2.24-5-5l0,0c0-2.76,2.24-5,5-5l0,0c2.77,0,5,2.24,5,5l0,0c0,2.21-1.42,4.08-3.41,4.74l0,0
					c2.05-0.141,4.05,1,4.92,2.989l0,0c0.87,1.99,0.34,4.23-1.15,5.641l0,0c1.8-0.99,4.1-0.79,5.73,0.649l0,0
					c1.62,1.44,2.08,3.7,1.32,5.601l0,0c1.21-1.641,3.38-2.43,5.46-1.811l0,0c2.16,0.65,3.56,2.631,3.56,4.78l0,0
					c0.46-2.29,2.48-4.02,4.9-4.02l0,0c2.77,0,5,2.239,5,5l0,0c0,2.76-2.23,5-5,5l0,0C359.69,673.12,357.45,670.88,357.45,668.12z
					 M331.12,634.55c0-2.771,2.24-5,5-5l0,0c2.77,0,5,2.229,5,5l0,0c0,2.76-2.23,5-5,5l0,0
					C333.36,639.55,331.12,637.31,331.12,634.55z M559.75,629.85c0-2.77,2.24-5.01,5-5.01l0,0c2.76,0,5,2.24,5,5.01l0,0
					c0,2.76-2.24,4.99-5,4.99l0,0C561.99,634.84,559.75,632.609,559.75,629.85z M331.12,624.54c0-2.761,2.24-5,5-5l0,0
					c2.77,0,5,2.239,5,5l0,0c0,2.76-2.23,5-5,5l0,0C333.36,629.54,331.12,627.3,331.12,624.54z M559.75,619.84
					c0-2.74,2.21-4.96,4.94-5l0,0c-0.15-0.01-0.3-0.04-0.44-0.07l0,0c-2.71-0.55-4.45-3.2-3.9-5.899l0,0
					c0.56-2.71,3.2-4.45,5.91-3.891l0,0c0.14,0.021,0.28,0.061,0.42,0.101l0,0c-0.13-0.07-0.25-0.15-0.37-0.23l0,0
					c-2.25-1.59-2.8-4.71-1.21-6.97l0,0c1.58-2.26,4.7-2.8,6.96-1.21l0,0c0.12,0.08,0.24,0.17,0.35,0.26l0,0
					c-0.09-0.11-0.17-0.24-0.25-0.36l0,0c-1.45-2.35-0.72-5.43,1.64-6.88l0,0c2.35-1.449,5.43-0.72,6.88,1.63l0,0
					c0.07,0.131,0.14,0.25,0.21,0.381l0,0c-0.04-0.141-0.06-0.28-0.08-0.421l0,0c-0.39-2.739,1.5-5.27,4.24-5.659l0,0
					c2.73-0.4,5.26,1.51,5.66,4.239l0,0c0.02,0.131,0.03,0.261,0.04,0.4l0,0c0.03-2.74,2.26-4.94,5-4.94l0,0c2.76,0,5,2.24,5,5l0,0
					c0,2.761-2.24,5-5,5l0,0c-2.66,0-4.83-2.069-4.99-4.68l0,0c-0.03,2.42-1.82,4.521-4.29,4.88l0,0c-2.18,0.311-4.24-0.84-5.18-2.7
					l0,0c0.47,2.04-0.37,4.23-2.25,5.381l0,0c-1.88,1.159-4.23,0.92-5.83-0.421l0,0c1.25,1.681,1.34,4.04,0.07,5.851l0,0l0,0l0,0
					c-1.26,1.8-3.51,2.51-5.51,1.92l0,0c1.8,1.05,2.82,3.17,2.38,5.33l0,0l0,0l0,0c-0.48,2.34-2.53,3.96-4.83,3.99l0,0
					c2.49,0.29,4.43,2.399,4.43,4.97l0,0c0,2.76-2.24,5-5,5l0,0C561.99,624.84,559.75,622.6,559.75,619.84z M331.12,614.54
					c0-2.761,2.24-5,5-5l0,0c2.77,0,5,2.239,5,5l0,0c0,2.76-2.23,5-5,5l0,0C333.36,619.54,331.12,617.3,331.12,614.54z
					 M331.12,604.54c0-2.761,2.24-5,5-5l0,0c2.77,0,5,2.239,5,5l0,0c0,2.76-2.23,5-5,5l0,0
					C333.36,609.54,331.12,607.3,331.12,604.54z M331.12,594.529c0-2.76,2.24-4.989,5-4.989l0,0c2.77,0,5,2.229,5,4.989l0,0
					c0,2.771-2.23,5-5,5l0,0C333.36,599.529,331.12,597.3,331.12,594.529z M640.76,590.319c0-2.76,2.24-5,5-5l0,0
					c2.71,0,4.92,2.16,5,4.851l0,0c0.02-2.54,1.96-4.7,4.54-4.93l0,0c2.2-0.211,4.19,1.039,5.04,2.949l0,0
					c-0.37-2.05,0.58-4.199,2.51-5.26v-0.01c1.94-1.061,4.27-0.7,5.8,0.72l0,0c-1.15-1.75-1.13-4.1,0.23-5.84l0,0
					c1.35-1.74,3.63-2.34,5.6-1.65l0,0c-1.75-1.14-2.66-3.3-2.11-5.439l0,0c0.58-2.24,2.59-3.73,4.8-3.75l0,0
					c-2.37-0.391-4.18-2.45-4.18-4.931l0,0c0-2.76,2.24-5,5-5l0,0c2.76,0,5,2.24,5,5l0,0c0,2.75-2.22,4.98-4.97,5l0,0
					c0.15,0.021,0.3,0.061,0.44,0.091l0,0c2.68,0.689,4.28,3.42,3.59,6.1l0,0c-0.69,2.67-3.42,4.28-6.09,3.58l0,0
					c-0.14-0.03-0.28-0.08-0.42-0.12l0,0c0.12,0.07,0.24,0.16,0.35,0.25l0,0c2.18,1.7,2.57,4.84,0.87,7.021l0,0
					c-1.7,2.17-4.84,2.56-7.02,0.859l0,0c-0.11-0.09-0.22-0.18-0.32-0.27l0,0c0.08,0.109,0.15,0.239,0.22,0.359l0,0
					c1.33,2.431,0.45,5.471-1.98,6.79l0,0l0,0l0,0c-2.42,1.33-5.46,0.45-6.78-1.97l0,0c-0.07-0.13-0.14-0.26-0.2-0.39l0,0
					c0.03,0.14,0.05,0.279,0.06,0.43l0,0c0.25,2.75-1.77,5.18-4.52,5.43l0,0c-2.75,0.261-5.19-1.77-5.44-4.52l0,0
					c-0.01-0.101-0.01-0.21-0.02-0.311l0,0c-0.02,2.74-2.25,4.96-5,4.96l0,0C643,595.319,640.76,593.08,640.76,590.319z
					 M630.76,590.319c0-2.76,2.24-5,5-5l0,0c2.76,0,5,2.24,5,5l0,0c0,2.761-2.24,5-5,5l0,0
					C633,595.319,630.76,593.08,630.76,590.319z M620.76,590.319c0-2.76,2.24-5,5-5l0,0c2.76,0,5,2.24,5,5l0,0c0,2.761-2.24,5-5,5
					l0,0C623,595.319,620.76,593.08,620.76,590.319z M610.75,590.319c0-2.76,2.24-5,5-5l0,0c2.77,0,5,2.24,5,5l0,0
					c0,2.761-2.23,5-5,5l0,0C612.99,595.319,610.75,593.08,610.75,590.319z M600.75,590.319c0-2.76,2.24-5,5-5l0,0
					c2.76,0,5,2.24,5,5l0,0c0,2.761-2.24,5-5,5l0,0C602.99,595.319,600.75,593.08,600.75,590.319z M331.12,584.529
					c0-2.76,2.24-5,5-5l0,0c2.77,0,5,2.24,5,5l0,0c0,2.761-2.23,5-5,5l0,0C333.36,589.529,331.12,587.29,331.12,584.529z
					 M331.12,574.529c0-2.76,2.24-5,5-5l0,0c2.77,0,5,2.24,5,5l0,0c0,2.761-2.23,5-5,5l0,0
					C333.36,579.529,331.12,577.29,331.12,574.529z M331.12,564.529c0-2.77,2.24-5,5-5l0,0c2.77,0,5,2.23,5,5l0,0
					c0,2.761-2.23,4.99-5,4.99l0,0C333.36,569.52,331.12,567.29,331.12,564.529z M331.12,554.59c-0.03-2.53,1.82-4.64,4.25-5.01l0,0
					c-2.46,0.109-4.68-1.601-5.14-4.08l0,0c-0.47-2.49,1-4.891,3.33-5.66l0,0c-2.4,0.54-4.89-0.771-5.77-3.14l0,0l0,0l0,0
					c-0.89-2.381,0.16-5.021,2.36-6.171l0,0c-2.28,0.98-4.98,0.12-6.27-2.079l0,0c-1.28-2.19-0.71-4.95,1.24-6.46l0,0
					c-2.08,1.329-4.88,0.939-6.51-1l0,0c-1.63-1.931-1.54-4.74,0.1-6.561l0,0c-1.82,1.64-4.63,1.73-6.56,0.11l0,0c0,0,0,0,0-0.011
					l0,0c-1.93-1.619-2.33-4.399-1.02-6.479l0,0c-1.52,1.93-4.27,2.5-6.45,1.22l0,0c-2.17-1.27-3.03-3.92-2.12-6.18l0,0
					c-1.17,2.14-3.77,3.16-6.12,2.28l0,0c-2.37-0.88-3.68-3.36-3.14-5.761l0,0c-0.78,2.33-3.17,3.801-5.66,3.341l0,0
					c-2.49-0.46-4.2-2.681-4.08-5.141l0,0c-0.37,2.431-2.48,4.29-5.01,4.26l0,0c-2.76-0.029-4.97-2.29-4.94-5.06l0,0
					c0.03-2.76,2.3-4.97,5.06-4.94l0,0c2.76,0.03,4.97,2.301,4.94,5.051l0,0c0,0.06,0,0.12-0.01,0.18l0,0
					c0.01-0.06,0.02-0.12,0.03-0.18l0,0c0.5-2.71,3.11-4.511,5.83-4l0,0c2.71,0.5,4.51,3.1,4.01,5.819l0,0
					c-0.01,0.061-0.03,0.12-0.04,0.181l0,0c0.02-0.061,0.04-0.12,0.06-0.17l0,0c0.96-2.591,3.84-3.91,6.43-2.95l0,0
					c2.59,0.96,3.91,3.84,2.94,6.43l0,0c-0.01,0.04-0.03,0.09-0.05,0.13l0,0c0.03-0.04,0.05-0.08,0.07-0.12l0,0
					c1.4-2.39,4.46-3.189,6.84-1.8l0,0c2.39,1.39,3.19,4.45,1.8,6.84l0,0c-0.03,0.05-0.06,0.09-0.09,0.141l0,0
					c0.04-0.04,0.07-0.091,0.11-0.13l0,0c1.78-2.11,4.93-2.381,7.04-0.61h0.01c2.11,1.78,2.38,4.939,0.6,7.05l0,0
					c-0.03,0.04-0.07,0.09-0.11,0.13l0,0c0.04-0.04,0.09-0.08,0.13-0.109l0,0c2.11-1.78,5.26-1.511,7.05,0.6l0,0
					c1.78,2.11,1.51,5.26-0.6,7.04l0,0c-0.06,0.05-0.11,0.09-0.17,0.13l0,0c0.06-0.03,0.12-0.07,0.18-0.1l0,0
					c2.39-1.4,5.45-0.601,6.84,1.79l0,0c1.39,2.38,0.59,5.439-1.79,6.84l0,0c-0.07,0.04-0.14,0.08-0.21,0.109l0,0
					c0.07-0.029,0.15-0.06,0.22-0.09l0,0c2.59-0.96,5.47,0.351,6.43,2.94l0,0c0.97,2.59-0.35,5.47-2.94,6.43l0,0
					c-0.06,0.021-0.12,0.05-0.18,0.061l0,0c0.06-0.011,0.13-0.021,0.19-0.03l0,0c2.71-0.51,5.32,1.28,5.83,4l0,0
					c0.5,2.72-1.29,5.33-4,5.83l0,0c-0.06,0.01-0.12,0.02-0.18,0.029l0,0c0.06,0,0.12-0.01,0.17-0.01l0,0
					c2.76-0.04,5.03,2.181,5.07,4.931l0,0c0.03,2.77-2.17,5.04-4.93,5.069l0,0c-0.03,0-0.05,0-0.07,0l0,0
					C333.39,559.52,331.16,557.319,331.12,554.59z M672.99,552.029c0-2.77,2.24-5,5-5l0,0c2.76,0,5,2.23,5,5l0,0c0,2.761-2.24,5-5,5
					l0,0C675.23,557.029,672.99,554.79,672.99,552.029z M672.99,542.02c0-2.76,2.24-5,5-5l0,0c2.76,0,5,2.24,5,5l0,0
					c0,2.76-2.24,5-5,5l0,0C675.23,547.02,672.99,544.779,672.99,542.02z M-114.16,536.189c0-2.76,2.24-5,5-5l0,0c2.76,0,5,2.24,5,5
					l0,0c0,2.761-2.24,5-5,5l0,0C-111.92,541.189-114.16,538.95-114.16,536.189z M-124.16,536.189c0-2.76,2.23-5,5-5l0,0
					c2.76,0,5,2.24,5,5l0,0c0,2.761-2.24,5-5,5l0,0C-121.93,541.189-124.16,538.95-124.16,536.189z M-134.17,536.189
					c0-2.76,2.24-5,5-5l0,0c2.77,0,5,2.24,5,5l0,0c0,2.761-2.23,5-5,5l0,0C-131.93,541.189-134.17,538.95-134.17,536.189z
					 M-144.17,536.189c0-2.76,2.24-5,5-5l0,0c2.76,0,5,2.24,5,5l0,0c0,2.761-2.24,5-5,5l0,0
					C-141.93,541.189-144.17,538.95-144.17,536.189z M-154.17,536.189c0-2.76,2.24-5,5-5l0,0c2.76,0,5,2.24,5,5l0,0
					c0,2.761-2.24,5-5,5l0,0C-151.93,541.189-154.17,538.95-154.17,536.189z M-164.18,536.189c0-2.76,2.24-5,5-5l0,0
					c2.77,0,5,2.24,5,5l0,0c0,2.761-2.23,5-5,5l0,0C-161.94,541.189-164.18,538.95-164.18,536.189z M-174.18,536.189
					c0-2.76,2.24-5,5-5l0,0c2.76,0,5,2.24,5,5l0,0c0,2.761-2.24,5-5,5l0,0C-171.94,541.189-174.18,538.95-174.18,536.189z
					 M-184.18,536.189c0-2.76,2.24-5,5-5l0,0c2.76,0,5,2.24,5,5l0,0c0,2.761-2.24,5-5,5l0,0
					C-181.94,541.189-184.18,538.95-184.18,536.189z M-194.18,536.189c0-2.76,2.23-5,5-5l0,0c2.76,0,5,2.24,5,5l0,0
					c0,2.761-2.24,5-5,5l0,0C-191.95,541.189-194.18,538.95-194.18,536.189z M-204.19,536.189c0-2.76,2.24-5,5-5l0,0
					c2.76,0,5,2.24,5,5l0,0c0,2.761-2.24,5-5,5l0,0C-201.95,541.189-204.19,538.95-204.19,536.189z M-214.19,536.189
					c0-2.76,2.24-5,5-5l0,0c2.76,0,5,2.24,5,5l0,0c0,2.761-2.24,5-5,5l0,0C-211.95,541.189-214.19,538.95-214.19,536.189z
					 M-224.19,536.189c0-2.76,2.23-5,5-5l0,0c2.76,0,5,2.24,5,5l0,0c0,2.761-2.24,5-5,5l0,0
					C-221.96,541.189-224.19,538.95-224.19,536.189z M-234.2,536.189c0-2.76,2.24-5,5-5l0,0c2.76,0,5,2.24,5,5l0,0
					c0,2.761-2.24,5-5,5l0,0C-231.96,541.189-234.2,538.95-234.2,536.189z M-244.2,536.189c0-2.76,2.24-5,5-5l0,0c2.76,0,5,2.24,5,5
					l0,0c0,2.761-2.24,5-5,5l0,0C-241.96,541.189-244.2,538.95-244.2,536.189z M-254.2,536.189c0-2.76,2.24-5,5-5l0,0
					c2.76,0,5,2.24,5,5l0,0c0,2.761-2.24,5-5,5l0,0C-251.96,541.189-254.2,538.95-254.2,536.189z M-104.15,536.38
					c-0.12-2.76,2.02-5.09,4.78-5.21l0,0c2.06-0.08,3.88,1.09,4.72,2.83l0,0c-0.29-1.91,0.56-3.9,2.31-4.99l0,0
					c1.75-1.09,3.92-0.96,5.51,0.15l0,0c-1.19-1.53-1.43-3.69-0.43-5.49l0,0c1-1.8,2.94-2.75,4.87-2.561l0,0
					c-1.81-0.76-3.07-2.55-3.06-4.63l0,0c0.02-2.77,2.27-4.989,5.03-4.979l0,0c0.18,0.01,0.36,0.02,0.53,0.04l0,0
					c-0.16-0.08-0.32-0.16-0.48-0.25l0,0c-2.4-1.36-3.23-4.42-1.87-6.82l0,0c1.37-2.4,4.43-3.229,6.83-1.86l0,0
					c0.15,0.091,0.3,0.181,0.45,0.29l0,0c-0.11-0.14-0.21-0.29-0.3-0.449l0,0c-1.43-2.36-0.67-5.44,1.69-6.86l0,0
					c2.37-1.43,5.44-0.67,6.87,1.689l0,0c0.09,0.16,0.18,0.32,0.25,0.48l0,0c-0.02-0.17-0.04-0.35-0.04-0.53l0,0
					c-0.09-2.76,2.08-5.069,4.84-5.149l0,0c2.76-0.09,5.07,2.08,5.15,4.84l0,0c0.09,2.76-2.08,5.07-4.84,5.149l0,0
					c-2.06,0.07-3.87-1.13-4.69-2.88l0,0c0.27,1.92-0.61,3.891-2.37,4.96l0,0c-1.77,1.07-3.93,0.91-5.51-0.22l0,0
					c1.18,1.54,1.38,3.7,0.36,5.5l0,0c-1.02,1.79-2.97,2.7-4.89,2.49l0,0c1.77,0.78,3,2.55,2.99,4.609l0,0
					c-0.02,2.761-2.27,4.99-5.03,4.971l0,0c-0.16,0-0.31,0-0.47-0.021l0,0c0.17,0.07,0.33,0.15,0.49,0.23l0,0
					c2.41,1.34,3.29,4.39,1.95,6.8l0,0l0,0l0,0c-1.34,2.42-4.38,3.29-6.8,1.95l0,0c-0.16-0.08-0.31-0.181-0.45-0.28l0,0
					c0.11,0.14,0.21,0.29,0.3,0.44l0,0c1.46,2.34,0.74,5.43-1.61,6.88l0,0l0,0l0,0c-2.34,1.46-5.42,0.74-6.88-1.61l0,0
					c-0.1-0.149-0.19-0.31-0.26-0.47l0,0c0.02,0.17,0.04,0.35,0.05,0.54l0,0c0.12,2.75-2.02,5.09-4.78,5.2l0,0
					c-0.08,0.01-0.15,0.01-0.22,0.01l0,0C-101.82,541.17-104.04,539.069-104.15,536.38z M672.99,532.02c0-2.76,2.24-5,5-5l0,0
					c2.76,0,5,2.24,5,5l0,0c0,2.76-2.24,5-5,5l0,0C675.23,537.02,672.99,534.779,672.99,532.02z M672.99,522.02c0-2.76,2.24-5,5-5
					l0,0c2.76,0,5,2.24,5,5l0,0c0,2.76-2.24,5-5,5l0,0C675.23,527.02,672.99,524.779,672.99,522.02z M672.99,512.01
					c0-2.76,2.24-5,5-5l0,0c2.76,0,5,2.24,5,5l0,0c0,2.77-2.24,5-5,5l0,0C675.23,517.01,672.99,514.779,672.99,512.01z
					 M672.99,502.01c0-2.76,2.24-5,5-5l0,0c2.76,0,5,2.24,5,5l0,0c0,2.76-2.24,5-5,5l0,0C675.23,507.01,672.99,504.77,672.99,502.01
					z M263.61,497.069c0-2.76,2.24-5,5-5l0,0c2.76,0,5,2.24,5,5l0,0c0,2.761-2.24,5-5,5l0,0
					C265.85,502.069,263.61,499.83,263.61,497.069z M253.6,497.069c0-2.76,2.24-5,5-5l0,0c2.77,0,5,2.24,5,5l0,0c0,2.761-2.23,5-5,5
					l0,0C255.84,502.069,253.6,499.83,253.6,497.069z M243.6,497.069c0-2.76,2.24-5,5-5l0,0c2.76,0,5,2.24,5,5l0,0
					c0,2.761-2.24,5-5,5l0,0C245.84,502.069,243.6,499.83,243.6,497.069z M233.6,497.069c0-2.76,2.24-5,5-5l0,0c2.76,0,5,2.24,5,5
					l0,0c0,2.761-2.24,5-5,5l0,0C235.84,502.069,233.6,499.83,233.6,497.069z M223.59,497.069c0-2.76,2.24-5,5.01-5l0,0
					c2.75,0,5,2.24,5,5l0,0c0,2.761-2.25,5-5,5l0,0C225.83,502.069,223.59,499.83,223.59,497.069z M213.59,497.069
					c0-2.76,2.24-5,5-5l0,0c2.76,0,5,2.24,5,5l0,0c0,2.761-2.24,5-5,5l0,0C215.83,502.069,213.59,499.83,213.59,497.069z
					 M203.59,497.069c0-2.76,2.24-5,5-5l0,0c2.76,0,5,2.24,5,5l0,0c0,2.761-2.24,5-5,5l0,0
					C205.83,502.069,203.59,499.83,203.59,497.069z M193.58,497.069c0-2.76,2.24-5,5-5l0,0c2.77,0,5.01,2.24,5.01,5l0,0
					c0,2.761-2.24,5-5.01,5l0,0C195.82,502.069,193.58,499.83,193.58,497.069z M183.58,497.069c0-2.76,2.24-5,5-5l0,0
					c2.76,0,5,2.24,5,5l0,0c0,2.761-2.24,5-5,5l0,0C185.82,502.069,183.58,499.83,183.58,497.069z M173.58,497.069
					c0-2.76,2.24-5,5-5l0,0c2.76,0,5,2.24,5,5l0,0c0,2.761-2.24,5-5,5l0,0C175.82,502.069,173.58,499.83,173.58,497.069z
					 M163.57,497.069c0-2.76,2.24-5,5.01-5l0,0c2.76,0,5,2.24,5,5l0,0c0,2.761-2.24,5-5,5l0,0
					C165.81,502.069,163.57,499.83,163.57,497.069z M153.57,497.069c0-2.76,2.24-5,5-5l0,0c2.76,0,5,2.24,5,5l0,0
					c0,2.761-2.24,5-5,5l0,0C155.81,502.069,153.57,499.83,153.57,497.069z M143.57,497.069c0-2.76,2.24-5,5-5l0,0
					c2.76,0,5,2.24,5,5l0,0c0,2.761-2.24,5-5,5l0,0C145.81,502.069,143.57,499.83,143.57,497.069z M133.57,497.069
					c0-2.76,2.24-5,5-5l0,0c2.76,0,5,2.24,5,5l0,0c0,2.761-2.24,5-5,5l0,0C135.81,502.069,133.57,499.83,133.57,497.069z
					 M123.56,497.069c0-2.76,2.24-5,5-5l0,0c2.76,0,5,2.24,5,5l0,0c0,2.761-2.24,5-5,5l0,0
					C125.8,502.069,123.56,499.83,123.56,497.069z M113.56,497.069c0-2.76,2.24-5,5-5l0,0c2.76,0,5,2.24,5,5l0,0c0,2.761-2.24,5-5,5
					l0,0C115.8,502.069,113.56,499.83,113.56,497.069z M103.56,497.069c0-2.76,2.23-5,5-5l0,0c2.76,0,5,2.24,5,5l0,0
					c0,2.761-2.24,5-5,5l0,0C105.79,502.069,103.56,499.83,103.56,497.069z M93.55,497.069c0-2.76,2.24-5,5-5l0,0c2.76,0,5,2.24,5,5
					l0,0c0,2.761-2.24,5-5,5l0,0C95.79,502.069,93.55,499.83,93.55,497.069z M83.55,497.069c0-2.76,2.24-5,5-5l0,0
					c2.76,0,5,2.24,5,5l0,0c0,2.761-2.24,5-5,5l0,0C85.79,502.069,83.55,499.83,83.55,497.069z M73.55,497.069c0-2.76,2.24-5,5-5
					l0,0c2.76,0,5,2.24,5,5l0,0c0,2.761-2.24,5-5,5l0,0C75.79,502.069,73.55,499.83,73.55,497.069z M63.54,497.069
					c0-2.76,2.24-5,5-5l0,0c2.77,0,5,2.24,5,5l0,0c0,2.761-2.23,5-5,5l0,0C65.78,502.069,63.54,499.83,63.54,497.069z
					 M53.54,497.069c0-2.76,2.24-5,5-5l0,0c2.76,0,5,2.24,5,5l0,0c0,2.761-2.24,5-5,5l0,0C55.78,502.069,53.54,499.83,53.54,497.069
					z M43.54,497.069c0-2.76,2.24-5,5-5l0,0c2.76,0,5,2.24,5,5l0,0c0,2.761-2.24,5-5,5l0,0
					C45.78,502.069,43.54,499.83,43.54,497.069z M33.54,497.069c0-2.76,2.23-5,5-5l0,0c2.76,0,5,2.24,5,5l0,0c0,2.761-2.24,5-5,5
					l0,0C35.77,502.069,33.54,499.83,33.54,497.069z M23.53,497.069c0-2.76,2.24-5,5-5l0,0c2.76,0,5,2.24,5,5l0,0
					c0,2.761-2.24,5-5,5l0,0C25.77,502.069,23.53,499.83,23.53,497.069z M13.53,497.069c0-2.76,2.24-5,5-5l0,0c2.76,0,5,2.24,5,5
					l0,0c0,2.761-2.24,5-5,5l0,0C15.77,502.069,13.53,499.83,13.53,497.069z M3.53,497.069c0-2.76,2.23-5,5-5l0,0c2.76,0,5,2.24,5,5
					l0,0c0,2.761-2.24,5-5,5l0,0C5.76,502.069,3.53,499.83,3.53,497.069z M-6.48,497.069c0-2.76,2.24-5,5-5l0,0c2.77,0,5,2.24,5,5
					l0,0c0,2.761-2.23,5-5,5l0,0C-4.24,502.069-6.48,499.83-6.48,497.069z M-16.48,497.069c0-2.76,2.24-5,5-5l0,0c2.76,0,5,2.24,5,5
					l0,0c0,2.761-2.24,5-5,5l0,0C-14.24,502.069-16.48,499.83-16.48,497.069z M-26.48,497.069c0-2.76,2.24-5,5-5l0,0
					c2.76,0,5,2.24,5,5l0,0c0,2.761-2.24,5-5,5l0,0C-24.24,502.069-26.48,499.83-26.48,497.069z M-36.49,497.069c0-2.76,2.24-5,5-5
					l0,0c2.77,0,5,2.24,5,5l0,0c0,2.761-2.23,5-5,5l0,0C-34.25,502.069-36.49,499.83-36.49,497.069z M-46.49,497.069
					c0-2.76,2.24-5,5-5l0,0c2.76,0,5,2.24,5,5l0,0c0,2.761-2.24,5-5,5l0,0C-44.25,502.069-46.49,499.83-46.49,497.069z
					 M-56.49,497.069c0-2.76,2.24-5,5-5l0,0c2.76,0,5,2.24,5,5l0,0c0,2.761-2.24,5-5,5l0,0
					C-54.25,502.069-56.49,499.83-56.49,497.069z M672.99,492.01c0-2.76,2.24-5,5-5l0,0c0.04,0,0.08,0,0.11,0l0,0
					c-0.15-0.03-0.29-0.08-0.44-0.13l0,0c-2.62-0.86-4.04-3.7-3.17-6.32v0.01c0.87-2.63,3.7-4.04,6.32-3.17l0,0
					c0.14,0.04,0.28,0.101,0.42,0.15l0,0c-0.12-0.08-0.23-0.18-0.34-0.271l0,0c-2.06-1.84-2.24-5-0.4-7.06l0,0
					c1.84-2.06,5-2.24,7.06-0.4l0,0c0.11,0.101,0.21,0.2,0.31,0.311l0,0c-0.07-0.13-0.14-0.26-0.2-0.39l0,0
					c-1.16-2.511-0.07-5.48,2.43-6.641l0,0c2.51-1.17,5.48-0.08,6.64,2.43l0,0c0.06,0.131,0.12,0.261,0.17,0.4l0,0
					c-0.02-0.14-0.03-0.28-0.03-0.43l0,0c-0.07-2.76,2.11-5.05,4.87-5.12l0,0c2.3-0.061,4.27,1.439,4.91,3.54l0,0
					c-0.13-2.101,1.07-4.13,3.13-4.95l0,0c2.04-0.83,4.31-0.2,5.67,1.39l0,0c-0.95-1.869-0.64-4.199,0.91-5.77l0,0
					c1.55-1.57,3.88-1.89,5.76-0.97l0,0c-1.6-1.341-2.25-3.601-1.45-5.66l0,0c0.81-2.061,2.83-3.28,4.93-3.17l0,0
					c-2.08-0.61-3.59-2.53-3.59-4.8l0,0c0-2.761,2.23-5,5-5l0,0c2.76,0,5,2.239,5,5l0,0c0,2.76-2.24,5-5,5l0,0
					c-0.1,0-0.19,0-0.28-0.011l0,0c0.14,0.04,0.28,0.09,0.42,0.15l0,0c2.57,1,3.84,3.899,2.84,6.479l0,0
					c-1.01,2.57-3.91,3.841-6.48,2.83l0,0c-0.14-0.05-0.27-0.109-0.39-0.17l0,0c0.1,0.09,0.21,0.181,0.31,0.28l0,0
					c1.96,1.95,1.98,5.11,0.03,7.07l0,0c-1.94,1.96-5.11,1.979-7.07,0.04l0,0c-0.1-0.101-0.2-0.21-0.29-0.311l0,0
					c0.07,0.12,0.13,0.25,0.18,0.391l0,0c1.03,2.56-0.21,5.47-2.77,6.5l0,0c-2.56,1.039-5.48-0.211-6.51-2.771l0,0
					c-0.05-0.14-0.1-0.28-0.14-0.41l0,0c0,0.061,0,0.12,0,0.19l0,0c0.08,2.76-2.11,5.05-4.87,5.12l0,0
					c-2.2,0.06-4.11-1.32-4.82-3.28l0,0c0.22,2.07-0.87,4.15-2.87,5.08l0,0c-2,0.93-4.31,0.41-5.74-1.11l0,0
					c1.04,1.82,0.86,4.17-0.61,5.82l0,0c-1.47,1.649-3.79,2.09-5.71,1.26l0,0c1.67,1.26,2.44,3.48,1.74,5.58l0,0
					c-0.71,2.13-2.71,3.46-4.84,3.42l0,0c2.21,0.521,3.85,2.5,3.85,4.87l0,0c0,2.76-2.24,5-5,5l0,0
					C675.23,497.01,672.99,494.77,672.99,492.01z M722.01,429.99c0-2.761,2.23-5.011,5-5.011l0,0c2.76,0,5,2.25,5,5.011l0,0
					c0,2.76-2.24,5-5,5l0,0C724.24,434.99,722.01,432.75,722.01,429.99z M722.01,419.979c0-2.76,2.23-5,5-5l0,0c2.76,0,5,2.24,5,5
					l0,0c0,2.761-2.24,5-5,5l0,0C724.24,424.979,722.01,422.74,722.01,419.979z M722.01,409.979c0-2.76,2.23-5,5-5l0,0
					c2.76,0,5,2.24,5,5l0,0c0,2.761-2.24,5-5,5l0,0C724.24,414.979,722.01,412.74,722.01,409.979z M722.01,399.979
					c0-2.76,2.23-5,5-5l0,0c2.76,0,5,2.24,5,5l0,0c0,2.761-2.24,5-5,5l0,0C724.24,404.979,722.01,402.74,722.01,399.979z
					 M722.01,389.979c0-2.77,2.23-5.01,5-5.01l0,0c2.76,0,5,2.24,5,5.01l0,0c0,2.75-2.24,5-5,5l0,0
					C724.24,394.979,722.01,392.729,722.01,389.979z M722.01,379.97c0-2.76,2.23-5,5-5l0,0c2.76,0,5,2.24,5,5l0,0c0,2.76-2.24,5-5,5
					l0,0C724.24,384.97,722.01,382.729,722.01,379.97z M722.01,369.97c0-2.76,2.23-5,5-5l0,0c2.76,0,5,2.24,5,5l0,0
					c0,2.76-2.24,5-5,5l0,0C724.24,374.97,722.01,372.729,722.01,369.97z M426.41,368.7c0-2.761,2.24-5,5-5l0,0c2.76,0,5,2.239,5,5
					l0,0c0,2.76-2.24,5-5,5l0,0C428.65,373.7,426.41,371.46,426.41,368.7z M416.4,368.7c0-2.761,2.24-5,5-5l0,0
					c2.77,0,5.01,2.239,5.01,5l0,0c0,2.76-2.24,5-5.01,5l0,0C418.64,373.7,416.4,371.46,416.4,368.7z M406.4,368.7
					c0-2.761,2.24-5,5-5l0,0c2.76,0,5,2.239,5,5l0,0c0,2.76-2.24,5-5,5l0,0C408.64,373.7,406.4,371.46,406.4,368.7z M396.4,368.7
					c0-2.761,2.24-5,5-5l0,0c2.76,0,5,2.239,5,5l0,0c0,2.76-2.24,5-5,5l0,0C398.64,373.7,396.4,371.46,396.4,368.7z M386.39,368.7
					c0-2.761,2.24-5,5.01-5l0,0c2.75,0,5,2.239,5,5l0,0c0,2.76-2.25,5-5,5l0,0C388.63,373.7,386.39,371.46,386.39,368.7z
					 M376.39,368.7c0-2.761,2.24-5,5-5l0,0c2.76,0,5,2.239,5,5l0,0c0,2.76-2.24,5-5,5l0,0C378.63,373.7,376.39,371.46,376.39,368.7z
					 M366.39,368.7c0-2.761,2.24-5,5-5l0,0c2.76,0,5,2.239,5,5l0,0c0,2.76-2.24,5-5,5l0,0C368.63,373.7,366.39,371.46,366.39,368.7z
					 M356.38,368.7c0-2.761,2.24-5,5.01-5l0,0c2.76,0,5,2.239,5,5l0,0c0,2.76-2.24,5-5,5l0,0
					C358.62,373.7,356.38,371.46,356.38,368.7z M346.38,368.7c0-2.761,2.24-5,5-5l0,0c2.76,0,5,2.239,5,5l0,0c0,2.76-2.24,5-5,5l0,0
					C348.62,373.7,346.38,371.46,346.38,368.7z M336.38,368.7c0-2.761,2.24-5,5-5l0,0c2.76,0,5,2.239,5,5l0,0c0,2.76-2.24,5-5,5l0,0
					C338.62,373.7,336.38,371.46,336.38,368.7z M326.38,368.7c0-2.761,2.24-5,4.99-5l0,0c2.77,0,5.01,2.239,5.01,5l0,0
					c0,2.76-2.24,5-5.01,5l0,0C328.62,373.7,326.38,371.46,326.38,368.7z M316.37,368.7c0-2.761,2.24-5,5-5l0,0c2.76,0,5,2.239,5,5
					l0,0c0,2.76-2.24,5-5,5l0,0C318.61,373.7,316.37,371.46,316.37,368.7z M306.37,368.7c0-2.761,2.24-5,5-5l0,0c2.76,0,5,2.239,5,5
					l0,0c0,2.76-2.24,5-5,5l0,0C308.61,373.7,306.37,371.46,306.37,368.7z M296.37,368.7c0-2.761,2.23-5,5-5l0,0c2.76,0,5,2.239,5,5
					l0,0c0,2.76-2.24,5-5,5l0,0C298.6,373.7,296.37,371.46,296.37,368.7z M286.36,368.7c0-2.761,2.24-5,5-5l0,0c2.76,0,5,2.239,5,5
					l0,0c0,2.76-2.24,5-5,5l0,0C288.6,373.7,286.36,371.46,286.36,368.7z M276.36,368.7c0-2.761,2.24-5,5-5l0,0c2.76,0,5,2.239,5,5
					l0,0c0,2.76-2.24,5-5,5l0,0C278.6,373.7,276.36,371.46,276.36,368.7z M271.25,373.689c-2.76-0.069-4.95-2.35-4.89-5.109l0,0
					c0-0.051,0-0.11,0.01-0.16l0,0c-0.01,0.06-0.02,0.109-0.03,0.16l0,0c-0.47,2.72-3.05,4.55-5.77,4.08l0,0
					c-2.72-0.471-4.55-3.051-4.08-5.771l0,0c0.01-0.06,0.02-0.11,0.03-0.16l0,0c-0.02,0.05-0.04,0.101-0.05,0.16l0,0
					c-0.87,2.62-3.7,4.03-6.33,3.16l0,0c-2.62-0.87-4.03-3.7-3.16-6.32l0,0c0.02-0.05,0.03-0.109,0.05-0.16l0,0
					c-0.02,0.051-0.05,0.101-0.07,0.15l0,0c-1.26,2.46-4.27,3.44-6.73,2.19h0.01c-2.47-1.25-3.45-4.271-2.19-6.73l0,0
					c0.02-0.03,0.03-0.06,0.05-0.09l0,0c-0.02,0.03-0.04,0.05-0.06,0.08l0,0c-1.61,2.25-4.73,2.77-6.98,1.16l0,0
					c-2.24-1.601-2.76-4.73-1.16-6.971l0,0c0.03-0.04,0.06-0.08,0.09-0.119l0,0c-0.03,0.039-0.07,0.069-0.1,0.109l0,0
					c-1.92,1.98-5.09,2.03-7.07,0.11l0,0c-1.98-1.931-2.03-5.09-0.11-7.07l0,0c0.04-0.05,0.09-0.09,0.13-0.13l0,0
					c-0.05,0.04-0.1,0.07-0.15,0.11l0,0c-2.19,1.68-5.33,1.26-7-0.931l0,0c-1.68-2.199-1.26-5.34,0.93-7.01l0,0
					c0.06-0.05,0.12-0.09,0.18-0.13l0,0c-0.07,0.04-0.13,0.07-0.19,0.11l0,0c-2.42,1.33-5.46,0.449-6.79-1.971l0,0
					c-1.33-2.42-0.45-5.46,1.96-6.79l0,0c0.07-0.04,0.14-0.069,0.21-0.109l0,0c-0.07,0.029-0.14,0.06-0.22,0.09l0,0
					c-2.59,0.95-5.46-0.37-6.42-2.96v-0.01c-0.95-2.591,0.38-5.46,2.97-6.42l0,0c0.08-0.021,0.16-0.051,0.24-0.08l0,0
					c-0.08,0.02-0.17,0.04-0.25,0.06l0,0c-2.71,0.56-5.35-1.19-5.9-3.89l0,0c-0.56-2.71,1.18-5.351,3.89-5.9l0,0
					c0.05-0.02,0.1-0.03,0.16-0.03l0,0c-0.06,0-0.11,0-0.16,0.011l0,0c-2.76,0.14-5.12-1.971-5.26-4.73l0,0
					c-0.15-2.76,1.96-5.11,4.72-5.26l0,0c0.05,0,0.1-0.01,0.15-0.01l0,0c-2.75-0.011-4.98-2.24-4.98-5l0,0c0-2.761,2.24-5,5-5l0,0
					c2.76,0,5,2.239,5,5l0,0c0,2.72-2.17,4.939-4.88,5l0,0c2.63,0.02,4.83,2.08,4.97,4.729l0,0c0.14,2.561-1.67,4.771-4.13,5.2l0,0
					c2.49-0.21,4.8,1.47,5.31,3.979l0,0l0,0l0,0c0.52,2.53-0.98,5.021-3.41,5.78l0,0c2.46-0.64,5.05,0.67,5.95,3.11l0,0
					c0.89,2.42-0.21,5.09-2.48,6.21l0,0c2.33-0.98,5.07-0.061,6.32,2.2l0,0c1.24,2.26,0.55,5.06-1.51,6.5l0,0
					c2.15-1.311,4.99-0.811,6.56,1.239l0,0c1.56,2.051,1.31,4.9-0.51,6.641l0,0c1.94-1.59,4.81-1.51,6.66,0.27l0,0
					c1.83,1.78,2.01,4.63,0.51,6.62l0,0c1.68-1.84,4.51-2.18,6.59-0.689l0,0c2.07,1.479,2.67,4.239,1.5,6.43l0,0
					c1.4-2.05,4.13-2.79,6.4-1.63l0,0c2.28,1.16,3.28,3.83,2.42,6.17l0,0c1.06-2.26,3.67-3.42,6.1-2.61l0,0
					c2.42,0.811,3.82,3.3,3.32,5.74l0,0c0.71-2.39,3.12-3.93,5.64-3.49l0,0c2.52,0.431,4.28,2.681,4.15,5.181l0,0
					c0.34-2.48,2.49-4.36,5.06-4.301l0,0c2.76,0.061,4.94,2.34,4.89,5.101l0,0c-0.06,2.729-2.29,4.899-5,4.899l0,0
					C271.32,373.689,271.29,373.689,271.25,373.689z M436.42,368.95c-0.16-2.761,1.94-5.12,4.7-5.28l0,0l0,0l0,0
					c2.2-0.13,4.15,1.189,4.93,3.13l0,0c-0.3-2.07,0.73-4.19,2.7-5.18l0,0c1.97-0.99,4.28-0.561,5.77,0.909l0,0
					c-1.1-1.779-0.99-4.14,0.42-5.829l0,0l0,0l0,0c1.42-1.7,3.72-2.21,5.66-1.45l0,0c-1.71-1.2-2.55-3.4-1.92-5.51l0,0l0,0l0,0
					c0.64-2.181,2.65-3.601,4.82-3.591l0,0c-2.3-0.449-4.02-2.47-4.02-4.899l0,0c0-2.74,2.2-4.96,4.93-5l0,0
					c-0.14-0.01-0.29-0.03-0.43-0.061l0,0c-2.72-0.51-4.51-3.12-4-5.84l0,0c0.51-2.71,3.13-4.5,5.84-3.99l0,0
					c0.15,0.03,0.29,0.061,0.43,0.101l0,0c-0.13-0.07-0.25-0.141-0.37-0.23l0,0c-2.29-1.54-2.89-4.649-1.34-6.939l0,0l0,0l0,0
					c1.55-2.28,4.66-2.88,6.95-1.33l0,0c0.12,0.08,0.24,0.17,0.35,0.26l0,0c-0.09-0.12-0.17-0.24-0.25-0.36l0,0
					c-1.49-2.33-0.81-5.42,1.51-6.899l0,0c0,0,0,0,0-0.01l0,0c2.33-1.49,5.42-0.801,6.91,1.52l0,0c0.08,0.12,0.15,0.25,0.22,0.37
					l0,0c-0.04-0.13-0.07-0.28-0.09-0.42l0,0c-0.44-2.73,1.42-5.29,4.15-5.73l0,0c2.73-0.439,5.29,1.42,5.72,4.15l0,0
					c0.03,0.14,0.04,0.27,0.05,0.41l0,0c0.04-2.73,2.26-4.931,5-4.931l0,0c2.77,0,5,2.24,5,5l0,0c0,2.761-2.23,5-5,5l0,0
					c-2.63,0-4.78-2.029-4.98-4.609l0,0c-0.04,2.38-1.78,4.47-4.21,4.859l0,0c-2.18,0.341-4.25-0.77-5.22-2.609l0,0
					c0.51,2.02-0.3,4.229-2.16,5.42l0,0c-1.86,1.189-4.21,0.99-5.84-0.33l0,0c1.28,1.66,1.41,4.02,0.17,5.85l0,0
					c-1.24,1.83-3.47,2.57-5.48,2.011l0,0c1.82,1.02,2.88,3.13,2.47,5.29l0,0c-0.44,2.38-2.51,4.05-4.84,4.079l0,0
					c2.53,0.24,4.51,2.381,4.51,4.971l0,0c0,2.76-2.24,5-5,5l0,0c-0.01,0-0.02,0-0.04,0l0,0c0.15,0.029,0.3,0.069,0.45,0.109l0,0
					c2.65,0.78,4.16,3.57,3.38,6.21l0,0c-0.79,2.65-3.57,4.16-6.21,3.381l0,0c-0.15-0.04-0.29-0.091-0.42-0.141l0,0
					c0.12,0.08,0.23,0.17,0.34,0.26l0,0c2.12,1.771,2.4,4.931,0.63,7.051l0,0c-1.77,2.109-4.92,2.39-7.04,0.62l0,0
					c-0.11-0.091-0.22-0.19-0.32-0.29l0,0c0.08,0.13,0.15,0.25,0.21,0.38l0,0c1.25,2.47,0.26,5.47-2.21,6.72l0,0
					c-2.46,1.24-5.47,0.25-6.71-2.21l0,0c-0.07-0.13-0.13-0.271-0.19-0.4l0,0c0.03,0.141,0.04,0.29,0.05,0.431l0,0
					c0.16,2.76-1.95,5.12-4.7,5.279l0,0c-0.1,0.011-0.2,0.011-0.3,0.011l0,0C438.77,373.66,436.57,371.609,436.42,368.95z
					 M722.01,359.97c0-2.77,2.23-5.01,5-5.01l0,0c2.76,0,5,2.24,5,5.01l0,0c0,2.76-2.24,5-5,5l0,0
					C724.24,364.97,722.01,362.729,722.01,359.97z M722.01,349.96c0-2.76,2.23-5,5-5l0,0c2.76,0,5,2.24,5,5l0,0c0,2.76-2.24,5-5,5
					l0,0C724.24,354.96,722.01,352.72,722.01,349.96z M722.01,339.96c0-2.51,1.84-4.58,4.25-4.95l0,0
					c-2.23-0.02-4.26-1.55-4.81-3.81v-0.011c-0.52-2.14,0.42-4.29,2.19-5.41l0,0c-1.98,0.671-4.25,0.04-5.58-1.72l0,0
					c-1.33-1.76-1.32-4.109-0.14-5.84l0,0c-1.56,1.4-3.89,1.72-5.81,0.63l0,0c-1.92-1.09-2.84-3.26-2.44-5.31l0,0
					c-0.87,1.899-2.88,3.12-5.08,2.89l0,0c-2.55-0.27-4.44-2.41-4.47-4.91l0,0c-0.11,2.67-2.3,4.8-5,4.8l0,0c-2.76,0-5-2.239-5-5
					l0,0c0-2.76,2.24-5,5-5l0,0c2.75,0,4.97,2.21,5,4.95l0,0c0.01-0.12,0.02-0.229,0.03-0.34l0,0c0.29-2.75,2.75-4.74,5.5-4.439l0,0
					c2.75,0.289,4.73,2.75,4.44,5.5l0,0c-0.01,0.149-0.03,0.289-0.06,0.43l0,0c0.06-0.13,0.12-0.26,0.2-0.391l0,0
					c1.36-2.399,4.41-3.239,6.81-1.88l0,0c2.4,1.36,3.25,4.41,1.89,6.82l0,0c-0.08,0.12-0.15,0.25-0.23,0.36l0,0
					c0.1-0.09,0.21-0.181,0.33-0.271l0,0c2.2-1.67,5.33-1.24,7,0.97l0,0c1.67,2.2,1.23,5.33-0.97,7l0,0
					c-0.11,0.091-0.23,0.171-0.35,0.24l0,0c0.14-0.04,0.28-0.08,0.42-0.12l0,0c2.68-0.649,5.39,1,6.04,3.681l0,0l0,0l0,0
					c0.65,2.68-0.99,5.39-3.68,6.04l0,0c-0.14,0.04-0.29,0.069-0.44,0.09l0,0c2.74,0.02,4.96,2.25,4.96,5l0,0c0,2.76-2.24,5-5,5l0,0
					C724.24,344.96,722.01,342.72,722.01,339.96z M680.12,311.319c0-2.76,2.24-5,5-5l0,0c2.76,0,5,2.24,5,5l0,0c0,2.761-2.24,5-5,5
					l0,0C682.36,316.319,680.12,314.08,680.12,311.319z M670.12,311.319c0-2.76,2.24-5,5-5l0,0c2.76,0,5,2.24,5,5l0,0
					c0,2.761-2.24,5-5,5l0,0C672.36,316.319,670.12,314.08,670.12,311.319z M660.11,311.319c0-2.76,2.24-5,5-5l0,0
					c2.77,0,5.01,2.24,5.01,5l0,0c0,2.761-2.24,5-5.01,5l0,0C662.35,316.319,660.11,314.08,660.11,311.319z M650.11,311.319
					c0-2.76,2.24-5,5-5l0,0c2.76,0,5,2.24,5,5l0,0c0,2.761-2.24,5-5,5l0,0C652.35,316.319,650.11,314.08,650.11,311.319z
					 M640.11,311.319c0-2.76,2.24-5,5-5l0,0c2.76,0,5,2.24,5,5l0,0c0,2.761-2.24,5-5,5l0,0
					C642.35,316.319,640.11,314.08,640.11,311.319z M630.11,311.319c0-2.76,2.23-5,5-5l0,0c2.76,0,5,2.24,5,5l0,0
					c0,2.761-2.24,5-5,5l0,0C632.34,316.319,630.11,314.08,630.11,311.319z M620.1,311.319c0-2.76,2.24-5,5-5l0,0c2.76,0,5,2.24,5,5
					l0,0c0,2.761-2.24,5-5,5l0,0C622.34,316.319,620.1,314.08,620.1,311.319z M610.1,311.319c0-2.76,2.24-5,5-5l0,0
					c2.76,0,5,2.24,5,5l0,0c0,2.761-2.24,5-5,5l0,0C612.34,316.319,610.1,314.08,610.1,311.319z M600.1,311.319c0-2.76,2.23-5,5-5
					l0,0c2.76,0,5,2.24,5,5l0,0c0,2.761-2.24,5-5,5l0,0C602.33,316.319,600.1,314.08,600.1,311.319z M590.09,311.319
					c0-2.76,2.24-5,5-5l0,0c2.77,0,5,2.24,5,5l0,0c0,2.761-2.23,5-5,5l0,0C592.33,316.319,590.09,314.08,590.09,311.319z
					 M580.09,311.319c0-2.76,2.24-5,5-5l0,0c2.76,0,5,2.24,5,5l0,0c0,2.761-2.24,5-5,5l0,0
					C582.33,316.319,580.09,314.08,580.09,311.319z M570.09,311.319c0-2.76,2.24-5,5-5l0,0c2.76,0,5,2.24,5,5l0,0
					c0,2.761-2.24,5-5,5l0,0C572.33,316.319,570.09,314.08,570.09,311.319z M560.09,311.319c0-2.76,2.23-5,4.99-5l0,0
					c2.77,0,5,2.24,5,5l0,0c0,2.761-2.23,5-5,5l0,0C562.32,316.319,560.09,314.08,560.09,311.319z M550.08,311.319
					c0-2.76,2.24-5,5-5l0,0c2.76,0,5,2.24,5,5l0,0c0,2.761-2.24,5-5,5l0,0C552.32,316.319,550.08,314.08,550.08,311.319z
					 M540.08,311.319c0-2.76,2.24-5,5-5l0,0c2.76,0,5,2.24,5,5l0,0c0,2.761-2.24,5-5,5l0,0
					C542.32,316.319,540.08,314.08,540.08,311.319z M530.08,311.319c0-2.76,2.23-5,5-5l0,0c2.76,0,5,2.24,5,5l0,0
					c0,2.761-2.24,5-5,5l0,0C532.31,316.319,530.08,314.08,530.08,311.319z M520.07,311.319c0-2.76,2.24-5,5-5l0,0
					c2.76,0,5,2.24,5,5l0,0c0,2.761-2.24,5-5,5l0,0C522.31,316.319,520.07,314.08,520.07,311.319z M510.07,311.319
					c0-2.76,2.24-5,5-5l0,0c2.76,0,5,2.24,5,5l0,0c0,2.761-2.24,5-5,5l0,0C512.31,316.319,510.07,314.08,510.07,311.319z
					 M500.07,311.319c0-2.76,2.23-5,5-5l0,0c2.76,0,5,2.24,5,5l0,0c0,2.761-2.24,5-5,5l0,0
					C502.3,316.319,500.07,314.08,500.07,311.319z M200.93,285.41c0-2.761,2.24-5,5-5l0,0c2.76,0,5,2.239,5,5l0,0c0,2.76-2.24,5-5,5
					l0,0C203.17,290.41,200.93,288.17,200.93,285.41z M200.93,275.41c0-2.44,1.75-4.48,4.06-4.92l0,0
					c-2.33,0.09-4.47-1.471-5.04-3.82l0,0c-0.57-2.36,0.64-4.73,2.75-5.71l0,0c-2.23,0.67-4.7-0.311-5.84-2.44v-0.01
					c-1.14-2.14-0.57-4.72,1.23-6.2l0,0c-2,1.19-4.63,0.851-6.25-0.939l0,0c-1.63-1.801-1.71-4.471-0.31-6.341l0,0
					c-1.65,1.66-4.29,1.99-6.32,0.641l0,0c-2.02-1.34-2.75-3.891-1.87-6.05l0,0c-1.18,2.01-3.66,2.97-5.95,2.17l0,0
					c-2.29-0.8-3.63-3.101-3.3-5.41l0,0c-0.65,2.25-2.81,3.8-5.23,3.59l0,0c-2.6-0.22-4.57-2.41-4.57-4.97l0,0
					c-0.08,2.689-2.29,4.84-5,4.84l0,0c-2.76,0-5-2.24-5-5l0,0c0-2.76,2.24-5,5-5l0,0c2.76,0,5,2.24,5,5l0,0
					c0-0.09,0.01-0.18,0.02-0.28l0,0c0.23-2.75,2.65-4.79,5.4-4.55l0,0l0,0l0,0c2.75,0.23,4.79,2.65,4.56,5.4l0,0
					c-0.01,0.09-0.02,0.189-0.03,0.279l0,0c0.02-0.09,0.05-0.18,0.08-0.27l0,0c0.91-2.61,3.76-3.98,6.37-3.07l0,0
					c2.61,0.91,3.98,3.76,3.07,6.37l0,0c-0.02,0.08-0.06,0.16-0.09,0.24l0,0c0.05-0.07,0.09-0.15,0.14-0.22l0,0
					c1.53-2.301,4.63-2.931,6.93-1.4l0,0c2.3,1.53,2.93,4.63,1.4,6.93l0,0c-0.05,0.08-0.1,0.15-0.16,0.23l0,0
					c0.07-0.07,0.13-0.13,0.2-0.19l0,0c2.05-1.859,5.21-1.71,7.06,0.34l0,0c1.86,2.04,1.71,5.21-0.34,7.061l0,0
					c-0.06,0.06-0.13,0.109-0.19,0.17l0,0c0.07-0.05,0.14-0.09,0.22-0.13l0,0c2.44-1.29,5.47-0.36,6.76,2.08l0,0c0,0,0,0,0-0.011
					l0,0c1.3,2.44,0.37,5.471-2.07,6.771l0,0c-0.08,0.04-0.17,0.08-0.25,0.12l0,0c0.09-0.03,0.18-0.05,0.27-0.07l0,0
					c2.68-0.649,5.38,1,6.03,3.68l0,0c0.65,2.69-1,5.391-3.68,6.04l0,0c-0.08,0.021-0.16,0.03-0.24,0.051l0,0c0.06,0,0.12,0,0.18,0
					l0,0c2.76,0,5,2.239,5,5l0,0c0,2.76-2.24,5-5,5l0,0C203.17,280.41,200.93,278.17,200.93,275.41z M144.29,234.84
					c0-2.76,2.23-5,5-5l0,0c2.76,0,5,2.24,5,5l0,0c0,2.76-2.24,5-5,5l0,0C146.52,239.84,144.29,237.6,144.29,234.84z M134.28,234.84
					c0-2.76,2.24-5,5-5l0,0c2.76,0,5,2.24,5,5l0,0c0,2.76-2.24,5-5,5l0,0C136.52,239.84,134.28,237.6,134.28,234.84z M124.28,234.84
					c0-2.76,2.24-5,5-5l0,0c2.76,0,5,2.24,5,5l0,0c0,2.76-2.24,5-5,5l0,0C126.52,239.84,124.28,237.6,124.28,234.84z M114.28,234.84
					c0-2.76,2.24-5,5-5l0,0c2.76,0,5,2.24,5,5l0,0c0,2.76-2.24,5-5,5l0,0C116.52,239.84,114.28,237.6,114.28,234.84z M104.28,234.84
					c0-2.76,2.23-5,4.99-5l0,0c2.77,0,5,2.24,5,5l0,0c0,2.76-2.23,5-5,5l0,0C106.51,239.84,104.28,237.6,104.28,234.84z
					 M94.27,234.84c0-2.76,2.24-5,5-5l0,0c2.76,0,5,2.24,5,5l0,0c0,2.76-2.24,5-5,5l0,0C96.51,239.84,94.27,237.6,94.27,234.84z
					 M84.27,234.84c0-2.76,2.24-5,5-5l0,0c2.76,0,5,2.24,5,5l0,0c0,2.76-2.24,5-5,5l0,0C86.51,239.84,84.27,237.6,84.27,234.84z
					 M74.27,234.84c0-2.76,2.23-5,5-5l0,0c2.76,0,5,2.24,5,5l0,0c0,2.76-2.24,5-5,5l0,0C76.5,239.84,74.27,237.6,74.27,234.84z
					 M64.26,234.84c0-2.76,2.24-5,5-5l0,0c2.76,0,5,2.24,5,5l0,0c0,2.76-2.24,5-5,5l0,0C66.5,239.84,64.26,237.6,64.26,234.84z
					 M54.26,234.84c0-2.76,2.24-5,5-5l0,0c2.76,0,5,2.24,5,5l0,0c0,2.76-2.24,5-5,5l0,0C56.5,239.84,54.26,237.6,54.26,234.84z
					 M44.26,234.84c0-2.76,2.23-5,5-5l0,0c2.76,0,5,2.24,5,5l0,0c0,2.76-2.24,5-5,5l0,0C46.49,239.84,44.26,237.6,44.26,234.84z
					 M34.25,234.84c0-2.76,2.24-5,5-5l0,0c2.77,0,5,2.24,5,5l0,0c0,2.76-2.23,5-5,5l0,0C36.49,239.84,34.25,237.6,34.25,234.84z
					 M24.25,234.84c0-2.76,2.24-5,5-5l0,0c2.76,0,5,2.24,5,5l0,0c0,2.76-2.24,5-5,5l0,0C26.49,239.84,24.25,237.6,24.25,234.84z
					 M14.25,234.84c0-2.76,2.24-5,5-5l0,0c2.76,0,5,2.24,5,5l0,0c0,2.76-2.24,5-5,5l0,0C16.49,239.84,14.25,237.6,14.25,234.84z
					 M4.24,234.84c0-2.76,2.24-5,5-5l0,0c2.77,0,5,2.24,5,5l0,0c0,2.76-2.23,5-5,5l0,0C6.48,239.84,4.24,237.6,4.24,234.84z
					 M-5.76,234.84c0-2.76,2.24-5,5-5l0,0c2.76,0,5,2.24,5,5l0,0c0,2.76-2.24,5-5,5l0,0C-3.52,239.84-5.76,237.6-5.76,234.84z
					 M-15.76,234.84c0-2.76,2.24-5,5-5l0,0c2.76,0,5,2.24,5,5l0,0c0,2.76-2.24,5-5,5l0,0C-13.52,239.84-15.76,237.6-15.76,234.84z
					 M-25.76,234.84c0-0.01,0-0.021,0-0.03l0,0c-0.01,0.09-0.01,0.17-0.01,0.25l0,0c-0.2,2.75-2.58,4.83-5.34,4.641l0,0
					c-2.75-0.19-4.83-2.58-4.64-5.33l0,0c0-0.07,0.01-0.141,0.02-0.2l0,0c-0.02,0.06-0.03,0.13-0.05,0.189l0,0
					c-0.7,2.67-3.44,4.271-6.11,3.57l0,0c-2.67-0.7-4.27-3.439-3.56-6.1l0,0c0.01-0.07,0.03-0.13,0.05-0.19l0,0
					c-0.03,0.061-0.05,0.12-0.08,0.17l0,0c-1.19,2.5-4.17,3.55-6.67,2.36l0,0c-2.49-1.19-3.55-4.17-2.36-6.66l0,0
					c0.03-0.06,0.06-0.12,0.09-0.18l0,0c-0.03,0.05-0.07,0.109-0.11,0.16l0,0c-1.63,2.229-4.76,2.71-6.99,1.079v-0.01
					c-2.23-1.63-2.71-4.76-1.07-6.979l0,0c0.04-0.061,0.08-0.12,0.12-0.17l0,0c-0.04,0.05-0.09,0.1-0.15,0.149l0,0
					c-2.01,1.88-5.18,1.78-7.06-0.24l0,0c-1.89-2.02-1.78-5.18,0.23-7.069l0,0c0.05-0.05,0.11-0.09,0.16-0.141l0,0
					c-0.06,0.04-0.12,0.08-0.18,0.12l0,0c-2.33,1.48-5.42,0.79-6.9-1.54l0,0c-1.48-2.33-0.79-5.42,1.54-6.899l0,0
					c0.06-0.04,0.13-0.08,0.19-0.12l0,0c-0.07,0.03-0.13,0.06-0.2,0.09l0,0c-2.57,1.02-5.48-0.23-6.5-2.8l0,0
					c-1.01-2.57,0.24-5.47,2.81-6.49l0,0c0.05-0.03,0.11-0.05,0.17-0.07l0,0c-0.06,0.011-0.12,0.03-0.18,0.04l0,0
					c-2.71,0.521-5.34-1.26-5.85-3.97l0,0c-0.53-2.71,1.25-5.33,3.96-5.85l0,0c0.06-0.011,0.12-0.021,0.18-0.03l0,0
					c-0.06,0-0.12,0-0.18,0l0,0c-2.76,0.01-5.01-2.22-5.02-4.98l0,0c-0.01-2.529,1.86-4.619,4.29-4.97l0,0
					c-2.44,0.09-4.63-1.62-5.09-4.09l0,0c-0.45-2.47,0.99-4.85,3.29-5.63l0,0c-2.37,0.53-4.84-0.74-5.75-3.08l0,0
					c-0.9-2.33,0.06-4.93,2.17-6.14l0,0c-2.23,0.96-4.89,0.17-6.22-1.95l0,0c-1.33-2.13-0.85-4.88,1.01-6.46l0,0
					c-2.01,1.38-4.79,1.109-6.49-0.75v0.01c-1.71-1.86-1.75-4.65-0.21-6.54l0,0c-1.72,1.73-4.5,1.97-6.52,0.47l0,0
					c-2.01-1.51-2.57-4.239-1.41-6.39l0,0c-1.37,2.02-4.06,2.78-6.32,1.67l0,0c-2.26-1.1-3.31-3.67-2.57-6l0,0
					c-0.98,2.24-3.47,3.48-5.89,2.82l0,0c-2.42-0.65-3.94-2.98-3.66-5.391l0,0c-0.55,2.37-2.76,4.051-5.26,3.851l0,0
					c-2.64-0.2-4.64-2.42-4.61-5.03l0,0c-0.06,2.71-2.28,4.89-5,4.89l0,0c-2.76,0-5-2.239-5-5l0,0c0-2.76,2.24-5,5-5l0,0
					c2.76,0,5,2.24,5,5l0,0c0,0.021,0,0.03,0,0.051l0,0c0-0.091,0-0.181,0.01-0.28l0,0c0.21-2.75,2.62-4.811,5.37-4.601l0,0
					c2.76,0.221,4.81,2.62,4.6,5.37l0,0c0,0.07-0.01,0.141-0.02,0.2l0,0c0.02-0.06,0.03-0.13,0.05-0.189l0,0
					c0.72-2.671,3.47-4.24,6.14-3.521l0,0l0,0l0,0c2.66,0.73,4.23,3.47,3.51,6.14l0,0c-0.02,0.07-0.04,0.141-0.06,0.2l0,0
					c0.03-0.06,0.06-0.13,0.09-0.189l0,0c1.21-2.48,4.2-3.521,6.69-2.301l0,0c2.48,1.2,3.51,4.2,2.3,6.681l0,0
					c-0.03,0.069-0.07,0.13-0.1,0.2l0,0c0.04-0.061,0.08-0.12,0.13-0.181l0,0c1.65-2.21,4.78-2.67,6.99-1.02l0,0
					c2.22,1.649,2.67,4.79,1.02,7l0,0c-0.04,0.06-0.09,0.109-0.13,0.17l0,0c0.05-0.05,0.1-0.101,0.15-0.15l0,0
					c2.03-1.87,5.2-1.739,7.07,0.29l0,0c1.87,2.04,1.74,5.2-0.3,7.07l0,0c-0.05,0.05-0.11,0.1-0.16,0.14l0,0
					c0.06-0.04,0.12-0.08,0.18-0.12l0,0c2.34-1.46,5.43-0.75,6.89,1.601l0,0c1.46,2.34,0.75,5.43-1.6,6.89l0,0
					c-0.05,0.03-0.1,0.061-0.15,0.09l0,0c0.05-0.02,0.11-0.04,0.17-0.069l0,0c2.57-0.99,5.47,0.279,6.46,2.859l0,0l0,0l0,0
					c1,2.57-0.27,5.471-2.85,6.471l0,0c-0.07,0.02-0.13,0.05-0.2,0.069l0,0c0.07-0.02,0.14-0.029,0.21-0.04l0,0
					c2.71-0.5,5.32,1.29,5.82,4.011l0,0l0,0l0,0c0.5,2.72-1.3,5.319-4.02,5.819l0,0c-0.06,0.01-0.13,0.021-0.2,0.03l0,0
					c0.05,0,0.11,0,0.16,0l0,0c2.76-0.01,5.01,2.22,5.02,4.979l0,0c0.01,2.5-1.82,4.58-4.22,4.96l0,0
					c2.42-0.09,4.62,1.601,5.1,4.051l0,0c0.47,2.46-0.95,4.84-3.23,5.66l0,0c2.36-0.551,4.83,0.699,5.76,3.029l0,0
					c0.93,2.34-0.03,4.95-2.15,6.17l0,0c2.23-1,4.92-0.229,6.26,1.891l0,0c1.35,2.12,0.9,4.87-0.95,6.46l0,0
					c2.01-1.391,4.78-1.141,6.5,0.7l0,0l0,0l0,0c1.72,1.84,1.78,4.619,0.26,6.529l0,0c1.71-1.74,4.49-2.01,6.52-0.52l0,0
					c2.02,1.479,2.6,4.2,1.47,6.35l0,0c1.36-2.01,4.03-2.78,6.29-1.7l0,0c2.26,1.08,3.34,3.63,2.64,5.95l0,0
					c0.96-2.22,3.43-3.479,5.85-2.84l0,0l0,0l0,0c2.43,0.64,3.97,2.95,3.7,5.37l0,0c0.53-2.38,2.73-4.08,5.23-3.91l0,0l0,0l0,0
					c2.65,0.19,4.67,2.39,4.66,5.01l0,0c0.06-2.71,2.27-4.89,5-4.89l0,0c2.76,0,4.99,2.24,4.99,5l0,0c0,2.76-2.23,5-4.99,5l0,0
					C-23.53,239.84-25.76,237.6-25.76,234.84z M-154.69,127.899c0-2.76,2.23-5,5-5l0,0c2.76,0,5,2.24,5,5l0,0c0,2.761-2.24,5-5,5
					l0,0C-152.46,132.899-154.69,130.66-154.69,127.899z M-164.7,127.899c0-2.76,2.24-5,5-5l0,0c2.76,0,5,2.24,5,5l0,0
					c0,2.761-2.24,5-5,5l0,0C-162.46,132.899-164.7,130.66-164.7,127.899z M-174.7,127.899c0-2.76,2.24-5,5-5l0,0c2.76,0,5,2.24,5,5
					l0,0c0,2.761-2.24,5-5,5l0,0C-172.46,132.899-174.7,130.66-174.7,127.899z M-184.7,127.899c0-2.76,2.24-5,5-5l0,0
					c2.76,0,5,2.24,5,5l0,0c0,2.761-2.24,5-5,5l0,0C-182.46,132.899-184.7,130.66-184.7,127.899z M-194.71,127.899
					c0-2.76,2.24-5,5-5l0,0c2.77,0,5,2.24,5,5l0,0c0,2.761-2.23,5-5,5l0,0C-192.47,132.899-194.71,130.66-194.71,127.899z
					 M-204.71,127.899c0-2.76,2.24-5,5-5l0,0c2.76,0,5,2.24,5,5l0,0c0,2.761-2.24,5-5,5l0,0
					C-202.47,132.899-204.71,130.66-204.71,127.899z M-214.71,127.899c0-2.76,2.24-5,5-5l0,0c2.76,0,5,2.24,5,5l0,0
					c0,2.761-2.24,5-5,5l0,0C-212.47,132.899-214.71,130.66-214.71,127.899z M-224.71,127.899c0-2.76,2.23-5,4.99-5l0,0
					c2.77,0,5,2.24,5,5l0,0c0,2.761-2.23,5-5,5l0,0C-222.48,132.899-224.71,130.66-224.71,127.899z M-234.72,127.899
					c0-2.76,2.24-5,5-5l0,0c2.76,0,5,2.24,5,5l0,0c0,2.761-2.24,5-5,5l0,0C-232.48,132.899-234.72,130.66-234.72,127.899z
					 M-244.72,127.899c0-2.76,2.24-5,5-5l0,0c2.76,0,5,2.24,5,5l0,0c0,2.761-2.24,5-5,5l0,0
					C-242.48,132.899-244.72,130.66-244.72,127.899z M-254.72,127.899c0-2.76,2.23-5,5-5l0,0c2.76,0,5,2.24,5,5l0,0
					c0,2.761-2.24,5-5,5l0,0C-252.49,132.899-254.72,130.66-254.72,127.899z"/>
			</g>
		</g>
	</g>
	<g style="opacity:0.35;">
		<g>
			
				<ellipse transform="matrix(0.5206 -0.8538 0.8538 0.5206 412.5749 873.5353)" style="opacity:0.6;fill-rule:evenodd;clip-rule:evenodd;fill:#FFAD38;enable-background:new    ;" cx="984.161" cy="69.374" rx="1.857" ry="1.856"/>
			
				<ellipse transform="matrix(0.5206 -0.8538 0.8538 0.5206 414.4479 880.4247)" style="opacity:0.6;fill-rule:evenodd;clip-rule:evenodd;fill:#FFAD38;enable-background:new    ;" cx="991.233" cy="71.151" rx="1.857" ry="1.856"/>
			
				<ellipse transform="matrix(0.5206 -0.8538 0.8538 0.5206 408.6941 879.7759)" style="opacity:0.6;fill-rule:evenodd;clip-rule:evenodd;fill:#FFAD38;enable-background:new    ;" cx="987.778" cy="75.95" rx="1.857" ry="1.856"/>
			
				<ellipse transform="matrix(0.5206 -0.8538 0.8538 0.5206 414.654 895.2871)" style="opacity:0.6;fill-rule:evenodd;clip-rule:evenodd;fill:#FFAD38;enable-background:new    ;" cx="1004.571" cy="78.399" rx="1.857" ry="1.856"/>
			
				<ellipse transform="matrix(0.5206 -0.8538 0.8538 0.5206 425.0466 888.7561)" style="opacity:0.6;fill-rule:evenodd;clip-rule:evenodd;fill:#FFAD38;enable-background:new    ;" cx="1003.951" cy="65.879" rx="1.857" ry="1.856"/>
		</g>
	</g>
	<g style="opacity:0.35;">
		<g>
			
				<ellipse transform="matrix(0.9672 -0.2541 0.2541 0.9672 9.7975 181.7134)" style="opacity:0.6;fill-rule:evenodd;clip-rule:evenodd;fill:#FFAD38;enable-background:new    ;" cx="708.304" cy="52.931" rx="1.856" ry="1.857"/>
			
				<ellipse transform="matrix(0.9672 -0.2541 0.2541 0.9672 10.9821 183.1582)" style="opacity:0.6;fill-rule:evenodd;clip-rule:evenodd;fill:#FFAD38;enable-background:new    ;" cx="714.489" cy="49.068" rx="1.856" ry="1.857"/>
			
				<ellipse transform="matrix(0.9672 -0.2541 0.2541 0.9672 9.5386 183.6191)" style="opacity:0.6;fill-rule:evenodd;clip-rule:evenodd;fill:#FFAD38;enable-background:new    ;" cx="715.551" cy="54.886" rx="1.856" ry="1.857"/>
			
				<ellipse transform="matrix(0.9672 -0.2541 0.2541 0.9672 12.6216 186.6849)" style="opacity:0.6;fill-rule:evenodd;clip-rule:evenodd;fill:#FFAD38;enable-background:new    ;" cx="728.96" cy="44.485" rx="1.856" ry="1.857"/>
			
				<ellipse transform="matrix(0.9672 -0.2541 0.2541 0.9672 14.4045 184.0133)" style="opacity:0.6;fill-rule:evenodd;clip-rule:evenodd;fill:#FFAD38;enable-background:new    ;" cx="719.51" cy="36.248" rx="1.856" ry="1.857"/>
		</g>
	</g>
</g>
<g id="Details">
	<g>
		<g>
			<g>
				<g>
					<defs>
						<path id="SVGID_1_" d="M460.151,68.888c-7.471,0-13.524,5.9-13.524,13.178c0,5.262,0,11.308,0,16.57
							c0,7.278,6.053,13.177,13.524,13.177c2.873,0,5.785,0,8.285,0c4.368,0,8.496,1.965,11.178,5.324
							c1.561,1.963,3.333,4.187,4.904,6.15c2.682,3.358,6.81,5.323,11.178,5.323c9.013,0,24.845,0,35.065,0
							c5.373,0,9.731-4.243,9.731-9.478c0-2.702,0-5.691,0-8.555c0-3.385,1.379-6.63,3.831-9.023
							c2.462-2.394,5.795-3.738,9.262-3.738c0.402,0,0.795,0,1.197,0c3.831,0,7.5-1.482,10.21-4.121
							c2.711-2.639,4.233-6.218,4.233-9.949c0-0.262,0-0.524,0-0.787c0-7.77-6.465-14.071-14.444-14.071
							C530.885,68.888,483.436,68.888,460.151,68.888z"/>
					</defs>
					<clipPath id="SVGID_00000064349310551913232520000011818668452745041300_">
						<use xlink:href="#SVGID_1_"  style="overflow:visible;"/>
					</clipPath>
					
						<path style="clip-path:url(#SVGID_00000064349310551913232520000011818668452745041300_);fill-rule:evenodd;clip-rule:evenodd;fill:#00D1C7;" d="
						M460.151,68.888c-7.471,0-13.524,5.9-13.524,13.178c0,5.262,0,11.308,0,16.57c0,7.278,6.053,13.177,13.524,13.177
						c2.873,0,5.785,0,8.285,0c4.368,0,8.496,1.965,11.178,5.324c1.561,1.963,3.333,4.187,4.904,6.15
						c2.682,3.358,6.81,5.323,11.178,5.323c9.013,0,24.845,0,35.065,0c5.373,0,9.731-4.243,9.731-9.478c0-2.702,0-5.691,0-8.555
						c0-3.385,1.379-6.63,3.831-9.023c2.462-2.394,5.795-3.738,9.262-3.738c0.402,0,0.795,0,1.197,0c3.831,0,7.5-1.482,10.21-4.121
						c2.711-2.639,4.233-6.218,4.233-9.949c0-0.262,0-0.524,0-0.787c0-7.77-6.465-14.071-14.444-14.071
						C530.885,68.888,483.436,68.888,460.151,68.888z"/>
				</g>
				<g>
					<defs>
						<path id="SVGID_00000175288396160395909730000003844930705077579185_" d="M460.151,68.888c-7.471,0-13.524,5.9-13.524,13.178
							c0,5.262,0,11.308,0,16.57c0,7.278,6.053,13.177,13.524,13.177c2.873,0,5.785,0,8.285,0c4.368,0,8.496,1.965,11.178,5.324
							c1.561,1.963,3.333,4.187,4.904,6.15c2.682,3.358,6.81,5.323,11.178,5.323c9.013,0,24.845,0,35.065,0
							c5.373,0,9.731-4.243,9.731-9.478c0-2.702,0-5.691,0-8.555c0-3.385,1.379-6.63,3.831-9.023
							c2.462-2.394,5.795-3.738,9.262-3.738c0.402,0,0.795,0,1.197,0c3.831,0,7.5-1.482,10.21-4.121
							c2.711-2.639,4.233-6.218,4.233-9.949c0-0.262,0-0.524,0-0.787c0-7.77-6.465-14.071-14.444-14.071
							C530.885,68.888,483.436,68.888,460.151,68.888z"/>
					</defs>
					<clipPath id="SVGID_00000048502258800012095400000008763333878187975553_">
						<use xlink:href="#SVGID_00000175288396160395909730000003844930705077579185_"  style="overflow:visible;"/>
					</clipPath>
					
						<path style="clip-path:url(#SVGID_00000048502258800012095400000008763333878187975553_);fill-rule:evenodd;clip-rule:evenodd;fill:#00E7E0;" d="
						M460.151,73.742c-7.471,0-13.524,5.9-13.524,13.178c0,5.262,0,11.308,0,16.57c0,7.278,6.053,13.177,13.524,13.177
						c2.873,0,5.785,0,8.285,0c4.368,0,8.496,1.965,11.178,5.324c1.561,1.963,3.333,4.187,4.904,6.15
						c2.682,3.358,6.81,5.323,11.178,5.323c9.013,0,24.845,0,35.065,0c5.373,0,9.731-4.243,9.731-9.478c0-2.702,0-5.691,0-8.555
						c0-3.385,1.379-6.63,3.831-9.023c2.462-2.394,5.795-3.738,9.262-3.738c0.402,0,0.795,0,1.197,0c3.831,0,7.5-1.482,10.21-4.121
						c2.711-2.639,4.233-6.218,4.233-9.949c0-0.262,0-0.524,0-0.787c0-7.77-6.465-14.071-14.444-14.071
						C530.885,73.742,483.436,73.742,460.151,73.742z"/>
				</g>
			</g>
			
				<line style="fill:none;stroke:#FFFFFF;stroke-width:1.8908;stroke-linecap:round;stroke-linejoin:round;stroke-miterlimit:1.5;" x1="524.87" y1="112.111" x2="518.261" y2="112.111"/>
			
				<line style="fill:none;stroke:#FFFFFF;stroke-width:1.8908;stroke-linecap:round;stroke-linejoin:round;stroke-miterlimit:1.5;" x1="499.211" y1="103.153" x2="496.481" y2="103.153"/>
			
				<line style="fill:none;stroke:#FFFFFF;stroke-width:1.8908;stroke-linecap:round;stroke-linejoin:round;stroke-miterlimit:1.5;" x1="504.086" y1="112.111" x2="511.834" y2="112.111"/>
			
				<line style="fill:none;stroke:#FFFFFF;stroke-width:1.8908;stroke-linecap:round;stroke-linejoin:round;stroke-miterlimit:1.5;" x1="487.363" y1="103.153" x2="486.903" y2="103.153"/>
			
				<line style="fill:none;stroke:#FFFFFF;stroke-width:1.8908;stroke-linecap:round;stroke-linejoin:round;stroke-miterlimit:1.5;" x1="515.388" y1="120.295" x2="518.127" y2="120.295"/>
			
				<line style="fill:none;stroke:#FFFFFF;stroke-width:1.8908;stroke-linecap:round;stroke-linejoin:round;stroke-miterlimit:1.5;" x1="456.981" y1="88.658" x2="463.59" y2="88.658"/>
			
				<line style="fill:none;stroke:#FFFFFF;stroke-width:1.8908;stroke-linecap:round;stroke-linejoin:round;stroke-miterlimit:1.5;" x1="477.765" y1="88.658" x2="470.016" y2="88.658"/>
			<g>
				
					<line style="fill:none;stroke:#FFFFFF;stroke-width:1.8908;stroke-linecap:round;stroke-linejoin:round;stroke-miterlimit:1.5;" x1="513.194" y1="102.354" x2="515.924" y2="102.354"/>
				
					<line style="fill:none;stroke:#FFFFFF;stroke-width:1.8908;stroke-linecap:round;stroke-linejoin:round;stroke-miterlimit:1.5;" x1="525.042" y1="102.354" x2="525.502" y2="102.354"/>
			</g>
			
				<line style="fill:none;stroke:#FFFFFF;stroke-width:1.8908;stroke-linecap:round;stroke-linejoin:round;stroke-miterlimit:1.5;" x1="466.463" y1="80.474" x2="463.724" y2="80.474"/>
		</g>
		<g>
			<path style="opacity:0.4;fill-rule:evenodd;clip-rule:evenodd;fill:#009388;enable-background:new    ;" d="M603.471,93.607
				H492.258c-2.037,0-3.704-1.667-3.704-3.704l0,0c0-2.037,1.667-3.704,3.704-3.704H603.47c2.037,0,3.704,1.667,3.704,3.704l0,0
				C607.174,91.94,605.508,93.607,603.471,93.607z"/>
			<rect x="498.248" y="79.728" style="fill-rule:evenodd;clip-rule:evenodd;fill:#987113;" width="5.324" height="10.175"/>
			<rect x="516.597" y="79.728" style="fill-rule:evenodd;clip-rule:evenodd;fill:#987113;" width="5.501" height="10.175"/>
			<rect x="534.965" y="79.728" style="fill-rule:evenodd;clip-rule:evenodd;fill:#987113;" width="5.679" height="10.175"/>
			<rect x="553.61" y="79.728" style="fill-rule:evenodd;clip-rule:evenodd;fill:#987113;" width="5.535" height="10.175"/>
			<rect x="572.145" y="79.728" style="fill-rule:evenodd;clip-rule:evenodd;fill:#987113;" width="5.358" height="10.175"/>
			<rect x="590.679" y="79.728" style="fill-rule:evenodd;clip-rule:evenodd;fill:#987113;" width="5.181" height="10.175"/>
			<rect x="498.248" y="82.356" style="fill-rule:evenodd;clip-rule:evenodd;fill:#74561F;" width="5.324" height="3.843"/>
			<rect x="516.616" y="82.356" style="fill-rule:evenodd;clip-rule:evenodd;fill:#74561F;" width="5.488" height="3.843"/>
			<rect x="534.965" y="82.356" style="fill-rule:evenodd;clip-rule:evenodd;fill:#74561F;" width="5.679" height="3.843"/>
			<rect x="553.61" y="82.356" style="fill-rule:evenodd;clip-rule:evenodd;fill:#74561F;" width="5.531" height="3.843"/>
			<rect x="572.145" y="82.356" style="fill-rule:evenodd;clip-rule:evenodd;fill:#74561F;" width="5.358" height="3.843"/>
			<rect x="590.679" y="82.356" style="fill-rule:evenodd;clip-rule:evenodd;fill:#74561F;" width="5.181" height="3.843"/>
			<rect x="492.262" y="76.94" style="fill-rule:evenodd;clip-rule:evenodd;fill:#987113;" width="111.206" height="5.556"/>
			<g>
				<path style="fill:#FDD245;" d="M595.86,76.94h-85.9c-8.239,0-14.917-6.679-14.917-14.917l0,0
					c0-8.239,6.679-14.917,14.917-14.917h85.9V76.94z"/>
				<path style="fill-rule:evenodd;clip-rule:evenodd;fill:#FDD245;" d="M586.593,27.063H556.62c-5.118,0-9.267,4.146-9.267,9.259
					v1.488c0,5.114-4.149,9.259-9.267,9.259h-18.549c-6.598,0-15.004,5.333-15.004,11.908c0,3.167,1.26,6.185,3.503,8.426
					c2.224,2.241,8.331,3.5,11.501,3.5c26.059,0,76.324,0,76.324,0V36.322C595.86,31.208,591.711,27.063,586.593,27.063z"/>
				<g>
					<path style="fill-rule:evenodd;clip-rule:evenodd;fill:#73FAF6;" d="M546.835,62.022c0-2.704-2.187-4.907-4.912-4.907
						c-8.099,0-23.462,0-31.561,0c-2.706,0-4.912,2.204-4.912,4.907c0,2.722,2.206,4.907,4.912,4.907c8.099,0,23.462,0,31.561,0
						C544.648,66.93,546.835,64.745,546.835,62.022z"/>
					<g>
						<g>
							<defs>
								<path id="SVGID_00000144318270035080170320000017139012305476850070_" d="M548.078,62.022c0-2.704-2.187-4.907-4.912-4.907
									c-8.099,0-27.236,0-35.336,0c-2.706,0-4.912,2.204-4.912,4.907c0,2.722,2.206,4.907,4.912,4.907c8.1,0,27.236,0,35.336,0
									C545.891,66.93,548.078,64.745,548.078,62.022z"/>
							</defs>
							<clipPath id="SVGID_00000116946957789203834900000012290148034588775334_">
								<use xlink:href="#SVGID_00000144318270035080170320000017139012305476850070_"  style="overflow:visible;"/>
							</clipPath>
							
								<polygon style="clip-path:url(#SVGID_00000116946957789203834900000012290148034588775334_);fill-rule:evenodd;clip-rule:evenodd;fill:#CEFFF9;" points="
								531.027,57.819 524.892,57.819 519.183,65.874 525.3,65.874 							"/>
						</g>
						<g>
							<defs>
								<path id="SVGID_00000054979744623698441120000006757721224646228116_" d="M548.078,62.022c0-2.704-2.187-4.907-4.912-4.907
									c-8.099,0-27.236,0-35.336,0c-2.706,0-4.912,2.204-4.912,4.907c0,2.722,2.206,4.907,4.912,4.907c8.1,0,27.236,0,35.336,0
									C545.891,66.93,548.078,64.745,548.078,62.022z"/>
							</defs>
							<clipPath id="SVGID_00000057843267008477607640000003667844291822790583_">
								<use xlink:href="#SVGID_00000054979744623698441120000006757721224646228116_"  style="overflow:visible;"/>
							</clipPath>
							
								<polygon style="clip-path:url(#SVGID_00000057843267008477607640000003667844291822790583_);fill-rule:evenodd;clip-rule:evenodd;fill:#CEFFF9;" points="
								543.315,57.819 537.18,57.819 531.471,65.874 537.588,65.874 							"/>
						</g>
					</g>
					<path style="fill:none;stroke:#FFB800;stroke-width:3.7053;stroke-linejoin:round;stroke-miterlimit:10;" d="M546.835,62.022
						c0-2.704-2.187-4.907-4.912-4.907c-8.099,0-23.462,0-31.561,0c-2.706,0-4.912,2.204-4.912,4.907
						c0,2.722,2.206,4.907,4.912,4.907c8.099,0,23.462,0,31.561,0C544.648,66.93,546.835,64.745,546.835,62.022z"/>
				</g>
				<g>
					<rect x="554.695" y="55.272" style="fill-rule:evenodd;clip-rule:evenodd;fill:#73FAF6;" width="33.671" height="21.668"/>
					<polygon style="fill-rule:evenodd;clip-rule:evenodd;fill:#CEFFF9;" points="588.372,62.903 588.372,58.776 581.345,58.776 
						568.466,76.94 578.419,76.94 					"/>
					<polygon style="fill-rule:evenodd;clip-rule:evenodd;fill:#CEFFF9;" points="577.219,59.21 571.079,59.21 558.532,76.94 
						564.648,76.94 					"/>
					<rect x="554.695" y="55.26" style="fill-rule:evenodd;clip-rule:evenodd;fill:#DA7700;" width="33.671" height="5.303"/>
					<rect x="569.226" y="58.776" style="fill-rule:evenodd;clip-rule:evenodd;fill:#DA7700;" width="5.56" height="18.164"/>
				</g>
				<g>
					<path style="fill:#EB7E00;" d="M566.785,49.883h-9.31c-1.535,0-2.78-1.243-2.78-2.778s1.245-2.778,2.78-2.778h9.31
						c1.535,0,2.78,1.243,2.78,2.778S568.32,49.883,566.785,49.883z"/>
				</g>
				<g>
					<path style="fill:#FFB800;" d="M585.592,39.095h-28.117c-1.535,0-2.78-1.243-2.78-2.778s1.245-2.778,2.78-2.778h28.117
						c1.535,0,2.78,1.243,2.78,2.778S587.127,39.095,585.592,39.095z"/>
				</g>
				<g>
					<path style="fill:#EB7E00;" d="M585.592,49.883h-9.31c-1.535,0-2.78-1.243-2.78-2.778s1.245-2.778,2.78-2.778h9.31
						c1.535,0,2.78,1.243,2.78,2.778S587.127,49.883,585.592,49.883z"/>
				</g>
			</g>
		</g>
	</g>
	<g>
		<g>
			<g>
				<g>
					<polygon style="fill:#FFFFFF;" points="1436.233,179.298 1330.962,179.298 1331.029,117.463 1383.598,95.229 1436.233,117.463 
											"/>
				</g>
				<g>
					<g>
						<defs>
							<polygon id="SVGID_00000043437540337425487950000006305787308278371976_" points="1436.233,179.298 1330.962,179.298 
								1330.962,115.442 1383.598,93.208 1436.233,115.442 							"/>
						</defs>
						<clipPath id="SVGID_00000072974248480110063540000004518753628754441919_">
							<use xlink:href="#SVGID_00000043437540337425487950000006305787308278371976_"  style="overflow:visible;"/>
						</clipPath>
						<g style="opacity:0.55;clip-path:url(#SVGID_00000072974248480110063540000004518753628754441919_);">
							
								<line style="fill:none;stroke:#FDEA91;stroke-width:4.0441;stroke-linecap:round;stroke-miterlimit:10;" x1="1332.339" y1="179.298" x2="1332.3" y2="92.791"/>
							
								<line style="fill:none;stroke:#FDEA91;stroke-width:4.0441;stroke-linecap:round;stroke-miterlimit:10;" x1="1343.73" y1="179.298" x2="1343.707" y2="92.791"/>
							
								<line style="fill:none;stroke:#FDEA91;stroke-width:4.0441;stroke-linecap:round;stroke-miterlimit:10;" x1="1355.121" y1="179.298" x2="1355.113" y2="92.791"/>
							
								<line style="fill:none;stroke:#FDEA91;stroke-width:4.0441;stroke-linecap:round;stroke-miterlimit:10;" x1="1366.512" y1="179.298" x2="1366.52" y2="92.791"/>
							
								<line style="fill:none;stroke:#FDEA91;stroke-width:4.0441;stroke-linecap:round;stroke-miterlimit:10;" x1="1377.902" y1="179.298" x2="1377.926" y2="92.791"/>
							
								<line style="fill:none;stroke:#FDEA91;stroke-width:4.0441;stroke-linecap:round;stroke-miterlimit:10;" x1="1389.293" y1="179.298" x2="1389.332" y2="92.791"/>
							
								<line style="fill:none;stroke:#FDEA91;stroke-width:4.0441;stroke-linecap:round;stroke-miterlimit:10;" x1="1400.684" y1="179.298" x2="1400.739" y2="92.791"/>
							
								<line style="fill:none;stroke:#FDEA91;stroke-width:4.0441;stroke-linecap:round;stroke-miterlimit:10;" x1="1412.075" y1="179.298" x2="1412.145" y2="92.791"/>
							
								<line style="fill:none;stroke:#FDEA91;stroke-width:4.0441;stroke-linecap:round;stroke-miterlimit:10;" x1="1423.466" y1="179.298" x2="1423.551" y2="92.791"/>
							
								<line style="fill:none;stroke:#FDEA91;stroke-width:4.0441;stroke-linecap:round;stroke-miterlimit:10;" x1="1434.856" y1="179.298" x2="1434.958" y2="92.791"/>
						</g>
					</g>
				</g>
				<g>
					<g>
						<defs>
							<polygon id="SVGID_00000183959317153634360710000014647307827416987056_" points="1436.233,179.298 1330.962,179.298 
								1331.029,115.442 1383.598,93.208 1436.233,115.442 							"/>
						</defs>
						<clipPath id="SVGID_00000131358351471978876520000001069238349543001528_">
							<use xlink:href="#SVGID_00000183959317153634360710000014647307827416987056_"  style="overflow:visible;"/>
						</clipPath>
						<path style="clip-path:url(#SVGID_00000131358351471978876520000001069238349543001528_);fill:#F7EBC2;" d="M1438.819,123.977
							c-0.463-1.198-1.469-2.105-2.709-2.443l-52.512-21.3l-52.512,21.3c-1.24,0.338-2.245,1.245-2.709,2.443l-2.33,6.025
							l57.551-21.739l57.551,21.739L1438.819,123.977z"/>
					</g>
				</g>
				<g>
					<path style="fill:#FFD500;" d="M1331.085,114.508l52.512-21.3v10.05l-55.221,21.739v-6.678c0-1.703,1.032-3.337,2.672-3.801
						C1331.061,114.515,1331.073,114.511,1331.085,114.508z"/>
					<path style="fill:#FFD500;" d="M1436.11,114.508l-52.512-21.3v10.05l55.221,21.739v-6.678c0-1.703-1.032-3.337-2.672-3.801
						C1436.135,114.515,1436.122,114.511,1436.11,114.508z"/>
				</g>
				<g>
					<path style="fill:#FFFFFF;" d="M1331.085,114.107l52.512-21.3v4.622l-55.221,21.739v-2.773c0-0.908,0.606-1.704,1.481-1.947
						L1331.085,114.107z"/>
					<path style="fill:#FFFFFF;" d="M1436.11,114.107l-52.512-21.3v4.622l55.221,21.739v-2.773c0-0.908-0.606-1.704-1.481-1.947
						L1436.11,114.107z"/>
				</g>
				<g>
					<g>
						<g>
							<g>
								<g>
									<g>
										<g>
											<defs>
												<polygon id="SVGID_00000138572308518737279850000011210386893072745122_" points="1364.657,163.581 1342.721,163.581 
													1342.721,148.041 1364.704,148.041 												"/>
											</defs>
											<clipPath id="SVGID_00000000921589705203580900000009740400703925826492_">
												<use xlink:href="#SVGID_00000138572308518737279850000011210386893072745122_"  style="overflow:visible;"/>
											</clipPath>
											<g style="clip-path:url(#SVGID_00000000921589705203580900000009740400703925826492_);">
												<polygon style="fill:#FFB600;" points="1366.634,153.429 1340.744,153.429 1340.155,144.546 1367.28,144.546 
																									"/>
											</g>
										</g>
									</g>
								</g>
							</g>
						</g>
					</g>
					<g>
						<g>
							<g>
								<g>
									<g>
										<g>
											<defs>
												<polygon id="SVGID_00000173155901183892425850000004342157137842095276_" points="1424.427,163.581 1402.492,163.581 
													1402.491,148.041 1424.475,148.041 												"/>
											</defs>
											<clipPath id="SVGID_00000040569249793086116340000008523405446535759249_">
												<use xlink:href="#SVGID_00000173155901183892425850000004342157137842095276_"  style="overflow:visible;"/>
											</clipPath>
											<g style="clip-path:url(#SVGID_00000040569249793086116340000008523405446535759249_);">
												<polygon style="fill:#FFB600;" points="1426.405,153.429 1400.515,153.429 1399.926,144.546 1427.051,144.546 
																									"/>
											</g>
										</g>
									</g>
								</g>
							</g>
						</g>
					</g>
				</g>
				<g>
					<g>
						<g>
							<g>
								<g>
									<polygon style="fill:#FFD500;" points="1399.486,135.854 1367.641,135.854 1367.641,120.314 1399.555,120.314 									"/>
								</g>
							</g>
							<g>
								<g>
									<defs>
										<polygon id="SVGID_00000023276247047596325350000007920577970429680001_" points="1399.486,135.854 1367.641,135.854 
											1367.641,120.314 1399.555,120.314 										"/>
									</defs>
									<clipPath id="SVGID_00000088106991136754284540000004859050191589433014_">
										<use xlink:href="#SVGID_00000023276247047596325350000007920577970429680001_"  style="overflow:visible;"/>
									</clipPath>
									<g style="clip-path:url(#SVGID_00000088106991136754284540000004859050191589433014_);">
										<polygon style="fill:#FFB600;" points="1402.357,125.702 1364.77,125.702 1363.916,116.819 1403.295,116.819 										
											"/>
									</g>
								</g>
							</g>
						</g>
						<g>
							<g>
								<rect x="1370.307" y="123.345" style="fill:#FFFFFF;" width="6.957" height="11.898"/>
							</g>
							<g>
								<rect x="1380.119" y="123.345" style="fill:#FFFFFF;" width="6.957" height="11.898"/>
							</g>
							<g>
								<rect x="1389.931" y="123.345" style="fill:#FFFFFF;" width="6.957" height="11.898"/>
							</g>
							<g>
								<rect x="1370.307" y="131.064" style="fill:#00D6C1;" width="6.957" height="3.76"/>
							</g>
							<g>
								<rect x="1380.119" y="131.064" style="fill:#00D6C1;" width="6.957" height="3.76"/>
							</g>
							<g>
								<rect x="1389.931" y="131.064" style="fill:#00D6C1;" width="6.957" height="3.76"/>
							</g>
						</g>
					</g>
					<g>
						
							<rect x="1367.11" y="135.854" style="fill:none;stroke:#FFB600;stroke-width:2.1177;stroke-miterlimit:10;" width="32.975" height="6.604"/>
						<g>
							
								<line style="fill:none;stroke:#FFB600;stroke-width:2.1177;stroke-miterlimit:10;" x1="1372.606" y1="135.854" x2="1372.606" y2="142.459"/>
							
								<line style="fill:none;stroke:#FFB600;stroke-width:2.1177;stroke-miterlimit:10;" x1="1378.102" y1="135.854" x2="1378.102" y2="142.459"/>
							
								<line style="fill:none;stroke:#FFB600;stroke-width:2.1177;stroke-miterlimit:10;" x1="1383.598" y1="135.854" x2="1383.598" y2="142.459"/>
							
								<line style="fill:none;stroke:#FFB600;stroke-width:2.1177;stroke-miterlimit:10;" x1="1389.094" y1="135.854" x2="1389.094" y2="142.459"/>
							
								<line style="fill:none;stroke:#FFB600;stroke-width:2.1177;stroke-miterlimit:10;" x1="1394.589" y1="135.854" x2="1394.589" y2="142.459"/>
						</g>
					</g>
				</g>
			</g>
		</g>
	</g>
	<g>
		<path style="opacity:0.3;fill:#FFAD38;enable-background:new    ;" d="M765.299,56.746h-61.505
			c-5.539,0-10.029-4.49-10.029-10.029l0,0c0-5.539,4.49-10.029,10.029-10.029h61.505c5.539,0,10.029,4.49,10.029,10.029l0,0
			C775.328,52.256,770.838,56.746,765.299,56.746z"/>
		<path style="fill:#FFFFFF;" d="M682.333-3.735c0.07-0.023,0.074-0.016,0.143-0.037c0.148-0.032,0.244-0.007,0.413,0.002
			c0.533,0.068,1.076,0.442,1.485,1.009c0.131,0.084,0.202,0.205,0.271,0.325c0.034,0.06,0.07,0.121,0.108,0.188l24.284,42.062
			l-3.535-0.012L682.107-0.719c-0.038-0.067-0.074-0.128-0.108-0.188c-0.105-0.181-0.213-0.368-0.253-0.577
			c-0.246-0.715-0.233-1.402,0.082-1.851c0.092-0.125,0.134-0.194,0.254-0.272c0.059-0.034,0.123-0.071,0.123-0.071
			C682.271-3.706,682.274-3.699,682.333-3.735z"/>
		<path style="fill:#5A93F2;" d="M715.158-0.342c-7.434-12.878-23.894-17.289-36.773-9.853
			c-12.877,7.435-17.287,23.896-9.853,36.774L715.158-0.342z"/>
		<rect x="719.51" y="34.862" style="fill:#28CCA3;" width="37.774" height="14.189"/>
		<g transform="matrix(0.628269,0,0,0.628269,1081.04,1908.9)">
			<g transform="matrix(0.919662,0,0,0.919662,-2136.18,3021.76)">
				<rect x="1726.142" y="-6551.679" style="fill:#071C1C;" width="7.264" height="9.443"/>
			</g>
			<g transform="matrix(0.919662,0,0,0.919662,-2110.66,3021.76)">
				<rect x="1718.55" y="-6551.679" style="fill:#071C1C;" width="7.264" height="9.443"/>
			</g>
			<g transform="matrix(1.10359,0,0,0.919662,-3032.13,3040.61)">
				<rect x="2258.151" y="-6557.288" style="fill:#844A85;" width="7.264" height="9.443"/>
			</g>
			<g transform="matrix(1.38372,0,-0.142946,1.25792,-3267.26,2265.1)">
				<path style="fill:#844A85;" d="M1538.828-4172.947c0,0-0.901,0-1.802,0c-1.039,0-1.83,0.857-1.83,1.998
					c0,4.293,0,13.983,0,13.983h3.632V-4172.947z"/>
			</g>
			<g transform="matrix(1.38372,0,-0.0500196,0.440173,-3504.96,4356.91)">
				<path style="fill:#F19322;" d="M1538.82-16677.611c0,0-0.901,0-1.802,0c-1.039,0-1.831,2.463-1.831,5.719
					c0,4.59,0,10.264,0,10.264h3.632L1538.82-16677.611z"/>
			</g>
			<g transform="matrix(0.943443,0,0,0.922478,-1710.19,3132.4)">
				<rect x="1228.146" y="-6610.922" style="fill:#844A85;" width="7.99" height="2.18"/>
			</g>
			<g transform="matrix(1.38372,0,0,1.38372,-3634.4,1943.32)">
				<path style="fill:#A15BA1;" d="M2251.202-3557.378c0.501,0,0.973-0.24,1.264-0.647c0.298-0.399,0.378-0.922,0.225-1.402
					c-1.133-3.515-3.334-10.337-3.334-10.337l-3.755,0.037l3.029,8.717h-6.901v3.632
					C2241.729-3557.378,2247.846-3557.378,2251.202-3557.378z"/>
			</g>
			<g transform="matrix(1.05594,0,0,1.05594,-2823.47,2654.2)">
				<rect x="2168.156" y="-5339.617" style="fill:#F19322;" width="7.99" height="4.846"/>
			</g>
			<g transform="matrix(0.492694,0,0,0.63132,1578.38,2175.34)">
				<path style="fill:#A15BA1;" d="M-4269.674-8192.532c0-3.008-3.131-5.447-6.981-5.447h-29.622c-3.851,0-6.981,2.439-6.981,5.447
					v10.896c0,3.007,3.13,5.448,6.981,5.448h29.622c3.85,0,6.981-2.441,6.981-5.448V-8192.532z"/>
			</g>
			<g transform="matrix(0.919662,0,0,0.919662,-1900.29,2795.75)">
				<path style="fill:#071C1C;" d="M1479.812-6297.117c0-0.356-0.283-0.639-0.632-0.639h-1.271c-0.355,0-0.639,0.283-0.639,0.639
					v4.169c0,0.356,0.284,0.639,0.639,0.639h1.271c0.349,0,0.632-0.283,0.632-0.639V-6297.117z"/>
			</g>
			<g transform="matrix(0.919662,0,0,0.919662,-1886.03,2795.75)">
				<path style="fill:#071C1C;" d="M1475.57-6297.117c0-0.356-0.284-0.639-0.632-0.639h-1.271c-0.355,0-0.639,0.283-0.639,0.639
					v4.169c0,0.356,0.284,0.639,0.639,0.639h1.271c0.348,0,0.632-0.283,0.632-0.639V-6297.117z"/>
			</g>
			<g transform="matrix(1.05594,0,0,1.05594,-2823.33,2653.67)">
				<path style="fill:#A15BA1;" d="M2155.407-5350.979c1.805,0,3.27,1.464,3.27,3.269c0,1.806-1.464,3.269-3.27,3.269
					s-3.268-1.463-3.268-3.269S2153.602-5350.979,2155.407-5350.979z"/>
			</g>
			<g transform="matrix(1.66322,0,0,1.03779,-4766.11,2633.8)">
				<path style="fill:#071C1C;" d="M2552.744-5434.656c0,0-10.904,0-15.284,0c-0.472,0-0.929,0.305-1.264,0.842
					c-0.334,0.53-0.523,1.264-0.523,2.027c0,1.46,0,2.942,0,2.942s10.591,0,15.087,0c0.53,0,1.031-0.334,1.402-0.93
					s0.581-1.402,0.581-2.252C2552.744-5433.378,2552.744-5434.656,2552.744-5434.656z"/>
			</g>
			<g transform="matrix(0.437468,0,0,0.991553,1670.76,322.83)">
				<path style="fill:#F19322;" d="M-5029.777-3335.126h-29.236c0,0-2.34,13.555-3.329,19.286c-0.117,0.646,0.394,1.286,1.388,1.758
					c1.002,0.479,2.404,0.747,3.872,0.747c6.909,0,18.465,0,25.374,0c1.468,0,2.87-0.268,3.872-0.747
					c0.995-0.472,1.503-1.112,1.387-1.758C-5027.438-3321.571-5029.777-3335.126-5029.777-3335.126z"/>
			</g>
			<g transform="matrix(0.138372,0,2.77556e-16,0.737982,2174.79,1653.15)">
				<path style="fill:#A15BA1;" d="M-19618.574-6269.443c0-0.979-2.084-1.925-5.803-2.622c-3.711-0.697-8.746-1.089-13.998-1.089
					c-1.32,0-2.66,0-3.975,0c-5.258,0-10.293,0.393-14.004,1.089c-3.719,0.697-5.803,1.643-5.803,2.622c0,6.226,0,18.081,0,18.081
					h43.582C-19618.574-6251.363-19618.574-6263.217-19618.574-6269.443z"/>
			</g>
			<g transform="matrix(0.0691858,0.119833,-0.677315,0.391048,5843.24,3263.7)">
				<path style="fill:#A15BA1;" d="M-61996.441,3069.835c0.004-1.932-8.871-3.501-19.801-3.501c-1.316,0-2.656,0-3.977,0
					c-10.938,0-19.805,1.57-19.805,3.502c0.004,6.167,0,18.29,0,18.29h43.586
					C-61996.438,3088.126-61996.438,3076.003-61996.441,3069.835z"/>
			</g>
			<g transform="matrix(1.38372,0,0,1.42694,-3634.4,1831.48)">
				<path style="fill:#A15BA1;" d="M2238.824-3360.174h-2.543v6.175c0,0,0.131,0,0.327,0c1.228,0,2.216-0.959,2.216-2.15
					C2238.824-3357.929,2238.824-3360.174,2238.824-3360.174z"/>
			</g>
			<g transform="matrix(5.55112e-17,1.38372,-1.42694,1.11022e-16,6095.43,-534.547)">
				<path style="fill:#A15BA1;" d="M-1750.762,4650.126h-2.543c0,0,0,2.245,0,4.024c0,1.191,0.995,2.149,2.215,2.149
					c0.204,0,0.327,0,0.327,0L-1750.762,4650.126L-1750.762,4650.126z"/>
			</g>
		</g>
	</g>
	<g>
		<g>
			<path style="fill:#1BAF10;" d="M1144.946,99.898c-0.87,0-1.575-0.706-1.575-1.579v-4.944c0-0.873,0.705-1.579,1.575-1.579
				s1.575,0.706,1.575,1.579v4.944C1146.522,99.191,1145.816,99.898,1144.946,99.898z"/>
		</g>
		<g>
			<path style="fill:#1BAF10;" d="M1151.523,99.898c-0.87,0-1.575-0.706-1.575-1.579v-3.295c0-0.873,0.705-1.579,1.575-1.579
				s1.575,0.706,1.575,1.579v3.295C1153.099,99.191,1152.393,99.898,1151.523,99.898z"/>
		</g>
		<g>
			<path style="fill:#1BAF10;" d="M1138.917,99.898c-0.87,0-1.575-0.706-1.575-1.579v-3.295c0-0.873,0.705-1.579,1.575-1.579
				s1.575,0.706,1.575,1.579v3.295C1140.492,99.191,1139.787,99.898,1138.917,99.898z"/>
		</g>
		<g>
			<path style="fill:#1BAF10;" d="M1162.692,112.946c-0.87,0-1.575-0.706-1.575-1.579v-4.944c0-0.873,0.705-1.579,1.575-1.579
				s1.575,0.706,1.575,1.579v4.944C1164.267,112.24,1163.562,112.946,1162.692,112.946z"/>
		</g>
		<g>
			<path style="fill:#1BAF10;" d="M1169.269,112.946c-0.87,0-1.575-0.706-1.575-1.579v-3.297c0-0.873,0.705-1.579,1.575-1.579
				s1.575,0.706,1.575,1.579v3.297C1170.844,112.24,1170.139,112.946,1169.269,112.946z"/>
		</g>
		<g>
			<path style="fill:#1BAF10;" d="M1156.663,112.946c-0.87,0-1.575-0.706-1.575-1.579v-3.297c0-0.873,0.705-1.579,1.575-1.579
				s1.575,0.706,1.575,1.579v3.297C1158.239,112.24,1157.533,112.946,1156.663,112.946z"/>
		</g>
		<g>
			<path style="fill:#1BAF10;" d="M1168.788,85.614c-0.87,0-1.575-0.706-1.575-1.579v-4.944c0-0.873,0.705-1.579,1.575-1.579
				s1.575,0.706,1.575,1.579v4.944C1170.364,84.908,1169.658,85.614,1168.788,85.614z"/>
		</g>
		<g>
			<path style="fill:#1BAF10;" d="M1175.366,85.614c-0.87,0-1.575-0.706-1.575-1.579v-3.297c0-0.873,0.705-1.579,1.575-1.579
				s1.575,0.706,1.575,1.579v3.297C1176.941,84.908,1176.236,85.614,1175.366,85.614z"/>
		</g>
		<g>
			<path style="fill:#1BAF10;" d="M1162.76,85.614c-0.87,0-1.575-0.706-1.575-1.579v-3.297c0-0.873,0.705-1.579,1.575-1.579
				s1.575,0.706,1.575,1.579v3.297C1164.335,84.908,1163.63,85.614,1162.76,85.614z"/>
		</g>
	</g>
	<g>
		<g>
			<path style="fill:#1BAF10;" d="M596.406,140.523c-0.87,0-1.575-0.706-1.575-1.579V134c0-0.873,0.705-1.579,1.575-1.579
				s1.575,0.706,1.575,1.579v4.944C597.982,139.816,597.276,140.523,596.406,140.523z"/>
		</g>
		<g>
			<path style="fill:#1BAF10;" d="M602.983,140.523c-0.87,0-1.575-0.706-1.575-1.579v-3.295c0-0.873,0.705-1.579,1.575-1.579
				s1.575,0.706,1.575,1.579v3.295C604.559,139.816,603.853,140.523,602.983,140.523z"/>
		</g>
		<g>
			<path style="fill:#1BAF10;" d="M590.377,140.523c-0.87,0-1.575-0.706-1.575-1.579v-3.295c0-0.873,0.705-1.579,1.575-1.579
				s1.575,0.706,1.575,1.579v3.295C591.953,139.816,591.247,140.523,590.377,140.523z"/>
		</g>
		<g>
			<path style="fill:#1BAF10;" d="M620.248,126.239c-0.87,0-1.575-0.706-1.575-1.579v-4.944c0-0.873,0.705-1.579,1.575-1.579
				s1.575,0.706,1.575,1.579v4.944C621.824,125.533,621.118,126.239,620.248,126.239z"/>
		</g>
		<g>
			<path style="fill:#1BAF10;" d="M626.826,126.239c-0.87,0-1.575-0.706-1.575-1.579v-3.297c0-0.873,0.705-1.579,1.575-1.579
				s1.575,0.706,1.575,1.579v3.297C628.401,125.533,627.696,126.239,626.826,126.239z"/>
		</g>
		<g>
			<path style="fill:#1BAF10;" d="M614.22,126.239c-0.87,0-1.575-0.706-1.575-1.579v-3.297c0-0.873,0.705-1.579,1.575-1.579
				s1.575,0.706,1.575,1.579v3.297C615.795,125.533,615.09,126.239,614.22,126.239z"/>
		</g>
	</g>
	<g>
		<g>
			<path style="fill:#1BAF10;" d="M323.995,4.668c0.87,0,1.575-0.706,1.575-1.579v-4.944c0-0.873-0.705-1.579-1.575-1.579
				c-0.87,0-1.575,0.706-1.575,1.579v4.944C322.42,3.962,323.125,4.668,323.995,4.668z"/>
		</g>
		<g>
			<path style="fill:#1BAF10;" d="M317.418,4.668c0.87,0,1.575-0.706,1.575-1.579v-3.295c0-0.873-0.705-1.579-1.575-1.579
				c-0.87,0-1.575,0.706-1.575,1.579v3.295C315.843,3.962,316.548,4.668,317.418,4.668z"/>
		</g>
		<g>
			<path style="fill:#1BAF10;" d="M330.024,4.668c0.87,0,1.575-0.706,1.575-1.579v-3.295c0-0.873-0.705-1.579-1.575-1.579
				c-0.87,0-1.575,0.706-1.575,1.579v3.295C328.449,3.962,329.154,4.668,330.024,4.668z"/>
		</g>
		<g>
			<path style="fill:#1BAF10;" d="M306.249,17.717c0.87,0,1.575-0.706,1.575-1.579v-4.944c0-0.873-0.705-1.579-1.575-1.579
				c-0.87,0-1.575,0.706-1.575,1.579v4.944C304.674,17.01,305.379,17.717,306.249,17.717z"/>
		</g>
		<g>
			<path style="fill:#1BAF10;" d="M299.672,17.717c0.87,0,1.575-0.706,1.575-1.579v-3.297c0-0.873-0.705-1.579-1.575-1.579
				s-1.575,0.706-1.575,1.579v3.297C298.097,17.01,298.802,17.717,299.672,17.717z"/>
		</g>
		<g>
			<path style="fill:#1BAF10;" d="M312.278,17.717c0.87,0,1.575-0.706,1.575-1.579v-3.297c0-0.873-0.705-1.579-1.575-1.579
				c-0.87,0-1.575,0.706-1.575,1.579v3.297C310.703,17.01,311.408,17.717,312.278,17.717z"/>
		</g>
	</g>
	<g style="opacity:0.3308;">
		<g>
			<path style="fill:#00703A;" d="M1282.891,70.966c-0.87,0-1.575-0.706-1.575-1.579v-4.944c0-0.873,0.705-1.579,1.575-1.579
				s1.575,0.706,1.575,1.579v4.944C1284.467,70.26,1283.761,70.966,1282.891,70.966z"/>
		</g>
		<g>
			<path style="fill:#00703A;" d="M1289.468,70.966c-0.87,0-1.575-0.706-1.575-1.579v-3.295c0-0.873,0.705-1.579,1.575-1.579
				s1.575,0.706,1.575,1.579v3.295C1291.044,70.26,1290.338,70.966,1289.468,70.966z"/>
		</g>
		<g>
			<path style="fill:#00703A;" d="M1276.862,70.966c-0.87,0-1.575-0.706-1.575-1.579v-3.295c0-0.873,0.705-1.579,1.575-1.579
				s1.575,0.706,1.575,1.579v3.295C1278.438,70.26,1277.732,70.966,1276.862,70.966z"/>
		</g>
		<g>
			<path style="fill:#00703A;" d="M1300.637,84.014c-0.87,0-1.575-0.706-1.575-1.579v-4.944c0-0.873,0.705-1.579,1.575-1.579
				s1.575,0.706,1.575,1.579v4.944C1302.212,83.308,1301.507,84.014,1300.637,84.014z"/>
		</g>
		<g>
			<path style="fill:#00703A;" d="M1307.214,84.014c-0.87,0-1.575-0.706-1.575-1.579v-3.297c0-0.873,0.705-1.579,1.575-1.579
				s1.575,0.706,1.575,1.579v3.297C1308.789,83.308,1308.084,84.014,1307.214,84.014z"/>
		</g>
		<g>
			<path style="fill:#00703A;" d="M1294.608,84.014c-0.87,0-1.575-0.706-1.575-1.579v-3.297c0-0.873,0.705-1.579,1.575-1.579
				s1.575,0.706,1.575,1.579v3.297C1296.184,83.308,1295.478,84.014,1294.608,84.014z"/>
		</g>
		<g>
			<path style="fill:#00703A;" d="M1306.733,56.683c-0.87,0-1.575-0.706-1.575-1.579V50.16c0-0.873,0.705-1.579,1.575-1.579
				s1.575,0.706,1.575,1.579v4.944C1308.309,55.976,1307.603,56.683,1306.733,56.683z"/>
		</g>
		<g>
			<path style="fill:#00703A;" d="M1313.311,56.683c-0.87,0-1.575-0.706-1.575-1.579v-3.297c0-0.873,0.705-1.579,1.575-1.579
				s1.575,0.706,1.575,1.579v3.297C1314.886,55.976,1314.181,56.683,1313.311,56.683z"/>
		</g>
		<g>
			<path style="fill:#00703A;" d="M1300.705,56.683c-0.87,0-1.575-0.706-1.575-1.579v-3.297c0-0.873,0.705-1.579,1.575-1.579
				s1.575,0.706,1.575,1.579v3.297C1302.28,55.976,1301.575,56.683,1300.705,56.683z"/>
		</g>
	</g>
	<g style="opacity:0.3308;">
		<g>
			<path style="fill:#00703A;" d="M143.675,93.326c-0.87,0-1.575-0.706-1.575-1.579v-4.944c0-0.873,0.705-1.579,1.575-1.579
				s1.575,0.706,1.575,1.579v4.944C145.25,92.62,144.545,93.326,143.675,93.326z"/>
		</g>
		<g>
			<path style="fill:#00703A;" d="M150.252,93.326c-0.87,0-1.575-0.706-1.575-1.579v-3.295c0-0.873,0.705-1.579,1.575-1.579
				s1.575,0.706,1.575,1.579v3.295C151.827,92.62,151.122,93.326,150.252,93.326z"/>
		</g>
		<g>
			<path style="fill:#00703A;" d="M137.646,93.326c-0.87,0-1.575-0.706-1.575-1.579v-3.295c0-0.873,0.705-1.579,1.575-1.579
				s1.575,0.706,1.575,1.579v3.295C139.221,92.62,138.516,93.326,137.646,93.326z"/>
		</g>
		<g>
			<path style="fill:#00703A;" d="M161.421,106.374c-0.87,0-1.575-0.706-1.575-1.579v-4.944c0-0.873,0.705-1.579,1.575-1.579
				s1.575,0.706,1.575,1.579v4.944C162.996,105.668,162.291,106.374,161.421,106.374z"/>
		</g>
		<g>
			<path style="fill:#00703A;" d="M167.998,106.374c-0.87,0-1.575-0.706-1.575-1.579v-3.297c0-0.873,0.705-1.579,1.575-1.579
				s1.575,0.706,1.575,1.579v3.297C169.573,105.668,168.868,106.374,167.998,106.374z"/>
		</g>
		<g>
			<path style="fill:#00703A;" d="M155.392,106.374c-0.87,0-1.575-0.706-1.575-1.579v-3.297c0-0.873,0.705-1.579,1.575-1.579
				s1.575,0.706,1.575,1.579v3.297C156.968,105.668,156.262,106.374,155.392,106.374z"/>
		</g>
		<g>
			<path style="fill:#00703A;" d="M167.517,79.043c-0.87,0-1.575-0.706-1.575-1.579V72.52c0-0.873,0.705-1.579,1.575-1.579
				s1.575,0.706,1.575,1.579v4.944C169.092,78.336,168.387,79.043,167.517,79.043z"/>
		</g>
		<g>
			<path style="fill:#00703A;" d="M174.095,79.043c-0.87,0-1.575-0.706-1.575-1.579v-3.297c0-0.873,0.705-1.579,1.575-1.579
				s1.575,0.706,1.575,1.579v3.297C175.67,78.336,174.965,79.043,174.095,79.043z"/>
		</g>
		<g>
			<path style="fill:#00703A;" d="M161.488,79.043c-0.87,0-1.575-0.706-1.575-1.579v-3.297c0-0.873,0.705-1.579,1.575-1.579
				s1.575,0.706,1.575,1.579v3.297C163.064,78.336,162.358,79.043,161.488,79.043z"/>
		</g>
	</g>
	<g>
		<path style="opacity:0.3;fill:#FFAD38;enable-background:new    ;" d="M885.17,80.613h-59.196
			c-6.176,0-11.183-5.007-11.183-11.183l0,0c0-6.176,5.007-11.183,11.183-11.183h59.196c6.176,0,11.183,5.007,11.183,11.183l0,0
			C896.353,75.606,891.346,80.613,885.17,80.613z"/>
		<rect x="836.627" y="54.858" style="fill:#FFFFFF;" width="43.583" height="15.057"/>
		<path style="fill:#F2C100;" d="M807.933,19.726c0.072-0.027,0.076-0.021,0.148-0.046c0.157-0.041,0.254-0.023,0.428-0.026
			c0.548,0.027,1.083,0.346,1.469,0.858c0.131,0.071,0.194,0.181,0.259,0.292c0.031,0.055,0.063,0.11,0.098,0.171l24.4,42.262
			l-3.811-0.013l-23.441-40.603c-0.035-0.061-0.067-0.117-0.098-0.171c-0.096-0.166-0.194-0.337-0.222-0.534
			c-0.204-0.665-0.141-1.321,0.215-1.772c0.106-0.126,0.156-0.195,0.283-0.278c0.065-0.038,0.133-0.076,0.133-0.076
			C807.865,19.758,807.868,19.763,807.933,19.726z"/>
		<path style="fill:#C74610;" d="M843.334,23.453c-8.01-13.872-25.745-18.625-39.616-10.615
			c-13.873,8.01-18.624,25.743-10.614,39.616L843.334,23.453z"/>
		<g transform="matrix(1,0,0,1,5.77795,-1.15559)">
			<g>
				<path style="fill:#5A93F2;" d="M1946.477-6497.952c-0.839,0.187-1.479,0.902-1.479,1.796c0,0.505,0,1.057,0,1.586
					c0,0.604-0.24,1.187-0.671,1.615c-0.423,0.429-1.006,0.667-1.612,0.667c-2.411,0-6.187,0-8.589,0
					c0.123,0.494,0.203,0.822,0.203,0.822s-1.616,0.927-3.134,1.788c-1.617,0.927-2.61,2.642-2.61,4.498c0,0.681,0,1.403,0,2.084
					c0,1.723,1.395,3.118,3.118,3.118c3.274,0,8.46,0,12.161,0c1.165,0,2.289-0.468,3.126-1.297
					c0.821-0.829,1.289-1.953,1.289-3.118c0-3.553,0-8.403,0-11.259C1948.279-6496.764,1947.51-6497.692,1946.477-6497.952z"/>
				<path style="fill:#377DED;" d="M1944.327-6492.955c0.43-0.429,0.671-1.011,0.671-1.615c0-0.529,0-1.081,0-1.586
					c0-0.894,0.64-1.609,1.479-1.796c-0.186-0.047-0.377-0.079-0.578-0.079c-2.634,0-6.892,0-9.855,0
					c-0.812,0-1.567,0.37-2.067,1.009c-0.493,0.632-0.673,1.46-0.476,2.24c0.236,0.931,0.467,1.855,0.625,2.494
					c2.401,0,6.178,0,8.589,0C1943.32-6492.288,1943.903-6492.525,1944.327-6492.955z"/>
			</g>
			<g transform="matrix(0.577795,0,0,0.577795,-295.433,3807.81)">
				<path style="fill:#377DED;" d="M3869.03-17816.102c0-1.264-1.036-2.299-2.301-2.299h-12.427c-1.277,0-2.314,1.035-2.314,2.299
					v4.629c0,1.266,1.037,2.303,2.314,2.303h12.427c1.265,0,2.301-1.037,2.301-2.303V-17816.102z"/>
			</g>
		</g>
		<g>
			<path style="fill:#E5456C;" d="M811.994,65.376c0.604,0.604,1.234,1.234,1.838,1.838c1.279,1.279,3.117,1.706,4.778,1.232
				c0.54-1.434,0.532-3.027-0.047-4.449c-0.022,0.314-0.138,0.624-0.377,0.864c-0.529,0.529-1.389,0.527-1.916,0l-1.917-1.916
				c-0.529-0.53-0.529-1.388,0-1.917c0.24-0.24,0.549-0.356,0.863-0.378c-1.423-0.579-3.018-0.586-4.453-0.045
				C810.289,62.262,810.716,64.098,811.994,65.376z"/>
			<path style="fill:#E5456C;" d="M817.227,70.609L817.227,70.609L817.227,70.609z"/>
			<path style="fill:#E5456C;" d="M811.748,70.364c-0.868-0.867-1.881-1.881-2.759-2.759c-1.228-1.228-1.662-3.03-1.156-4.675
				c-1.572,2.368-1.316,5.591,0.772,7.678c2.077,2.077,5.279,2.34,7.644,0.793C814.677,71.934,812.934,71.55,811.748,70.364z"/>
			<path style="fill:#C62654;" d="M814.352,62.945l1.917,1.916c0.527,0.527,1.387,0.529,1.916,0c0.24-0.24,0.355-0.55,0.377-0.864
				c-0.298-0.731-0.742-1.417-1.336-2.01c-0.594-0.594-1.28-1.039-2.012-1.337c-0.314,0.022-0.623,0.139-0.863,0.378
				C813.824,61.557,813.823,62.415,814.352,62.945z"/>
			<path style="fill:#BF9ECF;fill-opacity:0.3586;" d="M816.526,71.311C816.526,71.31,816.526,71.31,816.526,71.311l0.701-0.701
				c-0.304,0.304-0.633,0.566-0.978,0.793C816.341,71.371,816.435,71.348,816.526,71.311z"/>
			<path style="fill:#C62654;" d="M818.609,68.446c-1.661,0.474-3.499,0.047-4.778-1.232c-0.603-0.604-1.234-1.234-1.838-1.838
				c-1.278-1.278-1.705-3.114-1.231-4.771c-0.786,0.297-1.526,0.749-2.158,1.381c-0.294,0.294-0.55,0.611-0.772,0.944
				c-0.506,1.645-0.071,3.447,1.156,4.675c0.878,0.878,1.891,1.891,2.759,2.759c1.186,1.186,2.929,1.57,4.5,1.038
				c0.346-0.226,0.675-0.489,0.978-0.793l0,0C817.861,69.975,818.313,69.233,818.609,68.446z"/>
		</g>
		<g transform="matrix(0.653336,0,0,0.653336,228.367,1756.91)">
			<g transform="matrix(4.11393e-17,-0.671855,0.671855,4.11393e-17,549.098,8411.92)">
				
					<rect x="16376.094" y="592.672" transform="matrix(-2.535182e-06 -1 1 -2.535182e-06 15784.0781 16979.2305)" style="fill:#F77F12;" width="11.078" height="9.848"/>
			</g>
			<g transform="matrix(2.1836e-17,-0.356608,0.582274,3.5654e-17,-655.337,6113)">
				<path style="fill:#F79712;" d="M24452.422,2738.323c0-3.398-4.506-6.154-10.053-6.154h-29.129
					c-5.547,0-10.051,2.756-10.051,6.154v12.309c0,3.397,4.504,6.154,10.051,6.154h29.129c5.547,0,10.053-2.757,10.053-6.154
					V2738.323z"/>
			</g>
			<g transform="matrix(0.884377,0,0,0.884377,-802.174,3138.46)">
				<path style="fill:#071C1C;" d="M1981.116-6480.729c0-1.543-0.607-3.02-1.699-4.103c-1.091-1.092-2.568-1.707-4.111-1.707
					c-5.678,0-13.474,0-13.474,0s0,3.413,0,6.302c0,1.05,0.418,2.059,1.157,2.798c0.738,0.738,1.747,1.157,2.797,1.157
					c5.637,0,15.329,0,15.329,0S1981.116-6478.408,1981.116-6480.729z"/>
			</g>
			<g transform="matrix(0.357514,0,0,1.5565,1088.53,1328.81)">
				<path style="fill:#071C1C;" d="M-416.265-2529.432c0,0-2.953,0-6.555,0c-7.025,0-12.728,1.313-12.728,2.921
					c0,3.036,0,7.336,0,7.336h19.283V-2529.432z"/>
			</g>
			<g transform="matrix(0.751838,0,0,0.751838,-849.314,3453.13)">
				<path style="fill:#F79712;" d="M2383.841-8050.492c2.379,0,4.308,1.929,4.308,4.308s-1.928,4.308-4.308,4.308
					s-4.309-1.929-4.309-4.308S2381.462-8050.492,2383.841-8050.492z"/>
			</g>
			<g transform="matrix(4.11393e-17,-0.671855,0.671855,4.11393e-17,432.15,8649.95)">
				<path style="fill:#071C1C;" d="M16750.004,760.226c0-0.402-0.322-0.721-0.715-0.721h-1.436c-0.402,0-0.723,0.32-0.723,0.721
					v4.711c0,0.402,0.32,0.721,0.723,0.721h1.436c0.393,0,0.715-0.32,0.715-0.721V760.226z"/>
			</g>
			<g transform="matrix(0.0950147,-0.0950147,0.554533,0.554533,-612.089,2770.66)">
				<path style="fill:#F77F12;" d="M36741.234-3404.033c2.191-1.338,0.73-2.766-3.98-3.898c-4.703-1.132-12.148-1.83-20.227-1.903
					c-0.008,0-0.008,0-0.02,0c-10.816-0.106-20.395,1.181-22.406,3.003c-7.75,7.04-25.648,23.296-25.648,23.296l48.52,8.32l0,0
					c4.535-0.78,7.074-1.829,7.078-2.929c-0.004-1.1-2.547-2.15-7.074-2.93c-5.824-0.993-10.895-1.863-10.895-1.863
					S36728.449-3396.246,36741.234-3404.033z"/>
			</g>
			<g transform="matrix(-0.0671855,-0.116369,0.750935,-0.433553,-1373.35,7959.12)">
				<path style="fill:#F77F12;" d="M59334.566,8433.791c0.004-2.108-11.027-3.814-24.613-3.814
					c-13.594-0.001-24.617,1.706-24.617,3.814v16.986c-0.004,2.108,11.027,3.814,24.617,3.815c13.586,0,24.617-1.707,24.617-3.815
					L59334.566,8433.791z"/>
			</g>
			<g transform="matrix(6.77934e-18,-0.110715,1.22054,7.47363e-17,-3921.71,5699.46)">
				<path style="fill:#F79712;" d="M74918.883,4017.788c0-0.615-5.516-1.116-12.305-1.116h-24.617c-6.805,0-12.312,0.5-12.312,1.116
					v22.384c0,0.616,5.508,1.116,12.312,1.116h24.617c6.789,0,12.305-0.5,12.305-1.116V4017.788z"/>
			</g>
			<g transform="matrix(0.671855,0,0,0.585164,-486.968,3879.54)">
				<path style="fill:#F79712;" d="M2229.34-11070.455L2229.34-11070.455c-2.716,0-4.923,2.527-4.923,5.653c0,3.397,0,7.065,0,7.065
					h4.923V-11070.455z"/>
			</g>
			<path style="fill:#C74610;" d="M982.528-2589.728l-2.179-16.334l-11.61,4.719v0.067l-0.022-0.066c0,0-6.116,0.191-11.122,0.346
				c-3.575,0.115-6.419,3.046-6.419,6.626c0,0.071,0,0.141,0,0.216c0,1.173,0.468,2.299,1.298,3.129
				c0.831,0.831,1.957,1.298,3.132,1.298C958.888-2589.729,982.528-2589.728,982.528-2589.728z"/>
			<g transform="matrix(0.884377,0,0,0.589585,-802.174,3919.95)">
				<rect x="1972.91" y="-11088.525" style="fill:#FFFFFF;" width="14.77" height="4.923"/>
			</g>
			<g transform="matrix(0.884377,0,0,0.884377,-799.078,3138.46)">
				<path style="fill:#F79712;" d="M1985.41-6507.463c0-1.584-1.288-2.872-2.872-2.872c-1.583,0-2.872,1.288-2.872,2.872
					c0,2.076,0,4.513,0,4.513h5.744C1985.41-6502.95,1985.41-6505.387,1985.41-6507.463z"/>
			</g>
			<g transform="matrix(5.41525e-17,-0.884377,0.884377,5.41525e-17,30.849,8707.03)">
				<path style="fill:#F79712;" d="M12803.649,1044.094l-4.103-2.872l-7.582,8.247c0,0-6.556-2.552-10.749-4.185
					c-0.772-0.304-1.642-0.197-2.322,0.263c-0.682,0.467-1.092,1.247-1.092,2.067c0,0,0,0,0,0.009c0,0.755,0.459,1.444,1.165,1.731
					c2.855,1.157,10.15,4.128,13.129,5.342c0.78,0.321,1.674,0.115,2.249-0.5
					C12796.888,1051.438,12803.649,1044.094,12803.649,1044.094z"/>
			</g>
		</g>
	</g>
</g>
<g id="aulas" style="display:none;">
	<g style="display:inline;">
		<rect x="368.174" y="0" style="fill-rule:evenodd;clip-rule:evenodd;fill:#FFFFFF;" width="33.652" height="145"/>
		<circle style="fill-rule:evenodd;clip-rule:evenodd;fill:#5654A2;" cx="385" cy="72.5" r="42.5"/>
	</g>
</g>
</svg>
