<?xml version="1.0" encoding="utf-8"?>
<!-- Generator: Adobe Illustrator 27.7.0, SVG Export Plug-In . SVG Version: 6.00 Build 0)  -->
<svg version="1.1" xmlns="http://www.w3.org/2000/svg" xmlns:xlink="http://www.w3.org/1999/xlink" x="0px" y="0px" width="1500px"
	 height="145px" viewBox="0 0 1500 145" style="enable-background:new 0 0 1500 145;" xml:space="preserve">
<g id="background">
	<rect x="-80.448" y="-3606.348" style="fill:#04D5D8;" width="1640.647" height="4034.435"/>
	<path style="fill:#3EE1DE;" d="M1587.821-571.861h-354.039c-28.645,0-56.114,11.373-76.373,31.623
		c-40.171,40.155-87.422,87.383-101.797,101.742c-8.341,8.332-22.399,5.974-27.574-4.619l-0.147-0.3
		c-9.094-18.62-28.005-30.43-48.728-30.43h-63.402c-14.499,0-28.138,5.644-38.406,15.895
		c-10.271,10.257-15.927,23.889-15.927,38.387v45.11c0,14.072,5.464,27.595,15.24,37.717l0.745,0.771
		c4.257,4.408,4.194,11.558-0.141,15.889l-61.406,61.355c-19.16,19.144-29.925,45.117-29.925,72.202v13.449
		c0,27.07,10.753,53.03,29.894,72.171l47.302,47.302c3.329,3.329,2.977,8.857-0.794,11.677c-2.737,2.046-5.346,4.3-7.807,6.758
		L820.255-0.908c-0.787,0.786-1.546,1.59-2.279,2.409c-3.438,3.845-9.583,3.298-12.367-1.045c-1.811-2.825-3.939-5.475-6.369-7.907
		l-71.91-71.909c-8.867-8.87-20.659-13.755-33.204-13.755h-14.258l-2.01-2.011c-8.8-8.805-20.738-13.752-33.187-13.752H534.364
		c-12.331,0-23.981,4.745-32.803,13.359l-43.763,42.735c-8.992,8.781-14.15,21.025-14.15,33.593v31.879
		c0,12.453,4.947,24.397,13.753,33.202l41.563,41.562c8.805,8.804,20.746,13.751,33.198,13.751h53.144
		c12.542,0,24.333-4.884,33.201-13.751l6.638-6.639c2.313,5.218,5.594,10.017,9.751,14.175l24.334,24.334
		c8.869,8.867,20.659,13.751,33.201,13.751h32.001c12.542,0,24.333-4.884,33.201-13.751l41.608-41.609
		c0.866-0.866,1.693-1.76,2.482-2.68c3.284-3.833,9.283-3.717,12.217,0.39c1.93,2.701,4.115,5.274,6.556,7.687
		c6.829,6.748,16.077,10.487,25.678,10.487h5.739c6.285,11.166,18.26,18.725,31.969,18.725h24.582
		c19.259,0,37.364-7.494,50.981-21.099l0.821-0.819c13.617-13.607,21.117-31.698,21.117-50.94V38.12
		c0-4.292,3.479-7.771,7.771-7.771h0.206h36.408c27.069,0,53.03,10.753,72.171,29.894l17.977,17.977
		c7.102,7.102,6.906,18.544-0.217,25.625c-0.045,0.045-0.09,0.09-0.135,0.135l-4.751,4.751
		c-23.714,23.715-23.958,62.763-0.543,86.774l35.972,36.886c11.55,11.843,27.663,18.636,44.208,18.637h29.159
		c16.494,0,32-6.424,43.663-18.086l36.456-36.456c7.903-7.903,13.392-17.573,16.111-28.118c2.05-7.953,9.375-13.41,17.588-13.41
		h241.322C1574.746,154.956,1606.532-571.861,1587.821-571.861z"/>
	<path style="fill:#04D5D8;" d="M1570.565-447.321h-143.769c-8.037,0-15.744,3.193-21.427,8.875l-54.842,54.842
		c-5.683,5.683-13.39,8.875-21.427,8.875h-59.987c-8.037,0-15.744,3.193-21.427,8.875l-15.658,15.658
		c-5.683,5.683-8.875,13.39-8.875,21.427v2.855c0,8.037,3.193,15.744,8.875,21.427l49.309,49.309
		c5.683,5.683,8.875,13.39,8.875,21.427v46.372c0,8.037,3.193,15.744,8.875,21.427l23.843,23.843
		c5.683,5.683,8.875,13.39,8.875,21.427v0c0,8.037-3.193,15.744-8.875,21.427l-56.164,56.164c-5.683,5.683-8.875,13.39-8.875,21.427
		v15.217c0,8.037,3.193,15.744,8.875,21.427l11.242,11.242c5.683,5.683,13.39,8.875,21.427,8.875h97.044
		c8.037,0,15.744-3.193,21.427-8.875l116.536-116.536c4.311-4.311,7.221-9.822,8.351-15.813l57.548-305.279
		C1603.86-430.062,1589.55-447.321,1570.565-447.321z"/>
</g>
<g id="Details">
	<g>
		<g>
			<path style="fill-rule:evenodd;clip-rule:evenodd;fill:#00B465;" d="M940.154,71.948l0.819-0.819
				c8.405-8.398,13.127-19.787,13.127-31.664V19.539c0-11.876-4.722-23.266-13.127-31.664l-3.764-3.761
				c-8.405-8.398-19.804-13.115-31.69-13.115h0c-11.886,0-23.286,4.718-31.69,13.115l-34.281,34.253
				c-12.5,12.49-12.5,32.74,0,45.229v0c1.757,1.756,4.141,2.742,6.626,2.742h18.969c5.175,0,9.37,4.192,9.37,9.362v0
				c0,5.171,4.195,9.362,9.37,9.362h24.582C920.35,85.063,931.749,80.345,940.154,71.948z"/>
			
				<path style="fill:none;stroke:#00B465;stroke-width:10.9038;stroke-linecap:round;stroke-linejoin:round;stroke-dasharray:0,10.8937;" d="
				M940.154,71.948l0.819-0.819c8.405-8.398,13.127-19.788,13.127-31.664V19.539c0-11.876-4.722-23.266-13.127-31.664l-3.764-3.76
				c-8.405-8.398-19.804-13.116-31.69-13.116h0c-11.886,0-23.286,4.718-31.69,13.116l-34.281,34.252
				c-12.5,12.49-12.5,32.74,0,45.229v0c1.757,1.755,4.141,2.742,6.626,2.742h18.969c5.175,0,9.37,4.192,9.37,9.362
				c0,5.171,4.195,9.362,9.37,9.362h24.582C920.35,85.063,931.749,80.345,940.154,71.948z"/>
		</g>
		<g>
			<path style="fill-rule:evenodd;clip-rule:evenodd;fill:#79708A;" d="M881.356,20.51c-1.031,0-1.995-0.511-2.573-1.365
				c-0.578-0.853-0.696-1.938-0.312-2.894c2.575-6.432,7.37-18.41,9.397-23.472c0.572-1.428,1.952-2.355,3.491-2.355h13.432
				c1.681,0,3.157,1.113,3.619,2.728l2.984,10.435l11.501,3.283c1.061,0.303,1.933,1.05,2.39,2.054
				c1.412,3.104,4.598,10.107,6.696,14.717c0.437,0.961,0.356,2.079-0.216,2.966s-1.556,1.424-2.614,1.424
				c-6.551,0-18.001,0-22.924,0c-1.511,0-2.96-0.6-4.029-1.667c-1.246-1.246-2.943-2.941-4.189-4.187
				c-1.069-1.067-2.518-1.667-4.029-1.667C890.864,20.51,885.312,20.51,881.356,20.51z"/>
			<g>
				<defs>
					<path id="SVGID_00000001633625977307900990000000623156930776236453_" d="M881.356,20.51c-1.031,0-1.995-0.511-2.573-1.365
						c-0.578-0.853-0.696-1.938-0.312-2.894c2.575-6.432,7.37-18.41,9.397-23.472c0.572-1.428,1.952-2.355,3.491-2.355h13.432
						c1.681,0,3.157,1.113,3.619,2.728l2.984,10.435l11.501,3.283c1.061,0.303,1.933,1.05,2.39,2.054
						c1.412,3.104,4.598,10.107,6.696,14.717c0.437,0.961,0.356,2.079-0.216,2.966s-1.556,1.424-2.614,1.424
						c-6.551,0-18.001,0-22.924,0c-1.511,0-2.96-0.6-4.029-1.667c-1.246-1.246-2.943-2.941-4.189-4.187
						c-1.069-1.067-2.518-1.667-4.029-1.667C890.864,20.51,885.312,20.51,881.356,20.51z"/>
				</defs>
				<clipPath id="SVGID_00000045597017306461473860000004690226516414334351_">
					<use xlink:href="#SVGID_00000001633625977307900990000000623156930776236453_"  style="overflow:visible;"/>
				</clipPath>
				
					<path style="clip-path:url(#SVGID_00000045597017306461473860000004690226516414334351_);fill-rule:evenodd;clip-rule:evenodd;fill:#695D80;" d="
					M901.893,16.749c0-2.077-1.684-3.761-3.764-3.761s-3.764,1.684-3.764,3.761c0,4.456,0,11.282,0,11.282h7.528
					C901.893,28.031,901.893,21.205,901.893,16.749z"/>
				
					<path style="clip-path:url(#SVGID_00000045597017306461473860000004690226516414334351_);fill-rule:evenodd;clip-rule:evenodd;fill:#00A980;" d="
					M933.809-3.343v-6.995c0-1.662-1.348-3.009-3.011-3.009h-7.85c-1.663,0-3.011-1.347-3.011-3.009v-0.013
					c0-1.662-1.348-3.009-3.011-3.009h-7.85c-1.663,0-3.011-1.347-3.011-3.009v-2.658c0-1.662-1.348-3.009-3.011-3.009h-9.4
					c-1.663,0-3.011,1.347-3.011,3.009v2.658c0,1.662-1.348,3.009-3.011,3.009h-7.85c-1.663,0-3.011,1.347-3.011,3.009v8.579
					c0,1.662-1.348,3.009-3.011,3.009h-7.85c-1.663,0-3.011,1.347-3.011,3.009v23.659c0,1.662,1.348,3.009,3.011,3.009l7.847-0.652
					c1.663,0,3.011-1.347,3.011-3.009l2.471-8.578c0-0.406,0.704-0.141,0.85-0.494c0.451-1.093,1.528-1.862,2.785-1.862h3.968
					c2.956,0,5.352-2.394,5.352-5.348v0c0-1.838,1.491-3.328,3.331-3.328h1.927c2.256,0,4.085,1.827,4.085,4.082v0.729
					c0,2.91,2.361,5.27,5.274,5.27h8.568c1.663,0,3.011,1.347,3.011,3.009v0.862c0,2.849,2.312,5.159,5.163,5.159h5.193
					c1.169,0,2.182,0.665,2.681,1.638c0.211,0.411,2.227,2.644,2.227,2.644c0,1.662,0.213,3.009,1.876,3.009h9.142
					c1.663,0,3.011-1.347,3.011-3.009V2.675c0-1.662-1.348-3.009-3.011-3.009h-7.85C935.157-0.334,933.809-1.681,933.809-3.343z"/>
				
					<path style="clip-path:url(#SVGID_00000045597017306461473860000004690226516414334351_);fill-rule:evenodd;clip-rule:evenodd;fill:#00957D;" d="
					M909.016-4.913c-1.999-0.571-4.082,0.585-4.653,2.582c-0.572,1.998,0.586,4.079,2.585,4.649
					c4.288,1.225,10.857,3.101,10.857,3.101l2.069-7.232C919.873-1.813,913.303-3.689,909.016-4.913z"/>
			</g>
		</g>
		<g>
			<path style="opacity:0.5;fill:#009352;" d="M877.157,61.828c0.925,0,1.674-0.748,1.674-1.673v-5.237
				c0-0.925-0.75-1.673-1.674-1.673c-0.925,0-1.674,0.748-1.674,1.673v5.237C875.483,61.08,876.233,61.828,877.157,61.828z"/>
			<path style="opacity:0.5;fill:#009352;" d="M870.168,61.828c0.925,0,1.674-0.748,1.674-1.673v-3.491
				c0-0.925-0.75-1.673-1.674-1.673s-1.674,0.748-1.674,1.673v3.491C868.493,61.08,869.243,61.828,870.168,61.828z"/>
			<path style="opacity:0.5;fill:#009352;" d="M883.565,61.828c0.925,0,1.674-0.748,1.674-1.673v-3.491
				c0-0.925-0.75-1.673-1.674-1.673s-1.674,0.748-1.674,1.673v3.491C881.891,61.08,882.64,61.828,883.565,61.828z"/>
			<path style="opacity:0.5;fill:#009352;" d="M851.82,46.696c0.925,0,1.674-0.748,1.674-1.673v-5.237
				c0-0.925-0.75-1.673-1.674-1.673c-0.925,0-1.674,0.748-1.674,1.673v5.237C850.145,45.948,850.895,46.696,851.82,46.696z"/>
			<path style="opacity:0.5;fill:#009352;" d="M844.829,46.696c0.925,0,1.674-0.748,1.674-1.673V41.53
				c0-0.925-0.75-1.673-1.674-1.673c-0.925,0-1.674,0.748-1.674,1.673v3.493C843.155,45.948,843.904,46.696,844.829,46.696z"/>
			<path style="opacity:0.5;fill:#009352;" d="M858.226,46.696c0.925,0,1.674-0.748,1.674-1.673V41.53
				c0-0.925-0.75-1.673-1.674-1.673c-0.925,0-1.674,0.748-1.674,1.673v3.493C856.552,45.948,857.302,46.696,858.226,46.696z"/>
		</g>
		<path style="fill-rule:evenodd;clip-rule:evenodd;fill:#D60040;" d="M872.504,34.027l-1.198,1.197
			c-0.661,0.661-0.661,1.734,0,2.394c0.661,0.661,1.734,0.661,2.396,0l1.198-1.197l1.198,1.197c0.66,0.661,1.734,0.661,2.396,0
			c0.661-0.66,0.661-1.733,0-2.394l-1.198-1.197l1.198-1.197c0.661-0.661,0.661-1.734,0-2.395c-0.661-0.66-1.735-0.66-2.396,0
			l-1.198,1.197l-1.198-1.197c-0.661-0.66-1.734-0.66-2.396,0c-0.661,0.661-0.661,1.734,0,2.395L872.504,34.027z"/>
		<g>
			<path style="fill-rule:evenodd;clip-rule:evenodd;fill:#00957D;" d="M940.85,52.576c0-0.729-0.289-1.429-0.805-1.944
				c-0.515-0.516-1.215-0.805-1.945-0.805c-4.937,0-15.247,0-20.184,0c-0.73,0-1.43,0.289-1.945,0.805
				c-0.516,0.515-0.806,1.214-0.806,1.944c0,0.001,0,0.001,0,0.002c0,0.729,0.289,1.429,0.806,1.944
				c0.515,0.516,1.215,0.805,1.945,0.805c4.937,0,15.247,0,20.184,0c0.73,0,1.43-0.289,1.945-0.805
				c0.516-0.515,0.805-1.214,0.805-1.944C940.85,52.578,940.85,52.578,940.85,52.576z"/>
			<path style="fill-rule:evenodd;clip-rule:evenodd;fill:#FFD700;" d="M922.503,47.076c0-0.728-0.29-1.427-0.805-1.944
				c-0.516-0.515-1.215-0.805-1.945-0.805c-0.001,0-0.002,0-0.002,0c-0.73,0-1.43,0.29-1.945,0.805
				c-0.516,0.516-0.805,1.215-0.805,1.944c0,0.924,0,1.967,0,2.938c0,0.923,0.367,1.808,1.019,2.461
				c0.653,0.652,1.539,1.018,2.463,1.018c1.093,0,2.022,0,2.022,0S922.503,49.777,922.503,47.076z"/>
			<path style="fill-rule:evenodd;clip-rule:evenodd;fill:#FFD700;" d="M933.511,43.411c0-1.518-1.231-2.748-2.751-2.748
				c-0.001,0-0.002,0-0.002,0c-1.519,0-2.751,1.23-2.751,2.748c0,3.77,0,10.083,0,10.083h5.504
				C933.511,53.494,933.511,47.181,933.511,43.411z"/>
			<path style="fill-rule:evenodd;clip-rule:evenodd;fill:#FFD700;" d="M928.008,43.411c0-1.518-1.233-2.748-2.751-2.748
				c-0.001,0-0.002,0-0.003,0c-1.519,0-2.751,1.23-2.751,2.748c0,3.77,0,10.083,0,10.083h5.505
				C928.008,53.494,928.008,47.181,928.008,43.411z"/>
			<path style="fill-rule:evenodd;clip-rule:evenodd;fill:#FFD700;" d="M939.016,47.076c0-0.728-0.29-1.427-0.807-1.944
				c-0.515-0.515-1.215-0.805-1.944-0.805c-0.001,0-0.002,0-0.003,0c-0.73,0-1.429,0.29-1.945,0.805
				c-0.515,0.516-0.805,1.215-0.805,1.944c0,2.701,0,6.417,0,6.417s0.928,0,2.023,0c0.923,0,1.808-0.366,2.462-1.018
				c0.652-0.653,1.02-1.538,1.02-2.461C939.016,49.043,939.016,48.001,939.016,47.076z"/>
		</g>
	</g>
	<g>
		<path style="fill-rule:evenodd;clip-rule:evenodd;fill:#3EE1DE;" d="M1018.101,124.467c-11.768,0-21.342-9.566-21.342-21.326
			c0-11.758,9.574-21.324,21.342-21.324h10.746c11.77,0,21.344,9.566,21.344,21.324c0,11.76-9.574,21.326-21.344,21.326H1018.101z"
			/>
		<path style="fill-rule:evenodd;clip-rule:evenodd;fill:#FFF5C3;" d="M1028.854,110.838h-10.759c-4.232,0-7.695-3.463-7.695-7.696
			v0c0-4.233,3.463-7.696,7.695-7.696h10.759c4.233,0,7.696,3.463,7.696,7.696v0C1036.55,107.375,1033.087,110.838,1028.854,110.838
			z"/>
	</g>
	<g>
		<path style="fill-rule:evenodd;clip-rule:evenodd;fill:#3EE1DE;" d="M478.315,146.267c-11.768,0-21.342-9.566-21.342-21.326
			c0-11.758,9.574-21.324,21.342-21.324h10.746c11.77,0,21.344,9.566,21.344,21.324c0,11.76-9.574,21.326-21.344,21.326H478.315z"/>
		<path style="fill-rule:evenodd;clip-rule:evenodd;fill:#00B465;" d="M489.068,132.638h-10.759c-4.233,0-7.696-3.463-7.696-7.696v0
			c0-4.233,3.463-7.696,7.696-7.696h10.759c4.233,0,7.696,3.463,7.696,7.696v0C496.764,129.175,493.301,132.638,489.068,132.638z"/>
	</g>
	<g>
		<path style="fill-rule:evenodd;clip-rule:evenodd;fill:#00BCBF;" d="M408.124,72.716c-0.358,0-0.889,0-1.506,0
			c0,0,0.076-0.075,0.189-0.189c0.573-0.573,0.573-1.503,0-2.076c-0.114-0.113-0.189-0.189-0.189-0.189h-3.683l-1.841,2.453
			c-0.339,0-0.634,0-0.852,0c-0.286,0-0.56,0.113-0.762,0.315c-0.659,0.658-2.18,2.178-3.097,3.094
			c-0.169-0.139-0.377-0.234-0.613-0.234c-0.539,0-0.976,0.437-0.976,0.976s0.438,0.976,0.976,0.976
			c0.108,0,0.206-0.029,0.303-0.061c1.611,3.151,4.847,5.188,8.444,5.188c0.012,0,0.024,0,0.036,0c3.623,0,6.789-2.442,7.707-5.943
			c0,0-2.423-2.873-3.313-3.928C408.743,72.856,408.442,72.716,408.124,72.716z"/>
		<path style="fill-rule:evenodd;clip-rule:evenodd;fill:#00BCBF;" d="M414.82,74.633C414.82,74.633,414.82,74.633,414.82,74.633
			l-2.559,2.393l2.559,2.394v0c0.675-0.613,1.06-1.482,1.06-2.394S415.495,75.246,414.82,74.633z"/>
	</g>
	<g>
		<path style="fill:#FFF5C3;" d="M717.981,12.099l-57.416-57.416h-62.92L558.414-6.086v37.455l-23.457,23.457h-30.071l13.352,13.352
			c3.693,3.693,8.702,5.768,13.925,5.768h53.144c5.223,0,10.232-2.075,13.925-5.768l11.452-11.452c7.691-7.691,7.691-20.16,0-27.851
			l-2.589-2.589c-7.691-7.691-7.691-20.16,0-27.851l0,0c7.691-7.691,20.16-7.691,27.851,0l19.903,19.902
			c7.691,7.691,7.691,20.16,0,27.851l-1.675,1.675c-7.691,7.691-7.691,20.16,0,27.851l9.953,9.953l53.855-53.855V12.099z"/>
		
			<path style="fill:#00B465;stroke:#00B465;stroke-width:10.9038;stroke-linecap:round;stroke-linejoin:round;stroke-miterlimit:10;stroke-dasharray:0,10.9038;" d="
			M692.431,105.815h32.001c5.223,0,10.232-2.075,13.926-5.768l41.608-41.608c3.693-3.693,5.768-8.702,5.768-13.925V25.751
			c0-5.223-2.075-10.232-5.768-13.925l-71.913-71.913c-3.693-3.693-8.702-5.768-13.925-5.768h-17.393
			c-5.223,0-10.232-2.075-13.925-5.768l-4.227-4.227c-3.693-3.693-8.702-5.768-13.925-5.768H534.363
			c-5.142,0-10.08,2.011-13.759,5.604l-43.763,42.735c-3.795,3.706-5.934,8.786-5.934,14.09v31.878
			c0,5.223,2.075,10.232,5.768,13.925l28.211,28.211h30.071l23.457-23.457V-6.086l39.231-39.231h62.92l57.416,57.416v19.714
			l-53.855,53.855l14.38,14.38C682.199,103.74,687.208,105.815,692.431,105.815z"/>
		<g>
			<path style="fill-rule:evenodd;clip-rule:evenodd;fill:#FFD700;" d="M764.031,35.84l-0.989-0.988l0.989-0.988
				c0.546-0.545,0.546-1.431,0-1.975c-0.546-0.545-1.431-0.545-1.977,0l-0.989,0.988l-0.989-0.988c-0.545-0.545-1.431-0.545-1.977,0
				c-0.546,0.544-0.546,1.43,0,1.975l0.989,0.988l-0.989,0.988c-0.546,0.545-0.546,1.431,0,1.976c0.546,0.544,1.432,0.544,1.977,0
				l0.989-0.988l0.989,0.988c0.546,0.544,1.431,0.544,1.977,0C764.577,37.271,764.577,36.385,764.031,35.84z"/>
			<path style="fill-rule:evenodd;clip-rule:evenodd;fill:#FFD700;" d="M754.718,40.746c-0.546-0.545-1.431-0.545-1.977,0
				l-0.989,0.988l-0.989-0.988c-0.545-0.545-1.431-0.545-1.977,0c-0.546,0.544-0.546,1.43,0,1.975l0.988,0.988l-0.988,0.988
				c-0.546,0.545-0.546,1.431,0,1.976c0.546,0.544,1.432,0.544,1.977,0l0.989-0.988l0.989,0.988c0.546,0.544,1.431,0.544,1.977,0
				c0.546-0.545,0.546-1.431,0-1.976l-0.988-0.988l0.988-0.988C755.263,42.176,755.263,41.29,754.718,40.746z"/>
			<path style="fill-rule:evenodd;clip-rule:evenodd;fill:#FFD700;" d="M769.793,47.53l0.988-0.988c0.546-0.545,0.546-1.431,0-1.975
				c-0.546-0.545-1.431-0.545-1.977,0l-0.989,0.988l-0.989-0.988c-0.545-0.545-1.431-0.545-1.977,0c-0.546,0.544-0.546,1.43,0,1.975
				l0.988,0.988l-0.988,0.988c-0.546,0.545-0.546,1.431,0,1.976c0.546,0.544,1.432,0.544,1.977,0l0.989-0.988l0.989,0.988
				c0.546,0.544,1.431,0.544,1.977,0c0.546-0.545,0.546-1.431,0-1.976L769.793,47.53z"/>
		</g>
		<g>
			<path style="opacity:0.5;fill:#009352;" d="M519.536,30.986c-0.925,0-1.674-0.748-1.674-1.673v-5.237
				c0-0.925,0.75-1.673,1.674-1.673c0.925,0,1.674,0.748,1.674,1.673v5.237C521.21,30.238,520.46,30.986,519.536,30.986z"/>
			<path style="opacity:0.5;fill:#009352;" d="M526.234,30.986c-0.925,0-1.674-0.748-1.674-1.673v-3.493
				c0-0.925,0.75-1.673,1.674-1.673c0.925,0,1.674,0.748,1.674,1.673v3.493C527.909,30.238,527.159,30.986,526.234,30.986z"/>
			<path style="opacity:0.5;fill:#009352;" d="M512.837,30.986c-0.925,0-1.674-0.748-1.674-1.673v-3.493
				c0-0.925,0.75-1.673,1.674-1.673c0.925,0,1.674,0.748,1.674,1.673v3.493C514.511,30.238,513.762,30.986,512.837,30.986z"/>
		</g>
		<g>
			<path style="opacity:0.5;fill:#009352;" d="M506.138,14.247c-0.925,0-1.674-0.748-1.674-1.673V7.337
				c0-0.925,0.75-1.673,1.674-1.673c0.925,0,1.674,0.748,1.674,1.673v5.237C507.813,13.499,507.063,14.247,506.138,14.247z"/>
			<path style="opacity:0.5;fill:#009352;" d="M512.837,14.247c-0.925,0-1.674-0.748-1.674-1.673V9.082
				c0-0.925,0.75-1.673,1.674-1.673c0.925,0,1.674,0.748,1.674,1.673v3.493C514.511,13.499,513.762,14.247,512.837,14.247z"/>
			<path style="opacity:0.5;fill:#009352;" d="M499.44,14.247c-0.925,0-1.674-0.748-1.674-1.673V9.082
				c0-0.925,0.75-1.673,1.674-1.673c0.925,0,1.674,0.748,1.674,1.673v3.493C501.114,13.499,500.364,14.247,499.44,14.247z"/>
		</g>
		<g>
			<path style="opacity:0.5;fill:#009352;" d="M726.354,47.995c-0.925,0-1.674-0.748-1.674-1.673v-5.237
				c0-0.925,0.75-1.673,1.674-1.673c0.925,0,1.674,0.748,1.674,1.673v5.237C728.028,47.247,727.278,47.995,726.354,47.995z"/>
			<path style="opacity:0.5;fill:#009352;" d="M733.052,47.995c-0.925,0-1.674-0.748-1.674-1.673v-3.493
				c0-0.925,0.75-1.673,1.674-1.673c0.925,0,1.674,0.748,1.674,1.673v3.493C734.727,47.247,733.977,47.995,733.052,47.995z"/>
			<path style="opacity:0.5;fill:#009352;" d="M719.655,47.995c-0.925,0-1.674-0.748-1.674-1.673v-3.493
				c0-0.925,0.75-1.673,1.674-1.673c0.925,0,1.674,0.748,1.674,1.673v3.493C721.329,47.247,720.58,47.995,719.655,47.995z"/>
		</g>
		<g>
			<path style="opacity:0.5;fill:#009352;" d="M706.594,65.757c-0.925,0-1.674-0.748-1.674-1.673v-5.237
				c0-0.925,0.75-1.673,1.674-1.673c0.925,0,1.674,0.748,1.674,1.673v5.237C708.268,65.008,707.518,65.757,706.594,65.757z"/>
			<path style="opacity:0.5;fill:#009352;" d="M713.292,65.757c-0.925,0-1.674-0.748-1.674-1.673v-3.493
				c0-0.925,0.75-1.673,1.674-1.673c0.925,0,1.674,0.748,1.674,1.673v3.493C714.967,65.008,714.217,65.757,713.292,65.757z"/>
			<path style="opacity:0.5;fill:#009352;" d="M699.895,65.757c-0.925,0-1.674-0.748-1.674-1.673v-3.493
				c0-0.925,0.75-1.673,1.674-1.673c0.925,0,1.674,0.748,1.674,1.673v3.493C701.569,65.008,700.82,65.757,699.895,65.757z"/>
		</g>
		<g>
			<path style="opacity:0.5;fill:#009352;" d="M734.727,76.414c-0.925,0-1.674-0.748-1.674-1.673v-5.237
				c0-0.925,0.75-1.673,1.674-1.673c0.925,0,1.674,0.748,1.674,1.673v5.237C736.401,75.665,735.651,76.414,734.727,76.414z"/>
			<path style="opacity:0.5;fill:#009352;" d="M741.425,76.414c-0.925,0-1.674-0.748-1.674-1.673v-3.493
				c0-0.925,0.75-1.673,1.674-1.673c0.925,0,1.674,0.748,1.674,1.673v3.493C743.1,75.665,742.35,76.414,741.425,76.414z"/>
			<path style="opacity:0.5;fill:#009352;" d="M728.028,76.414c-0.925,0-1.674-0.748-1.674-1.673v-3.493
				c0-0.925,0.75-1.673,1.674-1.673c0.925,0,1.674,0.748,1.674,1.673v3.493C729.702,75.665,728.953,76.414,728.028,76.414z"/>
		</g>
		<g>
			
				<line style="opacity:0.4118;fill:none;stroke:#FFFFFF;stroke-width:4.328;stroke-linecap:round;stroke-linejoin:round;stroke-miterlimit:10;" x1="569.748" y1="88.089" x2="572.602" y2="88.089"/>
			
				<line style="opacity:0.4118;fill:none;stroke:#FFFFFF;stroke-width:4.328;stroke-linecap:round;stroke-linejoin:round;stroke-miterlimit:10;" x1="595.673" y1="88.089" x2="598.527" y2="88.089"/>
			<g>
				<g>
					<path style="fill-rule:evenodd;clip-rule:evenodd;fill:#2E2F5F;" d="M572.343,77.328h-2.338v10.17
						c0,0.645,0.523,1.169,1.169,1.169l0,0c0.646,0,1.169-0.523,1.169-1.169V77.328z"/>
					<path style="fill-rule:evenodd;clip-rule:evenodd;fill:#2E2F5F;" d="M598.268,77.328h-2.338v10.17
						c0,0.645,0.523,1.169,1.169,1.169l0,0c0.646,0,1.169-0.523,1.169-1.169V77.328z"/>
				</g>
				<g>
					<path style="fill-rule:evenodd;clip-rule:evenodd;fill:#5652A2;" d="M584.137,57.68C573.568,57.68,565,64.279,565,72.42
						c0,8.14,8.568,14.739,19.136,14.739c10.569,0,19.137-6.599,19.137-14.739C603.273,64.279,594.706,57.68,584.137,57.68z"/>
					<g>
						<defs>
							<path id="SVGID_00000139990583051170327640000006402357637618587313_" d="M584.137,56.183
								c-10.569,0-19.137,6.599-19.137,14.739c0,8.14,8.568,14.739,19.136,14.739c10.569,0,19.137-6.599,19.137-14.739
								C603.273,62.782,594.706,56.183,584.137,56.183z"/>
						</defs>
						<clipPath id="SVGID_00000141429455770922823200000011475660256453567125_">
							<use xlink:href="#SVGID_00000139990583051170327640000006402357637618587313_"  style="overflow:visible;"/>
						</clipPath>
						
							<rect x="562.82" y="63.093" style="clip-path:url(#SVGID_00000141429455770922823200000011475660256453567125_);fill-rule:evenodd;clip-rule:evenodd;fill:#424186;" width="42.633" height="24.197"/>
						<g style="clip-path:url(#SVGID_00000141429455770922823200000011475660256453567125_);">
							
								<line style="opacity:0.1883;fill:none;stroke:#4A4890;stroke-width:1.7477;stroke-linejoin:round;stroke-miterlimit:1.5;" x1="562.82" y1="66.985" x2="605.453" y2="66.985"/>
							
								<line style="opacity:0.1883;fill:none;stroke:#4A4890;stroke-width:1.7477;stroke-linejoin:round;stroke-miterlimit:1.5;" x1="562.82" y1="71.088" x2="605.453" y2="71.088"/>
							
								<line style="opacity:0.1883;fill:none;stroke:#4A4890;stroke-width:1.7477;stroke-linejoin:round;stroke-miterlimit:1.5;" x1="562.82" y1="75.192" x2="605.453" y2="75.192"/>
							
								<line style="opacity:0.1883;fill:none;stroke:#4A4890;stroke-width:1.7477;stroke-linejoin:round;stroke-miterlimit:1.5;" x1="562.82" y1="79.294" x2="605.453" y2="79.294"/>
							
								<line style="opacity:0.1883;fill:none;stroke:#4A4890;stroke-width:1.7477;stroke-linejoin:round;stroke-miterlimit:1.5;" x1="562.82" y1="83.397" x2="605.453" y2="83.397"/>
						</g>
					</g>
					<path style="fill-rule:evenodd;clip-rule:evenodd;fill:#D2F4FD;" d="M584.137,56.647c-9.804,0-17.751,6.121-17.751,13.672
						c0,7.551,7.948,13.672,17.751,13.672c9.804,0,17.751-6.121,17.751-13.672C601.888,62.767,593.94,56.647,584.137,56.647z"/>
					<path style="fill-rule:evenodd;clip-rule:evenodd;fill:#87DFEE;" d="M566.386,65.601c0,7.31,7.947,13.237,17.751,13.237
						c9.804,0,17.751-5.926,17.751-13.236c0-7.31-7.947-13.237-17.751-13.237C574.333,52.364,566.386,58.291,566.386,65.601z"/>
					<path style="opacity:0.5;fill-rule:evenodd;clip-rule:evenodd;fill:#00B4BB;" d="M568.182,65.789
						c0,5.795,7.143,10.492,15.955,10.492c8.812,0,15.955-4.698,15.955-10.492c0-5.795-7.143-10.492-15.955-10.492
						C575.325,55.296,568.182,59.994,568.182,65.789z"/>
					<g>
						<defs>
							
								<rect id="SVGID_00000030471757812859599400000010437568251011615115_" x="577.577" y="69.088" width="13.82" height="14.903"/>
						</defs>
						<clipPath id="SVGID_00000104702092610414009390000000308744794199865735_">
							<use xlink:href="#SVGID_00000030471757812859599400000010437568251011615115_"  style="overflow:visible;"/>
						</clipPath>
						
							<path style="clip-path:url(#SVGID_00000104702092610414009390000000308744794199865735_);fill-rule:evenodd;clip-rule:evenodd;fill:#87DFEE;" d="
							M566.386,70.401c0,7.506,7.947,13.59,17.751,13.59c9.804,0,17.751-6.084,17.751-13.59c0-7.506-7.948-13.59-17.751-13.59
							C574.333,56.811,566.386,62.895,566.386,70.401z"/>
					</g>
					<path style="opacity:0.5;fill-rule:evenodd;clip-rule:evenodd;fill:#00B4BB;" d="M578.556,63.233v19.765
						c0,0,2.655-1.384,5.931-1.384h0c3.275,0,5.931,1.384,5.931,1.384V63.233H578.556z"/>
					<path style="opacity:0.5;fill-rule:evenodd;clip-rule:evenodd;fill:#807DB9;" d="M577.577,83.027l0.979-0.531
						c0,0,2.655-1.384,5.931-1.384h0c3.275,0,5.931,1.384,5.931,1.384l0.979,0.309l-3.197,0.192l-7.935,0.312L577.577,83.027z"/>
					<g>
						<polygon style="fill-rule:evenodd;clip-rule:evenodd;fill:#87DFEE;" points="570.005,72.071 567.473,68.979 567.473,59.506 
							570.005,59.506 						"/>
						<polygon style="fill-rule:evenodd;clip-rule:evenodd;fill:#87DFEE;" points="600.8,68.979 598.268,72.071 598.268,59.506 
							600.8,59.506 						"/>
					</g>
					<g>
						<polygon style="fill-rule:evenodd;clip-rule:evenodd;fill:#D2F4FD;" points="567.893,71.393 566.386,70.142 566.386,55.719 
							567.893,55.719 						"/>
						<polygon style="fill-rule:evenodd;clip-rule:evenodd;fill:#D2F4FD;" points="601.888,70.142 600.381,71.393 600.381,55.719 
							601.888,55.719 						"/>
					</g>
					<g>
						<rect x="576.594" y="70.581" style="fill-rule:evenodd;clip-rule:evenodd;fill:#87DFEE;" width="1.376" height="7.92"/>
						<rect x="591.029" y="70.581" style="fill-rule:evenodd;clip-rule:evenodd;fill:#87DFEE;" width="1.376" height="7.92"/>
					</g>
					<rect x="575.139" y="68.652" style="fill-rule:evenodd;clip-rule:evenodd;fill:#D2F4FD;" width="2.552" height="10.661"/>
					<rect x="591.308" y="68.652" style="fill-rule:evenodd;clip-rule:evenodd;fill:#D2F4FD;" width="2.552" height="10.661"/>
					<g>
						<g>
							<path style="fill:#FFFFFF;" d="M589.726,61.694v19.884c-1.142,0.315-3.074,0.737-5.239,0.737
								c-2.29,0-4.133-0.304-5.239-0.547V61.694H589.726 M591.402,60.019h-13.829v23.044c0,0,2.763,0.928,6.914,0.928
								c3.819,0,6.914-1.185,6.914-1.185V60.019L591.402,60.019z"/>
						</g>
						<g>
							
								<line style="fill:none;stroke:#FFFFFF;stroke-width:1.6753;stroke-miterlimit:10;" x1="584.487" y1="83.571" x2="584.487" y2="68.611"/>
						</g>
						<g style="opacity:0.35;">
							<defs>
								<polygon id="SVGID_00000076578335675106562010000018084401432435784333_" style="opacity:0.35;" points="577.573,60.019 
									577.573,83.062 591.402,82.806 591.402,60.019 								"/>
							</defs>
							<clipPath id="SVGID_00000107548441695312409350000007453862442261310393_">
								<use xlink:href="#SVGID_00000076578335675106562010000018084401432435784333_"  style="overflow:visible;"/>
							</clipPath>
							
								<polygon style="clip-path:url(#SVGID_00000107548441695312409350000007453862442261310393_);fill-rule:evenodd;clip-rule:evenodd;fill:#FFFFFF;" points="
								583.008,83.96 577.577,83.96 585.621,65.296 591.051,65.296 							"/>
						</g>
						<path style="fill-rule:evenodd;clip-rule:evenodd;fill:none;stroke:#FFFFFF;stroke-width:0.8376;stroke-miterlimit:10;" d="
							M586.736,77.288L586.736,77.288c-0.133,0-0.242-0.109-0.242-0.241v-0.701c0-0.133,0.109-0.241,0.241-0.241h0
							c0.133,0,0.241,0.109,0.241,0.241v0.701C586.977,77.179,586.868,77.288,586.736,77.288z"/>
					</g>
					<path style="fill-rule:evenodd;clip-rule:evenodd;fill:#C8DEEF;" d="M584.137,49.04c-9.804,0-17.751,5.234-17.751,11.69
						c0,6.456,7.948,11.69,17.751,11.69c9.804,0,17.751-5.234,17.751-11.69C601.888,54.273,593.94,49.04,584.137,49.04z"/>
					<g>
						<path style="fill-rule:evenodd;clip-rule:evenodd;fill:#322D4F;" d="M584.137,45.73c-9.941,0-18,5.74-18,12.821
							c0,7.081,8.059,12.821,17.999,12.821c9.941,0,18-5.74,18-12.821C602.136,51.47,594.077,45.73,584.137,45.73z"/>
						<path style="fill-rule:evenodd;clip-rule:evenodd;fill:#5652A2;" d="M584.137,44.168c-9.941,0-18,5.74-18,12.821
							c0,7.081,8.059,12.821,17.999,12.821c9.941,0,18-5.74,18-12.821C602.136,49.908,594.077,44.168,584.137,44.168z"/>
						<g>
							<defs>
								<path id="SVGID_00000034053939258043826320000017636284608223652496_" d="M584.137,44.168c-9.941,0-18,5.74-18,12.821
									c0,7.081,8.059,12.821,17.999,12.821c9.941,0,18-5.74,18-12.821C602.136,49.908,594.077,44.168,584.137,44.168z"/>
							</defs>
							<clipPath id="SVGID_00000085224214142425594300000012334681032912553857_">
								<use xlink:href="#SVGID_00000034053939258043826320000017636284608223652496_"  style="overflow:visible;"/>
							</clipPath>
							<g style="clip-path:url(#SVGID_00000085224214142425594300000012334681032912553857_);">
								
									<line style="opacity:0.1883;fill:none;stroke:#4A4890;stroke-width:3.4954;stroke-linecap:round;stroke-linejoin:round;stroke-miterlimit:1.5;" x1="591.429" y1="35.115" x2="591.429" y2="79.663"/>
								
									<line style="opacity:0.1883;fill:none;stroke:#4A4890;stroke-width:3.4954;stroke-linecap:round;stroke-linejoin:round;stroke-miterlimit:1.5;" x1="576.844" y1="35.115" x2="576.844" y2="79.663"/>
							</g>
							<g style="clip-path:url(#SVGID_00000085224214142425594300000012334681032912553857_);">
								
									<line style="opacity:0.1883;fill:none;stroke:#4A4890;stroke-width:1.7477;stroke-linecap:round;stroke-linejoin:round;stroke-miterlimit:1.5;" x1="563.101" y1="57.015" x2="605.734" y2="57.015"/>
								
									<line style="opacity:0.1883;fill:none;stroke:#4A4890;stroke-width:1.7477;stroke-linecap:round;stroke-linejoin:round;stroke-miterlimit:1.5;" x1="563.101" y1="51.74" x2="605.734" y2="51.74"/>
								
									<line style="opacity:0.1883;fill:none;stroke:#4A4890;stroke-width:1.7477;stroke-linecap:round;stroke-linejoin:round;stroke-miterlimit:1.5;" x1="563.101" y1="46.465" x2="605.734" y2="46.465"/>
								
									<line style="opacity:0.1883;fill:none;stroke:#4A4890;stroke-width:1.7477;stroke-linecap:round;stroke-linejoin:round;stroke-miterlimit:1.5;" x1="563.101" y1="62.877" x2="605.734" y2="62.877"/>
								<polygon style="opacity:0.1477;fill-rule:evenodd;clip-rule:evenodd;fill:#5652A2;" points="604.794,48.223 562.539,68.313 
									602.604,73.35 								"/>
							</g>
						</g>
					</g>
				</g>
			</g>
		</g>
		<g>
			
				<line style="opacity:0.4118;fill:none;stroke:#FFFFFF;stroke-width:4.328;stroke-linecap:round;stroke-linejoin:round;stroke-miterlimit:10;" x1="516.798" y1="88.028" x2="519.652" y2="88.028"/>
			
				<line style="opacity:0.4118;fill:none;stroke:#FFFFFF;stroke-width:4.328;stroke-linecap:round;stroke-linejoin:round;stroke-miterlimit:10;" x1="542.784" y1="88.028" x2="545.638" y2="88.028"/>
			<g>
				<g>
					<path style="fill-rule:evenodd;clip-rule:evenodd;fill:#2E2F5F;" d="M519.346,77.328h-2.338v10.17
						c0,0.645,0.523,1.169,1.169,1.169l0,0c0.646,0,1.169-0.523,1.169-1.169V77.328z"/>
					<path style="fill-rule:evenodd;clip-rule:evenodd;fill:#2E2F5F;" d="M545.271,77.328h-2.338v10.17
						c0,0.645,0.523,1.169,1.169,1.169l0,0c0.646,0,1.169-0.523,1.169-1.169V77.328z"/>
				</g>
				<g>
					<path style="fill-rule:evenodd;clip-rule:evenodd;fill:#5652A2;" d="M531.14,57.68c-10.569,0-19.137,6.599-19.137,14.739
						c0,8.14,8.568,14.739,19.137,14.739c10.569,0,19.137-6.599,19.137-14.739C550.277,64.279,541.709,57.68,531.14,57.68z"/>
					<g>
						<defs>
							<path id="SVGID_00000020397028103751457760000006705369226776076462_" d="M531.14,56.183
								c-10.569,0-19.137,6.599-19.137,14.739c0,8.14,8.568,14.739,19.137,14.739c10.569,0,19.137-6.599,19.137-14.739
								C550.277,62.782,541.709,56.183,531.14,56.183z"/>
						</defs>
						<clipPath id="SVGID_00000085943815226465045370000003399653227191575193_">
							<use xlink:href="#SVGID_00000020397028103751457760000006705369226776076462_"  style="overflow:visible;"/>
						</clipPath>
						
							<rect x="509.823" y="63.093" style="clip-path:url(#SVGID_00000085943815226465045370000003399653227191575193_);fill-rule:evenodd;clip-rule:evenodd;fill:#424186;" width="42.633" height="24.197"/>
						<g style="clip-path:url(#SVGID_00000085943815226465045370000003399653227191575193_);">
							
								<line style="opacity:0.1883;fill:none;stroke:#4A4890;stroke-width:1.7477;stroke-linejoin:round;stroke-miterlimit:1.5;" x1="509.823" y1="66.985" x2="552.457" y2="66.985"/>
							
								<line style="opacity:0.1883;fill:none;stroke:#4A4890;stroke-width:1.7477;stroke-linejoin:round;stroke-miterlimit:1.5;" x1="509.823" y1="71.088" x2="552.457" y2="71.088"/>
							
								<line style="opacity:0.1883;fill:none;stroke:#4A4890;stroke-width:1.7477;stroke-linejoin:round;stroke-miterlimit:1.5;" x1="509.823" y1="75.192" x2="552.457" y2="75.192"/>
							
								<line style="opacity:0.1883;fill:none;stroke:#4A4890;stroke-width:1.7477;stroke-linejoin:round;stroke-miterlimit:1.5;" x1="509.823" y1="79.294" x2="552.457" y2="79.294"/>
							
								<line style="opacity:0.1883;fill:none;stroke:#4A4890;stroke-width:1.7477;stroke-linejoin:round;stroke-miterlimit:1.5;" x1="509.823" y1="83.397" x2="552.457" y2="83.397"/>
						</g>
					</g>
					<path style="fill-rule:evenodd;clip-rule:evenodd;fill:#D2F4FD;" d="M531.14,56.647c-9.804,0-17.751,6.121-17.751,13.672
						c0,7.551,7.948,13.672,17.751,13.672c9.804,0,17.751-6.121,17.751-13.672C548.891,62.767,540.944,56.647,531.14,56.647z"/>
					<path style="fill-rule:evenodd;clip-rule:evenodd;fill:#87DFEE;" d="M513.389,65.601c0,7.31,7.947,13.237,17.751,13.237
						c9.804,0,17.751-5.926,17.751-13.236c0-7.31-7.947-13.237-17.751-13.237C521.336,52.364,513.389,58.291,513.389,65.601z"/>
					<path style="opacity:0.5;fill-rule:evenodd;clip-rule:evenodd;fill:#00B4BB;" d="M515.185,65.789
						c0,5.795,7.143,10.492,15.955,10.492c8.812,0,15.955-4.698,15.955-10.492c0-5.795-7.143-10.492-15.955-10.492
						C522.329,55.296,515.185,59.994,515.185,65.789z"/>
					<g>
						<defs>
							
								<rect id="SVGID_00000111892147539893376330000010543610415447671964_" x="524.581" y="69.088" width="13.82" height="14.903"/>
						</defs>
						<clipPath id="SVGID_00000153697251222216716100000003954879279219443358_">
							<use xlink:href="#SVGID_00000111892147539893376330000010543610415447671964_"  style="overflow:visible;"/>
						</clipPath>
						
							<path style="clip-path:url(#SVGID_00000153697251222216716100000003954879279219443358_);fill-rule:evenodd;clip-rule:evenodd;fill:#87DFEE;" d="
							M513.389,70.401c0,7.506,7.947,13.59,17.751,13.59c9.804,0,17.751-6.084,17.751-13.59c0-7.506-7.948-13.59-17.751-13.59
							C521.336,56.811,513.389,62.895,513.389,70.401z"/>
					</g>
					<path style="opacity:0.5;fill-rule:evenodd;clip-rule:evenodd;fill:#00B4BB;" d="M525.56,63.233v19.765
						c0,0,2.655-1.384,5.931-1.384h0c3.275,0,5.931,1.384,5.931,1.384V63.233H525.56z"/>
					<path style="opacity:0.5;fill-rule:evenodd;clip-rule:evenodd;fill:#807DB9;" d="M524.581,83.027l0.979-0.531
						c0,0,2.655-1.384,5.931-1.384h0c3.275,0,5.931,1.384,5.931,1.384l0.979,0.309l-3.197,0.192l-7.935,0.312L524.581,83.027z"/>
					<g>
						<polygon style="fill-rule:evenodd;clip-rule:evenodd;fill:#87DFEE;" points="517.009,72.071 514.477,68.979 514.477,59.506 
							517.009,59.506 						"/>
						<polygon style="fill-rule:evenodd;clip-rule:evenodd;fill:#87DFEE;" points="547.803,68.979 545.271,72.071 545.271,59.506 
							547.803,59.506 						"/>
					</g>
					<g>
						<polygon style="fill-rule:evenodd;clip-rule:evenodd;fill:#D2F4FD;" points="514.896,71.393 513.389,70.142 513.389,55.719 
							514.896,55.719 						"/>
						<polygon style="fill-rule:evenodd;clip-rule:evenodd;fill:#D2F4FD;" points="548.891,70.142 547.384,71.393 547.384,55.719 
							548.891,55.719 						"/>
					</g>
					<g>
						<rect x="523.597" y="70.581" style="fill-rule:evenodd;clip-rule:evenodd;fill:#87DFEE;" width="1.376" height="7.92"/>
						<rect x="538.033" y="70.581" style="fill-rule:evenodd;clip-rule:evenodd;fill:#87DFEE;" width="1.376" height="7.92"/>
					</g>
					<rect x="522.142" y="68.652" style="fill-rule:evenodd;clip-rule:evenodd;fill:#D2F4FD;" width="2.552" height="10.661"/>
					<rect x="538.312" y="68.652" style="fill-rule:evenodd;clip-rule:evenodd;fill:#D2F4FD;" width="2.552" height="10.661"/>
					<g>
						<g>
							<path style="fill:#FFFFFF;" d="M536.73,61.694v19.884c-1.142,0.315-3.074,0.737-5.239,0.737c-2.29,0-4.133-0.304-5.239-0.547
								V61.694H536.73 M538.405,60.019h-13.829v23.044c0,0,2.763,0.928,6.914,0.928c3.819,0,6.914-1.185,6.914-1.185V60.019
								L538.405,60.019z"/>
						</g>
						<g>
							
								<line style="fill:none;stroke:#FFFFFF;stroke-width:1.6753;stroke-miterlimit:10;" x1="531.491" y1="83.571" x2="531.491" y2="68.611"/>
						</g>
						<g style="opacity:0.35;">
							<defs>
								<polygon id="SVGID_00000129188323868143279350000003544351961943237530_" style="opacity:0.35;" points="524.576,60.019 
									524.576,83.062 538.405,82.806 538.405,60.019 								"/>
							</defs>
							<clipPath id="SVGID_00000119805468463772666810000007819431527519204760_">
								<use xlink:href="#SVGID_00000129188323868143279350000003544351961943237530_"  style="overflow:visible;"/>
							</clipPath>
							
								<polygon style="clip-path:url(#SVGID_00000119805468463772666810000007819431527519204760_);fill-rule:evenodd;clip-rule:evenodd;fill:#FFFFFF;" points="
								530.011,83.96 524.581,83.96 532.624,65.296 538.055,65.296 							"/>
						</g>
						<path style="fill-rule:evenodd;clip-rule:evenodd;fill:none;stroke:#FFFFFF;stroke-width:0.8376;stroke-miterlimit:10;" d="
							M533.739,77.288L533.739,77.288c-0.133,0-0.242-0.109-0.242-0.241v-0.701c0-0.133,0.109-0.241,0.241-0.241h0
							c0.133,0,0.241,0.109,0.241,0.241v0.701C533.98,77.179,533.872,77.288,533.739,77.288z"/>
					</g>
					<path style="fill-rule:evenodd;clip-rule:evenodd;fill:#C8DEEF;" d="M531.14,49.04c-9.804,0-17.751,5.234-17.751,11.69
						c0,6.456,7.948,11.69,17.751,11.69c9.804,0,17.751-5.234,17.751-11.69C548.891,54.273,540.944,49.04,531.14,49.04z"/>
					<g>
						<path style="fill-rule:evenodd;clip-rule:evenodd;fill:#322D4F;" d="M531.14,45.73c-9.941,0-18,5.74-18,12.821
							c0,7.081,8.059,12.821,17.999,12.821c9.941,0,18-5.74,18-12.821C549.14,51.47,541.081,45.73,531.14,45.73z"/>
						<path style="fill-rule:evenodd;clip-rule:evenodd;fill:#5652A2;" d="M531.14,44.168c-9.941,0-18,5.74-18,12.821
							c0,7.081,8.059,12.821,17.999,12.821c9.941,0,18-5.74,18-12.821C549.14,49.908,541.081,44.168,531.14,44.168z"/>
						<g>
							<defs>
								<path id="SVGID_00000063633682456266642430000013059127609926180243_" d="M531.14,44.168c-9.941,0-18,5.74-18,12.821
									c0,7.081,8.059,12.821,17.999,12.821c9.941,0,18-5.74,18-12.821C549.14,49.908,541.081,44.168,531.14,44.168z"/>
							</defs>
							<clipPath id="SVGID_00000005231202515372813250000001828330293502559668_">
								<use xlink:href="#SVGID_00000063633682456266642430000013059127609926180243_"  style="overflow:visible;"/>
							</clipPath>
							<g style="clip-path:url(#SVGID_00000005231202515372813250000001828330293502559668_);">
								
									<line style="opacity:0.1883;fill:none;stroke:#4A4890;stroke-width:3.4954;stroke-linecap:round;stroke-linejoin:round;stroke-miterlimit:1.5;" x1="538.432" y1="35.115" x2="538.432" y2="79.663"/>
								
									<line style="opacity:0.1883;fill:none;stroke:#4A4890;stroke-width:3.4954;stroke-linecap:round;stroke-linejoin:round;stroke-miterlimit:1.5;" x1="523.848" y1="35.115" x2="523.848" y2="79.663"/>
							</g>
							<g style="clip-path:url(#SVGID_00000005231202515372813250000001828330293502559668_);">
								
									<line style="opacity:0.1883;fill:none;stroke:#4A4890;stroke-width:1.7477;stroke-linecap:round;stroke-linejoin:round;stroke-miterlimit:1.5;" x1="510.104" y1="57.015" x2="552.737" y2="57.015"/>
								
									<line style="opacity:0.1883;fill:none;stroke:#4A4890;stroke-width:1.7477;stroke-linecap:round;stroke-linejoin:round;stroke-miterlimit:1.5;" x1="510.104" y1="51.74" x2="552.737" y2="51.74"/>
								
									<line style="opacity:0.1883;fill:none;stroke:#4A4890;stroke-width:1.7477;stroke-linecap:round;stroke-linejoin:round;stroke-miterlimit:1.5;" x1="510.104" y1="46.465" x2="552.737" y2="46.465"/>
								
									<line style="opacity:0.1883;fill:none;stroke:#4A4890;stroke-width:1.7477;stroke-linecap:round;stroke-linejoin:round;stroke-miterlimit:1.5;" x1="510.104" y1="62.877" x2="552.737" y2="62.877"/>
								<polygon style="opacity:0.1477;fill-rule:evenodd;clip-rule:evenodd;fill:#5652A2;" points="551.798,48.223 509.543,68.313 
									549.607,73.35 								"/>
							</g>
						</g>
					</g>
				</g>
			</g>
		</g>
		<g>
			
				<line style="opacity:0.4118;fill:none;stroke:#FFFFFF;stroke-width:4.328;stroke-linecap:round;stroke-linejoin:round;stroke-miterlimit:10;" x1="627.581" y1="44.121" x2="630.435" y2="44.121"/>
			<g>
				<g>
					<rect x="601.846" y="33.314" style="fill-rule:evenodd;clip-rule:evenodd;fill:#2E2F5F;" width="2.338" height="11.339"/>
					<path style="fill-rule:evenodd;clip-rule:evenodd;fill:#2E2F5F;" d="M630.109,33.314h-2.338v10.17
						c0,0.646,0.523,1.169,1.169,1.169l0,0c0.646,0,1.169-0.523,1.169-1.169V33.314z"/>
				</g>
				<g>
					<path style="fill-rule:evenodd;clip-rule:evenodd;fill:#5652A2;" d="M615.978,13.666c-10.569,0-19.137,6.599-19.137,14.739
						c0,8.14,8.568,14.739,19.136,14.739c10.569,0,19.137-6.599,19.137-14.739C635.115,20.264,626.547,13.666,615.978,13.666z"/>
					<g>
						<defs>
							<path id="SVGID_00000127018608117663014120000002042504536319267508_" d="M615.978,12.168
								c-10.569,0-19.137,6.599-19.137,14.739c0,8.14,8.568,14.739,19.136,14.739c10.569,0,19.137-6.599,19.137-14.739
								C635.115,18.767,626.547,12.168,615.978,12.168z"/>
						</defs>
						<clipPath id="SVGID_00000137112666436630935060000002975370214646916515_">
							<use xlink:href="#SVGID_00000127018608117663014120000002042504536319267508_"  style="overflow:visible;"/>
						</clipPath>
						
							<rect x="594.661" y="19.078" style="clip-path:url(#SVGID_00000137112666436630935060000002975370214646916515_);fill-rule:evenodd;clip-rule:evenodd;fill:#424186;" width="42.633" height="24.197"/>
						<g style="clip-path:url(#SVGID_00000137112666436630935060000002975370214646916515_);">
							
								<line style="opacity:0.1883;fill:none;stroke:#4A4890;stroke-width:1.7477;stroke-linejoin:round;stroke-miterlimit:1.5;" x1="594.661" y1="22.97" x2="637.295" y2="22.97"/>
							
								<line style="opacity:0.1883;fill:none;stroke:#4A4890;stroke-width:1.7477;stroke-linejoin:round;stroke-miterlimit:1.5;" x1="594.661" y1="27.073" x2="637.295" y2="27.073"/>
							
								<line style="opacity:0.1883;fill:none;stroke:#4A4890;stroke-width:1.7477;stroke-linejoin:round;stroke-miterlimit:1.5;" x1="594.661" y1="31.177" x2="637.295" y2="31.177"/>
							
								<line style="opacity:0.1883;fill:none;stroke:#4A4890;stroke-width:1.7477;stroke-linejoin:round;stroke-miterlimit:1.5;" x1="594.661" y1="35.28" x2="637.295" y2="35.28"/>
							
								<line style="opacity:0.1883;fill:none;stroke:#4A4890;stroke-width:1.7477;stroke-linejoin:round;stroke-miterlimit:1.5;" x1="594.661" y1="39.382" x2="637.295" y2="39.382"/>
						</g>
					</g>
					<path style="fill-rule:evenodd;clip-rule:evenodd;fill:#D2F4FD;" d="M615.978,12.632c-9.804,0-17.751,6.121-17.751,13.672
						c0,7.551,7.948,13.672,17.751,13.672c9.804,0,17.751-6.121,17.751-13.672C633.729,18.753,625.781,12.632,615.978,12.632z"/>
					<path style="fill-rule:evenodd;clip-rule:evenodd;fill:#87DFEE;" d="M598.227,21.586c0,7.31,7.947,13.237,17.751,13.237
						c9.804,0,17.751-5.926,17.751-13.236c0-7.31-7.947-13.237-17.751-13.237C606.174,8.35,598.227,14.276,598.227,21.586z"/>
					<path style="opacity:0.5;fill-rule:evenodd;clip-rule:evenodd;fill:#00B4BB;" d="M600.023,21.774
						c0,5.795,7.143,10.492,15.955,10.492c8.812,0,15.955-4.698,15.955-10.492c0-5.795-7.143-10.492-15.955-10.492
						C607.166,11.282,600.023,15.979,600.023,21.774z"/>
					<g>
						<defs>
							
								<rect id="SVGID_00000023981300241728660160000016704055714549538467_" x="609.419" y="25.074" width="13.82" height="14.903"/>
						</defs>
						<clipPath id="SVGID_00000176032524247758177820000004349768973041020068_">
							<use xlink:href="#SVGID_00000023981300241728660160000016704055714549538467_"  style="overflow:visible;"/>
						</clipPath>
						
							<path style="clip-path:url(#SVGID_00000176032524247758177820000004349768973041020068_);fill-rule:evenodd;clip-rule:evenodd;fill:#87DFEE;" d="
							M598.227,26.386c0,7.506,7.947,13.59,17.751,13.59c9.804,0,17.751-6.084,17.751-13.59c0-7.506-7.948-13.59-17.751-13.59
							C606.174,12.796,598.227,18.881,598.227,26.386z"/>
					</g>
					<path style="opacity:0.5;fill-rule:evenodd;clip-rule:evenodd;fill:#00B4BB;" d="M610.398,19.218v19.765
						c0,0,2.655-1.385,5.931-1.385h0c3.275,0,5.931,1.385,5.931,1.385V19.218H610.398z"/>
					<path style="opacity:0.5;fill-rule:evenodd;clip-rule:evenodd;fill:#807DB9;" d="M609.419,39.012l0.979-0.531
						c0,0,2.655-1.384,5.931-1.384h0c3.275,0,5.931,1.384,5.931,1.384l0.979,0.309l-3.197,0.192l-7.935,0.312L609.419,39.012z"/>
					<g>
						<polygon style="fill-rule:evenodd;clip-rule:evenodd;fill:#87DFEE;" points="601.846,28.057 599.314,24.965 599.314,15.491 
							601.846,15.491 						"/>
						<polygon style="fill-rule:evenodd;clip-rule:evenodd;fill:#87DFEE;" points="632.641,24.965 630.109,28.057 630.109,15.491 
							632.641,15.491 						"/>
					</g>
					<g>
						<polygon style="fill-rule:evenodd;clip-rule:evenodd;fill:#D2F4FD;" points="599.734,27.378 598.227,26.128 598.227,11.705 
							599.734,11.705 						"/>
						<polygon style="fill-rule:evenodd;clip-rule:evenodd;fill:#D2F4FD;" points="633.729,26.128 632.222,27.378 632.222,11.705 
							633.729,11.705 						"/>
					</g>
					<g>
						<rect x="608.435" y="26.567" style="fill-rule:evenodd;clip-rule:evenodd;fill:#87DFEE;" width="1.376" height="7.92"/>
						<rect x="622.87" y="26.567" style="fill-rule:evenodd;clip-rule:evenodd;fill:#87DFEE;" width="1.376" height="7.92"/>
					</g>
					<rect x="606.98" y="24.637" style="fill-rule:evenodd;clip-rule:evenodd;fill:#D2F4FD;" width="2.552" height="10.661"/>
					<rect x="623.149" y="24.637" style="fill-rule:evenodd;clip-rule:evenodd;fill:#D2F4FD;" width="2.552" height="10.661"/>
					<g>
						<g>
							<path style="fill:#FFFFFF;" d="M621.568,17.68v19.884c-1.142,0.315-3.074,0.737-5.239,0.737c-2.29,0-4.133-0.304-5.239-0.547
								V17.68H621.568 M623.243,16.004h-13.829v23.043c0,0,2.763,0.928,6.914,0.928c3.819,0,6.914-1.185,6.914-1.185V16.004
								L623.243,16.004z"/>
						</g>
						<g>
							
								<line style="fill:none;stroke:#FFFFFF;stroke-width:1.6753;stroke-miterlimit:10;" x1="616.328" y1="39.556" x2="616.328" y2="24.596"/>
						</g>
						<g style="opacity:0.35;">
							<defs>
								<polygon id="SVGID_00000090991317020866496590000011037066540763738752_" style="opacity:0.35;" points="609.414,16.004 
									609.414,39.048 623.243,38.791 623.243,16.004 								"/>
							</defs>
							<clipPath id="SVGID_00000111190270817043127670000002394487142366406804_">
								<use xlink:href="#SVGID_00000090991317020866496590000011037066540763738752_"  style="overflow:visible;"/>
							</clipPath>
							
								<polygon style="clip-path:url(#SVGID_00000111190270817043127670000002394487142366406804_);fill-rule:evenodd;clip-rule:evenodd;fill:#FFFFFF;" points="
								614.849,39.945 609.419,39.945 617.462,21.282 622.892,21.282 							"/>
						</g>
						<path style="fill-rule:evenodd;clip-rule:evenodd;fill:none;stroke:#FFFFFF;stroke-width:0.8376;stroke-miterlimit:10;" d="
							M618.577,33.273L618.577,33.273c-0.133,0-0.242-0.109-0.242-0.241v-0.701c0-0.133,0.109-0.241,0.241-0.241h0
							c0.133,0,0.241,0.109,0.241,0.241v0.701C618.818,33.164,618.71,33.273,618.577,33.273z"/>
					</g>
					<path style="fill-rule:evenodd;clip-rule:evenodd;fill:#C8DEEF;" d="M615.978,5.025c-9.804,0-17.751,5.234-17.751,11.69
						c0,6.456,7.948,11.69,17.751,11.69c9.804,0,17.751-5.234,17.751-11.69C633.729,10.259,625.781,5.025,615.978,5.025z"/>
					<g>
						<path style="fill-rule:evenodd;clip-rule:evenodd;fill:#322D4F;" d="M615.978,1.716c-9.941,0-18,5.74-18,12.821
							c0,7.081,8.059,12.821,17.999,12.821c9.941,0,18-5.74,18-12.821C633.977,7.456,625.919,1.716,615.978,1.716z"/>
						<path style="fill-rule:evenodd;clip-rule:evenodd;fill:#5652A2;" d="M615.978,0.154c-9.941,0-18,5.74-18,12.821
							c0,7.081,8.059,12.821,17.999,12.821c9.941,0,18-5.74,18-12.821C633.977,5.894,625.919,0.154,615.978,0.154z"/>
						<g>
							<defs>
								<path id="SVGID_00000137114090205101701370000009445673586907768469_" d="M615.978,0.154c-9.941,0-18,5.74-18,12.821
									c0,7.081,8.059,12.821,17.999,12.821c9.941,0,18-5.74,18-12.821C633.977,5.894,625.919,0.154,615.978,0.154z"/>
							</defs>
							<clipPath id="SVGID_00000071521220307612583300000003932467002696669830_">
								<use xlink:href="#SVGID_00000137114090205101701370000009445673586907768469_"  style="overflow:visible;"/>
							</clipPath>
							<g style="clip-path:url(#SVGID_00000071521220307612583300000003932467002696669830_);">
								
									<line style="opacity:0.1883;fill:none;stroke:#4A4890;stroke-width:3.4954;stroke-linecap:round;stroke-linejoin:round;stroke-miterlimit:1.5;" x1="623.27" y1="-8.899" x2="623.27" y2="35.648"/>
								
									<line style="opacity:0.1883;fill:none;stroke:#4A4890;stroke-width:3.4954;stroke-linecap:round;stroke-linejoin:round;stroke-miterlimit:1.5;" x1="608.685" y1="-8.899" x2="608.685" y2="35.648"/>
							</g>
							<g style="clip-path:url(#SVGID_00000071521220307612583300000003932467002696669830_);">
								
									<line style="opacity:0.1883;fill:none;stroke:#4A4890;stroke-width:1.7477;stroke-linecap:round;stroke-linejoin:round;stroke-miterlimit:1.5;" x1="594.942" y1="13" x2="637.575" y2="13"/>
								
									<line style="opacity:0.1883;fill:none;stroke:#4A4890;stroke-width:1.7477;stroke-linecap:round;stroke-linejoin:round;stroke-miterlimit:1.5;" x1="594.942" y1="7.725" x2="637.575" y2="7.725"/>
								
									<line style="opacity:0.1883;fill:none;stroke:#4A4890;stroke-width:1.7477;stroke-linecap:round;stroke-linejoin:round;stroke-miterlimit:1.5;" x1="594.942" y1="2.45" x2="637.575" y2="2.45"/>
								
									<line style="opacity:0.1883;fill:none;stroke:#4A4890;stroke-width:1.7477;stroke-linecap:round;stroke-linejoin:round;stroke-miterlimit:1.5;" x1="594.942" y1="18.862" x2="637.575" y2="18.862"/>
								<polygon style="opacity:0.1477;fill-rule:evenodd;clip-rule:evenodd;fill:#5652A2;" points="636.635,4.209 594.381,24.299 
									634.445,29.336 								"/>
							</g>
						</g>
					</g>
				</g>
			</g>
			<circle style="fill:#FFF5C3;" cx="603.015" cy="44.652" r="1.491"/>
		</g>
	</g>
	<g>
		<g style="opacity:0.2;">
			<defs>
				<path id="SVGID_00000101791673389954065660000014381813672497408691_" style="opacity:0.2;" d="M457.942,181.289h14.706
					c2.006,0,3.93,0.797,5.348,2.215l0,0c1.418,1.418,3.342,2.215,5.348,2.215h7.511c2.006,0,3.93,0.797,5.348,2.215l1.058,1.058
					c1.418,1.418,3.342,2.215,5.348,2.215h11.116l-37.944,19.042l-18.76-5.758L457.942,181.289z"/>
			</defs>
			<clipPath id="SVGID_00000155829426768114487250000003063818650811173027_">
				<use xlink:href="#SVGID_00000101791673389954065660000014381813672497408691_"  style="overflow:visible;"/>
			</clipPath>
			<g style="clip-path:url(#SVGID_00000155829426768114487250000003063818650811173027_);">
				<g>
					<g>
						<defs>
							<path id="SVGID_00000150088615175256257420000013590637305416542114_" d="M462.283,184.033
								c-0.583-0.953-0.763-2.098-0.501-3.183c0.261-1.086,0.943-2.023,1.896-2.605c7.316-4.474,23.821-14.567,30.56-18.687
								c1.911-1.168,4.158-1.662,6.383-1.402c2.537,0.297,6.054,0.707,9.03,1.055c1.405,0.165,2.658,0.965,3.396,2.173
								c0.738,1.207,0.881,2.688,0.387,4.013c-1.047,2.808-2.284,6.126-3.176,8.519c-0.783,2.098-2.246,3.874-4.157,5.042
								c-6.738,4.121-23.244,14.214-30.56,18.687c-0.953,0.583-2.098,0.763-3.183,0.501c-1.086-0.261-2.023-0.943-2.605-1.896
								C467.625,192.767,464.413,187.515,462.283,184.033z"/>
						</defs>
						<clipPath id="SVGID_00000091737766954091957070000017764373799554071685_">
							<use xlink:href="#SVGID_00000150088615175256257420000013590637305416542114_"  style="overflow:visible;"/>
						</clipPath>
						
							<line style="opacity:0.1883;clip-path:url(#SVGID_00000091737766954091957070000017764373799554071685_);fill:none;stroke:#4A4693;stroke-width:1.5061;stroke-linejoin:round;stroke-miterlimit:1.5;" x1="530.626" y1="142.045" x2="499.297" y2="161.203"/>
						
							<line style="opacity:0.1883;clip-path:url(#SVGID_00000091737766954091957070000017764373799554071685_);fill:none;stroke:#4A4693;stroke-width:1.5061;stroke-linejoin:round;stroke-miterlimit:1.5;" x1="532.472" y1="145.063" x2="501.142" y2="164.221"/>
					</g>
				</g>
			</g>
		</g>
		<g>
			<defs>
				<path id="SVGID_00000156545716245768756320000008632874399055978942_" d="M457.942,181.289h14.706
					c2.006,0,3.93,0.797,5.348,2.215l0,0c1.418,1.418,3.342,2.215,5.348,2.215h7.511c2.006,0,3.93,0.797,5.348,2.215l1.058,1.058
					c1.418,1.418,3.342,2.215,5.348,2.215h11.116l6.377-37.439l-18.76-5.758l-48.926,13.125L457.942,181.289z"/>
			</defs>
			<clipPath id="SVGID_00000106114873811110986580000009641071473537814197_">
				<use xlink:href="#SVGID_00000156545716245768756320000008632874399055978942_"  style="overflow:visible;"/>
			</clipPath>
			<g style="clip-path:url(#SVGID_00000106114873811110986580000009641071473537814197_);">
				<g>
					<g>
						<defs>
							<path id="SVGID_00000006690453191886262770000011748395033505535150_" d="M462.283,184.033
								c-0.583-0.953-0.763-2.098-0.501-3.183c0.261-1.086,0.943-2.023,1.896-2.605c7.316-4.474,23.821-14.567,30.56-18.687
								c1.911-1.168,4.158-1.662,6.383-1.402c2.537,0.297,6.054,0.707,9.03,1.055c1.405,0.165,2.658,0.965,3.396,2.173
								c0.738,1.207,0.881,2.688,0.387,4.013c-1.047,2.808-2.284,6.126-3.176,8.519c-0.783,2.098-2.246,3.874-4.157,5.042
								c-6.738,4.121-23.244,14.214-30.56,18.687c-0.953,0.583-2.098,0.763-3.183,0.501c-1.086-0.261-2.023-0.943-2.605-1.896
								C467.625,192.767,464.413,187.515,462.283,184.033z"/>
						</defs>
						<clipPath id="SVGID_00000114779522139529044570000009770554102015856269_">
							<use xlink:href="#SVGID_00000006690453191886262770000011748395033505535150_"  style="overflow:visible;"/>
						</clipPath>
						<g style="opacity:0.1883;clip-path:url(#SVGID_00000114779522139529044570000009770554102015856269_);">
							
								<rect x="496.6" y="150.871" transform="matrix(0.8531 -0.5218 0.5218 0.8531 -3.4502 290.9958)" style="fill:#4A4693;" width="36.723" height="1.507"/>
						</g>
						<g style="opacity:0.1883;clip-path:url(#SVGID_00000114779522139529044570000009770554102015856269_);">
							
								<rect x="498.445" y="153.888" transform="matrix(0.8531 -0.5218 0.5218 0.8531 -4.7537 292.4021)" style="fill:#4A4693;" width="36.723" height="1.507"/>
						</g>
					</g>
				</g>
			</g>
		</g>
	</g>
	<g>
		<path style="fill-rule:evenodd;clip-rule:evenodd;fill:#3EE1DE;" d="M71.869,33.506c12.613-12.612,29.719-19.698,47.556-19.698
			h33.199c17.837,0,34.944,7.086,47.557,19.699l16.083,16.084c1.822,1.822,4.713,2.005,6.745,0.422
			c3.615-2.817,8.156-4.499,13.087-4.499l10.144,0c11.47,0,21.355,8.797,21.919,20.253c0.603,12.244-9.192,22.397-21.316,22.397
			h-0.883c-3.08,0-5.463,2.699-5.068,5.753c0.045,0.345,0.087,0.691,0.126,1.038c0.298,2.622,2.591,4.636,5.225,4.479
			c0.411-0.024,0.824-0.037,1.241-0.037l10.144,0c11.47,0,21.355,8.797,21.919,20.253c0.603,12.244-9.192,22.397-21.316,22.397
			h-10.747c-3.762,0-7.292-0.985-10.36-2.704c-2.366-1.326-5.343-0.713-6.847,1.544c-0.443,0.664-0.898,1.322-1.365,1.972
			c-1.493,2.077-0.472,5.014,2.004,5.654c6.944,1.794,17.783,6.618,17.547,19.237c-0.229,12.257-9.192,22.397-21.316,22.397l0,0
			c-3.683,0-6.155,3.77-4.686,7.147c3.256,7.487,4.968,15.633,4.968,24.043v24.213c0,16.115-6.276,31.266-17.671,42.662
			l-17.548,17.548c-11.396,11.394-26.546,17.668-42.659,17.668h-22.726c-1.543,0-3.022,0.613-4.113,1.704l-96.062,96.059
			l-9.123-162.944c-1.46-4.258-2.216-8.74-2.216-13.26v-26.318l-67.777-70.659L71.869,33.506z"/>
		<path style="fill-rule:evenodd;clip-rule:evenodd;fill:#00B465;" d="M247.475,128.418h10.759c4.233,0,7.695-3.463,7.695-7.696v0
			c0-4.233-3.463-7.696-7.695-7.696h-10.759c-4.233,0-7.696,3.463-7.696,7.696v0C239.78,124.955,243.243,128.418,247.475,128.418z"
			/>
		<path style="fill-rule:evenodd;clip-rule:evenodd;fill:#00B465;" d="M236.087,74.534h10.759c4.233,0,7.696-3.463,7.696-7.696v0
			c0-4.233-3.463-7.696-7.696-7.696h-10.759c-4.233,0-7.696,3.463-7.696,7.696v0C228.392,71.071,231.855,74.534,236.087,74.534z"/>
		<g>
			<path style="fill:#FFF5C3;" d="M42.569,199.409c0-3.641,1.446-7.134,4.021-9.709l55.349-55.349
				c5.362-5.362,5.362-14.055,0-19.417l-7.953-7.953c-2.575-2.575-4.022-6.067-4.022-9.709V82.027c0-3.641,1.447-7.134,4.022-9.709
				l31.251-31.251h27.387c10.607,0,20.78,4.214,28.28,11.714l21.589,21.589c7.5,7.5,11.714,17.673,11.714,28.281v1.083
				c0,10.607-4.214,20.78-11.714,28.281l0,0c-7.5,7.501-17.673,11.714-28.281,11.714h-19.183c-10.608,0-20.78,4.214-28.281,11.714
				L97.681,184.51c-4.555,4.555-4.555,11.941,0,16.496c4.555,4.555,11.941,4.555,16.496,0l16.293-16.293
				c6.202-6.202,14.614-9.687,23.385-9.687s17.184,3.484,23.386,9.687l13.239,13.239c6.202,6.202,9.687,14.614,9.687,23.386v24.212
				c0,8.771-3.485,17.183-9.687,23.386l-9.026,9.026c-1.046-0.595-2.037-1.325-2.93-2.218l-8.141-8.14
				c-2.575-2.575-6.067-4.021-9.709-4.021H132.83c-3.642,0-7.134-1.447-9.709-4.021c-5.362-5.362-14.056-5.362-19.418,0
				l-6.142,6.142c-2.575,2.575-6.067,4.021-9.709,4.021H67.305c-3.642,0-7.134-1.447-9.709-4.021L46.59,254.697
				c-0.831-0.831-1.531-1.765-2.116-2.762l-1.905-34.028V199.409z"/>
			<g>
				<path style="fill:#00B465;" d="M178.525,275.744l-8.141-8.14c-2.575-2.575-6.067-4.021-9.708-4.021H132.83
					c-3.642,0-7.134-1.447-9.708-4.021c-5.362-5.362-14.056-5.362-19.418,0l-6.142,6.142c-2.575,2.575-6.067,4.021-9.708,4.021
					H67.305c-3.642,0-7.134-1.447-9.709-4.021L46.59,254.696c-0.439-0.439-0.837-0.91-1.205-1.4l-2.816-35.389v-18.498
					c0-3.642,1.446-7.134,4.021-9.708l55.349-55.349c5.362-5.362,5.362-14.055,0-19.417l-7.953-7.953
					c-2.575-2.575-4.022-6.067-4.022-9.708V82.027c0-3.642,1.447-7.134,4.022-9.708l31.251-31.251h-5.813
					c-10.607,0-20.78,4.214-28.28,11.714l-143.61,133.813L5.938,402.614l97.497-96.757c6.203-6.203,14.615-9.687,23.385-9.687
					h22.727c8.771,0,17.184-3.484,23.386-9.687l8.521-8.521C180.409,277.367,179.418,276.637,178.525,275.744z"/>
				<g>
					
						<line style="fill:none;stroke:#00B465;stroke-width:10.9038;stroke-linecap:round;stroke-linejoin:round;" x1="125.236" y1="41.068" x2="125.236" y2="41.068"/>
					
						<path style="fill:none;stroke:#00B465;stroke-width:10.9038;stroke-linecap:round;stroke-linejoin:round;stroke-dasharray:0,11.1191;" d="
						M114.131,41.419c-8.654,1.155-16.746,5.121-22.988,11.363L-48.4,182.805"/>
					
						<path style="fill:none;stroke:#00B465;stroke-width:10.9038;stroke-linecap:round;stroke-linejoin:round;stroke-dasharray:0,10.8218;" d="
						M173.477,270.696l-3.092-3.092c-2.575-2.575-6.067-4.021-9.708-4.021H132.83c-3.642,0-7.134-1.447-9.708-4.021
						c-5.362-5.362-14.056-5.362-19.418,0l-6.142,6.142c-2.575,2.575-6.067,4.021-9.708,4.021H67.305
						c-3.642,0-7.134-1.447-9.709-4.021L46.59,254.696c-0.439-0.439-0.837-0.91-1.205-1.4l-2.816-35.389v-18.498
						c0-3.642,1.446-7.134,4.021-9.708l55.349-55.349c5.362-5.362,5.362-14.055,0-19.417l-7.953-7.953
						c-2.575-2.575-4.022-6.067-4.022-9.708V82.027c0-3.642,1.447-7.134,4.022-9.708l27.424-27.425"/>
				</g>
			</g>
			<g>
				<path style="opacity:0.5;fill:#009352;" d="M84.496,129.487c0.925,0,1.674-0.748,1.674-1.673v-5.237
					c0-0.925-0.75-1.673-1.674-1.673s-1.674,0.748-1.674,1.673v5.237C82.821,128.739,83.571,129.487,84.496,129.487z"/>
				<path style="opacity:0.5;fill:#009352;" d="M77.797,129.487c0.925,0,1.674-0.748,1.674-1.673v-3.493
					c0-0.925-0.75-1.673-1.674-1.673s-1.674,0.748-1.674,1.673v3.493C76.123,128.739,76.872,129.487,77.797,129.487z"/>
				<path style="opacity:0.5;fill:#009352;" d="M91.194,129.487c0.925,0,1.674-0.748,1.674-1.673v-3.493
					c0-0.925-0.75-1.673-1.674-1.673s-1.674,0.748-1.674,1.673v3.493C89.52,128.739,90.27,129.487,91.194,129.487z"/>
			</g>
			<g>
				<path style="opacity:0.5;fill:#009352;" d="M69.424,111.725c0.925,0,1.674-0.748,1.674-1.673v-5.237
					c0-0.925-0.75-1.673-1.674-1.673s-1.674,0.748-1.674,1.673v5.237C67.75,110.977,68.499,111.725,69.424,111.725z"/>
				<path style="opacity:0.5;fill:#009352;" d="M62.725,111.725c0.925,0,1.674-0.748,1.674-1.673v-3.493
					c0-0.925-0.75-1.673-1.674-1.673s-1.674,0.748-1.674,1.673v3.493C61.051,110.977,61.801,111.725,62.725,111.725z"/>
				<path style="opacity:0.5;fill:#009352;" d="M76.123,111.725c0.925,0,1.674-0.748,1.674-1.673v-3.493
					c0-0.925-0.75-1.673-1.674-1.673s-1.674,0.748-1.674,1.673v3.493C74.448,110.977,75.198,111.725,76.123,111.725z"/>
			</g>
		</g>
		<g>
			<g>
				<path style="fill:#BD7F46;" d="M72.959,54.783h8.186l2.219,20.243c0.123,1.122-0.756,2.102-1.886,2.102h-8.891
					c-1.131,0-2.011-0.983-1.886-2.106L72.959,54.783z"/>
				<g>
					<defs>
						<path id="SVGID_00000128463559784352125960000017985908490660590745_" d="M72.959,54.783h8.186l2.219,20.243
							c0.123,1.122-0.756,2.102-1.886,2.102h-8.891c-1.131,0-2.011-0.983-1.886-2.106L72.959,54.783z"/>
					</defs>
					<clipPath id="SVGID_00000102517096164352702960000010247266149532012447_">
						<use xlink:href="#SVGID_00000128463559784352125960000017985908490660590745_"  style="overflow:visible;"/>
					</clipPath>
					
						<path style="opacity:0.25;clip-path:url(#SVGID_00000102517096164352702960000010247266149532012447_);fill-rule:evenodd;clip-rule:evenodd;fill:#6A6862;" d="
						M77.026,69.417l6.692-4.873c3.696-2.691,4.114-8.045,0.88-11.276l-2.341-2.339l-10.462,0l-2.341,2.339
						c-3.234,3.231-2.816,8.585,0.88,11.276L77.026,69.417z"/>
				</g>
				<path style="fill-rule:evenodd;clip-rule:evenodd;fill:#00A600;" d="M77.032,54.14c0,2.951-1.173,5.782-3.262,7.87
					c-2.089,2.087-4.923,3.259-7.878,3.259c-5.596,0-11.204,0-11.204,0s0-3.444,0-7.357c0-2.952,1.173-5.784,3.262-7.871
					c2.089-2.086,4.923-3.259,7.878-3.259c5.596,0,11.204,0,11.204,0S77.032,50.225,77.032,54.14z"/>
				<g>
					<defs>
						<path id="SVGID_00000120530744007617587350000010701908904207230357_" d="M77.032,54.14c0,2.951-1.173,5.782-3.262,7.87
							c-2.089,2.087-4.923,3.259-7.878,3.259c-5.596,0-11.204,0-11.204,0s0-3.444,0-7.357c0-2.952,1.173-5.784,3.262-7.871
							c2.089-2.086,4.923-3.259,7.878-3.259c5.596,0,11.204,0,11.204,0S77.032,50.225,77.032,54.14z"/>
					</defs>
					<clipPath id="SVGID_00000041257016672602721040000017852782426584869521_">
						<use xlink:href="#SVGID_00000120530744007617587350000010701908904207230357_"  style="overflow:visible;"/>
					</clipPath>
					
						<polygon style="clip-path:url(#SVGID_00000041257016672602721040000017852782426584869521_);fill-rule:evenodd;clip-rule:evenodd;fill:#009238;" points="
						77.032,46.781 52.098,68.093 77.032,68.093 					"/>
					
						<rect x="51.444" y="54.497" transform="matrix(0.7745 -0.6325 0.6325 0.7745 -20.5049 54.2627)" style="clip-path:url(#SVGID_00000041257016672602721040000017852782426584869521_);fill-rule:evenodd;clip-rule:evenodd;fill:#00B500;" width="28.833" height="2.791"/>
					
						<path style="clip-path:url(#SVGID_00000041257016672602721040000017852782426584869521_);fill-rule:evenodd;clip-rule:evenodd;fill:#007B62;" d="
						M63.998,66.475h2.793c0,0,0-2.897,0-4.694c0-0.77-0.626-1.395-1.396-1.395s-1.396,0.625-1.396,1.395
						C63.998,63.578,63.998,66.475,63.998,66.475z"/>
					
						<path style="clip-path:url(#SVGID_00000041257016672602721040000017852782426584869521_);fill-rule:evenodd;clip-rule:evenodd;fill:#007B62;" d="
						M69.584,66.681h2.793c0,0,0-6.372,0-9.262c0-0.77-0.624-1.394-1.395-1.394c-0.001,0-0.001,0-0.003,0
						c-0.771,0-1.395,0.624-1.395,1.394C69.584,60.309,69.584,66.681,69.584,66.681z"/>
					
						<path style="clip-path:url(#SVGID_00000041257016672602721040000017852782426584869521_);fill-rule:evenodd;clip-rule:evenodd;fill:#009238;" d="
						M54.688,57.447v-2.643c0,0,2.611,0,4.263,0c0.351,0,0.687,0.14,0.936,0.388c0.247,0.247,0.387,0.583,0.387,0.933l0,0
						c0,0.352-0.14,0.686-0.387,0.935c-0.249,0.248-0.585,0.386-0.936,0.386C57.3,57.447,54.688,57.447,54.688,57.447z"/>
					
						<path style="clip-path:url(#SVGID_00000041257016672602721040000017852782426584869521_);fill-rule:evenodd;clip-rule:evenodd;fill:#009238;" d="
						M54.688,52.014v-2.791c0,0,5.68,0,8.38,0c0.771,0,1.395,0.624,1.395,1.394c0,0.001,0,0.003,0,0.003
						c0,0.77-0.624,1.394-1.395,1.394C60.368,52.014,54.688,52.014,54.688,52.014z"/>
				</g>
				<path style="fill-rule:evenodd;clip-rule:evenodd;fill:#00A600;" d="M77.032,54.14c0,2.951,1.173,5.782,3.262,7.87
					c2.089,2.087,4.923,3.259,7.878,3.259c5.596,0,11.204,0,11.204,0s0-3.444,0-7.357c0-2.952-1.173-5.784-3.262-7.871
					c-2.089-2.086-4.923-3.259-7.878-3.259c-5.596,0-11.204,0-11.204,0S77.032,50.225,77.032,54.14z"/>
				<g>
					<defs>
						<path id="SVGID_00000114034532180172414220000008149631776973071032_" d="M77.032,54.14c0,2.951,1.173,5.782,3.262,7.87
							c2.089,2.087,4.923,3.259,7.878,3.259c5.596,0,11.204,0,11.204,0s0-3.444,0-7.357c0-2.952-1.173-5.784-3.262-7.871
							c-2.089-2.086-4.923-3.259-7.878-3.259c-5.596,0-11.204,0-11.204,0S77.032,50.225,77.032,54.14z"/>
					</defs>
					<clipPath id="SVGID_00000152982471158856434960000011240887587646215589_">
						<use xlink:href="#SVGID_00000114034532180172414220000008149631776973071032_"  style="overflow:visible;"/>
					</clipPath>
					
						<polygon style="clip-path:url(#SVGID_00000152982471158856434960000011240887587646215589_);fill-rule:evenodd;clip-rule:evenodd;fill:#009238;" points="
						77.032,46.781 101.967,68.093 77.032,68.093 					"/>
					
						<rect x="86.809" y="41.477" transform="matrix(0.632 -0.775 0.775 0.632 -10.857 88.9215)" style="clip-path:url(#SVGID_00000152982471158856434960000011240887587646215589_);fill-rule:evenodd;clip-rule:evenodd;fill:#00B500;" width="2.791" height="28.833"/>
					
						<path style="clip-path:url(#SVGID_00000152982471158856434960000011240887587646215589_);fill-rule:evenodd;clip-rule:evenodd;fill:#007B62;" d="
						M90.066,66.475h-2.793c0,0,0-2.897,0-4.694c0-0.77,0.626-1.395,1.396-1.395s1.396,0.625,1.396,1.395
						C90.066,63.578,90.066,66.475,90.066,66.475z"/>
					
						<path style="clip-path:url(#SVGID_00000152982471158856434960000011240887587646215589_);fill-rule:evenodd;clip-rule:evenodd;fill:#007B62;" d="
						M84.48,66.681h-2.793c0,0,0-6.371,0-9.261c0-0.37,0.147-0.724,0.409-0.986c0.261-0.261,0.617-0.409,0.987-0.409
						c0.37,0,0.726,0.148,0.987,0.409c0.263,0.262,0.409,0.617,0.409,0.986C84.48,60.31,84.48,66.681,84.48,66.681z"/>
					
						<path style="clip-path:url(#SVGID_00000152982471158856434960000011240887587646215589_);fill-rule:evenodd;clip-rule:evenodd;fill:#009238;" d="
						M99.376,57.595v-2.791c0,0-2.536,0-4.191,0c-0.37,0-0.725,0.147-0.986,0.409c-0.263,0.261-0.409,0.615-0.409,0.985
						c0,0.001,0,0.003,0,0.003c0,0.37,0.147,0.724,0.409,0.986c0.261,0.261,0.616,0.407,0.986,0.407
						C96.84,57.595,99.376,57.595,99.376,57.595z"/>
					
						<path style="clip-path:url(#SVGID_00000152982471158856434960000011240887587646215589_);fill-rule:evenodd;clip-rule:evenodd;fill:#009238;" d="
						M99.376,52.014v-2.791c0,0-5.678,0-8.379,0c-0.37,0-0.726,0.148-0.987,0.409c-0.263,0.262-0.409,0.617-0.409,0.986
						c0,0.37,0.147,0.726,0.409,0.986c0.261,0.262,0.617,0.409,0.987,0.409C93.698,52.014,99.376,52.014,99.376,52.014z"/>
				</g>
				<g>
					<defs>
						<path id="SVGID_00000062895723119420461930000010324926530893147559_" d="M57.951,50.041c2.089-2.086,4.922-3.259,7.877-3.259
							c5.596,0,11.205,0,11.205,0s5.608,0,11.204,0c2.955,0,5.789,1.173,7.878,3.259c2.088,2.087,3.262,4.919,3.262,7.871
							c0,3.914,0,7.358,0,7.358s-5.609,0-11.205,0c-2.955,0-5.788-1.172-7.877-3.259c-2.089-2.087-3.262-4.918-3.262-7.87
							c0,2.951-1.174,5.782-3.262,7.87c-2.089,2.087-4.923,3.259-7.878,3.259c-5.596,0-11.204,0-11.204,0s0-3.444,0-7.358
							C54.689,54.959,55.861,52.128,57.951,50.041z"/>
					</defs>
					<clipPath id="SVGID_00000142895801527348890170000010680542940089153977_">
						<use xlink:href="#SVGID_00000062895723119420461930000010324926530893147559_"  style="overflow:visible;"/>
					</clipPath>
				</g>
				<path style="fill-rule:evenodd;clip-rule:evenodd;fill:#00B500;" d="M77.026,65.269l6.692-4.873
					c3.696-2.691,4.114-8.045,0.88-11.276l-2.341-2.339l-10.462,0l-2.341,2.339c-3.234,3.231-2.816,8.585,0.88,11.276L77.026,65.269
					z"/>
				<g>
					<defs>
						<path id="SVGID_00000077305624145187375960000009398584105206917271_" d="M77.026,65.269l6.692-4.873
							c3.696-2.691,4.114-8.045,0.88-11.276l-2.341-2.339l-10.462,0l-2.341,2.339c-3.234,3.231-2.816,8.585,0.88,11.276
							L77.026,65.269z"/>
					</defs>
					<clipPath id="SVGID_00000143600889525364813450000008407426801320413855_">
						<use xlink:href="#SVGID_00000077305624145187375960000009398584105206917271_"  style="overflow:visible;"/>
					</clipPath>
					<g style="clip-path:url(#SVGID_00000143600889525364813450000008407426801320413855_);">
						
							<rect x="66.468" y="45.934" transform="matrix(-1 -4.445034e-11 4.445034e-11 -1 143.4942 111.8906)" style="fill:#009238;" width="10.558" height="20.022"/>
					</g>
					<g style="clip-path:url(#SVGID_00000143600889525364813450000008407426801320413855_);">
						<rect x="75.635" y="44.766" style="fill:#26C21A;" width="2.793" height="24.337"/>
					</g>
					<g style="clip-path:url(#SVGID_00000143600889525364813450000008407426801320413855_);">
						<g>
							<path style="fill:#009238;" d="M86.934,56.976c0.455,0,0.902-0.222,1.169-0.63c0.424-0.645,0.244-1.51-0.402-1.932
								l-5.677-3.721c-0.646-0.425-1.511-0.242-1.933,0.401c-0.424,0.645-0.244,1.51,0.402,1.932l5.677,3.721
								C86.407,56.902,86.672,56.976,86.934,56.976z"/>
						</g>
						<g>
							<path style="fill:#007B62;" d="M67.131,56.976c0.262,0,0.527-0.074,0.764-0.229l5.675-3.721
								c0.646-0.422,0.826-1.287,0.402-1.932c-0.422-0.642-1.282-0.827-1.933-0.401l-5.675,3.721
								c-0.646,0.422-0.826,1.287-0.402,1.932C66.229,56.754,66.676,56.976,67.131,56.976z"/>
						</g>
						<g>
							<path style="fill:#009238;" d="M86.934,63.338c0.455,0,0.902-0.222,1.169-0.63c0.424-0.645,0.244-1.51-0.402-1.932
								l-5.677-3.721c-0.646-0.425-1.511-0.242-1.933,0.401c-0.424,0.645-0.244,1.51,0.402,1.932l5.677,3.721
								C86.407,63.265,86.672,63.338,86.934,63.338z"/>
						</g>
						<g>
							<path style="fill:#007B62;" d="M67.131,63.338c0.262,0,0.527-0.074,0.764-0.229l5.675-3.721
								c0.646-0.422,0.826-1.287,0.402-1.932c-0.422-0.642-1.282-0.827-1.933-0.401l-5.675,3.721
								c-0.646,0.422-0.826,1.287-0.402,1.932C66.229,63.116,66.676,63.338,67.131,63.338z"/>
						</g>
					</g>
				</g>
			</g>
			
				<line style="fill-rule:evenodd;clip-rule:evenodd;fill:#00B465;stroke:#00B465;stroke-width:8.2597;stroke-linecap:round;stroke-linejoin:round;stroke-miterlimit:10;stroke-dasharray:0,8.2597;" x1="68.078" y1="77.129" x2="86.094" y2="77.129"/>
		</g>
	</g>
	<g>
		<g>
			<path style="fill:#FFF5C3;" d="M1247.799,133.983L1247.799,133.983c-9.153,9.153-14.295,21.567-14.295,34.511l0,55.172
				c4.573-1.848,8.779-4.602,12.334-8.157l36.456-36.456c6.957-6.957,10.866-16.393,10.866-26.232v-33.726
				c0-9.839-3.908-19.275-10.865-26.232l0,0c-5.704-5.704-12.805-9.152-20.201-10.364v16.974
				C1262.094,112.416,1256.952,124.83,1247.799,133.983z"/>
			<g>
				<path style="fill:#00B465;" d="M1229.831,92.862l-6.817,6.817c-6.957,6.957-16.393,10.866-26.232,10.866l-37.556,0
					c-9.839,0-19.275,3.909-26.232,10.866l-4.75,4.75c-14.359,14.359-14.505,37.594-0.327,52.133l35.971,36.885
					c6.982,7.159,16.559,11.197,26.559,11.197h29.159c4.811,0,9.522-0.94,13.898-2.708l0-55.172
					c0-12.944,5.142-25.358,14.295-34.511v0c9.153-9.153,14.295-21.567,14.295-34.511V82.498
					C1250.705,80.631,1238.614,84.079,1229.831,92.862z"/>
				<g>
					
						<path style="fill:none;stroke:#00B465;stroke-width:10;stroke-linecap:round;stroke-linejoin:round;stroke-dasharray:0,9.9187;" d="
						M1233.504,213.747l0-45.254c0-12.944,5.142-25.358,14.295-34.511v0c9.153-9.153,14.295-21.567,14.295-34.511V87.457"/>
					
						<line style="fill:none;stroke:#00B465;stroke-width:10;stroke-linecap:round;stroke-linejoin:round;" x1="1262.094" y1="82.498" x2="1262.094" y2="82.498"/>
					
						<path style="fill:none;stroke:#00B465;stroke-width:10;stroke-linecap:round;stroke-linejoin:round;stroke-dasharray:0,9.9894;" d="
						M1252.141,82.211c-8.148,0.858-16.065,4.406-22.31,10.651l-6.817,6.817c-6.957,6.957-16.393,10.865-26.232,10.865h-37.556
						c-9.839,0-19.275,3.909-26.232,10.866l-4.75,4.75c-14.359,14.359-14.505,37.594-0.327,52.133l35.971,36.885
						c6.982,7.159,16.559,11.197,26.559,11.197h29.159c3.112,0,6.183-0.394,9.148-1.15"/>
				</g>
			</g>
			<g>
				<path style="fill-rule:evenodd;clip-rule:evenodd;fill:#FFD700;" d="M1236.802,110.681c-0.493-0.493-1.294-0.493-1.788,0
					c-0.494,0.492-0.494,1.293,0,1.786l3.577,3.574c0.494,0.492,1.294,0.492,1.788,0c0.494-0.493,0.494-1.294,0-1.787
					L1236.802,110.681z"/>
				<path style="fill-rule:evenodd;clip-rule:evenodd;fill:#FFD700;" d="M1240.378,112.468c0.494-0.493,0.494-1.294,0-1.786
					c-0.494-0.493-1.294-0.493-1.788,0l-3.577,3.573c-0.494,0.493-0.494,1.294,0,1.787c0.494,0.492,1.295,0.492,1.788,0
					L1240.378,112.468z"/>
				<path style="fill-rule:evenodd;clip-rule:evenodd;fill:#FFD700;" d="M1228.379,118.691c-0.493-0.493-1.294-0.493-1.788,0
					c-0.494,0.492-0.494,1.293,0,1.786l3.577,3.574c0.494,0.492,1.294,0.492,1.788,0c0.494-0.493,0.494-1.294,0-1.787
					L1228.379,118.691z"/>
				<path style="fill-rule:evenodd;clip-rule:evenodd;fill:#FFD700;" d="M1231.956,120.477c0.494-0.493,0.494-1.294,0-1.786
					c-0.494-0.493-1.294-0.493-1.788,0l-3.577,3.573c-0.494,0.493-0.494,1.294,0,1.787c0.494,0.492,1.295,0.492,1.788,0
					L1231.956,120.477z"/>
				<path style="fill-rule:evenodd;clip-rule:evenodd;fill:#FFD700;" d="M1242.906,122.146c-0.493-0.493-1.294-0.493-1.788,0
					c-0.494,0.492-0.494,1.293,0,1.786l3.577,3.574c0.494,0.492,1.294,0.492,1.788,0c0.494-0.493,0.494-1.294,0-1.787
					L1242.906,122.146z"/>
				<path style="fill-rule:evenodd;clip-rule:evenodd;fill:#FFD700;" d="M1246.483,123.932c0.494-0.493,0.494-1.294,0-1.786
					c-0.494-0.493-1.294-0.493-1.788,0l-3.577,3.573c-0.494,0.493-0.494,1.294,0,1.787c0.494,0.492,1.295,0.492,1.788,0
					L1246.483,123.932z"/>
			</g>
		</g>
		<g>
			<path style="fill:#BD7F46;" d="M1171.302,133.303h-9.773l-2.648,24.167c-0.147,1.339,0.903,2.509,2.251,2.509h10.615
				c1.35,0,2.401-1.173,2.251-2.514L1171.302,133.303z"/>
			<g>
				<defs>
					<path id="SVGID_00000076588288564997967850000015019708449635182504_" d="M1171.302,133.303h-9.773l-2.648,24.167
						c-0.147,1.339,0.903,2.509,2.251,2.509h10.615c1.35,0,2.401-1.173,2.251-2.514L1171.302,133.303z"/>
				</defs>
				<clipPath id="SVGID_00000078032941116032248880000000547537563839908031_">
					<use xlink:href="#SVGID_00000076588288564997967850000015019708449635182504_"  style="overflow:visible;"/>
				</clipPath>
				
					<path style="opacity:0.25;clip-path:url(#SVGID_00000078032941116032248880000000547537563839908031_);fill-rule:evenodd;clip-rule:evenodd;fill:#6A6862;" d="
					M1166.447,150.773l-7.989-5.817c-4.413-3.213-4.911-9.604-1.051-13.462l2.795-2.792l12.49,0l2.795,2.792
					c3.861,3.858,3.362,10.249-1.051,13.462L1166.447,150.773z"/>
			</g>
			<path style="fill-rule:evenodd;clip-rule:evenodd;fill:#00A600;" d="M1166.44,132.536c0,3.523,1.4,6.903,3.895,9.395
				c2.494,2.492,5.877,3.891,9.404,3.891c6.68,0,13.376,0,13.376,0s0-4.111,0-8.783c0-3.525-1.4-6.905-3.895-9.397
				c-2.494-2.49-5.877-3.891-9.404-3.891c-6.68,0-13.376,0-13.376,0S1166.44,127.861,1166.44,132.536z"/>
			<g>
				<defs>
					<path id="SVGID_00000033338653032705665680000011565939355006257824_" d="M1166.44,132.536c0,3.523,1.4,6.903,3.895,9.395
						c2.494,2.492,5.877,3.891,9.404,3.891c6.68,0,13.376,0,13.376,0s0-4.111,0-8.783c0-3.525-1.4-6.905-3.895-9.397
						c-2.494-2.49-5.877-3.891-9.404-3.891c-6.68,0-13.376,0-13.376,0S1166.44,127.861,1166.44,132.536z"/>
				</defs>
				<clipPath id="SVGID_00000092449060405647434710000012078040216049996721_">
					<use xlink:href="#SVGID_00000033338653032705665680000011565939355006257824_"  style="overflow:visible;"/>
				</clipPath>
				
					<polygon style="clip-path:url(#SVGID_00000092449060405647434710000012078040216049996721_);fill-rule:evenodd;clip-rule:evenodd;fill:#009238;" points="
					1166.44,123.75 1196.207,149.193 1166.44,149.193 				"/>
				
					<rect x="1178.111" y="117.417" transform="matrix(0.6325 -0.7745 0.7745 0.6325 329.237 963.2294)" style="clip-path:url(#SVGID_00000092449060405647434710000012078040216049996721_);fill-rule:evenodd;clip-rule:evenodd;fill:#00B500;" width="3.332" height="34.421"/>
				
					<path style="clip-path:url(#SVGID_00000092449060405647434710000012078040216049996721_);fill-rule:evenodd;clip-rule:evenodd;fill:#007B62;" d="
					M1182,147.261h-3.334c0,0,0-3.458,0-5.604c0-0.919,0.747-1.666,1.667-1.666c0.92,0,1.667,0.746,1.667,1.666
					C1182,143.803,1182,147.261,1182,147.261z"/>
				
					<path style="clip-path:url(#SVGID_00000092449060405647434710000012078040216049996721_);fill-rule:evenodd;clip-rule:evenodd;fill:#007B62;" d="
					M1175.331,147.507h-3.334c0,0,0-7.607,0-11.057c0-0.919,0.745-1.664,1.665-1.664c0.002,0,0.002,0,0.003,0
					c0.92,0,1.665,0.745,1.665,1.664C1175.331,139.9,1175.331,147.507,1175.331,147.507z"/>
				
					<path style="clip-path:url(#SVGID_00000092449060405647434710000012078040216049996721_);fill-rule:evenodd;clip-rule:evenodd;fill:#009238;" d="
					M1193.114,136.483v-3.155c0,0-3.118,0-5.09,0c-0.418,0-0.82,0.167-1.117,0.463c-0.295,0.295-0.462,0.696-0.462,1.114l0,0
					c0,0.42,0.167,0.82,0.462,1.116c0.297,0.296,0.698,0.461,1.117,0.461C1189.997,136.483,1193.114,136.483,1193.114,136.483z"/>
				
					<path style="clip-path:url(#SVGID_00000092449060405647434710000012078040216049996721_);fill-rule:evenodd;clip-rule:evenodd;fill:#009238;" d="
					M1193.114,129.997v-3.331c0,0-6.78,0-10.005,0c-0.92,0-1.666,0.745-1.666,1.664c0,0.002,0,0.003,0,0.003
					c0,0.919,0.745,1.664,1.666,1.664C1186.334,129.997,1193.114,129.997,1193.114,129.997z"/>
			</g>
			<path style="fill-rule:evenodd;clip-rule:evenodd;fill:#00A600;" d="M1166.44,132.536c0,3.523-1.4,6.903-3.894,9.395
				c-2.494,2.492-5.877,3.891-9.405,3.891c-6.68,0-13.376,0-13.376,0s0-4.111,0-8.783c0-3.525,1.4-6.905,3.895-9.397
				c2.494-2.49,5.877-3.891,9.404-3.891c6.68,0,13.376,0,13.376,0S1166.44,127.861,1166.44,132.536z"/>
			<g>
				<defs>
					<path id="SVGID_00000107551944541480108050000015022053297565418884_" d="M1166.44,132.536c0,3.523-1.4,6.903-3.894,9.395
						c-2.494,2.492-5.877,3.891-9.405,3.891c-6.68,0-13.376,0-13.376,0s0-4.111,0-8.783c0-3.525,1.4-6.905,3.895-9.397
						c2.494-2.49,5.877-3.891,9.404-3.891c6.68,0,13.376,0,13.376,0S1166.44,127.861,1166.44,132.536z"/>
				</defs>
				<clipPath id="SVGID_00000152222172825033922650000006255987960728459404_">
					<use xlink:href="#SVGID_00000107551944541480108050000015022053297565418884_"  style="overflow:visible;"/>
				</clipPath>
				
					<polygon style="clip-path:url(#SVGID_00000152222172825033922650000006255987960728459404_);fill-rule:evenodd;clip-rule:evenodd;fill:#009238;" points="
					1166.44,123.75 1136.672,149.193 1166.44,149.193 				"/>
				
					<rect x="1135.892" y="132.962" transform="matrix(0.775 -0.632 0.632 0.775 174.4155 759.0814)" style="clip-path:url(#SVGID_00000152222172825033922650000006255987960728459404_);fill-rule:evenodd;clip-rule:evenodd;fill:#00B500;" width="34.421" height="3.332"/>
				
					<path style="clip-path:url(#SVGID_00000152222172825033922650000006255987960728459404_);fill-rule:evenodd;clip-rule:evenodd;fill:#007B62;" d="
					M1150.879,147.261h3.334c0,0,0-3.458,0-5.604c0-0.919-0.747-1.666-1.667-1.666s-1.667,0.746-1.667,1.666
					C1150.879,143.803,1150.879,147.261,1150.879,147.261z"/>
				
					<path style="clip-path:url(#SVGID_00000152222172825033922650000006255987960728459404_);fill-rule:evenodd;clip-rule:evenodd;fill:#007B62;" d="
					M1157.548,147.507h3.334c0,0,0-7.606,0-11.056c0-0.441-0.175-0.865-0.489-1.178c-0.312-0.311-0.737-0.488-1.179-0.488
					s-0.867,0.177-1.179,0.488c-0.313,0.313-0.489,0.736-0.489,1.178C1157.548,139.901,1157.548,147.507,1157.548,147.507z"/>
				
					<path style="clip-path:url(#SVGID_00000152222172825033922650000006255987960728459404_);fill-rule:evenodd;clip-rule:evenodd;fill:#009238;" d="
					M1139.765,136.66v-3.332c0,0,3.028,0,5.003,0c0.442,0,0.865,0.175,1.177,0.488c0.313,0.311,0.489,0.735,0.489,1.176
					c0,0.002,0,0.003,0,0.003c0,0.441-0.175,0.865-0.489,1.178c-0.312,0.311-0.735,0.486-1.177,0.486
					C1142.793,136.66,1139.765,136.66,1139.765,136.66z"/>
				
					<path style="clip-path:url(#SVGID_00000152222172825033922650000006255987960728459404_);fill-rule:evenodd;clip-rule:evenodd;fill:#009238;" d="
					M1139.765,129.997v-3.331c0,0,6.779,0,10.003,0c0.442,0,0.867,0.177,1.179,0.488c0.313,0.313,0.489,0.736,0.489,1.178
					c0,0.441-0.175,0.866-0.489,1.178c-0.312,0.313-0.737,0.488-1.179,0.488C1146.544,129.997,1139.765,129.997,1139.765,129.997z"
					/>
			</g>
			<g>
				<defs>
					<path id="SVGID_00000150815201016471577710000002143886941030154654_" d="M1189.219,127.641
						c-2.494-2.49-5.876-3.891-9.404-3.891c-6.681,0-13.376,0-13.376,0s-6.695,0-13.375,0c-3.528,0-6.911,1.401-9.405,3.891
						c-2.493,2.492-3.894,5.872-3.894,9.397c0,4.672,0,8.784,0,8.784s6.696,0,13.376,0c3.528,0,6.91-1.399,9.404-3.891
						c2.494-2.492,3.894-5.872,3.894-9.395c0,3.523,1.401,6.903,3.894,9.395c2.494,2.492,5.877,3.891,9.405,3.891
						c6.681,0,13.375,0,13.375,0s0-4.111,0-8.784C1193.114,133.513,1191.714,130.133,1189.219,127.641z"/>
				</defs>
				<clipPath id="SVGID_00000077295318638375963330000011291281148775736985_">
					<use xlink:href="#SVGID_00000150815201016471577710000002143886941030154654_"  style="overflow:visible;"/>
				</clipPath>
			</g>
			<path style="fill-rule:evenodd;clip-rule:evenodd;fill:#00B500;" d="M1166.447,145.822l-7.989-5.817
				c-4.413-3.213-4.911-9.604-1.051-13.462l2.795-2.792l12.49,0l2.795,2.792c3.861,3.858,3.362,10.249-1.051,13.462
				L1166.447,145.822z"/>
			<g>
				<defs>
					<path id="SVGID_00000004535773933711061670000011254737016237054143_" d="M1166.447,145.822l-7.989-5.817
						c-4.413-3.213-4.911-9.604-1.051-13.462l2.795-2.792l12.49,0l2.795,2.792c3.861,3.858,3.362,10.249-1.051,13.462
						L1166.447,145.822z"/>
				</defs>
				<clipPath id="SVGID_00000048501169841502613510000000265254586521570191_">
					<use xlink:href="#SVGID_00000004535773933711061670000011254737016237054143_"  style="overflow:visible;"/>
				</clipPath>
				<g style="clip-path:url(#SVGID_00000048501169841502613510000000265254586521570191_);">
					<rect x="1166.447" y="122.739" style="fill:#009238;" width="12.604" height="23.903"/>
				</g>
				<g style="clip-path:url(#SVGID_00000048501169841502613510000000265254586521570191_);">
					<rect x="1164.773" y="121.344" style="fill:#26C21A;" width="3.334" height="29.054"/>
				</g>
				<g style="clip-path:url(#SVGID_00000048501169841502613510000000265254586521570191_);">
					<g>
						<path style="fill:#009238;" d="M1154.618,135.921c-0.543,0-1.077-0.265-1.396-0.752c-0.506-0.77-0.291-1.802,0.48-2.307
							l6.777-4.442c0.771-0.508,1.804-0.288,2.307,0.478c0.506,0.77,0.291,1.802-0.48,2.307l-6.777,4.442
							C1155.248,135.833,1154.931,135.921,1154.618,135.921z"/>
					</g>
					<g>
						<path style="fill:#007B62;" d="M1178.26,135.921c-0.312,0-0.63-0.088-0.912-0.273l-6.775-4.442
							c-0.771-0.504-0.986-1.537-0.48-2.307c0.504-0.767,1.53-0.987,2.307-0.478l6.775,4.442c0.771,0.504,0.985,1.537,0.48,2.307
							C1179.337,135.656,1178.803,135.921,1178.26,135.921z"/>
					</g>
					<g>
						<path style="fill:#009238;" d="M1154.618,143.516c-0.543,0-1.077-0.265-1.396-0.752c-0.506-0.77-0.291-1.802,0.48-2.307
							l6.777-4.442c0.771-0.508,1.804-0.288,2.307,0.478c0.506,0.77,0.291,1.802-0.48,2.307l-6.777,4.442
							C1155.248,143.428,1154.931,143.516,1154.618,143.516z"/>
					</g>
					<g>
						<path style="fill:#007B62;" d="M1178.26,143.516c-0.312,0-0.63-0.088-0.912-0.273l-6.775-4.442
							c-0.771-0.504-0.986-1.537-0.48-2.307c0.504-0.767,1.53-0.987,2.307-0.478l6.775,4.442c0.771,0.504,0.985,1.537,0.48,2.307
							C1179.337,143.252,1178.803,143.516,1178.26,143.516z"/>
					</g>
				</g>
			</g>
		</g>
	</g>
</g>
<g id="aulas" style="display:none;">
	<g style="display:inline;">
		<rect x="368.174" style="fill-rule:evenodd;clip-rule:evenodd;fill:#FFFFFF;" width="33.652" height="145"/>
		<circle style="fill-rule:evenodd;clip-rule:evenodd;fill:#5654A2;" cx="385" cy="72.5" r="42.5"/>
	</g>
</g>
</svg>
