<?xml version="1.0" encoding="utf-8"?>
<!-- Generator: Adobe Illustrator 27.7.0, SVG Export Plug-In . SVG Version: 6.00 Build 0)  -->
<svg version="1.1" xmlns="http://www.w3.org/2000/svg" xmlns:xlink="http://www.w3.org/1999/xlink" x="0px" y="0px" width="1500px"
	 height="145px" viewBox="0 0 1500 145" style="enable-background:new 0 0 1500 145;" xml:space="preserve">
<g id="background">
	<rect x="-80.448" y="-2736.348" style="fill:#04D5D8;" width="1640.647" height="4034.435"/>
	<path style="fill:#4EEAE6;" d="M1086.327,236.512c-49.706,0-90-40.294-90-90V11.941c0-49.706,40.294-90,90-90h1.646
		c5.523,0,10-4.477,10-10V-95c0-5.523-4.477-10-10-10H898.671c-5.523,0-10,4.477-10,10v0c0,114.599-92.901,207.5-207.5,207.5
		H580.273c-11.046,0-20,8.954-20,20v4.012c0,55.228-44.772,100-100,100H177.596c-55.228,0-100-44.772-100-100v-28.561
		c0-11.046-8.954-20-20-20H-8.858v-1100.379h250.766c6.415,0,11.615-5.2,11.615-11.615v0c0-42.526,34.474-77,77-77h71.434
		c8.402,0,15.648-5.903,17.343-14.133c7.213-35.029,38.29-61.45,75.422-61.45h144.932c42.526,0,77,34.474,77,77v74.76
		c0,39.977,32.408,72.384,72.384,72.384h64.547c42.751,0,77.86,33.144,81.659,74.952c0.389,4.279,4.029,7.529,8.326,7.529h94.125
		c4.459,0,8.126-3.497,8.354-7.951c4.139-80.754,71-143.599,152.874-143.599h362.181V99.68h-269.837
		c-25.865,0-46.832,20.967-46.832,46.832v0c0,49.706-40.294,90-90,90H1086.327z"/>
	<g>
		<path style="fill:#FFED8B;" d="M1034.372-431.94L1034.372-431.94c0-51.28,41.571-92.851,92.85-92.851h57.665
			c32.387,0,58.642-26.255,58.642-58.642l0,0c0-32.387,26.255-58.642,58.642-58.642h218.932v-339.474h-322.181
			c-62.45,0-113.076,50.626-113.076,113.076v0c0,23.196-18.804,42-42,42H937.585c-23.196,0-42-18.804-42-42v-2.009
			c0-23.196-18.804-42-42-42H777.81c-55.867,0-101.156-45.289-101.156-101.156v-85.988c0-20.435-16.565-37-37-37H494.722
			c-20.435,0-37,16.565-37,37v1.583c0,20.435-16.565,37-37,37h-77.199c-27.614,0-50,22.386-50,50v1.615c0,20.435-16.565,37-37,37
			H-42.694V47.951H57.596c33.137,0,60,26.863,60,60v28.561c0,33.137,26.863,60,60,60h282.678c33.137,0,60-26.863,60-60V132.5
			c0-33.137,26.863-60,60-60h100.898c92.508,0,167.5-74.992,167.5-167.5v0c0-27.614,22.386-50,50-50h189.302
			c27.614,0,50,22.386,50,50v6.942c0,27.614-22.386,50-50,50h-1.647c-27.614,0-50,22.386-50,50v134.57c0,27.614,22.386,50,50,50
			h68.108c27.614,0,50-22.386,50-50v0c0-47.956,38.876-86.832,86.832-86.832h229.837v-328.037c0-39.064-31.668-70.732-70.732-70.732
			h-323.15C1075.943-339.089,1034.372-380.66,1034.372-431.94z"/>
		<g>
			<g>
				<path style="fill:#2EC624;" d="M1198.924-921.549c-29.313,0-53.076,23.763-53.076,53.076v0c0,56.333-45.667,102-102,102H690.26
					c-40.652,0-73.606-32.955-73.606-73.606v-210.547c0-14.359-11.641-26-26-26h-56.442c-10.394,0-19.895,6.146-23.89,15.742
					c-14.612,35.099-49.272,59.841-89.6,59.841h-46.653c-11.17,0-21.157,7.295-24.204,18.042
					c-11.534,40.685-49.013,70.574-93.342,70.574H-12.798L-24.172-6.787L91.142-7.278c49.895,14.55,86.454,60.7,86.454,115.229
					l0,0.695c0.001,13.259,10.754,24.004,24.012,23.997l236.679-0.131c11.698-0.007,21.708-8.443,23.64-19.98
					C471.436,55.762,520.802,12.5,580.273,12.5h100.898c59.37,0,107.5-48.129,107.5-107.5v0c0-60.751,49.249-110,110-110h189.003
					c21.384,0,38.798-17.186,39.08-38.568l0,0c0.246-18.686-12.768-34.942-31.062-38.758c-28.801-6.009-55.263-20.244-76.552-41.532
					c-28.869-28.87-44.769-67.254-44.769-108.082s15.899-79.212,44.769-108.081c28.87-28.869,67.254-44.769,108.082-44.769h28.622
					c14.589,0,27.327-10.069,30.48-24.313c11.76-53.123,59.237-92.972,115.846-92.972h312.76v-219.474H1198.924z"/>
				<g>
					
						<path style="fill:none;stroke:#2EC624;stroke-width:10;stroke-linecap:round;stroke-linejoin:round;stroke-dasharray:0,9.9826;" d="
						M-14.19-6.829L91.142-7.278c49.895,14.55,86.454,60.7,86.454,115.229l0,0.695c0.001,13.259,10.754,24.004,24.012,23.997
						l236.679-0.131c11.698-0.007,21.708-8.443,23.64-19.98C471.436,55.762,520.802,12.5,580.273,12.5h100.898
						c59.37,0,107.5-48.129,107.5-107.5v0c0-60.751,49.249-110,110-110h189.003c21.384,0,38.798-17.186,39.08-38.568
						c0.246-18.686-12.768-34.942-31.062-38.758c-28.801-6.009-55.263-20.244-76.552-41.532
						c-28.869-28.87-44.769-67.254-44.769-108.082s15.899-79.212,44.769-108.081c28.87-28.869,67.254-44.769,108.082-44.769h28.622
						c14.589,0,27.327-10.069,30.48-24.313c11.76-53.123,59.237-92.972,115.846-92.972h307.769"/>
				</g>
			</g>
		</g>
	</g>
	<g>
		<path style="fill:#1BAF10;" d="M903.404-564.081v168.5c0,30.12-24.417,54.537-54.537,54.537h-80.08
			c-29.292,0-53.038,23.746-53.038,53.038v153.905c0,29.292-23.746,53.038-53.038,53.038H479.224
			c-37.785,0-68.416,30.631-68.416,68.416v0c0,37.785-30.631,68.416-68.416,68.416h-33.231c-37.785,0-68.416-30.631-68.416-68.416
			v-84.054c0-37.785-30.631-68.416-68.416-68.416H-5.553c-15.114,0-27.366-12.252-27.366-27.366v-603.975
			c0-15.114,12.252-27.366,27.366-27.366h253.161c41.552,0,75.237,33.685,75.237,75.237v0c0,41.552,33.685,75.237,75.237,75.237
			h247.297c15.114,0,27.366,12.252,27.366,27.366v0c0,15.114,12.252,27.366,27.366,27.366h148.757
			C878.987-618.618,903.404-594.201,903.404-564.081z"/>
		
			<path style="fill:none;stroke:#1BAF10;stroke-width:10;stroke-linecap:round;stroke-linejoin:round;stroke-dasharray:0,10.001;" d="
			M903.404-564.081v168.5c0,30.12-24.417,54.537-54.537,54.537h-80.08c-29.292,0-53.038,23.746-53.038,53.038v153.905
			c0,29.292-23.746,53.038-53.038,53.038H479.224c-37.785,0-68.416,30.631-68.416,68.416v0c0,37.785-30.631,68.416-68.416,68.416
			h-33.231c-37.785,0-68.416-30.631-68.416-68.416v-84.054c0-37.785-30.631-68.416-68.416-68.416H-5.553
			c-15.114,0-27.366-12.252-27.366-27.366v-603.975c0-15.114,12.252-27.366,27.366-27.366h253.161
			c41.552,0,75.237,33.685,75.237,75.237v0c0,41.552,33.685,75.236,75.237,75.236h247.297c15.114,0,27.366,12.252,27.366,27.366v0
			c0,15.114,12.252,27.366,27.366,27.366h148.757C878.987-618.618,903.404-594.201,903.404-564.081z"/>
	</g>
	<g>
		<g style="opacity:0.3;">
			<defs>
				<path id="SVGID_00000160901767832375631520000000193328455485473175_" style="opacity:0.3;" d="M336.125-224.955V-314.7
					c0-32.162-26.05-58.234-58.185-58.234H-60.887c-10.803,0-19.561,8.758-19.561,19.561c0,10.803-8.758,19.561-19.561,19.561
					h-159.717v-59.271c-11.79-12.068-19.067-28.57-19.067-46.781v-128.364c0-18.211,7.277-34.714,19.067-46.781v-127.094h125.851
					c29.507,0,53.427,23.94,53.427,53.472v0c0,29.532,23.92,53.472,53.427,53.472H165.83c22.148,0,40.102,17.954,40.102,40.102
					v26.828c0,36.964,29.94,66.93,66.873,66.93h154.62h12.544c13.535,0,24.507-10.972,24.507-24.507v-8.366
					c0-13.535,10.972-24.507,24.507-24.507h213.516c13.535,0,24.507,10.973,24.507,24.507v105.031
					c0,13.535-10.972,24.507-24.507,24.507h0c-13.535,0-24.507,10.972-24.507,24.507v75.937c0,13.535-10.972,24.507-24.507,24.507
					h-64.225c-13.535,0-24.507,10.972-24.507,24.507v28.788c0,13.535-10.972,24.507-24.507,24.507H359.2
					C346.457-201.88,336.125-212.211,336.125-224.955z"/>
			</defs>
			<clipPath id="SVGID_00000101815882278382863060000003214052608294524043_">
				<use xlink:href="#SVGID_00000160901767832375631520000000193328455485473175_"  style="overflow:visible;"/>
			</clipPath>
			
				<path style="clip-path:url(#SVGID_00000101815882278382863060000003214052608294524043_);fill:none;stroke:#97CEC8;stroke-width:1.5;stroke-linecap:round;stroke-linejoin:round;stroke-miterlimit:10;" d="
				M98.813,139.798h16.599c1.073,0,1.943,0.87,1.943,1.943v6.383c0,1.073-0.87,1.943-1.943,1.943H98.813
				c-1.073,0-1.943-0.87-1.943-1.943v-6.383C96.87,140.668,97.74,139.798,98.813,139.798z"/>
			
				<path style="clip-path:url(#SVGID_00000101815882278382863060000003214052608294524043_);fill:none;stroke:#97CEC8;stroke-width:1.5;stroke-linecap:round;stroke-linejoin:round;stroke-miterlimit:10;" d="
				M78.327,139.798h16.599c1.073,0,1.943,0.87,1.943,1.943v6.383c0,1.073-0.87,1.943-1.943,1.943H78.327
				c-1.073,0-1.943-0.87-1.943-1.943v-6.383C76.384,140.668,77.254,139.798,78.327,139.798z"/>
			
				<path style="clip-path:url(#SVGID_00000101815882278382863060000003214052608294524043_);fill:none;stroke:#97CEC8;stroke-width:1.5;stroke-linecap:round;stroke-linejoin:round;stroke-miterlimit:10;" d="
				M57.821,139.798H74.42c1.073,0,1.943,0.87,1.943,1.943v6.383c0,1.073-0.87,1.943-1.943,1.943H57.821
				c-1.073,0-1.943-0.87-1.943-1.943v-6.383C55.878,140.668,56.748,139.798,57.821,139.798z"/>
			
				<path style="clip-path:url(#SVGID_00000101815882278382863060000003214052608294524043_);fill:none;stroke:#97CEC8;stroke-width:1.5;stroke-linecap:round;stroke-linejoin:round;stroke-miterlimit:10;" d="
				M37.335,139.798h16.599c1.073,0,1.943,0.87,1.943,1.943v6.383c0,1.073-0.87,1.943-1.943,1.943H37.335
				c-1.073,0-1.943-0.87-1.943-1.943v-6.383C35.392,140.668,36.262,139.798,37.335,139.798z"/>
			
				<path style="clip-path:url(#SVGID_00000101815882278382863060000003214052608294524043_);fill:none;stroke:#97CEC8;stroke-width:1.5;stroke-linecap:round;stroke-linejoin:round;stroke-miterlimit:10;" d="
				M16.846,139.798h16.599c1.073,0,1.943,0.87,1.943,1.943v6.383c0,1.073-0.87,1.943-1.943,1.943H16.846
				c-1.073,0-1.943-0.87-1.943-1.943v-6.383C14.903,140.668,15.773,139.798,16.846,139.798z"/>
			
				<path style="clip-path:url(#SVGID_00000101815882278382863060000003214052608294524043_);fill:none;stroke:#97CEC8;stroke-width:1.5;stroke-linecap:round;stroke-linejoin:round;stroke-miterlimit:10;" d="
				M-3.639,139.798H12.96c1.073,0,1.943,0.87,1.943,1.943v6.383c0,1.073-0.87,1.943-1.943,1.943H-3.639
				c-1.073,0-1.943-0.87-1.943-1.943v-6.383C-5.583,140.668-4.713,139.798-3.639,139.798z"/>
			
				<path style="clip-path:url(#SVGID_00000101815882278382863060000003214052608294524043_);fill:none;stroke:#97CEC8;stroke-width:1.5;stroke-linecap:round;stroke-linejoin:round;stroke-miterlimit:10;" d="
				M88.584,129.528h16.599c1.073,0,1.943,0.87,1.943,1.943v6.383c0,1.073-0.87,1.943-1.943,1.943H88.584
				c-1.073,0-1.943-0.87-1.943-1.943v-6.383C86.641,130.398,87.511,129.528,88.584,129.528z"/>
			
				<path style="clip-path:url(#SVGID_00000101815882278382863060000003214052608294524043_);fill:none;stroke:#97CEC8;stroke-width:1.5;stroke-linecap:round;stroke-linejoin:round;stroke-miterlimit:10;" d="
				M68.098,129.528h16.599c1.073,0,1.943,0.87,1.943,1.943v6.383c0,1.073-0.87,1.943-1.943,1.943H68.098
				c-1.073,0-1.943-0.87-1.943-1.943v-6.383C66.155,130.398,67.025,129.528,68.098,129.528z"/>
			
				<path style="clip-path:url(#SVGID_00000101815882278382863060000003214052608294524043_);fill:none;stroke:#97CEC8;stroke-width:1.5;stroke-linecap:round;stroke-linejoin:round;stroke-miterlimit:10;" d="
				M47.592,129.528h16.599c1.073,0,1.943,0.87,1.943,1.943v6.383c0,1.073-0.87,1.943-1.943,1.943H47.592
				c-1.073,0-1.943-0.87-1.943-1.943v-6.383C45.648,130.398,46.519,129.528,47.592,129.528z"/>
			
				<path style="clip-path:url(#SVGID_00000101815882278382863060000003214052608294524043_);fill:none;stroke:#97CEC8;stroke-width:1.5;stroke-linecap:round;stroke-linejoin:round;stroke-miterlimit:10;" d="
				M27.106,129.528h16.599c1.073,0,1.943,0.87,1.943,1.943v6.383c0,1.073-0.87,1.943-1.943,1.943H27.106
				c-1.073,0-1.943-0.87-1.943-1.943v-6.383C25.163,130.398,26.033,129.528,27.106,129.528z"/>
			
				<path style="clip-path:url(#SVGID_00000101815882278382863060000003214052608294524043_);fill:none;stroke:#97CEC8;stroke-width:1.5;stroke-linecap:round;stroke-linejoin:round;stroke-miterlimit:10;" d="
				M6.617,129.528h16.599c1.073,0,1.943,0.87,1.943,1.943v6.383c0,1.073-0.87,1.943-1.943,1.943H6.617
				c-1.073,0-1.943-0.87-1.943-1.943v-6.383C4.674,130.398,5.544,129.528,6.617,129.528z"/>
			
				<path style="clip-path:url(#SVGID_00000101815882278382863060000003214052608294524043_);fill:none;stroke:#97CEC8;stroke-width:1.5;stroke-linecap:round;stroke-linejoin:round;stroke-miterlimit:10;" d="
				M-13.868,129.528H2.731c1.073,0,1.943,0.87,1.943,1.943v6.383c0,1.073-0.87,1.943-1.943,1.943h-16.599
				c-1.073,0-1.943-0.87-1.943-1.943v-6.383C-15.812,130.398-14.942,129.528-13.868,129.528z"/>
			
				<path style="clip-path:url(#SVGID_00000101815882278382863060000003214052608294524043_);fill:none;stroke:#97CEC8;stroke-width:1.5;stroke-linecap:round;stroke-linejoin:round;stroke-miterlimit:10;" d="
				M98.813,119.259h16.599c1.073,0,1.943,0.87,1.943,1.943v6.383c0,1.073-0.87,1.943-1.943,1.943H98.813
				c-1.073,0-1.943-0.87-1.943-1.943v-6.383C96.87,120.129,97.74,119.259,98.813,119.259z"/>
			
				<path style="clip-path:url(#SVGID_00000101815882278382863060000003214052608294524043_);fill:none;stroke:#97CEC8;stroke-width:1.5;stroke-linecap:round;stroke-linejoin:round;stroke-miterlimit:10;" d="
				M78.327,119.259h16.599c1.073,0,1.943,0.87,1.943,1.943v6.383c0,1.073-0.87,1.943-1.943,1.943H78.327
				c-1.073,0-1.943-0.87-1.943-1.943v-6.383C76.384,120.129,77.254,119.259,78.327,119.259z"/>
			
				<path style="clip-path:url(#SVGID_00000101815882278382863060000003214052608294524043_);fill:none;stroke:#97CEC8;stroke-width:1.5;stroke-linecap:round;stroke-linejoin:round;stroke-miterlimit:10;" d="
				M57.821,119.259H74.42c1.073,0,1.943,0.87,1.943,1.943v6.383c0,1.073-0.87,1.943-1.943,1.943H57.821
				c-1.073,0-1.943-0.87-1.943-1.943v-6.383C55.878,120.129,56.748,119.259,57.821,119.259z"/>
			
				<path style="clip-path:url(#SVGID_00000101815882278382863060000003214052608294524043_);fill:none;stroke:#97CEC8;stroke-width:1.5;stroke-linecap:round;stroke-linejoin:round;stroke-miterlimit:10;" d="
				M37.335,119.259h16.599c1.073,0,1.943,0.87,1.943,1.943v6.383c0,1.073-0.87,1.943-1.943,1.943H37.335
				c-1.073,0-1.943-0.87-1.943-1.943v-6.383C35.392,120.129,36.262,119.259,37.335,119.259z"/>
			
				<path style="clip-path:url(#SVGID_00000101815882278382863060000003214052608294524043_);fill:none;stroke:#97CEC8;stroke-width:1.5;stroke-linecap:round;stroke-linejoin:round;stroke-miterlimit:10;" d="
				M16.846,119.259h16.599c1.073,0,1.943,0.87,1.943,1.943v6.383c0,1.073-0.87,1.943-1.943,1.943H16.846
				c-1.073,0-1.943-0.87-1.943-1.943v-6.383C14.903,120.129,15.773,119.259,16.846,119.259z"/>
			
				<path style="clip-path:url(#SVGID_00000101815882278382863060000003214052608294524043_);fill:none;stroke:#97CEC8;stroke-width:1.5;stroke-linecap:round;stroke-linejoin:round;stroke-miterlimit:10;" d="
				M-3.639,119.259H12.96c1.073,0,1.943,0.87,1.943,1.943v6.383c0,1.073-0.87,1.943-1.943,1.943H-3.639
				c-1.073,0-1.943-0.87-1.943-1.943v-6.383C-5.583,120.129-4.713,119.259-3.639,119.259z"/>
			
				<path style="clip-path:url(#SVGID_00000101815882278382863060000003214052608294524043_);fill:none;stroke:#97CEC8;stroke-width:1.5;stroke-linecap:round;stroke-linejoin:round;stroke-miterlimit:10;" d="
				M88.584,109.017h16.599c1.073,0,1.943,0.87,1.943,1.943v6.383c0,1.073-0.87,1.943-1.943,1.943H88.584
				c-1.073,0-1.943-0.87-1.943-1.943v-6.383C86.641,109.888,87.511,109.017,88.584,109.017z"/>
			
				<path style="clip-path:url(#SVGID_00000101815882278382863060000003214052608294524043_);fill:none;stroke:#97CEC8;stroke-width:1.5;stroke-linecap:round;stroke-linejoin:round;stroke-miterlimit:10;" d="
				M68.098,109.017h16.599c1.073,0,1.943,0.87,1.943,1.943v6.383c0,1.073-0.87,1.943-1.943,1.943H68.098
				c-1.073,0-1.943-0.87-1.943-1.943v-6.383C66.155,109.888,67.025,109.017,68.098,109.017z"/>
			
				<path style="clip-path:url(#SVGID_00000101815882278382863060000003214052608294524043_);fill:none;stroke:#97CEC8;stroke-width:1.5;stroke-linecap:round;stroke-linejoin:round;stroke-miterlimit:10;" d="
				M47.592,109.017h16.599c1.073,0,1.943,0.87,1.943,1.943v6.383c0,1.073-0.87,1.943-1.943,1.943H47.592
				c-1.073,0-1.943-0.87-1.943-1.943v-6.383C45.648,109.888,46.519,109.017,47.592,109.017z"/>
			
				<path style="clip-path:url(#SVGID_00000101815882278382863060000003214052608294524043_);fill:none;stroke:#97CEC8;stroke-width:1.5;stroke-linecap:round;stroke-linejoin:round;stroke-miterlimit:10;" d="
				M27.106,109.017h16.599c1.073,0,1.943,0.87,1.943,1.943v6.383c0,1.073-0.87,1.943-1.943,1.943H27.106
				c-1.073,0-1.943-0.87-1.943-1.943v-6.383C25.163,109.888,26.033,109.017,27.106,109.017z"/>
			
				<path style="clip-path:url(#SVGID_00000101815882278382863060000003214052608294524043_);fill:none;stroke:#97CEC8;stroke-width:1.5;stroke-linecap:round;stroke-linejoin:round;stroke-miterlimit:10;" d="
				M6.617,109.017h16.599c1.073,0,1.943,0.87,1.943,1.943v6.383c0,1.073-0.87,1.943-1.943,1.943H6.617
				c-1.073,0-1.943-0.87-1.943-1.943v-6.383C4.674,109.888,5.544,109.017,6.617,109.017z"/>
			
				<path style="clip-path:url(#SVGID_00000101815882278382863060000003214052608294524043_);fill:none;stroke:#97CEC8;stroke-width:1.5;stroke-linecap:round;stroke-linejoin:round;stroke-miterlimit:10;" d="
				M-13.868,109.017H2.731c1.073,0,1.943,0.87,1.943,1.943v6.383c0,1.073-0.87,1.943-1.943,1.943h-16.599
				c-1.073,0-1.943-0.87-1.943-1.943v-6.383C-15.812,109.888-14.942,109.017-13.868,109.017z"/>
			
				<path style="clip-path:url(#SVGID_00000101815882278382863060000003214052608294524043_);fill:none;stroke:#97CEC8;stroke-width:1.5;stroke-linecap:round;stroke-linejoin:round;stroke-miterlimit:10;" d="
				M98.813,98.748h16.599c1.073,0,1.943,0.87,1.943,1.943v6.383c0,1.073-0.87,1.943-1.943,1.943H98.813
				c-1.073,0-1.943-0.87-1.943-1.943v-6.383C96.87,99.618,97.74,98.748,98.813,98.748z"/>
			
				<path style="clip-path:url(#SVGID_00000101815882278382863060000003214052608294524043_);fill:none;stroke:#97CEC8;stroke-width:1.5;stroke-linecap:round;stroke-linejoin:round;stroke-miterlimit:10;" d="
				M78.327,98.748h16.599c1.073,0,1.943,0.87,1.943,1.943v6.383c0,1.073-0.87,1.943-1.943,1.943H78.327
				c-1.073,0-1.943-0.87-1.943-1.943v-6.383C76.384,99.618,77.254,98.748,78.327,98.748z"/>
			
				<path style="clip-path:url(#SVGID_00000101815882278382863060000003214052608294524043_);fill:none;stroke:#97CEC8;stroke-width:1.5;stroke-linecap:round;stroke-linejoin:round;stroke-miterlimit:10;" d="
				M57.821,98.748H74.42c1.073,0,1.943,0.87,1.943,1.943v6.383c0,1.073-0.87,1.943-1.943,1.943H57.821
				c-1.073,0-1.943-0.87-1.943-1.943v-6.383C55.878,99.618,56.748,98.748,57.821,98.748z"/>
			
				<path style="clip-path:url(#SVGID_00000101815882278382863060000003214052608294524043_);fill:none;stroke:#97CEC8;stroke-width:1.5;stroke-linecap:round;stroke-linejoin:round;stroke-miterlimit:10;" d="
				M37.335,98.748h16.599c1.073,0,1.943,0.87,1.943,1.943v6.383c0,1.073-0.87,1.943-1.943,1.943H37.335
				c-1.073,0-1.943-0.87-1.943-1.943v-6.383C35.392,99.618,36.262,98.748,37.335,98.748z"/>
			
				<path style="clip-path:url(#SVGID_00000101815882278382863060000003214052608294524043_);fill:none;stroke:#97CEC8;stroke-width:1.5;stroke-linecap:round;stroke-linejoin:round;stroke-miterlimit:10;" d="
				M16.846,98.748h16.599c1.073,0,1.943,0.87,1.943,1.943v6.383c0,1.073-0.87,1.943-1.943,1.943H16.846
				c-1.073,0-1.943-0.87-1.943-1.943v-6.383C14.903,99.618,15.773,98.748,16.846,98.748z"/>
			
				<path style="clip-path:url(#SVGID_00000101815882278382863060000003214052608294524043_);fill:none;stroke:#97CEC8;stroke-width:1.5;stroke-linecap:round;stroke-linejoin:round;stroke-miterlimit:10;" d="
				M-3.639,98.748H12.96c1.073,0,1.943,0.87,1.943,1.943v6.383c0,1.073-0.87,1.943-1.943,1.943H-3.639
				c-1.073,0-1.943-0.87-1.943-1.943v-6.383C-5.583,99.618-4.713,98.748-3.639,98.748z"/>
			
				<path style="clip-path:url(#SVGID_00000101815882278382863060000003214052608294524043_);fill:none;stroke:#97CEC8;stroke-width:1.5;stroke-linecap:round;stroke-linejoin:round;stroke-miterlimit:10;" d="
				M88.584,88.479h16.599c1.073,0,1.943,0.87,1.943,1.943v6.383c0,1.073-0.87,1.943-1.943,1.943H88.584
				c-1.073,0-1.943-0.87-1.943-1.943v-6.383C86.641,89.349,87.511,88.479,88.584,88.479z"/>
			
				<path style="clip-path:url(#SVGID_00000101815882278382863060000003214052608294524043_);fill:none;stroke:#97CEC8;stroke-width:1.5;stroke-linecap:round;stroke-linejoin:round;stroke-miterlimit:10;" d="
				M68.098,88.479h16.599c1.073,0,1.943,0.87,1.943,1.943v6.383c0,1.073-0.87,1.943-1.943,1.943H68.098
				c-1.073,0-1.943-0.87-1.943-1.943v-6.383C66.155,89.349,67.025,88.479,68.098,88.479z"/>
			
				<path style="clip-path:url(#SVGID_00000101815882278382863060000003214052608294524043_);fill:none;stroke:#97CEC8;stroke-width:1.5;stroke-linecap:round;stroke-linejoin:round;stroke-miterlimit:10;" d="
				M47.592,88.479h16.599c1.073,0,1.943,0.87,1.943,1.943v6.383c0,1.073-0.87,1.943-1.943,1.943H47.592
				c-1.073,0-1.943-0.87-1.943-1.943v-6.383C45.648,89.349,46.519,88.479,47.592,88.479z"/>
			
				<path style="clip-path:url(#SVGID_00000101815882278382863060000003214052608294524043_);fill:none;stroke:#97CEC8;stroke-width:1.5;stroke-linecap:round;stroke-linejoin:round;stroke-miterlimit:10;" d="
				M27.106,88.479h16.599c1.073,0,1.943,0.87,1.943,1.943v6.383c0,1.073-0.87,1.943-1.943,1.943H27.106
				c-1.073,0-1.943-0.87-1.943-1.943v-6.383C25.163,89.349,26.033,88.479,27.106,88.479z"/>
			
				<path style="clip-path:url(#SVGID_00000101815882278382863060000003214052608294524043_);fill:none;stroke:#97CEC8;stroke-width:1.5;stroke-linecap:round;stroke-linejoin:round;stroke-miterlimit:10;" d="
				M6.617,88.479h16.599c1.073,0,1.943,0.87,1.943,1.943v6.383c0,1.073-0.87,1.943-1.943,1.943H6.617
				c-1.073,0-1.943-0.87-1.943-1.943v-6.383C4.674,89.349,5.544,88.479,6.617,88.479z"/>
			
				<path style="clip-path:url(#SVGID_00000101815882278382863060000003214052608294524043_);fill:none;stroke:#97CEC8;stroke-width:1.5;stroke-linecap:round;stroke-linejoin:round;stroke-miterlimit:10;" d="
				M-13.868,88.479H2.731c1.073,0,1.943,0.87,1.943,1.943v6.383c0,1.073-0.87,1.943-1.943,1.943h-16.599
				c-1.073,0-1.943-0.87-1.943-1.943v-6.383C-15.812,89.349-14.942,88.479-13.868,88.479z"/>
			
				<path style="clip-path:url(#SVGID_00000101815882278382863060000003214052608294524043_);fill:none;stroke:#97CEC8;stroke-width:1.5;stroke-linecap:round;stroke-linejoin:round;stroke-miterlimit:10;" d="
				M98.813,78.209h16.599c1.073,0,1.943,0.87,1.943,1.943v6.383c0,1.073-0.87,1.943-1.943,1.943H98.813
				c-1.073,0-1.943-0.87-1.943-1.943v-6.383C96.87,79.079,97.74,78.209,98.813,78.209z"/>
			
				<path style="clip-path:url(#SVGID_00000101815882278382863060000003214052608294524043_);fill:none;stroke:#97CEC8;stroke-width:1.5;stroke-linecap:round;stroke-linejoin:round;stroke-miterlimit:10;" d="
				M78.327,78.209h16.599c1.073,0,1.943,0.87,1.943,1.943v6.383c0,1.073-0.87,1.943-1.943,1.943H78.327
				c-1.073,0-1.943-0.87-1.943-1.943v-6.383C76.384,79.079,77.254,78.209,78.327,78.209z"/>
			
				<path style="clip-path:url(#SVGID_00000101815882278382863060000003214052608294524043_);fill:none;stroke:#97CEC8;stroke-width:1.5;stroke-linecap:round;stroke-linejoin:round;stroke-miterlimit:10;" d="
				M57.821,78.209H74.42c1.073,0,1.943,0.87,1.943,1.943v6.383c0,1.073-0.87,1.943-1.943,1.943H57.821
				c-1.073,0-1.943-0.87-1.943-1.943v-6.383C55.878,79.079,56.748,78.209,57.821,78.209z"/>
			
				<path style="clip-path:url(#SVGID_00000101815882278382863060000003214052608294524043_);fill:none;stroke:#97CEC8;stroke-width:1.5;stroke-linecap:round;stroke-linejoin:round;stroke-miterlimit:10;" d="
				M37.335,78.209h16.599c1.073,0,1.943,0.87,1.943,1.943v6.383c0,1.073-0.87,1.943-1.943,1.943H37.335
				c-1.073,0-1.943-0.87-1.943-1.943v-6.383C35.392,79.079,36.262,78.209,37.335,78.209z"/>
			
				<path style="clip-path:url(#SVGID_00000101815882278382863060000003214052608294524043_);fill:none;stroke:#97CEC8;stroke-width:1.5;stroke-linecap:round;stroke-linejoin:round;stroke-miterlimit:10;" d="
				M16.846,78.209h16.599c1.073,0,1.943,0.87,1.943,1.943v6.383c0,1.073-0.87,1.943-1.943,1.943H16.846
				c-1.073,0-1.943-0.87-1.943-1.943v-6.383C14.903,79.079,15.773,78.209,16.846,78.209z"/>
			
				<path style="clip-path:url(#SVGID_00000101815882278382863060000003214052608294524043_);fill:none;stroke:#97CEC8;stroke-width:1.5;stroke-linecap:round;stroke-linejoin:round;stroke-miterlimit:10;" d="
				M-3.639,78.209H12.96c1.073,0,1.943,0.87,1.943,1.943v6.383c0,1.073-0.87,1.943-1.943,1.943H-3.639
				c-1.073,0-1.943-0.87-1.943-1.943v-6.383C-5.583,79.079-4.713,78.209-3.639,78.209z"/>
			
				<path style="clip-path:url(#SVGID_00000101815882278382863060000003214052608294524043_);fill:none;stroke:#97CEC8;stroke-width:1.5;stroke-linecap:round;stroke-linejoin:round;stroke-miterlimit:10;" d="
				M98.848,139.798h16.599c1.073,0,1.943,0.87,1.943,1.943v6.383c0,1.073-0.87,1.943-1.943,1.943H98.848
				c-1.073,0-1.943-0.87-1.943-1.943v-6.383C96.905,140.668,97.775,139.798,98.848,139.798z"/>
			
				<path style="clip-path:url(#SVGID_00000101815882278382863060000003214052608294524043_);fill:none;stroke:#97CEC8;stroke-width:1.5;stroke-linecap:round;stroke-linejoin:round;stroke-miterlimit:10;" d="
				M242.247,139.798h16.599c1.073,0,1.943,0.87,1.943,1.943v6.383c0,1.073-0.87,1.943-1.943,1.943h-16.599
				c-1.073,0-1.943-0.87-1.943-1.943v-6.383C240.304,140.668,241.174,139.798,242.247,139.798z"/>
			
				<path style="clip-path:url(#SVGID_00000101815882278382863060000003214052608294524043_);fill:none;stroke:#97CEC8;stroke-width:1.5;stroke-linecap:round;stroke-linejoin:round;stroke-miterlimit:10;" d="
				M221.759,139.798h16.599c1.073,0,1.943,0.87,1.943,1.943v6.383c0,1.073-0.87,1.943-1.943,1.943h-16.599
				c-1.073,0-1.943-0.87-1.943-1.943v-6.383C219.815,140.668,220.685,139.798,221.759,139.798z"/>
			
				<path style="clip-path:url(#SVGID_00000101815882278382863060000003214052608294524043_);fill:none;stroke:#97CEC8;stroke-width:1.5;stroke-linecap:round;stroke-linejoin:round;stroke-miterlimit:10;" d="
				M201.273,139.798h16.599c1.073,0,1.943,0.87,1.943,1.943v6.383c0,1.073-0.87,1.943-1.943,1.943h-16.599
				c-1.073,0-1.943-0.87-1.943-1.943v-6.383C199.33,140.668,200.2,139.798,201.273,139.798z"/>
			
				<path style="clip-path:url(#SVGID_00000101815882278382863060000003214052608294524043_);fill:none;stroke:#97CEC8;stroke-width:1.5;stroke-linecap:round;stroke-linejoin:round;stroke-miterlimit:10;" d="
				M180.766,139.798h16.599c1.073,0,1.943,0.87,1.943,1.943v6.383c0,1.073-0.87,1.943-1.943,1.943h-16.599
				c-1.073,0-1.943-0.87-1.943-1.943v-6.383C178.823,140.668,179.693,139.798,180.766,139.798z"/>
			
				<path style="clip-path:url(#SVGID_00000101815882278382863060000003214052608294524043_);fill:none;stroke:#97CEC8;stroke-width:1.5;stroke-linecap:round;stroke-linejoin:round;stroke-miterlimit:10;" d="
				M160.281,139.798h16.599c1.073,0,1.943,0.87,1.943,1.943v6.383c0,1.073-0.87,1.943-1.943,1.943h-16.599
				c-1.073,0-1.943-0.87-1.943-1.943v-6.383C158.337,140.668,159.207,139.798,160.281,139.798z"/>
			
				<path style="clip-path:url(#SVGID_00000101815882278382863060000003214052608294524043_);fill:none;stroke:#97CEC8;stroke-width:1.5;stroke-linecap:round;stroke-linejoin:round;stroke-miterlimit:10;" d="
				M139.819,139.798h16.599c1.073,0,1.943,0.87,1.943,1.943v6.383c0,1.073-0.87,1.943-1.943,1.943h-16.599
				c-1.073,0-1.943-0.87-1.943-1.943v-6.383C137.876,140.668,138.746,139.798,139.819,139.798z"/>
			
				<path style="clip-path:url(#SVGID_00000101815882278382863060000003214052608294524043_);fill:none;stroke:#97CEC8;stroke-width:1.5;stroke-linecap:round;stroke-linejoin:round;stroke-miterlimit:10;" d="
				M119.334,139.798h16.599c1.073,0,1.943,0.87,1.943,1.943v6.383c0,1.073-0.87,1.943-1.943,1.943h-16.599
				c-1.073,0-1.943-0.87-1.943-1.943v-6.383C117.39,140.668,118.261,139.798,119.334,139.798z"/>
			
				<path style="clip-path:url(#SVGID_00000101815882278382863060000003214052608294524043_);fill:none;stroke:#97CEC8;stroke-width:1.5;stroke-linecap:round;stroke-linejoin:round;stroke-miterlimit:10;" d="
				M252.504,129.528h16.599c1.073,0,1.943,0.87,1.943,1.943v6.383c0,1.073-0.87,1.943-1.943,1.943h-16.599
				c-1.073,0-1.943-0.87-1.943-1.943v-6.383C250.561,130.398,251.431,129.528,252.504,129.528z"/>
			
				<path style="clip-path:url(#SVGID_00000101815882278382863060000003214052608294524043_);fill:none;stroke:#97CEC8;stroke-width:1.5;stroke-linecap:round;stroke-linejoin:round;stroke-miterlimit:10;" d="
				M232.018,129.528h16.599c1.073,0,1.943,0.87,1.943,1.943v6.383c0,1.073-0.87,1.943-1.943,1.943h-16.599
				c-1.073,0-1.943-0.87-1.943-1.943v-6.383C230.075,130.398,230.945,129.528,232.018,129.528z"/>
			
				<path style="clip-path:url(#SVGID_00000101815882278382863060000003214052608294524043_);fill:none;stroke:#97CEC8;stroke-width:1.5;stroke-linecap:round;stroke-linejoin:round;stroke-miterlimit:10;" d="
				M211.53,129.528h16.599c1.073,0,1.943,0.87,1.943,1.943v6.383c0,1.073-0.87,1.943-1.943,1.943H211.53
				c-1.073,0-1.943-0.87-1.943-1.943v-6.383C209.586,130.398,210.456,129.528,211.53,129.528z"/>
			
				<path style="clip-path:url(#SVGID_00000101815882278382863060000003214052608294524043_);fill:none;stroke:#97CEC8;stroke-width:1.5;stroke-linecap:round;stroke-linejoin:round;stroke-miterlimit:10;" d="
				M191.044,129.528h16.599c1.073,0,1.943,0.87,1.943,1.943v6.383c0,1.073-0.87,1.943-1.943,1.943h-16.599
				c-1.073,0-1.943-0.87-1.943-1.943v-6.383C189.101,130.398,189.971,129.528,191.044,129.528z"/>
			
				<path style="clip-path:url(#SVGID_00000101815882278382863060000003214052608294524043_);fill:none;stroke:#97CEC8;stroke-width:1.5;stroke-linecap:round;stroke-linejoin:round;stroke-miterlimit:10;" d="
				M170.537,129.528h16.599c1.073,0,1.943,0.87,1.943,1.943v6.383c0,1.073-0.87,1.943-1.943,1.943h-16.599
				c-1.073,0-1.943-0.87-1.943-1.943v-6.383C168.594,130.398,169.464,129.528,170.537,129.528z"/>
			
				<path style="clip-path:url(#SVGID_00000101815882278382863060000003214052608294524043_);fill:none;stroke:#97CEC8;stroke-width:1.5;stroke-linecap:round;stroke-linejoin:round;stroke-miterlimit:10;" d="
				M150.052,129.528h16.599c1.073,0,1.943,0.87,1.943,1.943v6.383c0,1.073-0.87,1.943-1.943,1.943h-16.599
				c-1.073,0-1.943-0.87-1.943-1.943v-6.383C148.108,130.398,148.978,129.528,150.052,129.528z"/>
			
				<path style="clip-path:url(#SVGID_00000101815882278382863060000003214052608294524043_);fill:none;stroke:#97CEC8;stroke-width:1.5;stroke-linecap:round;stroke-linejoin:round;stroke-miterlimit:10;" d="
				M129.59,129.528h16.599c1.073,0,1.943,0.87,1.943,1.943v6.383c0,1.073-0.87,1.943-1.943,1.943H129.59
				c-1.073,0-1.943-0.87-1.943-1.943v-6.383C127.647,130.398,128.517,129.528,129.59,129.528z"/>
			
				<path style="clip-path:url(#SVGID_00000101815882278382863060000003214052608294524043_);fill:none;stroke:#97CEC8;stroke-width:1.5;stroke-linecap:round;stroke-linejoin:round;stroke-miterlimit:10;" d="
				M109.105,129.528h16.599c1.073,0,1.943,0.87,1.943,1.943v6.383c0,1.073-0.87,1.943-1.943,1.943h-16.599
				c-1.073,0-1.943-0.87-1.943-1.943v-6.383C107.161,130.398,108.031,129.528,109.105,129.528z"/>
			
				<path style="clip-path:url(#SVGID_00000101815882278382863060000003214052608294524043_);fill:none;stroke:#97CEC8;stroke-width:1.5;stroke-linecap:round;stroke-linejoin:round;stroke-miterlimit:10;" d="
				M98.848,119.259h16.599c1.073,0,1.943,0.87,1.943,1.943v6.383c0,1.073-0.87,1.943-1.943,1.943H98.848
				c-1.073,0-1.943-0.87-1.943-1.943v-6.383C96.905,120.129,97.775,119.259,98.848,119.259z"/>
			
				<path style="clip-path:url(#SVGID_00000101815882278382863060000003214052608294524043_);fill:none;stroke:#97CEC8;stroke-width:1.5;stroke-linecap:round;stroke-linejoin:round;stroke-miterlimit:10;" d="
				M242.247,119.259h16.599c1.073,0,1.943,0.87,1.943,1.943v6.383c0,1.073-0.87,1.943-1.943,1.943h-16.599
				c-1.073,0-1.943-0.87-1.943-1.943v-6.383C240.304,120.129,241.174,119.259,242.247,119.259z"/>
			
				<path style="clip-path:url(#SVGID_00000101815882278382863060000003214052608294524043_);fill:none;stroke:#97CEC8;stroke-width:1.5;stroke-linecap:round;stroke-linejoin:round;stroke-miterlimit:10;" d="
				M221.759,119.259h16.599c1.073,0,1.943,0.87,1.943,1.943v6.383c0,1.073-0.87,1.943-1.943,1.943h-16.599
				c-1.073,0-1.943-0.87-1.943-1.943v-6.383C219.815,120.129,220.685,119.259,221.759,119.259z"/>
			
				<path style="clip-path:url(#SVGID_00000101815882278382863060000003214052608294524043_);fill:none;stroke:#97CEC8;stroke-width:1.5;stroke-linecap:round;stroke-linejoin:round;stroke-miterlimit:10;" d="
				M201.273,119.259h16.599c1.073,0,1.943,0.87,1.943,1.943v6.383c0,1.073-0.87,1.943-1.943,1.943h-16.599
				c-1.073,0-1.943-0.87-1.943-1.943v-6.383C199.33,120.129,200.2,119.259,201.273,119.259z"/>
			
				<path style="clip-path:url(#SVGID_00000101815882278382863060000003214052608294524043_);fill:none;stroke:#97CEC8;stroke-width:1.5;stroke-linecap:round;stroke-linejoin:round;stroke-miterlimit:10;" d="
				M180.766,119.259h16.599c1.073,0,1.943,0.87,1.943,1.943v6.383c0,1.073-0.87,1.943-1.943,1.943h-16.599
				c-1.073,0-1.943-0.87-1.943-1.943v-6.383C178.823,120.129,179.693,119.259,180.766,119.259z"/>
			
				<path style="clip-path:url(#SVGID_00000101815882278382863060000003214052608294524043_);fill:none;stroke:#97CEC8;stroke-width:1.5;stroke-linecap:round;stroke-linejoin:round;stroke-miterlimit:10;" d="
				M160.281,119.259h16.599c1.073,0,1.943,0.87,1.943,1.943v6.383c0,1.073-0.87,1.943-1.943,1.943h-16.599
				c-1.073,0-1.943-0.87-1.943-1.943v-6.383C158.337,120.129,159.207,119.259,160.281,119.259z"/>
			
				<path style="clip-path:url(#SVGID_00000101815882278382863060000003214052608294524043_);fill:none;stroke:#97CEC8;stroke-width:1.5;stroke-linecap:round;stroke-linejoin:round;stroke-miterlimit:10;" d="
				M139.819,119.259h16.599c1.073,0,1.943,0.87,1.943,1.943v6.383c0,1.073-0.87,1.943-1.943,1.943h-16.599
				c-1.073,0-1.943-0.87-1.943-1.943v-6.383C137.876,120.129,138.746,119.259,139.819,119.259z"/>
			
				<path style="clip-path:url(#SVGID_00000101815882278382863060000003214052608294524043_);fill:none;stroke:#97CEC8;stroke-width:1.5;stroke-linecap:round;stroke-linejoin:round;stroke-miterlimit:10;" d="
				M119.334,119.259h16.599c1.073,0,1.943,0.87,1.943,1.943v6.383c0,1.073-0.87,1.943-1.943,1.943h-16.599
				c-1.073,0-1.943-0.87-1.943-1.943v-6.383C117.39,120.129,118.261,119.259,119.334,119.259z"/>
			
				<path style="clip-path:url(#SVGID_00000101815882278382863060000003214052608294524043_);fill:none;stroke:#97CEC8;stroke-width:1.5;stroke-linecap:round;stroke-linejoin:round;stroke-miterlimit:10;" d="
				M252.504,109.017h16.599c1.073,0,1.943,0.87,1.943,1.943v6.383c0,1.073-0.87,1.943-1.943,1.943h-16.599
				c-1.073,0-1.943-0.87-1.943-1.943v-6.383C250.561,109.888,251.431,109.017,252.504,109.017z"/>
			
				<path style="clip-path:url(#SVGID_00000101815882278382863060000003214052608294524043_);fill:none;stroke:#97CEC8;stroke-width:1.5;stroke-linecap:round;stroke-linejoin:round;stroke-miterlimit:10;" d="
				M232.018,109.017h16.599c1.073,0,1.943,0.87,1.943,1.943v6.383c0,1.073-0.87,1.943-1.943,1.943h-16.599
				c-1.073,0-1.943-0.87-1.943-1.943v-6.383C230.075,109.888,230.945,109.017,232.018,109.017z"/>
			
				<path style="clip-path:url(#SVGID_00000101815882278382863060000003214052608294524043_);fill:none;stroke:#97CEC8;stroke-width:1.5;stroke-linecap:round;stroke-linejoin:round;stroke-miterlimit:10;" d="
				M211.53,109.017h16.599c1.073,0,1.943,0.87,1.943,1.943v6.383c0,1.073-0.87,1.943-1.943,1.943H211.53
				c-1.073,0-1.943-0.87-1.943-1.943v-6.383C209.586,109.888,210.456,109.017,211.53,109.017z"/>
			
				<path style="clip-path:url(#SVGID_00000101815882278382863060000003214052608294524043_);fill:none;stroke:#97CEC8;stroke-width:1.5;stroke-linecap:round;stroke-linejoin:round;stroke-miterlimit:10;" d="
				M191.044,109.017h16.599c1.073,0,1.943,0.87,1.943,1.943v6.383c0,1.073-0.87,1.943-1.943,1.943h-16.599
				c-1.073,0-1.943-0.87-1.943-1.943v-6.383C189.101,109.888,189.971,109.017,191.044,109.017z"/>
			
				<path style="clip-path:url(#SVGID_00000101815882278382863060000003214052608294524043_);fill:none;stroke:#97CEC8;stroke-width:1.5;stroke-linecap:round;stroke-linejoin:round;stroke-miterlimit:10;" d="
				M170.537,109.017h16.599c1.073,0,1.943,0.87,1.943,1.943v6.383c0,1.073-0.87,1.943-1.943,1.943h-16.599
				c-1.073,0-1.943-0.87-1.943-1.943v-6.383C168.594,109.888,169.464,109.017,170.537,109.017z"/>
			
				<path style="clip-path:url(#SVGID_00000101815882278382863060000003214052608294524043_);fill:none;stroke:#97CEC8;stroke-width:1.5;stroke-linecap:round;stroke-linejoin:round;stroke-miterlimit:10;" d="
				M150.052,109.017h16.599c1.073,0,1.943,0.87,1.943,1.943v6.383c0,1.073-0.87,1.943-1.943,1.943h-16.599
				c-1.073,0-1.943-0.87-1.943-1.943v-6.383C148.108,109.888,148.978,109.017,150.052,109.017z"/>
			
				<path style="clip-path:url(#SVGID_00000101815882278382863060000003214052608294524043_);fill:none;stroke:#97CEC8;stroke-width:1.5;stroke-linecap:round;stroke-linejoin:round;stroke-miterlimit:10;" d="
				M129.59,109.017h16.599c1.073,0,1.943,0.87,1.943,1.943v6.383c0,1.073-0.87,1.943-1.943,1.943H129.59
				c-1.073,0-1.943-0.87-1.943-1.943v-6.383C127.647,109.888,128.517,109.017,129.59,109.017z"/>
			
				<path style="clip-path:url(#SVGID_00000101815882278382863060000003214052608294524043_);fill:none;stroke:#97CEC8;stroke-width:1.5;stroke-linecap:round;stroke-linejoin:round;stroke-miterlimit:10;" d="
				M109.105,109.017h16.599c1.073,0,1.943,0.87,1.943,1.943v6.383c0,1.073-0.87,1.943-1.943,1.943h-16.599
				c-1.073,0-1.943-0.87-1.943-1.943v-6.383C107.161,109.888,108.031,109.017,109.105,109.017z"/>
			
				<path style="clip-path:url(#SVGID_00000101815882278382863060000003214052608294524043_);fill:none;stroke:#97CEC8;stroke-width:1.5;stroke-linecap:round;stroke-linejoin:round;stroke-miterlimit:10;" d="
				M98.848,98.748h16.599c1.073,0,1.943,0.87,1.943,1.943v6.383c0,1.073-0.87,1.943-1.943,1.943H98.848
				c-1.073,0-1.943-0.87-1.943-1.943v-6.383C96.905,99.618,97.775,98.748,98.848,98.748z"/>
			
				<path style="clip-path:url(#SVGID_00000101815882278382863060000003214052608294524043_);fill:none;stroke:#97CEC8;stroke-width:1.5;stroke-linecap:round;stroke-linejoin:round;stroke-miterlimit:10;" d="
				M242.247,98.748h16.599c1.073,0,1.943,0.87,1.943,1.943v6.383c0,1.073-0.87,1.943-1.943,1.943h-16.599
				c-1.073,0-1.943-0.87-1.943-1.943v-6.383C240.304,99.618,241.174,98.748,242.247,98.748z"/>
			
				<path style="clip-path:url(#SVGID_00000101815882278382863060000003214052608294524043_);fill:none;stroke:#97CEC8;stroke-width:1.5;stroke-linecap:round;stroke-linejoin:round;stroke-miterlimit:10;" d="
				M221.759,98.748h16.599c1.073,0,1.943,0.87,1.943,1.943v6.383c0,1.073-0.87,1.943-1.943,1.943h-16.599
				c-1.073,0-1.943-0.87-1.943-1.943v-6.383C219.815,99.618,220.685,98.748,221.759,98.748z"/>
			
				<path style="clip-path:url(#SVGID_00000101815882278382863060000003214052608294524043_);fill:none;stroke:#97CEC8;stroke-width:1.5;stroke-linecap:round;stroke-linejoin:round;stroke-miterlimit:10;" d="
				M201.273,98.748h16.599c1.073,0,1.943,0.87,1.943,1.943v6.383c0,1.073-0.87,1.943-1.943,1.943h-16.599
				c-1.073,0-1.943-0.87-1.943-1.943v-6.383C199.33,99.618,200.2,98.748,201.273,98.748z"/>
			
				<path style="clip-path:url(#SVGID_00000101815882278382863060000003214052608294524043_);fill:none;stroke:#97CEC8;stroke-width:1.5;stroke-linecap:round;stroke-linejoin:round;stroke-miterlimit:10;" d="
				M180.766,98.748h16.599c1.073,0,1.943,0.87,1.943,1.943v6.383c0,1.073-0.87,1.943-1.943,1.943h-16.599
				c-1.073,0-1.943-0.87-1.943-1.943v-6.383C178.823,99.618,179.693,98.748,180.766,98.748z"/>
			
				<path style="clip-path:url(#SVGID_00000101815882278382863060000003214052608294524043_);fill:none;stroke:#97CEC8;stroke-width:1.5;stroke-linecap:round;stroke-linejoin:round;stroke-miterlimit:10;" d="
				M160.281,98.748h16.599c1.073,0,1.943,0.87,1.943,1.943v6.383c0,1.073-0.87,1.943-1.943,1.943h-16.599
				c-1.073,0-1.943-0.87-1.943-1.943v-6.383C158.337,99.618,159.207,98.748,160.281,98.748z"/>
			
				<path style="clip-path:url(#SVGID_00000101815882278382863060000003214052608294524043_);fill:none;stroke:#97CEC8;stroke-width:1.5;stroke-linecap:round;stroke-linejoin:round;stroke-miterlimit:10;" d="
				M139.819,98.748h16.599c1.073,0,1.943,0.87,1.943,1.943v6.383c0,1.073-0.87,1.943-1.943,1.943h-16.599
				c-1.073,0-1.943-0.87-1.943-1.943v-6.383C137.876,99.618,138.746,98.748,139.819,98.748z"/>
			
				<path style="clip-path:url(#SVGID_00000101815882278382863060000003214052608294524043_);fill:none;stroke:#97CEC8;stroke-width:1.5;stroke-linecap:round;stroke-linejoin:round;stroke-miterlimit:10;" d="
				M119.334,98.748h16.599c1.073,0,1.943,0.87,1.943,1.943v6.383c0,1.073-0.87,1.943-1.943,1.943h-16.599
				c-1.073,0-1.943-0.87-1.943-1.943v-6.383C117.39,99.618,118.261,98.748,119.334,98.748z"/>
			
				<path style="clip-path:url(#SVGID_00000101815882278382863060000003214052608294524043_);fill:none;stroke:#97CEC8;stroke-width:1.5;stroke-linecap:round;stroke-linejoin:round;stroke-miterlimit:10;" d="
				M252.504,88.479h16.599c1.073,0,1.943,0.87,1.943,1.943v6.383c0,1.073-0.87,1.943-1.943,1.943h-16.599
				c-1.073,0-1.943-0.87-1.943-1.943v-6.383C250.561,89.349,251.431,88.479,252.504,88.479z"/>
			
				<path style="clip-path:url(#SVGID_00000101815882278382863060000003214052608294524043_);fill:none;stroke:#97CEC8;stroke-width:1.5;stroke-linecap:round;stroke-linejoin:round;stroke-miterlimit:10;" d="
				M232.018,88.479h16.599c1.073,0,1.943,0.87,1.943,1.943v6.383c0,1.073-0.87,1.943-1.943,1.943h-16.599
				c-1.073,0-1.943-0.87-1.943-1.943v-6.383C230.075,89.349,230.945,88.479,232.018,88.479z"/>
			
				<path style="clip-path:url(#SVGID_00000101815882278382863060000003214052608294524043_);fill:none;stroke:#97CEC8;stroke-width:1.5;stroke-linecap:round;stroke-linejoin:round;stroke-miterlimit:10;" d="
				M211.53,88.479h16.599c1.073,0,1.943,0.87,1.943,1.943v6.383c0,1.073-0.87,1.943-1.943,1.943H211.53
				c-1.073,0-1.943-0.87-1.943-1.943v-6.383C209.586,89.349,210.456,88.479,211.53,88.479z"/>
			
				<path style="clip-path:url(#SVGID_00000101815882278382863060000003214052608294524043_);fill:none;stroke:#97CEC8;stroke-width:1.5;stroke-linecap:round;stroke-linejoin:round;stroke-miterlimit:10;" d="
				M191.044,88.479h16.599c1.073,0,1.943,0.87,1.943,1.943v6.383c0,1.073-0.87,1.943-1.943,1.943h-16.599
				c-1.073,0-1.943-0.87-1.943-1.943v-6.383C189.101,89.349,189.971,88.479,191.044,88.479z"/>
			
				<path style="clip-path:url(#SVGID_00000101815882278382863060000003214052608294524043_);fill:none;stroke:#97CEC8;stroke-width:1.5;stroke-linecap:round;stroke-linejoin:round;stroke-miterlimit:10;" d="
				M170.537,88.479h16.599c1.073,0,1.943,0.87,1.943,1.943v6.383c0,1.073-0.87,1.943-1.943,1.943h-16.599
				c-1.073,0-1.943-0.87-1.943-1.943v-6.383C168.594,89.349,169.464,88.479,170.537,88.479z"/>
			
				<path style="clip-path:url(#SVGID_00000101815882278382863060000003214052608294524043_);fill:none;stroke:#97CEC8;stroke-width:1.5;stroke-linecap:round;stroke-linejoin:round;stroke-miterlimit:10;" d="
				M150.052,88.479h16.599c1.073,0,1.943,0.87,1.943,1.943v6.383c0,1.073-0.87,1.943-1.943,1.943h-16.599
				c-1.073,0-1.943-0.87-1.943-1.943v-6.383C148.108,89.349,148.978,88.479,150.052,88.479z"/>
			
				<path style="clip-path:url(#SVGID_00000101815882278382863060000003214052608294524043_);fill:none;stroke:#97CEC8;stroke-width:1.5;stroke-linecap:round;stroke-linejoin:round;stroke-miterlimit:10;" d="
				M129.59,88.479h16.599c1.073,0,1.943,0.87,1.943,1.943v6.383c0,1.073-0.87,1.943-1.943,1.943H129.59
				c-1.073,0-1.943-0.87-1.943-1.943v-6.383C127.647,89.349,128.517,88.479,129.59,88.479z"/>
			
				<path style="clip-path:url(#SVGID_00000101815882278382863060000003214052608294524043_);fill:none;stroke:#97CEC8;stroke-width:1.5;stroke-linecap:round;stroke-linejoin:round;stroke-miterlimit:10;" d="
				M109.105,88.479h16.599c1.073,0,1.943,0.87,1.943,1.943v6.383c0,1.073-0.87,1.943-1.943,1.943h-16.599
				c-1.073,0-1.943-0.87-1.943-1.943v-6.383C107.161,89.349,108.031,88.479,109.105,88.479z"/>
			
				<path style="clip-path:url(#SVGID_00000101815882278382863060000003214052608294524043_);fill:none;stroke:#97CEC8;stroke-width:1.5;stroke-linecap:round;stroke-linejoin:round;stroke-miterlimit:10;" d="
				M98.848,78.209h16.599c1.073,0,1.943,0.87,1.943,1.943v6.383c0,1.073-0.87,1.943-1.943,1.943H98.848
				c-1.073,0-1.943-0.87-1.943-1.943v-6.383C96.905,79.079,97.775,78.209,98.848,78.209z"/>
			
				<path style="clip-path:url(#SVGID_00000101815882278382863060000003214052608294524043_);fill:none;stroke:#97CEC8;stroke-width:1.5;stroke-linecap:round;stroke-linejoin:round;stroke-miterlimit:10;" d="
				M242.247,78.209h16.599c1.073,0,1.943,0.87,1.943,1.943v6.383c0,1.073-0.87,1.943-1.943,1.943h-16.599
				c-1.073,0-1.943-0.87-1.943-1.943v-6.383C240.304,79.079,241.174,78.209,242.247,78.209z"/>
			
				<path style="clip-path:url(#SVGID_00000101815882278382863060000003214052608294524043_);fill:none;stroke:#97CEC8;stroke-width:1.5;stroke-linecap:round;stroke-linejoin:round;stroke-miterlimit:10;" d="
				M221.759,78.209h16.599c1.073,0,1.943,0.87,1.943,1.943v6.383c0,1.073-0.87,1.943-1.943,1.943h-16.599
				c-1.073,0-1.943-0.87-1.943-1.943v-6.383C219.815,79.079,220.685,78.209,221.759,78.209z"/>
			
				<path style="clip-path:url(#SVGID_00000101815882278382863060000003214052608294524043_);fill:none;stroke:#97CEC8;stroke-width:1.5;stroke-linecap:round;stroke-linejoin:round;stroke-miterlimit:10;" d="
				M201.273,78.209h16.599c1.073,0,1.943,0.87,1.943,1.943v6.383c0,1.073-0.87,1.943-1.943,1.943h-16.599
				c-1.073,0-1.943-0.87-1.943-1.943v-6.383C199.33,79.079,200.2,78.209,201.273,78.209z"/>
			
				<path style="clip-path:url(#SVGID_00000101815882278382863060000003214052608294524043_);fill:none;stroke:#97CEC8;stroke-width:1.5;stroke-linecap:round;stroke-linejoin:round;stroke-miterlimit:10;" d="
				M180.766,78.209h16.599c1.073,0,1.943,0.87,1.943,1.943v6.383c0,1.073-0.87,1.943-1.943,1.943h-16.599
				c-1.073,0-1.943-0.87-1.943-1.943v-6.383C178.823,79.079,179.693,78.209,180.766,78.209z"/>
			
				<path style="clip-path:url(#SVGID_00000101815882278382863060000003214052608294524043_);fill:none;stroke:#97CEC8;stroke-width:1.5;stroke-linecap:round;stroke-linejoin:round;stroke-miterlimit:10;" d="
				M160.281,78.209h16.599c1.073,0,1.943,0.87,1.943,1.943v6.383c0,1.073-0.87,1.943-1.943,1.943h-16.599
				c-1.073,0-1.943-0.87-1.943-1.943v-6.383C158.337,79.079,159.207,78.209,160.281,78.209z"/>
			
				<path style="clip-path:url(#SVGID_00000101815882278382863060000003214052608294524043_);fill:none;stroke:#97CEC8;stroke-width:1.5;stroke-linecap:round;stroke-linejoin:round;stroke-miterlimit:10;" d="
				M139.819,78.209h16.599c1.073,0,1.943,0.87,1.943,1.943v6.383c0,1.073-0.87,1.943-1.943,1.943h-16.599
				c-1.073,0-1.943-0.87-1.943-1.943v-6.383C137.876,79.079,138.746,78.209,139.819,78.209z"/>
			
				<path style="clip-path:url(#SVGID_00000101815882278382863060000003214052608294524043_);fill:none;stroke:#97CEC8;stroke-width:1.5;stroke-linecap:round;stroke-linejoin:round;stroke-miterlimit:10;" d="
				M119.334,78.209h16.599c1.073,0,1.943,0.87,1.943,1.943v6.383c0,1.073-0.87,1.943-1.943,1.943h-16.599
				c-1.073,0-1.943-0.87-1.943-1.943v-6.383C117.39,79.079,118.261,78.209,119.334,78.209z"/>
		</g>
	</g>
	<g style="opacity:0.35;">
		<g>
			<circle style="opacity:0.6;fill-rule:evenodd;clip-rule:evenodd;fill:#FFAD38;" cx="1116.886" cy="53.49" r="1.857"/>
			<circle style="opacity:0.6;fill-rule:evenodd;clip-rule:evenodd;fill:#FFAD38;" cx="1114.721" cy="46.527" r="1.857"/>
			<circle style="opacity:0.6;fill-rule:evenodd;clip-rule:evenodd;fill:#FFAD38;" cx="1120.618" cy="46.978" r="1.857"/>
			<circle style="opacity:0.6;fill-rule:evenodd;clip-rule:evenodd;fill:#FFAD38;" cx="1113.966" cy="31.366" r="1.857"/>
			<circle style="opacity:0.6;fill-rule:evenodd;clip-rule:evenodd;fill:#FFAD38;" cx="1103.598" cy="38.413" r="1.857"/>
		</g>
	</g>
	<g style="opacity:0.35;">
		<g>
			
				<ellipse transform="matrix(0.5414 -0.8408 0.8408 0.5414 247.7953 557.0436)" style="opacity:0.6;fill-rule:evenodd;clip-rule:evenodd;fill:#FFAD38;" cx="634.499" cy="51.386" rx="1.857" ry="1.856"/>
			
				<ellipse transform="matrix(0.5414 -0.8408 0.8408 0.5414 246.2121 550.2417)" style="opacity:0.6;fill-rule:evenodd;clip-rule:evenodd;fill:#FFAD38;" cx="627.473" cy="49.436" rx="1.857" ry="1.856"/>
			
				<ellipse transform="matrix(0.5414 -0.8408 0.8408 0.5414 251.8134 551.0829)" style="opacity:0.6;fill-rule:evenodd;clip-rule:evenodd;fill:#FFAD38;" cx="631.045" cy="44.722" rx="1.857" ry="1.856"/>
			
				<ellipse transform="matrix(0.5414 -0.8408 0.8408 0.5414 246.5451 535.7072)" style="opacity:0.6;fill-rule:evenodd;clip-rule:evenodd;fill:#FFAD38;" cx="614.317" cy="41.864" rx="1.857" ry="1.856"/>
			
				<ellipse transform="matrix(0.5414 -0.8408 0.8408 0.5414 236.1516 541.7173)" style="opacity:0.6;fill-rule:evenodd;clip-rule:evenodd;fill:#FFAD38;" cx="614.629" cy="54.396" rx="1.857" ry="1.856"/>
		</g>
	</g>
</g>
<g id="Details">
	<g>
		<path style="opacity:0.3;fill:#FFAD38;" d="M619.737,54.396h-65.441c-6.828,0-12.363-5.535-12.363-12.363v0
			c0-6.828,5.535-12.363,12.363-12.363h65.441c6.828,0,12.363,5.535,12.363,12.363v0C632.1,48.86,626.565,54.396,619.737,54.396z"/>
		<path style="fill:#F2C100;" d="M627.542-1.718c-0.073-0.023-0.076-0.016-0.146-0.038c-0.151-0.032-0.248-0.007-0.421,0.003
			c-0.545,0.07-1.101,0.452-1.52,1.031c-0.135,0.086-0.208,0.211-0.278,0.333c-0.035,0.062-0.07,0.123-0.111,0.192l-24.831,43.011
			l3.617-0.014l23.921-41.435c0.041-0.069,0.076-0.13,0.111-0.192c0.108-0.185,0.219-0.376,0.259-0.59
			c0.251-0.731,0.238-1.435-0.084-1.893c-0.094-0.128-0.138-0.198-0.262-0.277c-0.059-0.036-0.124-0.073-0.124-0.073
			C627.606-1.688,627.601-1.681,627.542-1.718z"/>
		<path style="fill:#8100FF;" d="M593.882,1.719c7.602-13.168,24.434-17.678,37.603-10.075
			c13.169,7.603,17.677,24.435,10.075,37.603L593.882,1.719z"/>
		<g transform="matrix(0.75944,-0.438463,0.438463,0.75944,-28282.3,20880.8)">
			<defs>
				<path id="SVGID_00000057847522558986066780000011436858843884449210_" d="M593.882,1.719
					c7.602-13.168,24.434-17.678,37.603-10.075c13.169,7.603,17.677,24.435,10.075,37.603L593.882,1.719z"/>
			</defs>
			<clipPath id="SVGID_00000152972164041144632700000008644451484062656180_">
				<use xlink:href="#SVGID_00000057847522558986066780000011436858843884449210_"  style="overflow:visible;"/>
			</clipPath>
			<path style="clip-path:url(#SVGID_00000152972164041144632700000008644451484062656180_);fill:#5C00C6;" d="M632.195-8.522
				c1.422,3.591,2.334,7.327,2.76,11.133c0.018,0.174,0.079,0.201,0.025,0.614c0,0,0.077,0.93,0.114,1.558
				c0.933,15.784-7.294,31.269-20.559,39.4c-1.745,1.069-3.837,2.159-4.93,2.647c-3.425,1.534-7.087,2.624-10.801,3.217
				c-0.51,0.081-1.131-0.217-1.282-0.6c-4.132-10.432-3.95-22.85,0.627-33.263c5.877-13.373,18.858-23.179,33.131-25.365
				C631.973-9.228,632.086-8.799,632.195-8.522z M630.803-7.52c-8.299,1.418-16.12,5.374-22.144,11.24
				c-11.881,11.565-15.594,29.745-9.844,44.74l0.097-0.017c2.817-0.481,5.589-1.242,8.255-2.287
				c0.932-0.366,2.094-0.937,2.094-0.937c14.612-6.702,24.289-22,24.343-37.741c0.008-2.161-0.187-4.53-0.187-4.53
				c-0.381-3.544-1.215-7.043-2.479-10.383C630.868-7.624,630.803-7.52,630.803-7.52z"/>
		</g>
		<rect x="548.49" y="33.132" style="fill:#AF5AFF;" width="39.729" height="13.752"/>
		<path style="fill:#C74610;" d="M620.581,40.587c0,0,8.527,0,11.24,0c0.582,0,1.114-0.086,1.647-0.256
			c0.533-0.179,1.308-0.424,1.987-0.646c1.114-0.355,2.277-0.341,3.392,0.041c0.533,0.194,1.162,0.401,1.599,0.564
			c0.582,0.196,1.163,0.297,1.744,0.297c3.779,0,18.12,0,18.12,0v13.752c0,0-8.334,0-10.95,0c-0.533,0-1.018-0.12-1.502-0.349
			c-0.193-0.091-0.387-0.192-0.581-0.295c-0.92-0.465-2.035-0.465-2.955,0c-0.194,0.103-0.388,0.204-0.582,0.295
			c-0.484,0.229-0.969,0.349-1.502,0.349c-3.925,0-21.657,0-21.657,0V40.587z"/>
		<path style="fill:#7AD8CD;" d="M619.116,31.579c-0.158,0.013-0.197,0.03-0.285,0.065c-0.311,0.127-0.513,0.399-0.522,0.776v1.868
			h1.035v-1.675h2.473v1.675h1.035V32.42C622.826,31.302,620.73,31.539,619.116,31.579z"/>
		<g>
			<path style="fill:#7AD8CD;" d="M626.338,38.143c-0.711-0.408-1.372-0.785-1.372-0.785s0.043-0.173,0.11-0.439
				c-1.373,0-3.588,0-4.852,0c-0.53,0-0.959-0.43-0.959-0.962c0-0.421,0-0.917,0-1.318c0-0.431-0.344-0.774-0.771-0.786
				c-0.544,0.01-0.983,0.45-0.983,1.001c0,1.6,0,4.758,0,6.783c0,1.026,0.833,1.859,1.859,1.859c2.109,0,5.499,0,7.353,0
				c0.346,0,0.679-0.14,0.925-0.386c0.246-0.246,0.386-0.579,0.386-0.925c0-0.351,0-0.741,0-1.118
				C628.035,39.857,627.386,38.743,626.338,38.143z"/>
			<path style="fill:#2AB3AA;" d="M619.265,34.639c0,0.401,0,0.896,0,1.318c0,0.532,0.429,0.962,0.959,0.962
				c1.264,0,3.479,0,4.852,0c0.107-0.426,0.274-1.094,0.425-1.701c0.079-0.329,0.009-0.676-0.202-0.943
				c-0.211-0.267-0.531-0.425-0.868-0.425c-1.679,0-4.442,0-5.919,0c-0.006,0-0.011,0.003-0.017,0.003
				C618.921,33.865,619.265,34.208,619.265,34.639z"/>
		</g>
		<path style="fill:#2AB3AA;" d="M621.896,40.149c0-0.39,0.32-0.711,0.711-0.711h3.837c0.394,0,0.715,0.32,0.715,0.711v1.429
			c0,0.39-0.32,0.71-0.715,0.71h-3.837c-0.39,0-0.711-0.32-0.711-0.71V40.149z"/>
		<path style="fill:#F19322;" d="M607.081,42.167c0.319,0.81,1.103,1.339,1.973,1.339c2.184,0,6.31,0,8.499,0
			c0.866,0,1.649-0.529,1.974-1.339c0.98-2.45,2.967-7.413,2.967-7.413h-18.379C604.114,34.754,606.096,39.717,607.081,42.167z"/>
		<path style="fill:#F19322;" d="M613.243,29.516c-2.501,0.044-4.73,2.188-4.746,4.796v1.864h1.729c0-1.619-0.044-3.4,1.276-4.354
			c1.784-1.286,4.856-0.013,4.872,2.499v1.855h1.729c0-1.199,0.106-2.393-0.28-3.479C617.15,30.82,615.37,29.503,613.243,29.516z"/>
		<path style="fill:#F77F12;" d="M564.73,40.039c0.471,0,0.853,0.383,0.853,0.854v1.708c0,0.471-0.383,0.854-0.853,0.854h-17.122
			c-0.471,0-0.854-0.383-0.854-0.854v-1.708c0-0.471,0.383-0.854,0.854-0.854H564.73z"/>
		<path style="fill:#F77F12;" d="M546.76,37.966L546.76,37.966c1.143,0,2.073,0.927,2.073,2.073c0,1.246,0,2.591,0,2.591h-2.073
			V37.966z"/>
		<path style="fill:#FDC40D;" d="M560.565,16.693c-0.333-0.834-0.231-1.779,0.273-2.523c0.504-0.744,1.342-1.19,2.242-1.19
			c3.998,0,10.081,0,13.936,0c2.176,0,4.135,1.328,4.943,3.349c0.954,2.39,2.239,5.607,3.225,8.076
			c0.333,0.834,0.231,1.779-0.273,2.523c-0.504,0.744-1.342,1.19-2.242,1.19c-3.998,0-10.085,0-13.936,0
			c-2.176,0-4.134-1.326-4.943-3.349C562.836,22.379,561.551,19.163,560.565,16.693z"/>
		<path style="fill:#071C1C;" d="M573.707,25.876c0-1.24,1.005-2.246,2.246-2.246h3.8c1.241,0,2.246,1.006,2.246,2.246
			c0,1.24-1.005,2.246-2.246,2.246h-3.8C574.712,28.121,573.707,27.115,573.707,25.876z"/>
		<rect x="570.252" y="24.839" style="fill:#F77F12;" width="4.146" height="4.664"/>
		<path style="fill:#F79712;" d="M565.424,19.483c0-1.24,1.006-2.246,2.246-2.246h9.328c1.239,0,2.246,1.006,2.246,2.246v4.491
			c0,1.24-1.007,2.246-2.246,2.246h-9.328c-1.239,0-2.246-1.006-2.246-2.246V19.483z"/>
		<path style="fill:#F79712;" d="M580.234,20.086c-1.121,0-2.03,0.909-2.03,2.03c0,1.121,0.909,2.03,2.03,2.03
			c1.121,0,2.029-0.909,2.029-2.03C582.264,20.995,581.355,20.086,580.234,20.086z"/>
		<rect x="567.495" y="17.238" style="fill:#071C1C;" width="7.6" height="2.764"/>
		<path style="fill:#071C1C;" d="M573.793,21.861c0-0.169,0.135-0.304,0.301-0.304h0.605c0.169,0,0.304,0.135,0.304,0.304v1.983
			c0,0.169-0.135,0.304-0.304,0.304h-0.605c-0.166,0-0.301-0.135-0.301-0.304V21.861z"/>
		<path style="fill:#071C1C;" d="M567.488,21.861c0-0.169,0.135-0.304,0.301-0.304h0.605c0.169,0,0.304,0.135,0.304,0.304v1.983
			c0,0.169-0.135,0.304-0.304,0.304h-0.605c-0.166,0-0.301-0.135-0.301-0.304V21.861z"/>
		<path style="fill:#2AB3AA;" d="M568.015,30.49c0.133-1.638,1.502-2.9,3.145-2.9c0.862,0,1.782,0,2.568,0
			c1.106,0,2.024,0.855,2.102,1.963c0.164,2.308,0.438,6.207,0.651,9.195c0.076,1.077-0.299,2.133-1.032,2.921
			c-0.735,0.788-1.763,1.236-2.842,1.236c-0.35,0-0.68,0-0.967,0c-0.668,0-1.317-0.242-1.825-0.675c-0.992-0.85-2.57-2.2-2.57-2.2
			S567.72,34.168,568.015,30.49z"/>
		<path style="fill:#F79712;" d="M559.204,33.663c0.362-0.443,0.886-0.716,1.456-0.762c0.568-0.043,1.132,0.145,1.554,0.528
			c0,0,0,0,0.001,0.001c0.429,0.383,0.681,0.926,0.696,1.5c0.019,0.572-0.204,1.13-0.609,1.535c-2.47,2.47-6.992,6.992-6.992,6.992
			l-5.778,0c0,0-0.001-0.03,0-0.085c-0.002-0.515,0.204-1.011,0.569-1.376c0.368-0.368,0.864-0.574,1.378-0.572
			c0.729-0.001,1.384-0.002,1.384-0.002S556.982,36.38,559.204,33.663z"/>
		<path style="fill:#F79712;" d="M571.576,38.67c0.992,0.573,1.33,1.84,0.758,2.831c-0.572,0.991-1.839,1.332-2.831,0.759
			l-9.636-5.564c-0.992-0.573-1.33-1.84-0.758-2.831c0.572-0.991,1.839-1.332,2.831-0.759L571.576,38.67z"/>
		<path style="fill:#F79712;" d="M573.008,30.392c-0.332-0.576-0.333-1.285,0-1.859c0.331-0.578,0.944-0.932,1.61-0.929
			c0.05,0,0.1,0,0.148,0.001c0.663-0.002,1.277,0.354,1.61,0.929c1.67,2.892,6.661,11.538,6.661,11.538l3.11-0.064l0,2.107
			l-6.354,0.032C579.794,42.146,575.445,34.613,573.008,30.392z"/>
		<path style="fill:#7AD8CD;" d="M576.471,38.658l-14.51-5.528v10.326c0,0,6.412,0,10.71,0c1.009,0,1.973-0.401,2.688-1.112
			c0.712-0.715,1.112-1.679,1.112-2.688C576.471,39.072,576.471,38.658,576.471,38.658z"/>
	</g>
	<g>
		<path style="opacity:0.3;fill:#FFAD38;" d="M1179.104,144.801c0-1.563-1.269-2.832-2.832-2.832h-111.155
			c-1.563,0-2.832,1.269-2.832,2.832c0,1.563,1.269,2.832,2.832,2.832h111.155C1177.834,147.633,1179.104,146.364,1179.104,144.801z
			"/>
		<path style="fill:#C74610;" d="M1144.049,133.336c0-1.453-0.574-2.847-1.604-3.875c-1.029-1.027-2.419-1.605-3.876-1.605l0,0
			c-1.457,0-2.847,0.578-3.876,1.605c-1.029,1.028-1.604,2.421-1.604,3.875c0,1.701,0,3.576,0,5.277
			c0,1.453,0.575,2.847,1.604,3.875c1.029,1.027,2.419,1.604,3.876,1.604l0,0c1.457,0,2.847-0.577,3.876-1.604
			c1.029-1.028,1.604-2.421,1.604-3.875C1144.049,136.912,1144.049,135.038,1144.049,133.336z"/>
		<path style="fill:#C74610;" d="M1158.209,133.336c0-1.453-0.574-2.847-1.604-3.875c-1.029-1.027-2.419-1.605-3.876-1.605l0,0
			c-1.457,0-2.847,0.578-3.876,1.605c-1.029,1.028-1.604,2.421-1.604,3.875c0,1.701,0,3.576,0,5.277
			c0,1.453,0.575,2.847,1.604,3.875c1.029,1.027,2.419,1.604,3.876,1.604l0,0c1.457,0,2.847-0.577,3.876-1.604
			c1.029-1.028,1.604-2.421,1.604-3.875C1158.209,136.912,1158.209,135.038,1158.209,133.336z"/>
		<path style="fill:#C74610;" d="M1172.709,133.336c0-1.453-0.575-2.847-1.604-3.875c-1.029-1.027-2.419-1.605-3.876-1.605l0,0
			c-1.457,0-2.847,0.578-3.876,1.605c-1.029,1.028-1.604,2.421-1.604,3.875c0,1.701,0,3.576,0,5.277
			c0,1.453,0.575,2.847,1.604,3.875c1.029,1.027,2.419,1.604,3.876,1.604l0,0c1.457,0,2.847-0.577,3.876-1.604
			c1.029-1.028,1.604-2.421,1.604-3.875C1172.709,136.912,1172.709,135.038,1172.709,133.336z"/>
		<path style="fill:#C74610;" d="M1083.87,133.336c0-1.453-0.574-2.847-1.604-3.875c-1.029-1.027-2.419-1.605-3.876-1.605l0,0
			c-1.457,0-2.847,0.578-3.876,1.605c-1.029,1.028-1.604,2.421-1.604,3.875c0,1.701,0,3.576,0,5.277
			c0,1.453,0.575,2.847,1.604,3.875c1.029,1.027,2.419,1.604,3.876,1.604l0,0c1.457,0,2.847-0.577,3.876-1.604
			c1.029-1.028,1.604-2.421,1.604-3.875C1083.87,136.912,1083.87,135.038,1083.87,133.336z"/>
		<path style="fill:#FFFFFF;" d="M1103.231,37.973l11.428-17.757l-2.539-1.585l-11.711,18.074V66.21h2.822V37.973z"/>
		<g transform="matrix(0.767626,-1.2326e-32,-2.46519e-32,0.384542,-7085.95,5221.87)">
			<defs>
				<polygon id="SVGID_00000098935734742968593030000009471704355897220776_" points="1103.231,37.973 1114.659,20.216 
					1112.12,18.631 1100.409,36.705 1100.409,66.21 1103.231,66.21 				"/>
			</defs>
			<clipPath id="SVGID_00000147190567180884186350000005378084126691599246_">
				<use xlink:href="#SVGID_00000098935734742968593030000009471704355897220776_"  style="overflow:visible;"/>
			</clipPath>
			<g style="clip-path:url(#SVGID_00000147190567180884186350000005378084126691599246_);">
				<g transform="matrix(0.611847,0.565329,-0.283201,1.22137,4469.04,-6529.53)">
					
						<rect x="-2486.415" y="6518.917" transform="matrix(0.3073 0.9516 -0.9516 0.3073 4487.9814 6881.9307)" style="fill:#D0D7E4;" width="6.09" height="9.897"/>
				</g>
			</g>
		</g>
		<path style="fill:#FDB015;" d="M1139.334,39.677c9.056-15.685,3.685-35.732-12-44.788c-15.684-9.056-35.733-3.685-44.789,12
			L1139.334,39.677z"/>
		<g transform="matrix(0.882782,0.509674,-0.509674,0.882782,-31659.3,-16299.7)">
			<defs>
				<path id="SVGID_00000148648430648982862260000005702194157490698137_" d="M1139.334,39.677c9.056-15.685,3.685-35.732-12-44.788
					c-15.684-9.056-35.733-3.685-44.789,12L1139.334,39.677z"/>
			</defs>
			<clipPath id="SVGID_00000096751665135937015690000003114270020014232721_">
				<use xlink:href="#SVGID_00000148648430648982862260000005702194157490698137_"  style="overflow:visible;"/>
			</clipPath>
			<path style="clip-path:url(#SVGID_00000096751665135937015690000003114270020014232721_);fill:#FD8E0C;" d="M1104.645,50.523
				c-3.647,1.633-7.525,2.765-11.534,3.338c-1.47-3.744-2.397-7.638-2.785-11.564l0.039-0.067
				c-0.933-9.536,1.295-19.291,6.635-27.65c4.625-7.239,11.183-12.799,18.74-16.214l0.038-0.067
				c3.671-1.654,7.58-2.798,11.621-3.376c1.468,3.743,2.397,7.639,2.785,11.564l0.011,0.112c0.929,9.531-1.301,19.278-6.638,27.631
				c-4.641,7.267-11.232,12.842-18.825,16.254L1104.645,50.523z"/>
		</g>
		<polygon style="fill:#FFFFFF;" points="1098.763,66.213 1100.887,66.213 1089.192,144.093 1087.068,144.093 		"/>
		<polygon style="fill:#FFFFFF;" points="1117.514,66.213 1115.39,66.213 1127.084,144.093 1129.208,144.093 		"/>
		<rect x="1098.394" y="76.124" style="fill:#FFFFFF;" width="19.47" height="2.124"/>
		<rect x="1099.457" y="66.211" style="fill:#FFFFFF;" width="17.346" height="2.124"/>
		<rect x="1098.747" y="55.598" style="fill:#FFFFFF;" width="18.762" height="10.974"/>
		<rect x="1096.627" y="86.031" style="fill:#FFFFFF;" width="23.01" height="2.124"/>
		<rect x="1095.212" y="95.945" style="fill:#FFFFFF;" width="25.842" height="2.124"/>
		<rect x="1093.791" y="105.857" style="fill:#FFFFFF;" width="28.674" height="2.124"/>
		<rect x="1092.376" y="115.771" style="fill:#FFFFFF;" width="31.506" height="2.124"/>
		<rect x="1090.961" y="125.684" style="fill:#FFFFFF;" width="34.338" height="2.124"/>
		<rect x="1088.837" y="135.596" style="fill:#FFFFFF;" width="38.586" height="2.124"/>
		<g transform="matrix(0.86,0,0,0.86,-461.658,629.484)">
			<g transform="matrix(1.24773,0,0,0.87981,-1701.74,3143.71)">
				<rect x="2818.38" y="-4358.783" style="fill:#071C1C;" width="17.155" height="12.866"/>
			</g>
			<g transform="matrix(0.492694,0,0,0.63132,1578.38,2175.34)">
				<path style="fill:#F79712;" d="M520.03-4526.937c0-2.537-2.641-4.594-5.887-4.594h-24.985c-3.247,0-5.888,2.058-5.888,4.594
					v9.19c0,2.537,2.641,4.595,5.888,4.595h24.985c3.247,0,5.887-2.058,5.887-4.595V-4526.937z"/>
			</g>
			<g transform="matrix(-6.85654e-18,0.111976,0.719781,4.40739e-17,-1353.07,5294.24)">
				<path style="fill:#F79712;" d="M-53246.926,4394.923c0-1.581-8.238-2.861-18.383-2.861c-10.148,0-18.383,1.28-18.383,2.861
					v12.658c0,1.581,8.234,2.861,18.383,2.861c10.145,0,18.383-1.28,18.383-2.861V4394.923z"/>
			</g>
			<g transform="matrix(0.0969739,0.0559879,0.37658,-0.652255,268.918,8787.14)">
				<path style="fill:#F79712;" d="M-30289.477,11897.971c-0.002-1.507-8.234-2.732-18.383-2.732
					c-10.143,0-18.379,1.226-18.379,2.733v12.915c0.002,1.507,8.234,2.731,18.379,2.732c10.148-0.001,18.383-1.226,18.383-2.733
					V11897.971z"/>
			</g>
			<g transform="matrix(6.85654e-18,0.111976,-0.719781,4.40739e-17,6194.27,5294.24)">
				<path style="fill:#F79712;" d="M-53246.926,6048.858c0-1.581-8.238-2.861-18.383-2.861c-10.148,0-18.383,1.28-18.383,2.861
					v12.658c0,1.581,8.234,2.861,18.383,2.861c10.145,0,18.383-1.28,18.383-2.861V6048.858z"/>
			</g>
			<g transform="matrix(-0.0969739,0.0559879,-0.378815,-0.656127,4583.93,8807.4)">
				<path style="fill:#F79712;" d="M-21082.449,12644.177c0-1.495-8.234-2.715-18.381-2.715s-18.381,1.22-18.381,2.715v12.951
					c0,1.495,8.236,2.714,18.379,2.715c10.148-0.001,18.383-1.22,18.383-2.715V12644.177z"/>
			</g>
			<g transform="matrix(0.500756,0,0,0.916634,1562.24,712.193)">
				<path style="fill:#F7D812;" d="M538.131-1510.362h-24.66l-2.463,13.92h29.592L538.131-1510.362z"/>
			</g>
			<g transform="matrix(0.589922,0,0,0.641316,464.354,3777.4)">
				<path style="fill:#C74610;" d="M2319.962-6918.426h-25.119c0,0-0.177,1.74-0.355,3.456c-0.086,0.839,0.215,1.679,0.833,2.304
					c0.619,0.625,1.495,0.98,2.414,0.98c5.067,0,14.269,0,19.342,0c0.919,0,1.795-0.355,2.414-0.98
					c0.613-0.625,0.919-1.464,0.833-2.304C2320.146-6916.686,2319.962-6918.426,2319.962-6918.426z"/>
			</g>
			<g transform="matrix(0.156766,0,0,0.831757,2160.21,1175.97)">
				<path style="fill:#F79712;" d="M-2087.563-2202.351c0-0.919-1.936-1.795-5.386-2.445c-3.442-0.649-8.118-1.017-12.994-1.017l0,0
					c-10.153,0-18.38,1.551-18.38,3.462c0,5.33,0,14.918,0,14.918h36.76C-2087.563-2187.433-2087.563-2197.021-2087.563-2202.351z"
					/>
			</g>
			<g transform="matrix(0.156766,0,0,0.831757,2145.43,1175.97)">
				<path style="fill:#F79712;" d="M-2051.046-2202.351c0-0.919-1.936-1.795-5.385-2.445c-3.444-0.649-8.118-1.017-12.995-1.017l0,0
					c-10.152,0-18.38,1.551-18.38,3.462c0,5.33,0,14.918,0,14.918h36.76C-2051.046-2187.433-2051.046-2197.021-2051.046-2202.351z"
					/>
			</g>
			<g transform="matrix(0.581844,0.335928,-0.335928,0.581844,1409.04,2820.22)">
				<path style="fill:#F79712;" d="M-2027.555-4775.93c0-2.708-2.193-4.901-4.901-4.902c-2.941,0-6.127,0-6.127,0l0,4.901H-2027.555
					L-2027.555-4775.93z"/>
			</g>
			<g transform="matrix(-0.581844,0.335928,0.335928,0.581844,3432.88,2820.22)">
				<path style="fill:#F79712;" d="M-492.672-5662.095c0-2.708-2.193-4.901-4.901-4.902c-2.941,0-6.127,0-6.127,0l0,4.902H-492.672
					L-492.672-5662.095z"/>
			</g>
			<g transform="matrix(0.755837,0,0,0.755837,2180.87,3477.21)">
				<circle style="fill:#071C1C;" cx="-477.191" cy="-5500.239" r="4.901"/>
			</g>
			<g transform="matrix(0.755837,0,0,0.755837,2198.34,3477.21)">
				<circle style="fill:#071C1C;" cx="-486.144" cy="-5500.239" r="4.901"/>
			</g>
			<g transform="matrix(0.671855,0,0,0.671855,192.949,3693.88)">
				<rect x="2424.471" y="-6514.56" style="fill:#071C1C;" width="11.028" height="3.676"/>
			</g>
		</g>
	</g>
	<g>
		<g>
			<path style="fill:#1BAF10;" d="M409.21,81.855c-0.87,0-1.575-0.706-1.575-1.579v-4.944c0-0.873,0.705-1.579,1.575-1.579
				c0.87,0,1.575,0.706,1.575,1.579v4.944C410.785,81.149,410.08,81.855,409.21,81.855z"/>
		</g>
		<g>
			<path style="fill:#1BAF10;" d="M415.787,81.855c-0.87,0-1.575-0.706-1.575-1.579v-3.295c0-0.873,0.705-1.579,1.575-1.579
				c0.87,0,1.575,0.706,1.575,1.579v3.295C417.362,81.149,416.657,81.855,415.787,81.855z"/>
		</g>
		<g>
			<path style="fill:#1BAF10;" d="M403.18,81.855c-0.87,0-1.575-0.706-1.575-1.579v-3.295c0-0.873,0.705-1.579,1.575-1.579
				c0.87,0,1.575,0.706,1.575,1.579v3.295C404.756,81.149,404.05,81.855,403.18,81.855z"/>
		</g>
		<g>
			<path style="fill:#1BAF10;" d="M426.955,94.903c-0.87,0-1.575-0.706-1.575-1.579V88.38c0-0.873,0.705-1.579,1.575-1.579
				c0.87,0,1.575,0.706,1.575,1.579v4.944C428.531,94.197,427.825,94.903,426.955,94.903z"/>
		</g>
		<g>
			<path style="fill:#1BAF10;" d="M433.532,94.903c-0.87,0-1.575-0.706-1.575-1.579v-3.297c0-0.873,0.705-1.579,1.575-1.579
				c0.87,0,1.575,0.706,1.575,1.579v3.297C435.108,94.197,434.402,94.903,433.532,94.903z"/>
		</g>
		<g>
			<path style="fill:#1BAF10;" d="M420.927,94.903c-0.87,0-1.575-0.706-1.575-1.579v-3.297c0-0.873,0.705-1.579,1.575-1.579
				c0.87,0,1.575,0.706,1.575,1.579v3.297C422.502,94.197,421.797,94.903,420.927,94.903z"/>
		</g>
		<g>
			<path style="fill:#1BAF10;" d="M433.051,67.571c-0.87,0-1.575-0.706-1.575-1.579v-4.944c0-0.873,0.705-1.579,1.575-1.579
				c0.87,0,1.575,0.706,1.575,1.579v4.944C434.627,66.865,433.921,67.571,433.051,67.571z"/>
		</g>
		<g>
			<path style="fill:#1BAF10;" d="M439.629,67.571c-0.87,0-1.575-0.706-1.575-1.579v-3.297c0-0.873,0.705-1.579,1.575-1.579
				c0.87,0,1.575,0.706,1.575,1.579v3.297C441.205,66.865,440.499,67.571,439.629,67.571z"/>
		</g>
		<g>
			<path style="fill:#1BAF10;" d="M427.023,67.571c-0.87,0-1.575-0.706-1.575-1.579v-3.297c0-0.873,0.705-1.579,1.575-1.579
				c0.87,0,1.575,0.706,1.575,1.579v3.297C428.598,66.865,427.893,67.571,427.023,67.571z"/>
		</g>
	</g>
</g>
<g id="aulas" style="display:none;">
	<g style="display:inline;">
		<rect x="368.174" y="0" style="fill-rule:evenodd;clip-rule:evenodd;fill:#FFFFFF;" width="33.652" height="145"/>
		<circle style="fill-rule:evenodd;clip-rule:evenodd;fill:#5654A2;" cx="385" cy="72.5" r="42.5"/>
	</g>
</g>
</svg>
