<?xml version="1.0" encoding="utf-8"?>
<!-- Generator: Adobe Illustrator 27.7.0, SVG Export Plug-In . SVG Version: 6.00 Build 0)  -->
<svg version="1.1" xmlns="http://www.w3.org/2000/svg" xmlns:xlink="http://www.w3.org/1999/xlink" x="0px" y="0px" width="1570px"
	 height="145px" viewBox="0 0 1570 145" style="enable-background:new 0 0 1570 145;" xml:space="preserve">
<g id="background">
	<g>
		<path style="fill:#00B365;" d="M-34.651,523.275h285.157c74.217,0,134.382,60.165,134.382,134.382v150.46
			c0,74.217,60.165,134.382,134.382,134.382h216.013c74.217,0,134.382,60.165,134.382,134.382v153.855
			c0,74.217,60.165,134.382,134.382,134.382h600.603V-1319.4H-34.651V523.275z"/>
		<g>
		</g>
	</g>
	<g>
		<path style="fill:#77D629;" d="M-110.714-1290.73h518.915v64.66c0,31.943,25.895,57.837,57.837,57.837h90.6
			c18.713,0,33.882,15.17,33.882,33.882l0,0c0,18.713,15.17,33.882,33.882,33.882h114.332c50.572,0,91.568,40.996,91.568,91.568
			v4.503c0,50.572,40.997,91.568,91.568,91.568h48.827c50.572,0,91.568,40.997,91.568,91.568v77.192
			c0,50.572-40.997,91.568-91.568,91.568h0c-50.572,0-91.568,40.997-91.568,91.568v102.725c0,52.857-42.849,95.706-95.706,95.706
			H673.855c-34.509,0-62.483,27.975-62.483,62.483v0c0,34.509-27.975,62.483-62.483,62.483h-91.002
			c-57.736,0-104.541,46.805-104.541,104.541V15.48c0,42.94-34.81,77.75-77.75,77.75h-382.523L-110.714-1290.73z"/>
		<g>
			
				<path style="fill:none;stroke:#77D629;stroke-width:10;stroke-linecap:round;stroke-linejoin:round;stroke-dasharray:0,10.0137;" d="
				M408.201-1280.717v54.646c0,31.943,25.895,57.837,57.837,57.837h90.6c18.713,0,33.882,15.17,33.882,33.882l0,0
				c0,18.713,15.17,33.882,33.882,33.882h114.332c50.572,0,91.568,40.997,91.568,91.568v4.503c0,50.572,40.997,91.568,91.568,91.568
				h48.827c50.572,0,91.568,40.997,91.568,91.568v77.192c0,50.572-40.997,91.568-91.568,91.568h0
				c-50.572,0-91.568,40.997-91.568,91.568v102.725c0,52.857-42.849,95.706-95.706,95.706H673.855
				c-34.509,0-62.483,27.975-62.483,62.483v0c0,34.509-27.975,62.483-62.483,62.483h-91.002
				c-57.736,0-104.541,46.805-104.541,104.541V15.48c0,42.94-34.81,77.75-77.75,77.75h-377.516"/>
		</g>
	</g>
	<g>
		<path style="fill:#FFED8B;" d="M1897.828,848.232h-519.839c-18.713,0-33.882-15.17-33.882-33.882v0
			c0-18.713-15.17-33.882-33.882-33.882h-114.332c-50.572,0-91.568-40.997-91.568-91.568v-4.503
			c0-50.572-40.997-91.568-91.568-91.568H963.93c-50.572,0-91.568-40.997-91.568-91.568v-77.192
			c0-50.572,40.997-91.568,91.568-91.568h0c50.572,0,91.568-40.997,91.568-91.568V138.205c0-52.857,42.849-95.706,95.706-95.706
			h109.568c34.509,0,62.483-27.975,62.483-62.483v0c0-34.509,27.975-62.483,62.484-62.483h91.002
			c57.736,0,104.541-46.805,104.541-104.541v-148.473c0-42.94,34.81-77.75,77.75-77.75h235.009
			C1894.042-413.232,2035.576,848.232,1897.828,848.232z"/>
		<g>
			
				<path style="fill:none;stroke:#00B365;stroke-width:10;stroke-linecap:round;stroke-linejoin:round;stroke-dasharray:0,10.0064;" d="
				M1895.138-403.29c12.911,118.246,133.251,1251.522,2.69,1251.522h-519.839c-18.713,0-33.882-15.169-33.882-33.882v0
				c0-18.713-15.17-33.882-33.882-33.882h-114.332c-50.572,0-91.568-40.997-91.568-91.568v-4.503
				c0-50.572-40.997-91.568-91.568-91.568H963.93c-50.572,0-91.568-40.997-91.568-91.568v-77.192
				c0-50.572,40.997-91.568,91.568-91.568h0c50.572,0,91.568-40.997,91.568-91.568V138.205c0-52.857,42.849-95.706,95.706-95.706
				h109.568c34.509,0,62.483-27.975,62.483-62.484v0c0-34.509,27.975-62.483,62.484-62.483h91.002
				c57.736,0,104.541-46.805,104.541-104.541v-148.472c0-42.94,34.81-77.75,77.75-77.75h230.006"/>
		</g>
	</g>
	<g>
		<path style="fill:#4EEAE6;" d="M1915.594,184.858c-15.164-246.81-40.041-489.163-48.47-568.09h-208.091
			c-26.372,0-47.75,21.378-47.75,47.75v148.473c0,74.305-60.236,134.541-134.541,134.541h-91.003
			c-17.878,0-32.514,14.446-32.484,32.324c0.087,51.069-41.435,92.643-92.483,92.643h-109.568
			c-36.288,0-65.706,29.418-65.706,65.706V241.67c0,67.075-54.876,120.422-121.949,120.83
			c-33.775,0.206-61.187,27.745-61.187,61.567v77.192c0,34.003,27.565,61.568,61.568,61.568h48.826
			c67.14,0,121.568,54.428,121.568,121.568v4.502c0,19.435,9.056,36.788,23.168,48.075c7.282,5.825,4.079,17.475-5.181,18.58
			c-1.948,0.232-3.996,0.352-6.147,0.352h-82.922c-28.365,0-51.443,23.078-51.443,51.443h0.197v103.748h28.883V804.557h-0.006
			c1.382-11.125,10.876-19.769,22.369-19.769h82.922c19.539,0,37.086-8.326,49.027-21.699c7.064-7.911,17.028-12.623,27.635-12.623
			h87.399c35.206,0,63.852,28.628,63.882,63.828c0.002,2.165,1.716,3.937,3.881,3.937h516.852
			c2.993-3.573,11.771-17.096,19.334-58.92c6.629-36.658,10.939-86.93,12.813-149.417
			C1930.191,503.057,1926.357,360.054,1915.594,184.858z"/>
	</g>
	<path style="fill:#04D5D8;" d="M1400.411,788.231c-11.341-39.102-47.479-67.765-90.187-67.765h-114.332
		c-17.407,0-31.568-14.161-31.568-31.568v-4.502c0-83.575-67.993-151.568-151.568-151.568H963.93
		c-17.407,0-31.568-14.161-31.568-31.568v-77.192c0-17.407,14.161-31.568,31.568-31.568c83.575,0,151.568-67.993,151.568-151.568
		V138.205c0-19.688,16.018-35.706,35.706-35.706h109.568c67.537,0,122.483-54.945,122.483-122.483c0-1.346,1.138-2.483,2.483-2.483
		h91.003c90.729,0,164.541-73.812,164.541-164.541v-148.473c0-9.787,7.963-17.75,17.75-17.75h181.086
		c9.769,93.812,31.798,316.412,45.531,539.93c10.708,174.295,14.527,316.376,11.351,422.297
		c-1.83,61.007-5.984,109.785-12.349,144.978c-2.944,16.286-5.968,27.207-8.379,34.259H1400.411z"/>
</g>
<g id="aulas" style="display:none;">
	<g style="display:inline;">
		<rect x="368.174" style="fill-rule:evenodd;clip-rule:evenodd;fill:#FFFFFF;" width="33.652" height="145"/>
		<circle style="fill-rule:evenodd;clip-rule:evenodd;fill:#5654A2;" cx="385" cy="72.5" r="42.5"/>
	</g>
</g>
<g id="Details">
	<g>
		<g>
			<path style="fill-rule:evenodd;clip-rule:evenodd;fill:#DE4A66;stroke:#DE4A66;stroke-width:0.3122;stroke-miterlimit:10;" d="
				M962.647,82.691c0-0.761-0.301-1.489-0.836-2.026c-0.537-0.539-1.263-0.841-2.021-0.841s-1.484,0.302-2.021,0.841
				c-0.535,0.537-0.836,1.265-0.836,2.026c0,0.604,0,1.257,0,1.911c0,2.639,2.132,4.777,4.763,4.777c0.57,0,0.953,0,0.953,0
				S962.647,85.506,962.647,82.691z"/>
			<path style="fill-rule:evenodd;clip-rule:evenodd;fill:#DE4A66;stroke:#DE4A66;stroke-width:0.3122;stroke-miterlimit:10;" d="
				M974.077,78.869c0-0.761-0.301-1.489-0.836-2.026c-0.537-0.539-1.263-0.841-2.021-0.841s-1.484,0.302-2.021,0.841
				c-0.535,0.537-0.836,1.265-0.836,2.026c0,3.931,0,10.51,0,10.51h5.715C974.077,89.379,974.077,82.8,974.077,78.869z"/>
			<path style="fill-rule:evenodd;clip-rule:evenodd;fill:#DE4A66;stroke:#DE4A66;stroke-width:0.3122;stroke-miterlimit:10;" d="
				M968.362,78.869c0-0.761-0.301-1.489-0.836-2.026c-0.537-0.539-1.263-0.841-2.021-0.841c-0.758,0-1.484,0.302-2.021,0.841
				c-0.535,0.537-0.836,1.265-0.836,2.026c0,3.931,0,10.51,0,10.51h5.715C968.362,89.379,968.362,82.8,968.362,78.869z"/>
			<path style="fill-rule:evenodd;clip-rule:evenodd;fill:#DE4A66;stroke:#DE4A66;stroke-width:0.3122;stroke-miterlimit:10;" d="
				M979.793,82.691c0-0.761-0.301-1.489-0.836-2.026c-0.537-0.539-1.263-0.841-2.021-0.841s-1.484,0.302-2.021,0.841
				c-0.535,0.537-0.836,1.265-0.836,2.026c0,2.815,0,6.688,0,6.688s0.383,0,0.953,0c2.631,0,4.763-2.138,4.763-4.777
				C979.793,83.948,979.793,83.295,979.793,82.691z"/>
		</g>
		<g>
			<path style="fill-rule:evenodd;clip-rule:evenodd;fill:#F7C800;" d="M956.931,62.309c0-0.761-0.301-1.489-0.836-2.026
				c-0.537-0.539-1.263-0.841-2.021-0.841s-1.484,0.302-2.021,0.841c-0.535,0.537-0.836,1.265-0.836,2.026c0,0.604,0,1.257,0,1.911
				c0,2.639,2.132,4.777,4.763,4.777c0.57,0,0.953,0,0.953,0S956.931,65.124,956.931,62.309z"/>
			<path style="fill-rule:evenodd;clip-rule:evenodd;fill:#F7C800;" d="M968.362,58.487c0-0.761-0.301-1.489-0.836-2.026
				c-0.537-0.539-1.263-0.841-2.021-0.841c-0.758,0-1.484,0.302-2.021,0.841c-0.535,0.537-0.836,1.265-0.836,2.026
				c0,3.931,0,10.51,0,10.51h5.715C968.362,68.997,968.362,62.418,968.362,58.487z"/>
			<path style="fill-rule:evenodd;clip-rule:evenodd;fill:#F7C800;" d="M962.647,58.487c0-0.761-0.301-1.489-0.836-2.026
				c-0.537-0.539-1.263-0.841-2.021-0.841s-1.484,0.302-2.021,0.841c-0.535,0.537-0.836,1.265-0.836,2.026c0,3.931,0,10.51,0,10.51
				h5.715C962.647,68.997,962.647,62.418,962.647,58.487z"/>
			<path style="fill-rule:evenodd;clip-rule:evenodd;fill:#F7C800;" d="M974.077,62.309c0-0.761-0.301-1.489-0.836-2.026
				c-0.537-0.539-1.263-0.841-2.021-0.841s-1.484,0.302-2.021,0.841c-0.535,0.537-0.836,1.265-0.836,2.026c0,2.815,0,6.688,0,6.688
				s0.383,0,0.953,0c2.631,0,4.763-2.138,4.763-4.777C974.077,63.566,974.077,62.913,974.077,62.309z"/>
		</g>
	</g>
	<g>
		<g>
			<path style="fill-rule:evenodd;clip-rule:evenodd;fill:#374315;" d="M912.618,8.368h-7.21c0,0,0,13.291,0,19.876
				c0,1.994,1.613,3.61,3.602,3.61c0.002,0,0.004,0,0.007,0c1.989,0,3.602-1.616,3.602-3.61
				C912.618,21.659,912.618,8.368,912.618,8.368z"/>
			<path style="fill-rule:evenodd;clip-rule:evenodd;fill:#8FC300;" d="M927.004,7.263c-0.536-0.84-1.651-1.085-2.489-0.546
				c-0.837,0.538-1.082,1.657-0.546,2.497l3.858,6.042c0.536,0.84,1.651,1.085,2.489,0.546c0.837-0.538,1.082-1.658,0.546-2.497
				L927.004,7.263z"/>
			<path style="fill-rule:evenodd;clip-rule:evenodd;fill:#8FC300;" d="M913.596-13.885c-1.105-1.743-3.023-2.799-5.084-2.799
				c-2.061,0-3.979,1.056-5.084,2.799c-6.021,9.496-15.245,24.043-15.245,24.043c0,8.257,9.109,14.961,20.328,14.961
				c11.219,0,20.328-6.704,20.328-14.961C928.841,10.157,919.618-4.389,913.596-13.885z"/>
			<g>
				<defs>
					<path id="SVGID_00000028296536726396074900000006160547490566729383_" d="M913.596-13.885
						c-1.105-1.743-3.023-2.799-5.084-2.799c-2.061,0-3.979,1.056-5.084,2.799c-6.021,9.496-15.245,24.043-15.245,24.043
						c0,8.257,9.109,14.961,20.328,14.961c11.219,0,20.328-6.704,20.328-14.961C928.841,10.157,919.618-4.389,913.596-13.885z"/>
				</defs>
				<clipPath id="SVGID_00000070112140171141083080000012222284491023690684_">
					<use xlink:href="#SVGID_00000028296536726396074900000006160547490566729383_"  style="overflow:visible;"/>
				</clipPath>
				
					<path style="clip-path:url(#SVGID_00000070112140171141083080000012222284491023690684_);fill-rule:evenodd;clip-rule:evenodd;fill:#5AAA00;" d="
					M912.698-27.339c-1.144-1.384-2.844-2.185-4.637-2.185c-1.793,0-3.493,0.8-4.638,2.184c-5.998,7.261-15.69,20.016-15.69,26.658
					c0,8.257,9.109,14.961,20.328,14.961c11.219,0,20.328-6.704,20.328-14.961C928.389-7.324,918.697-20.079,912.698-27.339z"/>
			</g>
			<path style="fill-rule:evenodd;clip-rule:evenodd;fill:#8FC300;" d="M901.548,21.672c0.106-0.991,0.996-1.71,1.985-1.603
				c0.989,0.107,1.706,0.998,1.599,1.99l-0.331,3.084c-0.106,0.991-0.996,1.71-1.985,1.603c-0.989-0.107-1.706-0.998-1.599-1.99
				L901.548,21.672z"/>
			<path style="fill-rule:evenodd;clip-rule:evenodd;fill:#8FC300;" d="M889.318,8.375c0.537-0.839,1.653-1.084,2.491-0.545
				c0.837,0.538,1.081,1.657,0.544,2.496l-3.22,5.03c-0.537,0.839-1.653,1.083-2.49,0.545c-0.837-0.538-1.081-1.657-0.544-2.496
				L889.318,8.375z"/>
			<path style="fill-rule:evenodd;clip-rule:evenodd;fill:#5AAA00;" d="M909.864,14.279c0-0.997-0.808-1.807-1.803-1.807
				c-0.995,0-1.803,0.81-1.803,1.807v1.807c0,0.997,0.808,1.807,1.803,1.807c0.995,0,1.803-0.81,1.803-1.807V14.279z"/>
			<path style="fill-rule:evenodd;clip-rule:evenodd;fill:#5AAA00;" d="M916.098,17.677c-0.122-0.99-1.023-1.693-2.01-1.571
				c-0.987,0.123-1.689,1.026-1.567,2.015l0.222,1.793c0.122,0.99,1.023,1.693,2.01,1.571c0.987-0.123,1.69-1.026,1.567-2.015
				L916.098,17.677z"/>
			<path style="fill-rule:evenodd;clip-rule:evenodd;fill:#5AAA00;" d="M900.151,17.677c0.122-0.99,1.023-1.693,2.011-1.571
				c0.987,0.123,1.689,1.026,1.567,2.015l-0.222,1.793c-0.122,0.99-1.023,1.693-2.01,1.571c-0.987-0.123-1.69-1.026-1.567-2.015
				L900.151,17.677z"/>
			<path style="fill-rule:evenodd;clip-rule:evenodd;fill:#5AAA00;" d="M920.815,10.502c-0.299-0.951-1.312-1.48-2.261-1.18
				c-0.949,0.3-1.476,1.315-1.177,2.266l0.759,2.414c0.299,0.951,1.312,1.48,2.261,1.18c0.949-0.3,1.477-1.315,1.177-2.266
				L920.815,10.502z"/>
			<path style="fill-rule:evenodd;clip-rule:evenodd;fill:#5AAA00;" d="M896.478,11.321c0.299-0.951,1.312-1.48,2.261-1.18
				c0.949,0.3,1.477,1.315,1.177,2.266l-0.759,2.414c-0.299,0.951-1.312,1.48-2.261,1.18c-0.949-0.3-1.476-1.315-1.177-2.266
				L896.478,11.321z"/>
			<path style="fill-rule:evenodd;clip-rule:evenodd;fill:#5AAA00;" d="M925.266,7.1c-0.497-0.864-1.601-1.16-2.462-0.661
				c-0.862,0.498-1.157,1.604-0.66,2.468l1.631,2.831c0.498,0.864,1.601,1.16,2.462,0.661c0.862-0.499,1.157-1.605,0.66-2.468
				L925.266,7.1z"/>
			<path style="fill-rule:evenodd;clip-rule:evenodd;fill:#5AAA00;" d="M892.044,7.003c0.497-0.864,1.601-1.16,2.462-0.661
				c0.862,0.498,1.157,1.604,0.66,2.468l-1.631,2.831c-0.498,0.864-1.601,1.16-2.462,0.661c-0.862-0.499-1.157-1.605-0.66-2.468
				L892.044,7.003z"/>
			<path style="fill-rule:evenodd;clip-rule:evenodd;fill:#A2D500;" d="M913.121-20.348c-1.109-1.722-3.015-2.762-5.06-2.762
				c-2.045,0-3.951,1.04-5.06,2.762c-5.034,7.814-12.014,18.647-12.014,18.647c0,6.825,7.651,12.367,17.074,12.367
				c9.423,0,17.074-5.541,17.074-12.367C925.135-1.701,918.155-12.534,913.121-20.348z"/>
			<g>
				<defs>
					<path id="SVGID_00000167394896778689856760000005097236147172788616_" d="M913.121-20.348c-1.109-1.722-3.015-2.762-5.06-2.762
						c-2.045,0-3.951,1.04-5.06,2.762c-5.034,7.814-12.014,18.647-12.014,18.647c0,6.825,7.651,12.367,17.074,12.367
						c9.423,0,17.074-5.541,17.074-12.367C925.135-1.701,918.155-12.534,913.121-20.348z"/>
				</defs>
				<clipPath id="SVGID_00000068647356060505181000000002266580069272863618_">
					<use xlink:href="#SVGID_00000167394896778689856760000005097236147172788616_"  style="overflow:visible;"/>
				</clipPath>
				
					<path style="clip-path:url(#SVGID_00000068647356060505181000000002266580069272863618_);fill-rule:evenodd;clip-rule:evenodd;fill:#8FC300;" d="
					M898.857-3.425c0.497-0.864,0.202-1.969-0.66-2.468c-0.862-0.498-1.965-0.202-2.462,0.661l-1.803,3.129
					c-0.497,0.864-0.202,1.969,0.66,2.468c0.862,0.498,1.965,0.202,2.462-0.661L898.857-3.425z"/>
				
					<path style="clip-path:url(#SVGID_00000068647356060505181000000002266580069272863618_);fill-rule:evenodd;clip-rule:evenodd;fill:#8FC300;" d="
					M903.133,3.176c0.325-0.942-0.174-1.972-1.114-2.298s-1.968,0.174-2.293,1.116l-0.59,1.707C898.811,4.644,899.31,5.674,900.25,6
					c0.94,0.326,1.968-0.174,2.293-1.116L903.133,3.176z"/>
				
					<path style="clip-path:url(#SVGID_00000068647356060505181000000002266580069272863618_);fill-rule:evenodd;clip-rule:evenodd;fill:#8FC300;" d="
					M910.815,1.632c0-0.997-0.808-1.807-1.803-1.807c-0.995,0-1.803,0.81-1.803,1.807v1.807c0,0.997,0.808,1.807,1.803,1.807
					c0.995,0,1.803-0.81,1.803-1.807V1.632z"/>
				
					<path style="clip-path:url(#SVGID_00000068647356060505181000000002266580069272863618_);fill-rule:evenodd;clip-rule:evenodd;fill:#8FC300;" d="
					M917.903,1.931c-0.36-0.929-1.406-1.391-2.333-1.029c-0.927,0.361-1.387,1.409-1.027,2.338l0.653,1.684
					c0.36,0.929,1.406,1.391,2.333,1.029c0.927-0.361,1.387-1.409,1.027-2.339L917.903,1.931z"/>
			</g>
			<path style="fill-rule:evenodd;clip-rule:evenodd;fill:#A6D320;" d="M889.547-1.27c0.537-0.839,1.653-1.083,2.491-0.545
				c0.837,0.538,1.081,1.657,0.544,2.496l-0.077,0.12c-0.537,0.839-1.653,1.084-2.491,0.545c-0.837-0.538-1.081-1.657-0.544-2.496
				L889.547-1.27z"/>
			<path style="fill-rule:evenodd;clip-rule:evenodd;fill:#A2D500;" d="M926.931-1.27c-0.537-0.839-1.653-1.083-2.491-0.545
				c-0.837,0.538-1.081,1.657-0.544,2.496l0.077,0.12c0.537,0.839,1.653,1.084,2.491,0.545c0.837-0.538,1.081-1.657,0.544-2.496
				L926.931-1.27z"/>
			<path style="fill-rule:evenodd;clip-rule:evenodd;fill:#A2D500;" d="M895.418,6.66c0.537-0.839,1.653-1.084,2.491-0.545
				c0.837,0.538,1.081,1.657,0.544,2.496l-0.077,0.12c-0.537,0.839-1.653,1.083-2.491,0.545c-0.837-0.538-1.081-1.657-0.544-2.496
				L895.418,6.66z"/>
			<path style="fill-rule:evenodd;clip-rule:evenodd;fill:#A2D500;" d="M921.061,6.66c-0.537-0.839-1.653-1.084-2.491-0.545
				c-0.837,0.538-1.081,1.657-0.544,2.496l0.077,0.12c0.537,0.839,1.653,1.083,2.491,0.545c0.837-0.538,1.081-1.657,0.544-2.496
				L921.061,6.66z"/>
			<path style="fill-rule:evenodd;clip-rule:evenodd;fill:#8FC300;" d="M925.635,15.763c-0.561-0.824-1.684-1.036-2.505-0.473
				c-0.821,0.562-1.033,1.687-0.472,2.511l1.42,2.085c0.561,0.823,1.683,1.036,2.505,0.473c0.822-0.562,1.033-1.687,0.472-2.511
				L925.635,15.763z"/>
			<path style="fill-rule:evenodd;clip-rule:evenodd;fill:#A2D500;" d="M899.429,9.065c0.293-0.953,1.303-1.488,2.254-1.194
				c0.951,0.294,1.484,1.306,1.191,2.259l-0.042,0.137c-0.293,0.953-1.303,1.488-2.254,1.194c-0.951-0.294-1.484-1.306-1.191-2.259
				L899.429,9.065z"/>
			<path style="fill-rule:evenodd;clip-rule:evenodd;fill:#A2D500;" d="M917.049,9.065c-0.293-0.953-1.303-1.488-2.254-1.194
				c-0.951,0.294-1.484,1.306-1.191,2.259l0.042,0.137c0.293,0.953,1.303,1.488,2.254,1.194c0.951-0.294,1.484-1.306,1.191-2.259
				L917.049,9.065z"/>
			<path style="fill-rule:evenodd;clip-rule:evenodd;fill:#8FC300;" d="M920.654,21.832c-0.293-0.953-1.303-1.488-2.254-1.194
				c-0.951,0.294-1.484,1.306-1.191,2.259l0.042,0.137c0.293,0.953,1.303,1.488,2.254,1.194c0.951-0.294,1.484-1.306,1.191-2.259
				L920.654,21.832z"/>
			<path style="fill-rule:evenodd;clip-rule:evenodd;fill:#8FC300;" d="M895.703,20.111c0.293-0.953,1.303-1.488,2.254-1.194
				c0.951,0.294,1.484,1.306,1.191,2.259l-0.717,2.33c-0.293,0.953-1.303,1.488-2.254,1.194c-0.951-0.294-1.484-1.306-1.191-2.259
				L895.703,20.111z"/>
			<path style="fill-rule:evenodd;clip-rule:evenodd;fill:#A2D500;" d="M904.126,10.797c0.106-0.991,0.996-1.71,1.985-1.603
				c0.989,0.107,1.706,0.998,1.599,1.99l-0.015,0.142c-0.106,0.991-0.996,1.71-1.985,1.603c-0.989-0.107-1.706-0.998-1.599-1.99
				L904.126,10.797z"/>
			<path style="fill-rule:evenodd;clip-rule:evenodd;fill:#A2D500;" d="M912.352,10.797c-0.106-0.991-0.996-1.71-1.985-1.603
				c-0.989,0.107-1.706,0.998-1.599,1.99l0.015,0.142c0.106,0.991,0.996,1.71,1.985,1.603c0.989-0.107,1.706-0.998,1.599-1.99
				L912.352,10.797z"/>
			<path style="fill-rule:evenodd;clip-rule:evenodd;fill:#8FC300;" d="M915.958,23.564c-0.106-0.991-0.996-1.71-1.985-1.603
				c-0.989,0.107-1.706,0.998-1.599,1.99l0.015,0.142c0.106,0.991,0.996,1.71,1.985,1.603c0.989-0.107,1.706-0.998,1.599-1.99
				L915.958,23.564z"/>
			<path style="fill-rule:evenodd;clip-rule:evenodd;fill:#A2D500;" d="M891.711,3.32c0.537-0.839,1.653-1.084,2.491-0.545
				c0.837,0.538,1.081,1.657,0.544,2.496l-0.077,0.12c-0.537,0.839-1.653,1.084-2.491,0.545c-0.837-0.538-1.081-1.657-0.544-2.496
				L891.711,3.32z"/>
			<path style="fill-rule:evenodd;clip-rule:evenodd;fill:#A2D500;" d="M924.768,3.32c-0.537-0.839-1.653-1.084-2.49-0.545
				c-0.837,0.538-1.081,1.657-0.544,2.496l0.077,0.12c0.537,0.839,1.653,1.084,2.491,0.545c0.837-0.538,1.081-1.657,0.544-2.496
				L924.768,3.32z"/>
			<path style="fill-rule:evenodd;clip-rule:evenodd;fill:#8FC300;" d="M891.966,15.732c0.537-0.839,1.653-1.083,2.491-0.545
				c0.837,0.538,1.081,1.657,0.544,2.496l-2.149,3.358c-0.537,0.839-1.653,1.083-2.491,0.545c-0.837-0.538-1.081-1.657-0.544-2.496
				L891.966,15.732z"/>
			<path style="opacity:0.3;fill-rule:evenodd;clip-rule:evenodd;fill:#548E00;" d="M930.862,13.305l-3.651-5.718
				c-0.585-0.922-1.3-2.05-2.111-3.329c-0.024-0.283-0.092-0.563-0.256-0.819l-0.077-0.12c-0.161-0.251-0.382-0.429-0.623-0.569
				c-0.032-0.05-0.062-0.099-0.095-0.149c0.207-0.403,0.385-0.815,0.534-1.237c0.567,0.334,1.289,0.362,1.881-0.018
				c0.837-0.539,1.081-1.657,0.544-2.496l-0.077-0.12c-0.437-0.683-1.252-0.945-1.994-0.739c-0.572-0.887-2.428-3.768-4.729-7.34
				c0-0.225-0.037-0.454-0.127-0.675l-0.054-0.132c-0.021-0.052-0.064-0.087-0.09-0.136c0.369-0.459,0.677-0.944,0.931-1.448
				c0.452,0.1,0.941,0.027,1.361-0.243c0.837-0.539,1.081-1.657,0.544-2.496l-0.077-0.12c-0.332-0.518-0.886-0.776-1.457-0.797
				c-1.44-2.167-6.649-10.006-9.944-14.965c-0.62-0.933-1.665-1.494-2.784-1.494c-1.119,0-2.163,0.561-2.784,1.494
				c-3.3,4.966-8.521,12.824-9.951,14.976c-0.674-0.093-1.373,0.192-1.764,0.804l-0.077,0.12c-0.537,0.839-0.293,1.958,0.544,2.496
				c0.507,0.326,1.105,0.335,1.626,0.128c0.192,0.394,0.408,0.78,0.671,1.148c-2.629,4.08-4.856,7.537-5.552,8.617
				c-0.647-0.058-1.304,0.216-1.679,0.802l-0.077,0.12c-0.537,0.839-0.293,1.958,0.544,2.496c0.489,0.315,1.064,0.334,1.572,0.151
				c0.168,0.454,0.365,0.898,0.601,1.33c-0.183,0.13-0.348,0.292-0.476,0.493l-0.077,0.12c-0.306,0.479-0.333,1.039-0.166,1.54
				c-1.048,1.653-1.909,3.01-2.486,3.921l-2.883,4.504c-0.537,0.839-0.293,1.958,0.544,2.496c0.837,0.538,1.953,0.294,2.49-0.545
				l0.192-0.3c0.404,0.856,0.903,1.678,1.502,2.456l-1.009,1.577c-0.537,0.839-0.294,1.958,0.544,2.496
				c0.837,0.539,1.953,0.294,2.491-0.545l0.57-0.89c0.582,0.475,1.197,0.926,1.856,1.343l-0.291,0.946
				c-0.293,0.953,0.241,1.965,1.191,2.259c0.951,0.294,1.96-0.241,2.254-1.194l0.1-0.326c0.878,0.366,1.8,0.678,2.753,0.946
				l-0.068,0.63c-0.106,0.991,0.61,1.883,1.599,1.99c0.989,0.107,1.879-0.612,1.985-1.603l0.03-0.282
				c1.196,0.161,2.423,0.258,3.682,0.258c1.41,0,2.786-0.107,4.115-0.308c0.348,0.594,1.018,0.963,1.745,0.885
				c0.868-0.094,1.526-0.792,1.602-1.632c0.527-0.154,1.039-0.325,1.544-0.51c0.44,0.61,1.229,0.908,1.987,0.674
				c0.908-0.281,1.427-1.217,1.217-2.131c1.212-0.672,2.325-1.434,3.304-2.286l0.052,0.076c0.561,0.823,1.683,1.036,2.505,0.473
				c0.822-0.562,1.033-1.687,0.472-2.511l-0.529-0.777c0.458-0.644,0.846-1.319,1.174-2.014l0.127,0.199
				c0.536,0.84,1.651,1.085,2.489,0.546C931.154,15.264,931.398,14.145,930.862,13.305z"/>
		</g>
		<g>
			<path style="fill-rule:evenodd;clip-rule:evenodd;fill:#374315;" d="M870.451,8.368h-7.21c0,0,0,13.291,0,19.876
				c0,1.994,1.613,3.61,3.602,3.61c0.002,0,0.005,0,0.007,0c1.989,0,3.602-1.616,3.602-3.61
				C870.451,21.659,870.451,8.368,870.451,8.368z"/>
			<path style="fill-rule:evenodd;clip-rule:evenodd;fill:#8FC300;" d="M884.838,7.263c-0.536-0.84-1.651-1.085-2.489-0.546
				c-0.837,0.538-1.082,1.657-0.546,2.497l3.858,6.042c0.536,0.84,1.651,1.085,2.489,0.546c0.837-0.538,1.082-1.658,0.546-2.497
				L884.838,7.263z"/>
			<path style="fill-rule:evenodd;clip-rule:evenodd;fill:#8FC300;" d="M871.43-13.885c-1.105-1.743-3.023-2.799-5.084-2.799
				s-3.979,1.056-5.084,2.799c-6.021,9.496-15.244,24.043-15.244,24.043c0,8.257,9.109,14.961,20.328,14.961
				c11.219,0,20.328-6.704,20.328-14.961C886.674,10.157,877.451-4.389,871.43-13.885z"/>
			<g>
				<defs>
					<path id="SVGID_00000022525258350413415560000002015302236394722190_" d="M871.43-13.885c-1.105-1.743-3.023-2.799-5.084-2.799
						s-3.979,1.056-5.084,2.799c-6.021,9.496-15.244,24.043-15.244,24.043c0,8.257,9.109,14.961,20.328,14.961
						c11.219,0,20.328-6.704,20.328-14.961C886.674,10.157,877.451-4.389,871.43-13.885z"/>
				</defs>
				<clipPath id="SVGID_00000155130492367855924610000012071459716692226949_">
					<use xlink:href="#SVGID_00000022525258350413415560000002015302236394722190_"  style="overflow:visible;"/>
				</clipPath>
				
					<path style="clip-path:url(#SVGID_00000155130492367855924610000012071459716692226949_);fill-rule:evenodd;clip-rule:evenodd;fill:#5AAA00;" d="
					M870.531-27.339c-1.144-1.384-2.844-2.185-4.637-2.185c-1.793,0-3.493,0.8-4.638,2.184c-5.998,7.261-15.69,20.016-15.69,26.658
					c0,8.257,9.109,14.961,20.328,14.961s20.328-6.704,20.328-14.961C886.223-7.324,876.531-20.079,870.531-27.339z"/>
			</g>
			<path style="fill-rule:evenodd;clip-rule:evenodd;fill:#8FC300;" d="M859.381,21.672c0.106-0.991,0.996-1.71,1.985-1.603
				c0.989,0.107,1.706,0.998,1.599,1.99l-0.331,3.084c-0.106,0.991-0.996,1.71-1.985,1.603c-0.989-0.107-1.706-0.998-1.599-1.99
				L859.381,21.672z"/>
			<path style="fill-rule:evenodd;clip-rule:evenodd;fill:#8FC300;" d="M847.151,8.375c0.537-0.839,1.653-1.084,2.491-0.545
				c0.837,0.538,1.081,1.657,0.544,2.496l-3.22,5.03c-0.537,0.839-1.653,1.083-2.49,0.545c-0.837-0.538-1.081-1.657-0.544-2.496
				L847.151,8.375z"/>
			<path style="fill-rule:evenodd;clip-rule:evenodd;fill:#5AAA00;" d="M867.697,14.279c0-0.997-0.808-1.807-1.803-1.807
				c-0.995,0-1.803,0.81-1.803,1.807v1.807c0,0.997,0.808,1.807,1.803,1.807c0.995,0,1.803-0.81,1.803-1.807V14.279z"/>
			<path style="fill-rule:evenodd;clip-rule:evenodd;fill:#5AAA00;" d="M873.932,17.677c-0.122-0.99-1.023-1.693-2.011-1.571
				c-0.987,0.123-1.689,1.026-1.567,2.015l0.222,1.793c0.122,0.99,1.023,1.693,2.01,1.571c0.987-0.123,1.69-1.026,1.567-2.015
				L873.932,17.677z"/>
			<path style="fill-rule:evenodd;clip-rule:evenodd;fill:#5AAA00;" d="M857.985,17.677c0.122-0.99,1.023-1.693,2.011-1.571
				c0.987,0.123,1.689,1.026,1.567,2.015l-0.222,1.793c-0.122,0.99-1.023,1.693-2.01,1.571c-0.987-0.123-1.69-1.026-1.567-2.015
				L857.985,17.677z"/>
			<path style="fill-rule:evenodd;clip-rule:evenodd;fill:#5AAA00;" d="M878.648,10.502c-0.299-0.951-1.312-1.48-2.261-1.18
				c-0.949,0.3-1.476,1.315-1.177,2.266l0.759,2.414c0.299,0.951,1.312,1.48,2.261,1.18c0.949-0.3,1.477-1.315,1.177-2.266
				L878.648,10.502z"/>
			<path style="fill-rule:evenodd;clip-rule:evenodd;fill:#5AAA00;" d="M854.311,11.321c0.299-0.951,1.312-1.48,2.261-1.18
				c0.949,0.3,1.477,1.315,1.177,2.266l-0.759,2.414c-0.299,0.951-1.312,1.48-2.261,1.18c-0.949-0.3-1.476-1.315-1.177-2.266
				L854.311,11.321z"/>
			<path style="fill-rule:evenodd;clip-rule:evenodd;fill:#5AAA00;" d="M883.099,7.1c-0.497-0.864-1.601-1.16-2.462-0.661
				c-0.862,0.498-1.157,1.604-0.66,2.468l1.631,2.831c0.498,0.864,1.601,1.16,2.462,0.661c0.862-0.499,1.157-1.605,0.66-2.468
				L883.099,7.1z"/>
			<path style="fill-rule:evenodd;clip-rule:evenodd;fill:#5AAA00;" d="M849.878,7.003c0.497-0.864,1.601-1.16,2.462-0.661
				c0.862,0.498,1.157,1.604,0.66,2.468l-1.631,2.831c-0.497,0.864-1.601,1.16-2.462,0.661c-0.862-0.499-1.157-1.605-0.66-2.468
				L849.878,7.003z"/>
			<path style="fill-rule:evenodd;clip-rule:evenodd;fill:#A2D500;" d="M870.955-20.348c-1.109-1.722-3.015-2.762-5.06-2.762
				c-2.045,0-3.951,1.04-5.06,2.762c-5.034,7.814-12.014,18.647-12.014,18.647c0,6.825,7.651,12.367,17.074,12.367
				s17.074-5.541,17.074-12.367C882.969-1.701,875.989-12.534,870.955-20.348z"/>
			<g>
				<defs>
					<path id="SVGID_00000031175743332753846390000012270642933713213066_" d="M870.955-20.348c-1.109-1.722-3.015-2.762-5.06-2.762
						c-2.045,0-3.951,1.04-5.06,2.762c-5.034,7.814-12.014,18.647-12.014,18.647c0,6.825,7.651,12.367,17.074,12.367
						s17.074-5.541,17.074-12.367C882.969-1.701,875.989-12.534,870.955-20.348z"/>
				</defs>
				<clipPath id="SVGID_00000166646901184007065770000002567348489480374659_">
					<use xlink:href="#SVGID_00000031175743332753846390000012270642933713213066_"  style="overflow:visible;"/>
				</clipPath>
				
					<path style="clip-path:url(#SVGID_00000166646901184007065770000002567348489480374659_);fill-rule:evenodd;clip-rule:evenodd;fill:#8FC300;" d="
					M856.691-3.425c0.497-0.864,0.202-1.969-0.66-2.468c-0.862-0.498-1.965-0.202-2.462,0.661l-1.803,3.129
					c-0.497,0.864-0.202,1.969,0.66,2.468c0.862,0.498,1.965,0.202,2.462-0.661L856.691-3.425z"/>
				
					<path style="clip-path:url(#SVGID_00000166646901184007065770000002567348489480374659_);fill-rule:evenodd;clip-rule:evenodd;fill:#8FC300;" d="
					M860.966,3.176c0.325-0.942-0.174-1.972-1.114-2.298c-0.94-0.326-1.968,0.174-2.293,1.116l-0.59,1.707
					c-0.325,0.942,0.174,1.972,1.114,2.298c0.94,0.326,1.968-0.174,2.293-1.116L860.966,3.176z"/>
				
					<path style="clip-path:url(#SVGID_00000166646901184007065770000002567348489480374659_);fill-rule:evenodd;clip-rule:evenodd;fill:#8FC300;" d="
					M868.649,1.632c0-0.997-0.808-1.807-1.803-1.807c-0.995,0-1.803,0.81-1.803,1.807v1.807c0,0.997,0.808,1.807,1.803,1.807
					c0.995,0,1.803-0.81,1.803-1.807V1.632z"/>
				
					<path style="clip-path:url(#SVGID_00000166646901184007065770000002567348489480374659_);fill-rule:evenodd;clip-rule:evenodd;fill:#8FC300;" d="
					M875.737,1.931c-0.36-0.929-1.406-1.391-2.333-1.029s-1.387,1.409-1.027,2.338l0.653,1.684c0.36,0.929,1.406,1.391,2.333,1.029
					c0.927-0.361,1.387-1.409,1.027-2.339L875.737,1.931z"/>
			</g>
			<path style="fill-rule:evenodd;clip-rule:evenodd;fill:#A6D320;" d="M847.38-1.27c0.537-0.839,1.653-1.083,2.491-0.545
				c0.837,0.538,1.081,1.657,0.544,2.496l-0.077,0.12c-0.537,0.839-1.653,1.084-2.491,0.545c-0.837-0.538-1.081-1.657-0.544-2.496
				L847.38-1.27z"/>
			<path style="fill-rule:evenodd;clip-rule:evenodd;fill:#A2D500;" d="M884.765-1.27c-0.537-0.839-1.653-1.083-2.491-0.545
				c-0.837,0.538-1.081,1.657-0.544,2.496l0.077,0.12c0.537,0.839,1.653,1.084,2.491,0.545c0.837-0.538,1.081-1.657,0.544-2.496
				L884.765-1.27z"/>
			<path style="fill-rule:evenodd;clip-rule:evenodd;fill:#A2D500;" d="M853.251,6.66c0.537-0.839,1.653-1.084,2.491-0.545
				c0.837,0.538,1.081,1.657,0.544,2.496l-0.077,0.12c-0.537,0.839-1.653,1.083-2.491,0.545c-0.837-0.538-1.081-1.657-0.544-2.496
				L853.251,6.66z"/>
			<path style="fill-rule:evenodd;clip-rule:evenodd;fill:#A2D500;" d="M878.894,6.66c-0.537-0.839-1.653-1.084-2.491-0.545
				c-0.837,0.538-1.081,1.657-0.544,2.496l0.077,0.12c0.537,0.839,1.653,1.083,2.491,0.545c0.837-0.538,1.081-1.657,0.544-2.496
				L878.894,6.66z"/>
			<path style="fill-rule:evenodd;clip-rule:evenodd;fill:#8FC300;" d="M883.468,15.763c-0.561-0.824-1.684-1.036-2.505-0.473
				c-0.822,0.562-1.033,1.687-0.472,2.511l1.42,2.085c0.561,0.823,1.683,1.036,2.505,0.473c0.822-0.562,1.033-1.687,0.472-2.511
				L883.468,15.763z"/>
			<path style="fill-rule:evenodd;clip-rule:evenodd;fill:#A2D500;" d="M857.262,9.065c0.293-0.953,1.303-1.488,2.254-1.194
				c0.951,0.294,1.484,1.306,1.191,2.259l-0.042,0.137c-0.293,0.953-1.303,1.488-2.254,1.194c-0.951-0.294-1.484-1.306-1.191-2.259
				L857.262,9.065z"/>
			<path style="fill-rule:evenodd;clip-rule:evenodd;fill:#A2D500;" d="M874.883,9.065c-0.293-0.953-1.303-1.488-2.254-1.194
				c-0.951,0.294-1.484,1.306-1.191,2.259l0.042,0.137c0.293,0.953,1.303,1.488,2.254,1.194c0.951-0.294,1.484-1.306,1.191-2.259
				L874.883,9.065z"/>
			<path style="fill-rule:evenodd;clip-rule:evenodd;fill:#8FC300;" d="M878.488,21.832c-0.293-0.953-1.303-1.488-2.254-1.194
				c-0.951,0.294-1.484,1.306-1.191,2.259l0.042,0.137c0.293,0.953,1.303,1.488,2.254,1.194c0.951-0.294,1.484-1.306,1.191-2.259
				L878.488,21.832z"/>
			<path style="fill-rule:evenodd;clip-rule:evenodd;fill:#8FC300;" d="M853.536,20.111c0.293-0.953,1.303-1.488,2.254-1.194
				c0.951,0.294,1.484,1.306,1.191,2.259l-0.717,2.33c-0.293,0.953-1.303,1.488-2.254,1.194c-0.951-0.294-1.484-1.306-1.191-2.259
				L853.536,20.111z"/>
			<path style="fill-rule:evenodd;clip-rule:evenodd;fill:#A2D500;" d="M861.959,10.797c0.106-0.991,0.996-1.71,1.985-1.603
				c0.989,0.107,1.706,0.998,1.599,1.99l-0.015,0.142c-0.106,0.991-0.996,1.71-1.985,1.603c-0.989-0.107-1.706-0.998-1.599-1.99
				L861.959,10.797z"/>
			<path style="fill-rule:evenodd;clip-rule:evenodd;fill:#A2D500;" d="M870.186,10.797c-0.106-0.991-0.996-1.71-1.985-1.603
				c-0.989,0.107-1.706,0.998-1.599,1.99l0.015,0.142c0.106,0.991,0.996,1.71,1.985,1.603c0.989-0.107,1.706-0.998,1.599-1.99
				L870.186,10.797z"/>
			<path style="fill-rule:evenodd;clip-rule:evenodd;fill:#8FC300;" d="M873.791,23.564c-0.106-0.991-0.996-1.71-1.985-1.603
				c-0.989,0.107-1.706,0.998-1.599,1.99l0.015,0.142c0.106,0.991,0.996,1.71,1.985,1.603c0.989-0.107,1.706-0.998,1.599-1.99
				L873.791,23.564z"/>
			<path style="fill-rule:evenodd;clip-rule:evenodd;fill:#A2D500;" d="M849.544,3.32c0.537-0.839,1.653-1.084,2.491-0.545
				c0.837,0.538,1.081,1.657,0.544,2.496l-0.077,0.12c-0.537,0.839-1.653,1.084-2.491,0.545c-0.837-0.538-1.081-1.657-0.544-2.496
				L849.544,3.32z"/>
			<path style="fill-rule:evenodd;clip-rule:evenodd;fill:#A2D500;" d="M882.601,3.32c-0.537-0.839-1.653-1.084-2.49-0.545
				c-0.837,0.538-1.081,1.657-0.544,2.496l0.077,0.12c0.537,0.839,1.653,1.084,2.491,0.545c0.837-0.538,1.081-1.657,0.544-2.496
				L882.601,3.32z"/>
			<path style="fill-rule:evenodd;clip-rule:evenodd;fill:#8FC300;" d="M849.799,15.732c0.537-0.839,1.653-1.083,2.491-0.545
				c0.837,0.538,1.081,1.657,0.544,2.496l-2.149,3.358c-0.537,0.839-1.653,1.083-2.491,0.545c-0.837-0.538-1.081-1.657-0.544-2.496
				L849.799,15.732z"/>
			<path style="opacity:0.3;fill-rule:evenodd;clip-rule:evenodd;fill:#548E00;" d="M888.695,13.305l-3.651-5.718
				c-0.585-0.922-1.3-2.05-2.111-3.329c-0.024-0.283-0.092-0.563-0.256-0.819l-0.077-0.12c-0.161-0.251-0.382-0.429-0.623-0.569
				c-0.032-0.05-0.062-0.099-0.095-0.149c0.207-0.403,0.385-0.815,0.534-1.237c0.567,0.334,1.29,0.362,1.881-0.018
				c0.837-0.539,1.081-1.657,0.544-2.496l-0.077-0.12c-0.437-0.683-1.252-0.945-1.994-0.739c-0.572-0.887-2.428-3.768-4.729-7.34
				c0-0.225-0.037-0.454-0.127-0.675l-0.054-0.132c-0.021-0.052-0.064-0.087-0.09-0.136c0.369-0.459,0.677-0.944,0.931-1.448
				c0.452,0.1,0.941,0.027,1.361-0.243c0.837-0.539,1.081-1.657,0.544-2.496l-0.077-0.12c-0.332-0.518-0.886-0.776-1.457-0.797
				c-1.439-2.167-6.649-10.006-9.943-14.965c-0.62-0.933-1.665-1.494-2.784-1.494s-2.163,0.561-2.784,1.494
				c-3.3,4.966-8.521,12.824-9.951,14.976c-0.674-0.093-1.373,0.192-1.764,0.804l-0.077,0.12c-0.537,0.839-0.293,1.958,0.544,2.496
				c0.507,0.326,1.105,0.335,1.626,0.128c0.192,0.394,0.408,0.78,0.671,1.148c-2.629,4.08-4.856,7.537-5.552,8.617
				c-0.647-0.058-1.304,0.216-1.679,0.802l-0.077,0.12c-0.537,0.839-0.293,1.958,0.544,2.496c0.489,0.315,1.064,0.334,1.572,0.151
				c0.168,0.454,0.365,0.898,0.601,1.33c-0.183,0.13-0.348,0.292-0.476,0.493l-0.077,0.12c-0.306,0.479-0.333,1.039-0.166,1.54
				c-1.048,1.653-1.909,3.01-2.486,3.921l-2.883,4.504c-0.537,0.839-0.293,1.958,0.544,2.496c0.837,0.538,1.953,0.294,2.49-0.545
				l0.192-0.3c0.404,0.856,0.903,1.678,1.502,2.456l-1.009,1.577c-0.537,0.839-0.294,1.958,0.544,2.496
				c0.837,0.539,1.953,0.294,2.491-0.545l0.57-0.89c0.582,0.475,1.197,0.926,1.857,1.343l-0.291,0.946
				c-0.293,0.953,0.241,1.965,1.191,2.259c0.951,0.294,1.96-0.241,2.254-1.194l0.1-0.326c0.878,0.366,1.8,0.678,2.753,0.946
				l-0.068,0.63c-0.106,0.991,0.61,1.883,1.599,1.99c0.989,0.107,1.879-0.612,1.985-1.603l0.03-0.282
				c1.196,0.161,2.423,0.258,3.682,0.258c1.41,0,2.786-0.107,4.115-0.308c0.348,0.594,1.018,0.963,1.745,0.885
				c0.868-0.094,1.526-0.792,1.602-1.632c0.527-0.154,1.039-0.325,1.544-0.51c0.44,0.61,1.229,0.908,1.987,0.674
				c0.908-0.281,1.427-1.217,1.217-2.131c1.212-0.672,2.325-1.434,3.304-2.286l0.052,0.076c0.561,0.823,1.683,1.036,2.505,0.473
				c0.822-0.562,1.033-1.687,0.472-2.511l-0.529-0.777c0.458-0.644,0.846-1.319,1.174-2.014l0.127,0.199
				c0.536,0.84,1.651,1.085,2.489,0.546C888.987,15.264,889.232,14.145,888.695,13.305z"/>
		</g>
		<g>
			<path style="fill-rule:evenodd;clip-rule:evenodd;fill:#374315;" d="M891.782,9.444h-8.137c0,0,0,14.999,0,22.431
				c0,2.25,1.82,4.074,4.065,4.074c0.003,0,0.005,0,0.008,0c2.245,0,4.065-1.824,4.065-4.074
				C891.782,24.443,891.782,9.444,891.782,9.444z"/>
			<path style="fill-rule:evenodd;clip-rule:evenodd;fill:#8FC300;" d="M908.018,8.196c-0.605-0.948-1.864-1.224-2.809-0.616
				c-0.945,0.608-1.221,1.87-0.616,2.818l4.353,6.819c0.605,0.948,1.864,1.224,2.809,0.616s1.221-1.871,0.616-2.818L908.018,8.196z"
				/>
			<path style="fill-rule:evenodd;clip-rule:evenodd;fill:#8FC300;" d="M892.887-15.67c-1.247-1.967-3.411-3.159-5.737-3.159
				c-2.326,0-4.49,1.192-5.737,3.159c-6.795,10.717-17.204,27.133-17.204,27.133c0,9.319,10.28,16.884,22.941,16.884
				c12.661,0,22.941-7.566,22.941-16.884C910.091,11.463,899.682-4.953,892.887-15.67z"/>
			<g>
				<defs>
					<path id="SVGID_00000038409310493264028050000009484912320462242950_" d="M892.887-15.67c-1.247-1.967-3.411-3.159-5.737-3.159
						c-2.326,0-4.49,1.192-5.737,3.159c-6.795,10.717-17.204,27.133-17.204,27.133c0,9.319,10.28,16.884,22.941,16.884
						c12.661,0,22.941-7.566,22.941-16.884C910.091,11.463,899.682-4.953,892.887-15.67z"/>
				</defs>
				<clipPath id="SVGID_00000137115734495983075000000014620933994896869048_">
					<use xlink:href="#SVGID_00000038409310493264028050000009484912320462242950_"  style="overflow:visible;"/>
				</clipPath>
				
					<path style="clip-path:url(#SVGID_00000137115734495983075000000014620933994896869048_);fill-rule:evenodd;clip-rule:evenodd;fill:#5AAA00;" d="
					M891.873-30.853c-1.291-1.562-3.21-2.466-5.233-2.466c-2.024,0-3.942,0.903-5.234,2.464
					c-6.769,8.194-17.707,22.589-17.707,30.084c0,9.319,10.279,16.884,22.941,16.884s22.941-7.566,22.941-16.884
					C909.581-8.265,898.643-22.66,891.873-30.853z"/>
			</g>
			<path style="fill-rule:evenodd;clip-rule:evenodd;fill:#8FC300;" d="M879.289,24.457c0.12-1.119,1.124-1.929,2.24-1.809
				c1.116,0.12,1.925,1.126,1.805,2.245l-0.374,3.481c-0.12,1.119-1.124,1.929-2.24,1.809s-1.925-1.126-1.805-2.245L879.289,24.457z
				"/>
			<path style="fill-rule:evenodd;clip-rule:evenodd;fill:#8FC300;" d="M865.488,9.451c0.606-0.947,1.866-1.223,2.811-0.615
				c0.945,0.608,1.22,1.87,0.614,2.817l-3.634,5.677c-0.606,0.947-1.866,1.223-2.81,0.615c-0.945-0.607-1.22-1.87-0.614-2.817
				L865.488,9.451z"/>
			<path style="fill-rule:evenodd;clip-rule:evenodd;fill:#5AAA00;" d="M888.674,16.114c0-1.125-0.912-2.039-2.034-2.039
				c-1.123,0-2.034,0.914-2.034,2.039v2.039c0,1.125,0.912,2.039,2.034,2.039c1.122,0,2.034-0.914,2.034-2.039V16.114z"/>
			<path style="fill-rule:evenodd;clip-rule:evenodd;fill:#5AAA00;" d="M895.71,19.949c-0.138-1.117-1.155-1.911-2.269-1.773
				c-1.114,0.138-1.907,1.158-1.768,2.274l0.25,2.023c0.138,1.117,1.155,1.911,2.269,1.773c1.114-0.138,1.907-1.158,1.768-2.274
				L895.71,19.949z"/>
			<path style="fill-rule:evenodd;clip-rule:evenodd;fill:#5AAA00;" d="M877.713,19.949c0.138-1.117,1.155-1.911,2.269-1.773
				c1.114,0.138,1.906,1.158,1.768,2.274l-0.25,2.023c-0.138,1.117-1.155,1.911-2.269,1.773c-1.114-0.138-1.907-1.158-1.768-2.274
				L877.713,19.949z"/>
			<path style="fill-rule:evenodd;clip-rule:evenodd;fill:#5AAA00;" d="M901.032,11.852c-0.337-1.073-1.481-1.67-2.552-1.332
				c-1.071,0.338-1.666,1.484-1.329,2.557l0.857,2.725c0.338,1.073,1.481,1.67,2.552,1.332c1.071-0.338,1.666-1.484,1.329-2.557
				L901.032,11.852z"/>
			<path style="fill-rule:evenodd;clip-rule:evenodd;fill:#5AAA00;" d="M873.568,12.776c0.338-1.073,1.481-1.67,2.552-1.332
				c1.071,0.338,1.666,1.484,1.329,2.557l-0.857,2.725c-0.338,1.073-1.481,1.67-2.552,1.332c-1.071-0.338-1.666-1.484-1.329-2.557
				L873.568,12.776z"/>
			<path style="fill-rule:evenodd;clip-rule:evenodd;fill:#5AAA00;" d="M906.056,8.013c-0.561-0.975-1.806-1.309-2.779-0.746
				c-0.972,0.563-1.306,1.811-0.745,2.785l1.84,3.195c0.561,0.975,1.807,1.309,2.779,0.746c0.972-0.563,1.306-1.811,0.745-2.785
				L906.056,8.013z"/>
			<path style="fill-rule:evenodd;clip-rule:evenodd;fill:#5AAA00;" d="M868.564,7.903c0.561-0.975,1.806-1.309,2.779-0.746
				c0.972,0.563,1.306,1.811,0.745,2.785l-1.84,3.195c-0.561,0.975-1.807,1.309-2.779,0.746c-0.972-0.563-1.306-1.811-0.745-2.785
				L868.564,7.903z"/>
			<path style="fill-rule:evenodd;clip-rule:evenodd;fill:#A2D500;" d="M892.35-22.963c-1.252-1.943-3.402-3.117-5.71-3.117
				c-2.308,0-4.458,1.174-5.71,3.117c-5.681,8.818-13.558,21.043-13.558,21.043c0,7.703,8.634,13.956,19.269,13.956
				s19.268-6.254,19.268-13.956C905.909-1.92,898.032-14.145,892.35-22.963z"/>
			<g>
				<defs>
					<path id="SVGID_00000131361935101780329870000016583646638876503177_" d="M892.35-22.963c-1.252-1.943-3.402-3.117-5.71-3.117
						c-2.308,0-4.458,1.174-5.71,3.117c-5.681,8.818-13.558,21.043-13.558,21.043c0,7.703,8.634,13.956,19.269,13.956
						s19.268-6.254,19.268-13.956C905.909-1.92,898.032-14.145,892.35-22.963z"/>
				</defs>
				<clipPath id="SVGID_00000170270885633226873000000010652871837306845627_">
					<use xlink:href="#SVGID_00000131361935101780329870000016583646638876503177_"  style="overflow:visible;"/>
				</clipPath>
				
					<path style="clip-path:url(#SVGID_00000170270885633226873000000010652871837306845627_);fill-rule:evenodd;clip-rule:evenodd;fill:#8FC300;" d="
					M876.253-3.865c0.561-0.975,0.228-2.223-0.745-2.785c-0.972-0.563-2.217-0.228-2.779,0.746l-2.034,3.531
					c-0.561,0.975-0.228,2.223,0.745,2.785c0.972,0.563,2.217,0.228,2.779-0.746L876.253-3.865z"/>
				
					<path style="clip-path:url(#SVGID_00000170270885633226873000000010652871837306845627_);fill-rule:evenodd;clip-rule:evenodd;fill:#8FC300;" d="
					M881.079,3.585c0.367-1.063-0.196-2.226-1.257-2.594s-2.22,0.196-2.588,1.26l-0.665,1.927c-0.367,1.063,0.196,2.226,1.257,2.594
					c1.061,0.368,2.22-0.196,2.588-1.26L881.079,3.585z"/>
				
					<path style="clip-path:url(#SVGID_00000170270885633226873000000010652871837306845627_);fill-rule:evenodd;clip-rule:evenodd;fill:#8FC300;" d="
					M889.748,1.842c0-1.125-0.912-2.039-2.034-2.039c-1.123,0-2.034,0.914-2.034,2.039v2.039c0,1.125,0.911,2.039,2.034,2.039
					c1.122,0,2.034-0.914,2.034-2.039V1.842z"/>
				
					<path style="clip-path:url(#SVGID_00000170270885633226873000000010652871837306845627_);fill-rule:evenodd;clip-rule:evenodd;fill:#8FC300;" d="
					M897.747,2.179c-0.407-1.049-1.586-1.569-2.633-1.162s-1.566,1.59-1.159,2.639l0.737,1.901c0.407,1.049,1.587,1.569,2.633,1.162
					c1.046-0.408,1.566-1.59,1.159-2.639L897.747,2.179z"/>
			</g>
			<path style="fill-rule:evenodd;clip-rule:evenodd;fill:#A6D320;" d="M865.746-1.433c0.606-0.947,1.866-1.223,2.811-0.615
				c0.945,0.608,1.22,1.87,0.614,2.817l-0.087,0.136c-0.606,0.947-1.866,1.223-2.811,0.615s-1.22-1.87-0.614-2.817L865.746-1.433z"
				/>
			<path style="fill-rule:evenodd;clip-rule:evenodd;fill:#A2D500;" d="M907.935-1.433c-0.606-0.947-1.866-1.223-2.811-0.615
				c-0.945,0.608-1.22,1.87-0.614,2.817l0.087,0.136c0.606,0.947,1.866,1.223,2.811,0.615c0.945-0.608,1.22-1.87,0.614-2.817
				L907.935-1.433z"/>
			<path style="fill-rule:evenodd;clip-rule:evenodd;fill:#A2D500;" d="M872.371,7.516c0.606-0.947,1.866-1.223,2.811-0.615
				s1.22,1.87,0.614,2.817l-0.087,0.136c-0.606,0.947-1.866,1.223-2.811,0.615c-0.945-0.608-1.22-1.87-0.614-2.817L872.371,7.516z"
				/>
			<path style="fill-rule:evenodd;clip-rule:evenodd;fill:#A2D500;" d="M901.311,7.516c-0.606-0.947-1.866-1.223-2.811-0.615
				s-1.22,1.87-0.614,2.817l0.087,0.136c0.606,0.947,1.866,1.223,2.811,0.615c0.945-0.608,1.22-1.87,0.614-2.817L901.311,7.516z"/>
			<path style="fill-rule:evenodd;clip-rule:evenodd;fill:#8FC300;" d="M906.473,17.789c-0.633-0.929-1.9-1.169-2.827-0.534
				c-0.927,0.634-1.166,1.904-0.533,2.833l1.603,2.353c0.633,0.929,1.9,1.169,2.827,0.534c0.927-0.634,1.166-1.904,0.533-2.833
				L906.473,17.789z"/>
			<path style="fill-rule:evenodd;clip-rule:evenodd;fill:#A2D500;" d="M876.898,10.23c0.331-1.075,1.471-1.679,2.544-1.347
				c1.073,0.332,1.675,1.474,1.344,2.549l-0.047,0.154c-0.331,1.075-1.471,1.679-2.544,1.347c-1.073-0.332-1.675-1.474-1.344-2.549
				L876.898,10.23z"/>
			<path style="fill-rule:evenodd;clip-rule:evenodd;fill:#A2D500;" d="M896.783,10.23c-0.331-1.075-1.471-1.679-2.543-1.347
				c-1.073,0.332-1.675,1.474-1.344,2.549l0.047,0.154c0.331,1.075,1.471,1.679,2.544,1.347c1.073-0.332,1.675-1.474,1.344-2.549
				L896.783,10.23z"/>
			<path style="fill-rule:evenodd;clip-rule:evenodd;fill:#8FC300;" d="M900.852,24.638c-0.331-1.075-1.471-1.679-2.543-1.347
				c-1.073,0.332-1.675,1.474-1.344,2.549l0.047,0.154c0.331,1.075,1.471,1.679,2.544,1.347c1.073-0.332,1.675-1.474,1.344-2.549
				L900.852,24.638z"/>
			<path style="fill-rule:evenodd;clip-rule:evenodd;fill:#8FC300;" d="M872.693,22.696c0.331-1.075,1.471-1.679,2.543-1.347
				c1.073,0.332,1.675,1.474,1.344,2.549l-0.809,2.629c-0.331,1.075-1.471,1.679-2.543,1.347c-1.073-0.332-1.675-1.474-1.344-2.549
				L872.693,22.696z"/>
			<path style="fill-rule:evenodd;clip-rule:evenodd;fill:#A2D500;" d="M882.199,12.185c0.12-1.119,1.124-1.93,2.24-1.809
				c1.116,0.12,1.925,1.126,1.805,2.245l-0.017,0.16c-0.12,1.119-1.124,1.929-2.24,1.809c-1.116-0.12-1.925-1.126-1.805-2.245
				L882.199,12.185z"/>
			<path style="fill-rule:evenodd;clip-rule:evenodd;fill:#A2D500;" d="M891.483,12.185c-0.12-1.119-1.124-1.93-2.24-1.809
				c-1.116,0.12-1.925,1.126-1.805,2.245l0.017,0.16c0.12,1.119,1.124,1.929,2.24,1.809c1.116-0.12,1.925-1.126,1.805-2.245
				L891.483,12.185z"/>
			<path style="fill-rule:evenodd;clip-rule:evenodd;fill:#8FC300;" d="M895.551,26.592c-0.12-1.119-1.124-1.93-2.24-1.809
				c-1.116,0.12-1.925,1.126-1.805,2.245l0.017,0.16c0.12,1.119,1.124,1.929,2.24,1.809c1.116-0.12,1.925-1.126,1.805-2.245
				L895.551,26.592z"/>
			<path style="fill-rule:evenodd;clip-rule:evenodd;fill:#A2D500;" d="M868.188,3.747c0.606-0.947,1.866-1.223,2.811-0.615
				s1.22,1.87,0.614,2.817l-0.087,0.136c-0.606,0.947-1.866,1.223-2.811,0.615c-0.945-0.608-1.22-1.87-0.614-2.817L868.188,3.747z"
				/>
			<path style="fill-rule:evenodd;clip-rule:evenodd;fill:#A2D500;" d="M905.494,3.747c-0.606-0.947-1.865-1.223-2.81-0.615
				s-1.22,1.87-0.614,2.817l0.087,0.136c0.606,0.947,1.866,1.223,2.811,0.615c0.945-0.608,1.22-1.87,0.614-2.817L905.494,3.747z"/>
			<path style="fill-rule:evenodd;clip-rule:evenodd;fill:#8FC300;" d="M868.476,17.754c0.606-0.947,1.866-1.223,2.811-0.615
				s1.22,1.87,0.614,2.817l-2.425,3.789c-0.606,0.947-1.866,1.223-2.811,0.615c-0.945-0.607-1.22-1.87-0.614-2.817L868.476,17.754z"
				/>
		</g>
	</g>
	<g style="opacity:0.3308;">
		<g>
			<path style="fill:#00703A;" d="M759.399,92.794c-0.87,0-1.575-0.706-1.575-1.579v-4.944c0-0.873,0.705-1.579,1.575-1.579
				s1.575,0.706,1.575,1.579v4.944C760.974,92.087,760.269,92.794,759.399,92.794z"/>
		</g>
		<g>
			<path style="fill:#00703A;" d="M765.976,92.794c-0.87,0-1.575-0.706-1.575-1.579v-3.295c0-0.873,0.705-1.579,1.575-1.579
				c0.87,0,1.575,0.706,1.575,1.579v3.295C767.551,92.087,766.846,92.794,765.976,92.794z"/>
		</g>
		<g>
			<path style="fill:#00703A;" d="M753.37,92.794c-0.87,0-1.575-0.706-1.575-1.579v-3.295c0-0.873,0.705-1.579,1.575-1.579
				s1.575,0.706,1.575,1.579v3.295C754.945,92.087,754.24,92.794,753.37,92.794z"/>
		</g>
		<g>
			<path style="fill:#00703A;" d="M777.144,105.842c-0.87,0-1.575-0.706-1.575-1.579v-4.944c0-0.873,0.705-1.579,1.575-1.579
				s1.575,0.706,1.575,1.579v4.944C778.72,105.136,778.014,105.842,777.144,105.842z"/>
		</g>
		<g>
			<path style="fill:#00703A;" d="M783.721,105.842c-0.87,0-1.575-0.706-1.575-1.579v-3.297c0-0.873,0.705-1.579,1.575-1.579
				s1.575,0.706,1.575,1.579v3.297C785.297,105.136,784.591,105.842,783.721,105.842z"/>
		</g>
		<g>
			<path style="fill:#00703A;" d="M771.116,105.842c-0.87,0-1.575-0.706-1.575-1.579v-3.297c0-0.873,0.705-1.579,1.575-1.579
				c0.87,0,1.575,0.706,1.575,1.579v3.297C772.691,105.136,771.986,105.842,771.116,105.842z"/>
		</g>
		<g>
			<path style="fill:#00703A;" d="M783.241,78.51c-0.87,0-1.575-0.706-1.575-1.579v-4.944c0-0.873,0.705-1.579,1.575-1.579
				s1.575,0.706,1.575,1.579v4.944C784.816,77.804,784.111,78.51,783.241,78.51z"/>
		</g>
		<g>
			<path style="fill:#00703A;" d="M789.818,78.51c-0.87,0-1.575-0.706-1.575-1.579v-3.297c0-0.873,0.705-1.579,1.575-1.579
				s1.575,0.706,1.575,1.579v3.297C791.394,77.804,790.688,78.51,789.818,78.51z"/>
		</g>
		<g>
			<path style="fill:#00703A;" d="M777.212,78.51c-0.87,0-1.575-0.706-1.575-1.579v-3.297c0-0.873,0.705-1.579,1.575-1.579
				s1.575,0.706,1.575,1.579v3.297C778.788,77.804,778.082,78.51,777.212,78.51z"/>
		</g>
	</g>
	<g>
		<rect x="555.682" y="138.65" style="fill-rule:evenodd;clip-rule:evenodd;fill:#DBEBEB;" width="4.916" height="4.927"/>
		<rect x="552.404" y="127.153" style="fill-rule:evenodd;clip-rule:evenodd;fill:#DBEBEB;" width="4.916" height="4.927"/>
		<rect x="555.682" y="115.656" style="fill-rule:evenodd;clip-rule:evenodd;fill:#DBEBEB;" width="4.916" height="4.927"/>
		<rect x="567.153" y="118.941" style="fill-rule:evenodd;clip-rule:evenodd;fill:#DBEBEB;" width="4.916" height="4.927"/>
		<rect x="578.623" y="115.656" style="fill-rule:evenodd;clip-rule:evenodd;fill:#DBEBEB;" width="4.916" height="4.927"/>
		<rect x="590.094" y="118.941" style="fill-rule:evenodd;clip-rule:evenodd;fill:#DBEBEB;" width="4.916" height="4.927"/>
		<rect x="601.565" y="115.656" style="fill-rule:evenodd;clip-rule:evenodd;fill:#DBEBEB;" width="4.916" height="4.927"/>
		<rect x="613.035" y="118.941" style="fill-rule:evenodd;clip-rule:evenodd;fill:#DBEBEB;" width="4.916" height="4.927"/>
		<path style="fill-rule:evenodd;clip-rule:evenodd;fill:#FFFFFF;" d="M609.758,54.887c0,0-66.465,0-94.388,0
			c-6.702,0-12.126,5.443-12.126,12.155c0,26.017,0,84.746,0,84.746h39.328v-44.345h67.186V54.887z"/>
		<rect x="573.707" y="92.663" style="fill-rule:evenodd;clip-rule:evenodd;fill:#D6946D;" width="26.219" height="14.782"/>
		<rect x="573.707" y="92.663" style="fill-rule:evenodd;clip-rule:evenodd;fill:#D6946D;" width="26.219" height="4.927"/>
		<rect x="573.707" y="92.663" style="fill-rule:evenodd;clip-rule:evenodd;fill:#C57745;" width="3.277" height="14.782"/>
		<rect x="573.707" y="92.663" style="fill-rule:evenodd;clip-rule:evenodd;fill:#C57745;" width="3.277" height="4.927"/>
		<rect x="580.262" y="92.663" style="fill-rule:evenodd;clip-rule:evenodd;fill:#C57745;" width="3.277" height="14.782"/>
		<rect x="580.262" y="92.663" style="fill-rule:evenodd;clip-rule:evenodd;fill:#C57745;" width="3.277" height="4.927"/>
		<rect x="586.817" y="92.663" style="fill-rule:evenodd;clip-rule:evenodd;fill:#C57745;" width="3.277" height="14.782"/>
		<rect x="586.817" y="92.663" style="fill-rule:evenodd;clip-rule:evenodd;fill:#C57745;" width="3.277" height="4.927"/>
		<rect x="593.371" y="92.663" style="fill-rule:evenodd;clip-rule:evenodd;fill:#C57745;" width="3.277" height="14.782"/>
		<rect x="593.371" y="92.663" style="fill-rule:evenodd;clip-rule:evenodd;fill:#C57745;" width="3.277" height="4.927"/>
		<rect x="550.766" y="95.947" style="fill-rule:evenodd;clip-rule:evenodd;fill:#538B9C;" width="8.193" height="6.57"/>
		<rect x="550.766" y="92.663" style="fill-rule:evenodd;clip-rule:evenodd;fill:#286474;" width="8.193" height="3.285"/>
		<rect x="509.799" y="135.365" style="fill-rule:evenodd;clip-rule:evenodd;fill:#538B9C;" width="26.219" height="9.854"/>
		<rect x="509.799" y="135.365" style="fill-rule:evenodd;clip-rule:evenodd;fill:#286474;" width="26.219" height="3.285"/>
		<polygon style="fill-rule:evenodd;clip-rule:evenodd;fill:#77D629;" points="609.758,54.887 503.244,54.887 503.244,130.438 
			542.572,130.438 542.572,86.093 609.758,86.093 		"/>
		<polygon style="fill-rule:evenodd;clip-rule:evenodd;fill:#FFFFFF;" points="503.244,230.624 609.758,230.624 609.758,133.723 
			570.43,133.723 570.43,178.067 503.244,178.067 		"/>
		<polygon style="fill-rule:evenodd;clip-rule:evenodd;fill:#77D629;" points="503.244,209.273 609.758,209.273 609.758,133.723 
			570.43,133.723 570.43,178.067 503.244,178.067 		"/>
		<rect x="542.572" y="80.563" style="fill-rule:evenodd;clip-rule:evenodd;fill:#C2ED00;" width="67.186" height="5.532"/>
		<rect x="503.244" y="124.906" style="fill-rule:evenodd;clip-rule:evenodd;fill:#C2ED00;" width="39.328" height="5.532"/>
	</g>
	<g>
		<g>
			<g>
				<polygon style="fill-rule:evenodd;clip-rule:evenodd;fill:#39BBD4;" points="736.296,107.699 644.896,141.48 644.896,161.213 
					736.296,161.213 				"/>
				<g>
					<defs>
						<polygon id="SVGID_00000005264364239017469040000017094526975632398749_" points="736.296,107.699 644.896,141.48 
							644.896,161.213 736.296,161.213 						"/>
					</defs>
					<clipPath id="SVGID_00000101793756979656229110000007346643920546285719_">
						<use xlink:href="#SVGID_00000005264364239017469040000017094526975632398749_"  style="overflow:visible;"/>
					</clipPath>
					<g style="clip-path:url(#SVGID_00000101793756979656229110000007346643920546285719_);">
						<path style="fill-rule:evenodd;clip-rule:evenodd;fill:#1D9EB6;" d="M666.557,143.526c0-2.503-2.027-4.535-4.525-4.535
							c-2.498,0-4.525,2.032-4.525,4.535c0,2.192,1.555,4.023,3.62,4.444v13.697c0,0.25,0.203,0.454,0.452,0.454h0.905
							c0.25,0,0.452-0.203,0.452-0.454v-13.697C665.001,147.549,666.557,145.718,666.557,143.526z"/>
					</g>
					
						<path style="clip-path:url(#SVGID_00000101793756979656229110000007346643920546285719_);fill-rule:evenodd;clip-rule:evenodd;fill:#1D9EB6;" d="
						M715.663,142.123c-1.355-0.306-2.605-0.589-3.494-0.789c-0.291-0.066-0.528-0.276-0.629-0.557
						c-0.101-0.281-0.052-0.594,0.13-0.831c0.774-1.005,1.982-2.573,3.17-4.114c0.283-0.367,0.257-0.885-0.062-1.222
						c-0.318-0.336-0.833-0.39-1.214-0.126c-1.739,1.206-3.536,2.452-4.655,3.228c-0.246,0.17-0.561,0.203-0.836,0.087
						c-0.275-0.116-0.472-0.365-0.521-0.66c-0.24-1.429-0.635-3.773-1.005-5.971c-0.076-0.452-0.467-0.783-0.924-0.783
						c-0.458,0-0.849,0.331-0.925,0.783c-0.37,2.197-0.765,4.541-1.005,5.971c-0.05,0.295-0.247,0.544-0.521,0.66
						c-0.275,0.116-0.59,0.084-0.835-0.087c-1.12-0.777-2.917-2.022-4.656-3.228c-0.38-0.264-0.896-0.21-1.214,0.126
						c-0.319,0.336-0.345,0.855-0.062,1.222c1.188,1.542,2.396,3.109,3.17,4.114c0.182,0.236,0.231,0.55,0.13,0.831
						c-0.101,0.281-0.338,0.491-0.629,0.557c-0.889,0.201-2.139,0.483-3.494,0.789c-0.466,0.105-0.779,0.545-0.726,1.021
						c0.053,0.476,0.454,0.836,0.932,0.836c2.518,0,4.623,0,4.623,0h4.475c-0.141,4.502-0.421,13.404-0.526,16.744
						c-0.011,0.343,0.117,0.675,0.356,0.921c0.238,0.246,0.565,0.385,0.907,0.385h0c0.342,0,0.669-0.139,0.908-0.385
						c0.238-0.246,0.366-0.579,0.355-0.921c-0.105-3.341-0.385-12.242-0.526-16.744h4.474c0,0,2.104,0,4.623,0
						c0.478,0,0.879-0.36,0.932-0.836C716.442,142.668,716.129,142.228,715.663,142.123z"/>
					
						<line style="clip-path:url(#SVGID_00000101793756979656229110000007346643920546285719_);fill:none;stroke:#5ED7EF;stroke-width:2.5922;stroke-miterlimit:1.415;" x1="712.802" y1="113.562" x2="712.802" y2="163.48"/>
					
						<line style="clip-path:url(#SVGID_00000101793756979656229110000007346643920546285719_);fill:none;stroke:#5ED7EF;stroke-width:2.5922;stroke-miterlimit:1.415;" x1="690.613" y1="119.195" x2="690.613" y2="163.48"/>
					
						<line style="clip-path:url(#SVGID_00000101793756979656229110000007346643920546285719_);fill:none;stroke:#5ED7EF;stroke-width:2.5922;stroke-miterlimit:1.415;" x1="668.423" y1="133.118" x2="668.423" y2="163.48"/>
					
						<line style="clip-path:url(#SVGID_00000101793756979656229110000007346643920546285719_);fill:none;stroke:#5ED7EF;stroke-width:2.5922;stroke-miterlimit:1.415;" x1="646.234" y1="136.697" x2="646.234" y2="163.48"/>
					
						<line style="clip-path:url(#SVGID_00000101793756979656229110000007346643920546285719_);fill:none;stroke:#5ED7EF;stroke-width:2.5922;stroke-miterlimit:1.415;" x1="734.991" y1="163.48" x2="734.991" y2="107.699"/>
				</g>
			</g>
			<polygon style="fill:#25AEC0;" points="644.896,120.995 644.896,139.96 736.296,106.117 736.296,88.125 			"/>
			
				<line style="fill:none;stroke:#5ED7EF;stroke-width:2.5922;stroke-miterlimit:1.415;" x1="648.618" y1="119.281" x2="664.184" y2="134.882"/>
			
				<line style="fill:none;stroke:#5ED7EF;stroke-width:2.5922;stroke-miterlimit:1.415;" x1="656.401" y1="116.05" x2="656.401" y2="138.113"/>
			
				<line style="fill:none;stroke:#5ED7EF;stroke-width:2.5922;stroke-miterlimit:1.415;" x1="671.441" y1="111.481" x2="687.006" y2="127.082"/>
			
				<line style="fill:none;stroke:#5ED7EF;stroke-width:2.5922;stroke-miterlimit:1.415;" x1="679.224" y1="108.25" x2="679.224" y2="130.313"/>
			
				<line style="fill:none;stroke:#5ED7EF;stroke-width:2.5922;stroke-miterlimit:1.415;" x1="693.999" y1="103.68" x2="709.565" y2="119.281"/>
			
				<line style="fill:none;stroke:#5ED7EF;stroke-width:2.5922;stroke-miterlimit:1.415;" x1="701.782" y1="100.449" x2="701.782" y2="122.512"/>
			
				<line style="fill:none;stroke:#5ED7EF;stroke-width:2.5922;stroke-miterlimit:1.415;" x1="716.002" y1="95.21" x2="731.567" y2="110.811"/>
			
				<line style="fill:none;stroke:#5ED7EF;stroke-width:2.5922;stroke-miterlimit:1.415;" x1="723.785" y1="91.979" x2="723.785" y2="114.042"/>
			<g>
				<path style="fill:#F0F2F2;" d="M644.897,124.312c-1.053,0-2.044-0.649-2.43-1.698c-0.494-1.345,0.192-2.837,1.534-3.333
					l91.399-33.78c1.34-0.495,2.831,0.191,3.326,1.537c0.494,1.345-0.192,2.837-1.534,3.333l-91.399,33.78
					C645.497,124.26,645.194,124.312,644.897,124.312z"/>
			</g>
			<g>
				<path style="fill:#FFFFFF;" d="M644.897,144.075c-1.053,0-2.044-0.649-2.43-1.698c-0.494-1.345,0.192-2.837,1.534-3.333
					l91.399-33.78c1.34-0.495,2.831,0.191,3.326,1.537c0.494,1.345-0.192,2.837-1.534,3.333l-91.399,33.78
					C645.497,144.024,645.194,144.075,644.897,144.075z"/>
			</g>
		</g>
	</g>
	<g>
		<path style="fill:#DD9100;" d="M868.18,95.269h-8.701v30.711h10.239V96.807C869.718,95.958,869.03,95.269,868.18,95.269z"/>
		<path style="fill:#DD9100;" d="M828.751,95.269h-8.701c-0.85,0-1.538,0.689-1.538,1.538v29.172h10.239V95.269z"/>
		<path style="fill:#EDA716;" d="M860.543,84.692h-32.856c-0.85,0-1.538,0.689-1.538,1.538v29.172h35.932V86.23
			C862.081,85.38,861.392,84.692,860.543,84.692z"/>
		<g>
			<g>
				<g>
					<defs>
						<path id="SVGID_00000042725067185338300420000004711907005163927218_" d="M867.509,128.806H820.72
							c-0.35,0-0.634-0.284-0.634-0.634v-2.193h48.056v2.193C868.143,128.522,867.859,128.806,867.509,128.806z"/>
					</defs>
					<clipPath id="SVGID_00000147213204062616546380000017700648915267531450_">
						<use xlink:href="#SVGID_00000042725067185338300420000004711907005163927218_"  style="overflow:visible;"/>
					</clipPath>
					<path style="clip-path:url(#SVGID_00000147213204062616546380000017700648915267531450_);fill:#6D6FEE;" d="M867.509,128.806
						H820.72c-0.35,0-0.634-0.284-0.634-0.634v-2.193h48.056v2.193C868.143,128.522,867.859,128.806,867.509,128.806z"/>
					
						<rect x="819.239" y="127.393" style="clip-path:url(#SVGID_00000147213204062616546380000017700648915267531450_);fill:#3F41D0;" width="49.58" height="2.839"/>
					<path style="opacity:0.46;clip-path:url(#SVGID_00000147213204062616546380000017700648915267531450_);fill:#0B00C4;" d="
						M836.289,129.896c0.418,0.027,0.834,0.021,1.255,0.029c0.227,0.004,0.448,0.016,2.203,0.036l1.606-5.69
						c-2.033,0-2.53-0.033-3.019-0.074c-0.823-0.069-1.65-0.055-4.013-0.07l-1.531,5.424
						C834.984,129.652,835.638,129.784,836.289,129.896z"/>
					<path style="opacity:0.46;clip-path:url(#SVGID_00000147213204062616546380000017700648915267531450_);fill:#0B00C4;" d="
						M852.007,129.908c-0.419,0.027-0.837,0.021-1.26,0.029c-0.228,0.004-0.45,0.016-2.206,0.036l-1.613-5.714
						c2.035,0,2.534-0.033,3.025-0.074c0.826-0.07,1.656-0.055,4.023-0.07l1.538,5.446
						C853.318,129.663,852.66,129.795,852.007,129.908z"/>
				</g>
				<g>
					<g>
						<defs>
							<path id="SVGID_00000095333979283943191480000000419195224357622425_" d="M841.261,118.388h-3.256l-5.565,19.216
								c-0.047,0.168,0.079,0.335,0.253,0.335h2.71c0.118,0,0.221-0.078,0.253-0.192L841.261,118.388z"/>
						</defs>
						<clipPath id="SVGID_00000004546162837815475980000011911035524349389479_">
							<use xlink:href="#SVGID_00000095333979283943191480000000419195224357622425_"  style="overflow:visible;"/>
						</clipPath>
						<path style="clip-path:url(#SVGID_00000004546162837815475980000011911035524349389479_);fill:#6D6FEE;" d="M841.261,118.388
							h-3.256l-5.565,19.216c-0.047,0.168,0.079,0.335,0.253,0.335h2.71c0.118,0,0.221-0.078,0.253-0.192L841.261,118.388z"/>
						
							<rect x="835.999" y="117.908" style="clip-path:url(#SVGID_00000004546162837815475980000011911035524349389479_);fill:#3F41D0;" width="6.786" height="2.476"/>
					</g>
					<g>
						<defs>
							<path id="SVGID_00000160166098446001720980000009657444976374864565_" d="M847.035,118.388h3.256l5.565,19.216
								c0.047,0.168-0.079,0.335-0.253,0.335h-2.71c-0.118,0-0.221-0.078-0.253-0.192L847.035,118.388z"/>
						</defs>
						<clipPath id="SVGID_00000100341626007195184480000006833592694181211302_">
							<use xlink:href="#SVGID_00000160166098446001720980000009657444976374864565_"  style="overflow:visible;"/>
						</clipPath>
						<path style="clip-path:url(#SVGID_00000100341626007195184480000006833592694181211302_);fill:#6D6FEE;" d="M847.035,118.388
							h3.256l5.565,19.216c0.047,0.168-0.079,0.335-0.253,0.335h-2.71c-0.118,0-0.221-0.078-0.253-0.192L847.035,118.388z"/>
						
							<rect x="845.435" y="117.908" style="clip-path:url(#SVGID_00000100341626007195184480000006833592694181211302_);fill:#3F41D0;" width="6.786" height="2.476"/>
					</g>
				</g>
			</g>
			<g>
				<defs>
					<path id="SVGID_00000013874120906216970860000014063848381007977860_" d="M854.826,118.388h-21.422
						c-0.41,0-0.742-0.332-0.742-0.742v-2.243h22.906v2.243C855.568,118.055,855.236,118.388,854.826,118.388z"/>
				</defs>
				<clipPath id="SVGID_00000159459635409988429100000009217445112353191572_">
					<use xlink:href="#SVGID_00000013874120906216970860000014063848381007977860_"  style="overflow:visible;"/>
				</clipPath>
				<path style="clip-path:url(#SVGID_00000159459635409988429100000009217445112353191572_);fill:#6D6FEE;" d="M854.826,118.388
					h-21.422c-0.41,0-0.742-0.332-0.742-0.742v-2.243h22.906v2.243C855.568,118.055,855.236,118.388,854.826,118.388z"/>
				
					<rect x="831.47" y="115.402" style="clip-path:url(#SVGID_00000159459635409988429100000009217445112353191572_);fill:#3F41D0;" width="24.787" height="1.493"/>
			</g>
		</g>
		<path style="fill:#FCBC2C;" d="M862.081,115.402h-35.932v-0.565c0-0.85,0.689-1.539,1.539-1.539h32.854
			c0.85,0,1.539,0.689,1.539,1.539V115.402z"/>
		<g>
			<path style="fill:#FCBC2C;" d="M828.751,125.98h-10.239v-0.565c0-0.85,0.689-1.539,1.539-1.539h7.162
				c0.85,0,1.539,0.689,1.539,1.539V125.98z"/>
			<path style="fill:#FCBC2C;" d="M869.718,125.98h-10.239v-0.565c0-0.85,0.689-1.539,1.539-1.539h7.162
				c0.85,0,1.539,0.689,1.539,1.539V125.98z"/>
		</g>
		<rect x="829.602" y="84.692" style="fill:#FCBC2C;" width="3.502" height="26.718"/>
		<rect x="834.676" y="84.692" style="fill:#FCBC2C;" width="1.751" height="26.718"/>
	</g>
	<g>
		<path style="fill-rule:evenodd;clip-rule:evenodd;fill:#009B51;" d="M807.586,134.485h-13.268c-0.767,0-1.395-0.628-1.395-1.395
			v-0.003c0-0.767,0.628-1.395,1.395-1.395h13.268c0.767,0,1.395,0.628,1.395,1.395v0.003
			C808.981,133.858,808.353,134.485,807.586,134.485z"/>
		<g>
			<g>
				<path style="fill-rule:evenodd;clip-rule:evenodd;fill:#531382;" d="M803.427,131.648c0,0,1.579-0.006,3.019,0
					c0.044,0,0.088,0.003,0.131,0.012c0.513,0.108,0.828,0.54,0.826,1.003l0,0.058c-0.001,0.203-0.166,0.368-0.368,0.367
					l-2.815-0.003c-0.153,0-0.29-0.095-0.344-0.239L803.427,131.648z"/>
				<g>
					<path style="fill-rule:evenodd;clip-rule:evenodd;fill:#F8C600;" d="M801.734,121.32l2.261,5.208
						c0.269,0.62-0.031,1.34-0.661,1.583l0,0c-0.593,0.229-1.261-0.051-1.514-0.635l-2.259-5.209
						c-0.268-0.619,0.032-1.338,0.66-1.581l0,0C800.814,120.457,801.481,120.737,801.734,121.32z"/>
					<path style="fill-rule:evenodd;clip-rule:evenodd;fill:#F8C600;" d="M804.041,126.629l1.877,5.016l-2.491,0.003l-1.594-4.159
						c-0.244-0.629,0.084-1.336,0.721-1.554l0,0C803.155,125.731,803.811,126.036,804.041,126.629z"/>
				</g>
			</g>
			<g>
				<path style="fill-rule:evenodd;clip-rule:evenodd;fill:#531382;" d="M796.406,131.648c0,0,1.345-0.006,2.802,0.001
					c0.551,0.084,0.893,0.533,0.891,1.015l-0.001,0.167c-0.001,0.143-0.116,0.258-0.259,0.258l-3.409-0.004
					c-0.163,0-0.286-0.15-0.253-0.311L796.406,131.648z"/>
				<g>
					<path style="fill-rule:evenodd;clip-rule:evenodd;fill:#F8C600;" d="M799.611,123.321l0.335,3.568
						c0.059,0.673-0.454,1.26-1.128,1.291l0,0c-0.635,0.029-1.18-0.449-1.235-1.084l-0.332-3.568
						c-0.059-0.673,0.454-1.259,1.126-1.289l0,0C799.011,122.21,799.555,122.688,799.611,123.321z"/>
					<path style="fill-rule:evenodd;clip-rule:evenodd;fill:#F8C600;" d="M799.9,127.458l-1.076,4.19l-2.417,0.001l1.193-4.757
						c0.161-0.656,0.834-1.045,1.481-0.856l0,0C799.69,126.212,800.051,126.84,799.9,127.458z"/>
				</g>
			</g>
			<g>
				<path style="fill-rule:evenodd;clip-rule:evenodd;fill:#F8C600;" d="M804.794,120.473c0.468-0.094,0.772-0.55,0.678-1.019
					l-0.769-3.761l-1.704,0.186c0,0,0.779,3.914,0.779,3.914C803.871,120.262,804.326,120.566,804.794,120.473L804.794,120.473z"/>
				<path style="fill-rule:evenodd;clip-rule:evenodd;fill:#F8C600;" d="M805.081,118.91c1.219,0.801,2.787,1.831,3.726,2.449
					c0.213,0.14,0.271,0.424,0.132,0.637c-0.137,0.21-0.307,0.469-0.444,0.679c-0.14,0.213-0.424,0.272-0.637,0.132l-3.724-2.447
					c-0.399-0.262-0.511-0.799-0.249-1.199l0,0C804.147,118.76,804.682,118.648,805.081,118.91z"/>
				<g>
					<path style="fill-rule:evenodd;clip-rule:evenodd;fill:#FF7867;" d="M805.204,117.47l-2.459,0.536l-0.687-3.447
						c0,0,1.001,0,1.768,0c0.501,0,0.929,0.36,1.016,0.854C804.994,116.273,805.204,117.47,805.204,117.47z"/>
					<polygon style="fill-rule:evenodd;clip-rule:evenodd;fill:#FFFFFF;" points="805.204,117.47 802.745,118.007 802.573,117.139 
						805.059,116.646 					"/>
				</g>
			</g>
			<polygon style="fill-rule:evenodd;clip-rule:evenodd;fill:#F5A100;" points="802.181,114.838 799.722,114.838 800.145,113.24 
				802.603,113.24 			"/>
			<polygon style="fill-rule:evenodd;clip-rule:evenodd;fill:#FF7867;" points="796.472,121.236 802.094,121.236 803.838,114.559 
				798.554,114.559 			"/>
			<g>
				<path style="fill-rule:evenodd;clip-rule:evenodd;fill:#F8C600;" d="M807.071,107.945c0.003-1.052-0.847-1.909-1.897-1.911
					l-6.445-0.017c-1.05-0.003-1.904,0.849-1.907,1.901l-0.01,3.813c-0.003,1.052,0.847,1.909,1.897,1.911l6.445,0.017
					c1.05,0.003,1.904-0.849,1.907-1.901L807.071,107.945z"/>
				<path style="fill-rule:evenodd;clip-rule:evenodd;fill:#081C1C;" d="M805.969,108.984c0-0.124-0.1-0.225-0.223-0.225
					l-1.075-0.002c-0.124,0-0.224,0.1-0.225,0.224l-0.007,2.326c0,0.124,0.1,0.225,0.223,0.225l1.075,0.002
					c0.124,0,0.224-0.1,0.225-0.224L805.969,108.984z"/>
				<path style="fill-rule:evenodd;clip-rule:evenodd;fill:#A8BAE6;" d="M794.922,106.052c0.667-1.71,2.265-2.733,3.965-2.729
					l7.237,0.019c1.06,0.003,1.918,0.866,1.915,1.929l0,0.007c-0.001,0.414-0.337,0.748-0.75,0.748
					c-0.735-0.001-0.41,0.001-1.725-0.001c-0.472-0.001-0.892,0.305-1.033,0.757c-0.096,0.309-0.201,0.644-0.301,0.964
					c-0.264,0.846-1.047,1.42-1.932,1.418l-2.274-0.007l-0.009,3.618c-0.002,0.592-0.481,1.07-1.072,1.069l-1.065-0.001
					c-1.791-0.005-3.24-1.464-3.235-3.259l0.008-2.982C794.652,107.073,794.73,106.544,794.922,106.052z"/>
				<ellipse style="fill-rule:evenodd;clip-rule:evenodd;fill:#A8BAE6;" cx="794.758" cy="111.446" rx="2.392" ry="2.397"/>
				<ellipse style="fill-rule:evenodd;clip-rule:evenodd;fill:#A8BAE6;" cx="806.801" cy="105.237" rx="2.736" ry="2.742"/>
				<g>
					
						<ellipse transform="matrix(0.002 -1 1 0.002 688.7827 909.2955)" style="fill-rule:evenodd;clip-rule:evenodd;fill:#F8C600;" cx="799.95" cy="109.566" rx="2.298" ry="2.274"/>
					<path style="fill-rule:evenodd;clip-rule:evenodd;fill:#F5A100;" d="M799.952,108.8c0.418,0.001,0.757,0.345,0.756,0.768
						c-0.001,0.423-0.342,0.765-0.76,0.764s-0.757-0.345-0.756-0.768C799.193,109.142,799.534,108.799,799.952,108.8z"/>
				</g>
			</g>
			<path style="fill-rule:evenodd;clip-rule:evenodd;fill:#92278E;" d="M797.034,126.5h7.443l-2.384-5.264h-5.622v0.958
				c0,0.458,0.035,0.916,0.106,1.369L797.034,126.5z"/>
			<polygon style="fill-rule:evenodd;clip-rule:evenodd;fill:#FFFFFF;" points="802.094,121.236 802.314,120.423 796.758,120.423 
				796.472,121.236 			"/>
			<g>
				<path style="fill-rule:evenodd;clip-rule:evenodd;fill:#F8C600;" d="M796.083,119.292c1.328-0.604,3.035-1.381,4.057-1.846
					c0.232-0.105,0.502-0.003,0.608,0.229c0.104,0.229,0.231,0.511,0.335,0.739c0.105,0.232,0.002,0.505-0.23,0.61l-4.055,1.845
					c-0.435,0.198-0.947,0.005-1.144-0.431v0C795.457,120.003,795.649,119.49,796.083,119.292z"/>
				<path style="fill-rule:evenodd;clip-rule:evenodd;fill:#F8C600;" d="M796.277,120.933c-0.469-0.086-0.781-0.537-0.695-1.008
					l0.851-4.665c0-0.001,1.688,0.378,1.688,0.378l-0.839,4.598C797.197,120.707,796.746,121.019,796.277,120.933L796.277,120.933z"
					/>
				<g>
					<path style="fill-rule:evenodd;clip-rule:evenodd;fill:#FF7867;" d="M795.778,117.47l2.477,0.544l0.688-3.455
						c0,0-1.021,0-1.788,0c-0.501,0-0.929,0.36-1.016,0.854C795.988,116.273,795.778,117.47,795.778,117.47z"/>
					<polygon style="fill-rule:evenodd;clip-rule:evenodd;fill:#FFFFFF;" points="795.778,117.47 798.255,118.015 798.428,117.143 
						795.922,116.646 					"/>
				</g>
			</g>
			<g>
				<path style="fill-rule:evenodd;clip-rule:evenodd;fill:#FFFFFF;" d="M801.093,114.559c0,0.626,0.496,1.133,1.108,1.133
					s1.108-0.507,1.108-1.133H801.093z"/>
				<path style="fill-rule:evenodd;clip-rule:evenodd;fill:#FFFFFF;" d="M798.877,114.559c0,0.626,0.496,1.133,1.108,1.133
					s1.108-0.507,1.108-1.133H798.877z"/>
			</g>
			<path style="fill-rule:evenodd;clip-rule:evenodd;fill:#6F350D;" d="M807.212,122.796l0.919-0.319
				c0.045-0.016,0.093-0.024,0.14-0.024h0.371c0.237,0,0.428-0.192,0.428-0.429v-0.247c0-0.247-0.2-0.448-0.447-0.448h-0.323
				c-0.048,0-0.095,0.008-0.14,0.024l-1.23,0.427c-0.172,0.06-0.288,0.223-0.288,0.406v0.205
				C806.643,122.686,806.934,122.893,807.212,122.796z"/>
			<path style="fill-rule:evenodd;clip-rule:evenodd;fill:#6F350D;" d="M809.07,132.635v-10.878c0-0.237-0.192-0.428-0.428-0.428
				l0,0c-0.237,0-0.428,0.192-0.428,0.428v10.878c0,0.237,0.192,0.428,0.428,0.428l0,0
				C808.879,133.064,809.07,132.872,809.07,132.635z"/>
		</g>
	</g>
	<g>
		<path style="fill-rule:evenodd;clip-rule:evenodd;fill:#009B51;" d="M783.778,134.485H770.51c-0.767,0-1.395-0.628-1.395-1.395
			v-0.003c0-0.767,0.628-1.395,1.395-1.395h13.268c0.767,0,1.395,0.628,1.395,1.395v0.003
			C785.173,133.858,784.546,134.485,783.778,134.485z"/>
		<g>
			<g>
				<g>
					<g>
						<path style="fill-rule:evenodd;clip-rule:evenodd;fill:#021D1C;" d="M769.808,105.449c0.722-1.847,2.449-2.951,4.286-2.945
							l4.353,0.004v10.552l-8.96,3.714l0.026-9.652C769.516,106.552,769.6,105.98,769.808,105.449z"/>
						<path style="fill-rule:evenodd;clip-rule:evenodd;fill:#021D1C;" d="M784.481,105.449c-0.722-1.847-2.449-2.951-4.286-2.945
							l-4.353,0.004v10.552l8.96,3.714l-0.026-9.652C784.773,106.552,784.688,105.98,784.481,105.449z"/>
					</g>
					<rect x="769.501" y="111.547" style="fill-rule:evenodd;clip-rule:evenodd;fill:#021D1C;" width="15.287" height="5.227"/>
				</g>
				<g>
					<g>
						<path style="fill-rule:evenodd;clip-rule:evenodd;fill:#FF3A8E;" d="M774.159,126.628l0.439,5.224l2.121-0.191l-0.438-5.204
							c-0.049-0.605-0.59-1.047-1.191-0.973l0,0C774.524,125.554,774.113,126.058,774.159,126.628z"/>
						<path style="fill-rule:evenodd;clip-rule:evenodd;fill:#286474;" d="M776.721,131.677c0,0-1.802,0.146-2.89,0.244
							c-0.206,0.019-0.396,0.119-0.529,0.278c-0.133,0.159-0.197,0.365-0.178,0.571c0.017,0.184,0.03,0.328,0.03,0.328l3.661-0.309
							L776.721,131.677z"/>
						<polygon style="fill-rule:evenodd;clip-rule:evenodd;fill:#FF3A8E;" points="775.356,120.414 777.668,120.899 
							777.731,121.402 776.295,126.554 774.19,126.228 						"/>
					</g>
					
						<rect x="774.555" y="130.822" transform="matrix(0.9965 -0.0832 0.0832 0.9965 -8.2339 64.9811)" style="fill-rule:evenodd;clip-rule:evenodd;fill:#6BD336;" width="2.13" height="0.942"/>
				</g>
				<g>
					<g>
						<path style="fill-rule:evenodd;clip-rule:evenodd;fill:#FF3A8E;" d="M780.018,126.736l0,5.242l-2.129-0.012l0.001-5.223
							c-0.002-0.607,0.5-1.093,1.105-1.069l0,0C779.564,125.696,780.015,126.164,780.018,126.736z"/>
						<path style="fill-rule:evenodd;clip-rule:evenodd;fill:#286474;" d="M777.888,131.982c0,0,1.808-0.006,2.901,0
							c0.207,0.001,0.405,0.085,0.55,0.232c0.146,0.148,0.227,0.347,0.225,0.554c-0.001,0.185-0.002,0.329-0.002,0.329h-3.674
							V131.982z"/>
						<polygon style="fill-rule:evenodd;clip-rule:evenodd;fill:#FF3A8E;" points="780.016,121.01 777.654,121.027 777.493,121.507 
							777.883,126.841 780.01,126.94 						"/>
					</g>
					<rect x="777.888" y="131.036" style="fill-rule:evenodd;clip-rule:evenodd;fill:#6BD336;" width="2.13" height="0.942"/>
				</g>
				<rect x="776.108" y="113.362" style="fill-rule:evenodd;clip-rule:evenodd;fill:#DC0E71;" width="2.073" height="1.404"/>
				<g>
					<path style="fill-rule:evenodd;clip-rule:evenodd;fill:#FF3A8E;" d="M770.899,107.239l-0.016,4.696
						c-1.283-0.004-2.321-1.06-2.316-2.356C768.571,108.283,769.616,107.234,770.899,107.239z"/>
					<path style="fill-rule:evenodd;clip-rule:evenodd;fill:#FF3A8E;" d="M783.39,107.239l0.016,4.696
						c1.283-0.004,2.321-1.06,2.316-2.356C785.717,108.283,784.672,107.234,783.39,107.239z"/>
				</g>
				<path style="fill-rule:evenodd;clip-rule:evenodd;fill:#FF3A8E;" d="M781.35,113.696h-8.411c-1.055,0-1.91-0.855-1.91-1.91
					v-6.536c0-1.055,0.855-1.91,1.91-1.91h8.411c1.055,0,1.91,0.855,1.91,1.91v6.536C783.26,112.84,782.405,113.696,781.35,113.696z
					"/>
				<g>
					<path style="fill-rule:evenodd;clip-rule:evenodd;fill:#021D1C;" d="M775.258,108.699c0-0.134-0.109-0.242-0.243-0.242h-1.039
						c-0.134,0-0.241,0.108-0.242,0.242v2.298c0,0.134,0.108,0.244,0.242,0.244h1.039c0.134,0,0.243-0.11,0.243-0.244V108.699z"/>
					<path style="fill-rule:evenodd;clip-rule:evenodd;fill:#021D1C;" d="M780.555,108.699c0-0.134-0.11-0.242-0.243-0.242h-1.039
						c-0.134,0-0.241,0.108-0.242,0.242v2.298c0,0.134,0.108,0.244,0.242,0.244h1.039c0.134,0,0.243-0.11,0.243-0.244V108.699z"/>
				</g>
				<g>
					<path style="fill-rule:evenodd;clip-rule:evenodd;fill:#021D1C;" d="M774.066,102.504h3.149l-0.006,1.371
						c-0.004,0.932-0.523,1.785-1.348,2.216l-3.972,2.06v8.66l-2.395-3.723v-6.002C769.494,104.555,771.541,102.504,774.066,102.504
						z"/>
					<path style="fill-rule:evenodd;clip-rule:evenodd;fill:#6BD336;" d="M770.576,107.583l2.428,0.011
						c0.132,0.001,0.24,0.109,0.24,0.242l-0.003,0.644c-0.001,0.132-0.109,0.24-0.242,0.24l-2.428-0.011
						c-0.132-0.001-0.24-0.109-0.24-0.242l0.003-0.644C770.335,107.69,770.444,107.582,770.576,107.583z"/>
					<path style="fill-rule:evenodd;clip-rule:evenodd;fill:#021D1C;" d="M780.223,102.504h-3.149l0.006,1.371
						c0.004,0.932,0.523,1.785,1.348,2.216l3.972,2.06v8.66l2.395-3.723v-6.002C784.795,104.555,782.748,102.504,780.223,102.504z"
						/>
				</g>
				<path style="fill-rule:evenodd;clip-rule:evenodd;fill:#FF3A8E;" d="M772.439,120.831c0.485,0.214,1.052-0.006,1.266-0.493
					l1.911-4.375c0.188-0.43-0.007-0.93-0.435-1.119l-0.204-0.09c-0.43-0.19-0.931,0.006-1.119,0.437l-1.909,4.371
					C771.733,120.048,771.953,120.616,772.439,120.831L772.439,120.831z"/>
				<g>
					<path style="fill-rule:evenodd;clip-rule:evenodd;fill:#FF3A8E;" d="M781.84,120.831c-0.485,0.214-1.052-0.006-1.266-0.493
						l-1.911-4.375c-0.188-0.43,0.007-0.93,0.435-1.119l0.204-0.09c0.43-0.19,0.931,0.006,1.12,0.437l1.909,4.371
						C782.545,120.048,782.325,120.616,781.84,120.831L781.84,120.831z"/>
					<path style="fill-rule:evenodd;clip-rule:evenodd;fill:#FF3A8E;" d="M780.676,120.52c0.928,1.331,2.121,3.042,2.836,4.067
						c0.162,0.232,0.479,0.288,0.71,0.126c0.228-0.16,0.51-0.357,0.738-0.517c0.232-0.162,0.287-0.481,0.125-0.714l-2.834-4.064
						c-0.304-0.436-0.902-0.542-1.337-0.238l0,0C780.478,119.485,780.372,120.084,780.676,120.52z"/>
				</g>
				<g>
					<polygon style="fill-rule:evenodd;clip-rule:evenodd;fill:#6BD336;" points="780.649,126.207 779.588,114.681 774.7,114.681 
						773.64,126.207 					"/>
					<polygon style="fill-rule:evenodd;clip-rule:evenodd;fill:#00926F;" points="780.649,126.207 780.113,120.345 774.179,120.345 
						773.64,126.207 					"/>
				</g>
				<path style="fill-rule:evenodd;clip-rule:evenodd;fill:#FF3A8E;" d="M773.398,119.197c1.299,0.97,2.97,2.217,3.97,2.963
					c0.227,0.169,0.273,0.488,0.104,0.715c-0.166,0.224-0.371,0.5-0.537,0.723c-0.169,0.227-0.489,0.273-0.716,0.104l-3.968-2.962
					c-0.425-0.317-0.513-0.92-0.197-1.347l0,0C772.372,118.968,772.973,118.88,773.398,119.197z"/>
			</g>
		</g>
	</g>
	<g style="opacity:0.3308;">
		<g>
			<path style="fill:#009252;" d="M128.346,52.385c0.87,0,1.575-0.706,1.575-1.579v-4.944c0-0.873-0.705-1.579-1.575-1.579
				s-1.575,0.706-1.575,1.579v4.944C126.77,51.679,127.475,52.385,128.346,52.385z"/>
		</g>
		<g>
			<path style="fill:#009252;" d="M121.768,52.385c0.87,0,1.575-0.706,1.575-1.579v-3.295c0-0.873-0.705-1.579-1.575-1.579
				s-1.575,0.706-1.575,1.579v3.295C120.193,51.679,120.898,52.385,121.768,52.385z"/>
		</g>
		<g>
			<path style="fill:#009252;" d="M134.375,52.385c0.87,0,1.575-0.706,1.575-1.579v-3.295c0-0.873-0.705-1.579-1.575-1.579
				s-1.575,0.706-1.575,1.579v3.295C132.799,51.679,133.505,52.385,134.375,52.385z"/>
		</g>
		<g>
			<path style="fill:#009252;" d="M110.6,65.433c0.87,0,1.575-0.706,1.575-1.579v-4.944c0-0.873-0.705-1.579-1.575-1.579
				s-1.575,0.706-1.575,1.579v4.944C109.024,64.727,109.73,65.433,110.6,65.433z"/>
		</g>
		<g>
			<path style="fill:#009252;" d="M104.023,65.433c0.87,0,1.575-0.706,1.575-1.579v-3.297c0-0.873-0.705-1.579-1.575-1.579
				c-0.87,0-1.575,0.706-1.575,1.579v3.297C102.447,64.727,103.153,65.433,104.023,65.433z"/>
		</g>
		<g>
			<path style="fill:#009252;" d="M116.628,65.433c0.87,0,1.575-0.706,1.575-1.579v-3.297c0-0.873-0.705-1.579-1.575-1.579
				s-1.575,0.706-1.575,1.579v3.297C115.053,64.727,115.758,65.433,116.628,65.433z"/>
		</g>
		<g>
			<path style="fill:#009252;" d="M104.504,38.102c0.87,0,1.575-0.706,1.575-1.579v-4.944c0-0.873-0.705-1.579-1.575-1.579
				s-1.575,0.706-1.575,1.579v4.944C102.928,37.395,103.634,38.102,104.504,38.102z"/>
		</g>
		<g>
			<path style="fill:#009252;" d="M97.926,38.102c0.87,0,1.575-0.706,1.575-1.579v-3.297c0-0.873-0.705-1.579-1.575-1.579
				c-0.87,0-1.575,0.706-1.575,1.579v3.297C96.35,37.395,97.056,38.102,97.926,38.102z"/>
		</g>
		<g>
			<path style="fill:#009252;" d="M110.532,38.102c0.87,0,1.575-0.706,1.575-1.579v-3.297c0-0.873-0.705-1.579-1.575-1.579
				s-1.575,0.706-1.575,1.579v3.297C108.957,37.395,109.662,38.102,110.532,38.102z"/>
		</g>
	</g>
	<g>
		<path style="opacity:0.1064;fill-rule:evenodd;clip-rule:evenodd;" d="M1056.036,46.052c0-2.963-2.398-5.368-5.352-5.368h-24.542
			c-2.954,0-5.352,2.406-5.352,5.368v4.73c0,2.963,2.398,5.368,5.352,5.368h24.542c2.954,0,5.352-2.406,5.352-5.368V46.052z"/>
		<path style="fill-rule:evenodd;clip-rule:evenodd;fill:#A59C83;" d="M1040.638,38.474c0,0-2.193-3.299-3.484-5.242
			c-0.576-0.866-1.545-1.386-2.583-1.386c-1.88,0-4.953,0-7.061,0c-1.266,0-2.293,1.03-2.293,2.3c0,5.234,0,17.586,0,17.586h24.232
			c0,0,4.915-4.929,6.268-6.286c0.219-0.219,0.341-0.516,0.341-0.826c0-1.038,0-3.503,0-4.976c0-0.645-0.522-1.169-1.165-1.169
			C1051.301,38.474,1040.638,38.474,1040.638,38.474z"/>
		<path style="fill-rule:evenodd;clip-rule:evenodd;fill:#B7AE97;" d="M1056.059,39.653c0-0.313-0.124-0.613-0.344-0.834
			c-0.22-0.221-0.519-0.345-0.831-0.345c-3.602,0-14.245,0-14.245,0s0,3.545,0,5.45c0,0.313,0.124,0.613,0.344,0.834
			c0.221,0.221,0.52,0.345,0.831,0.345c2.869,0,10.201,0,13.07,0c0.312,0,0.611-0.124,0.831-0.345
			c0.221-0.221,0.344-0.521,0.344-0.834C1056.059,42.718,1056.059,40.858,1056.059,39.653z"/>
		<path style="fill-rule:evenodd;clip-rule:evenodd;fill:#B7AE97;" d="M1036.232,33.316c0-0.812-0.656-1.471-1.466-1.471
			c-2.108,0-5.974,0-8.082,0c-0.81,0-1.466,0.658-1.466,1.471c0,1.097,0,2.59,0,3.687c0,0.812,0.656,1.471,1.466,1.471
			c2.109,0,5.974,0,8.082,0c0.81,0,1.466-0.658,1.466-1.471C1036.232,35.906,1036.232,34.413,1036.232,33.316z"/>
	</g>
	<path style="fill-rule:evenodd;clip-rule:evenodd;fill:#02B8BC;" d="M1379.757,102.729c-1.091,0-5.526,0-8.418,0
		c-1.608,0-3.112,0.803-4.008,2.141c-0.377,0.563-0.759,1.133-1.048,1.564c-0.308,0.459-0.823,0.734-1.375,0.734
		c-0.315,0-0.66,0-0.936,0c-0.14,0-0.275,0.056-0.374,0.155c-0.099,0.099-0.155,0.234-0.155,0.375s0.056,0.276,0.155,0.375
		c0.099,0.099,0.234,0.155,0.374,0.155c0.276,0,0.621,0,0.936,0c0.552,0,1.067,0.275,1.375,0.734
		c0.289,0.432,0.671,1.001,1.048,1.564c0.897,1.339,2.4,2.141,4.008,2.141c1.226,0,2.594,0,3.382,0c0.11,0,0.209-0.066,0.251-0.168
		s0.019-0.219-0.059-0.297c-0.184-0.185-0.391-0.392-0.556-0.557c-0.179-0.18-0.22-0.456-0.1-0.68
		c0.087-0.163,0.197-0.368,0.319-0.596c0.431-0.805,0.652-1.688,0.675-2.576c0.244,0.326,1.115,1.49,1.844,2.463
		c0.076,0.101,0.214,0.131,0.324,0.07c0.111-0.061,0.16-0.194,0.115-0.312c-0.146-0.391-0.299-0.8-0.435-1.163
		c-0.279-0.745-0.279-1.565,0-2.31c0.136-0.363,0.289-0.772,0.435-1.163c0.044-0.118-0.005-0.251-0.115-0.312
		c-0.111-0.061-0.249-0.031-0.324,0.07c-0.726,0.971-1.595,2.131-1.842,2.461c-0.008-0.89-0.217-1.78-0.637-2.594
		c-0.127-0.246-0.125-0.539,0.004-0.784c0.13-0.245,0.371-0.41,0.646-0.442c1.44-0.168,3.743-0.438,4.495-0.526
		c0.14-0.016,0.246-0.135,0.246-0.276C1380.006,102.84,1379.895,102.729,1379.757,102.729z"/>
</g>
</svg>
