<?xml version="1.0" encoding="utf-8"?>
<!-- Generator: Adobe Illustrator 27.7.0, SVG Export Plug-In . SVG Version: 6.00 Build 0)  -->
<svg version="1.1" xmlns="http://www.w3.org/2000/svg" xmlns:xlink="http://www.w3.org/1999/xlink" x="0px" y="0px" width="1570px"
	 height="145px" viewBox="0 0 1570 145" style="enable-background:new 0 0 1570 145;" xml:space="preserve">
<g id="background">
	
		<path style="fill:#00B365;stroke:#00B365;stroke-width:10;stroke-linecap:round;stroke-linejoin:round;stroke-miterlimit:10;stroke-dasharray:0,10;" d="
		M1584.986,652.5H860.188c-50.983,0-92.313,41.33-92.313,92.313v2.873c0,50.983-41.33,92.313-92.313,92.313H398.868
		c-50.983,0-92.313,41.33-92.313,92.313v0c0,50.983-41.33,92.313-92.313,92.313h-401.797c-50.983,0-92.313-41.33-92.313-92.313
		V-677.518c0-50.983,41.33-92.313,92.313-92.313h1690.308c57.247,0,100.691,51.567,90.974,107.983L1584.986,652.5z"/>
	<g>
		<path style="fill:#77D629;" d="M1604.651-507.5h-593.562c-40.041,0-72.5,32.459-72.5,72.5v0c0,40.041-32.459,72.5-72.5,72.5
			H686.601c-40.041,0-72.5,32.459-72.5,72.5v145c0,40.041-32.459,72.5-72.5,72.5h-3.561c-40.041,0-72.5,32.459-72.5,72.5v0
			c0,40.041-32.459,72.5-72.5,72.5H-101.65V-1885h901.13c25.641,0,49.375,13.544,62.419,35.62l350.29,592.853
			c12.262,20.754,34.038,34.055,58.101,35.491l332.874,19.859c45.364,2.706,77.083,46.001,65.989,90.071L1604.651-507.5z"/>
		<g>
			
				<path style="fill:none;stroke:#77D629;stroke-width:10;stroke-linecap:round;stroke-linejoin:round;stroke-dasharray:0,9.9982;" d="
				M1594.653-507.5h-583.563c-40.041,0-72.5,32.459-72.5,72.5s-32.459,72.5-72.5,72.5H686.601c-40.041,0-72.5,32.459-72.5,72.5v145
				c0,40.041-32.459,72.5-72.5,72.5h-3.561c-40.041,0-72.5,32.459-72.5,72.5s-32.459,72.5-72.5,72.5H-96.651"/>
		</g>
	</g>
	
		<path style="fill:#77D629;stroke:#77D629;stroke-width:10;stroke-linecap:round;stroke-linejoin:round;stroke-miterlimit:10;stroke-dasharray:0,10;" d="
		M1614.932-320.072h-345.339c-43.903,0-79.493,35.59-79.493,79.493v0c0,43.903-35.59,79.493-79.493,79.493H947.917
		c-28.826,0-52.195,23.368-52.195,52.195v49.87c0,28.826-23.368,52.195-52.195,52.195h0c-28.826,0-52.195,23.368-52.195,52.195v148
		c0,49.598,40.207,89.805,89.805,89.805h69.773c37.098,0,67.173,30.074,67.173,67.173v0c0,37.098,30.074,67.173,67.173,67.173
		h558.347L1614.932-320.072z"/>
	<path style="fill:#4EEAE6;" d="M1323.17,112.073h324.551v-40H1323.17c-83.343,0-150.905,67.563-150.905,150.905v112.663
		c0,83.175,67.641,150.85,150.804,150.905c36.394,0.024,66.174,29.677,66.174,66.071v112.479c0,17.895-14.507,32.402-32.402,32.402
		H860.188c-26.13,0-47.313,21.183-47.313,47.313v2.873c0,75.836-61.477,137.313-137.313,137.313H398.478
		c-26.088,0-46.914,21.276-46.923,47.364c-0.026,71.284-54.649,130.043-124.24,136.646l-4.987,34.445h1346.787V697.5h-107.471
		c-17.895,0-32.402-14.507-32.402-32.402V553.614c0-58.284-47.681-107.122-105.965-107.067
		c-61.202,0.058-111.013-49.716-111.013-110.905V222.979C1212.265,161.727,1261.919,112.073,1323.17,112.073z"/>
	<g>
		
			<path style="fill:none;stroke:#77D629;stroke-width:10;stroke-linecap:round;stroke-linejoin:round;stroke-miterlimit:10;stroke-dasharray:0,10;" d="
			M1196.288,417.255c-15.197-23.544-24.024-51.567-24.024-81.614V222.979c0-83.21,67.695-150.905,150.905-150.905h324.551v40
			H1323.17c-61.153,0-110.905,49.752-110.905,110.905v112.663c0,32.391,13.958,61.584,36.175,81.879"/>
	</g>
</g>
<g id="aulas" style="display:none;">
	<g style="display:inline;">
		<rect x="368.174" style="fill-rule:evenodd;clip-rule:evenodd;fill:#FFFFFF;" width="33.652" height="145"/>
		<circle style="fill-rule:evenodd;clip-rule:evenodd;fill:#5654A2;" cx="385" cy="72.5" r="42.5"/>
	</g>
</g>
<g id="Details">
	<g>
		<path style="fill-rule:evenodd;clip-rule:evenodd;fill:#374315;" d="M619.487,80.666h-7.036c0,0,0,12.97,0,19.396
			c0,1.945,1.574,3.523,3.515,3.523c0.002,0,0.004,0,0.007,0c1.941,0,3.515-1.577,3.515-3.523
			C619.487,93.636,619.487,80.666,619.487,80.666z"/>
		<path style="fill-rule:evenodd;clip-rule:evenodd;fill:#8FC300;" d="M633.526,79.587c-0.523-0.82-1.611-1.058-2.429-0.533
			s-1.056,1.617-0.532,2.437l3.764,5.896c0.523,0.82,1.611,1.058,2.429,0.533c0.817-0.525,1.056-1.617,0.532-2.437L633.526,79.587z"
			/>
		<path style="fill-rule:evenodd;clip-rule:evenodd;fill:#8FC300;" d="M620.442,58.95c-1.078-1.701-2.95-2.731-4.961-2.731
			c-2.011,0-3.882,1.03-4.961,2.731c-5.876,9.267-14.876,23.461-14.876,23.461c0,8.058,8.889,14.6,19.837,14.6
			c10.948,0,19.837-6.542,19.837-14.6C635.318,82.412,626.318,68.217,620.442,58.95z"/>
		<g>
			<defs>
				<path id="SVGID_00000003785322411069073260000014285923998158149519_" d="M620.442,58.95c-1.078-1.701-2.95-2.731-4.961-2.731
					c-2.011,0-3.882,1.03-4.961,2.731c-5.876,9.267-14.876,23.461-14.876,23.461c0,8.058,8.889,14.6,19.837,14.6
					c10.948,0,19.837-6.542,19.837-14.6C635.318,82.412,626.318,68.217,620.442,58.95z"/>
			</defs>
			<clipPath id="SVGID_00000163031199516529161180000001649739547312313747_">
				<use xlink:href="#SVGID_00000003785322411069073260000014285923998158149519_"  style="overflow:visible;"/>
			</clipPath>
			
				<path style="clip-path:url(#SVGID_00000163031199516529161180000001649739547312313747_);fill-rule:evenodd;clip-rule:evenodd;fill:#5AAA00;" d="
				M619.565,45.822c-1.117-1.351-2.775-2.132-4.525-2.132c-1.75,0-3.409,0.781-4.526,2.131
				c-5.853,7.086-15.311,19.533-15.311,26.013c0,8.058,8.889,14.6,19.837,14.6c10.948,0,19.837-6.542,19.837-14.6
				C634.878,65.353,625.42,52.906,619.565,45.822z"/>
		</g>
		<path style="fill-rule:evenodd;clip-rule:evenodd;fill:#8FC300;" d="M608.685,93.648c0.104-0.967,0.972-1.668,1.937-1.564
			c0.965,0.104,1.665,0.974,1.561,1.941l-0.323,3.01c-0.104,0.967-0.972,1.668-1.937,1.564c-0.965-0.104-1.664-0.974-1.561-1.942
			L608.685,93.648z"/>
		<path style="fill-rule:evenodd;clip-rule:evenodd;fill:#8FC300;" d="M596.75,80.673c0.524-0.819,1.613-1.057,2.43-0.532
			s1.055,1.617,0.531,2.436l-3.142,4.909c-0.524,0.819-1.613,1.057-2.43,0.532c-0.817-0.525-1.055-1.617-0.531-2.436L596.75,80.673z
			"/>
		<path style="fill-rule:evenodd;clip-rule:evenodd;fill:#5AAA00;" d="M616.8,86.434c0-0.973-0.788-1.763-1.759-1.763
			c-0.971,0-1.759,0.79-1.759,1.763v1.763c0,0.973,0.788,1.763,1.759,1.763c0.971,0,1.759-0.79,1.759-1.763V86.434z"/>
		<path style="fill-rule:evenodd;clip-rule:evenodd;fill:#5AAA00;" d="M622.884,89.75c-0.119-0.966-0.998-1.653-1.962-1.533
			c-0.964,0.12-1.649,1.001-1.529,1.966l0.216,1.75c0.119,0.966,0.999,1.653,1.962,1.533c0.963-0.12,1.649-1.001,1.529-1.966
			L622.884,89.75z"/>
		<path style="fill-rule:evenodd;clip-rule:evenodd;fill:#5AAA00;" d="M607.322,89.75c0.12-0.966,0.999-1.653,1.962-1.533
			c0.963,0.12,1.649,1.001,1.529,1.966l-0.216,1.75c-0.119,0.966-0.999,1.653-1.962,1.533c-0.964-0.12-1.649-1.001-1.529-1.966
			L607.322,89.75z"/>
		<path style="fill-rule:evenodd;clip-rule:evenodd;fill:#5AAA00;" d="M627.486,82.748c-0.292-0.928-1.28-1.444-2.206-1.152
			c-0.926,0.293-1.441,1.283-1.149,2.211l0.741,2.356c0.292,0.928,1.28,1.444,2.206,1.152c0.926-0.292,1.441-1.283,1.149-2.211
			L627.486,82.748z"/>
		<path style="fill-rule:evenodd;clip-rule:evenodd;fill:#5AAA00;" d="M603.737,83.548c0.292-0.928,1.28-1.444,2.206-1.152
			c0.926,0.292,1.441,1.283,1.149,2.211l-0.741,2.356c-0.292,0.928-1.28,1.444-2.206,1.152c-0.926-0.293-1.441-1.283-1.149-2.211
			L603.737,83.548z"/>
		<path style="fill-rule:evenodd;clip-rule:evenodd;fill:#5AAA00;" d="M631.829,79.428c-0.485-0.843-1.562-1.132-2.403-0.645
			c-0.841,0.486-1.129,1.566-0.644,2.408l1.591,2.762c0.486,0.843,1.562,1.132,2.403,0.645c0.841-0.487,1.129-1.566,0.644-2.408
			L631.829,79.428z"/>
		<path style="fill-rule:evenodd;clip-rule:evenodd;fill:#5AAA00;" d="M599.411,79.334c0.485-0.843,1.562-1.132,2.403-0.645
			c0.841,0.486,1.129,1.566,0.644,2.408l-1.591,2.762c-0.486,0.843-1.562,1.132-2.403,0.645c-0.841-0.487-1.129-1.566-0.644-2.408
			L599.411,79.334z"/>
		<path style="fill-rule:evenodd;clip-rule:evenodd;fill:#A2D500;" d="M619.979,52.644c-1.083-1.68-2.942-2.695-4.938-2.695
			c-1.996,0-3.855,1.015-4.938,2.695c-4.913,7.625-11.724,18.196-11.724,18.196c0,6.66,7.466,12.068,16.661,12.068
			c9.196,0,16.661-5.408,16.661-12.068C631.702,70.84,624.891,60.269,619.979,52.644z"/>
		<g>
			<defs>
				<path id="SVGID_00000154384324523359176470000008075388517496903813_" d="M619.979,52.644c-1.083-1.68-2.942-2.695-4.938-2.695
					c-1.996,0-3.855,1.015-4.938,2.695c-4.913,7.625-11.724,18.196-11.724,18.196c0,6.66,7.466,12.068,16.661,12.068
					c9.196,0,16.661-5.408,16.661-12.068C631.702,70.84,624.891,60.269,619.979,52.644z"/>
			</defs>
			<clipPath id="SVGID_00000079451287757761315280000008974668018323733941_">
				<use xlink:href="#SVGID_00000154384324523359176470000008075388517496903813_"  style="overflow:visible;"/>
			</clipPath>
			
				<path style="clip-path:url(#SVGID_00000079451287757761315280000008974668018323733941_);fill-rule:evenodd;clip-rule:evenodd;fill:#8FC300;" d="
				M619.561,37.861c-1.117-1.347-2.773-2.126-4.52-2.126c-1.747,0-3.404,0.779-4.52,2.126c-4.934,5.958-12.141,15.535-12.141,20.638
				c0,6.66,7.466,12.068,16.661,12.068c9.196,0,16.661-5.408,16.661-12.068C631.702,53.397,624.495,43.82,619.561,37.861z"/>
			
				<path style="clip-path:url(#SVGID_00000079451287757761315280000008974668018323733941_);fill-rule:evenodd;clip-rule:evenodd;fill:#8FC300;" d="
				M606.059,69.158c0.485-0.843,0.197-1.922-0.644-2.408c-0.841-0.486-1.917-0.197-2.403,0.645l-1.759,3.053
				c-0.485,0.843-0.197,1.922,0.644,2.408c0.841,0.486,1.917,0.197,2.403-0.645L606.059,69.158z"/>
			
				<path style="clip-path:url(#SVGID_00000079451287757761315280000008974668018323733941_);fill-rule:evenodd;clip-rule:evenodd;fill:#8FC300;" d="
				M610.232,75.6c0.318-0.92-0.169-1.924-1.087-2.243c-0.917-0.318-1.92,0.17-2.238,1.089l-0.575,1.666
				c-0.318,0.919,0.169,1.924,1.087,2.243c0.917,0.318,1.92-0.17,2.238-1.089L610.232,75.6z"/>
			
				<path style="clip-path:url(#SVGID_00000079451287757761315280000008974668018323733941_);fill-rule:evenodd;clip-rule:evenodd;fill:#8FC300;" d="
				M617.728,74.093c0-0.973-0.788-1.763-1.759-1.763c-0.971,0-1.759,0.79-1.759,1.763v1.763c0,0.973,0.788,1.763,1.759,1.763
				c0.971,0,1.759-0.79,1.759-1.763V74.093z"/>
			
				<path style="clip-path:url(#SVGID_00000079451287757761315280000008974668018323733941_);fill-rule:evenodd;clip-rule:evenodd;fill:#8FC300;" d="
				M624.645,74.384c-0.352-0.907-1.372-1.357-2.277-1.004s-1.354,1.375-1.002,2.282l0.637,1.643
				c0.352,0.907,1.372,1.357,2.277,1.004c0.905-0.352,1.354-1.375,1.002-2.282L624.645,74.384z"/>
			
				<path style="clip-path:url(#SVGID_00000079451287757761315280000008974668018323733941_);fill-rule:evenodd;clip-rule:evenodd;fill:#8FC300;" d="
				M627.403,66.805c-0.486-0.843-1.562-1.132-2.403-0.645c-0.841,0.486-1.129,1.566-0.644,2.408l1.523,2.644
				c0.485,0.843,1.562,1.132,2.403,0.645c0.841-0.486,1.129-1.566,0.644-2.408L627.403,66.805z"/>
		</g>
		<path style="fill-rule:evenodd;clip-rule:evenodd;fill:#A2D500;" d="M618.198,42.873c-0.605-0.911-1.625-1.458-2.716-1.458
			c-1.092,0-2.111,0.547-2.716,1.458c-3.758,5.655-10.085,15.177-10.085,15.177c0,2.893,1.95,5.468,4.976,7.113
			c2.164,1.176,4.879,1.877,7.825,1.877c7.065,0,12.801-4.028,12.801-8.99C628.282,58.051,621.955,48.529,618.198,42.873z"/>
		<g>
			<defs>
				<path id="SVGID_00000150091778288941620140000001565548091881638591_" d="M618.198,42.873c-0.605-0.911-1.625-1.458-2.716-1.458
					c-1.092,0-2.111,0.547-2.716,1.458c-3.758,5.655-10.085,15.177-10.085,15.177c0,2.893,1.95,5.468,4.976,7.113
					c2.164,1.176,4.879,1.877,7.825,1.877c7.065,0,12.801-4.028,12.801-8.99C628.282,58.051,621.955,48.529,618.198,42.873z"/>
			</defs>
			<clipPath id="SVGID_00000016071149740240144440000014517376788332320642_">
				<use xlink:href="#SVGID_00000150091778288941620140000001565548091881638591_"  style="overflow:visible;"/>
			</clipPath>
			
				<path style="clip-path:url(#SVGID_00000016071149740240144440000014517376788332320642_);fill-rule:evenodd;clip-rule:evenodd;fill:#C2ED00;" d="
				M626.523,49.943c0-6.131-4.967-11.109-11.084-11.109h-0.256c-6.118,0-11.084,4.978-11.084,11.109v0.47
				c0,6.131,4.967,11.109,11.084,11.109h0.256c6.117,0,11.084-4.978,11.084-11.109V49.943z"/>
			
				<path style="clip-path:url(#SVGID_00000016071149740240144440000014517376788332320642_);fill-rule:evenodd;clip-rule:evenodd;fill:#A2D500;" d="
				M616.046,49.886c0.261-0.937-0.286-1.91-1.221-2.172c-0.935-0.262-1.906,0.286-2.167,1.223l-0.141,0.507
				c-0.261,0.937,0.286,1.91,1.221,2.172c0.935,0.262,1.906-0.286,2.167-1.223L616.046,49.886z"/>
			
				<path style="clip-path:url(#SVGID_00000016071149740240144440000014517376788332320642_);fill-rule:evenodd;clip-rule:evenodd;fill:#A2D500;" d="
				M610.9,53.778c0.416-0.879,0.042-1.931-0.835-2.348c-0.877-0.417-1.927-0.042-2.343,0.837l-0.754,1.593
				c-0.416,0.879-0.042,1.931,0.835,2.348c0.877,0.417,1.927,0.042,2.343-0.837L610.9,53.778z"/>
			
				<path style="clip-path:url(#SVGID_00000016071149740240144440000014517376788332320642_);fill-rule:evenodd;clip-rule:evenodd;fill:#A2D500;" d="
				M617.728,56.463c0-0.973-0.788-1.763-1.759-1.763c-0.971,0-1.759,0.79-1.759,1.763v1.763c0,0.973,0.788,1.763,1.759,1.763
				c0.971,0,1.759-0.79,1.759-1.763V56.463z"/>
			
				<path style="clip-path:url(#SVGID_00000016071149740240144440000014517376788332320642_);fill-rule:evenodd;clip-rule:evenodd;fill:#A2D500;" d="
				M622.325,50.527c-0.488-0.841-1.566-1.127-2.405-0.638c-0.839,0.489-1.124,1.569-0.636,2.41l0.884,1.524
				c0.488,0.841,1.566,1.127,2.405,0.638c0.839-0.489,1.124-1.569,0.636-2.41L622.325,50.527z"/>
		</g>
		<path style="fill-rule:evenodd;clip-rule:evenodd;fill:#C2ED00;" d="M613.282,66.901c0-0.973,0.788-1.763,1.759-1.763
			c0.971,0,1.759,0.79,1.759,1.763v0.14c0,0.973-0.788,1.763-1.759,1.763c-0.971,0-1.759-0.79-1.759-1.763V66.901z"/>
		<path style="fill-rule:evenodd;clip-rule:evenodd;fill:#C2ED00;" d="M603.937,62.607c0.365-0.902,1.392-1.336,2.291-0.97
			c0.9,0.366,1.333,1.395,0.968,2.297l-0.052,0.129c-0.365,0.902-1.392,1.336-2.292,0.97c-0.899-0.366-1.333-1.395-0.968-2.297
			L603.937,62.607z"/>
		<path style="fill-rule:evenodd;clip-rule:evenodd;fill:#C2ED00;" d="M626.718,62.59c-0.365-0.902-1.392-1.336-2.291-0.97
			c-0.9,0.366-1.333,1.395-0.968,2.297l0.052,0.129c0.365,0.902,1.392,1.336,2.292,0.97c0.899-0.366,1.333-1.395,0.968-2.297
			L626.718,62.59z"/>
		<path style="fill-rule:evenodd;clip-rule:evenodd;fill:#C2ED00;" d="M601.333,58.271c0.524-0.819,1.613-1.057,2.43-0.532
			c0.817,0.525,1.055,1.617,0.531,2.436l-0.075,0.117c-0.524,0.819-1.613,1.057-2.43,0.532c-0.817-0.525-1.055-1.617-0.531-2.436
			L601.333,58.271z"/>
		<path style="fill-rule:evenodd;clip-rule:evenodd;fill:#A6D320;" d="M596.974,71.261c0.524-0.819,1.613-1.057,2.43-0.532
			c0.817,0.525,1.055,1.617,0.531,2.436l-0.075,0.117c-0.524,0.819-1.613,1.057-2.43,0.532c-0.817-0.525-1.055-1.617-0.531-2.436
			L596.974,71.261z"/>
		<path style="fill-rule:evenodd;clip-rule:evenodd;fill:#A2D500;" d="M633.455,71.261c-0.524-0.819-1.613-1.057-2.43-0.532
			c-0.817,0.525-1.055,1.617-0.531,2.436l0.075,0.117c0.524,0.819,1.613,1.057,2.43,0.532c0.817-0.525,1.055-1.617,0.531-2.436
			L633.455,71.261z"/>
		<path style="fill-rule:evenodd;clip-rule:evenodd;fill:#A2D500;" d="M602.703,78.999c0.524-0.819,1.613-1.057,2.43-0.532
			c0.817,0.525,1.055,1.617,0.531,2.436l-0.075,0.117c-0.524,0.819-1.613,1.057-2.43,0.532c-0.817-0.525-1.055-1.617-0.531-2.436
			L602.703,78.999z"/>
		<path style="fill-rule:evenodd;clip-rule:evenodd;fill:#A2D500;" d="M627.726,78.999c-0.524-0.819-1.613-1.057-2.43-0.532
			c-0.817,0.525-1.055,1.617-0.531,2.436l0.075,0.117c0.524,0.819,1.613,1.057,2.43,0.532c0.817-0.525,1.055-1.617,0.531-2.436
			L627.726,78.999z"/>
		<path style="fill-rule:evenodd;clip-rule:evenodd;fill:#8FC300;" d="M632.19,87.882c-0.547-0.804-1.643-1.011-2.445-0.462
			c-0.802,0.549-1.008,1.646-0.461,2.45l1.386,2.035c0.547,0.803,1.643,1.011,2.444,0.462c0.802-0.549,1.008-1.646,0.461-2.45
			L632.19,87.882z"/>
		<path style="fill-rule:evenodd;clip-rule:evenodd;fill:#A2D500;" d="M606.617,81.346c0.286-0.93,1.272-1.452,2.199-1.165
			c0.928,0.287,1.448,1.275,1.162,2.204l-0.041,0.133c-0.286,0.93-1.272,1.452-2.199,1.165s-1.448-1.275-1.162-2.204L606.617,81.346
			z"/>
		<path style="fill-rule:evenodd;clip-rule:evenodd;fill:#A2D500;" d="M623.812,81.346c-0.286-0.93-1.272-1.452-2.199-1.165
			c-0.928,0.287-1.449,1.275-1.162,2.204l0.041,0.133c0.286,0.93,1.272,1.452,2.199,1.165c0.927-0.287,1.448-1.275,1.162-2.204
			L623.812,81.346z"/>
		<path style="fill-rule:evenodd;clip-rule:evenodd;fill:#8FC300;" d="M627.33,93.804c-0.286-0.93-1.272-1.452-2.199-1.165
			c-0.928,0.287-1.449,1.275-1.162,2.204l0.041,0.133c0.286,0.93,1.272,1.452,2.199,1.165c0.927-0.287,1.448-1.275,1.162-2.204
			L627.33,93.804z"/>
		<path style="fill-rule:evenodd;clip-rule:evenodd;fill:#8FC300;" d="M602.981,92.125c0.286-0.93,1.272-1.452,2.199-1.165
			c0.928,0.287,1.449,1.275,1.162,2.204l-0.7,2.274c-0.286,0.93-1.272,1.452-2.199,1.165c-0.928-0.287-1.449-1.275-1.162-2.204
			L602.981,92.125z"/>
		<path style="fill-rule:evenodd;clip-rule:evenodd;fill:#A2D500;" d="M611.201,83.036c0.104-0.967,0.972-1.668,1.937-1.564
			c0.965,0.104,1.664,0.974,1.561,1.941l-0.015,0.139c-0.104,0.967-0.972,1.668-1.937,1.564c-0.965-0.104-1.664-0.974-1.561-1.941
			L611.201,83.036z"/>
		<path style="fill-rule:evenodd;clip-rule:evenodd;fill:#A2D500;" d="M619.228,83.036c-0.104-0.967-0.972-1.668-1.937-1.564
			c-0.965,0.104-1.665,0.974-1.561,1.941l0.015,0.139c0.104,0.967,0.972,1.668,1.937,1.564c0.965-0.104,1.664-0.974,1.561-1.941
			L619.228,83.036z"/>
		<path style="fill-rule:evenodd;clip-rule:evenodd;fill:#8FC300;" d="M622.746,95.494c-0.104-0.967-0.972-1.668-1.937-1.564
			c-0.965,0.104-1.665,0.974-1.561,1.941l0.015,0.139c0.104,0.967,0.972,1.668,1.937,1.564c0.965-0.104,1.664-0.974,1.561-1.942
			L622.746,95.494z"/>
		<path style="fill-rule:evenodd;clip-rule:evenodd;fill:#A2D500;" d="M599.085,75.74c0.524-0.819,1.613-1.057,2.43-0.532
			s1.055,1.617,0.531,2.436l-0.075,0.117c-0.524,0.819-1.613,1.057-2.43,0.532c-0.817-0.525-1.055-1.617-0.531-2.436L599.085,75.74z
			"/>
		<path style="fill-rule:evenodd;clip-rule:evenodd;fill:#A2D500;" d="M631.344,75.74c-0.524-0.819-1.613-1.057-2.43-0.532
			s-1.055,1.617-0.531,2.436l0.075,0.117c0.524,0.819,1.613,1.057,2.43,0.532c0.817-0.525,1.055-1.617,0.531-2.436L631.344,75.74z"
			/>
		<path style="fill-rule:evenodd;clip-rule:evenodd;fill:#8FC300;" d="M599.335,87.852c0.524-0.819,1.613-1.057,2.43-0.532
			c0.817,0.525,1.055,1.617,0.531,2.436l-2.097,3.276c-0.524,0.819-1.613,1.057-2.43,0.532c-0.817-0.525-1.055-1.617-0.531-2.436
			L599.335,87.852z"/>
		<path style="fill-rule:evenodd;clip-rule:evenodd;fill:#C2ED00;" d="M629.322,58.254c-0.524-0.819-1.613-1.057-2.43-0.532
			c-0.817,0.525-1.055,1.617-0.531,2.436l0.075,0.117c0.524,0.819,1.613,1.057,2.43,0.532c0.817-0.525,1.055-1.617,0.531-2.436
			L629.322,58.254z"/>
		<path style="fill-rule:evenodd;clip-rule:evenodd;fill:#C2ED00;" d="M607.845,65.592c0.159-0.96,1.065-1.61,2.023-1.451
			c0.958,0.159,1.606,1.068,1.448,2.028l-0.023,0.138c-0.159,0.96-1.065,1.61-2.023,1.451c-0.958-0.159-1.606-1.068-1.448-2.028
			L607.845,65.592z"/>
		<path style="fill-rule:evenodd;clip-rule:evenodd;fill:#C2ED00;" d="M622.81,65.574c-0.159-0.96-1.065-1.61-2.023-1.451
			c-0.958,0.159-1.606,1.068-1.448,2.028l0.023,0.138c0.159,0.96,1.065,1.61,2.023,1.451c0.958-0.159,1.607-1.068,1.448-2.028
			L622.81,65.574z"/>
	</g>
	<g style="opacity:0.3308;">
		<g>
			<path style="fill:#009252;" d="M1237.594,53.392c0.87,0,1.575-0.706,1.575-1.579V46.87c0-0.873-0.705-1.579-1.575-1.579
				s-1.575,0.706-1.575,1.579v4.944C1236.019,52.686,1236.724,53.392,1237.594,53.392z"/>
		</g>
		<g>
			<path style="fill:#009252;" d="M1231.017,53.392c0.87,0,1.575-0.706,1.575-1.579v-3.295c0-0.873-0.705-1.579-1.575-1.579
				s-1.575,0.706-1.575,1.579v3.295C1229.442,52.686,1230.147,53.392,1231.017,53.392z"/>
		</g>
		<g>
			<path style="fill:#009252;" d="M1243.624,53.392c0.87,0,1.575-0.706,1.575-1.579v-3.295c0-0.873-0.705-1.579-1.575-1.579
				s-1.575,0.706-1.575,1.579v3.295C1242.048,52.686,1242.754,53.392,1243.624,53.392z"/>
		</g>
		<g>
			<path style="fill:#009252;" d="M1219.849,66.44c0.87,0,1.575-0.706,1.575-1.579v-4.944c0-0.873-0.705-1.579-1.575-1.579
				s-1.575,0.706-1.575,1.579v4.944C1218.273,65.734,1218.979,66.44,1219.849,66.44z"/>
		</g>
		<g>
			<path style="fill:#009252;" d="M1213.272,66.44c0.87,0,1.575-0.706,1.575-1.579v-3.297c0-0.873-0.705-1.579-1.575-1.579
				s-1.575,0.706-1.575,1.579v3.297C1211.696,65.734,1212.402,66.44,1213.272,66.44z"/>
		</g>
		<g>
			<path style="fill:#009252;" d="M1225.877,66.44c0.87,0,1.575-0.706,1.575-1.579v-3.297c0-0.873-0.705-1.579-1.575-1.579
				c-0.87,0-1.575,0.706-1.575,1.579v3.297C1224.302,65.734,1225.007,66.44,1225.877,66.44z"/>
		</g>
		<g>
			<path style="fill:#009252;" d="M1213.752,39.109c0.87,0,1.575-0.706,1.575-1.579v-4.944c0-0.873-0.705-1.579-1.575-1.579
				c-0.87,0-1.575,0.706-1.575,1.579v4.944C1212.177,38.403,1212.882,39.109,1213.752,39.109z"/>
		</g>
		<g>
			<path style="fill:#009252;" d="M1207.175,39.109c0.87,0,1.575-0.706,1.575-1.579v-3.297c0-0.873-0.705-1.579-1.575-1.579
				s-1.575,0.706-1.575,1.579v3.297C1205.599,38.403,1206.305,39.109,1207.175,39.109z"/>
		</g>
		<g>
			<path style="fill:#009252;" d="M1219.781,39.109c0.87,0,1.575-0.706,1.575-1.579v-3.297c0-0.873-0.705-1.579-1.575-1.579
				s-1.575,0.706-1.575,1.579v3.297C1218.206,38.403,1218.911,39.109,1219.781,39.109z"/>
		</g>
	</g>
	<g style="opacity:0.3308;">
		<g>
			<path style="fill:#009252;" d="M897.364,81.419c0.87,0,1.575-0.706,1.575-1.579v-4.944c0-0.873-0.705-1.579-1.575-1.579
				s-1.575,0.706-1.575,1.579v4.944C895.789,80.712,896.494,81.419,897.364,81.419z"/>
		</g>
		<g>
			<path style="fill:#009252;" d="M890.787,81.419c0.87,0,1.575-0.706,1.575-1.579v-3.295c0-0.873-0.705-1.579-1.575-1.579
				c-0.87,0-1.575,0.706-1.575,1.579v3.295C889.212,80.712,889.917,81.419,890.787,81.419z"/>
		</g>
		<g>
			<path style="fill:#009252;" d="M903.394,81.419c0.87,0,1.575-0.706,1.575-1.579v-3.295c0-0.873-0.705-1.579-1.575-1.579
				c-0.87,0-1.575,0.706-1.575,1.579v3.295C901.818,80.712,902.524,81.419,903.394,81.419z"/>
		</g>
		<g>
			<path style="fill:#009252;" d="M879.619,94.467c0.87,0,1.575-0.706,1.575-1.579v-4.944c0-0.873-0.705-1.579-1.575-1.579
				s-1.575,0.706-1.575,1.579v4.944C878.043,93.761,878.749,94.467,879.619,94.467z"/>
		</g>
		<g>
			<path style="fill:#009252;" d="M873.042,94.467c0.87,0,1.575-0.706,1.575-1.579v-3.297c0-0.873-0.705-1.579-1.575-1.579
				c-0.87,0-1.575,0.706-1.575,1.579v3.297C871.466,93.761,872.172,94.467,873.042,94.467z"/>
		</g>
		<g>
			<path style="fill:#009252;" d="M885.647,94.467c0.87,0,1.575-0.706,1.575-1.579v-3.297c0-0.873-0.705-1.579-1.575-1.579
				c-0.87,0-1.575,0.706-1.575,1.579v3.297C884.072,93.761,884.777,94.467,885.647,94.467z"/>
		</g>
		<g>
			<path style="fill:#009252;" d="M873.522,67.135c0.87,0,1.575-0.706,1.575-1.579v-4.944c0-0.873-0.705-1.579-1.575-1.579
				c-0.87,0-1.575,0.706-1.575,1.579v4.944C871.947,66.429,872.652,67.135,873.522,67.135z"/>
		</g>
		<g>
			<path style="fill:#009252;" d="M866.945,67.135c0.87,0,1.575-0.706,1.575-1.579v-3.297c0-0.873-0.705-1.579-1.575-1.579
				s-1.575,0.706-1.575,1.579v3.297C865.369,66.429,866.075,67.135,866.945,67.135z"/>
		</g>
		<g>
			<path style="fill:#009252;" d="M879.551,67.135c0.87,0,1.575-0.706,1.575-1.579v-3.297c0-0.873-0.705-1.579-1.575-1.579
				s-1.575,0.706-1.575,1.579v3.297C877.976,66.429,878.681,67.135,879.551,67.135z"/>
		</g>
	</g>
	<g>
		<rect x="106.709" y="41.404" style="fill-rule:evenodd;clip-rule:evenodd;fill:#3643AC;" width="48.431" height="48.541"/>
		<g>
			<defs>
				<rect id="SVGID_00000120558774257827838710000009017987407027964571_" x="106.709" y="41.404" width="48.431" height="48.541"/>
			</defs>
			<clipPath id="SVGID_00000063629130846146933630000007704749139557629629_">
				<use xlink:href="#SVGID_00000120558774257827838710000009017987407027964571_"  style="overflow:visible;"/>
			</clipPath>
			
				<rect x="106.709" y="52.022" style="clip-path:url(#SVGID_00000063629130846146933630000007704749139557629629_);fill-rule:evenodd;clip-rule:evenodd;fill:#538B9C;" width="7.567" height="7.585"/>
			
				<path style="opacity:0.7815;clip-path:url(#SVGID_00000063629130846146933630000007704749139557629629_);fill-rule:evenodd;clip-rule:evenodd;fill:#FFFFFF;" d="
				M106.709,59.607h7.567v-7.585h-7.567V59.607z M103.682,62.641h13.621V48.988h-13.621V62.641z"/>
			
				<rect x="106.709" y="52.022" style="clip-path:url(#SVGID_00000063629130846146933630000007704749139557629629_);fill-rule:evenodd;clip-rule:evenodd;fill:#286474;" width="7.567" height="3.034"/>
			
				<rect x="106.709" y="71.742" style="clip-path:url(#SVGID_00000063629130846146933630000007704749139557629629_);fill-rule:evenodd;clip-rule:evenodd;fill:#538B9C;" width="7.567" height="7.585"/>
			
				<path style="opacity:0.65;clip-path:url(#SVGID_00000063629130846146933630000007704749139557629629_);fill-rule:evenodd;clip-rule:evenodd;fill:#FFFFFF;" d="
				M106.709,79.326h7.567v-7.585h-7.567V79.326z M103.682,82.36h13.621V68.708h-13.621V82.36z"/>
			
				<rect x="106.709" y="71.742" style="clip-path:url(#SVGID_00000063629130846146933630000007704749139557629629_);fill-rule:evenodd;clip-rule:evenodd;fill:#286474;" width="7.567" height="3.034"/>
			
				<rect x="147.572" y="52.022" style="clip-path:url(#SVGID_00000063629130846146933630000007704749139557629629_);fill-rule:evenodd;clip-rule:evenodd;fill:#538B9C;" width="7.567" height="7.585"/>
			
				<path style="opacity:0.7815;clip-path:url(#SVGID_00000063629130846146933630000007704749139557629629_);fill-rule:evenodd;clip-rule:evenodd;fill:#FFFFFF;" d="
				M147.572,59.607h7.567v-7.585h-7.567V59.607z M144.545,62.641h13.621V48.988h-13.621V62.641z"/>
			
				<rect x="147.572" y="52.022" style="clip-path:url(#SVGID_00000063629130846146933630000007704749139557629629_);fill-rule:evenodd;clip-rule:evenodd;fill:#286474;" width="7.567" height="3.034"/>
			
				<rect x="147.572" y="71.742" style="clip-path:url(#SVGID_00000063629130846146933630000007704749139557629629_);fill-rule:evenodd;clip-rule:evenodd;fill:#538B9C;" width="7.567" height="7.585"/>
			
				<path style="opacity:0.65;clip-path:url(#SVGID_00000063629130846146933630000007704749139557629629_);fill-rule:evenodd;clip-rule:evenodd;fill:#FFFFFF;" d="
				M147.572,79.326h7.567v-7.585h-7.567V79.326z M144.545,82.36h13.621V68.708h-13.621V82.36z"/>
			
				<rect x="147.572" y="71.742" style="clip-path:url(#SVGID_00000063629130846146933630000007704749139557629629_);fill-rule:evenodd;clip-rule:evenodd;fill:#286474;" width="7.567" height="3.034"/>
		</g>
		<rect x="168.76" y="41.404" style="fill-rule:evenodd;clip-rule:evenodd;fill:#3643AC;" width="48.431" height="48.541"/>
		<g>
			<defs>
				<rect id="SVGID_00000000917481889403466910000000890852152789145278_" x="168.76" y="41.404" width="48.431" height="48.541"/>
			</defs>
			<clipPath id="SVGID_00000126314247002203624430000012043963349065139123_">
				<use xlink:href="#SVGID_00000000917481889403466910000000890852152789145278_"  style="overflow:visible;"/>
			</clipPath>
			
				<rect x="168.76" y="52.022" style="clip-path:url(#SVGID_00000126314247002203624430000012043963349065139123_);fill-rule:evenodd;clip-rule:evenodd;fill:#538B9C;" width="7.567" height="7.585"/>
			
				<path style="opacity:0.7815;clip-path:url(#SVGID_00000126314247002203624430000012043963349065139123_);fill-rule:evenodd;clip-rule:evenodd;fill:#FFFFFF;" d="
				M168.76,59.607h7.567v-7.585h-7.567V59.607z M165.733,62.641h13.621V48.988h-13.621V62.641z"/>
			
				<rect x="168.76" y="52.022" style="clip-path:url(#SVGID_00000126314247002203624430000012043963349065139123_);fill-rule:evenodd;clip-rule:evenodd;fill:#286474;" width="7.567" height="3.034"/>
			
				<rect x="168.76" y="71.742" style="clip-path:url(#SVGID_00000126314247002203624430000012043963349065139123_);fill-rule:evenodd;clip-rule:evenodd;fill:#538B9C;" width="7.567" height="7.585"/>
			
				<path style="opacity:0.65;clip-path:url(#SVGID_00000126314247002203624430000012043963349065139123_);fill-rule:evenodd;clip-rule:evenodd;fill:#FFFFFF;" d="
				M168.76,79.326h7.567v-7.585h-7.567V79.326z M165.733,82.36h13.621V68.708h-13.621V82.36z"/>
			
				<rect x="168.76" y="71.742" style="clip-path:url(#SVGID_00000126314247002203624430000012043963349065139123_);fill-rule:evenodd;clip-rule:evenodd;fill:#286474;" width="7.567" height="3.034"/>
			
				<rect x="209.624" y="52.022" style="clip-path:url(#SVGID_00000126314247002203624430000012043963349065139123_);fill-rule:evenodd;clip-rule:evenodd;fill:#538B9C;" width="7.567" height="7.585"/>
			
				<path style="opacity:0.7815;clip-path:url(#SVGID_00000126314247002203624430000012043963349065139123_);fill-rule:evenodd;clip-rule:evenodd;fill:#FFFFFF;" d="
				M209.624,59.607h7.567v-7.585h-7.567V59.607z M206.597,62.641h13.621V48.988h-13.621V62.641z"/>
			
				<rect x="209.624" y="52.022" style="clip-path:url(#SVGID_00000126314247002203624430000012043963349065139123_);fill-rule:evenodd;clip-rule:evenodd;fill:#286474;" width="7.567" height="3.034"/>
			
				<rect x="209.624" y="71.742" style="clip-path:url(#SVGID_00000126314247002203624430000012043963349065139123_);fill-rule:evenodd;clip-rule:evenodd;fill:#538B9C;" width="7.567" height="7.585"/>
			
				<path style="opacity:0.65;clip-path:url(#SVGID_00000126314247002203624430000012043963349065139123_);fill-rule:evenodd;clip-rule:evenodd;fill:#FFFFFF;" d="
				M209.624,79.326h7.567v-7.585h-7.567V79.326z M206.597,82.36h13.621V68.708h-13.621V82.36z"/>
			
				<rect x="209.624" y="71.742" style="clip-path:url(#SVGID_00000126314247002203624430000012043963349065139123_);fill-rule:evenodd;clip-rule:evenodd;fill:#286474;" width="7.567" height="3.034"/>
		</g>
		<rect x="230.812" y="41.404" style="fill-rule:evenodd;clip-rule:evenodd;fill:#3643AC;" width="48.431" height="48.541"/>
		<g>
			<defs>
				<rect id="SVGID_00000075858112789689962050000011583372444862103435_" x="230.812" y="41.404" width="48.431" height="48.541"/>
			</defs>
			<clipPath id="SVGID_00000113333801853836113270000017981068507874694842_">
				<use xlink:href="#SVGID_00000075858112789689962050000011583372444862103435_"  style="overflow:visible;"/>
			</clipPath>
			
				<rect x="230.812" y="52.022" style="clip-path:url(#SVGID_00000113333801853836113270000017981068507874694842_);fill-rule:evenodd;clip-rule:evenodd;fill:#538B9C;" width="7.567" height="7.585"/>
			
				<path style="opacity:0.7815;clip-path:url(#SVGID_00000113333801853836113270000017981068507874694842_);fill-rule:evenodd;clip-rule:evenodd;fill:#FFFFFF;" d="
				M230.812,59.607h7.567v-7.585h-7.567V59.607z M227.785,62.641h13.621V48.988h-13.621V62.641z"/>
			
				<rect x="230.812" y="52.022" style="clip-path:url(#SVGID_00000113333801853836113270000017981068507874694842_);fill-rule:evenodd;clip-rule:evenodd;fill:#286474;" width="7.567" height="3.034"/>
			
				<rect x="230.812" y="71.742" style="clip-path:url(#SVGID_00000113333801853836113270000017981068507874694842_);fill-rule:evenodd;clip-rule:evenodd;fill:#538B9C;" width="7.567" height="7.585"/>
			
				<path style="opacity:0.65;clip-path:url(#SVGID_00000113333801853836113270000017981068507874694842_);fill-rule:evenodd;clip-rule:evenodd;fill:#FFFFFF;" d="
				M230.812,79.326h7.567v-7.585h-7.567V79.326z M227.785,82.36h13.621V68.708h-13.621V82.36z"/>
			
				<rect x="230.812" y="71.742" style="clip-path:url(#SVGID_00000113333801853836113270000017981068507874694842_);fill-rule:evenodd;clip-rule:evenodd;fill:#286474;" width="7.567" height="3.034"/>
			
				<rect x="271.676" y="52.022" style="clip-path:url(#SVGID_00000113333801853836113270000017981068507874694842_);fill-rule:evenodd;clip-rule:evenodd;fill:#538B9C;" width="7.567" height="7.585"/>
			
				<path style="opacity:0.7815;clip-path:url(#SVGID_00000113333801853836113270000017981068507874694842_);fill-rule:evenodd;clip-rule:evenodd;fill:#FFFFFF;" d="
				M271.676,59.607h7.567v-7.585h-7.567V59.607z M268.649,62.641h13.621V48.988h-13.621V62.641z"/>
			
				<rect x="271.676" y="52.022" style="clip-path:url(#SVGID_00000113333801853836113270000017981068507874694842_);fill-rule:evenodd;clip-rule:evenodd;fill:#286474;" width="7.567" height="3.034"/>
			
				<rect x="271.676" y="71.742" style="clip-path:url(#SVGID_00000113333801853836113270000017981068507874694842_);fill-rule:evenodd;clip-rule:evenodd;fill:#538B9C;" width="7.567" height="7.585"/>
			
				<path style="opacity:0.65;clip-path:url(#SVGID_00000113333801853836113270000017981068507874694842_);fill-rule:evenodd;clip-rule:evenodd;fill:#FFFFFF;" d="
				M271.676,79.326h7.567v-7.585h-7.567V79.326z M268.649,82.36h13.621V68.708h-13.621V82.36z"/>
			
				<rect x="271.676" y="71.742" style="clip-path:url(#SVGID_00000113333801853836113270000017981068507874694842_);fill-rule:evenodd;clip-rule:evenodd;fill:#286474;" width="7.567" height="3.034"/>
		</g>
		<rect x="106.709" y="44.438" style="fill-rule:evenodd;clip-rule:evenodd;fill:#3643AC;" width="172.534" height="3.034"/>
		<rect x="106.709" y="86.911" style="fill-rule:evenodd;clip-rule:evenodd;fill:#456FB5;" width="48.431" height="48.541"/>
		<g>
			<defs>
				<rect id="SVGID_00000032627116123016395630000004645138518515250093_" x="106.709" y="86.911" width="48.431" height="48.541"/>
			</defs>
			<clipPath id="SVGID_00000018917494995730249220000015284933949945530513_">
				<use xlink:href="#SVGID_00000032627116123016395630000004645138518515250093_"  style="overflow:visible;"/>
			</clipPath>
			
				<rect x="106.709" y="97.529" style="clip-path:url(#SVGID_00000018917494995730249220000015284933949945530513_);fill-rule:evenodd;clip-rule:evenodd;fill:#538B9C;" width="7.567" height="7.585"/>
			
				<path style="clip-path:url(#SVGID_00000018917494995730249220000015284933949945530513_);fill-rule:evenodd;clip-rule:evenodd;fill:#FFFFFF;" d="
				M106.709,105.114h7.567v-7.585h-7.567V105.114z M103.682,108.148h13.621V94.495h-13.621V108.148z"/>
			
				<rect x="106.709" y="97.529" style="clip-path:url(#SVGID_00000018917494995730249220000015284933949945530513_);fill-rule:evenodd;clip-rule:evenodd;fill:#286474;" width="7.567" height="3.034"/>
			
				<rect x="106.709" y="117.249" style="clip-path:url(#SVGID_00000018917494995730249220000015284933949945530513_);fill-rule:evenodd;clip-rule:evenodd;fill:#538B9C;" width="7.567" height="7.585"/>
			
				<path style="clip-path:url(#SVGID_00000018917494995730249220000015284933949945530513_);fill-rule:evenodd;clip-rule:evenodd;fill:#FFFFFF;" d="
				M106.709,124.834h7.567v-7.585h-7.567V124.834z M103.682,127.867h13.621v-13.652h-13.621V127.867z"/>
			
				<rect x="106.709" y="117.249" style="clip-path:url(#SVGID_00000018917494995730249220000015284933949945530513_);fill-rule:evenodd;clip-rule:evenodd;fill:#286474;" width="7.567" height="3.034"/>
			
				<rect x="147.572" y="97.529" style="clip-path:url(#SVGID_00000018917494995730249220000015284933949945530513_);fill-rule:evenodd;clip-rule:evenodd;fill:#538B9C;" width="7.567" height="7.585"/>
			
				<path style="clip-path:url(#SVGID_00000018917494995730249220000015284933949945530513_);fill-rule:evenodd;clip-rule:evenodd;fill:#FFFFFF;" d="
				M147.572,105.114h7.567v-7.585h-7.567V105.114z M144.545,108.148h13.621V94.495h-13.621V108.148z"/>
			
				<rect x="147.572" y="97.529" style="clip-path:url(#SVGID_00000018917494995730249220000015284933949945530513_);fill-rule:evenodd;clip-rule:evenodd;fill:#286474;" width="7.567" height="3.034"/>
			
				<rect x="147.572" y="117.249" style="clip-path:url(#SVGID_00000018917494995730249220000015284933949945530513_);fill-rule:evenodd;clip-rule:evenodd;fill:#538B9C;" width="7.567" height="7.585"/>
			
				<path style="clip-path:url(#SVGID_00000018917494995730249220000015284933949945530513_);fill-rule:evenodd;clip-rule:evenodd;fill:#FFFFFF;" d="
				M147.572,124.834h7.567v-7.585h-7.567V124.834z M144.545,127.867h13.621v-13.652h-13.621V127.867z"/>
			
				<rect x="147.572" y="117.249" style="clip-path:url(#SVGID_00000018917494995730249220000015284933949945530513_);fill-rule:evenodd;clip-rule:evenodd;fill:#286474;" width="7.567" height="3.034"/>
		</g>
		<rect x="126.384" y="97.529" style="fill-rule:evenodd;clip-rule:evenodd;fill:#538B9C;" width="9.081" height="7.585"/>
		<path style="fill-rule:evenodd;clip-rule:evenodd;fill:#FFFFFF;" d="M126.384,105.114h9.081v-7.585h-9.081V105.114z
			 M123.357,108.148h15.135V94.495h-15.135V108.148z"/>
		<rect x="126.384" y="97.529" style="fill-rule:evenodd;clip-rule:evenodd;fill:#286474;" width="9.081" height="3.034"/>
		<rect x="126.384" y="117.249" style="fill-rule:evenodd;clip-rule:evenodd;fill:#538B9C;" width="9.081" height="7.585"/>
		<path style="fill-rule:evenodd;clip-rule:evenodd;fill:#FFFFFF;" d="M126.384,124.834h9.081v-7.585h-9.081V124.834z
			 M123.357,127.867h15.135v-13.652h-15.135V127.867z"/>
		<rect x="126.384" y="117.249" style="fill-rule:evenodd;clip-rule:evenodd;fill:#286474;" width="9.081" height="3.034"/>
		<rect x="168.76" y="86.911" style="fill-rule:evenodd;clip-rule:evenodd;fill:#456FB5;" width="48.431" height="48.541"/>
		<g>
			<defs>
				<rect id="SVGID_00000127726710496952070770000003692029384635442340_" x="168.76" y="86.911" width="48.431" height="48.541"/>
			</defs>
			<clipPath id="SVGID_00000023242806445789551290000005364743868149762732_">
				<use xlink:href="#SVGID_00000127726710496952070770000003692029384635442340_"  style="overflow:visible;"/>
			</clipPath>
			
				<rect x="168.76" y="97.529" style="clip-path:url(#SVGID_00000023242806445789551290000005364743868149762732_);fill-rule:evenodd;clip-rule:evenodd;fill:#538B9C;" width="7.567" height="7.585"/>
			
				<path style="clip-path:url(#SVGID_00000023242806445789551290000005364743868149762732_);fill-rule:evenodd;clip-rule:evenodd;fill:#FFFFFF;" d="
				M168.76,105.114h7.567v-7.585h-7.567V105.114z M165.733,108.148h13.621V94.495h-13.621V108.148z"/>
			
				<rect x="168.76" y="97.529" style="clip-path:url(#SVGID_00000023242806445789551290000005364743868149762732_);fill-rule:evenodd;clip-rule:evenodd;fill:#286474;" width="7.567" height="3.034"/>
			
				<rect x="168.76" y="117.249" style="clip-path:url(#SVGID_00000023242806445789551290000005364743868149762732_);fill-rule:evenodd;clip-rule:evenodd;fill:#538B9C;" width="7.567" height="7.585"/>
			
				<path style="clip-path:url(#SVGID_00000023242806445789551290000005364743868149762732_);fill-rule:evenodd;clip-rule:evenodd;fill:#FFFFFF;" d="
				M168.76,124.834h7.567v-7.585h-7.567V124.834z M165.733,127.867h13.621v-13.652h-13.621V127.867z"/>
			
				<rect x="168.76" y="117.249" style="clip-path:url(#SVGID_00000023242806445789551290000005364743868149762732_);fill-rule:evenodd;clip-rule:evenodd;fill:#286474;" width="7.567" height="3.034"/>
			
				<rect x="209.624" y="97.529" style="clip-path:url(#SVGID_00000023242806445789551290000005364743868149762732_);fill-rule:evenodd;clip-rule:evenodd;fill:#538B9C;" width="7.567" height="7.585"/>
			
				<path style="clip-path:url(#SVGID_00000023242806445789551290000005364743868149762732_);fill-rule:evenodd;clip-rule:evenodd;fill:#FFFFFF;" d="
				M209.624,105.114h7.567v-7.585h-7.567V105.114z M206.597,108.148h13.621V94.495h-13.621V108.148z"/>
			
				<rect x="209.624" y="97.529" style="clip-path:url(#SVGID_00000023242806445789551290000005364743868149762732_);fill-rule:evenodd;clip-rule:evenodd;fill:#286474;" width="7.567" height="3.034"/>
			
				<rect x="209.624" y="117.249" style="clip-path:url(#SVGID_00000023242806445789551290000005364743868149762732_);fill-rule:evenodd;clip-rule:evenodd;fill:#538B9C;" width="7.567" height="7.585"/>
			
				<path style="clip-path:url(#SVGID_00000023242806445789551290000005364743868149762732_);fill-rule:evenodd;clip-rule:evenodd;fill:#FFFFFF;" d="
				M209.624,124.834h7.567v-7.585h-7.567V124.834z M206.597,127.867h13.621v-13.652h-13.621V127.867z"/>
			
				<rect x="209.624" y="117.249" style="clip-path:url(#SVGID_00000023242806445789551290000005364743868149762732_);fill-rule:evenodd;clip-rule:evenodd;fill:#286474;" width="7.567" height="3.034"/>
		</g>
		<rect x="188.435" y="97.529" style="fill-rule:evenodd;clip-rule:evenodd;fill:#538B9C;" width="9.081" height="7.585"/>
		<path style="fill-rule:evenodd;clip-rule:evenodd;fill:#FFFFFF;" d="M188.435,105.114h9.081v-7.585h-9.081V105.114z
			 M185.408,108.148h15.135V94.495h-15.135V108.148z"/>
		<rect x="188.435" y="97.529" style="fill-rule:evenodd;clip-rule:evenodd;fill:#286474;" width="9.081" height="3.034"/>
		<rect x="188.435" y="117.249" style="fill-rule:evenodd;clip-rule:evenodd;fill:#538B9C;" width="9.081" height="7.585"/>
		<path style="fill-rule:evenodd;clip-rule:evenodd;fill:#FFFFFF;" d="M188.435,124.834h9.081v-7.585h-9.081V124.834z
			 M185.408,127.867h15.135v-13.652h-15.135V127.867z"/>
		<rect x="188.435" y="117.249" style="fill-rule:evenodd;clip-rule:evenodd;fill:#286474;" width="9.081" height="3.034"/>
		<rect x="230.812" y="86.911" style="fill-rule:evenodd;clip-rule:evenodd;fill:#456FB5;" width="48.431" height="48.541"/>
		<g>
			<defs>
				<rect id="SVGID_00000091721282409218895740000008764675001542324126_" x="230.812" y="86.911" width="48.431" height="48.541"/>
			</defs>
			<clipPath id="SVGID_00000000917791554260690590000005849633165118871977_">
				<use xlink:href="#SVGID_00000091721282409218895740000008764675001542324126_"  style="overflow:visible;"/>
			</clipPath>
			
				<rect x="230.812" y="97.529" style="clip-path:url(#SVGID_00000000917791554260690590000005849633165118871977_);fill-rule:evenodd;clip-rule:evenodd;fill:#538B9C;" width="7.567" height="7.585"/>
			
				<path style="clip-path:url(#SVGID_00000000917791554260690590000005849633165118871977_);fill-rule:evenodd;clip-rule:evenodd;fill:#FFFFFF;" d="
				M230.812,105.114h7.567v-7.585h-7.567V105.114z M227.785,108.148h13.621V94.495h-13.621V108.148z"/>
			
				<rect x="230.812" y="97.529" style="clip-path:url(#SVGID_00000000917791554260690590000005849633165118871977_);fill-rule:evenodd;clip-rule:evenodd;fill:#286474;" width="7.567" height="3.034"/>
			
				<rect x="230.812" y="117.249" style="clip-path:url(#SVGID_00000000917791554260690590000005849633165118871977_);fill-rule:evenodd;clip-rule:evenodd;fill:#538B9C;" width="7.567" height="7.585"/>
			
				<path style="clip-path:url(#SVGID_00000000917791554260690590000005849633165118871977_);fill-rule:evenodd;clip-rule:evenodd;fill:#FFFFFF;" d="
				M230.812,124.834h7.567v-7.585h-7.567V124.834z M227.785,127.867h13.621v-13.652h-13.621V127.867z"/>
			
				<rect x="230.812" y="117.249" style="clip-path:url(#SVGID_00000000917791554260690590000005849633165118871977_);fill-rule:evenodd;clip-rule:evenodd;fill:#286474;" width="7.567" height="3.034"/>
			
				<rect x="271.676" y="97.529" style="clip-path:url(#SVGID_00000000917791554260690590000005849633165118871977_);fill-rule:evenodd;clip-rule:evenodd;fill:#538B9C;" width="7.567" height="7.585"/>
			
				<path style="clip-path:url(#SVGID_00000000917791554260690590000005849633165118871977_);fill-rule:evenodd;clip-rule:evenodd;fill:#FFFFFF;" d="
				M271.676,105.114h7.567v-7.585h-7.567V105.114z M268.649,108.148h13.621V94.495h-13.621V108.148z"/>
			
				<rect x="271.676" y="97.529" style="clip-path:url(#SVGID_00000000917791554260690590000005849633165118871977_);fill-rule:evenodd;clip-rule:evenodd;fill:#286474;" width="7.567" height="3.034"/>
			
				<rect x="271.676" y="117.249" style="clip-path:url(#SVGID_00000000917791554260690590000005849633165118871977_);fill-rule:evenodd;clip-rule:evenodd;fill:#538B9C;" width="7.567" height="7.585"/>
			
				<path style="clip-path:url(#SVGID_00000000917791554260690590000005849633165118871977_);fill-rule:evenodd;clip-rule:evenodd;fill:#FFFFFF;" d="
				M271.676,124.834h7.567v-7.585h-7.567V124.834z M268.649,127.867h13.621v-13.652h-13.621V127.867z"/>
			
				<rect x="271.676" y="117.249" style="clip-path:url(#SVGID_00000000917791554260690590000005849633165118871977_);fill-rule:evenodd;clip-rule:evenodd;fill:#286474;" width="7.567" height="3.034"/>
		</g>
		<rect x="250.487" y="97.529" style="fill-rule:evenodd;clip-rule:evenodd;fill:#538B9C;" width="9.081" height="7.585"/>
		<path style="fill-rule:evenodd;clip-rule:evenodd;fill:#FFFFFF;" d="M250.487,105.114h9.081v-7.585h-9.081V105.114z
			 M247.46,108.148h15.135V94.495H247.46V108.148z"/>
		<rect x="250.487" y="97.529" style="fill-rule:evenodd;clip-rule:evenodd;fill:#286474;" width="9.081" height="3.034"/>
		<rect x="250.487" y="117.249" style="fill-rule:evenodd;clip-rule:evenodd;fill:#538B9C;" width="9.081" height="7.585"/>
		<path style="fill-rule:evenodd;clip-rule:evenodd;fill:#FFFFFF;" d="M250.487,124.834h9.081v-7.585h-9.081V124.834z
			 M247.46,127.867h15.135v-13.652H247.46V127.867z"/>
		<rect x="250.487" y="117.249" style="fill-rule:evenodd;clip-rule:evenodd;fill:#286474;" width="9.081" height="3.034"/>
		<path style="fill-rule:evenodd;clip-rule:evenodd;fill:#BEEA00;" d="M200.543,65.674h46.917V44.438h-46.917V65.674z
			 M138.491,65.674h46.917V44.438h-46.917V65.674z M279.243,23.2v21.237h-16.648v21.237h16.648v21.237H106.709V65.674h16.648V44.438
			h-16.648V23.2H279.243z"/>
		<path style="fill-rule:evenodd;clip-rule:evenodd;fill:#FFFFFF;" d="M200.543,65.674h46.917V44.438h-46.917V65.674z
			 M138.491,65.674h46.917V44.438h-46.917V65.674z M197.516,68.708h52.971V41.404h-52.971V68.708z M135.464,68.708h52.971V41.404
			h-52.971V68.708z M109.735,26.234v15.17h16.648v27.304h-16.648v15.169h166.48V68.708h-16.648V41.404h16.648v-15.17H109.735z
			 M279.243,44.438h-16.648v21.237h16.648v21.237H106.709V65.674h16.648V44.438h-16.648V23.2h172.534V44.438z"/>
		<rect x="109.735" y="68.708" style="fill-rule:evenodd;clip-rule:evenodd;fill:#CBE4E6;" width="16.648" height="3.034"/>
		<rect x="135.464" y="68.708" style="fill-rule:evenodd;clip-rule:evenodd;fill:#CBE4E6;" width="52.971" height="3.034"/>
		<rect x="197.516" y="68.708" style="fill-rule:evenodd;clip-rule:evenodd;fill:#CBE4E6;" width="52.971" height="3.034"/>
		<rect x="259.568" y="68.708" style="fill-rule:evenodd;clip-rule:evenodd;fill:#CBE4E6;" width="16.648" height="3.034"/>
		<rect x="109.735" y="26.234" style="fill-rule:evenodd;clip-rule:evenodd;fill:#CBE4E6;" width="166.48" height="3.034"/>
		<rect x="266.378" y="12.583" style="fill-rule:evenodd;clip-rule:evenodd;fill:#374315;" width="3.027" height="24.27"/>
		<ellipse style="fill-rule:evenodd;clip-rule:evenodd;fill:#BEEA00;" cx="267.892" cy="17.891" rx="8.324" ry="8.343"/>
		<rect x="117.303" y="12.583" style="fill-rule:evenodd;clip-rule:evenodd;fill:#374315;" width="3.027" height="24.27"/>
		<ellipse style="fill-rule:evenodd;clip-rule:evenodd;fill:#BEEA00;" cx="118.816" cy="17.891" rx="8.324" ry="8.343"/>
		<rect x="164.22" y="12.583" style="fill-rule:evenodd;clip-rule:evenodd;fill:#374315;" width="3.027" height="24.27"/>
		<ellipse style="fill-rule:evenodd;clip-rule:evenodd;fill:#BEEA00;" cx="165.733" cy="17.891" rx="8.324" ry="8.343"/>
		<rect x="219.461" y="12.583" style="fill-rule:evenodd;clip-rule:evenodd;fill:#374315;" width="3.027" height="24.27"/>
		<ellipse style="fill-rule:evenodd;clip-rule:evenodd;fill:#BEEA00;" cx="220.975" cy="17.891" rx="8.324" ry="8.343"/>
		<rect x="106.709" y="86.911" style="fill-rule:evenodd;clip-rule:evenodd;fill:#3E66A5;" width="172.534" height="3.034"/>
		
			<line style="fill-rule:evenodd;clip-rule:evenodd;fill:#00B365;stroke:#00B365;stroke-width:10;stroke-linecap:round;stroke-linejoin:round;stroke-miterlimit:10;stroke-dasharray:0,10;" x1="101.572" y1="135.452" x2="285.636" y2="135.452"/>
	</g>
	<g>
		<path style="fill-rule:evenodd;clip-rule:evenodd;fill:#374315;" d="M513.856,140.983h-7.682c0,0,0,14.16,0,21.177
			c0,2.124,1.718,3.846,3.837,3.846c0.002,0,0.005,0,0.007,0c2.119,0,3.837-1.722,3.837-3.846
			C513.856,155.144,513.856,140.983,513.856,140.983z"/>
		<path style="fill-rule:evenodd;clip-rule:evenodd;fill:#8FC300;" d="M529.183,139.806c-0.571-0.895-1.759-1.156-2.651-0.582
			c-0.892,0.574-1.153,1.766-0.581,2.661l4.11,6.438c0.571,0.895,1.759,1.156,2.652,0.582s1.153-1.766,0.581-2.661L529.183,139.806z
			"/>
		<path style="fill-rule:evenodd;clip-rule:evenodd;fill:#8FC300;" d="M514.898,117.274c-1.177-1.857-3.221-2.982-5.416-2.982
			s-4.239,1.125-5.416,2.982c-6.415,10.117-16.242,25.615-16.242,25.615c0,8.798,9.705,15.94,21.658,15.94
			s21.658-7.143,21.658-15.94C531.14,142.89,521.313,127.392,514.898,117.274z"/>
		<g>
			<defs>
				<path id="SVGID_00000023260031278363259460000010128965428810007177_" d="M514.898,117.274
					c-1.177-1.857-3.221-2.982-5.416-2.982s-4.239,1.125-5.416,2.982c-6.415,10.117-16.242,25.615-16.242,25.615
					c0,8.798,9.705,15.94,21.658,15.94s21.658-7.143,21.658-15.94C531.14,142.89,521.313,127.392,514.898,117.274z"/>
			</defs>
			<clipPath id="SVGID_00000143613130454395221280000007050937298638876060_">
				<use xlink:href="#SVGID_00000023260031278363259460000010128965428810007177_"  style="overflow:visible;"/>
			</clipPath>
			
				<path style="clip-path:url(#SVGID_00000143613130454395221280000007050937298638876060_);fill-rule:evenodd;clip-rule:evenodd;fill:#5AAA00;" d="
				M513.941,102.941c-1.219-1.475-3.03-2.328-4.941-2.328c-1.91,0-3.722,0.852-4.941,2.327c-6.39,7.736-16.716,21.326-16.716,28.401
				c0,8.798,9.705,15.94,21.658,15.94s21.658-7.143,21.658-15.94C530.659,124.265,520.333,110.675,513.941,102.941z"/>
		</g>
		<path style="fill-rule:evenodd;clip-rule:evenodd;fill:#8FC300;" d="M489.032,140.991c0.572-0.894,1.761-1.154,2.653-0.581
			c0.892,0.574,1.152,1.765,0.579,2.66l-3.43,5.359c-0.572,0.894-1.761,1.154-2.653,0.581c-0.892-0.573-1.152-1.765-0.579-2.659
			L489.032,140.991z"/>
		<path style="fill-rule:evenodd;clip-rule:evenodd;fill:#5AAA00;" d="M522.589,143.257c-0.318-1.013-1.398-1.576-2.409-1.257
			c-1.011,0.319-1.573,1.401-1.254,2.414l0.809,2.572c0.319,1.013,1.398,1.576,2.409,1.257c1.011-0.319,1.573-1.401,1.254-2.414
			L522.589,143.257z"/>
		<path style="fill-rule:evenodd;clip-rule:evenodd;fill:#5AAA00;" d="M496.66,144.13c0.319-1.013,1.398-1.577,2.409-1.257
			c1.011,0.319,1.573,1.401,1.254,2.414l-0.809,2.572c-0.319,1.013-1.398,1.576-2.409,1.257c-1.011-0.319-1.573-1.401-1.254-2.414
			L496.66,144.13z"/>
		<path style="fill-rule:evenodd;clip-rule:evenodd;fill:#5AAA00;" d="M527.331,139.632c-0.53-0.92-1.705-1.236-2.623-0.704
			c-0.918,0.531-1.233,1.709-0.703,2.629l1.737,3.016c0.53,0.92,1.706,1.236,2.624,0.705c0.918-0.531,1.233-1.709,0.703-2.63
			L527.331,139.632z"/>
		<path style="fill-rule:evenodd;clip-rule:evenodd;fill:#5AAA00;" d="M491.936,139.529c0.53-0.92,1.705-1.236,2.623-0.704
			c0.918,0.531,1.233,1.709,0.703,2.629l-1.737,3.016c-0.53,0.92-1.706,1.236-2.624,0.705c-0.918-0.531-1.233-1.709-0.703-2.63
			L491.936,139.529z"/>
		<path style="fill-rule:evenodd;clip-rule:evenodd;fill:#A2D500;" d="M514.392,110.389c-1.182-1.835-3.212-2.943-5.391-2.943
			c-2.179,0-4.209,1.108-5.391,2.943c-5.364,8.325-12.8,19.866-12.8,19.866c0,7.272,8.151,13.176,18.191,13.176
			c10.04,0,18.191-5.904,18.191-13.176C527.192,130.255,519.756,118.713,514.392,110.389z"/>
		<g>
			<defs>
				<path id="SVGID_00000099660355855967343330000015550023307156112008_" d="M514.392,110.389
					c-1.182-1.835-3.212-2.943-5.391-2.943c-2.179,0-4.209,1.108-5.391,2.943c-5.364,8.325-12.8,19.866-12.8,19.866
					c0,7.272,8.151,13.176,18.191,13.176c10.04,0,18.191-5.904,18.191-13.176C527.192,130.255,519.756,118.713,514.392,110.389z"/>
			</defs>
			<clipPath id="SVGID_00000035529983402603647890000012648484151972546701_">
				<use xlink:href="#SVGID_00000099660355855967343330000015550023307156112008_"  style="overflow:visible;"/>
			</clipPath>
			
				<path style="clip-path:url(#SVGID_00000035529983402603647890000012648484151972546701_);fill-rule:evenodd;clip-rule:evenodd;fill:#8FC300;" d="
				M513.936,94.249c-1.219-1.47-3.028-2.321-4.935-2.321c-1.907,0-3.716,0.851-4.935,2.321
				c-5.387,6.505-13.256,16.961-13.256,22.532c0,7.272,8.151,13.176,18.191,13.176c10.04,0,18.191-5.904,18.191-13.176
				C527.192,111.211,519.323,100.755,513.936,94.249z"/>
			
				<path style="clip-path:url(#SVGID_00000035529983402603647890000012648484151972546701_);fill-rule:evenodd;clip-rule:evenodd;fill:#8FC300;" d="
				M499.195,128.419c0.53-0.92,0.215-2.098-0.703-2.63c-0.918-0.531-2.093-0.215-2.623,0.705l-1.92,3.334
				c-0.53,0.92-0.215,2.098,0.703,2.63c0.918,0.531,2.093,0.215,2.623-0.705L499.195,128.419z"/>
			
				<path style="clip-path:url(#SVGID_00000035529983402603647890000012648484151972546701_);fill-rule:evenodd;clip-rule:evenodd;fill:#8FC300;" d="
				M503.751,135.452c0.347-1.004-0.185-2.101-1.187-2.449c-1.002-0.347-2.096,0.185-2.443,1.189l-0.628,1.819
				c-0.347,1.004,0.185,2.101,1.187,2.449c1.002,0.347,2.096-0.185,2.443-1.189L503.751,135.452z"/>
			
				<path style="clip-path:url(#SVGID_00000035529983402603647890000012648484151972546701_);fill-rule:evenodd;clip-rule:evenodd;fill:#8FC300;" d="
				M511.936,133.807c0-1.062-0.861-1.925-1.92-1.925c-1.06,0-1.92,0.862-1.92,1.925v1.925c0,1.062,0.86,1.925,1.92,1.925
				c1.06,0,1.92-0.862,1.92-1.925V133.807z"/>
			
				<path style="clip-path:url(#SVGID_00000035529983402603647890000012648484151972546701_);fill-rule:evenodd;clip-rule:evenodd;fill:#8FC300;" d="
				M519.487,134.125c-0.384-0.99-1.498-1.482-2.486-1.097c-0.988,0.385-1.478,1.501-1.094,2.491l0.696,1.794
				c0.384,0.99,1.498,1.482,2.486,1.097c0.988-0.385,1.478-1.501,1.094-2.492L519.487,134.125z"/>
			
				<path style="clip-path:url(#SVGID_00000035529983402603647890000012648484151972546701_);fill-rule:evenodd;clip-rule:evenodd;fill:#8FC300;" d="
				M522.498,125.85c-0.53-0.92-1.706-1.236-2.624-0.704c-0.918,0.531-1.233,1.709-0.703,2.629l1.663,2.887
				c0.53,0.92,1.705,1.236,2.623,0.704c0.918-0.531,1.233-1.709,0.703-2.629L522.498,125.85z"/>
		</g>
		<path style="fill-rule:evenodd;clip-rule:evenodd;fill:#A2D500;" d="M512.448,99.721c-0.661-0.994-1.774-1.592-2.966-1.592
			s-2.305,0.597-2.966,1.592c-4.103,6.175-11.01,16.57-11.01,16.57c0,3.158,2.129,5.97,5.432,7.766
			c2.363,1.284,5.327,2.049,8.544,2.049c7.713,0,13.976-4.398,13.976-9.816C523.458,116.292,516.55,105.896,512.448,99.721z"/>
		<g>
			<defs>
				<path id="SVGID_00000173133200791707891740000005927619886001434755_" d="M512.448,99.721c-0.661-0.994-1.774-1.592-2.966-1.592
					s-2.305,0.597-2.966,1.592c-4.103,6.175-11.01,16.57-11.01,16.57c0,3.158,2.129,5.97,5.432,7.766
					c2.363,1.284,5.327,2.049,8.544,2.049c7.713,0,13.976-4.398,13.976-9.816C523.458,116.292,516.55,105.896,512.448,99.721z"/>
			</defs>
			<clipPath id="SVGID_00000034074573219328253650000005332286983114354617_">
				<use xlink:href="#SVGID_00000173133200791707891740000005927619886001434755_"  style="overflow:visible;"/>
			</clipPath>
			
				<path style="clip-path:url(#SVGID_00000034074573219328253650000005332286983114354617_);fill-rule:evenodd;clip-rule:evenodd;fill:#C2ED00;" d="
				M521.538,107.44c0-6.694-5.423-12.129-12.102-12.129h-0.279c-6.679,0-12.102,5.435-12.102,12.129v0.513
				c0,6.694,5.422,12.129,12.102,12.129h0.279c6.679,0,12.102-5.435,12.102-12.129V107.44z"/>
			
				<path style="clip-path:url(#SVGID_00000034074573219328253650000005332286983114354617_);fill-rule:evenodd;clip-rule:evenodd;fill:#A2D500;" d="
				M510.099,107.378c0.285-1.023-0.312-2.086-1.333-2.372c-1.021-0.286-2.081,0.313-2.366,1.336l-0.154,0.554
				c-0.285,1.023,0.312,2.086,1.333,2.372c1.021,0.286,2.081-0.313,2.366-1.336L510.099,107.378z"/>
			
				<path style="clip-path:url(#SVGID_00000034074573219328253650000005332286983114354617_);fill-rule:evenodd;clip-rule:evenodd;fill:#A2D500;" d="
				M504.48,111.627c0.454-0.96,0.046-2.109-0.912-2.564c-0.958-0.455-2.104-0.046-2.558,0.914l-0.823,1.739
				c-0.454,0.96-0.046,2.109,0.912,2.564c0.958,0.455,2.104,0.046,2.558-0.914L504.48,111.627z"/>
			
				<path style="clip-path:url(#SVGID_00000034074573219328253650000005332286983114354617_);fill-rule:evenodd;clip-rule:evenodd;fill:#A2D500;" d="
				M511.936,114.559c0-1.062-0.861-1.925-1.92-1.925c-1.06,0-1.92,0.863-1.92,1.925v1.925c0,1.062,0.86,1.925,1.92,1.925
				c1.06,0,1.92-0.863,1.92-1.925V114.559z"/>
			
				<path style="clip-path:url(#SVGID_00000034074573219328253650000005332286983114354617_);fill-rule:evenodd;clip-rule:evenodd;fill:#A2D500;" d="
				M516.954,108.077c-0.533-0.918-1.709-1.23-2.626-0.696c-0.916,0.534-1.228,1.713-0.695,2.631l0.965,1.664
				c0.533,0.919,1.709,1.23,2.625,0.696c0.916-0.534,1.228-1.713,0.695-2.632L516.954,108.077z"/>
		</g>
		<path style="fill-rule:evenodd;clip-rule:evenodd;fill:#C2ED00;" d="M507.081,125.955c0-1.062,0.861-1.925,1.921-1.925
			c1.06,0,1.92,0.862,1.92,1.925v0.152c0,1.062-0.861,1.925-1.92,1.925c-1.06,0-1.921-0.862-1.921-1.925V125.955z"/>
		<path style="fill-rule:evenodd;clip-rule:evenodd;fill:#C2ED00;" d="M496.878,121.267c0.399-0.984,1.52-1.459,2.502-1.06
			c0.982,0.4,1.456,1.523,1.057,2.508l-0.057,0.141c-0.399,0.984-1.52,1.459-2.502,1.06c-0.982-0.4-1.456-1.523-1.057-2.508
			L496.878,121.267z"/>
		<path style="fill-rule:evenodd;clip-rule:evenodd;fill:#C2ED00;" d="M521.75,121.248c-0.399-0.984-1.52-1.459-2.502-1.06
			c-0.982,0.4-1.456,1.523-1.057,2.507l0.057,0.141c0.399,0.984,1.52,1.459,2.502,1.06c0.982-0.4,1.456-1.523,1.057-2.507
			L521.75,121.248z"/>
		<path style="fill-rule:evenodd;clip-rule:evenodd;fill:#C2ED00;" d="M494.035,116.533c0.572-0.894,1.761-1.154,2.653-0.581
			c0.892,0.573,1.152,1.765,0.58,2.659l-0.082,0.128c-0.572,0.894-1.761,1.154-2.653,0.581c-0.892-0.573-1.152-1.765-0.58-2.659
			L494.035,116.533z"/>
		<path style="fill-rule:evenodd;clip-rule:evenodd;fill:#A6D320;" d="M489.276,130.715c0.572-0.894,1.761-1.154,2.653-0.581
			s1.152,1.765,0.58,2.66l-0.082,0.128c-0.572,0.894-1.761,1.154-2.653,0.581c-0.892-0.574-1.152-1.765-0.58-2.66L489.276,130.715z"
			/>
		<path style="fill-rule:evenodd;clip-rule:evenodd;fill:#A2D500;" d="M529.106,130.715c-0.572-0.894-1.761-1.154-2.653-0.581
			s-1.152,1.765-0.579,2.66l0.082,0.128c0.572,0.894,1.761,1.154,2.653,0.581c0.892-0.574,1.152-1.765,0.579-2.66L529.106,130.715z"
			/>
		<path style="fill-rule:evenodd;clip-rule:evenodd;fill:#A2D500;" d="M495.53,139.164c0.572-0.894,1.761-1.154,2.653-0.581
			c0.892,0.574,1.152,1.765,0.579,2.66l-0.082,0.128c-0.572,0.894-1.761,1.154-2.653,0.581c-0.892-0.574-1.152-1.765-0.579-2.66
			L495.53,139.164z"/>
		<path style="fill-rule:evenodd;clip-rule:evenodd;fill:#A2D500;" d="M522.851,139.164c-0.572-0.894-1.761-1.154-2.653-0.581
			s-1.152,1.765-0.58,2.66l0.082,0.128c0.572,0.894,1.761,1.154,2.653,0.581c0.892-0.574,1.152-1.765,0.58-2.66L522.851,139.164z"/>
		<path style="fill-rule:evenodd;clip-rule:evenodd;fill:#A2D500;" d="M499.804,141.726c0.312-1.015,1.388-1.585,2.401-1.272
			c1.013,0.313,1.581,1.392,1.269,2.407l-0.045,0.146c-0.313,1.015-1.388,1.585-2.401,1.272s-1.581-1.392-1.269-2.407
			L499.804,141.726z"/>
		<path style="fill-rule:evenodd;clip-rule:evenodd;fill:#A2D500;" d="M518.577,141.726c-0.312-1.015-1.388-1.585-2.401-1.272
			c-1.013,0.313-1.582,1.392-1.269,2.407l0.045,0.146c0.312,1.015,1.388,1.585,2.401,1.272c1.013-0.313,1.581-1.392,1.269-2.407
			L518.577,141.726z"/>
		<path style="fill-rule:evenodd;clip-rule:evenodd;fill:#A2D500;" d="M504.809,143.571c0.113-1.056,1.061-1.822,2.115-1.708
			c1.054,0.114,1.817,1.063,1.704,2.12l-0.016,0.151c-0.113,1.056-1.061,1.821-2.115,1.708s-1.817-1.063-1.704-2.12L504.809,143.571
			z"/>
		<path style="fill-rule:evenodd;clip-rule:evenodd;fill:#A2D500;" d="M513.573,143.571c-0.113-1.056-1.061-1.822-2.115-1.708
			c-1.054,0.114-1.817,1.063-1.704,2.12l0.016,0.151c0.113,1.056,1.061,1.821,2.115,1.708c1.054-0.114,1.817-1.063,1.704-2.12
			L513.573,143.571z"/>
		<path style="fill-rule:evenodd;clip-rule:evenodd;fill:#A2D500;" d="M491.581,135.605c0.572-0.894,1.761-1.155,2.653-0.581
			c0.892,0.574,1.152,1.765,0.579,2.66l-0.082,0.128c-0.572,0.894-1.761,1.155-2.653,0.581c-0.892-0.574-1.152-1.765-0.579-2.66
			L491.581,135.605z"/>
		<path style="fill-rule:evenodd;clip-rule:evenodd;fill:#A2D500;" d="M526.8,135.605c-0.572-0.894-1.761-1.155-2.653-0.581
			s-1.152,1.765-0.58,2.66l0.082,0.128c0.572,0.894,1.761,1.155,2.653,0.581s1.152-1.765,0.58-2.66L526.8,135.605z"/>
		<path style="fill-rule:evenodd;clip-rule:evenodd;fill:#C2ED00;" d="M524.594,116.514c-0.572-0.894-1.761-1.154-2.653-0.581
			c-0.892,0.574-1.152,1.765-0.58,2.66l0.082,0.128c0.572,0.894,1.761,1.155,2.653,0.581c0.892-0.574,1.152-1.765,0.58-2.66
			L524.594,116.514z"/>
		<path style="fill-rule:evenodd;clip-rule:evenodd;fill:#C2ED00;" d="M501.145,124.526c0.173-1.048,1.163-1.758,2.209-1.584
			c1.046,0.174,1.754,1.166,1.581,2.214l-0.025,0.15c-0.173,1.048-1.163,1.758-2.209,1.584c-1.046-0.174-1.754-1.166-1.581-2.214
			L501.145,124.526z"/>
		<path style="fill-rule:evenodd;clip-rule:evenodd;fill:#C2ED00;" d="M517.484,124.506c-0.173-1.048-1.163-1.758-2.209-1.584
			c-1.046,0.174-1.754,1.166-1.581,2.214l0.025,0.15c0.173,1.048,1.163,1.758,2.209,1.584c1.046-0.174,1.754-1.166,1.581-2.214
			L517.484,124.506z"/>
	</g>
	<g style="opacity:0.3308;">
		<g>
			<path style="fill:#00703A;" d="M681.094,79.597c-0.87,0-1.575-0.706-1.575-1.579v-4.944c0-0.873,0.705-1.579,1.575-1.579
				c0.87,0,1.575,0.706,1.575,1.579v4.944C682.669,78.891,681.964,79.597,681.094,79.597z"/>
		</g>
		<g>
			<path style="fill:#00703A;" d="M687.671,79.597c-0.87,0-1.575-0.706-1.575-1.579v-3.295c0-0.873,0.705-1.579,1.575-1.579
				c0.87,0,1.575,0.706,1.575,1.579v3.295C689.247,78.891,688.541,79.597,687.671,79.597z"/>
		</g>
		<g>
			<path style="fill:#00703A;" d="M675.065,79.597c-0.87,0-1.575-0.706-1.575-1.579v-3.295c0-0.873,0.705-1.579,1.575-1.579
				c0.87,0,1.575,0.706,1.575,1.579v3.295C676.64,78.891,675.935,79.597,675.065,79.597z"/>
		</g>
		<g>
			<path style="fill:#00703A;" d="M698.84,92.645c-0.87,0-1.575-0.706-1.575-1.579v-4.944c0-0.873,0.705-1.579,1.575-1.579
				c0.87,0,1.575,0.706,1.575,1.579v4.944C700.415,91.939,699.71,92.645,698.84,92.645z"/>
		</g>
		<g>
			<path style="fill:#00703A;" d="M705.417,92.645c-0.87,0-1.575-0.706-1.575-1.579v-3.297c0-0.873,0.705-1.579,1.575-1.579
				c0.87,0,1.575,0.706,1.575,1.579v3.297C706.992,91.939,706.287,92.645,705.417,92.645z"/>
		</g>
		<g>
			<path style="fill:#00703A;" d="M692.811,92.645c-0.87,0-1.575-0.706-1.575-1.579v-3.297c0-0.873,0.705-1.579,1.575-1.579
				s1.575,0.706,1.575,1.579v3.297C694.387,91.939,693.681,92.645,692.811,92.645z"/>
		</g>
		<g>
			<path style="fill:#00703A;" d="M704.936,65.314c-0.87,0-1.575-0.706-1.575-1.579v-4.944c0-0.873,0.705-1.579,1.575-1.579
				c0.87,0,1.575,0.706,1.575,1.579v4.944C706.511,64.607,705.806,65.314,704.936,65.314z"/>
		</g>
		<g>
			<path style="fill:#00703A;" d="M711.514,65.314c-0.87,0-1.575-0.706-1.575-1.579v-3.297c0-0.873,0.705-1.579,1.575-1.579
				c0.87,0,1.575,0.706,1.575,1.579v3.297C713.089,64.607,712.384,65.314,711.514,65.314z"/>
		</g>
		<g>
			<path style="fill:#00703A;" d="M698.907,65.314c-0.87,0-1.575-0.706-1.575-1.579v-3.297c0-0.873,0.705-1.579,1.575-1.579
				s1.575,0.706,1.575,1.579v3.297C700.483,64.607,699.777,65.314,698.907,65.314z"/>
		</g>
	</g>
	<g>
		<path style="fill-rule:evenodd;clip-rule:evenodd;fill:#374315;" d="M1169.069,130.309h-7.254c0,0,0,13.371,0,19.997
			c0,2.006,1.622,3.632,3.624,3.632c0.002,0,0.005,0,0.007,0c2.001,0,3.624-1.626,3.624-3.632
			C1169.069,143.68,1169.069,130.309,1169.069,130.309z"/>
		<path style="fill-rule:evenodd;clip-rule:evenodd;fill:#8FC300;" d="M1183.542,129.197c-0.54-0.845-1.661-1.091-2.504-0.549
			c-0.843,0.542-1.088,1.667-0.549,2.512l3.881,6.079c0.539,0.845,1.661,1.091,2.504,0.549c0.843-0.542,1.088-1.668,0.549-2.513
			L1183.542,129.197z"/>
		<path style="fill-rule:evenodd;clip-rule:evenodd;fill:#8FC300;" d="M1170.053,107.921c-1.112-1.754-3.041-2.816-5.115-2.816
			s-4.003,1.062-5.115,2.816c-6.058,9.554-15.337,24.188-15.337,24.188c0,8.307,9.164,15.052,20.451,15.052
			s20.451-6.745,20.451-15.052C1185.39,132.109,1176.111,117.474,1170.053,107.921z"/>
		<g>
			<defs>
				<path id="SVGID_00000152979331094473211790000013113141767559713962_" d="M1170.053,107.921
					c-1.112-1.754-3.041-2.816-5.115-2.816s-4.003,1.062-5.115,2.816c-6.058,9.554-15.337,24.188-15.337,24.188
					c0,8.307,9.164,15.052,20.451,15.052s20.451-6.745,20.451-15.052C1185.39,132.109,1176.111,117.474,1170.053,107.921z"/>
			</defs>
			<clipPath id="SVGID_00000026144546461465861800000000113230676676936865_">
				<use xlink:href="#SVGID_00000152979331094473211790000013113141767559713962_"  style="overflow:visible;"/>
			</clipPath>
			
				<path style="clip-path:url(#SVGID_00000026144546461465861800000000113230676676936865_);fill-rule:evenodd;clip-rule:evenodd;fill:#5AAA00;" d="
				M1169.149,94.386c-1.151-1.392-2.861-2.198-4.665-2.198c-1.804,0-3.514,0.805-4.666,2.197
				c-6.034,7.305-15.785,20.138-15.785,26.819c0,8.307,9.164,15.052,20.451,15.052s20.451-6.745,20.451-15.052
				C1184.935,114.522,1175.185,101.689,1169.149,94.386z"/>
		</g>
		<path style="fill-rule:evenodd;clip-rule:evenodd;fill:#8FC300;" d="M1157.931,143.693c0.107-0.997,1.002-1.72,1.997-1.613
			c0.995,0.107,1.716,1.004,1.609,2.002l-0.333,3.103c-0.107,0.997-1.002,1.72-1.997,1.613c-0.995-0.107-1.716-1.004-1.609-2.002
			L1157.931,143.693z"/>
		<path style="fill-rule:evenodd;clip-rule:evenodd;fill:#8FC300;" d="M1145.627,130.316c0.541-0.844,1.663-1.09,2.506-0.548
			c0.843,0.542,1.088,1.667,0.547,2.511l-3.239,5.061c-0.54,0.844-1.663,1.09-2.505,0.548c-0.842-0.541-1.088-1.667-0.547-2.511
			L1145.627,130.316z"/>
		<path style="fill-rule:evenodd;clip-rule:evenodd;fill:#5AAA00;" d="M1166.298,136.255c0-1.003-0.813-1.818-1.813-1.818
			c-1.001,0-1.814,0.814-1.814,1.818v1.818c0,1.003,0.813,1.818,1.814,1.818c1.001,0,1.813-0.814,1.813-1.818V136.255z"/>
		<path style="fill-rule:evenodd;clip-rule:evenodd;fill:#5AAA00;" d="M1172.57,139.674c-0.123-0.996-1.029-1.704-2.023-1.58
			c-0.993,0.123-1.7,1.032-1.577,2.027l0.223,1.804c0.123,0.996,1.03,1.704,2.023,1.58c0.993-0.123,1.7-1.032,1.577-2.027
			L1172.57,139.674z"/>
		<path style="fill-rule:evenodd;clip-rule:evenodd;fill:#5AAA00;" d="M1156.526,139.674c0.123-0.996,1.03-1.704,2.023-1.58
			c0.993,0.123,1.7,1.032,1.577,2.027l-0.223,1.804c-0.123,0.996-1.03,1.704-2.023,1.58c-0.993-0.123-1.7-1.032-1.577-2.027
			L1156.526,139.674z"/>
		<path style="fill-rule:evenodd;clip-rule:evenodd;fill:#5AAA00;" d="M1177.315,132.455c-0.301-0.957-1.32-1.489-2.275-1.187
			c-0.955,0.302-1.485,1.323-1.185,2.28l0.764,2.429c0.301,0.957,1.32,1.489,2.275,1.187c0.955-0.301,1.485-1.323,1.185-2.28
			L1177.315,132.455z"/>
		<path style="fill-rule:evenodd;clip-rule:evenodd;fill:#5AAA00;" d="M1152.831,133.28c0.301-0.957,1.32-1.489,2.275-1.187
			c0.955,0.301,1.486,1.323,1.185,2.28l-0.764,2.429c-0.301,0.957-1.32,1.489-2.275,1.187c-0.955-0.302-1.485-1.323-1.185-2.28
			L1152.831,133.28z"/>
		<path style="fill-rule:evenodd;clip-rule:evenodd;fill:#5AAA00;" d="M1181.793,129.033c-0.5-0.869-1.61-1.167-2.477-0.665
			c-0.867,0.501-1.164,1.614-0.664,2.483l1.641,2.848c0.501,0.869,1.611,1.167,2.477,0.665c0.867-0.502,1.164-1.614,0.664-2.483
			L1181.793,129.033z"/>
		<path style="fill-rule:evenodd;clip-rule:evenodd;fill:#5AAA00;" d="M1148.37,128.935c0.5-0.869,1.61-1.167,2.477-0.665
			c0.867,0.501,1.164,1.614,0.664,2.483l-1.641,2.848c-0.501,0.869-1.611,1.167-2.477,0.665c-0.867-0.502-1.164-1.614-0.664-2.483
			L1148.37,128.935z"/>
		<path style="fill-rule:evenodd;clip-rule:evenodd;fill:#A2D500;" d="M1169.575,101.419c-1.116-1.732-3.033-2.779-5.09-2.779
			c-2.058,0-3.974,1.046-5.091,2.779c-5.065,7.861-12.087,18.76-12.087,18.76c0,6.867,7.697,12.442,17.177,12.442
			c9.48,0,17.177-5.575,17.177-12.442C1181.662,120.179,1174.64,109.28,1169.575,101.419z"/>
		<g>
			<defs>
				<path id="SVGID_00000147190853452482110340000000884204356164038837_" d="M1169.575,101.419
					c-1.116-1.732-3.033-2.779-5.09-2.779c-2.058,0-3.974,1.046-5.091,2.779c-5.065,7.861-12.087,18.76-12.087,18.76
					c0,6.867,7.697,12.442,17.177,12.442c9.48,0,17.177-5.575,17.177-12.442C1181.662,120.179,1174.64,109.28,1169.575,101.419z"/>
			</defs>
			<clipPath id="SVGID_00000163774490511725876890000005440441559785239209_">
				<use xlink:href="#SVGID_00000147190853452482110340000000884204356164038837_"  style="overflow:visible;"/>
			</clipPath>
			
				<path style="clip-path:url(#SVGID_00000163774490511725876890000005440441559785239209_);fill-rule:evenodd;clip-rule:evenodd;fill:#8FC300;" d="
				M1169.145,86.179c-1.151-1.388-2.859-2.191-4.66-2.191c-1.801,0-3.509,0.803-4.66,2.191
				c-5.087,6.143-12.517,16.016-12.517,21.277c0,6.867,7.697,12.442,17.177,12.442c9.48,0,17.177-5.575,17.177-12.442
				C1181.662,102.195,1174.231,92.322,1169.145,86.179z"/>
			
				<path style="clip-path:url(#SVGID_00000163774490511725876890000005440441559785239209_);fill-rule:evenodd;clip-rule:evenodd;fill:#8FC300;" d="
				M1155.225,118.445c0.5-0.869,0.203-1.981-0.664-2.483c-0.867-0.501-1.977-0.203-2.477,0.665l-1.813,3.148
				c-0.5,0.869-0.203,1.981,0.664,2.483c0.867,0.501,1.977,0.203,2.477-0.665L1155.225,118.445z"/>
			
				<path style="clip-path:url(#SVGID_00000163774490511725876890000005440441559785239209_);fill-rule:evenodd;clip-rule:evenodd;fill:#8FC300;" d="
				M1159.526,125.086c0.327-0.948-0.175-1.984-1.12-2.312c-0.946-0.328-1.979,0.175-2.307,1.123l-0.593,1.717
				c-0.327,0.948,0.175,1.984,1.12,2.312c0.946,0.328,1.979-0.175,2.307-1.123L1159.526,125.086z"/>
			
				<path style="clip-path:url(#SVGID_00000163774490511725876890000005440441559785239209_);fill-rule:evenodd;clip-rule:evenodd;fill:#8FC300;" d="
				M1167.255,123.532c0-1.003-0.813-1.818-1.813-1.818c-1.001,0-1.813,0.814-1.813,1.818v1.818c0,1.003,0.813,1.818,1.813,1.818
				c1.001,0,1.813-0.814,1.813-1.818V123.532z"/>
			
				<path style="clip-path:url(#SVGID_00000163774490511725876890000005440441559785239209_);fill-rule:evenodd;clip-rule:evenodd;fill:#8FC300;" d="
				M1174.386,123.833c-0.363-0.935-1.414-1.399-2.347-1.036c-0.933,0.363-1.396,1.418-1.033,2.353l0.657,1.694
				c0.363,0.935,1.414,1.399,2.347,1.036c0.933-0.363,1.396-1.418,1.033-2.353L1174.386,123.833z"/>
			
				<path style="clip-path:url(#SVGID_00000163774490511725876890000005440441559785239209_);fill-rule:evenodd;clip-rule:evenodd;fill:#8FC300;" d="
				M1177.229,116.018c-0.5-0.869-1.611-1.167-2.477-0.665c-0.867,0.501-1.164,1.614-0.664,2.483l1.571,2.726
				c0.5,0.869,1.61,1.167,2.477,0.665c0.867-0.501,1.164-1.614,0.664-2.483L1177.229,116.018z"/>
		</g>
		<path style="fill-rule:evenodd;clip-rule:evenodd;fill:#A2D500;" d="M1167.739,91.346c-0.624-0.939-1.675-1.503-2.8-1.503
			s-2.176,0.564-2.8,1.503c-3.874,5.831-10.397,15.647-10.397,15.647c0,2.982,2.01,5.638,5.13,7.334
			c2.231,1.213,5.03,1.935,8.068,1.935c7.284,0,13.197-4.153,13.197-9.269C1178.136,106.993,1171.613,97.176,1167.739,91.346z"/>
		<g>
			<defs>
				<path id="SVGID_00000039824711739174269290000016749769664000666551_" d="M1167.739,91.346c-0.624-0.939-1.675-1.503-2.8-1.503
					s-2.176,0.564-2.8,1.503c-3.874,5.831-10.397,15.647-10.397,15.647c0,2.982,2.01,5.638,5.13,7.334
					c2.231,1.213,5.03,1.935,8.068,1.935c7.284,0,13.197-4.153,13.197-9.269C1178.136,106.993,1171.613,97.176,1167.739,91.346z"/>
			</defs>
			<clipPath id="SVGID_00000137813865852429849320000016488345647487280008_">
				<use xlink:href="#SVGID_00000039824711739174269290000016749769664000666551_"  style="overflow:visible;"/>
			</clipPath>
			
				<path style="clip-path:url(#SVGID_00000137813865852429849320000016488345647487280008_);fill-rule:evenodd;clip-rule:evenodd;fill:#C2ED00;" d="
				M1176.322,98.634c0-6.321-5.121-11.454-11.427-11.454h-0.264c-6.307,0-11.427,5.132-11.427,11.454v0.485
				c0,6.321,5.12,11.454,11.427,11.454h0.264c6.307,0,11.427-5.132,11.427-11.454V98.634z"/>
			
				<path style="clip-path:url(#SVGID_00000137813865852429849320000016488345647487280008_);fill-rule:evenodd;clip-rule:evenodd;fill:#A2D500;" d="
				M1165.521,98.576c0.269-0.966-0.294-1.97-1.258-2.24c-0.964-0.27-1.965,0.295-2.235,1.261l-0.146,0.523
				c-0.269,0.966,0.295,1.97,1.258,2.24c0.964,0.27,1.965-0.295,2.235-1.261L1165.521,98.576z"/>
			
				<path style="clip-path:url(#SVGID_00000137813865852429849320000016488345647487280008_);fill-rule:evenodd;clip-rule:evenodd;fill:#A2D500;" d="
				M1160.215,102.588c0.429-0.906,0.043-1.991-0.861-2.421c-0.904-0.43-1.987-0.043-2.416,0.863l-0.777,1.642
				c-0.429,0.906-0.043,1.991,0.861,2.421c0.904,0.43,1.987,0.043,2.416-0.863L1160.215,102.588z"/>
			
				<path style="clip-path:url(#SVGID_00000137813865852429849320000016488345647487280008_);fill-rule:evenodd;clip-rule:evenodd;fill:#A2D500;" d="
				M1167.255,105.357c0-1.003-0.813-1.818-1.813-1.818c-1.001,0-1.813,0.815-1.813,1.818v1.818c0,1.003,0.813,1.818,1.813,1.818
				c1.001,0,1.813-0.815,1.813-1.818V105.357z"/>
			
				<path style="clip-path:url(#SVGID_00000137813865852429849320000016488345647487280008_);fill-rule:evenodd;clip-rule:evenodd;fill:#A2D500;" d="
				M1171.994,99.236c-0.503-0.867-1.614-1.162-2.479-0.657c-0.865,0.504-1.159,1.618-0.656,2.485l0.912,1.571
				c0.503,0.867,1.614,1.162,2.479,0.658c0.865-0.504,1.159-1.618,0.656-2.485L1171.994,99.236z"/>
		</g>
		<path style="fill-rule:evenodd;clip-rule:evenodd;fill:#C2ED00;" d="M1162.671,116.118c0-1.003,0.813-1.818,1.814-1.818
			c1.001,0,1.813,0.814,1.813,1.818v0.144c0,1.003-0.813,1.818-1.813,1.818c-1.001,0-1.814-0.814-1.814-1.818V116.118z"/>
		<path style="fill-rule:evenodd;clip-rule:evenodd;fill:#C2ED00;" d="M1153.037,111.691c0.376-0.93,1.435-1.378,2.362-1.001
			c0.927,0.377,1.375,1.438,0.998,2.368l-0.054,0.133c-0.376,0.93-1.435,1.378-2.363,1.001c-0.927-0.377-1.375-1.438-0.998-2.368
			L1153.037,111.691z"/>
		<path style="fill-rule:evenodd;clip-rule:evenodd;fill:#C2ED00;" d="M1176.523,111.673c-0.377-0.93-1.435-1.378-2.362-1.001
			c-0.927,0.377-1.375,1.438-0.998,2.368l0.054,0.133c0.376,0.93,1.435,1.378,2.363,1.001c0.927-0.377,1.375-1.438,0.998-2.368
			L1176.523,111.673z"/>
		<path style="fill-rule:evenodd;clip-rule:evenodd;fill:#C2ED00;" d="M1150.352,107.221c0.54-0.844,1.663-1.09,2.505-0.548
			c0.842,0.542,1.088,1.667,0.547,2.511l-0.077,0.121c-0.541,0.844-1.663,1.09-2.506,0.548c-0.842-0.542-1.088-1.667-0.547-2.511
			L1150.352,107.221z"/>
		<path style="fill-rule:evenodd;clip-rule:evenodd;fill:#A6D320;" d="M1145.858,120.612c0.54-0.844,1.663-1.09,2.506-0.548
			c0.842,0.542,1.088,1.667,0.547,2.511l-0.077,0.121c-0.541,0.844-1.663,1.09-2.506,0.548c-0.843-0.542-1.088-1.667-0.547-2.511
			L1145.858,120.612z"/>
		<path style="fill-rule:evenodd;clip-rule:evenodd;fill:#A2D500;" d="M1183.469,120.612c-0.541-0.844-1.663-1.09-2.506-0.548
			c-0.842,0.542-1.087,1.667-0.547,2.511l0.077,0.121c0.541,0.844,1.663,1.09,2.506,0.548c0.843-0.542,1.088-1.667,0.547-2.511
			L1183.469,120.612z"/>
		<path style="fill-rule:evenodd;clip-rule:evenodd;fill:#A2D500;" d="M1151.764,128.591c0.54-0.844,1.663-1.09,2.506-0.548
			c0.842,0.542,1.088,1.667,0.547,2.511l-0.077,0.121c-0.54,0.844-1.663,1.09-2.506,0.548s-1.088-1.667-0.547-2.511
			L1151.764,128.591z"/>
		<path style="fill-rule:evenodd;clip-rule:evenodd;fill:#A2D500;" d="M1177.563,128.591c-0.54-0.844-1.663-1.09-2.506-0.548
			s-1.088,1.667-0.547,2.511l0.077,0.121c0.541,0.844,1.663,1.09,2.506,0.548c0.843-0.542,1.088-1.667,0.547-2.511L1177.563,128.591
			z"/>
		<path style="fill-rule:evenodd;clip-rule:evenodd;fill:#8FC300;" d="M1182.164,137.749c-0.564-0.829-1.694-1.042-2.52-0.476
			c-0.826,0.566-1.039,1.697-0.475,2.526l1.429,2.098c0.564,0.828,1.693,1.042,2.52,0.476c0.827-0.566,1.04-1.697,0.475-2.526
			L1182.164,137.749z"/>
		<path style="fill-rule:evenodd;clip-rule:evenodd;fill:#A2D500;" d="M1155.8,131.01c0.295-0.959,1.311-1.497,2.267-1.201
			c0.956,0.296,1.493,1.314,1.198,2.272l-0.042,0.137c-0.295,0.958-1.311,1.497-2.268,1.201c-0.956-0.296-1.493-1.314-1.198-2.273
			L1155.8,131.01z"/>
		<path style="fill-rule:evenodd;clip-rule:evenodd;fill:#A2D500;" d="M1173.527,131.01c-0.295-0.959-1.311-1.497-2.267-1.201
			c-0.957,0.296-1.494,1.314-1.198,2.272l0.042,0.137c0.295,0.958,1.311,1.497,2.268,1.201c0.956-0.296,1.493-1.314,1.198-2.273
			L1173.527,131.01z"/>
		<path style="fill-rule:evenodd;clip-rule:evenodd;fill:#8FC300;" d="M1177.154,143.854c-0.295-0.959-1.311-1.497-2.267-1.201
			c-0.956,0.296-1.493,1.314-1.198,2.272l0.042,0.137c0.295,0.958,1.311,1.497,2.267,1.201c0.956-0.296,1.493-1.314,1.198-2.273
			L1177.154,143.854z"/>
		<path style="fill-rule:evenodd;clip-rule:evenodd;fill:#8FC300;" d="M1152.051,142.123c0.295-0.959,1.311-1.497,2.267-1.201
			c0.956,0.296,1.493,1.314,1.198,2.273l-0.721,2.344c-0.295,0.959-1.311,1.497-2.267,1.201c-0.957-0.296-1.494-1.314-1.198-2.272
			L1152.051,142.123z"/>
		<path style="fill-rule:evenodd;clip-rule:evenodd;fill:#A2D500;" d="M1160.525,132.753c0.107-0.997,1.002-1.72,1.997-1.613
			c0.995,0.107,1.716,1.004,1.609,2.002l-0.015,0.143c-0.107,0.997-1.002,1.72-1.997,1.613c-0.995-0.107-1.716-1.004-1.609-2.002
			L1160.525,132.753z"/>
		<path style="fill-rule:evenodd;clip-rule:evenodd;fill:#A2D500;" d="M1168.801,132.753c-0.107-0.997-1.002-1.72-1.997-1.613
			c-0.995,0.107-1.716,1.004-1.609,2.002l0.015,0.143c0.107,0.997,1.002,1.72,1.997,1.613c0.995-0.107,1.716-1.004,1.609-2.002
			L1168.801,132.753z"/>
		<path style="fill-rule:evenodd;clip-rule:evenodd;fill:#8FC300;" d="M1172.428,145.597c-0.107-0.997-1.002-1.72-1.997-1.613
			c-0.995,0.107-1.716,1.004-1.609,2.002l0.015,0.143c0.107,0.997,1.002,1.72,1.997,1.613c0.995-0.107,1.716-1.004,1.609-2.002
			L1172.428,145.597z"/>
		<path style="fill-rule:evenodd;clip-rule:evenodd;fill:#A2D500;" d="M1148.035,125.23c0.54-0.844,1.663-1.09,2.506-0.548
			s1.088,1.667,0.547,2.511l-0.077,0.121c-0.54,0.844-1.663,1.09-2.506,0.548c-0.842-0.542-1.088-1.667-0.547-2.511L1148.035,125.23
			z"/>
		<path style="fill-rule:evenodd;clip-rule:evenodd;fill:#A2D500;" d="M1181.292,125.23c-0.54-0.844-1.663-1.09-2.505-0.548
			s-1.088,1.667-0.547,2.511l0.077,0.121c0.541,0.844,1.663,1.09,2.506,0.548s1.088-1.667,0.547-2.511L1181.292,125.23z"/>
		<path style="fill-rule:evenodd;clip-rule:evenodd;fill:#8FC300;" d="M1148.292,137.717c0.54-0.844,1.663-1.09,2.506-0.548
			c0.842,0.542,1.087,1.667,0.547,2.511l-2.162,3.378c-0.541,0.844-1.663,1.09-2.506,0.548c-0.843-0.542-1.088-1.667-0.547-2.511
			L1148.292,137.717z"/>
		<path style="fill-rule:evenodd;clip-rule:evenodd;fill:#C2ED00;" d="M1179.208,107.203c-0.54-0.844-1.663-1.09-2.505-0.548
			c-0.843,0.542-1.088,1.667-0.547,2.511l0.077,0.121c0.54,0.844,1.663,1.09,2.506,0.548s1.088-1.667,0.547-2.511L1179.208,107.203z
			"/>
		<path style="fill-rule:evenodd;clip-rule:evenodd;fill:#C2ED00;" d="M1157.066,114.768c0.164-0.99,1.098-1.66,2.086-1.496
			c0.987,0.164,1.656,1.101,1.492,2.09l-0.024,0.142c-0.164,0.99-1.098,1.66-2.086,1.496c-0.987-0.164-1.656-1.101-1.492-2.09
			L1157.066,114.768z"/>
		<path style="fill-rule:evenodd;clip-rule:evenodd;fill:#C2ED00;" d="M1172.494,114.75c-0.164-0.99-1.098-1.66-2.086-1.496
			s-1.656,1.101-1.492,2.09l0.024,0.142c0.164,0.99,1.098,1.66,2.085,1.496c0.987-0.164,1.656-1.101,1.493-2.09L1172.494,114.75z"/>
	</g>
	<g>
		<path style="fill-rule:evenodd;clip-rule:evenodd;fill:#8FC300;" d="M1305.147,135.14c-1.112-1.754-3.041-2.816-5.114-2.816
			s-4.003,1.062-5.115,2.816c-6.058,9.554-15.337,24.188-15.337,24.188c0,8.307,9.164,15.052,20.451,15.052
			c11.287,0,20.451-6.745,20.451-15.052C1320.484,159.328,1311.205,144.694,1305.147,135.14z"/>
		<g>
			<defs>
				<path id="SVGID_00000049902563387805448980000010750438018976162978_" d="M1305.147,135.14
					c-1.112-1.754-3.041-2.816-5.114-2.816s-4.003,1.062-5.115,2.816c-6.058,9.554-15.337,24.188-15.337,24.188
					c0,8.307,9.164,15.052,20.451,15.052c11.287,0,20.451-6.745,20.451-15.052C1320.484,159.328,1311.205,144.694,1305.147,135.14z"
					/>
			</defs>
			<clipPath id="SVGID_00000148621538932561364770000010505197221955001778_">
				<use xlink:href="#SVGID_00000049902563387805448980000010750438018976162978_"  style="overflow:visible;"/>
			</clipPath>
			
				<path style="clip-path:url(#SVGID_00000148621538932561364770000010505197221955001778_);fill-rule:evenodd;clip-rule:evenodd;fill:#5AAA00;" d="
				M1304.244,121.605c-1.151-1.392-2.861-2.198-4.665-2.198c-1.804,0-3.514,0.805-4.666,2.197
				c-6.034,7.305-15.785,20.138-15.785,26.819c0,8.307,9.164,15.052,20.451,15.052s20.451-6.745,20.451-15.052
				C1320.03,141.742,1310.279,128.909,1304.244,121.605z"/>
		</g>
		<path style="fill-rule:evenodd;clip-rule:evenodd;fill:#A2D500;" d="M1304.669,128.638c-1.116-1.732-3.033-2.779-5.09-2.779
			c-2.058,0-3.975,1.046-5.091,2.779c-5.065,7.861-12.087,18.76-12.087,18.76c0,6.867,7.697,12.442,17.177,12.442
			c9.48,0,17.177-5.575,17.177-12.442C1316.756,147.398,1309.734,136.499,1304.669,128.638z"/>
		<g>
			<defs>
				<path id="SVGID_00000178897107665235555280000015171398378026177952_" d="M1304.669,128.638
					c-1.116-1.732-3.033-2.779-5.09-2.779c-2.058,0-3.975,1.046-5.091,2.779c-5.065,7.861-12.087,18.76-12.087,18.76
					c0,6.867,7.697,12.442,17.177,12.442c9.48,0,17.177-5.575,17.177-12.442C1316.756,147.398,1309.734,136.499,1304.669,128.638z"
					/>
			</defs>
			<clipPath id="SVGID_00000097479230379064007320000006455758336286478238_">
				<use xlink:href="#SVGID_00000178897107665235555280000015171398378026177952_"  style="overflow:visible;"/>
			</clipPath>
			
				<path style="clip-path:url(#SVGID_00000097479230379064007320000006455758336286478238_);fill-rule:evenodd;clip-rule:evenodd;fill:#8FC300;" d="
				M1304.239,113.398c-1.151-1.388-2.859-2.191-4.66-2.191c-1.801,0-3.509,0.803-4.66,2.191
				c-5.087,6.143-12.517,16.016-12.517,21.277c0,6.867,7.697,12.442,17.177,12.442c9.48,0,17.177-5.575,17.177-12.442
				C1316.756,129.415,1309.326,119.541,1304.239,113.398z"/>
			
				<path style="clip-path:url(#SVGID_00000097479230379064007320000006455758336286478238_);fill-rule:evenodd;clip-rule:evenodd;fill:#8FC300;" d="
				M1290.319,145.664c0.5-0.869,0.203-1.981-0.664-2.483c-0.867-0.501-1.977-0.203-2.477,0.665l-1.813,3.148
				c-0.5,0.869-0.203,1.981,0.664,2.483c0.867,0.501,1.977,0.203,2.477-0.665L1290.319,145.664z"/>
			
				<path style="clip-path:url(#SVGID_00000097479230379064007320000006455758336286478238_);fill-rule:evenodd;clip-rule:evenodd;fill:#8FC300;" d="
				M1312.324,143.238c-0.501-0.869-1.611-1.167-2.477-0.665c-0.867,0.501-1.164,1.614-0.664,2.483l1.571,2.726
				c0.5,0.869,1.61,1.167,2.477,0.665c0.867-0.501,1.164-1.614,0.664-2.483L1312.324,143.238z"/>
		</g>
		<path style="fill-rule:evenodd;clip-rule:evenodd;fill:#A2D500;" d="M1302.833,118.565c-0.624-0.939-1.675-1.503-2.8-1.503
			c-1.126,0-2.177,0.564-2.801,1.503c-3.874,5.831-10.397,15.647-10.397,15.647c0,2.982,2.01,5.638,5.13,7.334
			c2.231,1.213,5.03,1.935,8.068,1.935c7.284,0,13.197-4.153,13.197-9.269C1313.23,134.213,1306.707,124.396,1302.833,118.565z"/>
		<g>
			<defs>
				<path id="SVGID_00000021105096593431941830000003817223457494785454_" d="M1302.833,118.565c-0.624-0.939-1.675-1.503-2.8-1.503
					c-1.126,0-2.177,0.564-2.801,1.503c-3.874,5.831-10.397,15.647-10.397,15.647c0,2.982,2.01,5.638,5.13,7.334
					c2.231,1.213,5.03,1.935,8.068,1.935c7.284,0,13.197-4.153,13.197-9.269C1313.23,134.213,1306.707,124.396,1302.833,118.565z"/>
			</defs>
			<clipPath id="SVGID_00000064330753488478464480000009553408617120836522_">
				<use xlink:href="#SVGID_00000021105096593431941830000003817223457494785454_"  style="overflow:visible;"/>
			</clipPath>
			
				<path style="clip-path:url(#SVGID_00000064330753488478464480000009553408617120836522_);fill-rule:evenodd;clip-rule:evenodd;fill:#C2ED00;" d="
				M1311.417,125.854c0-6.321-5.121-11.454-11.428-11.454h-0.263c-6.307,0-11.428,5.132-11.428,11.454v0.485
				c0,6.321,5.12,11.454,11.428,11.454h0.263c6.307,0,11.428-5.132,11.428-11.454V125.854z"/>
			
				<path style="clip-path:url(#SVGID_00000064330753488478464480000009553408617120836522_);fill-rule:evenodd;clip-rule:evenodd;fill:#A2D500;" d="
				M1300.615,125.795c0.269-0.966-0.294-1.97-1.258-2.24c-0.964-0.27-1.965,0.295-2.234,1.261l-0.146,0.523
				c-0.269,0.966,0.295,1.97,1.259,2.24c0.964,0.27,1.965-0.295,2.234-1.261L1300.615,125.795z"/>
			
				<path style="clip-path:url(#SVGID_00000064330753488478464480000009553408617120836522_);fill-rule:evenodd;clip-rule:evenodd;fill:#A2D500;" d="
				M1295.309,129.807c0.429-0.906,0.043-1.991-0.861-2.421c-0.904-0.43-1.987-0.043-2.416,0.863l-0.777,1.642
				c-0.429,0.906-0.043,1.991,0.861,2.421c0.904,0.43,1.987,0.043,2.416-0.863L1295.309,129.807z"/>
			
				<path style="clip-path:url(#SVGID_00000064330753488478464480000009553408617120836522_);fill-rule:evenodd;clip-rule:evenodd;fill:#A2D500;" d="
				M1302.35,132.576c0-1.003-0.813-1.818-1.813-1.818c-1.001,0-1.813,0.815-1.813,1.818v1.818c0,1.003,0.813,1.818,1.813,1.818
				c1.001,0,1.813-0.815,1.813-1.818V132.576z"/>
			
				<path style="clip-path:url(#SVGID_00000064330753488478464480000009553408617120836522_);fill-rule:evenodd;clip-rule:evenodd;fill:#A2D500;" d="
				M1307.088,126.456c-0.503-0.867-1.614-1.162-2.479-0.657c-0.865,0.504-1.159,1.618-0.656,2.485l0.912,1.571
				c0.503,0.867,1.614,1.162,2.479,0.658c0.865-0.504,1.159-1.618,0.656-2.485L1307.088,126.456z"/>
		</g>
		<path style="fill-rule:evenodd;clip-rule:evenodd;fill:#C2ED00;" d="M1297.765,143.338c0-1.003,0.813-1.818,1.814-1.818
			c1.001,0,1.813,0.814,1.813,1.818v0.144c0,1.003-0.813,1.818-1.813,1.818c-1.001,0-1.814-0.814-1.814-1.818V143.338z"/>
		<path style="fill-rule:evenodd;clip-rule:evenodd;fill:#C2ED00;" d="M1288.131,138.911c0.376-0.93,1.435-1.378,2.362-1.001
			c0.927,0.377,1.375,1.438,0.998,2.368l-0.054,0.133c-0.377,0.93-1.435,1.378-2.363,1.001c-0.927-0.377-1.375-1.438-0.998-2.368
			L1288.131,138.911z"/>
		<path style="fill-rule:evenodd;clip-rule:evenodd;fill:#C2ED00;" d="M1311.618,138.892c-0.376-0.93-1.435-1.378-2.362-1.001
			c-0.927,0.377-1.375,1.438-0.998,2.368l0.054,0.133c0.376,0.93,1.435,1.378,2.362,1.001c0.927-0.377,1.375-1.438,0.998-2.368
			L1311.618,138.892z"/>
		<path style="fill-rule:evenodd;clip-rule:evenodd;fill:#C2ED00;" d="M1285.446,134.44c0.541-0.844,1.663-1.09,2.505-0.548
			c0.842,0.542,1.088,1.667,0.547,2.511l-0.077,0.121c-0.541,0.844-1.663,1.09-2.506,0.548c-0.843-0.542-1.088-1.667-0.547-2.511
			L1285.446,134.44z"/>
		<path style="fill-rule:evenodd;clip-rule:evenodd;fill:#C2ED00;" d="M1314.302,134.422c-0.541-0.844-1.663-1.09-2.505-0.548
			c-0.842,0.542-1.088,1.667-0.547,2.511l0.077,0.121c0.541,0.844,1.663,1.09,2.506,0.548c0.842-0.542,1.087-1.667,0.547-2.511
			L1314.302,134.422z"/>
		<path style="fill-rule:evenodd;clip-rule:evenodd;fill:#C2ED00;" d="M1292.16,141.988c0.164-0.99,1.098-1.66,2.086-1.496
			c0.987,0.164,1.656,1.101,1.493,2.09l-0.024,0.142c-0.164,0.99-1.098,1.66-2.086,1.496s-1.656-1.101-1.492-2.09L1292.16,141.988z"
			/>
		<path style="fill-rule:evenodd;clip-rule:evenodd;fill:#C2ED00;" d="M1307.589,141.97c-0.164-0.99-1.098-1.66-2.086-1.496
			c-0.987,0.164-1.656,1.101-1.492,2.09l0.023,0.142c0.164,0.99,1.098,1.66,2.086,1.496c0.987-0.164,1.656-1.101,1.492-2.09
			L1307.589,141.97z"/>
	</g>
	<g>
		<path style="fill-rule:evenodd;clip-rule:evenodd;fill:#8FC300;" d="M1126.764,128.498c-1.112-1.754-3.041-2.816-5.115-2.816
			s-4.003,1.062-5.114,2.816c-6.058,9.554-15.337,24.188-15.337,24.188c0,8.307,9.164,15.052,20.451,15.052
			c11.287,0,20.451-6.745,20.451-15.052C1142.101,152.686,1132.822,138.052,1126.764,128.498z"/>
		<g>
			<defs>
				<path id="SVGID_00000085947662481784922380000004721364087817770170_" d="M1126.764,128.498
					c-1.112-1.754-3.041-2.816-5.115-2.816s-4.003,1.062-5.114,2.816c-6.058,9.554-15.337,24.188-15.337,24.188
					c0,8.307,9.164,15.052,20.451,15.052c11.287,0,20.451-6.745,20.451-15.052C1142.101,152.686,1132.822,138.052,1126.764,128.498z
					"/>
			</defs>
			<clipPath id="SVGID_00000049216395322221885280000017992497114194415004_">
				<use xlink:href="#SVGID_00000085947662481784922380000004721364087817770170_"  style="overflow:visible;"/>
			</clipPath>
			
				<path style="clip-path:url(#SVGID_00000049216395322221885280000017992497114194415004_);fill-rule:evenodd;clip-rule:evenodd;fill:#5AAA00;" d="
				M1125.86,114.963c-1.151-1.392-2.861-2.198-4.665-2.198c-1.804,0-3.514,0.805-4.666,2.197
				c-6.034,7.305-15.785,20.138-15.785,26.819c0,8.307,9.164,15.052,20.451,15.052c11.287,0,20.451-6.745,20.451-15.052
				C1141.647,135.099,1131.896,122.267,1125.86,114.963z"/>
		</g>
		<path style="fill-rule:evenodd;clip-rule:evenodd;fill:#A2D500;" d="M1126.286,121.996c-1.116-1.732-3.033-2.779-5.091-2.779
			c-2.058,0-3.974,1.046-5.091,2.779c-5.065,7.861-12.087,18.76-12.087,18.76c0,6.867,7.697,12.442,17.177,12.442
			c9.48,0,17.177-5.575,17.177-12.442C1138.373,140.756,1131.351,129.857,1126.286,121.996z"/>
		<g>
			<defs>
				<path id="SVGID_00000134231599821615006480000010581246727422432397_" d="M1126.286,121.996
					c-1.116-1.732-3.033-2.779-5.091-2.779c-2.058,0-3.974,1.046-5.091,2.779c-5.065,7.861-12.087,18.76-12.087,18.76
					c0,6.867,7.697,12.442,17.177,12.442c9.48,0,17.177-5.575,17.177-12.442C1138.373,140.756,1131.351,129.857,1126.286,121.996z"
					/>
			</defs>
			<clipPath id="SVGID_00000030451976323987318060000012528561403446589082_">
				<use xlink:href="#SVGID_00000134231599821615006480000010581246727422432397_"  style="overflow:visible;"/>
			</clipPath>
			
				<path style="clip-path:url(#SVGID_00000030451976323987318060000012528561403446589082_);fill-rule:evenodd;clip-rule:evenodd;fill:#8FC300;" d="
				M1125.856,106.756c-1.151-1.388-2.859-2.191-4.66-2.191c-1.801,0-3.509,0.803-4.66,2.191
				c-5.087,6.143-12.517,16.016-12.517,21.277c0,6.867,7.697,12.442,17.177,12.442c9.48,0,17.177-5.575,17.177-12.442
				C1138.373,122.772,1130.943,112.899,1125.856,106.756z"/>
			
				<path style="clip-path:url(#SVGID_00000030451976323987318060000012528561403446589082_);fill-rule:evenodd;clip-rule:evenodd;fill:#8FC300;" d="
				M1111.936,139.022c0.5-0.869,0.203-1.981-0.664-2.483c-0.867-0.501-1.977-0.203-2.477,0.665l-1.813,3.148
				c-0.5,0.869-0.203,1.981,0.664,2.483c0.867,0.501,1.977,0.203,2.477-0.665L1111.936,139.022z"/>
			
				<path style="clip-path:url(#SVGID_00000030451976323987318060000012528561403446589082_);fill-rule:evenodd;clip-rule:evenodd;fill:#8FC300;" d="
				M1116.238,145.663c0.327-0.948-0.175-1.984-1.12-2.312c-0.946-0.328-1.979,0.175-2.307,1.123l-0.593,1.717
				c-0.327,0.948,0.175,1.984,1.12,2.312c0.946,0.328,1.979-0.175,2.307-1.123L1116.238,145.663z"/>
			
				<path style="clip-path:url(#SVGID_00000030451976323987318060000012528561403446589082_);fill-rule:evenodd;clip-rule:evenodd;fill:#8FC300;" d="
				M1123.967,144.11c0-1.003-0.813-1.818-1.813-1.818c-1.001,0-1.813,0.814-1.813,1.818v1.818c0,1.003,0.812,1.818,1.813,1.818
				c1.001,0,1.813-0.814,1.813-1.818V144.11z"/>
			
				<path style="clip-path:url(#SVGID_00000030451976323987318060000012528561403446589082_);fill-rule:evenodd;clip-rule:evenodd;fill:#8FC300;" d="
				M1131.097,144.41c-0.363-0.935-1.414-1.399-2.347-1.036c-0.933,0.363-1.396,1.418-1.033,2.353l0.657,1.694
				c0.363,0.935,1.414,1.399,2.347,1.036c0.933-0.363,1.396-1.418,1.033-2.353L1131.097,144.41z"/>
			
				<path style="clip-path:url(#SVGID_00000030451976323987318060000012528561403446589082_);fill-rule:evenodd;clip-rule:evenodd;fill:#8FC300;" d="
				M1133.941,136.596c-0.501-0.869-1.611-1.167-2.477-0.665c-0.867,0.501-1.164,1.614-0.664,2.483l1.571,2.726
				c0.5,0.869,1.61,1.167,2.477,0.665c0.867-0.501,1.164-1.614,0.664-2.483L1133.941,136.596z"/>
		</g>
		<path style="fill-rule:evenodd;clip-rule:evenodd;fill:#A2D500;" d="M1124.45,111.923c-0.624-0.939-1.675-1.503-2.8-1.503
			c-1.125,0-2.176,0.564-2.8,1.503c-3.874,5.831-10.397,15.647-10.397,15.647c0,2.982,2.01,5.638,5.13,7.334
			c2.231,1.213,5.03,1.935,8.068,1.935c7.284,0,13.198-4.153,13.198-9.269C1134.847,127.57,1128.324,117.754,1124.45,111.923z"/>
		<g>
			<defs>
				<path id="SVGID_00000035525021908287037330000016644981244879339444_" d="M1124.45,111.923c-0.624-0.939-1.675-1.503-2.8-1.503
					c-1.125,0-2.176,0.564-2.8,1.503c-3.874,5.831-10.397,15.647-10.397,15.647c0,2.982,2.01,5.638,5.13,7.334
					c2.231,1.213,5.03,1.935,8.068,1.935c7.284,0,13.198-4.153,13.198-9.269C1134.847,127.57,1128.324,117.754,1124.45,111.923z"/>
			</defs>
			<clipPath id="SVGID_00000119803061100361412320000012657939236842167705_">
				<use xlink:href="#SVGID_00000035525021908287037330000016644981244879339444_"  style="overflow:visible;"/>
			</clipPath>
			
				<path style="clip-path:url(#SVGID_00000119803061100361412320000012657939236842167705_);fill-rule:evenodd;clip-rule:evenodd;fill:#C2ED00;" d="
				M1133.034,119.211c0-6.321-5.121-11.454-11.428-11.454h-0.263c-6.307,0-11.428,5.132-11.428,11.454v0.485
				c0,6.321,5.12,11.454,11.428,11.454h0.263c6.307,0,11.428-5.132,11.428-11.454V119.211z"/>
			
				<path style="clip-path:url(#SVGID_00000119803061100361412320000012657939236842167705_);fill-rule:evenodd;clip-rule:evenodd;fill:#A2D500;" d="
				M1122.232,119.153c0.269-0.966-0.294-1.97-1.258-2.24c-0.964-0.27-1.965,0.295-2.235,1.261l-0.146,0.523
				c-0.269,0.966,0.295,1.97,1.258,2.24c0.964,0.27,1.965-0.295,2.235-1.261L1122.232,119.153z"/>
			
				<path style="clip-path:url(#SVGID_00000119803061100361412320000012657939236842167705_);fill-rule:evenodd;clip-rule:evenodd;fill:#A2D500;" d="
				M1116.926,123.165c0.429-0.906,0.043-1.991-0.861-2.421c-0.904-0.43-1.987-0.043-2.416,0.863l-0.777,1.642
				c-0.429,0.906-0.043,1.991,0.861,2.421c0.904,0.43,1.987,0.043,2.416-0.863L1116.926,123.165z"/>
			
				<path style="clip-path:url(#SVGID_00000119803061100361412320000012657939236842167705_);fill-rule:evenodd;clip-rule:evenodd;fill:#A2D500;" d="
				M1123.967,125.934c0-1.003-0.813-1.818-1.813-1.818c-1.001,0-1.813,0.815-1.813,1.818v1.818c0,1.003,0.812,1.818,1.813,1.818
				c1.001,0,1.813-0.815,1.813-1.818V125.934z"/>
			
				<path style="clip-path:url(#SVGID_00000119803061100361412320000012657939236842167705_);fill-rule:evenodd;clip-rule:evenodd;fill:#A2D500;" d="
				M1128.705,119.814c-0.503-0.867-1.614-1.162-2.479-0.657c-0.865,0.504-1.159,1.618-0.656,2.485l0.912,1.571
				c0.503,0.867,1.614,1.162,2.479,0.658c0.865-0.504,1.159-1.618,0.656-2.485L1128.705,119.814z"/>
		</g>
		<path style="fill-rule:evenodd;clip-rule:evenodd;fill:#C2ED00;" d="M1119.382,136.696c0-1.003,0.813-1.818,1.814-1.818
			c1.001,0,1.813,0.814,1.813,1.818v0.144c0,1.003-0.813,1.818-1.813,1.818c-1.001,0-1.814-0.814-1.814-1.818V136.696z"/>
		<path style="fill-rule:evenodd;clip-rule:evenodd;fill:#C2ED00;" d="M1109.748,132.268c0.376-0.93,1.435-1.378,2.362-1.001
			c0.927,0.377,1.375,1.438,0.998,2.368l-0.054,0.133c-0.376,0.93-1.435,1.378-2.363,1.001c-0.927-0.377-1.375-1.438-0.998-2.368
			L1109.748,132.268z"/>
		<path style="fill-rule:evenodd;clip-rule:evenodd;fill:#C2ED00;" d="M1133.235,132.25c-0.376-0.93-1.435-1.378-2.362-1.001
			c-0.927,0.377-1.375,1.438-0.998,2.368l0.054,0.133c0.376,0.93,1.435,1.378,2.363,1.001c0.927-0.377,1.375-1.438,0.998-2.368
			L1133.235,132.25z"/>
		<path style="fill-rule:evenodd;clip-rule:evenodd;fill:#C2ED00;" d="M1107.063,127.798c0.541-0.844,1.663-1.09,2.505-0.548
			c0.843,0.542,1.088,1.667,0.547,2.511l-0.077,0.121c-0.54,0.844-1.663,1.09-2.506,0.548c-0.842-0.542-1.088-1.667-0.547-2.511
			L1107.063,127.798z"/>
		<path style="fill-rule:evenodd;clip-rule:evenodd;fill:#A6D320;" d="M1102.569,141.19c0.541-0.844,1.663-1.09,2.506-0.548
			s1.088,1.667,0.547,2.511l-0.077,0.121c-0.54,0.844-1.663,1.09-2.506,0.548s-1.088-1.667-0.547-2.511L1102.569,141.19z"/>
		<path style="fill-rule:evenodd;clip-rule:evenodd;fill:#A2D500;" d="M1140.18,141.19c-0.541-0.844-1.663-1.09-2.506-0.548
			c-0.843,0.542-1.088,1.667-0.547,2.511l0.077,0.121c0.541,0.844,1.663,1.09,2.506,0.548c0.842-0.542,1.087-1.667,0.547-2.511
			L1140.18,141.19z"/>
		<path style="fill-rule:evenodd;clip-rule:evenodd;fill:#A2D500;" d="M1104.746,145.807c0.541-0.844,1.663-1.09,2.506-0.548
			c0.843,0.542,1.088,1.667,0.547,2.511l-0.077,0.121c-0.541,0.844-1.663,1.09-2.506,0.548c-0.842-0.542-1.087-1.667-0.547-2.511
			L1104.746,145.807z"/>
		<path style="fill-rule:evenodd;clip-rule:evenodd;fill:#A2D500;" d="M1138.003,145.807c-0.54-0.844-1.663-1.09-2.505-0.548
			c-0.842,0.542-1.088,1.667-0.547,2.511l0.077,0.121c0.541,0.844,1.663,1.09,2.506,0.548c0.842-0.542,1.088-1.667,0.547-2.511
			L1138.003,145.807z"/>
		<path style="fill-rule:evenodd;clip-rule:evenodd;fill:#C2ED00;" d="M1135.92,127.78c-0.541-0.844-1.663-1.09-2.505-0.548
			c-0.842,0.542-1.088,1.667-0.547,2.511l0.077,0.121c0.541,0.844,1.663,1.09,2.506,0.548c0.843-0.542,1.088-1.667,0.547-2.511
			L1135.92,127.78z"/>
		<path style="fill-rule:evenodd;clip-rule:evenodd;fill:#C2ED00;" d="M1113.777,135.345c0.164-0.99,1.098-1.66,2.086-1.496
			c0.987,0.164,1.656,1.101,1.492,2.09l-0.024,0.142c-0.164,0.99-1.098,1.66-2.085,1.496c-0.987-0.164-1.656-1.101-1.492-2.09
			L1113.777,135.345z"/>
		<path style="fill-rule:evenodd;clip-rule:evenodd;fill:#C2ED00;" d="M1129.206,135.327c-0.164-0.99-1.098-1.66-2.086-1.496
			c-0.987,0.164-1.656,1.101-1.492,2.09l0.024,0.142c0.164,0.99,1.098,1.66,2.086,1.496c0.987-0.164,1.656-1.101,1.492-2.09
			L1129.206,135.327z"/>
	</g>
</g>
</svg>
