<?xml version="1.0" encoding="utf-8"?>
<!-- Generator: Adobe Illustrator 27.7.0, SVG Export Plug-In . SVG Version: 6.00 Build 0)  -->
<svg version="1.1" xmlns="http://www.w3.org/2000/svg" xmlns:xlink="http://www.w3.org/1999/xlink" x="0px" y="0px" width="1570px"
	 height="145px" viewBox="0 0 1570 145" style="enable-background:new 0 0 1570 145;" xml:space="preserve">
<g id="background">
	<g>
		<path style="fill:#00B365;" d="M-34.651,958.275h285.157c74.217,0,134.382,60.165,134.382,134.382v150.46
			c0,74.217,60.165,134.382,134.382,134.382h216.013c74.217,0,134.382,60.165,134.382,134.382v153.855
			c0,74.217,60.165,134.382,134.382,134.382h600.603V-884.4H-34.651V958.275z"/>
		<g>
		</g>
	</g>
	<g>
		<path style="fill:#77D629;" d="M-110.714-855.73h518.915v64.66c0,31.943,25.895,57.837,57.837,57.837h90.6
			c18.713,0,33.882,15.17,33.882,33.882v0c0,18.713,15.17,33.882,33.882,33.882h114.332c50.572,0,91.568,40.997,91.568,91.568v4.503
			c0,50.572,40.997,91.568,91.568,91.568h48.827c50.572,0,91.568,40.997,91.568,91.568v77.192c0,50.572-40.997,91.568-91.568,91.568
			h0c-50.572,0-91.568,40.997-91.568,91.568v102.725c0,52.857-42.849,95.706-95.706,95.706H673.855
			c-34.509,0-62.483,27.975-62.483,62.483v0c0,34.509-27.975,62.483-62.483,62.483h-91.002
			c-57.736,0-104.541,46.805-104.541,104.541V450.48c0,42.94-34.81,77.75-77.75,77.75h-382.523L-110.714-855.73z"/>
		<g>
			
				<path style="fill:none;stroke:#77D629;stroke-width:10;stroke-linecap:round;stroke-linejoin:round;stroke-dasharray:0,10.0137;" d="
				M408.201-845.716v54.646c0,31.943,25.895,57.837,57.837,57.837h90.6c18.713,0,33.882,15.17,33.882,33.882v0
				c0,18.713,15.17,33.882,33.882,33.882h114.332c50.572,0,91.568,40.997,91.568,91.568v4.503c0,50.572,40.997,91.568,91.568,91.568
				h48.827c50.572,0,91.568,40.997,91.568,91.568v77.192c0,50.572-40.997,91.568-91.568,91.568h0
				c-50.572,0-91.568,40.997-91.568,91.568v102.725c0,52.857-42.849,95.706-95.706,95.706H673.855
				c-34.509,0-62.483,27.975-62.483,62.483v0c0,34.509-27.975,62.483-62.483,62.483h-91.002
				c-57.736,0-104.541,46.805-104.541,104.541V450.48c0,42.94-34.81,77.75-77.75,77.75h-377.516"/>
		</g>
	</g>
	<g>
		<path style="fill:#FFED8B;" d="M1897.828,1283.232h-519.839c-18.713,0-33.882-15.17-33.882-33.882l0,0
			c0-18.713-15.17-33.882-33.882-33.882h-114.332c-50.572,0-91.568-40.997-91.568-91.568v-4.503
			c0-50.572-40.997-91.568-91.568-91.568H963.93c-50.572,0-91.568-40.997-91.568-91.568v-77.192
			c0-50.572,40.997-91.568,91.568-91.568h0c50.572,0,91.568-40.997,91.568-91.568V573.205c0-52.857,42.849-95.706,95.706-95.706
			h109.568c34.509,0,62.483-27.975,62.483-62.483v0c0-34.509,27.975-62.483,62.484-62.483h91.002
			c57.736,0,104.541-46.805,104.541-104.541V99.519c0-42.94,34.81-77.75,77.75-77.75h235.009
			C1894.042,21.768,2035.576,1283.232,1897.828,1283.232z"/>
		<g>
			
				<path style="fill:none;stroke:#00B365;stroke-width:10;stroke-linecap:round;stroke-linejoin:round;stroke-dasharray:0,10.0064;" d="
				M1895.138,31.71c12.911,118.246,133.251,1251.522,2.69,1251.522h-519.839c-18.713,0-33.882-15.169-33.882-33.882v0
				c0-18.713-15.17-33.882-33.882-33.882h-114.332c-50.572,0-91.568-40.997-91.568-91.568v-4.503
				c0-50.572-40.997-91.568-91.568-91.568H963.93c-50.572,0-91.568-40.997-91.568-91.568v-77.192
				c0-50.572,40.997-91.568,91.568-91.568h0c50.572,0,91.568-40.997,91.568-91.568V573.205c0-52.857,42.849-95.706,95.706-95.706
				h109.568c34.509,0,62.483-27.975,62.483-62.484v0c0-34.509,27.975-62.483,62.484-62.483h91.002
				c57.736,0,104.541-46.805,104.541-104.541V99.519c0-42.94,34.81-77.75,77.75-77.75h230.006"/>
		</g>
	</g>
	<g>
		<g>
			<path style="fill:#77D629;" d="M1205.412-5.741L1205.412-5.741c0-22.131,17.941-40.072,40.072-40.072h28.992
				c19.614,0,35.515-15.9,35.515-35.515v-28.663c0-19.614-15.9-35.515-35.515-35.515H986.766c-21.569,0-39.055,17.485-39.055,39.055
				V72.184c0,22.518,18.254,40.772,40.772,40.772h86.239c22.518,0,40.772-18.254,40.772-40.772v0
				c0-20.905,16.947-37.852,37.852-37.852h11.994C1187.472,34.331,1205.412,16.39,1205.412-5.741z"/>
			
				<path style="fill:none;stroke:#77D629;stroke-width:10;stroke-linecap:round;stroke-linejoin:round;stroke-dasharray:0,9.9861;" d="
				M1205.412-5.741L1205.412-5.741c0-22.131,17.941-40.072,40.072-40.072h28.992c19.614,0,35.515-15.9,35.515-35.515v-28.663
				c0-19.614-15.9-35.515-35.515-35.515H986.766c-21.569,0-39.055,17.485-39.055,39.055V72.184
				c0,22.518,18.254,40.772,40.772,40.772h86.239c22.518,0,40.772-18.254,40.772-40.772v0c0-20.905,16.947-37.852,37.852-37.852
				h11.994C1187.472,34.331,1205.412,16.39,1205.412-5.741z"/>
		</g>
	</g>
	<g>
		<path style="fill:#4EEAE6;" d="M1915.594,619.858c-15.164-246.81-40.041-489.163-48.47-568.09h-208.091
			c-26.372,0-47.75,21.378-47.75,47.75v148.473c0,74.305-60.236,134.541-134.541,134.541h-91.003
			c-17.878,0-32.514,14.446-32.484,32.324c0.087,51.069-41.435,92.643-92.483,92.643h-109.568
			c-36.288,0-65.706,29.418-65.706,65.706V676.67c0,67.075-54.876,120.422-121.949,120.83
			c-33.775,0.206-61.187,27.745-61.187,61.567v77.192c0,34.003,27.565,61.568,61.568,61.568h48.826
			c67.14,0,121.568,54.428,121.568,121.568v4.502c0,19.435,9.056,36.788,23.168,48.075c7.282,5.825,4.079,17.475-5.181,18.58
			c-1.948,0.232-3.996,0.353-6.147,0.353h-82.922c-28.365,0-51.443,23.078-51.443,51.443h0.197v103.748h28.883v-106.539h-0.006
			c1.382-11.125,10.876-19.769,22.369-19.769h82.922c19.539,0,37.086-8.326,49.027-21.699c7.064-7.911,17.028-12.623,27.635-12.623
			h87.399c35.206,0,63.852,28.628,63.882,63.828c0.002,2.166,1.716,3.937,3.881,3.937h516.852
			c2.993-3.573,11.771-17.096,19.334-58.92c6.629-36.658,10.939-86.93,12.813-149.417
			C1930.191,938.057,1926.357,795.054,1915.594,619.858z"/>
	</g>
	<path style="fill:#04D5D8;" d="M1400.411,1223.231c-11.341-39.102-47.479-67.765-90.187-67.765h-114.332
		c-17.407,0-31.568-14.161-31.568-31.568v-4.502c0-83.575-67.993-151.568-151.568-151.568H963.93
		c-17.407,0-31.568-14.161-31.568-31.568v-77.192c0-17.407,14.161-31.568,31.568-31.568c83.575,0,151.568-67.993,151.568-151.568
		V573.205c0-19.688,16.018-35.706,35.706-35.706h109.568c67.537,0,122.483-54.945,122.483-122.483c0-1.346,1.138-2.483,2.483-2.483
		h91.003c90.729,0,164.541-73.812,164.541-164.541V99.519c0-9.787,7.963-17.75,17.75-17.75h181.086
		c9.769,93.812,31.798,316.412,45.531,539.93c10.708,174.295,14.527,316.376,11.351,422.297
		c-1.83,61.007-5.984,109.785-12.349,144.978c-2.944,16.286-5.968,27.207-8.379,34.259H1400.411z"/>
</g>
<g id="aulas" style="display:none;">
	<g style="display:inline;">
		<rect x="368.174" style="fill-rule:evenodd;clip-rule:evenodd;fill:#FFFFFF;" width="33.652" height="145"/>
		<circle style="fill-rule:evenodd;clip-rule:evenodd;fill:#5654A2;" cx="385" cy="72.5" r="42.5"/>
	</g>
</g>
<g id="Details">
	<g>
		<rect x="1305.543" y="86.972" style="fill-rule:evenodd;clip-rule:evenodd;fill:#FFFFFF;" width="134.193" height="33.649"/>
		<rect x="1305.543" y="72.184" style="fill-rule:evenodd;clip-rule:evenodd;fill:#B0BFBE;" width="85.396" height="14.789"/>
		<rect x="1397.039" y="93.09" style="fill-rule:evenodd;clip-rule:evenodd;fill:#E1B95B;" width="36.598" height="27.531"/>
		<path style="fill-rule:evenodd;clip-rule:evenodd;fill:#F8D88C;" d="M1400.089,93.09h6.1c0,0,0,5.555,0,9.18
			c0,0.809-0.32,1.588-0.892,2.16c-0.572,0.574-1.347,0.896-2.155,0.896c-0.001,0-0.003,0-0.006,0c-0.808,0-1.583-0.323-2.155-0.896
			c-0.57-0.572-0.892-1.351-0.892-2.16C1400.089,98.646,1400.089,93.09,1400.089,93.09z"/>
		<path style="fill-rule:evenodd;clip-rule:evenodd;fill:#F8D88C;" d="M1413.813,120.622h6.1c0,0,0-5.554,0-9.177
			c0-1.69-1.365-3.059-3.05-3.059c-1.684,0-3.05,1.369-3.05,3.059C1413.813,115.068,1413.813,120.622,1413.813,120.622z"/>
		<rect x="1421.437" y="100.738" style="fill-rule:evenodd;clip-rule:evenodd;fill:#538B9C;" width="6.1" height="7.648"/>
		<path style="fill-rule:evenodd;clip-rule:evenodd;fill:#FFFFFF;" d="M1427.537,100.738h-6.1v7.648h6.1V100.738z M1430.587,97.679
			h-12.199v13.766h12.199V97.679z"/>
		<rect x="1421.437" y="100.738" style="fill-rule:evenodd;clip-rule:evenodd;fill:#286474;" width="6.1" height="3.059"/>
		<rect x="1403.138" y="100.738" style="fill-rule:evenodd;clip-rule:evenodd;fill:#538B9C;" width="6.1" height="7.648"/>
		<path style="fill-rule:evenodd;clip-rule:evenodd;fill:#FFFFFF;" d="M1409.238,100.738h-6.1v7.648h6.1V100.738z M1412.288,97.679
			h-12.199v13.766h12.199V97.679z"/>
		<rect x="1403.138" y="100.738" style="fill-rule:evenodd;clip-rule:evenodd;fill:#286474;" width="6.1" height="3.059"/>
		<rect x="1354.341" y="93.09" style="fill-rule:evenodd;clip-rule:evenodd;fill:#E1B95B;" width="36.598" height="27.531"/>
		<path style="fill-rule:evenodd;clip-rule:evenodd;fill:#F8D88C;" d="M1386.361,109.915c-1.212,0-2.374-0.483-3.233-1.344
			c-0.857-0.86-1.339-2.025-1.339-3.241c0-4.983,0-12.239,0-12.239h9.15c0,0,0,7.256,0,12.239c0,1.216-0.482,2.381-1.339,3.241
			c-0.857,0.861-2.021,1.344-3.233,1.344C1386.366,109.915,1386.364,109.915,1386.361,109.915z"/>
		<rect x="1372.64" y="93.09" style="fill-rule:evenodd;clip-rule:evenodd;fill:#F8D88C;" width="9.15" height="16.825"/>
		<path style="fill-rule:evenodd;clip-rule:evenodd;fill:#F8D88C;" d="M1358.916,109.915h-4.575v10.707h4.575v-4.589
			c0,0,0.674,0,1.504,0c0.814,0,1.595-0.326,2.172-0.904c0.576-0.577,0.9-1.361,0.9-2.178c0-1.701,0-3.775,0-5.33
			c0-0.609-0.241-1.193-0.669-1.623c-0.428-0.43-1.011-0.672-1.618-0.672c-1.263,0-2.287,1.026-2.287,2.294
			C1358.916,108.768,1358.916,109.915,1358.916,109.915z"/>
		<rect x="1369.59" y="100.738" style="fill-rule:evenodd;clip-rule:evenodd;fill:#538B9C;" width="12.199" height="7.648"/>
		<path style="fill-rule:evenodd;clip-rule:evenodd;fill:#FFFFFF;" d="M1381.789,100.738h-12.199v7.648h12.199V100.738z
			 M1384.839,97.679h-18.299v13.766h18.299V97.679z"/>
		<rect x="1369.59" y="100.738" style="fill-rule:evenodd;clip-rule:evenodd;fill:#286474;" width="12.199" height="3.059"/>
		<rect x="1311.643" y="93.09" style="fill-rule:evenodd;clip-rule:evenodd;fill:#E1B95B;" width="36.598" height="27.531"/>
		<path style="fill-rule:evenodd;clip-rule:evenodd;fill:#F8D88C;" d="M1316.218,109.915h-4.575v10.707h4.575v-4.589
			c0,0,0.674,0,1.504,0c0.814,0,1.595-0.326,2.172-0.904c0.576-0.577,0.9-1.361,0.9-2.178c0-1.701,0-3.775,0-5.33
			c0-0.609-0.241-1.193-0.669-1.623s-1.011-0.672-1.618-0.672c-1.263,0-2.287,1.026-2.287,2.294
			C1316.218,108.768,1316.218,109.915,1316.218,109.915z"/>
		<path style="fill-rule:evenodd;clip-rule:evenodd;fill:#F8D88C;" d="M1340.617,93.09h6.1c0,0,0,7.771,0,12.236
			c0,0.811-0.32,1.589-0.892,2.163c-0.573,0.574-1.348,0.896-2.158,0.896c-0.808,0-1.584-0.323-2.156-0.896
			c-0.572-0.574-0.894-1.352-0.894-2.163C1340.617,100.862,1340.617,93.09,1340.617,93.09z"/>
		<path style="fill-rule:evenodd;clip-rule:evenodd;fill:#F8D88C;" d="M1336.042,93.09h6.1c0,0,0,3.451,0,6.121
			c0,1.687-1.363,3.056-3.047,3.056c-0.002,0-0.003,0-0.006,0c-1.682,0-3.047-1.369-3.047-3.056
			C1336.042,96.541,1336.042,93.09,1336.042,93.09z"/>
		<path style="fill-rule:evenodd;clip-rule:evenodd;fill:#F8D88C;" d="M1326.892,120.622h3.05c0,0,0-14.986,0-19.884
			c0-0.846-0.682-1.53-1.525-1.53c-0.842,0-1.525,0.684-1.525,1.53C1326.892,105.636,1326.892,120.622,1326.892,120.622z"/>
		<path style="fill-rule:evenodd;clip-rule:evenodd;fill:#F8D88C;" d="M1322.318,102.268c0,0.405,0.162,0.794,0.447,1.081
			c0.287,0.286,0.674,0.448,1.078,0.448c0.406,0,0.793-0.162,1.078-0.448c0.287-0.288,0.447-0.676,0.447-1.081
			c0-1.698,0-4.422,0-6.118c0-0.407-0.16-0.795-0.447-1.083c-0.285-0.286-0.672-0.447-1.078-0.447c-0.404,0-0.791,0.161-1.078,0.447
			c-0.285,0.288-0.447,0.676-0.447,1.083C1322.318,97.846,1322.318,100.57,1322.318,102.268z"/>
		<rect x="1390.939" y="53.323" style="fill-rule:evenodd;clip-rule:evenodd;fill:#FFFFFF;" width="48.797" height="33.649"/>
		<rect x="1390.939" y="37.005" style="fill-rule:evenodd;clip-rule:evenodd;fill:#B0BFBE;" width="48.797" height="16.318"/>
		<path style="fill-rule:evenodd;clip-rule:evenodd;fill:#617B7B;" d="M1445.837,100.441c-0.801,0.255-1.245,1.113-0.989,1.918
			c1.411,4.437,5.562,17.493,5.562,17.493l2.906-0.924c0,0-4.151-13.056-5.562-17.493c-0.256-0.805-1.113-1.25-1.915-0.995
			C1445.84,100.44,1445.839,100.441,1445.837,100.441z"/>
		<path style="fill-rule:evenodd;clip-rule:evenodd;fill:#617B7B;" d="M1308.592,59.946c-0.84,0-1.523,0.684-1.523,1.528
			c0,2.609,0,20.022,0,20.022h3.05c0,0,0-17.412,0-20.022c0-0.844-0.682-1.528-1.523-1.528
			C1308.595,59.946,1308.593,59.946,1308.592,59.946z"/>
		<path style="fill-rule:evenodd;clip-rule:evenodd;fill:#617B7B;" d="M1351.289,73.207c-0.84,0-1.523,0.684-1.523,1.528
			c0,3.281,0,6.761,0,6.761h3.05c0,0,0-3.48,0-6.761c0-0.844-0.682-1.528-1.523-1.528
			C1351.293,73.207,1351.291,73.207,1351.289,73.207z"/>
		<path style="fill-rule:evenodd;clip-rule:evenodd;fill:#617B7B;" d="M1351.289,16.614c-0.84,0-1.523,0.684-1.523,1.528
			c0,9.53,0,60.418,0,60.418h3.05c0,0,0-50.887,0-60.418c0-0.844-0.682-1.528-1.523-1.528
			C1351.293,16.614,1351.291,16.614,1351.289,16.614z"/>
		<path style="fill-rule:evenodd;clip-rule:evenodd;fill:#617B7B;" d="M1393.987,25.489c-0.84,0-1.523,0.684-1.523,1.528
			c0,4.656,0,18.356,0,18.356h3.05c0,0,0-13.7,0-18.356c0-0.844-0.682-1.528-1.523-1.528
			C1393.99,25.489,1393.989,25.489,1393.987,25.489z"/>
		<path style="fill-rule:evenodd;clip-rule:evenodd;fill:#617B7B;" d="M1352.053,40.88c-0.602-0.622-1.706-0.777-2.455-0.343
			c-7.08,4.1-34.246,19.832-40.568,23.493c-0.729,0.422-0.979,1.357-0.557,2.089l0,0c0.421,0.732,1.347,0.986,2.076,0.564
			c6.427-3.722,34.508-19.984,40.948-23.713c0.729-0.422,0.979-1.357,0.558-2.088L1352.053,40.88z"/>
		<path style="fill-rule:evenodd;clip-rule:evenodd;fill:#617B7B;" d="M1352.053,66.119c-0.421,0.731-1.353,0.982-2.082,0.56
			c-7.285-4.218-21.555-11.575-21.555-11.575l1.525-2.649c0,0,14.266,7.353,21.553,11.575c0.351,0.202,0.607,0.537,0.711,0.928
			C1352.311,65.35,1352.256,65.767,1352.053,66.119L1352.053,66.119z"/>
		<path style="fill-rule:evenodd;clip-rule:evenodd;fill:#617B7B;" d="M1352.816,72.44c0-0.844-0.682-1.528-1.523-1.528
			c-7.779,0-42.699,0-42.699,0v3.059c0,0,34.921,0,42.699,0c0.842,0,1.523-0.685,1.523-1.528
			C1352.816,72.442,1352.816,72.44,1352.816,72.44z"/>
		<rect x="1397.039" y="59.441" style="fill-rule:evenodd;clip-rule:evenodd;fill:#E1B95B;" width="36.598" height="27.531"/>
		<path style="fill-rule:evenodd;clip-rule:evenodd;fill:#F8D88C;" d="M1424.487,86.972h6.1c0,0,0-5.554,0-9.177
			c0-1.69-1.365-3.059-3.05-3.059c-1.684,0-3.05,1.369-3.05,3.059C1424.487,81.419,1424.487,86.972,1424.487,86.972z"/>
		<path style="fill-rule:evenodd;clip-rule:evenodd;fill:#F8D88C;" d="M1397.039,59.441h6.1c0,0,0,5.552,0,9.177
			c0,1.689-1.365,3.059-3.05,3.059c-1.683,0-3.05-1.37-3.05-3.059C1397.039,64.993,1397.039,59.441,1397.039,59.441z"/>
		<path style="fill-rule:evenodd;clip-rule:evenodd;fill:#F8D88C;" d="M1403.138,59.441h6.1c0,0,0,3.448,0,6.118
			c0,1.689-1.365,3.059-3.05,3.059c-1.683,0-3.05-1.37-3.05-3.059C1403.138,62.889,1403.138,59.441,1403.138,59.441z"/>
		<rect x="1407.713" y="68.618" style="fill-rule:evenodd;clip-rule:evenodd;fill:#538B9C;" width="15.249" height="7.648"/>
		<path style="fill-rule:evenodd;clip-rule:evenodd;fill:#FFFFFF;" d="M1422.962,68.618h-15.249v7.648h15.249V68.618z
			 M1426.012,65.559h-21.349v13.766h21.349V65.559z"/>
		<rect x="1407.713" y="68.618" style="fill-rule:evenodd;clip-rule:evenodd;fill:#286474;" width="15.249" height="3.059"/>
		
			<path style="fill-rule:evenodd;clip-rule:evenodd;fill:#00B365;stroke:#00B365;stroke-width:10;stroke-linecap:round;stroke-linejoin:round;stroke-miterlimit:10;stroke-dasharray:0,10;" d="
			M1292.399,120.622h73.815c2.442,0,4.842-0.639,6.96-1.853l14.882-8.53c2.119-1.214,4.518-1.853,6.96-1.853h26.285
			c4.631,0,8.962,2.29,11.569,6.118v0c2.607,3.828,6.938,6.118,11.569,6.118h10.979v6.017h-163.02V120.622z"/>
	</g>
	<g>
		<path style="fill-rule:evenodd;clip-rule:evenodd;fill:#8FC300;" d="M1233.106,145.791c-1.078-1.701-2.95-2.731-4.961-2.731
			s-3.882,1.03-4.961,2.731c-5.876,9.267-14.876,23.461-14.876,23.461c0,8.058,8.889,14.6,19.837,14.6
			c10.948,0,19.837-6.542,19.837-14.6C1247.982,169.253,1238.982,155.058,1233.106,145.791z"/>
		<g>
			<defs>
				<path id="SVGID_00000077301409671890546740000012794586506791324314_" d="M1233.106,145.791
					c-1.078-1.701-2.95-2.731-4.961-2.731s-3.882,1.03-4.961,2.731c-5.876,9.267-14.876,23.461-14.876,23.461
					c0,8.058,8.889,14.6,19.837,14.6c10.948,0,19.837-6.542,19.837-14.6C1247.982,169.253,1238.982,155.058,1233.106,145.791z"/>
			</defs>
			<clipPath id="SVGID_00000060029603134025882140000007589393101494360511_">
				<use xlink:href="#SVGID_00000077301409671890546740000012794586506791324314_"  style="overflow:visible;"/>
			</clipPath>
			
				<path style="clip-path:url(#SVGID_00000060029603134025882140000007589393101494360511_);fill-rule:evenodd;clip-rule:evenodd;fill:#5AAA00;" d="
				M1232.229,132.663c-1.117-1.351-2.775-2.132-4.525-2.132c-1.75,0-3.409,0.781-4.526,2.131
				c-5.853,7.086-15.311,19.533-15.311,26.013c0,8.058,8.889,14.6,19.837,14.6s19.837-6.542,19.837-14.6
				C1247.542,152.194,1238.084,139.747,1232.229,132.663z"/>
		</g>
		<path style="fill-rule:evenodd;clip-rule:evenodd;fill:#A2D500;" d="M1232.642,139.485c-1.083-1.68-2.942-2.695-4.938-2.695
			c-1.996,0-3.855,1.015-4.938,2.695c-4.912,7.625-11.724,18.196-11.724,18.196c0,6.66,7.466,12.068,16.661,12.068
			s16.661-5.408,16.661-12.068C1244.366,157.681,1237.555,147.11,1232.642,139.485z"/>
		<g>
			<defs>
				<path id="SVGID_00000183218983009482344380000014884746755131407785_" d="M1232.642,139.485
					c-1.083-1.68-2.942-2.695-4.938-2.695c-1.996,0-3.855,1.015-4.938,2.695c-4.912,7.625-11.724,18.196-11.724,18.196
					c0,6.66,7.466,12.068,16.661,12.068s16.661-5.408,16.661-12.068C1244.366,157.681,1237.555,147.11,1232.642,139.485z"/>
			</defs>
			<clipPath id="SVGID_00000145044855761594331120000005292538132279880622_">
				<use xlink:href="#SVGID_00000183218983009482344380000014884746755131407785_"  style="overflow:visible;"/>
			</clipPath>
			
				<path style="clip-path:url(#SVGID_00000145044855761594331120000005292538132279880622_);fill-rule:evenodd;clip-rule:evenodd;fill:#8FC300;" d="
				M1232.225,124.702c-1.117-1.347-2.773-2.126-4.52-2.126c-1.747,0-3.404,0.779-4.52,2.126
				c-4.934,5.958-12.141,15.535-12.141,20.638c0,6.66,7.466,12.068,16.661,12.068s16.661-5.408,16.661-12.068
				C1244.366,140.238,1237.159,130.661,1232.225,124.702z"/>
		</g>
		<path style="fill-rule:evenodd;clip-rule:evenodd;fill:#A2D500;" d="M1230.862,129.714c-0.605-0.911-1.625-1.458-2.716-1.458
			c-1.092,0-2.111,0.547-2.716,1.458c-3.758,5.655-10.085,15.177-10.085,15.177c0,2.893,1.95,5.468,4.976,7.113
			c2.164,1.176,4.879,1.877,7.825,1.877c7.065,0,12.801-4.028,12.801-8.99C1240.946,144.892,1234.619,135.37,1230.862,129.714z"/>
		<g>
			<defs>
				<path id="SVGID_00000148625299233447391470000011266864655153908625_" d="M1230.862,129.714
					c-0.605-0.911-1.625-1.458-2.716-1.458c-1.092,0-2.111,0.547-2.716,1.458c-3.758,5.655-10.085,15.177-10.085,15.177
					c0,2.893,1.95,5.468,4.976,7.113c2.164,1.176,4.879,1.877,7.825,1.877c7.065,0,12.801-4.028,12.801-8.99
					C1240.946,144.892,1234.619,135.37,1230.862,129.714z"/>
			</defs>
			<clipPath id="SVGID_00000025405339584281228100000018161090119333526959_">
				<use xlink:href="#SVGID_00000148625299233447391470000011266864655153908625_"  style="overflow:visible;"/>
			</clipPath>
			
				<path style="clip-path:url(#SVGID_00000025405339584281228100000018161090119333526959_);fill-rule:evenodd;clip-rule:evenodd;fill:#C2ED00;" d="
				M1239.187,136.784c0-6.131-4.967-11.109-11.084-11.109h-0.256c-6.118,0-11.084,4.978-11.084,11.109v0.47
				c0,6.131,4.967,11.109,11.084,11.109h0.256c6.117,0,11.084-4.978,11.084-11.109V136.784z"/>
			
				<path style="clip-path:url(#SVGID_00000025405339584281228100000018161090119333526959_);fill-rule:evenodd;clip-rule:evenodd;fill:#A2D500;" d="
				M1228.71,136.727c0.261-0.937-0.286-1.91-1.221-2.172c-0.935-0.262-1.906,0.286-2.167,1.223l-0.141,0.507
				c-0.261,0.937,0.286,1.91,1.221,2.172c0.935,0.262,1.906-0.286,2.167-1.223L1228.71,136.727z"/>
			
				<path style="clip-path:url(#SVGID_00000025405339584281228100000018161090119333526959_);fill-rule:evenodd;clip-rule:evenodd;fill:#A2D500;" d="
				M1223.564,140.619c0.416-0.879,0.042-1.931-0.835-2.348c-0.877-0.417-1.927-0.042-2.343,0.837l-0.754,1.593
				c-0.416,0.879-0.042,1.931,0.835,2.348c0.877,0.417,1.927,0.042,2.343-0.837L1223.564,140.619z"/>
			
				<path style="clip-path:url(#SVGID_00000025405339584281228100000018161090119333526959_);fill-rule:evenodd;clip-rule:evenodd;fill:#A2D500;" d="
				M1230.392,143.304c0-0.973-0.788-1.763-1.759-1.763c-0.971,0-1.759,0.79-1.759,1.763v1.763c0,0.973,0.788,1.763,1.759,1.763
				c0.971,0,1.759-0.79,1.759-1.763V143.304z"/>
			
				<path style="clip-path:url(#SVGID_00000025405339584281228100000018161090119333526959_);fill-rule:evenodd;clip-rule:evenodd;fill:#A2D500;" d="
				M1234.989,137.368c-0.488-0.841-1.566-1.127-2.405-0.638c-0.839,0.489-1.124,1.569-0.636,2.41l0.884,1.524
				c0.488,0.841,1.566,1.127,2.405,0.638c0.839-0.489,1.124-1.569,0.636-2.41L1234.989,137.368z"/>
		</g>
		<path style="fill-rule:evenodd;clip-rule:evenodd;fill:#C2ED00;" d="M1213.997,145.112c0.524-0.819,1.613-1.057,2.43-0.532
			c0.817,0.525,1.055,1.617,0.531,2.436l-0.075,0.117c-0.524,0.819-1.613,1.057-2.43,0.532c-0.817-0.525-1.055-1.617-0.531-2.436
			L1213.997,145.112z"/>
		<path style="fill-rule:evenodd;clip-rule:evenodd;fill:#C2ED00;" d="M1241.986,145.095c-0.524-0.819-1.613-1.057-2.43-0.532
			c-0.817,0.525-1.055,1.617-0.531,2.436l0.075,0.117c0.524,0.819,1.613,1.057,2.43,0.532c0.817-0.525,1.055-1.617,0.531-2.436
			L1241.986,145.095z"/>
	</g>
	<g>
		<path style="fill-rule:evenodd;clip-rule:evenodd;fill:#374315;" d="M1014.153,61.376h-7.036c0,0,0,12.97,0,19.396
			c0,1.945,1.574,3.523,3.515,3.523c0.002,0,0.004,0,0.007,0c1.941,0,3.515-1.577,3.515-3.523
			C1014.153,74.346,1014.153,61.376,1014.153,61.376z"/>
		<path style="fill-rule:evenodd;clip-rule:evenodd;fill:#8FC300;" d="M1028.192,60.298c-0.523-0.82-1.611-1.058-2.429-0.533
			s-1.056,1.617-0.532,2.437l3.764,5.896c0.523,0.82,1.611,1.058,2.428,0.533s1.056-1.617,0.532-2.437L1028.192,60.298z"/>
		<path style="fill-rule:evenodd;clip-rule:evenodd;fill:#8FC300;" d="M1015.108,39.661c-1.078-1.701-2.95-2.731-4.961-2.731
			c-2.011,0-3.882,1.03-4.961,2.731c-5.876,9.267-14.876,23.461-14.876,23.461c0,8.058,8.889,14.6,19.837,14.6
			c10.948,0,19.837-6.542,19.837-14.6C1029.984,63.122,1020.983,48.927,1015.108,39.661z"/>
		<g>
			<defs>
				<path id="SVGID_00000033363984696663296090000011337370461948774582_" d="M1015.108,39.661c-1.078-1.701-2.95-2.731-4.961-2.731
					c-2.011,0-3.882,1.03-4.961,2.731c-5.876,9.267-14.876,23.461-14.876,23.461c0,8.058,8.889,14.6,19.837,14.6
					c10.948,0,19.837-6.542,19.837-14.6C1029.984,63.122,1020.983,48.927,1015.108,39.661z"/>
			</defs>
			<clipPath id="SVGID_00000113341738344058888340000010214394671585684900_">
				<use xlink:href="#SVGID_00000033363984696663296090000011337370461948774582_"  style="overflow:visible;"/>
			</clipPath>
			
				<path style="clip-path:url(#SVGID_00000113341738344058888340000010214394671585684900_);fill-rule:evenodd;clip-rule:evenodd;fill:#5AAA00;" d="
				M1014.231,26.532c-1.117-1.351-2.775-2.132-4.525-2.132c-1.75,0-3.409,0.781-4.526,2.131
				c-5.853,7.086-15.311,19.533-15.311,26.013c0,8.058,8.889,14.6,19.837,14.6c10.948,0,19.837-6.542,19.837-14.6
				C1029.543,46.064,1020.085,33.616,1014.231,26.532z"/>
		</g>
		<path style="fill-rule:evenodd;clip-rule:evenodd;fill:#8FC300;" d="M1003.35,74.358c0.104-0.967,0.972-1.668,1.937-1.564
			c0.965,0.104,1.665,0.974,1.561,1.942l-0.323,3.01c-0.104,0.967-0.972,1.668-1.937,1.564s-1.664-0.974-1.561-1.942L1003.35,74.358
			z"/>
		<path style="fill-rule:evenodd;clip-rule:evenodd;fill:#8FC300;" d="M991.416,61.383c0.524-0.819,1.613-1.057,2.43-0.532
			c0.817,0.525,1.055,1.617,0.531,2.436l-3.142,4.909c-0.524,0.819-1.613,1.057-2.43,0.532c-0.817-0.525-1.055-1.617-0.531-2.436
			L991.416,61.383z"/>
		<path style="fill-rule:evenodd;clip-rule:evenodd;fill:#5AAA00;" d="M1011.466,67.144c0-0.973-0.788-1.763-1.759-1.763
			c-0.971,0-1.759,0.79-1.759,1.763v1.763c0,0.973,0.788,1.763,1.759,1.763c0.971,0,1.759-0.79,1.759-1.763V67.144z"/>
		<path style="fill-rule:evenodd;clip-rule:evenodd;fill:#5AAA00;" d="M1017.549,70.46c-0.119-0.966-0.998-1.653-1.962-1.533
			c-0.963,0.12-1.649,1.001-1.529,1.966l0.216,1.75c0.119,0.966,0.999,1.653,1.962,1.533c0.964-0.12,1.649-1.001,1.529-1.966
			L1017.549,70.46z"/>
		<path style="fill-rule:evenodd;clip-rule:evenodd;fill:#5AAA00;" d="M1001.988,70.46c0.12-0.966,0.999-1.653,1.962-1.533
			c0.964,0.12,1.649,1.001,1.529,1.966l-0.216,1.75c-0.119,0.966-0.999,1.653-1.962,1.533c-0.963-0.12-1.649-1.001-1.529-1.966
			L1001.988,70.46z"/>
		<path style="fill-rule:evenodd;clip-rule:evenodd;fill:#5AAA00;" d="M1022.151,63.458c-0.292-0.928-1.28-1.444-2.206-1.152
			c-0.926,0.293-1.441,1.283-1.149,2.211l0.741,2.356c0.292,0.928,1.28,1.444,2.206,1.152c0.926-0.292,1.441-1.283,1.149-2.211
			L1022.151,63.458z"/>
		<path style="fill-rule:evenodd;clip-rule:evenodd;fill:#5AAA00;" d="M998.403,64.258c0.292-0.928,1.28-1.444,2.206-1.152
			c0.926,0.292,1.441,1.283,1.149,2.211l-0.741,2.356c-0.292,0.928-1.28,1.444-2.206,1.152c-0.926-0.293-1.441-1.283-1.149-2.211
			L998.403,64.258z"/>
		<path style="fill-rule:evenodd;clip-rule:evenodd;fill:#5AAA00;" d="M1026.495,60.139c-0.485-0.843-1.562-1.132-2.403-0.645
			c-0.841,0.486-1.129,1.566-0.644,2.408l1.591,2.762c0.486,0.843,1.562,1.132,2.403,0.645c0.841-0.487,1.129-1.566,0.644-2.408
			L1026.495,60.139z"/>
		<path style="fill-rule:evenodd;clip-rule:evenodd;fill:#5AAA00;" d="M994.077,60.044c0.485-0.843,1.562-1.132,2.403-0.645
			c0.841,0.486,1.129,1.566,0.644,2.408l-1.591,2.762c-0.485,0.843-1.562,1.132-2.403,0.645c-0.841-0.487-1.129-1.566-0.644-2.408
			L994.077,60.044z"/>
		<path style="fill-rule:evenodd;clip-rule:evenodd;fill:#A2D500;" d="M1014.644,33.354c-1.083-1.68-2.942-2.695-4.938-2.695
			c-1.996,0-3.855,1.015-4.938,2.695c-4.913,7.625-11.724,18.196-11.724,18.196c0,6.66,7.466,12.068,16.661,12.068
			c9.196,0,16.661-5.408,16.661-12.068C1026.368,51.55,1019.557,40.979,1014.644,33.354z"/>
		<g>
			<defs>
				<path id="SVGID_00000163792764495798576610000010349177033054195901_" d="M1014.644,33.354c-1.083-1.68-2.942-2.695-4.938-2.695
					c-1.996,0-3.855,1.015-4.938,2.695c-4.913,7.625-11.724,18.196-11.724,18.196c0,6.66,7.466,12.068,16.661,12.068
					c9.196,0,16.661-5.408,16.661-12.068C1026.368,51.55,1019.557,40.979,1014.644,33.354z"/>
			</defs>
			<clipPath id="SVGID_00000115490339424328993120000011588525056268679566_">
				<use xlink:href="#SVGID_00000163792764495798576610000010349177033054195901_"  style="overflow:visible;"/>
			</clipPath>
			
				<path style="clip-path:url(#SVGID_00000115490339424328993120000011588525056268679566_);fill-rule:evenodd;clip-rule:evenodd;fill:#8FC300;" d="
				M1014.227,18.572c-1.117-1.347-2.773-2.126-4.52-2.126c-1.747,0-3.404,0.779-4.52,2.126
				c-4.934,5.958-12.141,15.535-12.141,20.638c0,6.66,7.466,12.068,16.661,12.068c9.196,0,16.661-5.408,16.661-12.068
				C1026.368,34.107,1019.161,24.53,1014.227,18.572z"/>
			
				<path style="clip-path:url(#SVGID_00000115490339424328993120000011588525056268679566_);fill-rule:evenodd;clip-rule:evenodd;fill:#8FC300;" d="
				M1000.725,49.869c0.485-0.843,0.197-1.922-0.644-2.408c-0.841-0.486-1.917-0.197-2.403,0.645l-1.759,3.053
				c-0.485,0.843-0.197,1.922,0.644,2.408c0.841,0.486,1.917,0.197,2.403-0.645L1000.725,49.869z"/>
			
				<path style="clip-path:url(#SVGID_00000115490339424328993120000011588525056268679566_);fill-rule:evenodd;clip-rule:evenodd;fill:#8FC300;" d="
				M1004.897,56.31c0.318-0.92-0.169-1.924-1.087-2.243c-0.917-0.318-1.92,0.17-2.238,1.089l-0.576,1.666
				c-0.318,0.92,0.169,1.924,1.087,2.243c0.917,0.318,1.92-0.17,2.238-1.089L1004.897,56.31z"/>
			
				<path style="clip-path:url(#SVGID_00000115490339424328993120000011588525056268679566_);fill-rule:evenodd;clip-rule:evenodd;fill:#8FC300;" d="
				M1012.394,54.803c0-0.973-0.788-1.763-1.759-1.763c-0.971,0-1.759,0.79-1.759,1.763v1.763c0,0.973,0.788,1.763,1.759,1.763
				c0.971,0,1.759-0.79,1.759-1.763V54.803z"/>
			
				<path style="clip-path:url(#SVGID_00000115490339424328993120000011588525056268679566_);fill-rule:evenodd;clip-rule:evenodd;fill:#8FC300;" d="
				M1019.311,55.094c-0.352-0.907-1.372-1.357-2.277-1.004c-0.905,0.352-1.354,1.375-1.002,2.282l0.637,1.643
				c0.352,0.907,1.372,1.357,2.277,1.004c0.905-0.352,1.354-1.375,1.002-2.282L1019.311,55.094z"/>
			
				<path style="clip-path:url(#SVGID_00000115490339424328993120000011588525056268679566_);fill-rule:evenodd;clip-rule:evenodd;fill:#8FC300;" d="
				M1022.068,47.515c-0.485-0.843-1.562-1.132-2.403-0.645c-0.841,0.486-1.129,1.566-0.644,2.408l1.523,2.644
				c0.485,0.843,1.562,1.132,2.403,0.645c0.841-0.486,1.129-1.566,0.644-2.408L1022.068,47.515z"/>
		</g>
		<path style="fill-rule:evenodd;clip-rule:evenodd;fill:#A2D500;" d="M1012.863,23.584c-0.605-0.911-1.625-1.458-2.716-1.458
			c-1.092,0-2.111,0.547-2.716,1.458c-3.758,5.655-10.085,15.177-10.085,15.177c0,2.893,1.95,5.468,4.976,7.113
			c2.164,1.176,4.879,1.877,7.825,1.877c7.065,0,12.801-4.028,12.801-8.99C1022.948,38.761,1016.621,29.239,1012.863,23.584z"/>
		<g>
			<defs>
				<path id="SVGID_00000102519896537664318400000016243171359032427921_" d="M1012.863,23.584
					c-0.605-0.911-1.625-1.458-2.716-1.458c-1.092,0-2.111,0.547-2.716,1.458c-3.758,5.655-10.085,15.177-10.085,15.177
					c0,2.893,1.95,5.468,4.976,7.113c2.164,1.176,4.879,1.877,7.825,1.877c7.065,0,12.801-4.028,12.801-8.99
					C1022.948,38.761,1016.621,29.239,1012.863,23.584z"/>
			</defs>
			<clipPath id="SVGID_00000156546838940504625910000016645738066603003069_">
				<use xlink:href="#SVGID_00000102519896537664318400000016243171359032427921_"  style="overflow:visible;"/>
			</clipPath>
			
				<path style="clip-path:url(#SVGID_00000156546838940504625910000016645738066603003069_);fill-rule:evenodd;clip-rule:evenodd;fill:#C2ED00;" d="
				M1021.189,30.653c0-6.131-4.967-11.109-11.084-11.109h-0.256c-6.118,0-11.084,4.978-11.084,11.109v0.47
				c0,6.131,4.966,11.109,11.084,11.109h0.256c6.117,0,11.084-4.978,11.084-11.109V30.653z"/>
			
				<path style="clip-path:url(#SVGID_00000156546838940504625910000016645738066603003069_);fill-rule:evenodd;clip-rule:evenodd;fill:#A2D500;" d="
				M1010.712,30.596c0.261-0.937-0.286-1.91-1.221-2.172c-0.935-0.262-1.906,0.286-2.167,1.223l-0.141,0.507
				c-0.261,0.937,0.286,1.91,1.221,2.172c0.935,0.262,1.906-0.286,2.167-1.223L1010.712,30.596z"/>
			
				<path style="clip-path:url(#SVGID_00000156546838940504625910000016645738066603003069_);fill-rule:evenodd;clip-rule:evenodd;fill:#A2D500;" d="
				M1005.565,34.488c0.416-0.879,0.042-1.931-0.835-2.348c-0.877-0.417-1.927-0.042-2.343,0.837l-0.754,1.593
				c-0.416,0.879-0.042,1.931,0.835,2.348c0.877,0.417,1.927,0.042,2.343-0.837L1005.565,34.488z"/>
			
				<path style="clip-path:url(#SVGID_00000156546838940504625910000016645738066603003069_);fill-rule:evenodd;clip-rule:evenodd;fill:#A2D500;" d="
				M1012.394,37.173c0-0.973-0.788-1.763-1.759-1.763c-0.971,0-1.759,0.79-1.759,1.763v1.763c0,0.973,0.788,1.763,1.759,1.763
				c0.971,0,1.759-0.79,1.759-1.763V37.173z"/>
			
				<path style="clip-path:url(#SVGID_00000156546838940504625910000016645738066603003069_);fill-rule:evenodd;clip-rule:evenodd;fill:#A2D500;" d="
				M1016.99,31.237c-0.488-0.841-1.566-1.127-2.405-0.638c-0.839,0.489-1.124,1.569-0.636,2.41l0.884,1.524
				c0.488,0.841,1.566,1.127,2.405,0.638c0.839-0.489,1.124-1.569,0.636-2.41L1016.99,31.237z"/>
		</g>
		<path style="fill-rule:evenodd;clip-rule:evenodd;fill:#C2ED00;" d="M1007.947,47.612c0-0.973,0.788-1.763,1.759-1.763
			c0.971,0,1.759,0.79,1.759,1.763v0.14c0,0.973-0.788,1.763-1.759,1.763c-0.971,0-1.759-0.79-1.759-1.763V47.612z"/>
		<path style="fill-rule:evenodd;clip-rule:evenodd;fill:#C2ED00;" d="M998.603,43.318c0.365-0.902,1.392-1.336,2.291-0.97
			c0.9,0.366,1.333,1.395,0.968,2.297l-0.052,0.129c-0.365,0.902-1.392,1.336-2.292,0.97c-0.899-0.366-1.333-1.395-0.968-2.297
			L998.603,43.318z"/>
		<path style="fill-rule:evenodd;clip-rule:evenodd;fill:#C2ED00;" d="M1021.384,43.3c-0.365-0.902-1.392-1.336-2.291-0.97
			c-0.9,0.366-1.333,1.395-0.968,2.297l0.052,0.129c0.365,0.902,1.392,1.336,2.292,0.97c0.899-0.366,1.333-1.395,0.968-2.297
			L1021.384,43.3z"/>
		<path style="fill-rule:evenodd;clip-rule:evenodd;fill:#C2ED00;" d="M995.999,38.982c0.524-0.819,1.613-1.057,2.43-0.532
			c0.817,0.525,1.055,1.617,0.531,2.436l-0.075,0.117c-0.524,0.819-1.613,1.057-2.43,0.532c-0.817-0.525-1.055-1.617-0.531-2.436
			L995.999,38.982z"/>
		<path style="fill-rule:evenodd;clip-rule:evenodd;fill:#A6D320;" d="M991.64,51.971c0.524-0.819,1.613-1.057,2.43-0.532
			c0.817,0.525,1.055,1.617,0.531,2.436l-0.075,0.117c-0.524,0.819-1.613,1.057-2.43,0.532s-1.055-1.617-0.531-2.436L991.64,51.971z
			"/>
		<path style="fill-rule:evenodd;clip-rule:evenodd;fill:#A2D500;" d="M1028.12,51.971c-0.524-0.819-1.613-1.057-2.43-0.532
			c-0.817,0.525-1.055,1.617-0.531,2.436l0.075,0.117c0.524,0.819,1.613,1.057,2.43,0.532s1.055-1.617,0.531-2.436L1028.12,51.971z"
			/>
		<path style="fill-rule:evenodd;clip-rule:evenodd;fill:#A2D500;" d="M997.368,59.709c0.524-0.819,1.613-1.057,2.43-0.532
			s1.055,1.617,0.531,2.436l-0.075,0.117c-0.524,0.819-1.613,1.057-2.43,0.532c-0.817-0.525-1.055-1.617-0.531-2.436L997.368,59.709
			z"/>
		<path style="fill-rule:evenodd;clip-rule:evenodd;fill:#A2D500;" d="M1022.392,59.709c-0.524-0.819-1.613-1.057-2.43-0.532
			s-1.055,1.617-0.531,2.436l0.075,0.117c0.524,0.819,1.613,1.057,2.43,0.532s1.055-1.617,0.531-2.436L1022.392,59.709z"/>
		<path style="fill-rule:evenodd;clip-rule:evenodd;fill:#8FC300;" d="M1026.855,68.592c-0.547-0.804-1.643-1.011-2.445-0.462
			c-0.802,0.549-1.008,1.646-0.461,2.45l1.386,2.035c0.547,0.803,1.643,1.011,2.444,0.462c0.802-0.549,1.008-1.646,0.461-2.45
			L1026.855,68.592z"/>
		<path style="fill-rule:evenodd;clip-rule:evenodd;fill:#A2D500;" d="M1001.283,62.056c0.286-0.93,1.272-1.452,2.199-1.165
			c0.928,0.287,1.448,1.275,1.162,2.204l-0.041,0.133c-0.286,0.93-1.272,1.452-2.199,1.165c-0.928-0.287-1.448-1.275-1.162-2.204
			L1001.283,62.056z"/>
		<path style="fill-rule:evenodd;clip-rule:evenodd;fill:#A2D500;" d="M1018.477,62.056c-0.286-0.93-1.272-1.452-2.199-1.165
			c-0.928,0.287-1.449,1.275-1.162,2.204l0.041,0.133c0.286,0.93,1.272,1.452,2.199,1.165c0.928-0.287,1.448-1.275,1.162-2.204
			L1018.477,62.056z"/>
		<path style="fill-rule:evenodd;clip-rule:evenodd;fill:#8FC300;" d="M1021.995,74.514c-0.286-0.93-1.272-1.452-2.199-1.165
			c-0.928,0.287-1.449,1.275-1.162,2.204l0.041,0.133c0.286,0.93,1.272,1.452,2.199,1.165c0.928-0.287,1.448-1.275,1.162-2.204
			L1021.995,74.514z"/>
		<path style="fill-rule:evenodd;clip-rule:evenodd;fill:#8FC300;" d="M997.647,72.835c0.286-0.93,1.272-1.452,2.199-1.165
			c0.928,0.287,1.449,1.275,1.162,2.204l-0.7,2.274c-0.286,0.93-1.272,1.452-2.199,1.165c-0.928-0.287-1.449-1.275-1.162-2.204
			L997.647,72.835z"/>
		<path style="fill-rule:evenodd;clip-rule:evenodd;fill:#A2D500;" d="M1005.866,63.746c0.104-0.967,0.972-1.668,1.937-1.564
			c0.965,0.104,1.664,0.974,1.561,1.942l-0.015,0.139c-0.104,0.967-0.972,1.668-1.937,1.564s-1.664-0.974-1.561-1.942
			L1005.866,63.746z"/>
		<path style="fill-rule:evenodd;clip-rule:evenodd;fill:#A2D500;" d="M1013.894,63.746c-0.104-0.967-0.972-1.668-1.937-1.564
			c-0.965,0.104-1.665,0.974-1.561,1.942l0.015,0.139c0.104,0.967,0.972,1.668,1.937,1.564c0.965-0.104,1.664-0.974,1.561-1.942
			L1013.894,63.746z"/>
		<path style="fill-rule:evenodd;clip-rule:evenodd;fill:#8FC300;" d="M1017.412,76.205c-0.104-0.967-0.972-1.668-1.937-1.564
			c-0.965,0.104-1.665,0.974-1.561,1.942l0.015,0.139c0.104,0.967,0.972,1.668,1.937,1.564c0.965-0.104,1.664-0.974,1.561-1.942
			L1017.412,76.205z"/>
		<path style="fill-rule:evenodd;clip-rule:evenodd;fill:#A2D500;" d="M993.751,56.45c0.524-0.819,1.613-1.057,2.43-0.532
			s1.055,1.617,0.531,2.436l-0.075,0.117c-0.524,0.819-1.613,1.057-2.43,0.532c-0.817-0.525-1.055-1.617-0.531-2.436L993.751,56.45z
			"/>
		<path style="fill-rule:evenodd;clip-rule:evenodd;fill:#A2D500;" d="M1026.009,56.45c-0.524-0.819-1.613-1.057-2.43-0.532
			c-0.817,0.525-1.055,1.617-0.531,2.436l0.075,0.117c0.524,0.819,1.613,1.057,2.43,0.532c0.817-0.525,1.055-1.617,0.531-2.436
			L1026.009,56.45z"/>
		<path style="fill-rule:evenodd;clip-rule:evenodd;fill:#8FC300;" d="M994,68.562c0.524-0.819,1.613-1.057,2.43-0.532
			s1.055,1.617,0.531,2.436l-2.097,3.276c-0.524,0.819-1.613,1.057-2.43,0.532c-0.817-0.525-1.055-1.617-0.531-2.436L994,68.562z"/>
		<path style="fill-rule:evenodd;clip-rule:evenodd;fill:#C2ED00;" d="M1023.988,38.964c-0.524-0.819-1.613-1.057-2.43-0.532
			c-0.817,0.525-1.055,1.617-0.531,2.436l0.075,0.117c0.524,0.819,1.613,1.057,2.43,0.532c0.817-0.525,1.055-1.617,0.531-2.436
			L1023.988,38.964z"/>
		<path style="fill-rule:evenodd;clip-rule:evenodd;fill:#C2ED00;" d="M1002.511,46.302c0.159-0.96,1.065-1.61,2.023-1.451
			c0.958,0.159,1.606,1.068,1.448,2.028l-0.023,0.138c-0.159,0.96-1.065,1.61-2.023,1.451c-0.958-0.159-1.607-1.068-1.448-2.028
			L1002.511,46.302z"/>
		<path style="fill-rule:evenodd;clip-rule:evenodd;fill:#C2ED00;" d="M1017.476,46.285c-0.159-0.96-1.065-1.61-2.023-1.451
			c-0.958,0.159-1.606,1.068-1.448,2.028l0.023,0.138c0.159,0.96,1.065,1.61,2.023,1.451c0.958-0.159,1.606-1.068,1.448-2.028
			L1017.476,46.285z"/>
	</g>
	<g>
		<path style="fill-rule:evenodd;clip-rule:evenodd;fill:#374315;" d="M517.79,97.942h-7.036c0,0,0,12.97,0,19.396
			c0,1.945,1.574,3.523,3.515,3.523c0.002,0,0.004,0,0.007,0c1.941,0,3.515-1.577,3.515-3.523
			C517.79,110.912,517.79,97.942,517.79,97.942z"/>
		<path style="fill-rule:evenodd;clip-rule:evenodd;fill:#8FC300;" d="M531.829,96.864c-0.523-0.82-1.611-1.058-2.429-0.533
			s-1.056,1.617-0.532,2.437l3.764,5.896c0.523,0.82,1.611,1.058,2.429,0.533s1.056-1.617,0.532-2.437L531.829,96.864z"/>
		<path style="fill-rule:evenodd;clip-rule:evenodd;fill:#8FC300;" d="M518.745,76.227c-1.078-1.701-2.95-2.731-4.961-2.731
			c-2.011,0-3.882,1.03-4.961,2.731c-5.876,9.267-14.876,23.461-14.876,23.461c0,8.058,8.889,14.6,19.837,14.6
			c10.948,0,19.837-6.542,19.837-14.6C533.621,99.688,524.62,85.493,518.745,76.227z"/>
		<g>
			<defs>
				<path id="SVGID_00000132080856711781219550000006513640130648320928_" d="M518.745,76.227c-1.078-1.701-2.95-2.731-4.961-2.731
					c-2.011,0-3.882,1.03-4.961,2.731c-5.876,9.267-14.876,23.461-14.876,23.461c0,8.058,8.889,14.6,19.837,14.6
					c10.948,0,19.837-6.542,19.837-14.6C533.621,99.688,524.62,85.493,518.745,76.227z"/>
			</defs>
			<clipPath id="SVGID_00000025433067845431736240000012514727394079142554_">
				<use xlink:href="#SVGID_00000132080856711781219550000006513640130648320928_"  style="overflow:visible;"/>
			</clipPath>
			
				<path style="clip-path:url(#SVGID_00000025433067845431736240000012514727394079142554_);fill-rule:evenodd;clip-rule:evenodd;fill:#5AAA00;" d="
				M517.868,63.098c-1.117-1.351-2.775-2.132-4.525-2.132c-1.75,0-3.409,0.781-4.525,2.131
				c-5.853,7.086-15.311,19.533-15.311,26.013c0,8.058,8.889,14.6,19.837,14.6c10.948,0,19.837-6.542,19.837-14.6
				C533.18,82.629,523.723,70.182,517.868,63.098z"/>
		</g>
		<path style="fill-rule:evenodd;clip-rule:evenodd;fill:#8FC300;" d="M506.987,110.924c0.104-0.967,0.972-1.668,1.937-1.564
			c0.965,0.104,1.665,0.974,1.561,1.942l-0.323,3.01c-0.104,0.967-0.972,1.668-1.937,1.564c-0.965-0.104-1.664-0.974-1.561-1.941
			L506.987,110.924z"/>
		<path style="fill-rule:evenodd;clip-rule:evenodd;fill:#8FC300;" d="M495.053,97.949c0.524-0.819,1.613-1.057,2.43-0.532
			s1.055,1.617,0.531,2.436l-3.142,4.909c-0.524,0.819-1.613,1.057-2.43,0.532c-0.817-0.525-1.055-1.617-0.531-2.436L495.053,97.949
			z"/>
		<path style="fill-rule:evenodd;clip-rule:evenodd;fill:#5AAA00;" d="M515.103,103.71c0-0.973-0.788-1.763-1.759-1.763
			c-0.971,0-1.759,0.79-1.759,1.763v1.763c0,0.973,0.788,1.763,1.759,1.763c0.971,0,1.759-0.79,1.759-1.763V103.71z"/>
		<path style="fill-rule:evenodd;clip-rule:evenodd;fill:#5AAA00;" d="M521.186,107.026c-0.119-0.966-0.998-1.653-1.962-1.533
			c-0.964,0.12-1.649,1.001-1.529,1.966l0.216,1.75c0.119,0.966,0.999,1.653,1.962,1.533c0.963-0.12,1.649-1.001,1.529-1.966
			L521.186,107.026z"/>
		<path style="fill-rule:evenodd;clip-rule:evenodd;fill:#5AAA00;" d="M505.625,107.026c0.12-0.966,0.999-1.653,1.962-1.533
			c0.964,0.12,1.649,1.001,1.529,1.966l-0.216,1.75c-0.119,0.966-0.999,1.653-1.962,1.533c-0.963-0.12-1.649-1.001-1.529-1.966
			L505.625,107.026z"/>
		<path style="fill-rule:evenodd;clip-rule:evenodd;fill:#5AAA00;" d="M525.789,100.024c-0.292-0.928-1.28-1.444-2.206-1.152
			c-0.926,0.293-1.441,1.283-1.149,2.211l0.741,2.356c0.292,0.928,1.28,1.444,2.206,1.152c0.926-0.292,1.441-1.283,1.149-2.211
			L525.789,100.024z"/>
		<path style="fill-rule:evenodd;clip-rule:evenodd;fill:#5AAA00;" d="M502.04,100.824c0.292-0.928,1.28-1.444,2.206-1.152
			c0.926,0.292,1.441,1.283,1.149,2.211l-0.741,2.356c-0.292,0.928-1.28,1.444-2.206,1.152c-0.926-0.293-1.441-1.283-1.149-2.211
			L502.04,100.824z"/>
		<path style="fill-rule:evenodd;clip-rule:evenodd;fill:#5AAA00;" d="M530.132,96.705c-0.485-0.843-1.562-1.132-2.403-0.645
			c-0.841,0.486-1.129,1.566-0.644,2.408l1.591,2.762c0.486,0.843,1.562,1.132,2.403,0.645c0.841-0.487,1.129-1.566,0.644-2.408
			L530.132,96.705z"/>
		<path style="fill-rule:evenodd;clip-rule:evenodd;fill:#5AAA00;" d="M497.714,96.61c0.485-0.843,1.562-1.132,2.403-0.645
			c0.841,0.486,1.129,1.566,0.644,2.408l-1.591,2.762c-0.486,0.843-1.562,1.132-2.403,0.645c-0.841-0.487-1.129-1.566-0.644-2.408
			L497.714,96.61z"/>
		<path style="fill-rule:evenodd;clip-rule:evenodd;fill:#A2D500;" d="M518.281,69.92c-1.083-1.68-2.942-2.695-4.938-2.695
			c-1.996,0-3.855,1.015-4.938,2.695c-4.913,7.625-11.724,18.196-11.724,18.196c0,6.66,7.466,12.068,16.661,12.068
			c9.196,0,16.661-5.408,16.661-12.068C530.005,88.116,523.194,77.545,518.281,69.92z"/>
		<g>
			<defs>
				<path id="SVGID_00000046315694819977899490000010572452753827622843_" d="M518.281,69.92c-1.083-1.68-2.942-2.695-4.938-2.695
					c-1.996,0-3.855,1.015-4.938,2.695c-4.913,7.625-11.724,18.196-11.724,18.196c0,6.66,7.466,12.068,16.661,12.068
					c9.196,0,16.661-5.408,16.661-12.068C530.005,88.116,523.194,77.545,518.281,69.92z"/>
			</defs>
			<clipPath id="SVGID_00000127019743367945400100000016583261381720594588_">
				<use xlink:href="#SVGID_00000046315694819977899490000010572452753827622843_"  style="overflow:visible;"/>
			</clipPath>
			
				<path style="clip-path:url(#SVGID_00000127019743367945400100000016583261381720594588_);fill-rule:evenodd;clip-rule:evenodd;fill:#8FC300;" d="
				M517.864,55.137c-1.117-1.347-2.773-2.126-4.52-2.126c-1.747,0-3.404,0.779-4.52,2.126c-4.934,5.958-12.141,15.535-12.141,20.638
				c0,6.66,7.466,12.068,16.661,12.068c9.196,0,16.661-5.408,16.661-12.068C530.005,70.673,522.798,61.096,517.864,55.137z"/>
			
				<path style="clip-path:url(#SVGID_00000127019743367945400100000016583261381720594588_);fill-rule:evenodd;clip-rule:evenodd;fill:#8FC300;" d="
				M504.362,86.434c0.485-0.843,0.197-1.922-0.644-2.408c-0.841-0.486-1.917-0.197-2.403,0.645l-1.759,3.053
				c-0.485,0.843-0.197,1.922,0.644,2.408c0.841,0.486,1.917,0.197,2.403-0.645L504.362,86.434z"/>
			
				<path style="clip-path:url(#SVGID_00000127019743367945400100000016583261381720594588_);fill-rule:evenodd;clip-rule:evenodd;fill:#8FC300;" d="
				M508.535,92.876c0.318-0.92-0.169-1.924-1.087-2.243c-0.917-0.318-1.92,0.17-2.238,1.089l-0.575,1.666
				c-0.318,0.92,0.169,1.924,1.087,2.243c0.917,0.318,1.92-0.17,2.238-1.089L508.535,92.876z"/>
			
				<path style="clip-path:url(#SVGID_00000127019743367945400100000016583261381720594588_);fill-rule:evenodd;clip-rule:evenodd;fill:#8FC300;" d="
				M516.031,91.369c0-0.973-0.788-1.763-1.759-1.763c-0.971,0-1.759,0.79-1.759,1.763v1.763c0,0.973,0.788,1.763,1.759,1.763
				c0.971,0,1.759-0.79,1.759-1.763V91.369z"/>
			
				<path style="clip-path:url(#SVGID_00000127019743367945400100000016583261381720594588_);fill-rule:evenodd;clip-rule:evenodd;fill:#8FC300;" d="
				M522.948,91.66c-0.352-0.907-1.372-1.357-2.277-1.004s-1.354,1.375-1.002,2.282l0.637,1.643c0.352,0.907,1.372,1.357,2.277,1.004
				c0.905-0.352,1.354-1.375,1.002-2.282L522.948,91.66z"/>
			
				<path style="clip-path:url(#SVGID_00000127019743367945400100000016583261381720594588_);fill-rule:evenodd;clip-rule:evenodd;fill:#8FC300;" d="
				M525.706,84.081c-0.486-0.843-1.562-1.132-2.403-0.645c-0.841,0.486-1.129,1.566-0.644,2.408l1.523,2.644
				c0.485,0.843,1.562,1.132,2.403,0.645c0.841-0.486,1.129-1.566,0.644-2.408L525.706,84.081z"/>
		</g>
		<path style="fill-rule:evenodd;clip-rule:evenodd;fill:#A2D500;" d="M516.5,60.15c-0.605-0.911-1.625-1.458-2.716-1.458
			c-1.092,0-2.111,0.547-2.716,1.458c-3.758,5.655-10.085,15.177-10.085,15.177c0,2.893,1.95,5.468,4.976,7.113
			c2.164,1.176,4.879,1.877,7.825,1.877c7.065,0,12.801-4.028,12.801-8.99C526.585,75.327,520.258,65.805,516.5,60.15z"/>
		<g>
			<defs>
				<path id="SVGID_00000142879558878970073660000008918149512870013623_" d="M516.5,60.15c-0.605-0.911-1.625-1.458-2.716-1.458
					c-1.092,0-2.111,0.547-2.716,1.458c-3.758,5.655-10.085,15.177-10.085,15.177c0,2.893,1.95,5.468,4.976,7.113
					c2.164,1.176,4.879,1.877,7.825,1.877c7.065,0,12.801-4.028,12.801-8.99C526.585,75.327,520.258,65.805,516.5,60.15z"/>
			</defs>
			<clipPath id="SVGID_00000098906309391714876370000010196559690067012774_">
				<use xlink:href="#SVGID_00000142879558878970073660000008918149512870013623_"  style="overflow:visible;"/>
			</clipPath>
			
				<path style="clip-path:url(#SVGID_00000098906309391714876370000010196559690067012774_);fill-rule:evenodd;clip-rule:evenodd;fill:#C2ED00;" d="
				M524.826,67.219c0-6.131-4.967-11.109-11.084-11.109h-0.256c-6.118,0-11.084,4.978-11.084,11.109v0.47
				c0,6.131,4.967,11.109,11.084,11.109h0.256c6.117,0,11.084-4.978,11.084-11.109V67.219z"/>
			
				<path style="clip-path:url(#SVGID_00000098906309391714876370000010196559690067012774_);fill-rule:evenodd;clip-rule:evenodd;fill:#A2D500;" d="
				M514.349,67.162c0.261-0.937-0.286-1.91-1.221-2.172c-0.935-0.262-1.906,0.286-2.167,1.223l-0.141,0.507
				c-0.261,0.937,0.286,1.91,1.221,2.172c0.935,0.262,1.906-0.286,2.167-1.223L514.349,67.162z"/>
			
				<path style="clip-path:url(#SVGID_00000098906309391714876370000010196559690067012774_);fill-rule:evenodd;clip-rule:evenodd;fill:#A2D500;" d="
				M509.202,71.054c0.416-0.879,0.042-1.931-0.835-2.348c-0.877-0.417-1.927-0.042-2.343,0.837l-0.754,1.593
				c-0.416,0.879-0.042,1.931,0.835,2.348c0.877,0.417,1.927,0.042,2.343-0.837L509.202,71.054z"/>
			
				<path style="clip-path:url(#SVGID_00000098906309391714876370000010196559690067012774_);fill-rule:evenodd;clip-rule:evenodd;fill:#A2D500;" d="
				M516.031,73.739c0-0.973-0.788-1.763-1.759-1.763c-0.971,0-1.759,0.79-1.759,1.763v1.763c0,0.973,0.788,1.763,1.759,1.763
				c0.971,0,1.759-0.79,1.759-1.763V73.739z"/>
			
				<path style="clip-path:url(#SVGID_00000098906309391714876370000010196559690067012774_);fill-rule:evenodd;clip-rule:evenodd;fill:#A2D500;" d="
				M520.628,67.803c-0.488-0.841-1.566-1.127-2.405-0.638c-0.839,0.489-1.124,1.569-0.636,2.41l0.884,1.524
				c0.488,0.841,1.566,1.127,2.405,0.638c0.839-0.489,1.124-1.569,0.636-2.41L520.628,67.803z"/>
		</g>
		<path style="fill-rule:evenodd;clip-rule:evenodd;fill:#C2ED00;" d="M511.584,84.178c0-0.973,0.788-1.763,1.759-1.763
			c0.971,0,1.759,0.79,1.759,1.763v0.14c0,0.973-0.788,1.763-1.759,1.763c-0.971,0-1.759-0.79-1.759-1.763V84.178z"/>
		<path style="fill-rule:evenodd;clip-rule:evenodd;fill:#C2ED00;" d="M502.24,79.883c0.365-0.902,1.392-1.336,2.291-0.97
			c0.9,0.366,1.333,1.395,0.968,2.297l-0.052,0.129c-0.365,0.902-1.392,1.336-2.292,0.97c-0.899-0.366-1.333-1.395-0.968-2.297
			L502.24,79.883z"/>
		<path style="fill-rule:evenodd;clip-rule:evenodd;fill:#C2ED00;" d="M525.021,79.866c-0.365-0.902-1.392-1.336-2.291-0.97
			s-1.333,1.395-0.968,2.297l0.052,0.129c0.365,0.902,1.392,1.336,2.292,0.97c0.899-0.366,1.333-1.395,0.968-2.297L525.021,79.866z"
			/>
		<path style="fill-rule:evenodd;clip-rule:evenodd;fill:#C2ED00;" d="M499.636,75.547c0.524-0.819,1.613-1.057,2.43-0.532
			c0.817,0.525,1.055,1.617,0.531,2.436l-0.075,0.117c-0.524,0.819-1.613,1.057-2.43,0.532c-0.817-0.525-1.055-1.617-0.531-2.436
			L499.636,75.547z"/>
		<path style="fill-rule:evenodd;clip-rule:evenodd;fill:#A6D320;" d="M495.277,88.537c0.524-0.819,1.613-1.057,2.43-0.532
			s1.055,1.617,0.531,2.436l-0.075,0.117c-0.524,0.819-1.613,1.057-2.43,0.532s-1.055-1.617-0.531-2.436L495.277,88.537z"/>
		<path style="fill-rule:evenodd;clip-rule:evenodd;fill:#A2D500;" d="M531.757,88.537c-0.524-0.819-1.613-1.057-2.43-0.532
			s-1.055,1.617-0.531,2.436l0.075,0.117c0.524,0.819,1.613,1.057,2.43,0.532s1.055-1.617,0.531-2.436L531.757,88.537z"/>
		<path style="fill-rule:evenodd;clip-rule:evenodd;fill:#A2D500;" d="M501.005,96.275c0.524-0.819,1.613-1.057,2.43-0.532
			s1.055,1.617,0.531,2.436l-0.075,0.117c-0.524,0.819-1.613,1.057-2.43,0.532c-0.817-0.525-1.055-1.617-0.531-2.436L501.005,96.275
			z"/>
		<path style="fill-rule:evenodd;clip-rule:evenodd;fill:#A2D500;" d="M526.029,96.275c-0.524-0.819-1.613-1.057-2.43-0.532
			s-1.055,1.617-0.531,2.436l0.075,0.117c0.524,0.819,1.613,1.057,2.43,0.532c0.817-0.525,1.055-1.617,0.531-2.436L526.029,96.275z"
			/>
		<path style="fill-rule:evenodd;clip-rule:evenodd;fill:#8FC300;" d="M530.493,105.158c-0.547-0.804-1.643-1.011-2.445-0.462
			c-0.802,0.549-1.008,1.646-0.461,2.45l1.386,2.035c0.547,0.803,1.643,1.011,2.444,0.462c0.802-0.549,1.008-1.646,0.461-2.45
			L530.493,105.158z"/>
		<path style="fill-rule:evenodd;clip-rule:evenodd;fill:#A2D500;" d="M504.92,98.622c0.286-0.93,1.272-1.452,2.199-1.165
			c0.928,0.287,1.448,1.275,1.162,2.204l-0.041,0.133c-0.286,0.93-1.272,1.452-2.199,1.165c-0.928-0.287-1.448-1.275-1.162-2.204
			L504.92,98.622z"/>
		<path style="fill-rule:evenodd;clip-rule:evenodd;fill:#A2D500;" d="M522.114,98.622c-0.286-0.93-1.272-1.452-2.199-1.165
			c-0.928,0.287-1.449,1.275-1.162,2.204l0.041,0.133c0.286,0.93,1.272,1.452,2.199,1.165c0.927-0.287,1.448-1.275,1.162-2.204
			L522.114,98.622z"/>
		<path style="fill-rule:evenodd;clip-rule:evenodd;fill:#8FC300;" d="M525.632,111.08c-0.286-0.93-1.272-1.452-2.199-1.165
			c-0.928,0.287-1.449,1.275-1.162,2.204l0.041,0.133c0.286,0.93,1.272,1.452,2.199,1.165c0.927-0.287,1.448-1.275,1.162-2.204
			L525.632,111.08z"/>
		<path style="fill-rule:evenodd;clip-rule:evenodd;fill:#8FC300;" d="M501.284,109.401c0.286-0.93,1.272-1.452,2.199-1.165
			c0.928,0.287,1.449,1.275,1.162,2.204l-0.7,2.274c-0.286,0.93-1.272,1.452-2.199,1.165c-0.928-0.287-1.449-1.275-1.162-2.204
			L501.284,109.401z"/>
		<path style="fill-rule:evenodd;clip-rule:evenodd;fill:#A2D500;" d="M509.503,100.312c0.104-0.967,0.972-1.668,1.937-1.564
			c0.965,0.104,1.664,0.974,1.561,1.942l-0.015,0.139c-0.104,0.967-0.972,1.668-1.937,1.564c-0.965-0.104-1.664-0.974-1.561-1.941
			L509.503,100.312z"/>
		<path style="fill-rule:evenodd;clip-rule:evenodd;fill:#A2D500;" d="M517.531,100.312c-0.104-0.967-0.972-1.668-1.937-1.564
			c-0.965,0.104-1.665,0.974-1.561,1.942l0.015,0.139c0.104,0.967,0.972,1.668,1.937,1.564c0.965-0.104,1.664-0.974,1.561-1.941
			L517.531,100.312z"/>
		<path style="fill-rule:evenodd;clip-rule:evenodd;fill:#8FC300;" d="M521.049,112.77c-0.104-0.967-0.972-1.668-1.937-1.564
			c-0.965,0.104-1.665,0.974-1.561,1.942l0.015,0.139c0.104,0.967,0.972,1.668,1.937,1.564c0.965-0.104,1.664-0.974,1.561-1.941
			L521.049,112.77z"/>
		<path style="fill-rule:evenodd;clip-rule:evenodd;fill:#A2D500;" d="M497.388,93.016c0.524-0.819,1.613-1.057,2.43-0.532
			s1.055,1.617,0.531,2.436l-0.075,0.117c-0.524,0.819-1.613,1.057-2.43,0.532c-0.817-0.525-1.055-1.617-0.531-2.436L497.388,93.016
			z"/>
		<path style="fill-rule:evenodd;clip-rule:evenodd;fill:#A2D500;" d="M529.646,93.016c-0.524-0.819-1.613-1.057-2.43-0.532
			s-1.055,1.617-0.531,2.436l0.075,0.117c0.524,0.819,1.613,1.057,2.43,0.532s1.055-1.617,0.531-2.436L529.646,93.016z"/>
		<path style="fill-rule:evenodd;clip-rule:evenodd;fill:#8FC300;" d="M497.637,105.128c0.524-0.819,1.613-1.057,2.43-0.532
			s1.055,1.617,0.531,2.436l-2.097,3.276c-0.524,0.819-1.613,1.057-2.43,0.532c-0.817-0.525-1.055-1.617-0.531-2.436
			L497.637,105.128z"/>
		<path style="fill-rule:evenodd;clip-rule:evenodd;fill:#C2ED00;" d="M527.625,75.53c-0.524-0.819-1.613-1.057-2.43-0.532
			c-0.817,0.525-1.055,1.617-0.531,2.436l0.075,0.117c0.524,0.819,1.613,1.057,2.43,0.532s1.055-1.617,0.531-2.436L527.625,75.53z"
			/>
		<path style="fill-rule:evenodd;clip-rule:evenodd;fill:#C2ED00;" d="M506.148,82.868c0.159-0.96,1.065-1.61,2.023-1.451
			c0.958,0.159,1.606,1.068,1.448,2.028l-0.023,0.138c-0.159,0.96-1.065,1.61-2.023,1.451c-0.958-0.159-1.606-1.068-1.448-2.028
			L506.148,82.868z"/>
		<path style="fill-rule:evenodd;clip-rule:evenodd;fill:#C2ED00;" d="M521.113,82.851c-0.159-0.96-1.065-1.61-2.023-1.451
			c-0.958,0.159-1.606,1.068-1.448,2.028l0.023,0.138c0.159,0.96,1.065,1.61,2.023,1.451c0.958-0.159,1.607-1.068,1.448-2.028
			L521.113,82.851z"/>
	</g>
	<g>
		<path style="fill-rule:evenodd;clip-rule:evenodd;fill:#EADE00;" d="M143.36,86.599c-0.922-0.121-1.654-0.777-1.835-1.644
			c-0.181-0.867,0.228-1.762,1.024-2.243c0.431-0.26,0.824-0.498,1.147-0.693c0.556-0.335,0.935-0.882,1.038-1.496
			c0.06-0.357,0.134-0.791,0.214-1.267c0.148-0.88,0.855-1.591,1.771-1.783c0.916-0.192,1.848,0.176,2.336,0.923
			c0.264,0.404,0.505,0.773,0.702,1.076c0.34,0.521,0.906,0.869,1.549,0.954c0.374,0.049,0.829,0.109,1.328,0.174
			c0.922,0.121,1.654,0.777,1.835,1.644c0.181,0.867-0.228,1.762-1.024,2.243c-0.431,0.26-0.824,0.498-1.147,0.693
			c-0.556,0.335-0.935,0.882-1.038,1.495c-0.06,0.357-0.133,0.792-0.214,1.268c-0.148,0.88-0.855,1.592-1.771,1.783
			c-0.916,0.192-1.848-0.177-2.336-0.923c-0.264-0.404-0.505-0.773-0.702-1.076c-0.34-0.521-0.906-0.869-1.549-0.954
			C144.314,86.724,143.859,86.664,143.36,86.599z"/>
		<path style="fill-rule:evenodd;clip-rule:evenodd;fill:#EAC100;" d="M157.137,94.014c-0.548,0.065-1.073-0.2-1.316-0.665
			s-0.152-1.031,0.227-1.419c0.323-0.33,0.619-0.633,0.843-0.862c0.265-0.271,0.394-0.635,0.355-0.998
			c-0.033-0.307-0.077-0.712-0.125-1.155c-0.056-0.52,0.235-1.026,0.729-1.267c0.494-0.242,1.088-0.168,1.487,0.184
			c0.34,0.3,0.651,0.574,0.887,0.782c0.279,0.246,0.659,0.361,1.041,0.315c0.323-0.039,0.751-0.09,1.217-0.145
			c0.548-0.065,1.073,0.2,1.316,0.665s0.152,1.031-0.227,1.419c-0.323,0.33-0.619,0.633-0.843,0.862
			c-0.265,0.271-0.394,0.635-0.355,0.998c0.033,0.307,0.077,0.712,0.125,1.155c0.056,0.52-0.235,1.026-0.729,1.267
			c-0.494,0.242-1.088,0.168-1.487-0.184c-0.34-0.3-0.651-0.574-0.887-0.782c-0.279-0.246-0.659-0.361-1.041-0.315
			C158.031,93.907,157.604,93.958,157.137,94.014z"/>
		<path style="fill-rule:evenodd;clip-rule:evenodd;fill:#EAC100;" d="M151.341,73.851c-0.472,0.056-0.924-0.172-1.134-0.572
			c-0.209-0.401-0.131-0.888,0.196-1.222c0.278-0.284,0.533-0.545,0.726-0.742c0.228-0.233,0.34-0.547,0.306-0.859
			c-0.029-0.264-0.066-0.613-0.108-0.995c-0.048-0.448,0.202-0.883,0.628-1.092c0.426-0.208,0.937-0.145,1.281,0.158
			c0.293,0.258,0.561,0.495,0.764,0.674c0.24,0.211,0.567,0.311,0.897,0.271c0.278-0.033,0.647-0.077,1.048-0.125
			c0.472-0.056,0.924,0.172,1.134,0.573c0.209,0.4,0.131,0.888-0.196,1.222c-0.278,0.284-0.533,0.545-0.726,0.742
			c-0.228,0.233-0.34,0.547-0.306,0.859c0.029,0.264,0.066,0.613,0.108,0.995c0.048,0.448-0.202,0.883-0.628,1.092
			s-0.937,0.145-1.281-0.158c-0.293-0.258-0.561-0.495-0.764-0.673c-0.24-0.212-0.568-0.311-0.897-0.271
			C152.111,73.759,151.743,73.803,151.341,73.851z"/>
	</g>
	<g style="opacity:0.3308;">
		<g>
			<path style="fill:#009252;" d="M438.235,104.259c0.87,0,1.575-0.706,1.575-1.579v-4.944c0-0.873-0.705-1.579-1.575-1.579
				c-0.87,0-1.575,0.706-1.575,1.579v4.944C436.66,103.552,437.365,104.259,438.235,104.259z"/>
		</g>
		<g>
			<path style="fill:#009252;" d="M431.658,104.259c0.87,0,1.575-0.706,1.575-1.579v-3.295c0-0.873-0.705-1.579-1.575-1.579
				c-0.87,0-1.575,0.706-1.575,1.579v3.295C430.083,103.552,430.788,104.259,431.658,104.259z"/>
		</g>
		<g>
			<path style="fill:#009252;" d="M444.264,104.259c0.87,0,1.575-0.706,1.575-1.579v-3.295c0-0.873-0.705-1.579-1.575-1.579
				c-0.87,0-1.575,0.706-1.575,1.579v3.295C442.689,103.552,443.395,104.259,444.264,104.259z"/>
		</g>
		<g>
			<path style="fill:#009252;" d="M420.49,117.307c0.87,0,1.575-0.706,1.575-1.579v-4.944c0-0.873-0.705-1.579-1.575-1.579
				c-0.87,0-1.575,0.706-1.575,1.579v4.944C418.914,116.601,419.62,117.307,420.49,117.307z"/>
		</g>
		<g>
			<path style="fill:#009252;" d="M413.913,117.307c0.87,0,1.575-0.706,1.575-1.579v-3.297c0-0.873-0.705-1.579-1.575-1.579
				c-0.87,0-1.575,0.706-1.575,1.579v3.297C412.337,116.601,413.043,117.307,413.913,117.307z"/>
		</g>
		<g>
			<path style="fill:#009252;" d="M426.518,117.307c0.87,0,1.575-0.706,1.575-1.579v-3.297c0-0.873-0.705-1.579-1.575-1.579
				c-0.87,0-1.575,0.706-1.575,1.579v3.297C424.943,116.601,425.648,117.307,426.518,117.307z"/>
		</g>
		<g>
			<path style="fill:#009252;" d="M414.393,89.975c0.87,0,1.575-0.706,1.575-1.579v-4.944c0-0.873-0.705-1.579-1.575-1.579
				c-0.87,0-1.575,0.706-1.575,1.579v4.944C412.818,89.269,413.523,89.975,414.393,89.975z"/>
		</g>
		<g>
			<path style="fill:#009252;" d="M407.816,89.975c0.87,0,1.575-0.706,1.575-1.579V85.1c0-0.873-0.705-1.579-1.575-1.579
				c-0.87,0-1.575,0.706-1.575,1.579v3.297C406.24,89.269,406.946,89.975,407.816,89.975z"/>
		</g>
		<g>
			<path style="fill:#009252;" d="M420.422,89.975c0.87,0,1.575-0.706,1.575-1.579V85.1c0-0.873-0.705-1.579-1.575-1.579
				c-0.87,0-1.575,0.706-1.575,1.579v3.297C418.846,89.269,419.552,89.975,420.422,89.975z"/>
		</g>
	</g>
	<g style="opacity:0.3308;">
		<g>
			<path style="fill:#009252;" d="M270.119,56.437c0.87,0,1.575-0.706,1.575-1.579v-4.944c0-0.873-0.705-1.579-1.575-1.579
				c-0.87,0-1.575,0.706-1.575,1.579v4.944C268.543,55.731,269.249,56.437,270.119,56.437z"/>
		</g>
		<g>
			<path style="fill:#009252;" d="M263.542,56.437c0.87,0,1.575-0.706,1.575-1.579v-3.295c0-0.873-0.705-1.579-1.575-1.579
				c-0.87,0-1.575,0.706-1.575,1.579v3.295C261.966,55.731,262.672,56.437,263.542,56.437z"/>
		</g>
		<g>
			<path style="fill:#009252;" d="M276.148,56.437c0.87,0,1.575-0.706,1.575-1.579v-3.295c0-0.873-0.705-1.579-1.575-1.579
				c-0.87,0-1.575,0.706-1.575,1.579v3.295C274.573,55.731,275.278,56.437,276.148,56.437z"/>
		</g>
		<g>
			<path style="fill:#009252;" d="M252.373,69.485c0.87,0,1.575-0.706,1.575-1.579v-4.944c0-0.873-0.705-1.579-1.575-1.579
				s-1.575,0.706-1.575,1.579v4.944C250.798,68.779,251.503,69.485,252.373,69.485z"/>
		</g>
		<g>
			<path style="fill:#009252;" d="M245.796,69.485c0.87,0,1.575-0.706,1.575-1.579v-3.297c0-0.873-0.705-1.579-1.575-1.579
				s-1.575,0.706-1.575,1.579v3.297C244.221,68.779,244.926,69.485,245.796,69.485z"/>
		</g>
		<g>
			<path style="fill:#009252;" d="M258.402,69.485c0.87,0,1.575-0.706,1.575-1.579v-3.297c0-0.873-0.705-1.579-1.575-1.579
				c-0.87,0-1.575,0.706-1.575,1.579v3.297C256.826,68.779,257.532,69.485,258.402,69.485z"/>
		</g>
		<g>
			<path style="fill:#009252;" d="M246.277,42.154c0.87,0,1.575-0.706,1.575-1.579v-4.944c0-0.873-0.705-1.579-1.575-1.579
				c-0.87,0-1.575,0.706-1.575,1.579v4.944C244.701,41.447,245.407,42.154,246.277,42.154z"/>
		</g>
		<g>
			<path style="fill:#009252;" d="M239.699,42.154c0.87,0,1.575-0.706,1.575-1.579v-3.297c0-0.873-0.705-1.579-1.575-1.579
				s-1.575,0.706-1.575,1.579v3.297C238.124,41.447,238.829,42.154,239.699,42.154z"/>
		</g>
		<g>
			<path style="fill:#009252;" d="M252.305,42.154c0.87,0,1.575-0.706,1.575-1.579v-3.297c0-0.873-0.705-1.579-1.575-1.579
				s-1.575,0.706-1.575,1.579v3.297C250.73,41.447,251.435,42.154,252.305,42.154z"/>
		</g>
	</g>
</g>
</svg>
