<?xml version="1.0" encoding="utf-8"?>
<!-- Generator: Adobe Illustrator 27.7.0, SVG Export Plug-In . SVG Version: 6.00 Build 0)  -->
<svg version="1.1" xmlns="http://www.w3.org/2000/svg" xmlns:xlink="http://www.w3.org/1999/xlink" x="0px" y="0px" width="1570px"
	 height="145px" viewBox="0 0 1570 145" style="enable-background:new 0 0 1570 145;" xml:space="preserve">
<g id="background">
	<g>
		<path style="fill:#77D629;" d="M1604.651,942.5h-593.562c-40.041,0-72.5,32.459-72.5,72.5v0c0,40.041-32.459,72.5-72.5,72.5
			H686.601c-40.041,0-72.5,32.459-72.5,72.5v145c0,40.041-32.459,72.5-72.5,72.5h-3.561c-40.041,0-72.5,32.459-72.5,72.5v0
			c0,40.041-32.459,72.5-72.5,72.5H-101.65V-435h901.13c25.641,0,49.375,13.544,62.419,35.62l350.29,592.853
			c12.262,20.754,34.038,34.055,58.101,35.491l332.874,19.859c45.364,2.706,77.083,46.001,65.989,90.071L1604.651,942.5z"/>
		<g>
			
				<path style="fill:none;stroke:#77D629;stroke-width:10;stroke-linecap:round;stroke-linejoin:round;stroke-dasharray:0,10.0134;" d="
				M-91.637-435H799.48c25.641,0,49.375,13.544,62.419,35.62l350.29,592.853c12.262,20.754,34.038,34.055,58.101,35.491
				l332.874,19.859c45.364,2.706,77.083,46.001,65.989,90.071l-63.969,598.628"/>
		</g>
	</g>
	<g>
		<path style="fill:#00B365;" d="M-34.651-346.725h285.157c74.217,0,134.382,60.165,134.382,134.382v150.46
			c0,74.217,60.165,134.382,134.382,134.382h216.013c74.217,0,134.382,60.165,134.382,134.382v153.855
			c0,74.217,60.165,134.382,134.382,134.382h600.603V-2189.4H-34.651V-346.725z"/>
		<g>
			
				<path style="fill:none;stroke:#00B365;stroke-width:10;stroke-linecap:round;stroke-linejoin:round;stroke-dasharray:0,10.0021;" d="
				M-24.649-346.725h275.155c74.217,0,134.382,60.165,134.382,134.382v150.46c0,74.217,60.165,134.382,134.382,134.382h216.013
				c74.217,0,134.382,60.165,134.382,134.382v153.855c0,74.217,60.165,134.382,134.382,134.382h595.602"/>
		</g>
	</g>
	<g>
		<path style="fill:#00E6DF;" d="M1118.185,115.539v150.418c0,15.369,12.505,27.874,27.876,27.874
			c15.369,0,27.874-12.505,27.874-27.874V162.209h-0.197c0-28.365,23.078-51.443,51.443-51.443h82.922
			c19.979,0,36.234-16.255,36.234-36.235c0-35.906,29.213-65.117,65.119-65.117h197.286v28.883h-197.286
			c-19.981,0-36.236,16.255-36.236,36.235c0,35.906-29.211,65.117-65.117,65.117h-82.922c-11.493,0-20.987,8.644-22.369,19.769
			h0.006v106.539c0,31.296-25.461,56.757-56.757,56.757c-31.297,0-56.758-25.461-56.758-56.757V115.539"/>
		<g>
			
				<line style="fill:none;stroke:#00B365;stroke-width:10;stroke-linecap:round;stroke-linejoin:round;" x1="1118.185" y1="115.539" x2="1118.185" y2="115.539"/>
			
				<path style="fill:none;stroke:#00B365;stroke-width:10;stroke-linecap:round;stroke-linejoin:round;stroke-dasharray:0,10.0497;" d="
				M1118.185,125.588v140.368c0,15.369,12.505,27.874,27.876,27.874c15.369,0,27.874-12.505,27.874-27.874v-98.722"/>
			
				<path style="fill:none;stroke:#00B365;stroke-width:10;stroke-linecap:round;stroke-linejoin:round;stroke-dasharray:0,10.0022;" d="
				M1174.702,152.265c4.645-23.623,25.514-41.499,50.478-41.499h82.922c19.979,0,36.234-16.255,36.234-36.234
				c0-35.906,29.213-65.117,65.119-65.117h192.279"/>
			
				<path style="fill:none;stroke:#00B365;stroke-width:10;stroke-linecap:round;stroke-linejoin:round;stroke-dasharray:0,10.0416;" d="
				M1596.7,38.297h-187.245c-19.981,0-36.236,16.255-36.236,36.234c0,35.906-29.211,65.117-65.117,65.117h-82.922
				c-9.747,0-18.057,6.218-21.199,14.893"/>
			
				<path style="fill:none;stroke:#00B365;stroke-width:10;stroke-linecap:round;stroke-linejoin:round;stroke-dasharray:0,9.8903;" d="
				M1202.817,169.308v96.648c0,31.296-25.461,56.757-56.757,56.757c-31.297,0-56.758-25.461-56.758-56.757V120.484"/>
			
				<line style="fill:none;stroke:#00B365;stroke-width:10;stroke-linecap:round;stroke-linejoin:round;" x1="1089.302" y1="115.539" x2="1089.302" y2="115.539"/>
		</g>
	</g>
	<g>
		<path style="fill:#4EEAE6;" d="M1915.594-685.142c-15.164-246.81-40.041-489.163-48.47-568.09h-208.091
			c-26.372,0-47.75,21.378-47.75,47.75v148.473c0,74.305-60.236,134.541-134.541,134.541h-91.003
			c-17.878,0-32.514,14.446-32.484,32.324c0.087,51.069-41.435,92.643-92.483,92.643h-109.568
			c-36.288,0-65.706,29.418-65.706,65.706v103.465c0,67.075-54.876,120.422-121.949,120.83
			c-33.775,0.206-61.187,27.745-61.187,61.567v77.192c0,34.003,27.565,61.568,61.568,61.568h48.826
			c67.14,0,121.568,54.428,121.568,121.568v4.502c0,19.435,9.056,36.788,23.168,48.075c7.282,5.825,4.079,17.475-5.181,18.58
			c-1.948,0.232-3.996,0.352-6.147,0.352h-82.922c-28.365,0-51.443,23.078-51.443,51.443h0.197V41.096h28.883V-65.443h-0.006
			c1.382-11.125,10.876-19.769,22.369-19.769h82.922c19.539,0,37.086-8.326,49.027-21.699c7.064-7.911,17.028-12.623,27.635-12.623
			h87.399c35.206,0,63.852,28.628,63.882,63.828c0.002,2.165,1.716,3.937,3.881,3.937h516.852
			c2.993-3.573,11.771-17.096,19.334-58.92c6.629-36.658,10.939-86.93,12.813-149.417
			C1930.191-366.943,1926.357-509.946,1915.594-685.142z"/>
		<g>
			<g>
				<path style="fill:#00B365;" d="M1040.88,46.1c-0.33,0-0.66-0.04-0.98-0.1c-0.319-0.07-0.63-0.16-0.93-0.29
					c-0.31-0.12-0.6-0.28-0.87-0.46c-0.27-0.181-0.53-0.391-0.76-0.62c-0.23-0.23-0.44-0.48-0.62-0.76
					c-0.18-0.271-0.33-0.561-0.46-0.86c-0.12-0.3-0.22-0.62-0.28-0.94c-0.069-0.319-0.1-0.649-0.1-0.979c0-0.32,0.03-0.65,0.1-0.97
					c0.061-0.32,0.16-0.641,0.28-0.94c0.13-0.3,0.28-0.59,0.46-0.86c0.18-0.27,0.39-0.529,0.62-0.76
					c0.229-0.229,0.49-0.439,0.76-0.62c0.271-0.18,0.561-0.34,0.87-0.46c0.3-0.13,0.61-0.22,0.93-0.29c0.65-0.13,1.311-0.13,1.95,0
					c0.32,0.07,0.641,0.16,0.94,0.29c0.3,0.12,0.59,0.28,0.859,0.46c0.28,0.181,0.53,0.391,0.761,0.62
					c0.229,0.23,0.439,0.49,0.62,0.76c0.189,0.271,0.34,0.561,0.46,0.86c0.13,0.3,0.22,0.62,0.29,0.94
					c0.06,0.319,0.1,0.649,0.1,0.97c0,0.33-0.04,0.66-0.1,0.979c-0.07,0.32-0.16,0.641-0.29,0.94c-0.12,0.3-0.28,0.59-0.46,0.86
					c-0.181,0.279-0.391,0.529-0.62,0.76c-0.23,0.229-0.48,0.439-0.761,0.62c-0.27,0.18-0.56,0.34-0.859,0.46
					c-0.3,0.13-0.62,0.22-0.94,0.29C1041.53,46.06,1041.2,46.1,1040.88,46.1z"/>
			</g>
			<g>
				<path style="fill:#00B365;" d="M1035.88,31.41c0-2.33,1.59-4.29,3.75-4.841l0,0c-2.16-0.56-3.75-2.52-3.75-4.84l0,0
					c0-2.33,1.59-4.29,3.75-4.85l0,0c-2.16-0.55-3.75-2.51-3.75-4.84l0,0c0-2.33,1.59-4.29,3.75-4.84l0,0
					c-2.16-0.561-3.75-2.511-3.75-4.841l0,0c0-2.34,1.59-4.3,3.75-4.85l0,0c-2.16-0.55-3.75-2.51-3.75-4.84l0,0
					c0-2.33,1.59-4.29,3.74-4.84l0,0c-2.15-0.561-3.74-2.521-3.74-4.851l0,0c0-2.33,1.59-4.279,3.75-4.84l0,0
					c-2.16-0.55-3.75-2.51-3.75-4.84l0,0c0-2.33,1.59-4.29,3.75-4.84l0,0c-2.16-0.561-3.75-2.521-3.75-4.851l0,0
					c0-2.33,1.59-4.29,3.75-4.84l0,0c-2.16-0.55-3.75-2.51-3.75-4.84l0,0c0-2.33,1.59-4.29,3.75-4.84l0,0
					c-2.16-0.561-3.75-2.521-3.75-4.85l0,0c0-2.761,2.24-5,5-5l0,0c2.76,0,5,2.239,5,5l0,0c0,2.329-1.6,4.289-3.76,4.85l0,0
					c2.16,0.55,3.76,2.51,3.76,4.84l0,0c0,2.33-1.6,4.29-3.76,4.84l0,0c2.16,0.55,3.76,2.51,3.76,4.84l0,0
					c0,2.33-1.6,4.29-3.75,4.851l0,0c2.15,0.55,3.75,2.51,3.75,4.84l0,0c0,2.33-1.6,4.29-3.75,4.84l0,0
					c2.15,0.561,3.75,2.51,3.75,4.84l0,0c0,2.33-1.59,4.29-3.75,4.851l0,0c2.16,0.55,3.75,2.51,3.75,4.84l0,0
					c0,2.33-1.6,4.29-3.76,4.84l0,0c2.16,0.55,3.76,2.51,3.76,4.85l0,0c0,2.33-1.6,4.28-3.76,4.841l0,0
					c2.16,0.55,3.76,2.51,3.76,4.84l0,0c0,2.33-1.6,4.29-3.75,4.84l0,0c2.15,0.56,3.75,2.52,3.75,4.85l0,0
					c0,2.32-1.6,4.28-3.75,4.84l0,0c2.15,0.551,3.75,2.511,3.75,4.841l0,0c0,2.76-2.24,5-5,5l0,0
					C1038.12,36.41,1035.88,34.17,1035.88,31.41z"/>
			</g>
			<g>
				<path style="fill:#00B365;" d="M1007,30.72c0-2.76,2.24-5,5-5l0,0c2.76,0,5,2.24,5,5l0,0c0,2.76-2.24,5-5,5l0,0
					C1009.24,35.72,1007,33.479,1007,30.72z M1007,20.35c0-2.77,2.24-5,5-5l0,0c2.76,0,5,2.23,5,5l0,0c0,2.76-2.24,5-5,5l0,0
					C1009.24,25.35,1007,23.109,1007,20.35z M1007,9.97c0-2.76,2.24-5,5-5l0,0c2.76,0,5,2.24,5,5l0,0c0,2.76-2.24,5-5,5l0,0
					C1009.24,14.97,1007,12.729,1007,9.97z M1007-0.4c0-2.76,2.24-5,5-5l0,0c2.76,0,5,2.24,5,5l0,0c0,2.76-2.24,5-5,5l0,0
					C1009.24,4.6,1007,2.359,1007-0.4z M1007-10.78c0-2.76,2.24-5,5-5l0,0c2.76,0,5,2.24,5,5l0,0c0,2.76-2.24,5-5,5l0,0
					C1009.24-5.78,1007-8.021,1007-10.78z M1007-21.15c0-2.76,2.24-5,5-5l0,0c2.76,0,5,2.24,5,5l0,0c0,2.76-2.24,5-5,5l0,0
					C1009.24-16.15,1007-18.391,1007-21.15z M1007-31.53c0-2.76,2.24-5,5-5l0,0c2.76,0,5,2.24,5,5l0,0c0,2.76-2.24,5-5,5l0,0
					C1009.24-26.53,1007-28.771,1007-31.53z M1007-41.9c0-2.76,2.24-5,5-5l0,0c2.76,0,5,2.24,5,5l0,0c0,2.76-2.24,5-5,5l0,0
					C1009.24-36.9,1007-39.141,1007-41.9z M1007-52.28c0-2.76,2.24-4.99,5-4.99l0,0c2.76,0,5,2.23,5,4.99l0,0c0,2.76-2.24,5-5,5l0,0
					C1009.24-47.28,1007-49.521,1007-52.28z"/>
			</g>
			<g>
				<path style="fill:#00B365;" d="M1012,46.1c-1.32,0-2.61-0.54-3.54-1.47s-1.47-2.22-1.47-3.54c0-0.32,0.04-0.65,0.1-0.97
					c0.07-0.32,0.16-0.641,0.29-0.94c0.12-0.3,0.28-0.59,0.46-0.86c0.18-0.27,0.39-0.529,0.62-0.76c0.93-0.93,2.22-1.47,3.54-1.47
					c1.31,0,2.6,0.54,3.53,1.47c0.229,0.23,0.439,0.49,0.619,0.76c0.181,0.271,0.341,0.561,0.46,0.86
					c0.131,0.3,0.221,0.62,0.29,0.94c0.061,0.319,0.101,0.649,0.101,0.97c0,1.32-0.54,2.61-1.47,3.54
					c-0.23,0.229-0.49,0.439-0.761,0.62c-0.27,0.18-0.56,0.34-0.859,0.46c-0.301,0.13-0.62,0.22-0.94,0.29
					C1012.649,46.06,1012.319,46.1,1012,46.1z"/>
			</g>
		</g>
	</g>
</g>
<g id="aulas" style="display:none;">
	<g style="display:inline;">
		<rect x="368.174" style="fill-rule:evenodd;clip-rule:evenodd;fill:#FFFFFF;" width="33.652" height="145"/>
		<circle style="fill-rule:evenodd;clip-rule:evenodd;fill:#5654A2;" cx="385" cy="72.5" r="42.5"/>
	</g>
</g>
<g id="Details">
	<g style="opacity:0.3308;">
		<g>
			<path style="fill:#00703A;" d="M1268.254,52.99c0.87,0,1.575-0.706,1.575-1.579v-4.944c0-0.873-0.705-1.579-1.575-1.579
				s-1.575,0.706-1.575,1.579v4.944C1266.678,52.283,1267.384,52.99,1268.254,52.99z"/>
		</g>
		<g>
			<path style="fill:#00703A;" d="M1261.677,52.99c0.87,0,1.575-0.706,1.575-1.579v-3.295c0-0.873-0.705-1.579-1.575-1.579
				s-1.575,0.706-1.575,1.579v3.295C1260.101,52.283,1260.807,52.99,1261.677,52.99z"/>
		</g>
		<g>
			<path style="fill:#00703A;" d="M1274.283,52.99c0.87,0,1.575-0.706,1.575-1.579v-3.295c0-0.873-0.705-1.579-1.575-1.579
				s-1.575,0.706-1.575,1.579v3.295C1272.708,52.283,1273.413,52.99,1274.283,52.99z"/>
		</g>
		<g>
			<path style="fill:#00703A;" d="M1250.508,66.038c0.87,0,1.575-0.706,1.575-1.579v-4.944c0-0.873-0.705-1.579-1.575-1.579
				s-1.575,0.706-1.575,1.579v4.944C1248.933,65.332,1249.638,66.038,1250.508,66.038z"/>
		</g>
		<g>
			<path style="fill:#00703A;" d="M1243.931,66.038c0.87,0,1.575-0.706,1.575-1.579v-3.297c0-0.873-0.705-1.579-1.575-1.579
				s-1.575,0.706-1.575,1.579v3.297C1242.356,65.332,1243.061,66.038,1243.931,66.038z"/>
		</g>
		<g>
			<path style="fill:#00703A;" d="M1256.537,66.038c0.87,0,1.575-0.706,1.575-1.579v-3.297c0-0.873-0.705-1.579-1.575-1.579
				c-0.87,0-1.575,0.706-1.575,1.579v3.297C1254.961,65.332,1255.667,66.038,1256.537,66.038z"/>
		</g>
		<g>
			<path style="fill:#00703A;" d="M1244.412,38.706c0.87,0,1.575-0.706,1.575-1.579v-4.944c0-0.873-0.705-1.579-1.575-1.579
				c-0.87,0-1.575,0.706-1.575,1.579v4.944C1242.837,38,1243.542,38.706,1244.412,38.706z"/>
		</g>
		<g>
			<path style="fill:#00703A;" d="M1237.834,38.706c0.87,0,1.575-0.706,1.575-1.579V33.83c0-0.873-0.705-1.579-1.575-1.579
				s-1.575,0.706-1.575,1.579v3.297C1236.259,38,1236.964,38.706,1237.834,38.706z"/>
		</g>
		<g>
			<path style="fill:#00703A;" d="M1250.44,38.706c0.87,0,1.575-0.706,1.575-1.579V33.83c0-0.873-0.705-1.579-1.575-1.579
				s-1.575,0.706-1.575,1.579v3.297C1248.865,38,1249.57,38.706,1250.44,38.706z"/>
		</g>
	</g>
	<g>
		<g>
			<defs>
				<path id="SVGID_00000165198853065422186510000017892967777991782817_" d="M972.297,40.238c-9.139,0-16.544,7.431-16.544,16.596
					c0,6.627,0,14.241,0,20.867c0,9.165,7.405,16.595,16.544,16.595c3.515,0,7.077,0,10.135,0c5.343,0,10.392,2.475,13.673,6.704
					c1.91,2.473,4.077,5.273,5.999,7.746c3.28,4.229,8.33,6.703,13.673,6.703c11.025,0,116.843,0,129.345,0
					c6.573,0,11.904-5.343,11.904-11.936c0-3.403,0-7.167,0-10.774c0-4.262,1.687-8.35,4.687-11.363
					c3.011-3.014,7.088-4.708,11.33-4.708c0.492,0,0.972,0,1.465,0c4.687,0,9.174-1.866,12.49-5.19
					c3.316-3.323,5.179-7.83,5.179-12.53c0-0.33,0-0.66,0-0.991c0-9.786-7.909-17.72-17.668-17.72
					C1145.274,40.238,1000.78,40.238,972.297,40.238z"/>
			</defs>
			<clipPath id="SVGID_00000159432825818242996930000007529940316605897621_">
				<use xlink:href="#SVGID_00000165198853065422186510000017892967777991782817_"  style="overflow:visible;"/>
			</clipPath>
			
				<path style="clip-path:url(#SVGID_00000159432825818242996930000007529940316605897621_);fill-rule:evenodd;clip-rule:evenodd;fill:#00D0C6;" d="
				M972.297,40.238c-9.139,0-16.544,7.431-16.544,16.596c0,6.627,0,14.241,0,20.867c0,9.165,7.405,16.595,16.544,16.595
				c3.515,0,7.077,0,10.135,0c5.343,0,10.392,2.475,13.673,6.704c1.91,2.473,4.077,5.273,5.999,7.746
				c3.28,4.229,8.33,6.703,13.673,6.703c11.025,0,116.843,0,129.345,0c6.573,0,11.904-5.343,11.904-11.936c0-3.403,0-7.167,0-10.774
				c0-4.262,1.687-8.35,4.687-11.363c3.011-3.014,7.088-4.708,11.33-4.708c0.492,0,0.972,0,1.465,0c4.687,0,9.174-1.866,12.49-5.19
				c3.316-3.323,5.179-7.83,5.179-12.53c0-0.33,0-0.66,0-0.991c0-9.786-7.909-17.72-17.668-17.72
				C1145.274,40.238,1000.78,40.238,972.297,40.238z"/>
			
				<path style="clip-path:url(#SVGID_00000159432825818242996930000007529940316605897621_);fill-rule:evenodd;clip-rule:evenodd;fill:#00E6DF;" d="
				M972.297,46.351c-9.139,0-16.544,7.431-16.544,16.596c0,6.627,0,14.241,0,20.867c0,9.165,7.405,16.595,16.544,16.595
				c3.515,0,7.077,0,10.135,0c5.343,0,10.392,2.475,13.673,6.704c1.91,2.473,4.077,5.273,5.999,7.746
				c3.28,4.229,8.33,6.703,13.673,6.703c11.025,0,116.843,0,129.345,0c6.573,0,11.904-5.343,11.904-11.936c0-3.403,0-7.167,0-10.774
				c0-4.262,1.687-8.35,4.687-11.363c3.011-3.014,7.088-4.708,11.33-4.708c0.492,0,0.972,0,1.465,0c4.687,0,9.174-1.866,12.49-5.19
				c3.316-3.323,5.179-7.83,5.179-12.53c0-0.33,0-0.66,0-0.991c0-9.786-7.909-17.72-17.668-17.72
				C1145.274,46.351,1000.78,46.351,972.297,46.351z"/>
		</g>
		
			<line style="fill:none;stroke:#00D0C6;stroke-width:2.3468;stroke-linecap:round;stroke-linejoin:round;stroke-miterlimit:1.5;" x1="1051.465" y1="94.672" x2="1043.38" y2="94.672"/>
		
			<line style="fill:none;stroke:#00D0C6;stroke-width:2.3468;stroke-linecap:round;stroke-linejoin:round;stroke-miterlimit:1.5;" x1="1020.077" y1="83.391" x2="1016.737" y2="83.391"/>
		
			<line style="fill:none;stroke:#00D0C6;stroke-width:2.3468;stroke-linecap:round;stroke-linejoin:round;stroke-miterlimit:1.5;" x1="1026.04" y1="94.672" x2="1035.519" y2="94.672"/>
		
			<line style="fill:none;stroke:#00D0C6;stroke-width:2.3468;stroke-linecap:round;stroke-linejoin:round;stroke-miterlimit:1.5;" x1="1005.583" y1="83.391" x2="1005.021" y2="83.391"/>
		
			<line style="fill:none;stroke:#00D0C6;stroke-width:2.3468;stroke-linecap:round;stroke-linejoin:round;stroke-miterlimit:1.5;" x1="1039.865" y1="104.978" x2="1043.216" y2="104.978"/>
		
			<line style="fill:none;stroke:#00D0C6;stroke-width:2.3468;stroke-linecap:round;stroke-linejoin:round;stroke-miterlimit:1.5;" x1="1108.388" y1="104.978" x2="1116.472" y2="104.978"/>
		
			<line style="fill:none;stroke:#00D0C6;stroke-width:2.3468;stroke-linecap:round;stroke-linejoin:round;stroke-miterlimit:1.5;" x1="1133.813" y1="104.978" x2="1124.334" y2="104.978"/>
		
			<line style="fill:none;stroke:#00D0C6;stroke-width:2.3468;stroke-linecap:round;stroke-linejoin:round;stroke-miterlimit:1.5;" x1="1119.987" y1="94.672" x2="1116.636" y2="94.672"/>
		
			<line style="fill:none;stroke:#00D0C6;stroke-width:2.3468;stroke-linecap:round;stroke-linejoin:round;stroke-miterlimit:1.5;" x1="968.419" y1="65.135" x2="976.503" y2="65.135"/>
		
			<line style="fill:none;stroke:#00D0C6;stroke-width:2.3468;stroke-linecap:round;stroke-linejoin:round;stroke-miterlimit:1.5;" x1="1157.012" y1="60.315" x2="1160.351" y2="60.315"/>
		
			<line style="fill:none;stroke:#00D0C6;stroke-width:2.3468;stroke-linecap:round;stroke-linejoin:round;stroke-miterlimit:1.5;" x1="993.843" y1="65.135" x2="984.365" y2="65.135"/>
		
			<line style="fill:none;stroke:#00D0C6;stroke-width:2.3468;stroke-linecap:round;stroke-linejoin:round;stroke-miterlimit:1.5;" x1="1171.505" y1="60.315" x2="1172.068" y2="60.315"/>
		
			<line style="fill:none;stroke:#00D0C6;stroke-width:2.3468;stroke-linecap:round;stroke-linejoin:round;stroke-miterlimit:1.5;" x1="980.018" y1="54.829" x2="976.667" y2="54.829"/>
	</g>
	<g>
		<path style="fill-rule:evenodd;clip-rule:evenodd;fill:#00D3CE;" d="M1155.373,67.937c0-2.906-1.08-5.687-3.013-7.73
			c-1.917-2.058-4.534-3.205-7.258-3.205c-18.701,0-58.141,0-76.841,0c-2.724,0-5.341,1.147-7.258,3.205
			c-1.932,2.042-3.013,4.823-3.013,7.73c0,2.906,1.08,5.687,3.013,7.73c1.917,2.058,4.534,3.205,7.258,3.205
			c18.701,0,58.141,0,76.841,0c2.724,0,5.341-1.147,7.258-3.205C1154.292,73.625,1155.373,70.844,1155.373,67.937z"/>
		<rect x="1065.948" y="63.752" style="fill-rule:evenodd;clip-rule:evenodd;fill:#997020;" width="4.371" height="8.38"/>
		<rect x="1081.011" y="63.752" style="fill-rule:evenodd;clip-rule:evenodd;fill:#997020;" width="4.516" height="8.38"/>
		<rect x="1096.091" y="63.752" style="fill-rule:evenodd;clip-rule:evenodd;fill:#997020;" width="4.662" height="8.38"/>
		<rect x="1111.398" y="63.752" style="fill-rule:evenodd;clip-rule:evenodd;fill:#997020;" width="4.544" height="8.38"/>
		<rect x="1126.615" y="63.752" style="fill-rule:evenodd;clip-rule:evenodd;fill:#997020;" width="4.399" height="8.38"/>
		<rect x="1141.831" y="63.752" style="fill-rule:evenodd;clip-rule:evenodd;fill:#997020;" width="4.254" height="8.38"/>
		<path style="fill-rule:evenodd;clip-rule:evenodd;fill:#FFB900;" d="M1146.958,19.867c0-1.922-0.761-3.752-2.115-5.094
			c-1.339-1.357-3.165-2.12-5.082-2.12c-6.862,0-17.057,0-23.357,0c-3.439,0-6.573,2.013-8.034,5.139
			c-2.07,4.453-6.513,7.29-11.412,7.29c-6.467,0-15.521,0-22.048,0c-4.52,0-8.202,3.691-8.202,8.235s3.682,8.22,8.202,8.22
			c20.45,0,72.048,0,72.048,0S1146.958,28.408,1146.958,19.867z"/>
		<rect x="1061.033" y="39.365" style="fill-rule:evenodd;clip-rule:evenodd;fill:#997020;" width="91.297" height="26.666"/>
		<rect x="1065.948" y="65.916" style="fill-rule:evenodd;clip-rule:evenodd;fill:#735624;" width="4.371" height="3.165"/>
		<rect x="1081.027" y="65.916" style="fill-rule:evenodd;clip-rule:evenodd;fill:#735624;" width="4.505" height="3.165"/>
		<rect x="1096.091" y="65.916" style="fill-rule:evenodd;clip-rule:evenodd;fill:#735624;" width="4.662" height="3.165"/>
		<rect x="1111.398" y="65.916" style="fill-rule:evenodd;clip-rule:evenodd;fill:#735624;" width="4.541" height="3.165"/>
		<rect x="1126.615" y="65.916" style="fill-rule:evenodd;clip-rule:evenodd;fill:#735624;" width="4.399" height="3.165"/>
		<rect x="1141.831" y="65.916" style="fill-rule:evenodd;clip-rule:evenodd;fill:#735624;" width="4.254" height="3.165"/>
		<rect x="1061.033" y="35.324" style="fill-rule:evenodd;clip-rule:evenodd;fill:#C49247;" width="91.297" height="26.131"/>
		<rect x="1066.708" y="34.005" style="fill-rule:evenodd;clip-rule:evenodd;fill:#FFB900;" width="17.853" height="11.132"/>
		<path style="fill-rule:evenodd;clip-rule:evenodd;fill:#FFD351;" d="M1146.958,32.068c0-1.922-0.761-3.752-2.115-5.094
			c-1.339-1.357-3.165-2.12-5.082-2.12c-7.197,0-18.092,0-24.27,0c-2.921,0-5.615,1.586-7.03,4.148
			c-2.145,3.904-6.238,6.329-10.682,6.329c-6.01,0-14.638,0-21.272,0c-5.417,0-9.799,4.392-9.799,9.806
			c0,2.608,1.035,5.094,2.876,6.939c1.826,1.845,4.321,2.882,6.923,2.882c21.394,0,70.451,0,70.451,0
			S1146.958,40.959,1146.958,32.068z"/>
		<rect x="1113.163" y="38.797" style="fill-rule:evenodd;clip-rule:evenodd;fill:#7AFCF7;" width="27.643" height="16.162"/>
		<polygon style="fill-rule:evenodd;clip-rule:evenodd;fill:#D1FFFB;" points="1140.811,43.399 1132.64,43.399 1124.469,54.959 
			1132.64,54.959 		"/>
		<polygon style="fill-rule:evenodd;clip-rule:evenodd;fill:#D1FFFB;" points="1129.505,43.399 1124.469,43.399 1116.313,54.959 
			1121.334,54.959 		"/>
		<path style="fill-rule:evenodd;clip-rule:evenodd;fill:#7AFCF7;" d="M1107.731,45.138c0-2.227-1.795-4.041-4.032-4.041
			c-6.65,0-19.842,0-26.491,0c-2.222,0-4.032,1.815-4.032,4.041c0,2.242,1.811,4.041,4.032,4.041c6.65,0,19.842,0,26.491,0
			C1105.936,49.179,1107.731,47.379,1107.731,45.138z"/>
		<g>
			<defs>
				<path id="SVGID_00000132065435222993191480000003990758643484679613_" d="M1107.731,45.138c0-2.227-1.795-4.041-4.032-4.041
					c-6.65,0-19.842,0-26.491,0c-2.222,0-4.032,1.815-4.032,4.041c0,2.242,1.811,4.041,4.032,4.041c6.65,0,19.842,0,26.491,0
					C1105.936,49.179,1107.731,47.379,1107.731,45.138z"/>
			</defs>
			<clipPath id="SVGID_00000037684677615089755460000005865262369935349401_">
				<use xlink:href="#SVGID_00000132065435222993191480000003990758643484679613_"  style="overflow:visible;"/>
			</clipPath>
			
				<polygon style="clip-path:url(#SVGID_00000037684677615089755460000005865262369935349401_);fill-rule:evenodd;clip-rule:evenodd;fill:#D1FFFB;" points="
				1093.732,41.676 1088.696,41.676 1084.009,48.31 1089.03,48.31 			"/>
			
				<polygon style="clip-path:url(#SVGID_00000037684677615089755460000005865262369935349401_);fill-rule:evenodd;clip-rule:evenodd;fill:#D1FFFB;" points="
				1103.821,41.676 1098.784,41.676 1094.098,48.31 1099.119,48.31 			"/>
		</g>
		<path style="fill:none;stroke:#FFB900;stroke-width:3.0467;stroke-linejoin:round;stroke-miterlimit:10;" d="M1107.731,45.138
			c0-2.227-1.795-4.041-4.032-4.041c-6.65,0-19.842,0-26.491,0c-2.222,0-4.032,1.815-4.032,4.041c0,2.242,1.811,4.041,4.032,4.041
			c6.65,0,19.842,0,26.491,0C1105.936,49.179,1107.731,47.379,1107.731,45.138z"/>
		<rect x="1113.163" y="38.788" style="fill-rule:evenodd;clip-rule:evenodd;fill:#DA7700;" width="27.643" height="4.367"/>
		<rect x="1125.093" y="41.683" style="fill-rule:evenodd;clip-rule:evenodd;fill:#DA7700;" width="4.565" height="13.276"/>
		
			<line style="fill:none;stroke:#EB7E00;stroke-width:4.57;stroke-linecap:round;stroke-linejoin:round;stroke-miterlimit:10;" x1="1115.278" y1="32.434" x2="1124.499" y2="32.434"/>
		
			<line style="fill:none;stroke:#EB7E00;stroke-width:4.57;stroke-linecap:round;stroke-linejoin:round;stroke-miterlimit:10;" x1="1130.829" y1="32.434" x2="1140.05" y2="32.434"/>
		<rect x="1111.566" y="54.946" style="fill-rule:evenodd;clip-rule:evenodd;fill:#C49247;" width="30.843" height="4.802"/>
	</g>
	<g>
		<path style="opacity:0.1064;fill-rule:evenodd;clip-rule:evenodd;" d="M1055.552,127.042h-27.317
			c-1.213,0-2.196-0.983-2.196-2.196v0c0-1.213,0.983-2.196,2.196-2.196h27.317c1.213,0,2.196,0.983,2.196,2.196v0
			C1057.748,126.059,1056.765,127.042,1055.552,127.042z"/>
		<g>
			<polyline style="fill-rule:evenodd;clip-rule:evenodd;fill:#966854;" points="1043.168,113.448 1044.917,117.831 
				1041.42,124.846 1044.974,124.846 1050.65,113.448 1043.168,113.448 			"/>
			<path style="fill-rule:evenodd;clip-rule:evenodd;fill:#966854;" d="M1057.413,104.191c0-0.995-0.387-1.949-1.089-2.654
				c-0.702-0.703-1.663-1.098-2.652-1.098l0,0v10.511c0.989,0,1.949-0.395,2.652-1.1c0.702-0.703,1.089-1.657,1.089-2.652
				C1057.413,106.221,1057.413,105.167,1057.413,104.191z"/>
			<polygon style="fill-rule:evenodd;clip-rule:evenodd;fill:#6C4C46;" points="1038.694,112.132 1032.876,112.132 
				1032.876,124.846 1035.498,124.846 			"/>
			<path style="fill-rule:evenodd;clip-rule:evenodd;fill:#966854;" d="M1053.672,100.439h-21.67l-7.438-7.51c0,0-1.949,0-3.311,0
				c-0.802,0-1.576,0.352-2.107,0.968c-1.304,1.511-3.798,4.4-5.016,5.808c-0.444,0.507-0.602,1.199-0.444,1.849
				c0.1,0.344,0.186,0.733,0.287,1.105c0.229,0.911,1.046,1.55,1.992,1.547c2.193-0.004,5.891-0.011,5.891-0.011l7.481,9.387v11.265
				h3.741l1.878-11.265h11.236l3.741,4.249v7.015h3.741V100.439z"/>
			<path style="fill-rule:evenodd;clip-rule:evenodd;fill:#966854;" d="M1023.717,92.929c0,2.073,1.677,3.755,3.755,3.755
				c2.064,0,3.741-1.682,3.741-3.755H1023.717z"/>
			<rect x="1019.979" y="94.807" style="fill-rule:evenodd;clip-rule:evenodd;" width="1.932" height="3.755"/>
		</g>
	</g>
	<g>
		<path style="fill-rule:evenodd;clip-rule:evenodd;fill:#EDF2F0;" d="M1088.615,115.539c0-2.66,2.157-4.817,4.817-4.817
			c2.66,0,4.817,2.157,4.817,4.817L1088.615,115.539z"/>
		<path style="fill-rule:evenodd;clip-rule:evenodd;fill:#EDF2F0;" d="M1098.249,115.539c0-2.66,2.157-4.817,4.817-4.817
			c2.66,0,4.817,2.157,4.817,4.817H1098.249z"/>
		<path style="fill-rule:evenodd;clip-rule:evenodd;fill:#EDF2F0;" d="M1107.883,115.539c0-2.66,2.157-4.817,4.817-4.817
			s4.817,2.157,4.817,4.817H1107.883z"/>
	</g>
	<g>
		<path style="fill-rule:evenodd;clip-rule:evenodd;fill:#EDF2F0;" d="M1011.325,46.355c0-2.66,2.157-4.817,4.817-4.817
			c2.66,0,4.817,2.157,4.817,4.817L1011.325,46.355z"/>
		<path style="fill-rule:evenodd;clip-rule:evenodd;fill:#EDF2F0;" d="M1020.959,46.355c0-2.66,2.157-4.817,4.817-4.817
			c2.66,0,4.817,2.157,4.817,4.817L1020.959,46.355z"/>
		<path style="fill-rule:evenodd;clip-rule:evenodd;fill:#EDF2F0;" d="M1030.593,46.355c0-2.66,2.157-4.817,4.817-4.817
			c2.66,0,4.817,2.157,4.817,4.817L1030.593,46.355z"/>
	</g>
	<g>
		<path style="fill-rule:evenodd;clip-rule:evenodd;fill:#009252;" d="M467.599,51.643h-13.268c-0.767,0-1.395-0.628-1.395-1.395
			v-0.003c0-0.767,0.628-1.395,1.395-1.395h13.268c0.767,0,1.395,0.628,1.395,1.395v0.003
			C468.994,51.015,468.366,51.643,467.599,51.643z"/>
		<g>
			<g>
				<g>
					<path style="fill-rule:evenodd;clip-rule:evenodd;fill:#F59029;" d="M457.587,38.054c-0.473-0.1-0.775-0.566-0.675-1.04
						l0.909-4.256c0.089-0.418,0.499-0.684,0.916-0.596l0.199,0.042c0.419,0.089,0.686,0.501,0.596,0.921l-0.908,4.252
						C458.524,37.852,458.06,38.154,457.587,38.054L457.587,38.054z"/>
					<g>
						<path style="fill-rule:evenodd;clip-rule:evenodd;fill:#005437;" d="M457.117,34.665l2.483,0.572l0.429-2.028
							c0.159-0.752-0.409-1.462-1.176-1.471c-0.105-0.001-0.209-0.002-0.308-0.004c-0.507-0.006-0.943,0.354-1.037,0.853
							L457.117,34.665z"/>
					</g>
					<path style="fill-rule:evenodd;clip-rule:evenodd;fill:#F59029;" d="M456.898,37.206c-0.099,1.476-0.226,3.375-0.301,4.512
						c-0.017,0.258,0.176,0.478,0.433,0.496c0.253,0.017,0.565,0.038,0.818,0.055c0.257,0.017,0.478-0.178,0.495-0.436l0.301-4.509
						c0.032-0.483-0.332-0.901-0.815-0.934l0,0C457.348,36.358,456.931,36.723,456.898,37.206z"/>
				</g>
				<g>
					<path style="fill-rule:evenodd;clip-rule:evenodd;fill:#F59029;" d="M464.799,38.436c0.456-0.161,0.695-0.662,0.534-1.119
						l-1.454-4.101c-0.143-0.403-0.584-0.614-0.986-0.471l-0.192,0.068c-0.403,0.143-0.615,0.587-0.471,0.991l1.453,4.098
						C463.844,38.357,464.343,38.597,464.799,38.436L464.799,38.436z"/>
					<g>
						<path style="fill-rule:evenodd;clip-rule:evenodd;fill:#005437;" d="M464.793,34.473l-2.387,0.891l-0.689-1.955
							c-0.255-0.725,0.215-1.503,0.974-1.612c0.104-0.015,0.207-0.03,0.305-0.044c0.502-0.072,0.981,0.228,1.139,0.71
							L464.793,34.473z"/>
					</g>
					<path style="fill-rule:evenodd;clip-rule:evenodd;fill:#F59029;" d="M464.134,36.817c1.334-0.634,3.049-1.449,4.077-1.937
						c0.233-0.111,0.509-0.012,0.619,0.222c0.109,0.23,0.243,0.513,0.351,0.743c0.11,0.233,0.01,0.511-0.222,0.622l-4.075,1.935
						c-0.437,0.207-0.958,0.021-1.165-0.417v0C463.512,37.547,463.698,37.024,464.134,36.817z"/>
				</g>
				<rect x="458.562" y="38.743" style="fill-rule:evenodd;clip-rule:evenodd;fill:#1E3272;" width="4.72" height="2.018"/>
				<g>
					<path style="fill-rule:evenodd;clip-rule:evenodd;fill:#F59029;" d="M463.278,39.887l0.052,4.65
						c0.006,0.553-0.449,1.001-1.001,0.984l0,0c-0.52-0.016-0.935-0.441-0.941-0.962l-0.05-4.65c-0.006-0.553,0.449-0.999,1-0.982
						l0,0C462.858,38.942,463.272,39.366,463.278,39.887z"/>
					<path style="fill-rule:evenodd;clip-rule:evenodd;fill:#F59029;" d="M463.329,44.547v5.7h-1.94V44.56
						c-0.004-0.553,0.453-0.997,1.004-0.978l0,0C462.913,43.601,463.326,44.026,463.329,44.547z"/>
					<path style="fill-rule:evenodd;clip-rule:evenodd;fill:#081C1C;" d="M461.39,49.233c0,0,1.647,0,2.644,0
						c0.189,0,0.369,0.075,0.503,0.209c0.133,0.134,0.208,0.315,0.208,0.504c0,0.168,0,0.3,0,0.3h-3.355V49.233z"/>
					<path style="fill-rule:evenodd;clip-rule:evenodd;fill:#1E3272;" d="M460.965,38.743l2.276-0.601l0.17,0.327
						c0.162,0.312,0.236,0.661,0.215,1.012l-0.102,4.664h-2.279L460.965,38.743z"/>
					<path style="fill-rule:evenodd;clip-rule:evenodd;fill:#F59029;" d="M458.567,39.887l-0.052,4.65
						c-0.006,0.553,0.449,1.001,1.001,0.984h0c0.52-0.016,0.935-0.441,0.941-0.962l0.05-4.65c0.006-0.553-0.449-0.999-1-0.982l0,0
						C458.987,38.942,458.573,39.366,458.567,39.887z"/>
					<path style="fill-rule:evenodd;clip-rule:evenodd;fill:#F59029;" d="M458.516,44.547v5.7h1.94V44.56
						c0.004-0.553-0.453-0.997-1.004-0.978l0,0C458.932,43.601,458.52,44.026,458.516,44.547z"/>
					<path style="fill-rule:evenodd;clip-rule:evenodd;fill:#081C1C;" d="M460.455,49.233c0,0-1.647,0-2.644,0
						c-0.189,0-0.369,0.075-0.503,0.209c-0.133,0.134-0.208,0.315-0.208,0.504c0,0.168,0,0.3,0,0.3h3.355V49.233z"/>
					<path style="fill-rule:evenodd;clip-rule:evenodd;fill:#1E3272;" d="M460.881,38.743l-2.276-0.601l-0.17,0.327
						c-0.162,0.312-0.236,0.661-0.215,1.012l0.102,4.664h2.279L460.881,38.743z"/>
				</g>
				<polygon style="fill-rule:evenodd;clip-rule:evenodd;fill:#DF590F;" points="462.167,32.254 459.678,32.254 459.678,30.249 
					462.167,30.604 				"/>
				<path style="fill-rule:evenodd;clip-rule:evenodd;fill:#006837;" d="M463.333,32.031c-0.006-0.16-0.138-0.287-0.298-0.288
					h-4.225c-0.16,0-0.292,0.127-0.298,0.288l-0.29,7.298h5.402L463.333,32.031z"/>
			</g>
			<g>
				<g>
					<g>
						<ellipse style="fill-rule:evenodd;clip-rule:evenodd;fill:#F59029;" cx="467.204" cy="26.741" rx="2.304" ry="2.328"/>
					</g>
					<g>
						<ellipse style="fill-rule:evenodd;clip-rule:evenodd;fill:#F59029;" cx="454.642" cy="26.741" rx="2.304" ry="2.328"/>
					</g>
				</g>
				<g>
					<path style="fill-rule:evenodd;clip-rule:evenodd;fill:#081C1C;" d="M465.091,30.787l-1.345-0.003l0-11.132l0.984,0.002
						c1.743,0.004,3.154,1.421,3.154,3.169v5.171C467.884,29.539,466.633,30.791,465.091,30.787z"/>
					<path style="fill-rule:evenodd;clip-rule:evenodd;fill:#081C1C;" d="M453.961,23.439c0-1.191,0.964-2.157,2.152-2.157l8.487,0
						c1.189,0,2.152,0.966,2.152,2.157l0,5.216c0,1.191-0.964,2.157-2.152,2.157l-7.853,0c-1.539,0-2.787-1.251-2.787-2.793V23.439z
						"/>
				</g>
				<path style="fill-rule:evenodd;clip-rule:evenodd;fill:#081C1C;" d="M452.338,20.622l0.003-0.97l12.213,0
					c1.75,0,3.167,1.424,3.161,3.178l-0.003,0.97l-12.213,0C453.749,23.8,452.332,22.375,452.338,20.622z"/>
			</g>
		</g>
	</g>
	<g style="opacity:0.3308;">
		<g>
			<path style="fill:#009252;" d="M267.539,93.711c0.87,0,1.575-0.706,1.575-1.579v-4.944c0-0.873-0.705-1.579-1.575-1.579
				s-1.575,0.706-1.575,1.579v4.944C265.964,93.004,266.669,93.711,267.539,93.711z"/>
		</g>
		<g>
			<path style="fill:#009252;" d="M260.962,93.711c0.87,0,1.575-0.706,1.575-1.579v-3.295c0-0.873-0.705-1.579-1.575-1.579
				c-0.87,0-1.575,0.706-1.575,1.579v3.295C259.387,93.004,260.092,93.711,260.962,93.711z"/>
		</g>
		<g>
			<path style="fill:#009252;" d="M273.568,93.711c0.87,0,1.575-0.706,1.575-1.579v-3.295c0-0.873-0.705-1.579-1.575-1.579
				c-0.87,0-1.575,0.706-1.575,1.579v3.295C271.993,93.004,272.698,93.711,273.568,93.711z"/>
		</g>
		<g>
			<path style="fill:#009252;" d="M249.793,106.759c0.87,0,1.575-0.706,1.575-1.579v-4.944c0-0.873-0.705-1.579-1.575-1.579
				s-1.575,0.706-1.575,1.579v4.944C248.218,106.053,248.923,106.759,249.793,106.759z"/>
		</g>
		<g>
			<path style="fill:#009252;" d="M243.216,106.759c0.87,0,1.575-0.706,1.575-1.579v-3.297c0-0.873-0.705-1.579-1.575-1.579
				s-1.575,0.706-1.575,1.579v3.297C241.641,106.053,242.346,106.759,243.216,106.759z"/>
		</g>
		<g>
			<path style="fill:#009252;" d="M255.822,106.759c0.87,0,1.575-0.706,1.575-1.579v-3.297c0-0.873-0.705-1.579-1.575-1.579
				c-0.87,0-1.575,0.706-1.575,1.579v3.297C254.246,106.053,254.952,106.759,255.822,106.759z"/>
		</g>
		<g>
			<path style="fill:#009252;" d="M243.697,79.427c0.87,0,1.575-0.706,1.575-1.579v-4.944c0-0.873-0.705-1.579-1.575-1.579
				s-1.575,0.706-1.575,1.579v4.944C242.122,78.721,242.827,79.427,243.697,79.427z"/>
		</g>
		<g>
			<path style="fill:#009252;" d="M237.119,79.427c0.87,0,1.575-0.706,1.575-1.579v-3.297c0-0.873-0.705-1.579-1.575-1.579
				s-1.575,0.706-1.575,1.579v3.297C235.544,78.721,236.249,79.427,237.119,79.427z"/>
		</g>
		<g>
			<path style="fill:#009252;" d="M249.726,79.427c0.87,0,1.575-0.706,1.575-1.579v-3.297c0-0.873-0.705-1.579-1.575-1.579
				s-1.575,0.706-1.575,1.579v3.297C248.15,78.721,248.856,79.427,249.726,79.427z"/>
		</g>
	</g>
	<g>
		<g>
			<g>
				<path style="fill-rule:evenodd;clip-rule:evenodd;fill:#374315;" d="M601.275-0.663h-7.414c0,0,0,13.666,0,20.437
					c0,2.05,1.658,3.712,3.703,3.712c0.002,0,0.005,0,0.007,0c2.045,0,3.703-1.662,3.703-3.712
					C601.275,13.003,601.275-0.663,601.275-0.663z"/>
				<path style="fill-rule:evenodd;clip-rule:evenodd;fill:#8FC300;" d="M616.068-1.799c-0.551-0.864-1.698-1.115-2.559-0.562
					s-1.112,1.704-0.561,2.568l3.966,6.213c0.551,0.864,1.698,1.115,2.559,0.562c0.861-0.554,1.112-1.704,0.561-2.568L616.068-1.799
					z"/>
				<path style="fill-rule:evenodd;clip-rule:evenodd;fill:#8FC300;" d="M602.281-23.544c-1.136-1.792-3.108-2.878-5.227-2.878
					c-2.119,0-4.091,1.086-5.227,2.878c-6.191,9.764-15.675,24.721-15.675,24.721c0,8.49,9.366,15.383,20.902,15.383
					c11.536,0,20.902-6.893,20.902-15.383C617.956,1.177,608.472-13.78,602.281-23.544z"/>
				<g>
					<defs>
						<path id="SVGID_00000125562151749276724920000005295767621187641991_" d="M602.281-23.544
							c-1.136-1.792-3.108-2.878-5.227-2.878c-2.119,0-4.091,1.086-5.227,2.878c-6.191,9.764-15.675,24.721-15.675,24.721
							c0,8.49,9.366,15.383,20.902,15.383c11.536,0,20.902-6.893,20.902-15.383C617.956,1.177,608.472-13.78,602.281-23.544z"/>
					</defs>
					<clipPath id="SVGID_00000127740873816953390780000003327306902986030742_">
						<use xlink:href="#SVGID_00000125562151749276724920000005295767621187641991_"  style="overflow:visible;"/>
					</clipPath>
					
						<path style="clip-path:url(#SVGID_00000127740873816953390780000003327306902986030742_);fill-rule:evenodd;clip-rule:evenodd;fill:#5AAA00;" d="
						M601.358-37.377c-1.177-1.423-2.924-2.247-4.768-2.247c-1.844,0-3.592,0.823-4.768,2.245
						c-6.167,7.466-16.133,20.581-16.133,27.41c0,8.49,9.366,15.383,20.902,15.383s20.901-6.893,20.901-15.383
						C617.492-16.798,607.526-29.913,601.358-37.377z"/>
				</g>
				<path style="fill-rule:evenodd;clip-rule:evenodd;fill:#8FC300;" d="M589.893,13.016c0.109-1.019,1.024-1.758,2.041-1.648
					c1.017,0.11,1.754,1.026,1.645,2.046l-0.341,3.171c-0.109,1.019-1.024,1.758-2.041,1.648s-1.754-1.026-1.644-2.046
					L589.893,13.016z"/>
				<path style="fill-rule:evenodd;clip-rule:evenodd;fill:#8FC300;" d="M577.318-0.656c0.552-0.863,1.7-1.114,2.561-0.561
					c0.861,0.554,1.111,1.704,0.559,2.567l-3.311,5.172c-0.552,0.863-1.7,1.114-2.561,0.56c-0.861-0.553-1.112-1.703-0.559-2.566
					L577.318-0.656z"/>
				<path style="fill-rule:evenodd;clip-rule:evenodd;fill:#5AAA00;" d="M598.444,5.415c0-1.025-0.831-1.858-1.853-1.858
					c-1.023,0-1.854,0.832-1.854,1.858v1.858c0,1.025,0.831,1.858,1.854,1.858c1.023,0,1.853-0.832,1.853-1.858V5.415z"/>
				<path style="fill-rule:evenodd;clip-rule:evenodd;fill:#5AAA00;" d="M604.854,8.908c-0.126-1.018-1.052-1.741-2.067-1.615
					c-1.015,0.126-1.737,1.055-1.611,2.072l0.228,1.844c0.126,1.018,1.052,1.741,2.067,1.615c1.015-0.126,1.737-1.055,1.611-2.072
					L604.854,8.908z"/>
				<path style="fill-rule:evenodd;clip-rule:evenodd;fill:#5AAA00;" d="M588.457,8.908c0.126-1.018,1.052-1.741,2.067-1.615
					c1.015,0.126,1.737,1.055,1.611,2.072l-0.228,1.844c-0.126,1.018-1.052,1.741-2.067,1.615c-1.015-0.126-1.737-1.055-1.611-2.072
					L588.457,8.908z"/>
				<path style="fill-rule:evenodd;clip-rule:evenodd;fill:#5AAA00;" d="M609.703,1.531c-0.307-0.978-1.349-1.521-2.325-1.213
					c-0.976,0.308-1.518,1.352-1.211,2.33l0.78,2.482c0.308,0.978,1.349,1.521,2.325,1.213c0.976-0.308,1.518-1.352,1.211-2.33
					L609.703,1.531z"/>
				<path style="fill-rule:evenodd;clip-rule:evenodd;fill:#5AAA00;" d="M584.68,2.374c0.308-0.978,1.349-1.522,2.325-1.213
					c0.976,0.308,1.518,1.352,1.211,2.33l-0.78,2.482c-0.308,0.978-1.349,1.521-2.325,1.213c-0.976-0.308-1.518-1.352-1.211-2.33
					L584.68,2.374z"/>
				<path style="fill-rule:evenodd;clip-rule:evenodd;fill:#5AAA00;" d="M614.28-1.967c-0.511-0.888-1.646-1.193-2.532-0.68
					c-0.886,0.513-1.19,1.65-0.678,2.537l1.677,2.911c0.512,0.888,1.646,1.193,2.532,0.68c0.886-0.513,1.19-1.65,0.678-2.538
					L614.28-1.967z"/>
				<path style="fill-rule:evenodd;clip-rule:evenodd;fill:#5AAA00;" d="M580.121-2.067c0.511-0.888,1.646-1.193,2.532-0.68
					c0.886,0.513,1.19,1.65,0.679,2.537l-1.677,2.911c-0.512,0.888-1.646,1.193-2.532,0.68c-0.886-0.513-1.19-1.65-0.678-2.538
					L580.121-2.067z"/>
				<path style="fill-rule:evenodd;clip-rule:evenodd;fill:#A2D500;" d="M601.793-30.189c-1.141-1.771-3.1-2.84-5.203-2.84
					c-2.103,0-4.062,1.07-5.203,2.84c-5.176,8.034-12.353,19.173-12.353,19.173c0,7.018,7.867,12.716,17.556,12.716
					s17.556-5.698,17.556-12.716C614.146-11.016,606.969-22.155,601.793-30.189z"/>
				<g>
					<defs>
						<path id="SVGID_00000116229560927424619000000017289017037166846398_" d="M601.793-30.189c-1.141-1.771-3.1-2.84-5.203-2.84
							c-2.103,0-4.062,1.07-5.203,2.84c-5.176,8.034-12.353,19.173-12.353,19.173c0,7.018,7.867,12.716,17.556,12.716
							s17.556-5.698,17.556-12.716C614.146-11.016,606.969-22.155,601.793-30.189z"/>
					</defs>
					<clipPath id="SVGID_00000178922788480613660010000001419625374501608362_">
						<use xlink:href="#SVGID_00000116229560927424619000000017289017037166846398_"  style="overflow:visible;"/>
					</clipPath>
				</g>
				<path style="fill-rule:evenodd;clip-rule:evenodd;fill:#A2D500;" d="M583.59-2.419c0.552-0.863,1.7-1.114,2.561-0.561
					c0.861,0.554,1.111,1.704,0.559,2.567l-0.079,0.124c-0.552,0.863-1.7,1.114-2.561,0.56c-0.861-0.554-1.111-1.704-0.559-2.567
					L583.59-2.419z"/>
				<path style="fill-rule:evenodd;clip-rule:evenodd;fill:#A2D500;" d="M609.957-2.419c-0.552-0.863-1.7-1.114-2.561-0.561
					s-1.112,1.704-0.559,2.567l0.079,0.124c0.552,0.863,1.7,1.114,2.561,0.56c0.861-0.554,1.112-1.704,0.559-2.567L609.957-2.419z"
					/>
				<path style="fill-rule:evenodd;clip-rule:evenodd;fill:#8FC300;" d="M614.66,6.941c-0.577-0.847-1.731-1.065-2.576-0.487
					c-0.845,0.578-1.062,1.735-0.486,2.582l1.46,2.144c0.577,0.847,1.731,1.065,2.576,0.487c0.845-0.578,1.062-1.735,0.486-2.582
					L614.66,6.941z"/>
				<path style="fill-rule:evenodd;clip-rule:evenodd;fill:#A2D500;" d="M587.714,0.054c0.302-0.98,1.34-1.53,2.318-1.227
					c0.977,0.302,1.526,1.343,1.225,2.323l-0.043,0.141c-0.302,0.98-1.34,1.53-2.318,1.227c-0.978-0.302-1.526-1.343-1.225-2.323
					L587.714,0.054z"/>
				<path style="fill-rule:evenodd;clip-rule:evenodd;fill:#A2D500;" d="M605.832,0.054c-0.302-0.98-1.34-1.53-2.317-1.227
					c-0.978,0.302-1.526,1.343-1.225,2.323l0.043,0.141c0.302,0.98,1.34,1.53,2.318,1.227c0.977-0.302,1.526-1.343,1.225-2.323
					L605.832,0.054z"/>
				<path style="fill-rule:evenodd;clip-rule:evenodd;fill:#8FC300;" d="M609.539,13.18c-0.302-0.98-1.34-1.53-2.317-1.227
					c-0.978,0.302-1.526,1.343-1.225,2.323l0.043,0.141c0.301,0.98,1.34,1.53,2.317,1.227c0.977-0.302,1.526-1.343,1.225-2.323
					L609.539,13.18z"/>
				<path style="fill-rule:evenodd;clip-rule:evenodd;fill:#8FC300;" d="M583.883,11.411c0.302-0.98,1.34-1.53,2.317-1.228
					c0.978,0.302,1.526,1.343,1.225,2.323l-0.737,2.396c-0.302,0.98-1.34,1.53-2.317,1.227c-0.978-0.302-1.526-1.343-1.225-2.323
					L583.883,11.411z"/>
				<path style="fill-rule:evenodd;clip-rule:evenodd;fill:#A2D500;" d="M592.544,1.835c0.109-1.019,1.024-1.758,2.041-1.648
					c1.017,0.11,1.754,1.026,1.644,2.046l-0.016,0.146c-0.109,1.019-1.024,1.758-2.041,1.648c-1.017-0.11-1.754-1.026-1.644-2.046
					L592.544,1.835z"/>
				<path style="fill-rule:evenodd;clip-rule:evenodd;fill:#A2D500;" d="M601.002,1.835c-0.109-1.019-1.024-1.758-2.041-1.648
					c-1.017,0.11-1.754,1.026-1.644,2.046l0.016,0.146c0.109,1.019,1.024,1.758,2.041,1.648c1.017-0.11,1.754-1.026,1.644-2.046
					L601.002,1.835z"/>
				<path style="fill-rule:evenodd;clip-rule:evenodd;fill:#8FC300;" d="M604.709,14.961c-0.109-1.019-1.024-1.758-2.041-1.648
					c-1.017,0.11-1.754,1.026-1.644,2.046l0.016,0.146c0.109,1.019,1.024,1.758,2.041,1.648c1.017-0.11,1.754-1.026,1.644-2.046
					L604.709,14.961z"/>
				<path style="fill-rule:evenodd;clip-rule:evenodd;fill:#8FC300;" d="M580.041,6.909c0.552-0.863,1.7-1.114,2.561-0.56
					c0.861,0.554,1.111,1.704,0.559,2.567l-2.21,3.452c-0.552,0.863-1.7,1.114-2.561,0.56c-0.861-0.553-1.111-1.703-0.559-2.566
					L580.041,6.909z"/>
				<path style="opacity:0.3;fill-rule:evenodd;clip-rule:evenodd;fill:#548E00;" d="M620.034,4.413l-3.754-5.879
					c-0.601-0.948-1.337-2.108-2.17-3.423c-0.025-0.291-0.095-0.579-0.263-0.842l-0.079-0.123c-0.165-0.258-0.392-0.442-0.641-0.585
					c-0.033-0.052-0.064-0.101-0.097-0.154c0.213-0.414,0.396-0.838,0.549-1.272c0.583,0.343,1.326,0.372,1.934-0.019
					c0.861-0.554,1.111-1.704,0.559-2.567l-0.079-0.124c-0.45-0.702-1.288-0.972-2.05-0.759c-0.588-0.912-2.496-3.875-4.862-7.547
					c0-0.232-0.038-0.467-0.13-0.694l-0.055-0.136c-0.022-0.054-0.066-0.089-0.092-0.14c0.38-0.472,0.696-0.971,0.957-1.489
					c0.464,0.102,0.968,0.028,1.399-0.25c0.861-0.554,1.112-1.704,0.559-2.567l-0.079-0.123c-0.341-0.533-0.911-0.798-1.498-0.819
					c-1.48-2.228-6.836-10.289-10.224-15.387c-0.638-0.96-1.712-1.536-2.862-1.536c-1.15,0-2.224,0.576-2.862,1.536
					c-3.393,5.106-8.761,13.186-10.232,15.398c-0.693-0.095-1.412,0.198-1.814,0.826l-0.079,0.124
					c-0.552,0.863-0.302,2.013,0.559,2.567c0.521,0.335,1.136,0.344,1.672,0.132c0.197,0.405,0.42,0.802,0.69,1.18
					c-2.703,4.195-4.993,7.749-5.708,8.86c-0.665-0.059-1.341,0.222-1.726,0.824l-0.079,0.124c-0.552,0.863-0.302,2.013,0.559,2.567
					c0.503,0.324,1.094,0.344,1.617,0.156c0.173,0.467,0.376,0.923,0.618,1.367c-0.188,0.134-0.358,0.3-0.49,0.506l-0.079,0.123
					c-0.315,0.492-0.343,1.068-0.171,1.584c-1.078,1.7-1.962,3.095-2.557,4.032l-2.964,4.631c-0.552,0.863-0.302,2.013,0.559,2.566
					c0.861,0.554,2.008,0.303,2.561-0.56l0.197-0.308c0.416,0.88,0.929,1.726,1.544,2.525l-1.038,1.622
					c-0.552,0.863-0.302,2.013,0.559,2.566c0.861,0.554,2.008,0.303,2.561-0.56l0.586-0.915c0.598,0.489,1.231,0.952,1.909,1.381
					l-0.3,0.973c-0.301,0.98,0.247,2.02,1.225,2.322c0.977,0.302,2.016-0.248,2.317-1.227l0.103-0.335
					c0.903,0.376,1.85,0.697,2.831,0.973l-0.07,0.648c-0.109,1.019,0.627,1.936,1.644,2.046c1.017,0.11,1.932-0.629,2.041-1.648
					l0.031-0.29c1.229,0.166,2.491,0.265,3.785,0.265c1.45,0,2.865-0.11,4.232-0.317c0.358,0.611,1.047,0.99,1.795,0.91
					c0.893-0.097,1.569-0.815,1.647-1.679c0.542-0.158,1.069-0.335,1.587-0.524c0.453,0.628,1.264,0.934,2.043,0.693
					c0.934-0.289,1.468-1.251,1.251-2.191c1.246-0.691,2.39-1.475,3.397-2.35l0.053,0.078c0.577,0.847,1.731,1.065,2.576,0.487
					c0.845-0.578,1.062-1.735,0.486-2.582l-0.544-0.799c0.471-0.663,0.87-1.356,1.207-2.071l0.131,0.205
					c0.551,0.864,1.698,1.115,2.559,0.562C620.334,6.428,620.586,5.277,620.034,4.413z"/>
			</g>
			<g>
				<path style="fill-rule:evenodd;clip-rule:evenodd;fill:#374315;" d="M557.919-0.663h-7.414c0,0,0,13.666,0,20.437
					c0,2.05,1.658,3.712,3.703,3.712c0.002,0,0.005,0,0.007,0c2.045,0,3.703-1.662,3.703-3.712
					C557.919,13.003,557.919-0.663,557.919-0.663z"/>
				<path style="fill-rule:evenodd;clip-rule:evenodd;fill:#8FC300;" d="M572.711-1.799c-0.551-0.864-1.698-1.115-2.559-0.562
					c-0.861,0.554-1.112,1.704-0.561,2.568l3.966,6.213c0.551,0.864,1.698,1.115,2.559,0.562c0.861-0.554,1.112-1.704,0.561-2.568
					L572.711-1.799z"/>
				<path style="fill-rule:evenodd;clip-rule:evenodd;fill:#8FC300;" d="M558.925-23.544c-1.136-1.792-3.108-2.878-5.227-2.878
					s-4.091,1.086-5.227,2.878c-6.191,9.764-15.675,24.721-15.675,24.721c0,8.49,9.366,15.383,20.902,15.383
					c11.536,0,20.902-6.893,20.902-15.383C574.6,1.177,565.116-13.78,558.925-23.544z"/>
				<g>
					<defs>
						<path id="SVGID_00000123400092347766046390000009341137973373154236_" d="M558.925-23.544
							c-1.136-1.792-3.108-2.878-5.227-2.878s-4.091,1.086-5.227,2.878c-6.191,9.764-15.675,24.721-15.675,24.721
							c0,8.49,9.366,15.383,20.902,15.383c11.536,0,20.902-6.893,20.902-15.383C574.6,1.177,565.116-13.78,558.925-23.544z"/>
					</defs>
					<clipPath id="SVGID_00000111183324830898264290000011104219327315180947_">
						<use xlink:href="#SVGID_00000123400092347766046390000009341137973373154236_"  style="overflow:visible;"/>
					</clipPath>
					
						<path style="clip-path:url(#SVGID_00000111183324830898264290000011104219327315180947_);fill-rule:evenodd;clip-rule:evenodd;fill:#5AAA00;" d="
						M558.001-37.377c-1.177-1.423-2.924-2.247-4.768-2.247c-1.844,0-3.592,0.823-4.768,2.245
						c-6.167,7.466-16.133,20.581-16.133,27.41c0,8.49,9.366,15.383,20.902,15.383c11.536,0,20.901-6.893,20.901-15.383
						C574.135-16.798,564.17-29.913,558.001-37.377z"/>
				</g>
				<path style="fill-rule:evenodd;clip-rule:evenodd;fill:#8FC300;" d="M546.536,13.016c0.109-1.019,1.024-1.758,2.041-1.648
					c1.017,0.11,1.754,1.026,1.645,2.046l-0.341,3.171c-0.109,1.019-1.024,1.758-2.041,1.648s-1.754-1.026-1.644-2.046
					L546.536,13.016z"/>
				<path style="fill-rule:evenodd;clip-rule:evenodd;fill:#8FC300;" d="M533.962-0.656c0.552-0.863,1.7-1.114,2.561-0.561
					c0.861,0.554,1.111,1.704,0.559,2.567l-3.311,5.172c-0.552,0.863-1.7,1.114-2.561,0.56c-0.861-0.553-1.112-1.703-0.559-2.566
					L533.962-0.656z"/>
				<path style="fill-rule:evenodd;clip-rule:evenodd;fill:#5AAA00;" d="M555.087,5.415c0-1.025-0.831-1.858-1.853-1.858
					c-1.023,0-1.854,0.832-1.854,1.858v1.858c0,1.025,0.831,1.858,1.854,1.858c1.023,0,1.853-0.832,1.853-1.858V5.415z"/>
				<path style="fill-rule:evenodd;clip-rule:evenodd;fill:#5AAA00;" d="M561.498,8.908c-0.126-1.018-1.052-1.741-2.067-1.615
					c-1.015,0.126-1.737,1.055-1.611,2.072l0.228,1.844c0.126,1.018,1.052,1.741,2.067,1.615c1.015-0.126,1.737-1.055,1.611-2.072
					L561.498,8.908z"/>
				<path style="fill-rule:evenodd;clip-rule:evenodd;fill:#5AAA00;" d="M545.101,8.908c0.126-1.018,1.052-1.741,2.067-1.615
					c1.015,0.126,1.737,1.055,1.611,2.072l-0.228,1.844c-0.126,1.018-1.052,1.741-2.067,1.615c-1.015-0.126-1.737-1.055-1.611-2.072
					L545.101,8.908z"/>
				<path style="fill-rule:evenodd;clip-rule:evenodd;fill:#5AAA00;" d="M566.347,1.531c-0.307-0.978-1.349-1.521-2.325-1.213
					c-0.976,0.308-1.518,1.352-1.211,2.33l0.78,2.482c0.308,0.978,1.349,1.521,2.325,1.213c0.976-0.308,1.518-1.352,1.211-2.33
					L566.347,1.531z"/>
				<path style="fill-rule:evenodd;clip-rule:evenodd;fill:#5AAA00;" d="M541.324,2.374c0.308-0.978,1.349-1.522,2.325-1.213
					c0.976,0.308,1.518,1.352,1.211,2.33l-0.78,2.482c-0.308,0.978-1.349,1.521-2.325,1.213c-0.976-0.308-1.518-1.352-1.211-2.33
					L541.324,2.374z"/>
				<path style="fill-rule:evenodd;clip-rule:evenodd;fill:#5AAA00;" d="M570.923-1.967c-0.511-0.888-1.646-1.193-2.532-0.68
					c-0.886,0.513-1.19,1.65-0.678,2.537l1.677,2.911c0.512,0.888,1.646,1.193,2.532,0.68c0.886-0.513,1.19-1.65,0.678-2.538
					L570.923-1.967z"/>
				<path style="fill-rule:evenodd;clip-rule:evenodd;fill:#5AAA00;" d="M536.765-2.067c0.511-0.888,1.646-1.193,2.532-0.68
					c0.886,0.513,1.19,1.65,0.679,2.537l-1.677,2.911c-0.512,0.888-1.646,1.193-2.532,0.68c-0.886-0.513-1.19-1.65-0.678-2.538
					L536.765-2.067z"/>
				<path style="fill-rule:evenodd;clip-rule:evenodd;fill:#A2D500;" d="M558.437-30.189c-1.141-1.771-3.1-2.84-5.203-2.84
					c-2.103,0-4.062,1.07-5.203,2.84c-5.176,8.034-12.353,19.173-12.353,19.173c0,7.018,7.867,12.716,17.556,12.716
					s17.556-5.698,17.556-12.716C570.79-11.016,563.613-22.155,558.437-30.189z"/>
				<g>
					<defs>
						<path id="SVGID_00000060710303547749589940000002287079491330097040_" d="M558.437-30.189c-1.141-1.771-3.1-2.84-5.203-2.84
							c-2.103,0-4.062,1.07-5.203,2.84c-5.176,8.034-12.353,19.173-12.353,19.173c0,7.018,7.867,12.716,17.556,12.716
							s17.556-5.698,17.556-12.716C570.79-11.016,563.613-22.155,558.437-30.189z"/>
					</defs>
					<clipPath id="SVGID_00000064314263382468360540000015598308407157910160_">
						<use xlink:href="#SVGID_00000060710303547749589940000002287079491330097040_"  style="overflow:visible;"/>
					</clipPath>
				</g>
				<path style="fill-rule:evenodd;clip-rule:evenodd;fill:#A2D500;" d="M540.233-2.419c0.552-0.863,1.7-1.114,2.561-0.561
					s1.111,1.704,0.559,2.567l-0.079,0.124c-0.552,0.863-1.7,1.114-2.561,0.56c-0.861-0.554-1.111-1.704-0.559-2.567L540.233-2.419z
					"/>
				<path style="fill-rule:evenodd;clip-rule:evenodd;fill:#A2D500;" d="M566.6-2.419c-0.552-0.863-1.7-1.114-2.561-0.561
					c-0.861,0.554-1.112,1.704-0.559,2.567l0.079,0.124c0.552,0.863,1.7,1.114,2.561,0.56c0.861-0.554,1.112-1.704,0.559-2.567
					L566.6-2.419z"/>
				<path style="fill-rule:evenodd;clip-rule:evenodd;fill:#8FC300;" d="M571.303,6.941c-0.577-0.847-1.731-1.065-2.576-0.487
					c-0.845,0.578-1.062,1.735-0.486,2.582l1.46,2.144c0.577,0.847,1.731,1.065,2.576,0.487c0.845-0.578,1.062-1.735,0.486-2.582
					L571.303,6.941z"/>
				<path style="fill-rule:evenodd;clip-rule:evenodd;fill:#A2D500;" d="M544.358,0.054c0.301-0.98,1.34-1.53,2.317-1.227
					c0.977,0.302,1.526,1.343,1.225,2.323l-0.043,0.141c-0.302,0.98-1.34,1.53-2.318,1.227c-0.978-0.302-1.526-1.343-1.225-2.323
					L544.358,0.054z"/>
				<path style="fill-rule:evenodd;clip-rule:evenodd;fill:#A2D500;" d="M562.475,0.054c-0.302-0.98-1.34-1.53-2.317-1.227
					c-0.978,0.302-1.526,1.343-1.225,2.323l0.043,0.141c0.302,0.98,1.34,1.53,2.318,1.227c0.977-0.302,1.526-1.343,1.225-2.323
					L562.475,0.054z"/>
				<path style="fill-rule:evenodd;clip-rule:evenodd;fill:#8FC300;" d="M566.182,13.18c-0.302-0.98-1.34-1.53-2.317-1.227
					c-0.978,0.302-1.526,1.343-1.225,2.323l0.043,0.141c0.302,0.98,1.34,1.53,2.318,1.227c0.977-0.302,1.526-1.343,1.225-2.323
					L566.182,13.18z"/>
				<path style="fill-rule:evenodd;clip-rule:evenodd;fill:#8FC300;" d="M540.527,11.411c0.302-0.98,1.34-1.53,2.317-1.228
					c0.978,0.302,1.526,1.343,1.225,2.323l-0.737,2.396c-0.301,0.98-1.34,1.53-2.317,1.227c-0.978-0.302-1.526-1.343-1.225-2.323
					L540.527,11.411z"/>
				<path style="fill-rule:evenodd;clip-rule:evenodd;fill:#A2D500;" d="M549.188,1.835c0.109-1.019,1.024-1.758,2.041-1.648
					c1.017,0.11,1.754,1.026,1.644,2.046l-0.016,0.146c-0.109,1.019-1.024,1.758-2.041,1.648c-1.017-0.11-1.754-1.026-1.644-2.046
					L549.188,1.835z"/>
				<path style="fill-rule:evenodd;clip-rule:evenodd;fill:#A2D500;" d="M557.646,1.835c-0.109-1.019-1.024-1.758-2.041-1.648
					c-1.017,0.11-1.754,1.026-1.644,2.046l0.016,0.146c0.109,1.019,1.024,1.758,2.041,1.648c1.017-0.11,1.754-1.026,1.644-2.046
					L557.646,1.835z"/>
				<path style="fill-rule:evenodd;clip-rule:evenodd;fill:#8FC300;" d="M561.353,14.961c-0.109-1.019-1.024-1.758-2.041-1.648
					c-1.017,0.11-1.754,1.026-1.644,2.046l0.016,0.146c0.109,1.019,1.024,1.758,2.041,1.648c1.017-0.11,1.754-1.026,1.644-2.046
					L561.353,14.961z"/>
				<path style="fill-rule:evenodd;clip-rule:evenodd;fill:#8FC300;" d="M536.684,6.909c0.552-0.863,1.7-1.114,2.561-0.56
					c0.861,0.554,1.111,1.704,0.559,2.567l-2.21,3.452c-0.552,0.863-1.7,1.114-2.561,0.56c-0.861-0.553-1.111-1.703-0.559-2.566
					L536.684,6.909z"/>
				<path style="opacity:0.3;fill-rule:evenodd;clip-rule:evenodd;fill:#548E00;" d="M576.678,4.413l-3.754-5.879
					c-0.601-0.948-1.337-2.108-2.17-3.423c-0.025-0.291-0.095-0.579-0.263-0.842l-0.079-0.123c-0.165-0.258-0.392-0.442-0.641-0.585
					c-0.033-0.052-0.064-0.101-0.097-0.154c0.213-0.414,0.396-0.838,0.549-1.272c0.583,0.343,1.326,0.372,1.934-0.019
					c0.861-0.554,1.111-1.704,0.559-2.567l-0.079-0.124c-0.45-0.702-1.288-0.972-2.05-0.759c-0.588-0.912-2.496-3.875-4.862-7.547
					c0-0.232-0.038-0.467-0.13-0.694l-0.055-0.136c-0.022-0.054-0.066-0.089-0.092-0.14c0.38-0.472,0.696-0.971,0.957-1.489
					c0.464,0.102,0.968,0.028,1.399-0.25c0.861-0.554,1.111-1.704,0.559-2.567l-0.079-0.123c-0.341-0.533-0.911-0.798-1.498-0.819
					c-1.48-2.228-6.836-10.289-10.224-15.387c-0.638-0.96-1.712-1.536-2.862-1.536s-2.224,0.576-2.862,1.536
					c-3.393,5.106-8.761,13.186-10.232,15.398c-0.693-0.095-1.412,0.198-1.814,0.826l-0.079,0.124
					c-0.552,0.863-0.302,2.013,0.559,2.567c0.521,0.335,1.136,0.344,1.672,0.132c0.197,0.405,0.42,0.802,0.69,1.18
					c-2.703,4.195-4.993,7.749-5.708,8.86c-0.665-0.059-1.341,0.222-1.726,0.824l-0.079,0.124c-0.552,0.863-0.302,2.013,0.559,2.567
					c0.503,0.324,1.094,0.344,1.617,0.156c0.173,0.467,0.376,0.923,0.618,1.367c-0.188,0.134-0.358,0.3-0.49,0.506l-0.079,0.123
					c-0.315,0.492-0.343,1.068-0.171,1.584c-1.078,1.7-1.962,3.095-2.557,4.032l-2.964,4.631c-0.552,0.863-0.302,2.013,0.559,2.566
					c0.861,0.554,2.008,0.303,2.561-0.56l0.197-0.308c0.416,0.88,0.929,1.726,1.544,2.525l-1.038,1.622
					c-0.552,0.863-0.302,2.013,0.559,2.566c0.861,0.554,2.008,0.303,2.561-0.56l0.586-0.915c0.598,0.489,1.231,0.952,1.909,1.381
					l-0.3,0.973c-0.301,0.98,0.247,2.02,1.225,2.322c0.977,0.302,2.016-0.248,2.317-1.227l0.103-0.335
					c0.903,0.376,1.85,0.697,2.831,0.973l-0.07,0.648c-0.109,1.019,0.627,1.936,1.644,2.046c1.017,0.11,1.932-0.629,2.041-1.648
					l0.031-0.29c1.23,0.166,2.491,0.265,3.785,0.265c1.45,0,2.865-0.11,4.232-0.317c0.358,0.611,1.047,0.99,1.795,0.91
					c0.893-0.097,1.569-0.815,1.647-1.679c0.542-0.158,1.069-0.335,1.587-0.524c0.453,0.628,1.264,0.934,2.043,0.693
					c0.934-0.289,1.468-1.251,1.251-2.191c1.246-0.691,2.39-1.475,3.397-2.35l0.053,0.078c0.577,0.847,1.731,1.065,2.576,0.487
					c0.845-0.578,1.062-1.735,0.486-2.582l-0.544-0.799c0.471-0.663,0.87-1.356,1.207-2.071l0.131,0.205
					c0.551,0.864,1.698,1.115,2.559,0.562S577.229,5.277,576.678,4.413z"/>
			</g>
			<g>
				<path style="fill-rule:evenodd;clip-rule:evenodd;fill:#374315;" d="M579.852,0.443h-8.367c0,0,0,15.422,0,23.064
					c0,2.313,1.871,4.189,4.179,4.189c0.003,0,0.005,0,0.008,0c2.308,0,4.179-1.876,4.179-4.189
					C579.852,15.865,579.852,0.443,579.852,0.443z"/>
				<path style="fill-rule:evenodd;clip-rule:evenodd;fill:#8FC300;" d="M596.546-0.839c-0.622-0.975-1.916-1.259-2.888-0.634
					c-0.972,0.625-1.255,1.923-0.633,2.898l4.476,7.011c0.622,0.975,1.916,1.259,2.888,0.634c0.972-0.625,1.255-1.923,0.633-2.898
					L596.546-0.839z"/>
				<path style="fill-rule:evenodd;clip-rule:evenodd;fill:#8FC300;" d="M580.987-25.379c-1.282-2.023-3.508-3.248-5.899-3.248
					c-2.391,0-4.617,1.225-5.899,3.248C562.203-14.36,551.5,2.519,551.5,2.519c0,9.582,10.57,17.361,23.588,17.361
					c13.019,0,23.588-7.779,23.588-17.361C598.677,2.519,587.974-14.36,580.987-25.379z"/>
				<g>
					<defs>
						<path id="SVGID_00000070830124192267131110000010619783105769769372_" d="M580.987-25.379
							c-1.282-2.023-3.508-3.248-5.899-3.248c-2.391,0-4.617,1.225-5.899,3.248C562.203-14.36,551.5,2.519,551.5,2.519
							c0,9.582,10.57,17.361,23.588,17.361c13.019,0,23.588-7.779,23.588-17.361C598.677,2.519,587.974-14.36,580.987-25.379z"/>
					</defs>
					<clipPath id="SVGID_00000054988162245422364000000018408844996793521839_">
						<use xlink:href="#SVGID_00000070830124192267131110000010619783105769769372_"  style="overflow:visible;"/>
					</clipPath>
					
						<path style="clip-path:url(#SVGID_00000054988162245422364000000018408844996793521839_);fill-rule:evenodd;clip-rule:evenodd;fill:#5AAA00;" d="
						M579.945-40.99c-1.328-1.606-3.3-2.535-5.381-2.536c-2.081,0-4.053,0.928-5.381,2.534c-6.96,8.425-18.206,23.226-18.206,30.933
						c0,9.582,10.57,17.361,23.588,17.361s23.588-7.779,23.588-17.361C598.153-17.765,586.906-32.566,579.945-40.99z"/>
				</g>
				<path style="fill-rule:evenodd;clip-rule:evenodd;fill:#8FC300;" d="M567.006,15.88c0.123-1.15,1.156-1.984,2.303-1.86
					c1.148,0.124,1.979,1.158,1.856,2.309l-0.384,3.579c-0.124,1.15-1.156,1.984-2.303,1.86c-1.148-0.124-1.979-1.158-1.856-2.309
					L567.006,15.88z"/>
				<path style="fill-rule:evenodd;clip-rule:evenodd;fill:#8FC300;" d="M552.815,0.451c0.623-0.974,1.918-1.257,2.89-0.633
					c0.972,0.625,1.254,1.923,0.631,2.897L552.6,8.552c-0.623,0.974-1.918,1.257-2.89,0.632c-0.972-0.625-1.255-1.922-0.631-2.896
					L552.815,0.451z"/>
				<path style="fill-rule:evenodd;clip-rule:evenodd;fill:#5AAA00;" d="M576.656,7.302c0-1.157-0.937-2.096-2.092-2.096
					c-1.154,0-2.092,0.939-2.092,2.096v2.096c0,1.157,0.937,2.096,2.092,2.096c1.154,0,2.092-0.939,2.092-2.096V7.302z"/>
				<path style="fill-rule:evenodd;clip-rule:evenodd;fill:#5AAA00;" d="M583.891,11.244c-0.142-1.148-1.187-1.965-2.333-1.823
					c-1.146,0.142-1.96,1.19-1.818,2.338l0.257,2.081c0.142,1.148,1.187,1.965,2.333,1.823c1.146-0.142,1.961-1.19,1.818-2.338
					L583.891,11.244z"/>
				<path style="fill-rule:evenodd;clip-rule:evenodd;fill:#5AAA00;" d="M565.386,11.244c0.142-1.148,1.188-1.965,2.333-1.823
					c1.146,0.142,1.96,1.19,1.818,2.338l-0.257,2.081c-0.142,1.148-1.188,1.965-2.333,1.823c-1.146-0.142-1.961-1.19-1.818-2.338
					L565.386,11.244z"/>
				<path style="fill-rule:evenodd;clip-rule:evenodd;fill:#5AAA00;" d="M589.363,2.919c-0.347-1.104-1.523-1.717-2.624-1.369
					c-1.101,0.348-1.713,1.526-1.366,2.63l0.881,2.801c0.347,1.104,1.523,1.717,2.624,1.369c1.101-0.348,1.713-1.526,1.366-2.63
					L589.363,2.919z"/>
				<path style="fill-rule:evenodd;clip-rule:evenodd;fill:#5AAA00;" d="M561.124,3.87c0.347-1.104,1.523-1.717,2.624-1.369
					c1.101,0.348,1.713,1.526,1.366,2.63l-0.881,2.801c-0.347,1.103-1.523,1.717-2.624,1.369c-1.101-0.348-1.713-1.526-1.366-2.63
					L561.124,3.87z"/>
				<path style="fill-rule:evenodd;clip-rule:evenodd;fill:#5AAA00;" d="M594.528-1.029c-0.577-1.002-1.857-1.346-2.857-0.767
					c-1,0.578-1.343,1.862-0.766,2.864l1.892,3.285c0.577,1.002,1.858,1.346,2.857,0.768c1-0.579,1.343-1.862,0.766-2.864
					L594.528-1.029z"/>
				<path style="fill-rule:evenodd;clip-rule:evenodd;fill:#5AAA00;" d="M555.979-1.141c0.577-1.002,1.857-1.346,2.857-0.767
					c1,0.578,1.343,1.862,0.766,2.864L557.71,4.24c-0.577,1.002-1.858,1.346-2.857,0.768c-1-0.579-1.343-1.862-0.766-2.864
					L555.979-1.141z"/>
				<path style="fill-rule:evenodd;clip-rule:evenodd;fill:#A2D500;" d="M580.436-32.878c-1.287-1.998-3.498-3.205-5.871-3.205
					c-2.373,0-4.584,1.207-5.872,3.205c-5.842,9.067-13.941,21.637-13.941,21.637c0,7.92,8.878,14.35,19.812,14.35
					s19.812-6.43,19.812-14.35C594.377-11.241,586.278-23.812,580.436-32.878z"/>
				<g>
					<defs>
						<path id="SVGID_00000028288642251754595570000013925991551622607544_" d="M580.436-32.878
							c-1.287-1.998-3.498-3.205-5.871-3.205c-2.373,0-4.584,1.207-5.872,3.205c-5.842,9.067-13.941,21.637-13.941,21.637
							c0,7.92,8.878,14.35,19.812,14.35s19.812-6.43,19.812-14.35C594.377-11.241,586.278-23.812,580.436-32.878z"/>
					</defs>
					<clipPath id="SVGID_00000178179185892171130840000004750022297594600087_">
						<use xlink:href="#SVGID_00000028288642251754595570000013925991551622607544_"  style="overflow:visible;"/>
					</clipPath>
				</g>
				<path style="fill-rule:evenodd;clip-rule:evenodd;fill:#A2D500;" d="M559.893-1.539c0.623-0.974,1.918-1.257,2.89-0.633
					c0.972,0.625,1.254,1.923,0.631,2.897l-0.089,0.14c-0.623,0.974-1.918,1.257-2.89,0.632c-0.972-0.625-1.254-1.923-0.631-2.897
					L559.893-1.539z"/>
				<path style="fill-rule:evenodd;clip-rule:evenodd;fill:#A2D500;" d="M589.649-1.539c-0.623-0.974-1.918-1.257-2.89-0.633
					c-0.972,0.625-1.255,1.923-0.631,2.897l0.089,0.14c0.623,0.974,1.918,1.257,2.89,0.632c0.972-0.625,1.255-1.923,0.631-2.897
					L589.649-1.539z"/>
				<path style="fill-rule:evenodd;clip-rule:evenodd;fill:#8FC300;" d="M594.957,9.024c-0.651-0.956-1.953-1.202-2.907-0.549
					c-0.953,0.652-1.199,1.958-0.548,2.913l1.648,2.42c0.651,0.955,1.953,1.202,2.907,0.549c0.953-0.652,1.199-1.958,0.548-2.913
					L594.957,9.024z"/>
				<path style="fill-rule:evenodd;clip-rule:evenodd;fill:#A2D500;" d="M564.548,1.252c0.34-1.106,1.512-1.726,2.615-1.385
					c1.103,0.341,1.722,1.516,1.382,2.621l-0.049,0.159c-0.341,1.105-1.512,1.726-2.615,1.385c-1.103-0.341-1.722-1.516-1.382-2.621
					L564.548,1.252z"/>
				<path style="fill-rule:evenodd;clip-rule:evenodd;fill:#A2D500;" d="M584.994,1.252c-0.34-1.106-1.512-1.726-2.615-1.385
					c-1.103,0.341-1.723,1.516-1.382,2.621l0.049,0.159c0.34,1.105,1.512,1.726,2.615,1.385c1.103-0.341,1.722-1.516,1.382-2.621
					L584.994,1.252z"/>
				<path style="fill-rule:evenodd;clip-rule:evenodd;fill:#8FC300;" d="M589.177,16.066c-0.34-1.106-1.512-1.726-2.615-1.385
					c-1.103,0.341-1.723,1.516-1.382,2.621l0.049,0.159c0.34,1.105,1.512,1.726,2.615,1.385c1.103-0.341,1.722-1.516,1.382-2.621
					L589.177,16.066z"/>
				<path style="fill-rule:evenodd;clip-rule:evenodd;fill:#8FC300;" d="M560.224,14.069c0.34-1.106,1.512-1.726,2.615-1.385
					c1.103,0.341,1.723,1.516,1.382,2.621l-0.832,2.704c-0.34,1.106-1.512,1.726-2.615,1.385c-1.103-0.341-1.723-1.516-1.382-2.621
					L560.224,14.069z"/>
				<path style="fill-rule:evenodd;clip-rule:evenodd;fill:#A2D500;" d="M569.998,3.262c0.123-1.15,1.156-1.984,2.303-1.86
					c1.148,0.124,1.979,1.158,1.856,2.309l-0.018,0.165c-0.123,1.15-1.156,1.984-2.303,1.86c-1.148-0.124-1.979-1.158-1.856-2.309
					L569.998,3.262z"/>
				<path style="fill-rule:evenodd;clip-rule:evenodd;fill:#A2D500;" d="M579.544,3.262c-0.123-1.15-1.156-1.984-2.303-1.86
					c-1.148,0.124-1.979,1.158-1.856,2.309l0.018,0.165c0.123,1.15,1.156,1.984,2.303,1.86c1.148-0.124,1.979-1.158,1.856-2.309
					L579.544,3.262z"/>
				<path style="fill-rule:evenodd;clip-rule:evenodd;fill:#8FC300;" d="M583.727,18.076c-0.123-1.15-1.156-1.984-2.303-1.86
					c-1.148,0.124-1.979,1.158-1.856,2.309l0.018,0.165c0.123,1.15,1.156,1.984,2.303,1.86c1.148-0.124,1.979-1.158,1.856-2.309
					L583.727,18.076z"/>
				<path style="fill-rule:evenodd;clip-rule:evenodd;fill:#8FC300;" d="M555.888,8.988c0.623-0.974,1.918-1.257,2.89-0.632
					c0.972,0.625,1.254,1.923,0.631,2.897l-2.494,3.896c-0.623,0.974-1.918,1.257-2.89,0.632c-0.972-0.625-1.254-1.922-0.631-2.896
					L555.888,8.988z"/>
			</g>
		</g>
		<g>
			<path style="opacity:0.1064;fill-rule:evenodd;clip-rule:evenodd;" d="M543.787,59.211h-44.839
				c-9.206,0-16.738-7.532-16.738-16.738V18.189c0-9.206,7.532-16.738,16.738-16.738h44.839c9.206,0,16.738,7.532,16.738,16.738
				v24.284C560.525,51.679,552.993,59.211,543.787,59.211z"/>
			<g>
				<g>
					<path style="fill-rule:evenodd;clip-rule:evenodd;fill:#007B62;" d="M548.463,31.598h4.891c0,0,0-5.089,0-8.246
						c0-1.353-1.096-2.451-2.446-2.451s-2.446,1.098-2.446,2.451C548.463,26.51,548.463,31.598,548.463,31.598z"/>
					<path style="fill-rule:evenodd;clip-rule:evenodd;fill:#009138;" d="M532.159,15.999v-4.902c0,0,4.441,0,7.339,0
						c0.648,0,1.269,0.257,1.727,0.718c0.46,0.458,0.717,1.081,0.717,1.731c0,0.002,0,0.005,0,0.005c0,0.65-0.257,1.272-0.717,1.733
						c-0.457,0.458-1.078,0.716-1.727,0.716C536.6,15.999,532.159,15.999,532.159,15.999z"/>
					<path style="fill-rule:evenodd;clip-rule:evenodd;fill:#009138;" d="M532.159,6.194V1.292c0,0,9.944,0,14.674,0
						c0.648,0,1.272,0.26,1.729,0.718c0.46,0.461,0.717,1.083,0.717,1.733s-0.257,1.275-0.717,1.733
						c-0.457,0.461-1.081,0.718-1.729,0.718C542.103,6.194,532.159,6.194,532.159,6.194z"/>
				</g>
				<rect x="492.49" y="33.341" style="fill:#8C4906;" width="4.043" height="16.974"/>
				<rect x="506.75" y="33.341" style="fill:#8C4906;" width="4.043" height="16.974"/>
				<rect x="531.147" y="33.341" style="fill:#8C4906;" width="4.043" height="16.974"/>
				<rect x="545.407" y="33.341" style="fill:#8C4906;" width="4.043" height="16.974"/>
				<rect x="492.49" y="33.341" style="fill:#783300;" width="4.043" height="3.865"/>
				<rect x="506.75" y="33.341" style="fill:#783300;" width="4.043" height="3.865"/>
				<rect x="531.147" y="33.341" style="fill:#783300;" width="4.043" height="3.865"/>
				<rect x="545.407" y="33.341" style="fill:#783300;" width="4.043" height="3.865"/>
				<rect x="492.49" y="42.3" style="fill:#783300;" width="4.043" height="3.865"/>
				<rect x="506.75" y="42.3" style="fill:#783300;" width="4.043" height="3.865"/>
				<rect x="531.147" y="42.3" style="fill:#783300;" width="4.043" height="3.865"/>
				<rect x="545.407" y="42.3" style="fill:#783300;" width="4.043" height="3.865"/>
				<rect x="489.931" y="41.689" style="fill-rule:evenodd;clip-rule:evenodd;fill:#AC6521;" width="62.053" height="2.543"/>
				<g>
					<defs>
						<path id="SVGID_00000086664008426500886900000014229906761361020061_" d="M555.469-31.617h-69.023c0,0,0,57.703,0,64.831
							c0,0.645,0.256,1.263,0.71,1.719c0.457,0.458,1.074,0.714,1.717,0.714c10.686,0,53.481,0,64.167,0
							c0.644,0,1.261-0.256,1.717-0.714c0.455-0.456,0.711-1.074,0.711-1.719C555.469,26.086,555.469-31.617,555.469-31.617z"/>
					</defs>
					<clipPath id="SVGID_00000065054195626920964020000012993786419914686143_">
						<use xlink:href="#SVGID_00000086664008426500886900000014229906761361020061_"  style="overflow:visible;"/>
					</clipPath>
					
						<path style="clip-path:url(#SVGID_00000065054195626920964020000012993786419914686143_);fill-rule:evenodd;clip-rule:evenodd;fill:#B97F4A;" d="
						M555.469-2.77h-69.023c0,0,0,28.856,0,35.984c0,0.645,0.256,1.263,0.71,1.719c0.457,0.458,1.074,0.714,1.717,0.714
						c10.686,0,53.481,0,64.167,0c0.644,0,1.261-0.256,1.717-0.714c0.455-0.456,0.711-1.074,0.711-1.719
						C555.469,26.086,555.469-2.77,555.469-2.77z"/>
					
						<rect x="484.416" y="31.595" style="clip-path:url(#SVGID_00000065054195626920964020000012993786419914686143_);fill-rule:evenodd;clip-rule:evenodd;fill:#AC6521;" width="73.083" height="4.053"/>
					
						<rect x="484.416" y="23.439" style="clip-path:url(#SVGID_00000065054195626920964020000012993786419914686143_);fill-rule:evenodd;clip-rule:evenodd;fill:#AC6521;" width="73.083" height="4.053"/>
					
						<rect x="484.416" y="15.281" style="clip-path:url(#SVGID_00000065054195626920964020000012993786419914686143_);fill-rule:evenodd;clip-rule:evenodd;fill:#AC6521;" width="73.083" height="4.053"/>
					
						<rect x="484.416" y="7.125" style="clip-path:url(#SVGID_00000065054195626920964020000012993786419914686143_);fill-rule:evenodd;clip-rule:evenodd;fill:#AC6521;" width="73.083" height="4.053"/>
					
						<rect x="484.416" y="-0.977" style="clip-path:url(#SVGID_00000065054195626920964020000012993786419914686143_);fill-rule:evenodd;clip-rule:evenodd;fill:#AC6521;" width="73.083" height="4.053"/>
					
						<rect x="514.867" y="19.37" style="clip-path:url(#SVGID_00000065054195626920964020000012993786419914686143_);fill-rule:evenodd;clip-rule:evenodd;fill:#8C4906;" width="12.181" height="16.278"/>
					
						<rect x="514.867" y="19.37" style="clip-path:url(#SVGID_00000065054195626920964020000012993786419914686143_);fill-rule:evenodd;clip-rule:evenodd;fill:#783300;" width="12.181" height="4.069"/>
					
						<rect x="535.168" y="17.335" style="clip-path:url(#SVGID_00000065054195626920964020000012993786419914686143_);fill-rule:evenodd;clip-rule:evenodd;fill:#4DBA9D;" width="12.181" height="12.208"/>
					
						<rect x="494.567" y="17.335" style="clip-path:url(#SVGID_00000065054195626920964020000012993786419914686143_);fill-rule:evenodd;clip-rule:evenodd;fill:#4DBA9D;" width="12.181" height="12.208"/>
					
						<rect x="494.567" y="27.48" style="clip-path:url(#SVGID_00000065054195626920964020000012993786419914686143_);fill-rule:evenodd;clip-rule:evenodd;fill:#FFFFFF;" width="12.181" height="2.063"/>
					
						<rect x="535.168" y="27.48" style="clip-path:url(#SVGID_00000065054195626920964020000012993786419914686143_);fill-rule:evenodd;clip-rule:evenodd;fill:#FFFFFF;" width="12.181" height="2.063"/>
					
						<rect x="535.168" y="17.307" style="clip-path:url(#SVGID_00000065054195626920964020000012993786419914686143_);fill-rule:evenodd;clip-rule:evenodd;fill:#289980;" width="12.181" height="2.063"/>
					
						<rect x="494.567" y="17.307" style="clip-path:url(#SVGID_00000065054195626920964020000012993786419914686143_);fill-rule:evenodd;clip-rule:evenodd;fill:#289980;" width="12.181" height="2.063"/>
					
						<rect x="516.897" y="1.083" style="clip-path:url(#SVGID_00000065054195626920964020000012993786419914686143_);fill-rule:evenodd;clip-rule:evenodd;fill:#4DBA9D;" width="8.12" height="10.162"/>
					
						<rect x="516.897" y="9.158" style="clip-path:url(#SVGID_00000065054195626920964020000012993786419914686143_);fill-rule:evenodd;clip-rule:evenodd;fill:#FFFFFF;" width="8.12" height="2.061"/>
					
						<rect x="516.897" y="-0.977" style="clip-path:url(#SVGID_00000065054195626920964020000012993786419914686143_);fill-rule:evenodd;clip-rule:evenodd;fill:#289980;" width="8.12" height="2.061"/>
				</g>
			</g>
		</g>
	</g>
	<g>
		<g>
			<path style="opacity:0.1064;fill-rule:evenodd;clip-rule:evenodd;" d="M877.122,64.243c0-3.386-2.741-6.135-6.117-6.135h-38.434
				c-3.376,0-6.117,2.749-6.117,6.135v5.406c0,3.386,2.741,6.135,6.117,6.135h38.434c3.376,0,6.117-2.749,6.117-6.135V64.243z"/>
			<path style="fill-rule:evenodd;clip-rule:evenodd;fill:#A59C83;" d="M849.265,45.019c0.882-1.475,2.472-2.378,4.186-2.378
				c1.159,0,2.505,0,3.669,0c1.74,0,3.349,0.929,4.223,2.439c2.613,4.516,8.143,14.074,10.391,17.96
				c0.552,0.954,0.269,2.174-0.646,2.785c-1.957,1.309-4.981,3.331-4.981,3.331h-22.029c0,0-1.834,1.84-3.136,3.145
				c-0.77,0.773-1.926,1.011-2.937,0.605c-2.028-0.814-5.438-2.182-7.531-3.021c-1.021-0.41-1.548-1.545-1.204-2.592
				c0.753-2.29,2.053-6.248,3.059-9.306c0.843-2.565,3.232-4.298,5.924-4.298c2.784,0,5.825,0,5.825,0
				S847.323,48.266,849.265,45.019z"/>
			<g>
				<defs>
					<path id="SVGID_00000125596076856171552710000011846554019017601950_" d="M849.265,45.019c0.882-1.475,2.472-2.378,4.186-2.378
						c1.159,0,2.505,0,3.669,0c1.74,0,3.349,0.929,4.223,2.439c2.613,4.516,8.143,14.074,10.391,17.96
						c0.552,0.954,0.269,2.174-0.646,2.785c-1.957,1.309-4.981,3.331-4.981,3.331h-22.029c0,0-1.834,1.84-3.136,3.145
						c-0.77,0.773-1.926,1.011-2.937,0.605c-2.028-0.814-5.438-2.182-7.531-3.021c-1.021-0.41-1.548-1.545-1.204-2.592
						c0.753-2.29,2.053-6.248,3.059-9.306c0.843-2.565,3.232-4.298,5.924-4.298c2.784,0,5.825,0,5.825,0
						S847.323,48.266,849.265,45.019z"/>
				</defs>
				<clipPath id="SVGID_00000065790531859028303590000009952419273559190686_">
					<use xlink:href="#SVGID_00000125596076856171552710000011846554019017601950_"  style="overflow:visible;"/>
				</clipPath>
				
					<path style="clip-path:url(#SVGID_00000065790531859028303590000009952419273559190686_);fill-rule:evenodd;clip-rule:evenodd;fill:#B7AE97;" d="
					M859.499,43.195c0-1.526-1.234-2.764-2.755-2.764c-1.051,0-2.249,0-3.301,0c-1.522,0-2.755,1.237-2.755,2.764
					c0,0.88,0,1.854,0,2.734c0,1.526,1.234,2.764,2.755,2.764c1.051,0,2.249,0,3.301,0c1.522,0,2.755-1.237,2.755-2.764
					C859.499,45.049,859.499,44.075,859.499,43.195z"/>
				
					<path style="clip-path:url(#SVGID_00000065790531859028303590000009952419273559190686_);fill-rule:evenodd;clip-rule:evenodd;fill:#B7AE97;" d="
					M844.078,54.243c0-1.526-1.234-2.764-2.755-2.764c-1.681,0-3.823,0-5.504,0c-1.522,0-2.755,1.237-2.755,2.764
					c0,0.364,0,0.737,0,1.101c0,1.526,1.234,2.764,2.755,2.764c1.681,0,3.823,0,5.504,0c1.522,0,2.755-1.237,2.755-2.764
					C844.078,54.98,844.078,54.607,844.078,54.243z"/>
			</g>
		</g>
		<path style="fill-rule:evenodd;clip-rule:evenodd;fill:#A59C83;" d="M844.078,88.984c0-1.799-1.453-3.256-3.247-3.256
			c-0.756,0-1.562,0-2.318,0c-1.793,0-3.247,1.458-3.247,3.256c0,0.039,0,0.077,0,0.116c0,1.799,1.454,3.256,3.247,3.256
			c0.756,0,1.562,0,2.318,0c1.793,0,3.247-1.458,3.247-3.256C844.078,89.061,844.078,89.023,844.078,88.984z"/>
	</g>
</g>
</svg>
