<?xml version="1.0" encoding="utf-8"?>
<!-- Generator: Adobe Illustrator 27.7.0, SVG Export Plug-In . SVG Version: 6.00 Build 0)  -->
<svg version="1.1" xmlns="http://www.w3.org/2000/svg" xmlns:xlink="http://www.w3.org/1999/xlink" x="0px" y="0px" width="1570px"
	 height="145px" viewBox="0 0 1570 145" style="enable-background:new 0 0 1570 145;" xml:space="preserve">
<g id="background">
	<g>
		<path style="fill:#77D629;" d="M1604.651,1377.5h-593.562c-40.041,0-72.5,32.459-72.5,72.5v0c0,40.041-32.459,72.5-72.5,72.5
			H686.601c-40.041,0-72.5,32.459-72.5,72.5v145c0,40.041-32.459,72.5-72.5,72.5h-3.561c-40.041,0-72.5,32.459-72.5,72.5v0
			c0,40.041-32.459,72.5-72.5,72.5H-101.65V0h901.13c25.641,0,49.375,13.544,62.419,35.62l350.29,592.853
			c12.262,20.754,34.038,34.055,58.101,35.491l332.874,19.859c45.364,2.706,77.083,46.001,65.989,90.071L1604.651,1377.5z"/>
		<g>
			
				<path style="fill:none;stroke:#77D629;stroke-width:10;stroke-linecap:round;stroke-linejoin:round;stroke-dasharray:0,10.0134;" d="
				M-91.637,0H799.48c25.641,0,49.375,13.544,62.419,35.62l350.29,592.853c12.262,20.754,34.038,34.055,58.101,35.491
				l332.874,19.859c45.364,2.706,77.083,46.001,65.989,90.071l-63.969,598.628"/>
		</g>
	</g>
	<g>
		<path style="fill:#00B365;" d="M-34.651,88.275h285.157c74.217,0,134.382,60.165,134.382,134.382v150.46
			c0,74.217,60.165,134.382,134.382,134.382h216.013c74.217,0,134.382,60.165,134.382,134.382v153.855
			c0,74.217,60.165,134.382,134.382,134.382h600.603V-1754.4H-34.651V88.275z"/>
		<g>
			
				<path style="fill:none;stroke:#00B365;stroke-width:10;stroke-linecap:round;stroke-linejoin:round;stroke-dasharray:0,10.0021;" d="
				M-24.649,88.275h275.155c74.217,0,134.382,60.165,134.382,134.382v150.46c0,74.217,60.165,134.382,134.382,134.382h216.013
				c74.217,0,134.382,60.165,134.382,134.382v153.855c0,74.217,60.165,134.382,134.382,134.382h595.602"/>
		</g>
	</g>
	<g>
		<path style="fill:#FFED8B;" d="M1897.828,413.232h-519.839c-18.713,0-33.882-15.17-33.882-33.882v0
			c0-18.713-15.17-33.882-33.882-33.882h-114.332c-50.572,0-91.568-40.997-91.568-91.568v-4.503
			c0-50.572-40.997-91.568-91.568-91.568H963.93c-50.572,0-91.568-40.997-91.568-91.568v-77.192
			c0-50.572,40.997-91.568,91.568-91.568h0c50.572,0,91.568-40.997,91.568-91.568v-102.725c0-52.857,42.849-95.706,95.706-95.706
			h109.568c34.509,0,62.483-27.975,62.483-62.483v0c0-34.509,27.975-62.483,62.484-62.483h91.002
			c57.736,0,104.541-46.805,104.541-104.541v-148.473c0-42.94,34.81-77.75,77.75-77.75h235.009
			C1894.042-848.232,2035.576,413.232,1897.828,413.232z"/>
		<g>
			
				<path style="fill:none;stroke:#00B365;stroke-width:10;stroke-linecap:round;stroke-linejoin:round;stroke-dasharray:0,10.0064;" d="
				M1895.138-838.29c12.911,118.246,133.251,1251.522,2.69,1251.522h-519.839c-18.713,0-33.882-15.169-33.882-33.882v0
				c0-18.713-15.17-33.882-33.882-33.882h-114.332c-50.572,0-91.568-40.997-91.568-91.568v-4.503
				c0-50.572-40.997-91.568-91.568-91.568H963.93c-50.572,0-91.568-40.997-91.568-91.568v-77.192
				c0-50.572,40.997-91.568,91.568-91.568h0c50.572,0,91.568-40.997,91.568-91.568v-102.725c0-52.857,42.849-95.706,95.706-95.706
				h109.568c34.509,0,62.483-27.975,62.483-62.484v0c0-34.509,27.975-62.483,62.484-62.483h91.002
				c57.736,0,104.541-46.805,104.541-104.541v-148.472c0-42.94,34.81-77.75,77.75-77.75h230.006"/>
		</g>
	</g>
	<g>
		<path style="fill:#4EEAE6;" d="M1915.594-250.142c-15.164-246.81-40.041-489.163-48.47-568.09h-208.091
			c-26.372,0-47.75,21.378-47.75,47.75v148.473c0,74.305-60.236,134.541-134.541,134.541h-91.003
			c-17.878,0-32.514,14.446-32.484,32.324c0.087,51.069-41.435,92.643-92.483,92.643h-109.568
			c-36.288,0-65.706,29.418-65.706,65.706v103.465c0,67.075-54.876,120.422-121.949,120.83
			c-33.775,0.206-61.187,27.745-61.187,61.567V66.26c0,34.003,27.565,61.568,61.568,61.568h48.826
			c67.14,0,121.568,54.428,121.568,121.568v4.502c0,19.435,9.056,36.788,23.168,48.075c7.282,5.825,4.079,17.475-5.181,18.58
			c-1.948,0.232-3.996,0.353-6.147,0.353h-82.922c-28.365,0-51.443,23.078-51.443,51.443h0.197v103.748h28.883V369.557h-0.006
			c1.382-11.125,10.876-19.769,22.369-19.769h82.922c19.539,0,37.086-8.326,49.027-21.699c7.064-7.911,17.028-12.623,27.635-12.623
			h87.399c35.206,0,63.852,28.628,63.882,63.828c0.002,2.165,1.716,3.937,3.881,3.937h516.852
			c2.993-3.573,11.771-17.096,19.334-58.92c6.629-36.658,10.939-86.93,12.813-149.417
			C1930.191,68.057,1926.357-74.946,1915.594-250.142z"/>
	</g>
	<path style="fill:#04D5D8;" d="M1400.411,353.231c-11.341-39.102-47.479-67.765-90.187-67.765h-114.332
		c-17.407,0-31.568-14.161-31.568-31.568v-4.502c0-83.575-67.993-151.568-151.568-151.568H963.93
		c-17.407,0-31.568-14.161-31.568-31.568v-77.192c0-17.407,14.161-31.568,31.568-31.568c83.575,0,151.568-67.993,151.568-151.568
		v-102.726c0-19.688,16.018-35.706,35.706-35.706h109.568c67.537,0,122.483-54.945,122.483-122.483c0-1.346,1.138-2.483,2.483-2.483
		h91.003c90.729,0,164.541-73.812,164.541-164.541v-148.473c0-9.787,7.963-17.75,17.75-17.75h181.086
		c9.769,93.812,31.798,316.412,45.531,539.93c10.708,174.295,14.527,316.376,11.351,422.297
		c-1.83,61.007-5.984,109.785-12.349,144.978c-2.944,16.286-5.968,27.207-8.379,34.259H1400.411z"/>
	<path style="fill:#00CBCA;" d="M1590.652-231.652h-119.394c-36.166,0-65.484,29.318-65.484,65.484v28.184
		c0,36.166-29.318,65.484-65.484,65.484l0,0c-36.166,0-65.484,29.318-65.484,65.484v42.187c0,36.166,29.318,65.484,65.484,65.484
		h9.774c25.37,0,45.937,20.566,45.937,45.936v0c0,25.37,20.566,45.936,45.937,45.936h160.443L1590.652-231.652z"/>
</g>
<g id="aulas" style="display:none;">
	<g style="display:inline;">
		<rect x="368.174" style="fill-rule:evenodd;clip-rule:evenodd;fill:#FFFFFF;" width="33.652" height="145"/>
		<circle style="fill-rule:evenodd;clip-rule:evenodd;fill:#5654A2;" cx="385" cy="72.5" r="42.5"/>
	</g>
</g>
<g id="Details">
	<g>
		<path style="fill-rule:evenodd;clip-rule:evenodd;fill:#374315;" d="M736.423,102.667h-7.036c0,0,0,12.97,0,19.396
			c0,1.945,1.574,3.523,3.515,3.523c0.002,0,0.004,0,0.007,0c1.941,0,3.515-1.577,3.515-3.523
			C736.423,115.637,736.423,102.667,736.423,102.667z"/>
		<path style="fill-rule:evenodd;clip-rule:evenodd;fill:#8FC300;" d="M750.461,101.589c-0.523-0.82-1.611-1.058-2.429-0.533
			s-1.056,1.617-0.532,2.437l3.764,5.896c0.523,0.82,1.611,1.058,2.429,0.533s1.056-1.617,0.532-2.437L750.461,101.589z"/>
		<path style="fill-rule:evenodd;clip-rule:evenodd;fill:#8FC300;" d="M737.377,80.952c-1.078-1.701-2.95-2.731-4.961-2.731
			c-2.011,0-3.882,1.03-4.961,2.731c-5.876,9.267-14.876,23.461-14.876,23.461c0,8.058,8.889,14.6,19.837,14.6
			c10.948,0,19.837-6.542,19.837-14.6C752.253,104.413,743.253,90.218,737.377,80.952z"/>
		<g>
			<defs>
				<path id="SVGID_00000122698053781502852480000015588605454288551316_" d="M737.377,80.952c-1.078-1.701-2.95-2.731-4.961-2.731
					c-2.011,0-3.882,1.03-4.961,2.731c-5.876,9.267-14.876,23.461-14.876,23.461c0,8.058,8.889,14.6,19.837,14.6
					c10.948,0,19.837-6.542,19.837-14.6C752.253,104.413,743.253,90.218,737.377,80.952z"/>
			</defs>
			<clipPath id="SVGID_00000124143626445438438460000007041736149165207171_">
				<use xlink:href="#SVGID_00000122698053781502852480000015588605454288551316_"  style="overflow:visible;"/>
			</clipPath>
			
				<path style="clip-path:url(#SVGID_00000124143626445438438460000007041736149165207171_);fill-rule:evenodd;clip-rule:evenodd;fill:#5AAA00;" d="
				M736.501,67.823c-1.117-1.351-2.775-2.132-4.525-2.132c-1.75,0-3.409,0.781-4.526,2.131
				c-5.853,7.086-15.311,19.533-15.311,26.013c0,8.058,8.889,14.6,19.837,14.6c10.948,0,19.837-6.542,19.837-14.6
				C751.813,87.354,742.355,74.907,736.501,67.823z"/>
		</g>
		<path style="fill-rule:evenodd;clip-rule:evenodd;fill:#8FC300;" d="M725.62,115.649c0.104-0.967,0.972-1.668,1.937-1.564
			c0.965,0.104,1.665,0.974,1.561,1.941l-0.323,3.01c-0.104,0.967-0.972,1.668-1.937,1.564c-0.965-0.104-1.664-0.974-1.561-1.942
			L725.62,115.649z"/>
		<path style="fill-rule:evenodd;clip-rule:evenodd;fill:#8FC300;" d="M713.686,102.674c0.524-0.819,1.613-1.057,2.43-0.532
			c0.817,0.525,1.055,1.617,0.531,2.436l-3.142,4.909c-0.524,0.819-1.613,1.057-2.43,0.532c-0.817-0.525-1.055-1.617-0.531-2.436
			L713.686,102.674z"/>
		<path style="fill-rule:evenodd;clip-rule:evenodd;fill:#5AAA00;" d="M733.735,108.435c0-0.973-0.788-1.763-1.759-1.763
			c-0.971,0-1.759,0.79-1.759,1.763v1.763c0,0.973,0.788,1.763,1.759,1.763c0.971,0,1.759-0.79,1.759-1.763V108.435z"/>
		<path style="fill-rule:evenodd;clip-rule:evenodd;fill:#5AAA00;" d="M739.819,111.751c-0.119-0.966-0.998-1.653-1.962-1.533
			c-0.963,0.12-1.649,1.001-1.529,1.966l0.216,1.75c0.119,0.966,0.999,1.653,1.962,1.533c0.964-0.12,1.649-1.001,1.529-1.966
			L739.819,111.751z"/>
		<path style="fill-rule:evenodd;clip-rule:evenodd;fill:#5AAA00;" d="M724.257,111.751c0.12-0.966,0.999-1.653,1.962-1.533
			c0.964,0.12,1.649,1.001,1.529,1.966l-0.216,1.75c-0.119,0.966-0.999,1.653-1.962,1.533c-0.964-0.12-1.649-1.001-1.529-1.966
			L724.257,111.751z"/>
		<path style="fill-rule:evenodd;clip-rule:evenodd;fill:#5AAA00;" d="M744.421,104.749c-0.292-0.928-1.28-1.444-2.206-1.152
			c-0.926,0.293-1.441,1.283-1.149,2.211l0.741,2.356c0.292,0.928,1.28,1.444,2.206,1.152c0.926-0.292,1.441-1.283,1.149-2.211
			L744.421,104.749z"/>
		<path style="fill-rule:evenodd;clip-rule:evenodd;fill:#5AAA00;" d="M720.673,105.549c0.292-0.928,1.28-1.444,2.206-1.152
			c0.926,0.292,1.441,1.283,1.149,2.211l-0.741,2.356c-0.292,0.928-1.28,1.444-2.206,1.152c-0.926-0.293-1.441-1.283-1.149-2.211
			L720.673,105.549z"/>
		<path style="fill-rule:evenodd;clip-rule:evenodd;fill:#5AAA00;" d="M748.764,101.43c-0.485-0.843-1.562-1.132-2.403-0.645
			c-0.841,0.486-1.129,1.566-0.644,2.408l1.591,2.762c0.486,0.843,1.562,1.132,2.403,0.645c0.841-0.487,1.129-1.566,0.644-2.408
			L748.764,101.43z"/>
		<path style="fill-rule:evenodd;clip-rule:evenodd;fill:#5AAA00;" d="M716.346,101.335c0.485-0.843,1.562-1.132,2.403-0.645
			c0.841,0.486,1.129,1.566,0.644,2.408l-1.591,2.762c-0.485,0.843-1.562,1.132-2.403,0.645c-0.841-0.487-1.129-1.566-0.644-2.408
			L716.346,101.335z"/>
		<path style="fill-rule:evenodd;clip-rule:evenodd;fill:#A2D500;" d="M736.914,74.645c-1.083-1.68-2.942-2.695-4.938-2.695
			c-1.996,0-3.855,1.015-4.938,2.695c-4.913,7.625-11.724,18.196-11.724,18.196c0,6.66,7.466,12.068,16.661,12.068
			c9.196,0,16.661-5.408,16.661-12.068C748.637,92.841,741.826,82.27,736.914,74.645z"/>
		<g>
			<defs>
				<path id="SVGID_00000164480783125432629720000018105962474170778537_" d="M736.914,74.645c-1.083-1.68-2.942-2.695-4.938-2.695
					c-1.996,0-3.855,1.015-4.938,2.695c-4.913,7.625-11.724,18.196-11.724,18.196c0,6.66,7.466,12.068,16.661,12.068
					c9.196,0,16.661-5.408,16.661-12.068C748.637,92.841,741.826,82.27,736.914,74.645z"/>
			</defs>
			<clipPath id="SVGID_00000095332795988869665810000008757954130270991543_">
				<use xlink:href="#SVGID_00000164480783125432629720000018105962474170778537_"  style="overflow:visible;"/>
			</clipPath>
			
				<path style="clip-path:url(#SVGID_00000095332795988869665810000008757954130270991543_);fill-rule:evenodd;clip-rule:evenodd;fill:#8FC300;" d="
				M736.496,59.863c-1.117-1.347-2.773-2.126-4.52-2.126c-1.747,0-3.404,0.779-4.52,2.126c-4.934,5.958-12.141,15.535-12.141,20.638
				c0,6.66,7.466,12.068,16.661,12.068c9.196,0,16.661-5.408,16.661-12.068C748.637,75.398,741.43,65.821,736.496,59.863z"/>
			
				<path style="clip-path:url(#SVGID_00000095332795988869665810000008757954130270991543_);fill-rule:evenodd;clip-rule:evenodd;fill:#8FC300;" d="
				M722.995,91.159c0.485-0.843,0.197-1.922-0.644-2.408c-0.841-0.486-1.917-0.197-2.403,0.645l-1.759,3.053
				c-0.485,0.843-0.197,1.922,0.644,2.408c0.841,0.486,1.917,0.197,2.403-0.645L722.995,91.159z"/>
			
				<path style="clip-path:url(#SVGID_00000095332795988869665810000008757954130270991543_);fill-rule:evenodd;clip-rule:evenodd;fill:#8FC300;" d="
				M727.167,97.601c0.318-0.92-0.169-1.924-1.087-2.243c-0.917-0.318-1.92,0.17-2.238,1.089l-0.576,1.666
				c-0.318,0.92,0.169,1.924,1.087,2.243c0.917,0.318,1.92-0.17,2.238-1.089L727.167,97.601z"/>
			
				<path style="clip-path:url(#SVGID_00000095332795988869665810000008757954130270991543_);fill-rule:evenodd;clip-rule:evenodd;fill:#8FC300;" d="
				M734.664,96.094c0-0.973-0.788-1.763-1.759-1.763c-0.971,0-1.759,0.79-1.759,1.763v1.763c0,0.973,0.788,1.763,1.759,1.763
				c0.971,0,1.759-0.79,1.759-1.763V96.094z"/>
			
				<path style="clip-path:url(#SVGID_00000095332795988869665810000008757954130270991543_);fill-rule:evenodd;clip-rule:evenodd;fill:#8FC300;" d="
				M741.58,96.385c-0.352-0.907-1.372-1.357-2.277-1.004c-0.905,0.352-1.354,1.375-1.002,2.282l0.637,1.643
				c0.352,0.907,1.372,1.357,2.277,1.004c0.905-0.352,1.354-1.375,1.002-2.282L741.58,96.385z"/>
			
				<path style="clip-path:url(#SVGID_00000095332795988869665810000008757954130270991543_);fill-rule:evenodd;clip-rule:evenodd;fill:#8FC300;" d="
				M744.338,88.806c-0.485-0.843-1.562-1.132-2.403-0.645c-0.841,0.486-1.129,1.566-0.644,2.408l1.523,2.644
				c0.485,0.843,1.562,1.132,2.403,0.645c0.841-0.486,1.129-1.566,0.644-2.408L744.338,88.806z"/>
		</g>
		<path style="fill-rule:evenodd;clip-rule:evenodd;fill:#A2D500;" d="M735.133,64.875c-0.605-0.911-1.625-1.458-2.716-1.458
			c-1.092,0-2.111,0.547-2.716,1.458c-3.758,5.655-10.085,15.177-10.085,15.177c0,2.893,1.95,5.468,4.976,7.113
			c2.164,1.176,4.879,1.877,7.825,1.877c7.065,0,12.801-4.028,12.801-8.99C745.218,80.052,738.891,70.53,735.133,64.875z"/>
		<g>
			<defs>
				<path id="SVGID_00000047759953270861218330000012488063350008301216_" d="M735.133,64.875c-0.605-0.911-1.625-1.458-2.716-1.458
					c-1.092,0-2.111,0.547-2.716,1.458c-3.758,5.655-10.085,15.177-10.085,15.177c0,2.893,1.95,5.468,4.976,7.113
					c2.164,1.176,4.879,1.877,7.825,1.877c7.065,0,12.801-4.028,12.801-8.99C745.218,80.052,738.891,70.53,735.133,64.875z"/>
			</defs>
			<clipPath id="SVGID_00000149350927856603420950000009679872054477753504_">
				<use xlink:href="#SVGID_00000047759953270861218330000012488063350008301216_"  style="overflow:visible;"/>
			</clipPath>
			
				<path style="clip-path:url(#SVGID_00000149350927856603420950000009679872054477753504_);fill-rule:evenodd;clip-rule:evenodd;fill:#C2ED00;" d="
				M743.459,71.944c0-6.131-4.967-11.109-11.084-11.109h-0.256c-6.118,0-11.084,4.978-11.084,11.109v0.47
				c0,6.131,4.966,11.109,11.084,11.109h0.256c6.117,0,11.084-4.978,11.084-11.109V71.944z"/>
			
				<path style="clip-path:url(#SVGID_00000149350927856603420950000009679872054477753504_);fill-rule:evenodd;clip-rule:evenodd;fill:#A2D500;" d="
				M732.981,71.887c0.261-0.937-0.286-1.91-1.221-2.172c-0.935-0.262-1.906,0.286-2.167,1.223l-0.141,0.507
				c-0.261,0.937,0.286,1.91,1.221,2.172c0.935,0.262,1.906-0.286,2.167-1.223L732.981,71.887z"/>
			
				<path style="clip-path:url(#SVGID_00000149350927856603420950000009679872054477753504_);fill-rule:evenodd;clip-rule:evenodd;fill:#A2D500;" d="
				M727.835,75.779c0.416-0.879,0.042-1.931-0.835-2.348c-0.877-0.417-1.927-0.042-2.343,0.837l-0.754,1.593
				c-0.416,0.879-0.042,1.931,0.835,2.348c0.877,0.417,1.927,0.042,2.343-0.837L727.835,75.779z"/>
			
				<path style="clip-path:url(#SVGID_00000149350927856603420950000009679872054477753504_);fill-rule:evenodd;clip-rule:evenodd;fill:#A2D500;" d="
				M734.664,78.464c0-0.973-0.788-1.763-1.759-1.763c-0.971,0-1.759,0.79-1.759,1.763v1.763c0,0.973,0.788,1.763,1.759,1.763
				c0.971,0,1.759-0.79,1.759-1.763V78.464z"/>
			
				<path style="clip-path:url(#SVGID_00000149350927856603420950000009679872054477753504_);fill-rule:evenodd;clip-rule:evenodd;fill:#A2D500;" d="
				M739.26,72.528c-0.488-0.841-1.566-1.127-2.405-0.638c-0.839,0.489-1.124,1.569-0.636,2.41l0.884,1.524
				c0.488,0.841,1.566,1.127,2.405,0.638c0.839-0.489,1.124-1.569,0.636-2.41L739.26,72.528z"/>
		</g>
		<path style="fill-rule:evenodd;clip-rule:evenodd;fill:#C2ED00;" d="M730.217,88.903c0-0.973,0.788-1.763,1.759-1.763
			c0.971,0,1.759,0.79,1.759,1.763v0.14c0,0.973-0.788,1.763-1.759,1.763c-0.971,0-1.759-0.79-1.759-1.763V88.903z"/>
		<path style="fill-rule:evenodd;clip-rule:evenodd;fill:#C2ED00;" d="M720.872,84.609c0.365-0.902,1.392-1.336,2.291-0.97
			c0.9,0.366,1.333,1.395,0.968,2.297l-0.052,0.129c-0.365,0.902-1.392,1.336-2.292,0.97c-0.899-0.366-1.333-1.395-0.968-2.297
			L720.872,84.609z"/>
		<path style="fill-rule:evenodd;clip-rule:evenodd;fill:#C2ED00;" d="M743.653,84.591c-0.365-0.902-1.392-1.336-2.291-0.97
			c-0.9,0.366-1.333,1.395-0.968,2.297l0.052,0.129c0.365,0.902,1.392,1.336,2.292,0.97c0.899-0.366,1.333-1.395,0.968-2.297
			L743.653,84.591z"/>
		<path style="fill-rule:evenodd;clip-rule:evenodd;fill:#C2ED00;" d="M718.268,80.273c0.524-0.819,1.613-1.057,2.43-0.532
			c0.817,0.525,1.055,1.617,0.531,2.436l-0.075,0.117c-0.524,0.819-1.613,1.057-2.43,0.532c-0.817-0.525-1.055-1.617-0.531-2.436
			L718.268,80.273z"/>
		<path style="fill-rule:evenodd;clip-rule:evenodd;fill:#A6D320;" d="M713.909,93.262c0.524-0.819,1.613-1.057,2.43-0.532
			c0.817,0.525,1.055,1.617,0.531,2.436l-0.075,0.117c-0.524,0.819-1.613,1.057-2.43,0.532s-1.055-1.617-0.531-2.436L713.909,93.262
			z"/>
		<path style="fill-rule:evenodd;clip-rule:evenodd;fill:#A2D500;" d="M750.39,93.262c-0.524-0.819-1.613-1.057-2.43-0.532
			c-0.817,0.525-1.055,1.617-0.531,2.436l0.075,0.117c0.524,0.819,1.613,1.057,2.43,0.532s1.055-1.617,0.531-2.436L750.39,93.262z"
			/>
		<path style="fill-rule:evenodd;clip-rule:evenodd;fill:#A2D500;" d="M719.638,101c0.524-0.819,1.613-1.057,2.43-0.532
			s1.055,1.617,0.531,2.436l-0.075,0.117c-0.524,0.819-1.613,1.057-2.43,0.532c-0.817-0.525-1.055-1.617-0.531-2.436L719.638,101z"
			/>
		<path style="fill-rule:evenodd;clip-rule:evenodd;fill:#A2D500;" d="M744.661,101c-0.524-0.819-1.613-1.057-2.43-0.532
			s-1.055,1.617-0.531,2.436l0.075,0.117c0.524,0.819,1.613,1.057,2.43,0.532s1.055-1.617,0.531-2.436L744.661,101z"/>
		<path style="fill-rule:evenodd;clip-rule:evenodd;fill:#8FC300;" d="M749.125,109.883c-0.547-0.804-1.643-1.011-2.445-0.462
			c-0.802,0.549-1.008,1.646-0.461,2.45l1.386,2.035c0.547,0.803,1.643,1.011,2.444,0.462c0.802-0.549,1.008-1.646,0.461-2.45
			L749.125,109.883z"/>
		<path style="fill-rule:evenodd;clip-rule:evenodd;fill:#A2D500;" d="M723.552,103.347c0.286-0.93,1.272-1.452,2.199-1.165
			c0.928,0.287,1.448,1.275,1.162,2.204l-0.041,0.133c-0.286,0.93-1.272,1.452-2.199,1.165c-0.928-0.287-1.448-1.275-1.162-2.204
			L723.552,103.347z"/>
		<path style="fill-rule:evenodd;clip-rule:evenodd;fill:#A2D500;" d="M740.747,103.347c-0.286-0.93-1.272-1.452-2.199-1.165
			c-0.928,0.287-1.449,1.275-1.162,2.204l0.041,0.133c0.286,0.93,1.272,1.452,2.199,1.165c0.928-0.287,1.448-1.275,1.162-2.204
			L740.747,103.347z"/>
		<path style="fill-rule:evenodd;clip-rule:evenodd;fill:#8FC300;" d="M744.265,115.805c-0.286-0.93-1.272-1.452-2.199-1.165
			c-0.928,0.287-1.449,1.275-1.162,2.204l0.041,0.133c0.286,0.93,1.272,1.452,2.199,1.165c0.928-0.287,1.448-1.275,1.162-2.204
			L744.265,115.805z"/>
		<path style="fill-rule:evenodd;clip-rule:evenodd;fill:#8FC300;" d="M719.917,114.126c0.286-0.93,1.272-1.452,2.199-1.165
			c0.928,0.287,1.449,1.275,1.162,2.204l-0.7,2.274c-0.286,0.93-1.272,1.452-2.199,1.165c-0.928-0.287-1.449-1.275-1.162-2.204
			L719.917,114.126z"/>
		<path style="fill-rule:evenodd;clip-rule:evenodd;fill:#A2D500;" d="M728.136,105.037c0.104-0.967,0.972-1.668,1.937-1.564
			c0.965,0.104,1.664,0.974,1.561,1.942l-0.015,0.139c-0.104,0.967-0.972,1.668-1.937,1.564c-0.965-0.104-1.664-0.974-1.561-1.942
			L728.136,105.037z"/>
		<path style="fill-rule:evenodd;clip-rule:evenodd;fill:#A2D500;" d="M736.164,105.037c-0.104-0.967-0.972-1.668-1.937-1.564
			c-0.965,0.104-1.665,0.974-1.561,1.942l0.015,0.139c0.104,0.967,0.972,1.668,1.937,1.564c0.965-0.104,1.664-0.974,1.561-1.942
			L736.164,105.037z"/>
		<path style="fill-rule:evenodd;clip-rule:evenodd;fill:#8FC300;" d="M739.681,117.495c-0.104-0.967-0.972-1.668-1.937-1.564
			c-0.965,0.104-1.665,0.974-1.561,1.942l0.015,0.139c0.104,0.967,0.972,1.668,1.937,1.564c0.965-0.104,1.664-0.974,1.561-1.942
			L739.681,117.495z"/>
		<path style="fill-rule:evenodd;clip-rule:evenodd;fill:#A2D500;" d="M716.021,97.741c0.524-0.819,1.613-1.057,2.43-0.532
			c0.817,0.525,1.055,1.617,0.531,2.436l-0.075,0.117c-0.524,0.819-1.613,1.057-2.43,0.532c-0.817-0.525-1.055-1.617-0.531-2.436
			L716.021,97.741z"/>
		<path style="fill-rule:evenodd;clip-rule:evenodd;fill:#A2D500;" d="M748.279,97.741c-0.524-0.819-1.613-1.057-2.43-0.532
			c-0.817,0.525-1.055,1.617-0.531,2.436l0.075,0.117c0.524,0.819,1.613,1.057,2.43,0.532c0.817-0.525,1.055-1.617,0.531-2.436
			L748.279,97.741z"/>
		<path style="fill-rule:evenodd;clip-rule:evenodd;fill:#8FC300;" d="M716.27,109.853c0.524-0.819,1.613-1.057,2.43-0.532
			s1.055,1.617,0.531,2.436l-2.097,3.276c-0.524,0.819-1.613,1.057-2.43,0.532c-0.817-0.525-1.055-1.617-0.531-2.436L716.27,109.853
			z"/>
		<path style="fill-rule:evenodd;clip-rule:evenodd;fill:#C2ED00;" d="M746.257,80.255c-0.524-0.819-1.613-1.057-2.43-0.532
			c-0.817,0.525-1.055,1.617-0.531,2.436l0.075,0.117c0.524,0.819,1.613,1.057,2.43,0.532c0.817-0.525,1.055-1.617,0.531-2.436
			L746.257,80.255z"/>
		<path style="fill-rule:evenodd;clip-rule:evenodd;fill:#C2ED00;" d="M724.781,87.593c0.159-0.96,1.065-1.61,2.023-1.451
			c0.958,0.159,1.606,1.068,1.448,2.028l-0.023,0.138c-0.159,0.96-1.065,1.61-2.023,1.451c-0.958-0.159-1.607-1.068-1.448-2.028
			L724.781,87.593z"/>
		<path style="fill-rule:evenodd;clip-rule:evenodd;fill:#C2ED00;" d="M739.745,87.576c-0.159-0.96-1.065-1.61-2.023-1.451
			c-0.958,0.159-1.606,1.068-1.448,2.028l0.023,0.138c0.159,0.96,1.065,1.61,2.023,1.451c0.958-0.159,1.606-1.068,1.448-2.028
			L739.745,87.576z"/>
	</g>
	<g>
		<path style="fill-rule:evenodd;clip-rule:evenodd;fill:#374315;" d="M805.25,95.305h-7.036c0,0,0,12.97,0,19.396
			c0,1.945,1.574,3.523,3.515,3.523c0.002,0,0.004,0,0.007,0c1.941,0,3.515-1.577,3.515-3.523
			C805.25,108.275,805.25,95.305,805.25,95.305z"/>
		<path style="fill-rule:evenodd;clip-rule:evenodd;fill:#8FC300;" d="M819.289,94.227c-0.523-0.82-1.611-1.058-2.429-0.533
			s-1.056,1.617-0.532,2.437l3.764,5.896c0.523,0.82,1.611,1.058,2.429,0.533c0.817-0.525,1.056-1.617,0.532-2.437L819.289,94.227z"
			/>
		<path style="fill-rule:evenodd;clip-rule:evenodd;fill:#8FC300;" d="M806.205,73.59c-1.078-1.701-2.95-2.731-4.961-2.731
			c-2.011,0-3.882,1.03-4.961,2.731c-5.876,9.267-14.876,23.461-14.876,23.461c0,8.058,8.889,14.6,19.837,14.6
			c10.948,0,19.837-6.542,19.837-14.6C821.081,97.052,812.08,82.857,806.205,73.59z"/>
		<g>
			<defs>
				<path id="SVGID_00000155123107514596945130000005318034928880718468_" d="M806.205,73.59c-1.078-1.701-2.95-2.731-4.961-2.731
					c-2.011,0-3.882,1.03-4.961,2.731c-5.876,9.267-14.876,23.461-14.876,23.461c0,8.058,8.889,14.6,19.837,14.6
					c10.948,0,19.837-6.542,19.837-14.6C821.081,97.052,812.08,82.857,806.205,73.59z"/>
			</defs>
			<clipPath id="SVGID_00000057128482008749630190000000861190340215640746_">
				<use xlink:href="#SVGID_00000155123107514596945130000005318034928880718468_"  style="overflow:visible;"/>
			</clipPath>
			
				<path style="clip-path:url(#SVGID_00000057128482008749630190000000861190340215640746_);fill-rule:evenodd;clip-rule:evenodd;fill:#5AAA00;" d="
				M805.328,60.462c-1.117-1.351-2.775-2.132-4.525-2.132c-1.75,0-3.409,0.781-4.526,2.131
				c-5.853,7.086-15.311,19.533-15.311,26.013c0,8.058,8.889,14.6,19.837,14.6c10.948,0,19.837-6.542,19.837-14.6
				C820.64,79.993,811.182,67.546,805.328,60.462z"/>
		</g>
		<path style="fill-rule:evenodd;clip-rule:evenodd;fill:#8FC300;" d="M794.447,108.288c0.104-0.967,0.972-1.668,1.937-1.564
			c0.965,0.104,1.665,0.974,1.561,1.941l-0.323,3.01c-0.104,0.967-0.972,1.668-1.937,1.564c-0.965-0.104-1.664-0.974-1.561-1.942
			L794.447,108.288z"/>
		<path style="fill-rule:evenodd;clip-rule:evenodd;fill:#8FC300;" d="M782.513,95.312c0.524-0.819,1.613-1.057,2.43-0.532
			s1.055,1.617,0.531,2.436l-3.142,4.909c-0.524,0.819-1.613,1.057-2.43,0.532c-0.817-0.525-1.055-1.617-0.531-2.436L782.513,95.312
			z"/>
		<path style="fill-rule:evenodd;clip-rule:evenodd;fill:#5AAA00;" d="M802.563,101.073c0-0.973-0.788-1.763-1.759-1.763
			c-0.971,0-1.759,0.79-1.759,1.763v1.763c0,0.973,0.788,1.763,1.759,1.763c0.971,0,1.759-0.79,1.759-1.763V101.073z"/>
		<path style="fill-rule:evenodd;clip-rule:evenodd;fill:#5AAA00;" d="M808.646,104.389c-0.119-0.966-0.998-1.653-1.962-1.533
			c-0.964,0.12-1.649,1.001-1.529,1.966l0.216,1.75c0.119,0.966,0.999,1.653,1.962,1.533c0.963-0.12,1.649-1.001,1.529-1.966
			L808.646,104.389z"/>
		<path style="fill-rule:evenodd;clip-rule:evenodd;fill:#5AAA00;" d="M793.085,104.389c0.12-0.966,0.999-1.653,1.962-1.533
			c0.963,0.12,1.649,1.001,1.529,1.966l-0.216,1.75c-0.119,0.966-0.999,1.653-1.962,1.533c-0.963-0.12-1.649-1.001-1.529-1.966
			L793.085,104.389z"/>
		<path style="fill-rule:evenodd;clip-rule:evenodd;fill:#5AAA00;" d="M813.248,97.388c-0.292-0.928-1.28-1.444-2.206-1.152
			c-0.926,0.293-1.441,1.283-1.149,2.211l0.741,2.356c0.292,0.928,1.28,1.444,2.206,1.152c0.926-0.292,1.441-1.283,1.149-2.211
			L813.248,97.388z"/>
		<path style="fill-rule:evenodd;clip-rule:evenodd;fill:#5AAA00;" d="M789.5,98.187c0.292-0.928,1.28-1.444,2.206-1.152
			c0.926,0.292,1.441,1.283,1.149,2.211l-0.741,2.356c-0.292,0.928-1.28,1.444-2.206,1.152c-0.926-0.293-1.441-1.283-1.149-2.211
			L789.5,98.187z"/>
		<path style="fill-rule:evenodd;clip-rule:evenodd;fill:#5AAA00;" d="M817.592,94.068c-0.485-0.843-1.562-1.132-2.403-0.645
			c-0.841,0.486-1.129,1.566-0.644,2.408l1.591,2.762c0.486,0.843,1.562,1.132,2.403,0.645c0.841-0.487,1.129-1.566,0.644-2.408
			L817.592,94.068z"/>
		<path style="fill-rule:evenodd;clip-rule:evenodd;fill:#5AAA00;" d="M785.174,93.973c0.485-0.843,1.562-1.132,2.403-0.645
			c0.841,0.486,1.129,1.566,0.644,2.408l-1.591,2.762c-0.486,0.843-1.562,1.132-2.403,0.645c-0.841-0.487-1.129-1.566-0.644-2.408
			L785.174,93.973z"/>
		<path style="fill-rule:evenodd;clip-rule:evenodd;fill:#A2D500;" d="M805.741,67.284c-1.083-1.68-2.942-2.695-4.938-2.695
			c-1.996,0-3.855,1.015-4.938,2.695c-4.913,7.625-11.724,18.196-11.724,18.196c0,6.66,7.466,12.068,16.661,12.068
			c9.196,0,16.661-5.408,16.661-12.068C817.465,85.48,810.654,74.908,805.741,67.284z"/>
		<g>
			<defs>
				<path id="SVGID_00000139263425154294681030000005116474833190630844_" d="M805.741,67.284c-1.083-1.68-2.942-2.695-4.938-2.695
					c-1.996,0-3.855,1.015-4.938,2.695c-4.913,7.625-11.724,18.196-11.724,18.196c0,6.66,7.466,12.068,16.661,12.068
					c9.196,0,16.661-5.408,16.661-12.068C817.465,85.48,810.654,74.908,805.741,67.284z"/>
			</defs>
			<clipPath id="SVGID_00000130645835949644669350000018246050422125279894_">
				<use xlink:href="#SVGID_00000139263425154294681030000005116474833190630844_"  style="overflow:visible;"/>
			</clipPath>
			
				<path style="clip-path:url(#SVGID_00000130645835949644669350000018246050422125279894_);fill-rule:evenodd;clip-rule:evenodd;fill:#8FC300;" d="
				M805.324,52.501c-1.117-1.347-2.773-2.126-4.52-2.126c-1.747,0-3.404,0.779-4.52,2.126c-4.934,5.958-12.141,15.535-12.141,20.638
				c0,6.66,7.466,12.068,16.661,12.068c9.196,0,16.661-5.408,16.661-12.068C817.465,68.036,810.258,58.46,805.324,52.501z"/>
			
				<path style="clip-path:url(#SVGID_00000130645835949644669350000018246050422125279894_);fill-rule:evenodd;clip-rule:evenodd;fill:#8FC300;" d="
				M791.822,83.798c0.485-0.843,0.197-1.922-0.644-2.408c-0.841-0.486-1.917-0.197-2.403,0.645l-1.759,3.053
				c-0.485,0.843-0.197,1.922,0.644,2.408c0.841,0.486,1.917,0.197,2.403-0.645L791.822,83.798z"/>
			
				<path style="clip-path:url(#SVGID_00000130645835949644669350000018246050422125279894_);fill-rule:evenodd;clip-rule:evenodd;fill:#8FC300;" d="
				M795.995,90.239c0.318-0.92-0.169-1.924-1.087-2.243c-0.917-0.318-1.92,0.17-2.237,1.089l-0.576,1.666
				c-0.318,0.92,0.169,1.924,1.087,2.243c0.917,0.318,1.92-0.17,2.238-1.089L795.995,90.239z"/>
			
				<path style="clip-path:url(#SVGID_00000130645835949644669350000018246050422125279894_);fill-rule:evenodd;clip-rule:evenodd;fill:#8FC300;" d="
				M803.491,88.733c0-0.973-0.788-1.763-1.759-1.763c-0.971,0-1.759,0.79-1.759,1.763v1.763c0,0.973,0.788,1.763,1.759,1.763
				c0.971,0,1.759-0.79,1.759-1.763V88.733z"/>
			
				<path style="clip-path:url(#SVGID_00000130645835949644669350000018246050422125279894_);fill-rule:evenodd;clip-rule:evenodd;fill:#8FC300;" d="
				M810.408,89.024c-0.352-0.907-1.372-1.357-2.277-1.004c-0.905,0.352-1.354,1.375-1.002,2.282l0.637,1.643
				c0.352,0.907,1.372,1.357,2.277,1.004c0.905-0.352,1.354-1.375,1.002-2.282L810.408,89.024z"/>
			
				<path style="clip-path:url(#SVGID_00000130645835949644669350000018246050422125279894_);fill-rule:evenodd;clip-rule:evenodd;fill:#8FC300;" d="
				M813.165,81.444c-0.486-0.843-1.562-1.132-2.403-0.645c-0.841,0.486-1.129,1.566-0.644,2.408l1.523,2.644
				c0.485,0.843,1.562,1.132,2.403,0.645c0.841-0.486,1.129-1.566,0.644-2.408L813.165,81.444z"/>
		</g>
		<path style="fill-rule:evenodd;clip-rule:evenodd;fill:#A2D500;" d="M803.96,57.513c-0.605-0.911-1.625-1.458-2.716-1.458
			c-1.092,0-2.111,0.547-2.716,1.458c-3.758,5.655-10.085,15.177-10.085,15.177c0,2.893,1.95,5.468,4.976,7.113
			c2.164,1.176,4.879,1.877,7.825,1.877c7.065,0,12.801-4.028,12.801-8.99C814.045,72.69,807.718,63.168,803.96,57.513z"/>
		<g>
			<defs>
				<path id="SVGID_00000026849353423811570860000004502989554084799160_" d="M803.96,57.513c-0.605-0.911-1.625-1.458-2.716-1.458
					c-1.092,0-2.111,0.547-2.716,1.458c-3.758,5.655-10.085,15.177-10.085,15.177c0,2.893,1.95,5.468,4.976,7.113
					c2.164,1.176,4.879,1.877,7.825,1.877c7.065,0,12.801-4.028,12.801-8.99C814.045,72.69,807.718,63.168,803.96,57.513z"/>
			</defs>
			<clipPath id="SVGID_00000162330838555388625130000010183847992171274419_">
				<use xlink:href="#SVGID_00000026849353423811570860000004502989554084799160_"  style="overflow:visible;"/>
			</clipPath>
			
				<path style="clip-path:url(#SVGID_00000162330838555388625130000010183847992171274419_);fill-rule:evenodd;clip-rule:evenodd;fill:#C2ED00;" d="
				M812.286,64.582c0-6.131-4.967-11.109-11.084-11.109h-0.256c-6.118,0-11.084,4.978-11.084,11.109v0.47
				c0,6.131,4.967,11.109,11.084,11.109h0.256c6.117,0,11.084-4.978,11.084-11.109V64.582z"/>
			
				<path style="clip-path:url(#SVGID_00000162330838555388625130000010183847992171274419_);fill-rule:evenodd;clip-rule:evenodd;fill:#A2D500;" d="
				M801.809,64.526c0.261-0.937-0.286-1.91-1.221-2.172c-0.935-0.262-1.906,0.286-2.167,1.223l-0.141,0.507
				c-0.261,0.937,0.286,1.91,1.221,2.172c0.935,0.262,1.906-0.286,2.167-1.223L801.809,64.526z"/>
			
				<path style="clip-path:url(#SVGID_00000162330838555388625130000010183847992171274419_);fill-rule:evenodd;clip-rule:evenodd;fill:#A2D500;" d="
				M796.662,68.417c0.416-0.879,0.042-1.931-0.835-2.348c-0.877-0.417-1.927-0.042-2.343,0.837l-0.754,1.593
				c-0.416,0.879-0.042,1.931,0.835,2.348c0.877,0.417,1.927,0.042,2.343-0.837L796.662,68.417z"/>
			
				<path style="clip-path:url(#SVGID_00000162330838555388625130000010183847992171274419_);fill-rule:evenodd;clip-rule:evenodd;fill:#A2D500;" d="
				M803.491,71.103c0-0.973-0.788-1.763-1.759-1.763c-0.971,0-1.759,0.79-1.759,1.763v1.763c0,0.973,0.788,1.763,1.759,1.763
				c0.971,0,1.759-0.79,1.759-1.763V71.103z"/>
			
				<path style="clip-path:url(#SVGID_00000162330838555388625130000010183847992171274419_);fill-rule:evenodd;clip-rule:evenodd;fill:#A2D500;" d="
				M808.088,65.167c-0.488-0.841-1.566-1.127-2.405-0.638c-0.839,0.489-1.124,1.569-0.636,2.41l0.884,1.524
				c0.488,0.841,1.566,1.127,2.405,0.638c0.839-0.489,1.124-1.569,0.636-2.41L808.088,65.167z"/>
		</g>
		<path style="fill-rule:evenodd;clip-rule:evenodd;fill:#C2ED00;" d="M799.044,81.541c0-0.973,0.788-1.763,1.759-1.763
			c0.971,0,1.759,0.79,1.759,1.763v0.14c0,0.973-0.788,1.763-1.759,1.763c-0.971,0-1.759-0.79-1.759-1.763V81.541z"/>
		<path style="fill-rule:evenodd;clip-rule:evenodd;fill:#C2ED00;" d="M789.7,77.247c0.365-0.902,1.392-1.336,2.291-0.97
			c0.9,0.366,1.333,1.395,0.968,2.297l-0.052,0.129c-0.365,0.902-1.392,1.336-2.292,0.97c-0.899-0.366-1.333-1.395-0.968-2.297
			L789.7,77.247z"/>
		<path style="fill-rule:evenodd;clip-rule:evenodd;fill:#C2ED00;" d="M812.481,77.23c-0.365-0.902-1.392-1.336-2.291-0.97
			c-0.9,0.366-1.333,1.395-0.968,2.297l0.052,0.129c0.365,0.902,1.392,1.336,2.292,0.97c0.899-0.366,1.333-1.395,0.968-2.297
			L812.481,77.23z"/>
		<path style="fill-rule:evenodd;clip-rule:evenodd;fill:#C2ED00;" d="M787.096,72.911c0.524-0.819,1.613-1.057,2.43-0.532
			c0.817,0.525,1.055,1.617,0.531,2.436l-0.075,0.117c-0.524,0.819-1.613,1.057-2.43,0.532c-0.817-0.525-1.055-1.617-0.531-2.436
			L787.096,72.911z"/>
		<path style="fill-rule:evenodd;clip-rule:evenodd;fill:#A6D320;" d="M782.737,85.9c0.524-0.819,1.613-1.057,2.43-0.532
			c0.817,0.525,1.055,1.617,0.531,2.436l-0.075,0.117c-0.524,0.819-1.613,1.057-2.43,0.532c-0.817-0.525-1.055-1.617-0.531-2.436
			L782.737,85.9z"/>
		<path style="fill-rule:evenodd;clip-rule:evenodd;fill:#A2D500;" d="M819.217,85.9c-0.524-0.819-1.613-1.057-2.43-0.532
			c-0.817,0.525-1.055,1.617-0.531,2.436l0.075,0.117c0.524,0.819,1.613,1.057,2.43,0.532c0.817-0.525,1.055-1.617,0.531-2.436
			L819.217,85.9z"/>
		<path style="fill-rule:evenodd;clip-rule:evenodd;fill:#A2D500;" d="M788.465,93.639c0.524-0.819,1.613-1.057,2.43-0.532
			c0.817,0.525,1.055,1.617,0.531,2.436l-0.075,0.117c-0.524,0.819-1.613,1.057-2.43,0.532c-0.817-0.525-1.055-1.617-0.531-2.436
			L788.465,93.639z"/>
		<path style="fill-rule:evenodd;clip-rule:evenodd;fill:#A2D500;" d="M813.489,93.639c-0.524-0.819-1.613-1.057-2.43-0.532
			c-0.817,0.525-1.055,1.617-0.531,2.436l0.075,0.117c0.524,0.819,1.613,1.057,2.43,0.532c0.817-0.525,1.055-1.617,0.531-2.436
			L813.489,93.639z"/>
		<path style="fill-rule:evenodd;clip-rule:evenodd;fill:#8FC300;" d="M817.953,102.522c-0.547-0.804-1.643-1.011-2.445-0.462
			c-0.802,0.549-1.008,1.646-0.461,2.45l1.386,2.035c0.547,0.803,1.643,1.011,2.444,0.462c0.802-0.549,1.008-1.646,0.461-2.45
			L817.953,102.522z"/>
		<path style="fill-rule:evenodd;clip-rule:evenodd;fill:#A2D500;" d="M792.38,95.986c0.286-0.93,1.272-1.452,2.199-1.165
			c0.928,0.287,1.448,1.275,1.162,2.204l-0.041,0.133c-0.286,0.93-1.272,1.452-2.199,1.165s-1.448-1.275-1.162-2.204L792.38,95.986z
			"/>
		<path style="fill-rule:evenodd;clip-rule:evenodd;fill:#A2D500;" d="M809.574,95.986c-0.286-0.93-1.272-1.452-2.199-1.165
			c-0.928,0.287-1.449,1.275-1.162,2.204l0.041,0.133c0.286,0.93,1.272,1.452,2.199,1.165c0.927-0.287,1.448-1.275,1.162-2.204
			L809.574,95.986z"/>
		<path style="fill-rule:evenodd;clip-rule:evenodd;fill:#8FC300;" d="M813.092,108.444c-0.286-0.93-1.272-1.452-2.199-1.165
			c-0.928,0.287-1.449,1.275-1.162,2.204l0.041,0.133c0.286,0.93,1.272,1.452,2.199,1.165c0.927-0.287,1.448-1.275,1.162-2.204
			L813.092,108.444z"/>
		<path style="fill-rule:evenodd;clip-rule:evenodd;fill:#8FC300;" d="M788.744,106.764c0.286-0.93,1.272-1.452,2.199-1.165
			c0.928,0.287,1.449,1.275,1.162,2.204l-0.7,2.274c-0.286,0.93-1.272,1.452-2.199,1.165c-0.928-0.287-1.449-1.275-1.162-2.204
			L788.744,106.764z"/>
		<path style="fill-rule:evenodd;clip-rule:evenodd;fill:#A2D500;" d="M796.963,97.676c0.104-0.967,0.972-1.668,1.937-1.564
			c0.965,0.104,1.664,0.974,1.561,1.941l-0.015,0.139c-0.104,0.967-0.972,1.668-1.937,1.564c-0.965-0.104-1.664-0.974-1.561-1.942
			L796.963,97.676z"/>
		<path style="fill-rule:evenodd;clip-rule:evenodd;fill:#A2D500;" d="M804.991,97.676c-0.104-0.967-0.972-1.668-1.937-1.564
			c-0.965,0.104-1.665,0.974-1.561,1.941l0.015,0.139c0.104,0.967,0.972,1.668,1.937,1.564c0.965-0.104,1.664-0.974,1.561-1.942
			L804.991,97.676z"/>
		<path style="fill-rule:evenodd;clip-rule:evenodd;fill:#8FC300;" d="M808.509,110.134c-0.104-0.967-0.972-1.668-1.937-1.564
			c-0.965,0.104-1.665,0.974-1.561,1.941l0.015,0.139c0.104,0.967,0.972,1.668,1.937,1.564c0.965-0.104,1.664-0.974,1.561-1.942
			L808.509,110.134z"/>
		<path style="fill-rule:evenodd;clip-rule:evenodd;fill:#A2D500;" d="M784.848,90.379c0.524-0.819,1.613-1.057,2.43-0.532
			s1.055,1.617,0.531,2.436l-0.075,0.117c-0.524,0.819-1.613,1.057-2.43,0.532c-0.817-0.525-1.055-1.617-0.531-2.436L784.848,90.379
			z"/>
		<path style="fill-rule:evenodd;clip-rule:evenodd;fill:#A2D500;" d="M817.106,90.379c-0.524-0.819-1.613-1.057-2.43-0.532
			s-1.055,1.617-0.531,2.436l0.075,0.117c0.524,0.819,1.613,1.057,2.43,0.532c0.817-0.525,1.055-1.617,0.531-2.436L817.106,90.379z"
			/>
		<path style="fill-rule:evenodd;clip-rule:evenodd;fill:#8FC300;" d="M785.097,102.491c0.524-0.819,1.613-1.057,2.43-0.532
			c0.817,0.525,1.055,1.617,0.531,2.436l-2.097,3.276c-0.524,0.819-1.613,1.057-2.43,0.532c-0.817-0.525-1.055-1.617-0.531-2.436
			L785.097,102.491z"/>
		<path style="fill-rule:evenodd;clip-rule:evenodd;fill:#C2ED00;" d="M815.085,72.894c-0.524-0.819-1.613-1.057-2.43-0.532
			c-0.817,0.525-1.055,1.617-0.531,2.436l0.075,0.117c0.524,0.819,1.613,1.057,2.43,0.532c0.817-0.525,1.055-1.617,0.531-2.436
			L815.085,72.894z"/>
		<path style="fill-rule:evenodd;clip-rule:evenodd;fill:#C2ED00;" d="M793.608,80.232c0.159-0.96,1.065-1.61,2.023-1.451
			c0.958,0.159,1.606,1.068,1.448,2.028l-0.023,0.138c-0.159,0.96-1.065,1.61-2.023,1.451c-0.958-0.159-1.606-1.068-1.448-2.028
			L793.608,80.232z"/>
		<path style="fill-rule:evenodd;clip-rule:evenodd;fill:#C2ED00;" d="M808.573,80.214c-0.159-0.96-1.065-1.61-2.023-1.451
			c-0.958,0.159-1.606,1.068-1.448,2.028l0.023,0.138c0.159,0.96,1.065,1.61,2.023,1.451c0.958-0.159,1.607-1.068,1.448-2.028
			L808.573,80.214z"/>
	</g>
	<g style="opacity:0.3308;">
		<g>
			<path style="fill:#00703A;" d="M138.623,48.952c-0.87,0-1.575-0.706-1.575-1.579v-4.944c0-0.873,0.705-1.579,1.575-1.579
				c0.87,0,1.575,0.706,1.575,1.579v4.944C140.199,48.245,139.493,48.952,138.623,48.952z"/>
		</g>
		<g>
			<path style="fill:#00703A;" d="M145.2,48.952c-0.87,0-1.575-0.706-1.575-1.579v-3.295c0-0.873,0.705-1.579,1.575-1.579
				s1.575,0.706,1.575,1.579v3.295C146.776,48.245,146.07,48.952,145.2,48.952z"/>
		</g>
		<g>
			<path style="fill:#00703A;" d="M132.594,48.952c-0.87,0-1.575-0.706-1.575-1.579v-3.295c0-0.873,0.705-1.579,1.575-1.579
				s1.575,0.706,1.575,1.579v3.295C134.169,48.245,133.464,48.952,132.594,48.952z"/>
		</g>
		<g>
			<path style="fill:#00703A;" d="M156.369,62c-0.87,0-1.575-0.706-1.575-1.579v-4.944c0-0.873,0.705-1.579,1.575-1.579
				s1.575,0.706,1.575,1.579v4.944C157.944,61.294,157.239,62,156.369,62z"/>
		</g>
		<g>
			<path style="fill:#00703A;" d="M162.946,62c-0.87,0-1.575-0.706-1.575-1.579v-3.297c0-0.873,0.705-1.579,1.575-1.579
				s1.575,0.706,1.575,1.579v3.297C164.521,61.294,163.816,62,162.946,62z"/>
		</g>
		<g>
			<path style="fill:#00703A;" d="M150.34,62c-0.87,0-1.575-0.706-1.575-1.579v-3.297c0-0.873,0.705-1.579,1.575-1.579
				s1.575,0.706,1.575,1.579v3.297C151.916,61.294,151.21,62,150.34,62z"/>
		</g>
		<g>
			<path style="fill:#00703A;" d="M162.465,34.668c-0.87,0-1.575-0.706-1.575-1.579v-4.944c0-0.873,0.705-1.579,1.575-1.579
				c0.87,0,1.575,0.706,1.575,1.579v4.944C164.041,33.962,163.335,34.668,162.465,34.668z"/>
		</g>
		<g>
			<path style="fill:#00703A;" d="M169.043,34.668c-0.87,0-1.575-0.706-1.575-1.579v-3.297c0-0.873,0.705-1.579,1.575-1.579
				s1.575,0.706,1.575,1.579v3.297C170.618,33.962,169.913,34.668,169.043,34.668z"/>
		</g>
		<g>
			<path style="fill:#00703A;" d="M156.437,34.668c-0.87,0-1.575-0.706-1.575-1.579v-3.297c0-0.873,0.705-1.579,1.575-1.579
				s1.575,0.706,1.575,1.579v3.297C158.012,33.962,157.307,34.668,156.437,34.668z"/>
		</g>
	</g>
	<g style="opacity:0.3308;">
		<g>
			<path style="fill:#00703A;" d="M470.962,52.385c-0.87,0-1.575-0.706-1.575-1.579v-4.944c0-0.873,0.705-1.579,1.575-1.579
				c0.87,0,1.575,0.706,1.575,1.579v4.944C472.538,51.679,471.832,52.385,470.962,52.385z"/>
		</g>
		<g>
			<path style="fill:#00703A;" d="M477.539,52.385c-0.87,0-1.575-0.706-1.575-1.579v-3.295c0-0.873,0.705-1.579,1.575-1.579
				c0.87,0,1.575,0.706,1.575,1.579v3.295C479.115,51.679,478.409,52.385,477.539,52.385z"/>
		</g>
		<g>
			<path style="fill:#00703A;" d="M464.933,52.385c-0.87,0-1.575-0.706-1.575-1.579v-3.295c0-0.873,0.705-1.579,1.575-1.579
				c0.87,0,1.575,0.706,1.575,1.579v3.295C466.509,51.679,465.803,52.385,464.933,52.385z"/>
		</g>
		<g>
			<path style="fill:#00703A;" d="M488.708,65.433c-0.87,0-1.575-0.706-1.575-1.579v-4.944c0-0.873,0.705-1.579,1.575-1.579
				c0.87,0,1.575,0.706,1.575,1.579v4.944C490.283,64.727,489.578,65.433,488.708,65.433z"/>
		</g>
		<g>
			<path style="fill:#00703A;" d="M495.285,65.433c-0.87,0-1.575-0.706-1.575-1.579v-3.297c0-0.873,0.705-1.579,1.575-1.579
				c0.87,0,1.575,0.706,1.575,1.579v3.297C496.86,64.727,496.155,65.433,495.285,65.433z"/>
		</g>
		<g>
			<path style="fill:#00703A;" d="M482.68,65.433c-0.87,0-1.575-0.706-1.575-1.579v-3.297c0-0.873,0.705-1.579,1.575-1.579
				c0.87,0,1.575,0.706,1.575,1.579v3.297C484.255,64.727,483.55,65.433,482.68,65.433z"/>
		</g>
		<g>
			<path style="fill:#00703A;" d="M494.804,38.102c-0.87,0-1.575-0.706-1.575-1.579v-4.944c0-0.873,0.705-1.579,1.575-1.579
				c0.87,0,1.575,0.706,1.575,1.579v4.944C496.38,37.395,495.674,38.102,494.804,38.102z"/>
		</g>
		<g>
			<path style="fill:#00703A;" d="M501.382,38.102c-0.87,0-1.575-0.706-1.575-1.579v-3.297c0-0.873,0.705-1.579,1.575-1.579
				c0.87,0,1.575,0.706,1.575,1.579v3.297C502.957,37.395,502.252,38.102,501.382,38.102z"/>
		</g>
		<g>
			<path style="fill:#00703A;" d="M488.776,38.102c-0.87,0-1.575-0.706-1.575-1.579v-3.297c0-0.873,0.705-1.579,1.575-1.579
				c0.87,0,1.575,0.706,1.575,1.579v3.297C490.351,37.395,489.646,38.102,488.776,38.102z"/>
		</g>
	</g>
	<g>
		<g>
			<path style="fill-rule:evenodd;clip-rule:evenodd;fill:#FFFFFF;" d="M1193.723,114.914c-1.161-1.969-3.637-2.725-5.695-1.737
				c-2.057,0.989-3.006,3.389-2.185,5.522c5.64,14.614,10.327,26.763,10.327,26.763s-6.408,11.305-14.118,24.905
				c-1.125,1.983-0.535,4.502,1.355,5.79c1.889,1.287,4.449,0.914,5.883-0.858c9.838-12.15,18.014-22.25,18.014-22.25
				s13.021-0.082,28.686-0.179c2.285-0.016,4.172-1.777,4.34-4.053c0.168-2.276-1.443-4.304-3.699-4.664
				c-15.478-2.464-28.341-4.513-28.341-4.513S1201.677,128.416,1193.723,114.914z"/>
		</g>
	</g>
	<g>
		<g>
			<rect x="1276.855" y="123.957" style="fill-rule:evenodd;clip-rule:evenodd;fill:#72709C;" width="6.98" height="87.508"/>
			<path style="fill-rule:evenodd;clip-rule:evenodd;fill:#FFFFFF;" d="M1299.619,96.682c0.974-2.069,0.204-4.54-1.771-5.685
				c-1.975-1.143-4.493-0.576-5.793,1.304c-8.901,12.89-16.301,23.605-16.301,23.605s-12.951,1.071-28.531,2.358
				c-2.272,0.187-4.022,2.093-4.022,4.381c0,2.286,1.75,4.192,4.022,4.379c15.58,1.288,28.531,2.358,28.531,2.358
				s7.4,10.715,16.301,23.605c1.3,1.88,3.818,2.447,5.793,1.304c1.975-1.143,2.745-3.616,1.771-5.683
				c-6.679-14.178-12.23-25.962-12.23-25.962S1292.94,110.858,1299.619,96.682z"/>
		</g>
	</g>
	<path style="fill-rule:evenodd;clip-rule:evenodd;fill:#02B8BC;" d="M1396.349,51.055l1.959-3.281
		c0.633,0.312,1.409,0.106,1.778-0.512c0.369-0.618,0.183-1.398-0.392-1.808l0.065-0.109c0.388-0.65,0.177-1.493-0.472-1.88
		c-0.649-0.387-1.491-0.174-1.879,0.476l-0.758,1.269l-3.255-1.944l0.758-1.269c0.388-0.65,0.177-1.493-0.472-1.88
		c-0.649-0.387-1.491-0.174-1.879,0.476l-0.065,0.109c-0.633-0.312-1.409-0.106-1.778,0.512c-0.369,0.618-0.183,1.399,0.392,1.808
		l-1.959,3.281l-11.394-6.805c-4.99,8.357-2.402,19.11,5.733,24.296l-4.723,7.908c-0.149,0.25-0.068,0.574,0.182,0.723
		c0.25,0.149,0.573,0.067,0.723-0.183l4.723-7.908c8.424,4.702,19.119,1.882,24.109-6.475L1396.349,51.055z"/>
	<g>
		<g>
			<path style="opacity:0.0731;fill-rule:evenodd;clip-rule:evenodd;" d="M1036.745,48.477c0-1.754-1.423-3.176-3.178-3.176
				c-2.195,0-5.1,0-7.294,0c-1.755,0-3.178,1.422-3.178,3.176c0,0.001,0,0.002,0,0.003c0,1.754,1.423,3.176,3.178,3.176
				c2.194,0,5.099,0,7.294,0c1.755,0,3.178-1.422,3.178-3.176C1036.745,48.478,1036.745,48.478,1036.745,48.477z"/>
			<path style="fill-rule:evenodd;clip-rule:evenodd;fill:#5CA390;" d="M1029.92,23.675c0,0.564,0.224,1.105,0.624,1.504
				c0.399,0.399,0.941,0.623,1.505,0.623c0.001,0,0.002,0,0.003,0c1.175,0,2.129-0.952,2.129-2.127c0-1.147,0-2.549,0-3.658
				c0-1.153-0.68-2.198-1.735-2.667c-1.446-0.642-3.474-1.542-4.777-2.121c-0.163-0.073-0.355-0.028-0.469,0.109
				c-0.114,0.138-0.125,0.333-0.023,0.481c0.688,1.011,1.664,2.445,2.248,3.303c0.323,0.475,0.496,1.036,0.496,1.61
				C1029.92,21.506,1029.92,22.662,1029.92,23.675z"/>
			<path style="fill-rule:evenodd;clip-rule:evenodd;fill:#5CA390;" d="M1016.86,23.086h7.794v2.61c0,0-2.919,0-5.184,0
				c-1.442,0-2.61-1.167-2.61-2.608C1016.86,23.087,1016.86,23.086,1016.86,23.086z"/>
			<path style="fill-rule:evenodd;clip-rule:evenodd;fill:#FFFFFF;" d="M1020.819,23.086c1.528,3.676,5.118,6.071,9.101,6.071
				c3.982,0,7.573-2.395,9.1-6.071H1020.819z"/>
			<path style="fill-rule:evenodd;clip-rule:evenodd;fill:#FF9C00;" d="M1039.376,24.831c0-0.478,0.388-0.865,0.866-0.865h2.598
				c0.478,0,0.866,0.388,0.866,0.865s-0.388,0.865-0.866,0.865h-2.598C1039.764,25.696,1039.376,25.308,1039.376,24.831z"/>
			<path style="fill-rule:evenodd;clip-rule:evenodd;fill:#5CA390;" d="M1029.92,27.929c0-0.564,0.224-1.105,0.624-1.504
				c0.399-0.399,0.941-0.623,1.505-0.623c0.001,0,0.002,0,0.003,0c1.175,0,2.129,0.953,2.129,2.127c0,1.147,0,2.55,0,3.658
				c0,1.153-0.68,2.199-1.735,2.667c-1.446,0.642-3.474,1.543-4.777,2.121c-0.163,0.073-0.355,0.029-0.469-0.109
				c-0.114-0.137-0.125-0.333-0.023-0.481c0.688-1.011,1.664-2.445,2.248-3.303c0.323-0.475,0.496-1.036,0.496-1.61
				C1029.92,30.098,1029.92,28.942,1029.92,27.929z"/>
			<path style="fill-rule:evenodd;clip-rule:evenodd;fill:#FFFFFF;" d="M1033.314,24.398c0-0.716,0.582-1.298,1.299-1.298h5.196
				c0.717,0,1.299,0.581,1.299,1.298s-0.582,1.298-1.299,1.298h-5.196C1033.896,25.696,1033.314,25.115,1033.314,24.398z"/>
			<rect x="1039.376" y="23.966" style="fill-rule:evenodd;clip-rule:evenodd;fill:#6884A8;" width="0.866" height="0.865"/>
		</g>
		<g>
			<path style="opacity:0.0731;fill-rule:evenodd;clip-rule:evenodd;" d="M1016.137,60.624c0-1.754-1.423-3.176-3.178-3.176
				c-2.195,0-5.1,0-7.294,0c-1.755,0-3.178,1.422-3.178,3.176c0,0.001,0,0.002,0,0.003c0,1.754,1.423,3.176,3.178,3.176
				c2.194,0,5.099,0,7.294,0c1.755,0,3.178-1.422,3.178-3.176C1016.137,60.625,1016.137,60.625,1016.137,60.624z"/>
			<path style="fill-rule:evenodd;clip-rule:evenodd;fill:#5CA390;" d="M1009.312,35.822c0,0.564,0.224,1.105,0.623,1.504
				c0.399,0.399,0.941,0.623,1.505,0.623c0.001,0,0.002,0,0.003,0c1.175,0,2.129-0.952,2.129-2.127c0-1.147,0-2.549,0-3.658
				c0-1.153-0.68-2.198-1.735-2.667c-1.446-0.642-3.474-1.542-4.777-2.121c-0.163-0.073-0.355-0.028-0.469,0.109
				c-0.114,0.138-0.125,0.333-0.023,0.481c0.688,1.011,1.664,2.445,2.248,3.303c0.323,0.475,0.496,1.036,0.496,1.61
				C1009.312,33.653,1009.312,34.809,1009.312,35.822z"/>
			<path style="fill-rule:evenodd;clip-rule:evenodd;fill:#5CA390;" d="M996.252,35.233h7.794v2.61c0,0-2.919,0-5.184,0
				c-1.442,0-2.61-1.167-2.61-2.608C996.252,35.234,996.252,35.233,996.252,35.233z"/>
			<path style="fill-rule:evenodd;clip-rule:evenodd;fill:#FFFFFF;" d="M1000.211,35.233c1.528,3.676,5.118,6.071,9.101,6.071
				c3.982,0,7.573-2.395,9.1-6.071H1000.211z"/>
			<path style="fill-rule:evenodd;clip-rule:evenodd;fill:#FF9C00;" d="M1018.768,36.978c0-0.478,0.388-0.865,0.866-0.865h2.598
				c0.478,0,0.866,0.388,0.866,0.865s-0.388,0.865-0.866,0.865h-2.598C1019.156,37.843,1018.768,37.456,1018.768,36.978z"/>
			<path style="fill-rule:evenodd;clip-rule:evenodd;fill:#5CA390;" d="M1009.312,40.076c0-0.564,0.224-1.105,0.623-1.504
				c0.399-0.399,0.941-0.623,1.505-0.623c0.001,0,0.002,0,0.003,0c1.175,0,2.129,0.953,2.129,2.127c0,1.147,0,2.55,0,3.658
				c0,1.153-0.68,2.199-1.735,2.667c-1.446,0.642-3.474,1.543-4.777,2.121c-0.163,0.073-0.355,0.029-0.469-0.109
				c-0.114-0.137-0.125-0.333-0.023-0.481c0.688-1.011,1.664-2.445,2.248-3.303c0.323-0.475,0.496-1.036,0.496-1.61
				C1009.312,42.245,1009.312,41.089,1009.312,40.076z"/>
			<path style="fill-rule:evenodd;clip-rule:evenodd;fill:#FFFFFF;" d="M1012.706,36.545c0-0.716,0.582-1.298,1.299-1.298h5.196
				c0.717,0,1.299,0.581,1.299,1.298c0,0.716-0.582,1.298-1.299,1.298h-5.196C1013.288,37.843,1012.706,37.262,1012.706,36.545z"/>
			<rect x="1018.768" y="36.113" style="fill-rule:evenodd;clip-rule:evenodd;fill:#6884A8;" width="0.866" height="0.865"/>
		</g>
	</g>
</g>
</svg>
