<?xml version="1.0" encoding="utf-8"?>
<!-- Generator: Adobe Illustrator 27.7.0, SVG Export Plug-In . SVG Version: 6.00 Build 0)  -->
<svg version="1.1" xmlns="http://www.w3.org/2000/svg" xmlns:xlink="http://www.w3.org/1999/xlink" x="0px" y="0px" width="1570px"
	 height="145px" viewBox="0 0 1570 145" style="enable-background:new 0 0 1570 145;" xml:space="preserve">
<g id="background">
	<g>
		<path style="fill:#77D629;" d="M1604.651,797.5h-593.562c-40.041,0-72.5,32.459-72.5,72.5v0c0,40.041-32.459,72.5-72.5,72.5
			H686.601c-40.041,0-72.5,32.459-72.5,72.5v145c0,40.041-32.459,72.5-72.5,72.5h-3.561c-40.041,0-72.5,32.459-72.5,72.5v0
			c0,40.041-32.459,72.5-72.5,72.5H-101.65V-580h901.13c25.641,0,49.375,13.544,62.419,35.62l350.29,592.853
			c12.262,20.754,34.038,34.055,58.101,35.491l332.874,19.859c45.364,2.706,77.083,46.001,65.989,90.071L1604.651,797.5z"/>
		<g>
			
				<path style="fill:none;stroke:#77D629;stroke-width:10;stroke-linecap:round;stroke-linejoin:round;stroke-dasharray:0,10.0134;" d="
				M-91.637-580H799.48c25.641,0,49.375,13.544,62.419,35.62l350.29,592.853c12.262,20.754,34.038,34.055,58.101,35.491
				l332.874,19.859c45.364,2.706,77.083,46.001,65.989,90.071l-63.969,598.628"/>
		</g>
	</g>
	<g>
		<path style="fill:#00B365;" d="M-34.651-491.725h285.157c74.217,0,134.382,60.165,134.382,134.382v150.46
			c0,74.217,60.165,134.382,134.382,134.382h216.013c74.217,0,134.382,60.165,134.382,134.382v153.855
			c0,74.217,60.165,134.382,134.382,134.382h600.603V-2334.4H-34.651V-491.725z"/>
		<g>
			
				<path style="fill:none;stroke:#00B365;stroke-width:10;stroke-linecap:round;stroke-linejoin:round;stroke-dasharray:0,10.0021;" d="
				M-24.649-491.725h275.155c74.217,0,134.382,60.165,134.382,134.382v150.46c0,74.217,60.165,134.382,134.382,134.382h216.013
				c74.217,0,134.382,60.165,134.382,134.382v153.855c0,74.217,60.165,134.382,134.382,134.382h595.602"/>
		</g>
	</g>
	<g>
		<path style="fill:#00E6DF;" d="M1118.185-29.461v150.418c0,15.369,12.505,27.874,27.876,27.874
			c15.369,0,27.874-12.505,27.874-27.874V17.209h-0.197c0-28.365,23.078-51.443,51.443-51.443h82.922
			c19.979,0,36.234-16.255,36.234-36.235c0-35.906,29.213-65.117,65.119-65.117h197.286v28.883h-197.286
			c-19.981,0-36.236,16.255-36.236,36.235c0,35.906-29.211,65.117-65.117,65.117h-82.922c-11.493,0-20.987,8.644-22.369,19.769
			h0.006v106.539c0,31.296-25.461,56.757-56.757,56.757c-31.297,0-56.758-25.461-56.758-56.757V-29.461"/>
		<g>
			
				<path style="fill:none;stroke:#00B365;stroke-width:10;stroke-linecap:round;stroke-linejoin:round;stroke-dasharray:0,10.0497;" d="
				M1118.185-19.412v140.368c0,15.369,12.505,27.874,27.876,27.874c15.369,0,27.874-12.505,27.874-27.874V22.234"/>
			
				<line style="fill:none;stroke:#00B365;stroke-width:10;stroke-linecap:round;stroke-linejoin:round;" x1="1173.935" y1="17.209" x2="1173.935" y2="17.209"/>
			
				<line style="fill:none;stroke:#00B365;stroke-width:10;stroke-linecap:round;stroke-linejoin:round;" x1="1173.738" y1="17.209" x2="1173.738" y2="17.209"/>
			
				<path style="fill:none;stroke:#00B365;stroke-width:10;stroke-linecap:round;stroke-linejoin:round;stroke-dasharray:0,10.0022;" d="
				M1174.702,7.265c4.645-23.623,25.514-41.499,50.478-41.499h82.922c19.979,0,36.234-16.255,36.234-36.234
				c0-35.906,29.213-65.117,65.119-65.117h192.279"/>
			
				<path style="fill:none;stroke:#00B365;stroke-width:10;stroke-linecap:round;stroke-linejoin:round;stroke-dasharray:0,10.0416;" d="
				M1596.7-106.703h-187.245c-19.981,0-36.236,16.255-36.236,36.234c0,35.906-29.211,65.117-65.117,65.117h-82.922
				c-9.747,0-18.057,6.218-21.199,14.893"/>
			
				<line style="fill:none;stroke:#00B365;stroke-width:10;stroke-linecap:round;stroke-linejoin:round;" x1="1202.812" y1="14.417" x2="1202.812" y2="14.417"/>
			
				<line style="fill:none;stroke:#00B365;stroke-width:10;stroke-linecap:round;stroke-linejoin:round;" x1="1202.817" y1="14.417" x2="1202.817" y2="14.417"/>
			
				<path style="fill:none;stroke:#00B365;stroke-width:10;stroke-linecap:round;stroke-linejoin:round;stroke-dasharray:0,9.8903;" d="
				M1202.817,24.308v96.648c0,31.296-25.461,56.757-56.757,56.757c-31.297,0-56.758-25.461-56.758-56.757V-24.516"/>
		</g>
	</g>
</g>
<g id="aulas" style="display:none;">
	<g style="display:inline;">
		<rect x="368.174" style="fill-rule:evenodd;clip-rule:evenodd;fill:#FFFFFF;" width="33.652" height="145"/>
		<circle style="fill-rule:evenodd;clip-rule:evenodd;fill:#5654A2;" cx="385" cy="72.5" r="42.5"/>
	</g>
</g>
<g id="Details">
	<g>
		<path style="fill-rule:evenodd;clip-rule:evenodd;fill:#374315;" d="M1251.497,80.666h-7.036c0,0,0,12.97,0,19.396
			c0,1.945,1.574,3.523,3.515,3.523c0.002,0,0.004,0,0.007,0c1.941,0,3.515-1.577,3.515-3.523
			C1251.497,93.636,1251.497,80.666,1251.497,80.666z"/>
		<path style="fill-rule:evenodd;clip-rule:evenodd;fill:#8FC300;" d="M1265.536,79.587c-0.523-0.82-1.611-1.058-2.428-0.533
			s-1.056,1.617-0.532,2.437l3.764,5.896c0.523,0.82,1.611,1.058,2.429,0.533c0.817-0.525,1.056-1.617,0.532-2.437L1265.536,79.587z
			"/>
		<path style="fill-rule:evenodd;clip-rule:evenodd;fill:#8FC300;" d="M1252.452,58.95c-1.078-1.701-2.95-2.731-4.961-2.731
			c-2.011,0-3.882,1.03-4.961,2.731c-5.876,9.267-14.876,23.461-14.876,23.461c0,8.058,8.889,14.6,19.837,14.6
			c10.948,0,19.837-6.542,19.837-14.6C1267.328,82.412,1258.328,68.217,1252.452,58.95z"/>
		<g>
			<defs>
				<path id="SVGID_00000087404467324308002550000014667544096209350818_" d="M1252.452,58.95c-1.078-1.701-2.95-2.731-4.961-2.731
					c-2.011,0-3.882,1.03-4.961,2.731c-5.876,9.267-14.876,23.461-14.876,23.461c0,8.058,8.889,14.6,19.837,14.6
					c10.948,0,19.837-6.542,19.837-14.6C1267.328,82.412,1258.328,68.217,1252.452,58.95z"/>
			</defs>
			<clipPath id="SVGID_00000129166419214765435600000014476572390584176522_">
				<use xlink:href="#SVGID_00000087404467324308002550000014667544096209350818_"  style="overflow:visible;"/>
			</clipPath>
			
				<path style="clip-path:url(#SVGID_00000129166419214765435600000014476572390584176522_);fill-rule:evenodd;clip-rule:evenodd;fill:#5AAA00;" d="
				M1251.575,45.822c-1.117-1.351-2.775-2.132-4.525-2.132c-1.75,0-3.409,0.781-4.526,2.131
				c-5.853,7.086-15.311,19.533-15.311,26.013c0,8.058,8.889,14.6,19.837,14.6c10.948,0,19.837-6.542,19.837-14.6
				C1266.887,65.353,1257.43,52.906,1251.575,45.822z"/>
		</g>
		<path style="fill-rule:evenodd;clip-rule:evenodd;fill:#8FC300;" d="M1240.694,93.648c0.104-0.967,0.972-1.668,1.937-1.564
			c0.965,0.104,1.665,0.974,1.561,1.941l-0.323,3.01c-0.104,0.967-0.972,1.668-1.937,1.564c-0.965-0.104-1.664-0.974-1.561-1.942
			L1240.694,93.648z"/>
		<path style="fill-rule:evenodd;clip-rule:evenodd;fill:#8FC300;" d="M1228.76,80.673c0.524-0.819,1.613-1.057,2.43-0.532
			s1.055,1.617,0.531,2.436l-3.142,4.909c-0.524,0.819-1.613,1.057-2.43,0.532c-0.817-0.525-1.055-1.617-0.531-2.436L1228.76,80.673
			z"/>
		<path style="fill-rule:evenodd;clip-rule:evenodd;fill:#5AAA00;" d="M1248.81,86.434c0-0.973-0.788-1.763-1.759-1.763
			c-0.971,0-1.759,0.79-1.759,1.763v1.763c0,0.973,0.788,1.763,1.759,1.763c0.971,0,1.759-0.79,1.759-1.763V86.434z"/>
		<path style="fill-rule:evenodd;clip-rule:evenodd;fill:#5AAA00;" d="M1254.893,89.75c-0.119-0.966-0.998-1.653-1.962-1.533
			c-0.964,0.12-1.649,1.001-1.529,1.966l0.217,1.75c0.119,0.966,0.999,1.653,1.962,1.533c0.963-0.12,1.649-1.001,1.529-1.966
			L1254.893,89.75z"/>
		<path style="fill-rule:evenodd;clip-rule:evenodd;fill:#5AAA00;" d="M1239.332,89.75c0.12-0.966,0.999-1.653,1.962-1.533
			c0.964,0.12,1.649,1.001,1.529,1.966l-0.216,1.75c-0.119,0.966-0.999,1.653-1.962,1.533c-0.964-0.12-1.649-1.001-1.529-1.966
			L1239.332,89.75z"/>
		<path style="fill-rule:evenodd;clip-rule:evenodd;fill:#5AAA00;" d="M1259.496,82.748c-0.292-0.928-1.28-1.444-2.206-1.152
			c-0.926,0.293-1.441,1.283-1.149,2.211l0.741,2.356c0.292,0.928,1.28,1.444,2.206,1.152c0.926-0.292,1.441-1.283,1.149-2.211
			L1259.496,82.748z"/>
		<path style="fill-rule:evenodd;clip-rule:evenodd;fill:#5AAA00;" d="M1235.747,83.548c0.292-0.928,1.281-1.444,2.206-1.152
			c0.926,0.292,1.441,1.283,1.149,2.211l-0.741,2.356c-0.292,0.928-1.281,1.444-2.206,1.152c-0.926-0.293-1.441-1.283-1.149-2.211
			L1235.747,83.548z"/>
		<path style="fill-rule:evenodd;clip-rule:evenodd;fill:#5AAA00;" d="M1263.839,79.428c-0.485-0.843-1.562-1.132-2.403-0.645
			c-0.841,0.486-1.129,1.566-0.644,2.408l1.591,2.762c0.485,0.843,1.562,1.132,2.403,0.645c0.841-0.487,1.129-1.566,0.644-2.408
			L1263.839,79.428z"/>
		<path style="fill-rule:evenodd;clip-rule:evenodd;fill:#5AAA00;" d="M1231.421,79.334c0.485-0.843,1.562-1.132,2.403-0.645
			c0.841,0.486,1.129,1.566,0.644,2.408l-1.591,2.762c-0.486,0.843-1.562,1.132-2.403,0.645c-0.841-0.487-1.129-1.566-0.644-2.408
			L1231.421,79.334z"/>
		<path style="fill-rule:evenodd;clip-rule:evenodd;fill:#A2D500;" d="M1251.988,52.644c-1.083-1.68-2.942-2.695-4.938-2.695
			c-1.996,0-3.855,1.015-4.938,2.695c-4.912,7.625-11.724,18.196-11.724,18.196c0,6.66,7.466,12.068,16.661,12.068
			c9.196,0,16.661-5.408,16.661-12.068C1263.712,70.84,1256.901,60.269,1251.988,52.644z"/>
		<g>
			<defs>
				<path id="SVGID_00000047059856263354953880000005088128972528162179_" d="M1251.988,52.644c-1.083-1.68-2.942-2.695-4.938-2.695
					c-1.996,0-3.855,1.015-4.938,2.695c-4.912,7.625-11.724,18.196-11.724,18.196c0,6.66,7.466,12.068,16.661,12.068
					c9.196,0,16.661-5.408,16.661-12.068C1263.712,70.84,1256.901,60.269,1251.988,52.644z"/>
			</defs>
			<clipPath id="SVGID_00000010272958417728319330000010822056784627622570_">
				<use xlink:href="#SVGID_00000047059856263354953880000005088128972528162179_"  style="overflow:visible;"/>
			</clipPath>
			
				<path style="clip-path:url(#SVGID_00000010272958417728319330000010822056784627622570_);fill-rule:evenodd;clip-rule:evenodd;fill:#8FC300;" d="
				M1251.571,37.861c-1.117-1.347-2.773-2.126-4.52-2.126c-1.747,0-3.404,0.779-4.52,2.126
				c-4.934,5.958-12.141,15.535-12.141,20.638c0,6.66,7.466,12.068,16.661,12.068c9.196,0,16.661-5.408,16.661-12.068
				C1263.712,53.397,1256.505,43.82,1251.571,37.861z"/>
			
				<path style="clip-path:url(#SVGID_00000010272958417728319330000010822056784627622570_);fill-rule:evenodd;clip-rule:evenodd;fill:#8FC300;" d="
				M1238.069,69.158c0.485-0.843,0.197-1.922-0.644-2.408c-0.841-0.486-1.917-0.197-2.403,0.645l-1.759,3.053
				c-0.485,0.843-0.197,1.922,0.644,2.408c0.841,0.486,1.917,0.197,2.403-0.645L1238.069,69.158z"/>
			
				<path style="clip-path:url(#SVGID_00000010272958417728319330000010822056784627622570_);fill-rule:evenodd;clip-rule:evenodd;fill:#8FC300;" d="
				M1242.242,75.6c0.318-0.92-0.169-1.924-1.087-2.243c-0.917-0.318-1.92,0.17-2.238,1.089l-0.575,1.666
				c-0.318,0.919,0.169,1.924,1.087,2.243c0.917,0.318,1.92-0.17,2.238-1.089L1242.242,75.6z"/>
			
				<path style="clip-path:url(#SVGID_00000010272958417728319330000010822056784627622570_);fill-rule:evenodd;clip-rule:evenodd;fill:#8FC300;" d="
				M1249.738,74.093c0-0.973-0.788-1.763-1.759-1.763c-0.971,0-1.759,0.79-1.759,1.763v1.763c0,0.973,0.788,1.763,1.759,1.763
				c0.971,0,1.759-0.79,1.759-1.763V74.093z"/>
			
				<path style="clip-path:url(#SVGID_00000010272958417728319330000010822056784627622570_);fill-rule:evenodd;clip-rule:evenodd;fill:#8FC300;" d="
				M1256.655,74.384c-0.352-0.907-1.372-1.357-2.277-1.004s-1.354,1.375-1.002,2.282l0.637,1.643
				c0.352,0.907,1.372,1.357,2.277,1.004c0.905-0.352,1.354-1.375,1.002-2.282L1256.655,74.384z"/>
			
				<path style="clip-path:url(#SVGID_00000010272958417728319330000010822056784627622570_);fill-rule:evenodd;clip-rule:evenodd;fill:#8FC300;" d="
				M1259.413,66.805c-0.486-0.843-1.562-1.132-2.403-0.645c-0.841,0.486-1.129,1.566-0.644,2.408l1.523,2.644
				c0.485,0.843,1.562,1.132,2.403,0.645c0.841-0.486,1.129-1.566,0.644-2.408L1259.413,66.805z"/>
		</g>
		<path style="fill-rule:evenodd;clip-rule:evenodd;fill:#A2D500;" d="M1250.207,42.873c-0.605-0.911-1.625-1.458-2.716-1.458
			c-1.092,0-2.111,0.547-2.716,1.458c-3.758,5.655-10.085,15.177-10.085,15.177c0,2.893,1.95,5.468,4.976,7.113
			c2.164,1.176,4.879,1.877,7.825,1.877c7.065,0,12.801-4.028,12.801-8.99C1260.292,58.051,1253.965,48.529,1250.207,42.873z"/>
		<g>
			<defs>
				<path id="SVGID_00000163756268795319526980000000152612933068239260_" d="M1250.207,42.873
					c-0.605-0.911-1.625-1.458-2.716-1.458c-1.092,0-2.111,0.547-2.716,1.458c-3.758,5.655-10.085,15.177-10.085,15.177
					c0,2.893,1.95,5.468,4.976,7.113c2.164,1.176,4.879,1.877,7.825,1.877c7.065,0,12.801-4.028,12.801-8.99
					C1260.292,58.051,1253.965,48.529,1250.207,42.873z"/>
			</defs>
			<clipPath id="SVGID_00000156569978828083249140000000648915123006933162_">
				<use xlink:href="#SVGID_00000163756268795319526980000000152612933068239260_"  style="overflow:visible;"/>
			</clipPath>
			
				<path style="clip-path:url(#SVGID_00000156569978828083249140000000648915123006933162_);fill-rule:evenodd;clip-rule:evenodd;fill:#C2ED00;" d="
				M1258.533,49.943c0-6.131-4.967-11.109-11.084-11.109h-0.256c-6.118,0-11.084,4.978-11.084,11.109v0.47
				c0,6.131,4.967,11.109,11.084,11.109h0.256c6.117,0,11.084-4.978,11.084-11.109V49.943z"/>
			
				<path style="clip-path:url(#SVGID_00000156569978828083249140000000648915123006933162_);fill-rule:evenodd;clip-rule:evenodd;fill:#A2D500;" d="
				M1248.056,49.886c0.261-0.937-0.286-1.91-1.221-2.172c-0.935-0.262-1.906,0.286-2.167,1.223l-0.141,0.507
				c-0.261,0.937,0.286,1.91,1.221,2.172c0.935,0.262,1.906-0.286,2.167-1.223L1248.056,49.886z"/>
			
				<path style="clip-path:url(#SVGID_00000156569978828083249140000000648915123006933162_);fill-rule:evenodd;clip-rule:evenodd;fill:#A2D500;" d="
				M1242.909,53.778c0.416-0.879,0.042-1.931-0.835-2.348c-0.877-0.417-1.927-0.042-2.343,0.837l-0.754,1.593
				c-0.416,0.879-0.042,1.931,0.835,2.348c0.877,0.417,1.927,0.042,2.343-0.837L1242.909,53.778z"/>
			
				<path style="clip-path:url(#SVGID_00000156569978828083249140000000648915123006933162_);fill-rule:evenodd;clip-rule:evenodd;fill:#A2D500;" d="
				M1249.738,56.463c0-0.973-0.788-1.763-1.759-1.763c-0.971,0-1.759,0.79-1.759,1.763v1.763c0,0.973,0.788,1.763,1.759,1.763
				c0.971,0,1.759-0.79,1.759-1.763V56.463z"/>
			
				<path style="clip-path:url(#SVGID_00000156569978828083249140000000648915123006933162_);fill-rule:evenodd;clip-rule:evenodd;fill:#A2D500;" d="
				M1254.335,50.527c-0.488-0.841-1.566-1.127-2.405-0.638c-0.839,0.489-1.124,1.569-0.636,2.41l0.884,1.524
				c0.488,0.841,1.566,1.127,2.405,0.638c0.839-0.489,1.124-1.569,0.636-2.41L1254.335,50.527z"/>
		</g>
		<path style="fill-rule:evenodd;clip-rule:evenodd;fill:#C2ED00;" d="M1245.292,66.901c0-0.973,0.788-1.763,1.759-1.763
			c0.971,0,1.759,0.79,1.759,1.763v0.14c0,0.973-0.788,1.763-1.759,1.763c-0.971,0-1.759-0.79-1.759-1.763V66.901z"/>
		<path style="fill-rule:evenodd;clip-rule:evenodd;fill:#C2ED00;" d="M1235.947,62.607c0.365-0.902,1.392-1.336,2.291-0.97
			c0.9,0.366,1.333,1.395,0.968,2.297l-0.052,0.129c-0.365,0.902-1.392,1.336-2.292,0.97c-0.899-0.366-1.333-1.395-0.968-2.297
			L1235.947,62.607z"/>
		<path style="fill-rule:evenodd;clip-rule:evenodd;fill:#C2ED00;" d="M1258.728,62.59c-0.365-0.902-1.392-1.336-2.291-0.97
			c-0.9,0.366-1.333,1.395-0.968,2.297l0.052,0.129c0.365,0.902,1.392,1.336,2.292,0.97c0.899-0.366,1.333-1.395,0.968-2.297
			L1258.728,62.59z"/>
		<path style="fill-rule:evenodd;clip-rule:evenodd;fill:#C2ED00;" d="M1233.343,58.271c0.524-0.819,1.613-1.057,2.43-0.532
			c0.817,0.525,1.055,1.617,0.531,2.436l-0.075,0.117c-0.524,0.819-1.613,1.057-2.43,0.532c-0.817-0.525-1.055-1.617-0.531-2.436
			L1233.343,58.271z"/>
		<path style="fill-rule:evenodd;clip-rule:evenodd;fill:#A6D320;" d="M1228.984,71.261c0.524-0.819,1.613-1.057,2.43-0.532
			c0.817,0.525,1.055,1.617,0.531,2.436l-0.075,0.117c-0.524,0.819-1.613,1.057-2.43,0.532c-0.817-0.525-1.055-1.617-0.531-2.436
			L1228.984,71.261z"/>
		<path style="fill-rule:evenodd;clip-rule:evenodd;fill:#A2D500;" d="M1265.464,71.261c-0.524-0.819-1.613-1.057-2.43-0.532
			c-0.817,0.525-1.055,1.617-0.531,2.436l0.075,0.117c0.524,0.819,1.613,1.057,2.43,0.532c0.817-0.525,1.055-1.617,0.531-2.436
			L1265.464,71.261z"/>
		<path style="fill-rule:evenodd;clip-rule:evenodd;fill:#A2D500;" d="M1234.713,78.999c0.524-0.819,1.613-1.057,2.43-0.532
			c0.817,0.525,1.055,1.617,0.531,2.436l-0.075,0.117c-0.524,0.819-1.613,1.057-2.43,0.532c-0.817-0.525-1.055-1.617-0.531-2.436
			L1234.713,78.999z"/>
		<path style="fill-rule:evenodd;clip-rule:evenodd;fill:#A2D500;" d="M1259.736,78.999c-0.524-0.819-1.613-1.057-2.43-0.532
			c-0.817,0.525-1.055,1.617-0.531,2.436l0.075,0.117c0.524,0.819,1.613,1.057,2.43,0.532c0.817-0.525,1.055-1.617,0.531-2.436
			L1259.736,78.999z"/>
		<path style="fill-rule:evenodd;clip-rule:evenodd;fill:#8FC300;" d="M1264.2,87.882c-0.547-0.804-1.643-1.011-2.445-0.462
			c-0.802,0.549-1.008,1.646-0.461,2.45l1.386,2.035c0.547,0.803,1.643,1.011,2.444,0.462c0.802-0.549,1.008-1.646,0.461-2.45
			L1264.2,87.882z"/>
		<path style="fill-rule:evenodd;clip-rule:evenodd;fill:#A2D500;" d="M1238.627,81.346c0.286-0.93,1.272-1.452,2.199-1.165
			c0.927,0.287,1.448,1.275,1.162,2.204l-0.041,0.133c-0.286,0.93-1.272,1.452-2.199,1.165s-1.448-1.275-1.162-2.204
			L1238.627,81.346z"/>
		<path style="fill-rule:evenodd;clip-rule:evenodd;fill:#A2D500;" d="M1255.821,81.346c-0.286-0.93-1.272-1.452-2.199-1.165
			c-0.928,0.287-1.449,1.275-1.162,2.204l0.041,0.133c0.286,0.93,1.272,1.452,2.199,1.165c0.927-0.287,1.448-1.275,1.162-2.204
			L1255.821,81.346z"/>
		<path style="fill-rule:evenodd;clip-rule:evenodd;fill:#8FC300;" d="M1259.339,93.804c-0.286-0.93-1.272-1.452-2.199-1.165
			c-0.928,0.287-1.449,1.275-1.162,2.204l0.041,0.133c0.286,0.93,1.272,1.452,2.199,1.165c0.927-0.287,1.448-1.275,1.162-2.204
			L1259.339,93.804z"/>
		<path style="fill-rule:evenodd;clip-rule:evenodd;fill:#8FC300;" d="M1234.991,92.125c0.286-0.93,1.272-1.452,2.199-1.165
			c0.928,0.287,1.449,1.275,1.162,2.204l-0.7,2.274c-0.286,0.93-1.272,1.452-2.199,1.165c-0.928-0.287-1.449-1.275-1.162-2.204
			L1234.991,92.125z"/>
		<path style="fill-rule:evenodd;clip-rule:evenodd;fill:#A2D500;" d="M1243.21,83.036c0.104-0.967,0.972-1.668,1.937-1.564
			c0.965,0.104,1.664,0.974,1.561,1.941l-0.015,0.139c-0.104,0.967-0.972,1.668-1.937,1.564c-0.965-0.104-1.665-0.974-1.561-1.941
			L1243.21,83.036z"/>
		<path style="fill-rule:evenodd;clip-rule:evenodd;fill:#A2D500;" d="M1251.238,83.036c-0.104-0.967-0.972-1.668-1.937-1.564
			c-0.965,0.104-1.665,0.974-1.561,1.941l0.015,0.139c0.104,0.967,0.972,1.668,1.937,1.564c0.965-0.104,1.664-0.974,1.561-1.941
			L1251.238,83.036z"/>
		<path style="fill-rule:evenodd;clip-rule:evenodd;fill:#8FC300;" d="M1254.756,95.494c-0.104-0.967-0.972-1.668-1.937-1.564
			c-0.965,0.104-1.665,0.974-1.561,1.941l0.015,0.139c0.104,0.967,0.972,1.668,1.937,1.564c0.965-0.104,1.664-0.974,1.561-1.942
			L1254.756,95.494z"/>
		<path style="fill-rule:evenodd;clip-rule:evenodd;fill:#A2D500;" d="M1231.095,75.74c0.524-0.819,1.613-1.057,2.43-0.532
			s1.055,1.617,0.531,2.436l-0.075,0.117c-0.524,0.819-1.613,1.057-2.43,0.532c-0.817-0.525-1.055-1.617-0.531-2.436L1231.095,75.74
			z"/>
		<path style="fill-rule:evenodd;clip-rule:evenodd;fill:#A2D500;" d="M1263.353,75.74c-0.524-0.819-1.613-1.057-2.43-0.532
			s-1.055,1.617-0.531,2.436l0.075,0.117c0.524,0.819,1.613,1.057,2.43,0.532c0.817-0.525,1.055-1.617,0.531-2.436L1263.353,75.74z"
			/>
		<path style="fill-rule:evenodd;clip-rule:evenodd;fill:#8FC300;" d="M1231.344,87.852c0.524-0.819,1.613-1.057,2.43-0.532
			c0.817,0.525,1.055,1.617,0.531,2.436l-2.097,3.276c-0.524,0.819-1.613,1.057-2.43,0.532c-0.817-0.525-1.055-1.617-0.531-2.436
			L1231.344,87.852z"/>
		<path style="fill-rule:evenodd;clip-rule:evenodd;fill:#C2ED00;" d="M1261.332,58.254c-0.524-0.819-1.613-1.057-2.43-0.532
			c-0.817,0.525-1.055,1.617-0.531,2.436l0.075,0.117c0.524,0.819,1.613,1.057,2.43,0.532c0.817-0.525,1.055-1.617,0.531-2.436
			L1261.332,58.254z"/>
		<path style="fill-rule:evenodd;clip-rule:evenodd;fill:#C2ED00;" d="M1239.855,65.592c0.159-0.96,1.065-1.61,2.023-1.451
			c0.958,0.159,1.606,1.068,1.448,2.028l-0.023,0.138c-0.159,0.96-1.065,1.61-2.023,1.451c-0.958-0.159-1.606-1.068-1.448-2.028
			L1239.855,65.592z"/>
		<path style="fill-rule:evenodd;clip-rule:evenodd;fill:#C2ED00;" d="M1254.82,65.574c-0.159-0.96-1.065-1.61-2.023-1.451
			c-0.958,0.159-1.606,1.068-1.448,2.028l0.023,0.138c0.159,0.96,1.065,1.61,2.023,1.451c0.958-0.159,1.606-1.068,1.448-2.028
			L1254.82,65.574z"/>
	</g>
	<g>
		<g>
			<defs>
				<path id="SVGID_00000129190258550387691100000000700171265522211995_" d="M538.45,150.095c-1.078-1.701-2.95-2.731-4.961-2.731
					c-2.011,0-3.882,1.03-4.961,2.731c-5.876,9.267-14.876,23.461-14.876,23.461c0,8.058,8.889,14.6,19.837,14.6
					c10.948,0,19.837-6.542,19.837-14.6C553.326,173.557,544.326,159.362,538.45,150.095z"/>
			</defs>
			<clipPath id="SVGID_00000034082188572874706670000010265684952693600168_">
				<use xlink:href="#SVGID_00000129190258550387691100000000700171265522211995_"  style="overflow:visible;"/>
			</clipPath>
			
				<path style="clip-path:url(#SVGID_00000034082188572874706670000010265684952693600168_);fill-rule:evenodd;clip-rule:evenodd;fill:#5AAA00;" d="
				M537.573,136.967c-1.117-1.351-2.775-2.132-4.525-2.132c-1.75,0-3.409,0.781-4.526,2.131
				c-5.853,7.086-15.311,19.533-15.311,26.013c0,8.058,8.889,14.6,19.837,14.6c10.948,0,19.837-6.542,19.837-14.6
				C552.886,156.498,543.428,144.051,537.573,136.967z"/>
		</g>
		<path style="fill-rule:evenodd;clip-rule:evenodd;fill:#A2D500;" d="M537.987,143.789c-1.083-1.68-2.942-2.695-4.938-2.695
			c-1.996,0-3.855,1.015-4.938,2.695c-4.913,7.625-11.724,18.196-11.724,18.196c0,6.66,7.466,12.068,16.661,12.068
			c9.196,0,16.661-5.408,16.661-12.068C549.71,161.985,542.899,151.414,537.987,143.789z"/>
		<g>
			<defs>
				<path id="SVGID_00000075867034207153332400000005949424512476391322_" d="M537.987,143.789c-1.083-1.68-2.942-2.695-4.938-2.695
					c-1.996,0-3.855,1.015-4.938,2.695c-4.913,7.625-11.724,18.196-11.724,18.196c0,6.66,7.466,12.068,16.661,12.068
					c9.196,0,16.661-5.408,16.661-12.068C549.71,161.985,542.899,151.414,537.987,143.789z"/>
			</defs>
			<clipPath id="SVGID_00000152261905979428915520000003317821874135633552_">
				<use xlink:href="#SVGID_00000075867034207153332400000005949424512476391322_"  style="overflow:visible;"/>
			</clipPath>
			
				<path style="clip-path:url(#SVGID_00000152261905979428915520000003317821874135633552_);fill-rule:evenodd;clip-rule:evenodd;fill:#8FC300;" d="
				M537.569,129.006c-1.117-1.347-2.773-2.126-4.52-2.126c-1.747,0-3.404,0.779-4.52,2.126
				c-4.934,5.958-12.141,15.535-12.141,20.638c0,6.66,7.466,12.068,16.661,12.068c9.196,0,16.661-5.408,16.661-12.068
				C549.71,144.542,542.503,134.965,537.569,129.006z"/>
		</g>
		<path style="fill-rule:evenodd;clip-rule:evenodd;fill:#A2D500;" d="M536.206,134.018c-0.605-0.911-1.625-1.458-2.716-1.458
			c-1.092,0-2.111,0.547-2.716,1.458c-3.758,5.655-10.085,15.177-10.085,15.177c0,2.893,1.95,5.468,4.976,7.113
			c2.164,1.176,4.879,1.877,7.825,1.877c7.065,0,12.801-4.029,12.801-8.99C546.29,149.196,539.963,139.674,536.206,134.018z"/>
		<g>
			<defs>
				<path id="SVGID_00000014625159776575241510000012112890358643572629_" d="M536.206,134.018
					c-0.605-0.911-1.625-1.458-2.716-1.458c-1.092,0-2.111,0.547-2.716,1.458c-3.758,5.655-10.085,15.177-10.085,15.177
					c0,2.893,1.95,5.468,4.976,7.113c2.164,1.176,4.879,1.877,7.825,1.877c7.065,0,12.801-4.029,12.801-8.99
					C546.29,149.196,539.963,139.674,536.206,134.018z"/>
			</defs>
			<clipPath id="SVGID_00000045620177651719961850000002588900219322361008_">
				<use xlink:href="#SVGID_00000014625159776575241510000012112890358643572629_"  style="overflow:visible;"/>
			</clipPath>
			
				<path style="clip-path:url(#SVGID_00000045620177651719961850000002588900219322361008_);fill-rule:evenodd;clip-rule:evenodd;fill:#C2ED00;" d="
				M544.531,141.088c0-6.131-4.967-11.109-11.084-11.109h-0.256c-6.118,0-11.084,4.978-11.084,11.109v0.47
				c0,6.131,4.967,11.109,11.084,11.109h0.256c6.117,0,11.084-4.978,11.084-11.109V141.088z"/>
			
				<path style="clip-path:url(#SVGID_00000045620177651719961850000002588900219322361008_);fill-rule:evenodd;clip-rule:evenodd;fill:#A2D500;" d="
				M534.054,141.031c0.261-0.937-0.286-1.91-1.221-2.172c-0.935-0.262-1.906,0.286-2.167,1.223l-0.141,0.507
				c-0.261,0.937,0.286,1.91,1.221,2.172c0.935,0.262,1.906-0.286,2.167-1.223L534.054,141.031z"/>
			
				<path style="clip-path:url(#SVGID_00000045620177651719961850000002588900219322361008_);fill-rule:evenodd;clip-rule:evenodd;fill:#A2D500;" d="
				M528.908,144.923c0.416-0.879,0.042-1.931-0.835-2.348c-0.877-0.417-1.927-0.042-2.343,0.837l-0.754,1.593
				c-0.416,0.879-0.042,1.931,0.835,2.348c0.877,0.417,1.927,0.042,2.343-0.837L528.908,144.923z"/>
			
				<path style="clip-path:url(#SVGID_00000045620177651719961850000002588900219322361008_);fill-rule:evenodd;clip-rule:evenodd;fill:#A2D500;" d="
				M540.333,141.672c-0.488-0.841-1.566-1.127-2.405-0.638c-0.839,0.489-1.124,1.569-0.636,2.41l0.884,1.524
				c0.488,0.841,1.566,1.127,2.405,0.638c0.839-0.489,1.124-1.569,0.636-2.41L540.333,141.672z"/>
		</g>
	</g>
	<g>
		<path style="fill-rule:evenodd;clip-rule:evenodd;fill:#374315;" d="M495.591,103.397h-7.036c0,0,0,12.97,0,19.396
			c0,1.945,1.574,3.523,3.515,3.523c0.002,0,0.004,0,0.007,0c1.941,0,3.515-1.577,3.515-3.523
			C495.591,116.367,495.591,103.397,495.591,103.397z"/>
		<path style="fill-rule:evenodd;clip-rule:evenodd;fill:#8FC300;" d="M509.63,102.319c-0.523-0.82-1.611-1.058-2.429-0.533
			s-1.056,1.617-0.532,2.437l3.764,5.896c0.523,0.82,1.611,1.058,2.429,0.533s1.056-1.617,0.532-2.437L509.63,102.319z"/>
		<path style="fill-rule:evenodd;clip-rule:evenodd;fill:#8FC300;" d="M496.546,81.682c-1.078-1.701-2.95-2.731-4.961-2.731
			s-3.882,1.03-4.961,2.731c-5.876,9.267-14.876,23.461-14.876,23.461c0,8.058,8.889,14.6,19.837,14.6s19.837-6.542,19.837-14.6
			C511.422,105.143,502.422,90.948,496.546,81.682z"/>
		<g>
			<defs>
				<path id="SVGID_00000134224125759899885250000016807896225956322721_" d="M496.546,81.682c-1.078-1.701-2.95-2.731-4.961-2.731
					s-3.882,1.03-4.961,2.731c-5.876,9.267-14.876,23.461-14.876,23.461c0,8.058,8.889,14.6,19.837,14.6s19.837-6.542,19.837-14.6
					C511.422,105.143,502.422,90.948,496.546,81.682z"/>
			</defs>
			<clipPath id="SVGID_00000143605264864953426000000000039857754542301621_">
				<use xlink:href="#SVGID_00000134224125759899885250000016807896225956322721_"  style="overflow:visible;"/>
			</clipPath>
			
				<path style="clip-path:url(#SVGID_00000143605264864953426000000000039857754542301621_);fill-rule:evenodd;clip-rule:evenodd;fill:#5AAA00;" d="
				M495.669,68.553c-1.117-1.351-2.775-2.132-4.525-2.132c-1.75,0-3.409,0.781-4.526,2.131
				c-5.853,7.086-15.311,19.533-15.311,26.013c0,8.058,8.889,14.6,19.837,14.6s19.837-6.542,19.837-14.6
				C510.981,88.085,501.524,75.638,495.669,68.553z"/>
		</g>
		<path style="fill-rule:evenodd;clip-rule:evenodd;fill:#8FC300;" d="M484.788,116.379c0.104-0.967,0.972-1.668,1.937-1.564
			c0.965,0.104,1.665,0.974,1.561,1.942l-0.323,3.01c-0.104,0.967-0.972,1.668-1.937,1.564s-1.664-0.974-1.561-1.942
			L484.788,116.379z"/>
		<path style="fill-rule:evenodd;clip-rule:evenodd;fill:#8FC300;" d="M472.854,103.404c0.524-0.819,1.613-1.057,2.43-0.532
			c0.817,0.525,1.055,1.617,0.531,2.436l-3.142,4.909c-0.524,0.819-1.613,1.057-2.43,0.532c-0.817-0.525-1.055-1.617-0.531-2.436
			L472.854,103.404z"/>
		<path style="fill-rule:evenodd;clip-rule:evenodd;fill:#5AAA00;" d="M492.904,109.165c0-0.973-0.788-1.763-1.759-1.763
			c-0.971,0-1.759,0.79-1.759,1.763v1.763c0,0.973,0.788,1.763,1.759,1.763c0.971,0,1.759-0.79,1.759-1.763V109.165z"/>
		<path style="fill-rule:evenodd;clip-rule:evenodd;fill:#5AAA00;" d="M498.987,112.481c-0.119-0.966-0.998-1.653-1.962-1.533
			c-0.963,0.12-1.649,1.001-1.529,1.966l0.216,1.75c0.119,0.966,0.999,1.653,1.962,1.533c0.964-0.12,1.649-1.001,1.529-1.966
			L498.987,112.481z"/>
		<path style="fill-rule:evenodd;clip-rule:evenodd;fill:#5AAA00;" d="M483.426,112.481c0.12-0.966,0.999-1.653,1.962-1.533
			c0.964,0.12,1.649,1.001,1.529,1.966l-0.216,1.75c-0.119,0.966-0.999,1.653-1.962,1.533c-0.963-0.12-1.649-1.001-1.529-1.966
			L483.426,112.481z"/>
		<path style="fill-rule:evenodd;clip-rule:evenodd;fill:#5AAA00;" d="M503.59,105.479c-0.292-0.928-1.28-1.444-2.206-1.152
			c-0.926,0.293-1.441,1.283-1.149,2.211l0.741,2.356c0.292,0.928,1.28,1.444,2.206,1.152c0.926-0.292,1.441-1.283,1.149-2.211
			L503.59,105.479z"/>
		<path style="fill-rule:evenodd;clip-rule:evenodd;fill:#5AAA00;" d="M479.841,106.279c0.292-0.928,1.28-1.444,2.206-1.152
			c0.926,0.292,1.441,1.283,1.149,2.211l-0.741,2.356c-0.292,0.928-1.28,1.444-2.206,1.152c-0.926-0.293-1.441-1.283-1.149-2.211
			L479.841,106.279z"/>
		<path style="fill-rule:evenodd;clip-rule:evenodd;fill:#5AAA00;" d="M507.933,102.16c-0.485-0.843-1.562-1.132-2.403-0.645
			c-0.841,0.486-1.129,1.566-0.644,2.408l1.591,2.762c0.486,0.843,1.562,1.132,2.403,0.645c0.841-0.487,1.129-1.566,0.644-2.408
			L507.933,102.16z"/>
		<path style="fill-rule:evenodd;clip-rule:evenodd;fill:#5AAA00;" d="M475.515,102.065c0.485-0.843,1.562-1.132,2.403-0.645
			c0.841,0.486,1.129,1.566,0.644,2.408l-1.591,2.762c-0.486,0.843-1.562,1.132-2.403,0.645c-0.841-0.487-1.129-1.566-0.644-2.408
			L475.515,102.065z"/>
		<path style="fill-rule:evenodd;clip-rule:evenodd;fill:#A2D500;" d="M496.082,75.375c-1.083-1.68-2.942-2.695-4.938-2.695
			c-1.996,0-3.855,1.015-4.938,2.695c-4.913,7.625-11.724,18.196-11.724,18.196c0,6.66,7.466,12.068,16.661,12.068
			c9.196,0,16.661-5.408,16.661-12.068C507.806,93.571,500.995,83,496.082,75.375z"/>
		<g>
			<defs>
				<path id="SVGID_00000168796752087375285950000000454829558912186270_" d="M496.082,75.375c-1.083-1.68-2.942-2.695-4.938-2.695
					c-1.996,0-3.855,1.015-4.938,2.695c-4.913,7.625-11.724,18.196-11.724,18.196c0,6.66,7.466,12.068,16.661,12.068
					c9.196,0,16.661-5.408,16.661-12.068C507.806,93.571,500.995,83,496.082,75.375z"/>
			</defs>
			<clipPath id="SVGID_00000141453748055457189310000002329998585470921364_">
				<use xlink:href="#SVGID_00000168796752087375285950000000454829558912186270_"  style="overflow:visible;"/>
			</clipPath>
			
				<path style="clip-path:url(#SVGID_00000141453748055457189310000002329998585470921364_);fill-rule:evenodd;clip-rule:evenodd;fill:#8FC300;" d="
				M495.665,60.593c-1.117-1.347-2.773-2.126-4.52-2.126c-1.747,0-3.404,0.779-4.52,2.126c-4.934,5.958-12.141,15.535-12.141,20.638
				c0,6.66,7.466,12.068,16.661,12.068c9.196,0,16.661-5.408,16.661-12.068C507.806,76.128,500.599,66.551,495.665,60.593z"/>
			
				<path style="clip-path:url(#SVGID_00000141453748055457189310000002329998585470921364_);fill-rule:evenodd;clip-rule:evenodd;fill:#8FC300;" d="
				M482.163,91.89c0.485-0.843,0.197-1.922-0.644-2.408c-0.841-0.486-1.917-0.197-2.403,0.645l-1.759,3.053
				c-0.485,0.843-0.197,1.922,0.644,2.408c0.841,0.486,1.917,0.197,2.403-0.645L482.163,91.89z"/>
			
				<path style="clip-path:url(#SVGID_00000141453748055457189310000002329998585470921364_);fill-rule:evenodd;clip-rule:evenodd;fill:#8FC300;" d="
				M486.336,98.331c0.318-0.919-0.169-1.924-1.087-2.243c-0.917-0.318-1.92,0.17-2.238,1.089l-0.575,1.666
				c-0.318,0.92,0.169,1.924,1.087,2.243c0.917,0.318,1.92-0.17,2.238-1.089L486.336,98.331z"/>
			
				<path style="clip-path:url(#SVGID_00000141453748055457189310000002329998585470921364_);fill-rule:evenodd;clip-rule:evenodd;fill:#8FC300;" d="
				M493.832,96.824c0-0.973-0.788-1.763-1.759-1.763c-0.971,0-1.759,0.79-1.759,1.763v1.763c0,0.973,0.788,1.763,1.759,1.763
				c0.971,0,1.759-0.79,1.759-1.763V96.824z"/>
			
				<path style="clip-path:url(#SVGID_00000141453748055457189310000002329998585470921364_);fill-rule:evenodd;clip-rule:evenodd;fill:#8FC300;" d="
				M500.749,97.115c-0.352-0.907-1.372-1.357-2.277-1.004c-0.905,0.352-1.354,1.375-1.002,2.282l0.637,1.643
				c0.352,0.907,1.372,1.357,2.277,1.004c0.905-0.352,1.354-1.375,1.002-2.282L500.749,97.115z"/>
			
				<path style="clip-path:url(#SVGID_00000141453748055457189310000002329998585470921364_);fill-rule:evenodd;clip-rule:evenodd;fill:#8FC300;" d="
				M503.507,89.536c-0.486-0.843-1.562-1.132-2.403-0.645c-0.841,0.486-1.129,1.566-0.644,2.408l1.523,2.644
				c0.485,0.843,1.562,1.132,2.403,0.645c0.841-0.486,1.129-1.566,0.644-2.408L503.507,89.536z"/>
		</g>
		<path style="fill-rule:evenodd;clip-rule:evenodd;fill:#A2D500;" d="M494.302,65.605c-0.605-0.911-1.625-1.458-2.716-1.458
			s-2.111,0.547-2.716,1.458c-3.758,5.655-10.085,15.177-10.085,15.177c0,2.893,1.95,5.468,4.976,7.113
			c2.164,1.176,4.879,1.877,7.825,1.877c7.065,0,12.801-4.028,12.801-8.99C504.386,80.782,498.059,71.26,494.302,65.605z"/>
		<g>
			<defs>
				<path id="SVGID_00000003086873416671715190000011424795376880077720_" d="M494.302,65.605c-0.605-0.911-1.625-1.458-2.716-1.458
					s-2.111,0.547-2.716,1.458c-3.758,5.655-10.085,15.177-10.085,15.177c0,2.893,1.95,5.468,4.976,7.113
					c2.164,1.176,4.879,1.877,7.825,1.877c7.065,0,12.801-4.028,12.801-8.99C504.386,80.782,498.059,71.26,494.302,65.605z"/>
			</defs>
			<clipPath id="SVGID_00000017512059687382424940000001038130662571461040_">
				<use xlink:href="#SVGID_00000003086873416671715190000011424795376880077720_"  style="overflow:visible;"/>
			</clipPath>
			
				<path style="clip-path:url(#SVGID_00000017512059687382424940000001038130662571461040_);fill-rule:evenodd;clip-rule:evenodd;fill:#C2ED00;" d="
				M502.627,72.674c0-6.131-4.967-11.109-11.084-11.109h-0.256c-6.118,0-11.084,4.978-11.084,11.109v0.47
				c0,6.131,4.967,11.109,11.084,11.109h0.256c6.117,0,11.084-4.978,11.084-11.109V72.674z"/>
			
				<path style="clip-path:url(#SVGID_00000017512059687382424940000001038130662571461040_);fill-rule:evenodd;clip-rule:evenodd;fill:#A2D500;" d="
				M492.15,72.617c0.261-0.937-0.286-1.91-1.221-2.172c-0.935-0.262-1.906,0.286-2.167,1.223l-0.141,0.507
				c-0.261,0.937,0.286,1.91,1.221,2.172c0.935,0.262,1.906-0.286,2.167-1.223L492.15,72.617z"/>
			
				<path style="clip-path:url(#SVGID_00000017512059687382424940000001038130662571461040_);fill-rule:evenodd;clip-rule:evenodd;fill:#A2D500;" d="
				M487.004,76.509c0.416-0.879,0.042-1.931-0.835-2.348c-0.877-0.417-1.927-0.042-2.343,0.837l-0.754,1.593
				c-0.416,0.879-0.042,1.931,0.835,2.348c0.877,0.417,1.927,0.042,2.343-0.837L487.004,76.509z"/>
			
				<path style="clip-path:url(#SVGID_00000017512059687382424940000001038130662571461040_);fill-rule:evenodd;clip-rule:evenodd;fill:#A2D500;" d="
				M493.832,79.195c0-0.973-0.788-1.763-1.759-1.763c-0.971,0-1.759,0.79-1.759,1.763v1.763c0,0.973,0.788,1.763,1.759,1.763
				c0.971,0,1.759-0.79,1.759-1.763V79.195z"/>
			
				<path style="clip-path:url(#SVGID_00000017512059687382424940000001038130662571461040_);fill-rule:evenodd;clip-rule:evenodd;fill:#A2D500;" d="
				M498.429,73.258c-0.488-0.841-1.566-1.127-2.405-0.638c-0.839,0.489-1.124,1.569-0.636,2.41l0.884,1.524
				c0.488,0.841,1.566,1.127,2.405,0.638c0.839-0.489,1.124-1.569,0.636-2.41L498.429,73.258z"/>
		</g>
		<path style="fill-rule:evenodd;clip-rule:evenodd;fill:#C2ED00;" d="M489.386,89.633c0-0.973,0.788-1.763,1.759-1.763
			c0.971,0,1.759,0.79,1.759,1.763v0.14c0,0.973-0.788,1.763-1.759,1.763c-0.971,0-1.759-0.79-1.759-1.763V89.633z"/>
		<path style="fill-rule:evenodd;clip-rule:evenodd;fill:#C2ED00;" d="M480.041,85.339c0.365-0.902,1.392-1.336,2.291-0.97
			c0.9,0.366,1.333,1.395,0.968,2.297l-0.052,0.129c-0.365,0.902-1.392,1.336-2.292,0.97c-0.899-0.366-1.333-1.395-0.968-2.297
			L480.041,85.339z"/>
		<path style="fill-rule:evenodd;clip-rule:evenodd;fill:#C2ED00;" d="M502.822,85.321c-0.365-0.902-1.392-1.336-2.291-0.97
			c-0.9,0.366-1.333,1.395-0.968,2.297l0.052,0.129c0.365,0.902,1.392,1.336,2.292,0.97c0.899-0.366,1.333-1.395,0.968-2.297
			L502.822,85.321z"/>
		<path style="fill-rule:evenodd;clip-rule:evenodd;fill:#C2ED00;" d="M477.437,81.003c0.524-0.819,1.613-1.057,2.43-0.532
			c0.817,0.525,1.055,1.617,0.531,2.436l-0.075,0.117c-0.524,0.819-1.613,1.057-2.43,0.532c-0.817-0.525-1.055-1.617-0.531-2.436
			L477.437,81.003z"/>
		<path style="fill-rule:evenodd;clip-rule:evenodd;fill:#A6D320;" d="M473.078,93.992c0.524-0.819,1.613-1.057,2.43-0.532
			s1.055,1.617,0.531,2.436l-0.075,0.117c-0.524,0.819-1.613,1.057-2.43,0.532c-0.817-0.525-1.055-1.617-0.531-2.436L473.078,93.992
			z"/>
		<path style="fill-rule:evenodd;clip-rule:evenodd;fill:#A2D500;" d="M509.559,93.992c-0.524-0.819-1.613-1.057-2.43-0.532
			s-1.055,1.617-0.531,2.436l0.075,0.117c0.524,0.819,1.613,1.057,2.43,0.532s1.055-1.617,0.531-2.436L509.559,93.992z"/>
		<path style="fill-rule:evenodd;clip-rule:evenodd;fill:#A2D500;" d="M478.807,101.73c0.524-0.819,1.613-1.057,2.43-0.532
			s1.055,1.617,0.531,2.436l-0.075,0.117c-0.524,0.819-1.613,1.057-2.43,0.532s-1.055-1.617-0.531-2.436L478.807,101.73z"/>
		<path style="fill-rule:evenodd;clip-rule:evenodd;fill:#A2D500;" d="M503.83,101.73c-0.524-0.819-1.613-1.057-2.43-0.532
			s-1.055,1.617-0.531,2.436l0.075,0.117c0.524,0.819,1.613,1.057,2.43,0.532c0.817-0.525,1.055-1.617,0.531-2.436L503.83,101.73z"
			/>
		<path style="fill-rule:evenodd;clip-rule:evenodd;fill:#8FC300;" d="M508.294,110.613c-0.547-0.804-1.643-1.011-2.445-0.462
			c-0.802,0.549-1.008,1.646-0.461,2.45l1.386,2.035c0.547,0.803,1.643,1.011,2.444,0.462c0.802-0.549,1.008-1.646,0.461-2.45
			L508.294,110.613z"/>
		<path style="fill-rule:evenodd;clip-rule:evenodd;fill:#A2D500;" d="M482.721,104.077c0.286-0.93,1.272-1.452,2.199-1.165
			c0.928,0.287,1.448,1.275,1.162,2.204l-0.041,0.133c-0.286,0.93-1.272,1.452-2.199,1.165s-1.448-1.275-1.162-2.204
			L482.721,104.077z"/>
		<path style="fill-rule:evenodd;clip-rule:evenodd;fill:#A2D500;" d="M499.915,104.077c-0.286-0.93-1.272-1.452-2.199-1.165
			c-0.928,0.287-1.449,1.275-1.162,2.204l0.041,0.133c0.286,0.93,1.272,1.452,2.199,1.165c0.928-0.287,1.448-1.275,1.162-2.204
			L499.915,104.077z"/>
		<path style="fill-rule:evenodd;clip-rule:evenodd;fill:#8FC300;" d="M503.433,116.535c-0.286-0.93-1.272-1.452-2.199-1.165
			c-0.928,0.287-1.449,1.275-1.162,2.204l0.041,0.133c0.286,0.93,1.272,1.452,2.199,1.165c0.928-0.287,1.448-1.275,1.162-2.204
			L503.433,116.535z"/>
		<path style="fill-rule:evenodd;clip-rule:evenodd;fill:#8FC300;" d="M479.085,114.856c0.286-0.93,1.272-1.452,2.199-1.165
			c0.928,0.287,1.449,1.275,1.162,2.204l-0.7,2.274c-0.286,0.93-1.272,1.452-2.199,1.165c-0.928-0.287-1.449-1.275-1.162-2.204
			L479.085,114.856z"/>
		<path style="fill-rule:evenodd;clip-rule:evenodd;fill:#A2D500;" d="M487.305,105.768c0.104-0.967,0.972-1.668,1.937-1.564
			c0.965,0.104,1.664,0.974,1.561,1.942l-0.015,0.139c-0.104,0.967-0.972,1.668-1.937,1.564s-1.664-0.974-1.561-1.941
			L487.305,105.768z"/>
		<path style="fill-rule:evenodd;clip-rule:evenodd;fill:#A2D500;" d="M495.332,105.768c-0.104-0.967-0.972-1.668-1.937-1.564
			c-0.965,0.104-1.665,0.974-1.561,1.942l0.015,0.139c0.104,0.967,0.972,1.668,1.937,1.564c0.965-0.104,1.664-0.974,1.561-1.941
			L495.332,105.768z"/>
		<path style="fill-rule:evenodd;clip-rule:evenodd;fill:#8FC300;" d="M498.85,118.226c-0.104-0.967-0.972-1.668-1.937-1.564
			c-0.965,0.104-1.665,0.974-1.561,1.942l0.015,0.139c0.104,0.967,0.972,1.668,1.937,1.564c0.965-0.104,1.664-0.974,1.561-1.941
			L498.85,118.226z"/>
		<path style="fill-rule:evenodd;clip-rule:evenodd;fill:#A2D500;" d="M475.189,98.471c0.524-0.819,1.613-1.057,2.43-0.532
			s1.055,1.617,0.531,2.436l-0.075,0.117c-0.524,0.819-1.613,1.057-2.43,0.532c-0.817-0.525-1.055-1.617-0.531-2.436L475.189,98.471
			z"/>
		<path style="fill-rule:evenodd;clip-rule:evenodd;fill:#A2D500;" d="M507.447,98.471c-0.524-0.819-1.613-1.057-2.43-0.532
			s-1.055,1.617-0.531,2.436l0.075,0.117c0.524,0.819,1.613,1.057,2.43,0.532c0.817-0.525,1.055-1.617,0.531-2.436L507.447,98.471z"
			/>
		<path style="fill-rule:evenodd;clip-rule:evenodd;fill:#8FC300;" d="M475.438,110.583c0.524-0.819,1.613-1.057,2.43-0.532
			s1.055,1.617,0.531,2.436l-2.097,3.276c-0.524,0.819-1.613,1.057-2.43,0.532c-0.817-0.525-1.055-1.617-0.531-2.436
			L475.438,110.583z"/>
		<path style="fill-rule:evenodd;clip-rule:evenodd;fill:#C2ED00;" d="M505.426,80.985c-0.524-0.819-1.613-1.057-2.43-0.532
			c-0.817,0.525-1.055,1.617-0.531,2.436l0.075,0.117c0.524,0.819,1.613,1.057,2.43,0.532s1.055-1.617,0.531-2.436L505.426,80.985z"
			/>
		<path style="fill-rule:evenodd;clip-rule:evenodd;fill:#C2ED00;" d="M483.949,88.323c0.159-0.96,1.065-1.61,2.023-1.451
			c0.958,0.159,1.606,1.068,1.448,2.028l-0.023,0.138c-0.159,0.96-1.065,1.61-2.023,1.451c-0.958-0.159-1.606-1.068-1.448-2.028
			L483.949,88.323z"/>
		<path style="fill-rule:evenodd;clip-rule:evenodd;fill:#C2ED00;" d="M498.914,88.306c-0.159-0.96-1.065-1.61-2.023-1.451
			c-0.958,0.159-1.606,1.068-1.448,2.028l0.023,0.138c0.159,0.96,1.065,1.61,2.023,1.451c0.958-0.159,1.606-1.068,1.448-2.028
			L498.914,88.306z"/>
	</g>
	<g style="opacity:0.3308;">
		<g>
			<path style="fill:#00703A;" d="M871.396,55.993c-0.87,0-1.575-0.706-1.575-1.579V49.47c0-0.873,0.705-1.579,1.575-1.579
				s1.575,0.706,1.575,1.579v4.944C872.971,55.287,872.266,55.993,871.396,55.993z"/>
		</g>
		<g>
			<path style="fill:#00703A;" d="M877.973,55.993c-0.87,0-1.575-0.706-1.575-1.579v-3.295c0-0.873,0.705-1.579,1.575-1.579
				c0.87,0,1.575,0.706,1.575,1.579v3.295C879.548,55.287,878.843,55.993,877.973,55.993z"/>
		</g>
		<g>
			<path style="fill:#00703A;" d="M865.366,55.993c-0.87,0-1.575-0.706-1.575-1.579v-3.295c0-0.873,0.705-1.579,1.575-1.579
				s1.575,0.706,1.575,1.579v3.295C866.942,55.287,866.236,55.993,865.366,55.993z"/>
		</g>
		<g>
			<path style="fill:#00703A;" d="M889.141,69.041c-0.87,0-1.575-0.706-1.575-1.579v-4.944c0-0.873,0.705-1.579,1.575-1.579
				s1.575,0.706,1.575,1.579v4.944C890.717,68.335,890.011,69.041,889.141,69.041z"/>
		</g>
		<g>
			<path style="fill:#00703A;" d="M895.718,69.041c-0.87,0-1.575-0.706-1.575-1.579v-3.297c0-0.873,0.705-1.579,1.575-1.579
				s1.575,0.706,1.575,1.579v3.297C897.294,68.335,896.588,69.041,895.718,69.041z"/>
		</g>
		<g>
			<path style="fill:#00703A;" d="M883.113,69.041c-0.87,0-1.575-0.706-1.575-1.579v-3.297c0-0.873,0.705-1.579,1.575-1.579
				c0.87,0,1.575,0.706,1.575,1.579v3.297C884.688,68.335,883.983,69.041,883.113,69.041z"/>
		</g>
		<g>
			<path style="fill:#00703A;" d="M895.237,41.709c-0.87,0-1.575-0.706-1.575-1.579v-4.944c0-0.873,0.705-1.579,1.575-1.579
				s1.575,0.706,1.575,1.579v4.944C896.813,41.003,896.107,41.709,895.237,41.709z"/>
		</g>
		<g>
			<path style="fill:#00703A;" d="M901.815,41.709c-0.87,0-1.575-0.706-1.575-1.579v-3.297c0-0.873,0.705-1.579,1.575-1.579
				s1.575,0.706,1.575,1.579v3.297C903.391,41.003,902.685,41.709,901.815,41.709z"/>
		</g>
		<g>
			<path style="fill:#00703A;" d="M889.209,41.709c-0.87,0-1.575-0.706-1.575-1.579v-3.297c0-0.873,0.705-1.579,1.575-1.579
				c0.87,0,1.575,0.706,1.575,1.579v3.297C890.784,41.003,890.079,41.709,889.209,41.709z"/>
		</g>
	</g>
	<g style="opacity:0.3308;">
		<g>
			<path style="fill:#009252;" d="M634.884,75.118c0.87,0,1.575-0.706,1.575-1.579v-4.944c0-0.873-0.705-1.579-1.575-1.579
				s-1.575,0.706-1.575,1.579v4.944C633.309,74.412,634.014,75.118,634.884,75.118z"/>
		</g>
		<g>
			<path style="fill:#009252;" d="M628.307,75.118c0.87,0,1.575-0.706,1.575-1.579v-3.295c0-0.873-0.705-1.579-1.575-1.579
				s-1.575,0.706-1.575,1.579v3.295C626.732,74.412,627.437,75.118,628.307,75.118z"/>
		</g>
		<g>
			<path style="fill:#009252;" d="M640.914,75.118c0.87,0,1.575-0.706,1.575-1.579v-3.295c0-0.873-0.705-1.579-1.575-1.579
				s-1.575,0.706-1.575,1.579v3.295C639.338,74.412,640.044,75.118,640.914,75.118z"/>
		</g>
		<g>
			<path style="fill:#009252;" d="M617.139,88.166c0.87,0,1.575-0.706,1.575-1.579v-4.944c0-0.873-0.705-1.579-1.575-1.579
				s-1.575,0.706-1.575,1.579v4.944C615.563,87.46,616.269,88.166,617.139,88.166z"/>
		</g>
		<g>
			<path style="fill:#009252;" d="M610.562,88.166c0.87,0,1.575-0.706,1.575-1.579v-3.297c0-0.873-0.705-1.579-1.575-1.579
				s-1.575,0.706-1.575,1.579v3.297C608.986,87.46,609.692,88.166,610.562,88.166z"/>
		</g>
		<g>
			<path style="fill:#009252;" d="M623.167,88.166c0.87,0,1.575-0.706,1.575-1.579v-3.297c0-0.873-0.705-1.579-1.575-1.579
				c-0.87,0-1.575,0.706-1.575,1.579v3.297C621.592,87.46,622.297,88.166,623.167,88.166z"/>
		</g>
		<g>
			<path style="fill:#009252;" d="M611.042,60.835c0.87,0,1.575-0.706,1.575-1.579v-4.944c0-0.873-0.705-1.579-1.575-1.579
				s-1.575,0.706-1.575,1.579v4.944C609.467,60.128,610.172,60.835,611.042,60.835z"/>
		</g>
		<g>
			<path style="fill:#009252;" d="M604.465,60.835c0.87,0,1.575-0.706,1.575-1.579v-3.297c0-0.873-0.705-1.579-1.575-1.579
				s-1.575,0.706-1.575,1.579v3.297C602.889,60.128,603.595,60.835,604.465,60.835z"/>
		</g>
		<g>
			<path style="fill:#009252;" d="M617.071,60.835c0.87,0,1.575-0.706,1.575-1.579v-3.297c0-0.873-0.705-1.579-1.575-1.579
				c-0.87,0-1.575,0.706-1.575,1.579v3.297C615.496,60.128,616.201,60.835,617.071,60.835z"/>
		</g>
	</g>
	<g>
		<path style="fill-rule:evenodd;clip-rule:evenodd;fill:#EADE00;" d="M944.679,109.291c-0.922-0.121-1.654-0.777-1.835-1.644
			c-0.181-0.867,0.228-1.762,1.024-2.243c0.431-0.26,0.824-0.498,1.147-0.693c0.556-0.335,0.935-0.882,1.038-1.496
			c0.06-0.357,0.134-0.791,0.214-1.267c0.148-0.88,0.855-1.591,1.771-1.783s1.848,0.176,2.336,0.923
			c0.264,0.404,0.505,0.773,0.702,1.076c0.34,0.521,0.906,0.869,1.549,0.954c0.374,0.049,0.829,0.109,1.328,0.174
			c0.922,0.121,1.654,0.777,1.835,1.644c0.181,0.867-0.228,1.762-1.024,2.243c-0.431,0.26-0.824,0.498-1.147,0.693
			c-0.556,0.335-0.935,0.882-1.038,1.495c-0.06,0.357-0.133,0.792-0.214,1.268c-0.148,0.88-0.855,1.592-1.771,1.783
			c-0.916,0.192-1.848-0.177-2.336-0.923c-0.264-0.404-0.505-0.773-0.702-1.076c-0.34-0.521-0.906-0.869-1.549-0.954
			C945.633,109.416,945.178,109.356,944.679,109.291z"/>
		<path style="fill-rule:evenodd;clip-rule:evenodd;fill:#EAC100;" d="M958.456,116.706c-0.548,0.065-1.073-0.2-1.316-0.665
			s-0.152-1.031,0.227-1.419c0.323-0.33,0.619-0.633,0.843-0.862c0.265-0.271,0.394-0.635,0.355-0.998
			c-0.033-0.307-0.077-0.712-0.125-1.155c-0.056-0.52,0.235-1.026,0.729-1.267c0.494-0.242,1.088-0.168,1.487,0.184
			c0.34,0.3,0.651,0.574,0.887,0.782c0.279,0.246,0.659,0.361,1.041,0.315c0.323-0.039,0.751-0.09,1.217-0.145
			c0.548-0.065,1.073,0.2,1.316,0.665c0.243,0.465,0.152,1.031-0.227,1.419c-0.323,0.33-0.619,0.633-0.843,0.862
			c-0.265,0.271-0.394,0.635-0.355,0.998c0.033,0.307,0.077,0.712,0.125,1.155c0.056,0.52-0.235,1.026-0.729,1.267
			s-1.088,0.168-1.487-0.184c-0.34-0.3-0.651-0.574-0.887-0.782c-0.279-0.246-0.659-0.361-1.041-0.315
			C959.35,116.599,958.922,116.65,958.456,116.706z"/>
		<path style="fill-rule:evenodd;clip-rule:evenodd;fill:#EAC100;" d="M952.66,96.543c-0.472,0.056-0.924-0.172-1.134-0.572
			c-0.209-0.401-0.131-0.888,0.196-1.222c0.278-0.284,0.533-0.545,0.726-0.742c0.228-0.233,0.34-0.547,0.306-0.859
			c-0.029-0.264-0.066-0.613-0.108-0.995c-0.048-0.448,0.202-0.883,0.628-1.092c0.426-0.208,0.937-0.145,1.281,0.158
			c0.293,0.258,0.561,0.495,0.764,0.674c0.24,0.211,0.568,0.311,0.897,0.271c0.278-0.033,0.647-0.077,1.048-0.125
			c0.472-0.056,0.924,0.172,1.134,0.573c0.209,0.4,0.131,0.888-0.196,1.222c-0.278,0.284-0.533,0.545-0.726,0.742
			c-0.228,0.233-0.34,0.547-0.306,0.859c0.029,0.264,0.066,0.613,0.108,0.995c0.048,0.448-0.202,0.883-0.628,1.092
			s-0.937,0.145-1.281-0.158c-0.293-0.258-0.561-0.495-0.764-0.673c-0.24-0.212-0.568-0.311-0.897-0.271
			C953.43,96.451,953.061,96.495,952.66,96.543z"/>
	</g>
	<g>
		<g>
			<path style="fill-rule:evenodd;clip-rule:evenodd;fill:#DE4A66;stroke:#DE4A66;stroke-width:0.3122;stroke-miterlimit:10;" d="
				M1412.364,87.151c0-0.761-0.301-1.489-0.836-2.026c-0.537-0.539-1.263-0.841-2.021-0.841c-0.758,0-1.484,0.302-2.021,0.841
				c-0.535,0.537-0.836,1.265-0.836,2.026c0,0.604,0,1.257,0,1.911c0,2.639,2.132,4.777,4.763,4.777c0.57,0,0.953,0,0.953,0
				S1412.364,89.965,1412.364,87.151z"/>
			<path style="fill-rule:evenodd;clip-rule:evenodd;fill:#DE4A66;stroke:#DE4A66;stroke-width:0.3122;stroke-miterlimit:10;" d="
				M1423.795,83.329c0-0.761-0.301-1.489-0.836-2.026c-0.537-0.539-1.263-0.841-2.021-0.841c-0.758,0-1.484,0.302-2.021,0.841
				c-0.535,0.537-0.836,1.265-0.836,2.026c0,3.931,0,10.51,0,10.51h5.715C1423.795,93.839,1423.795,87.26,1423.795,83.329z"/>
			<path style="fill-rule:evenodd;clip-rule:evenodd;fill:#DE4A66;stroke:#DE4A66;stroke-width:0.3122;stroke-miterlimit:10;" d="
				M1418.08,83.329c0-0.761-0.301-1.489-0.836-2.026c-0.537-0.539-1.263-0.841-2.021-0.841c-0.758,0-1.484,0.302-2.021,0.841
				c-0.535,0.537-0.836,1.265-0.836,2.026c0,3.931,0,10.51,0,10.51h5.715C1418.08,93.839,1418.08,87.26,1418.08,83.329z"/>
			<path style="fill-rule:evenodd;clip-rule:evenodd;fill:#DE4A66;stroke:#DE4A66;stroke-width:0.3122;stroke-miterlimit:10;" d="
				M1429.51,87.151c0-0.761-0.301-1.489-0.836-2.026c-0.537-0.539-1.263-0.841-2.021-0.841c-0.758,0-1.484,0.302-2.021,0.841
				c-0.535,0.537-0.836,1.265-0.836,2.026c0,2.815,0,6.688,0,6.688s0.383,0,0.953,0c2.631,0,4.763-2.138,4.763-4.777
				C1429.51,88.408,1429.51,87.754,1429.51,87.151z"/>
		</g>
		<g>
			<path style="fill-rule:evenodd;clip-rule:evenodd;fill:#F7C800;" d="M1406.649,66.769c0-0.761-0.301-1.489-0.836-2.026
				c-0.537-0.539-1.263-0.841-2.021-0.841s-1.484,0.302-2.021,0.841c-0.535,0.537-0.836,1.265-0.836,2.026c0,0.604,0,1.257,0,1.911
				c0,2.639,2.132,4.777,4.763,4.777c0.57,0,0.953,0,0.953,0S1406.649,69.583,1406.649,66.769z"/>
			<path style="fill-rule:evenodd;clip-rule:evenodd;fill:#F7C800;" d="M1418.08,62.947c0-0.761-0.301-1.489-0.836-2.026
				c-0.537-0.539-1.263-0.841-2.021-0.841c-0.758,0-1.484,0.302-2.021,0.841c-0.535,0.537-0.836,1.265-0.836,2.026
				c0,3.931,0,10.51,0,10.51h5.715C1418.08,73.457,1418.08,66.878,1418.08,62.947z"/>
			<path style="fill-rule:evenodd;clip-rule:evenodd;fill:#F7C800;" d="M1412.364,62.947c0-0.761-0.301-1.489-0.836-2.026
				c-0.537-0.539-1.263-0.841-2.021-0.841c-0.758,0-1.484,0.302-2.021,0.841c-0.535,0.537-0.836,1.265-0.836,2.026
				c0,3.931,0,10.51,0,10.51h5.715C1412.364,73.457,1412.364,66.878,1412.364,62.947z"/>
			<path style="fill-rule:evenodd;clip-rule:evenodd;fill:#F7C800;" d="M1423.795,66.769c0-0.761-0.301-1.489-0.836-2.026
				c-0.537-0.539-1.263-0.841-2.021-0.841c-0.758,0-1.484,0.302-2.021,0.841c-0.535,0.537-0.836,1.265-0.836,2.026
				c0,2.815,0,6.688,0,6.688s0.383,0,0.953,0c2.631,0,4.763-2.138,4.763-4.777C1423.795,68.026,1423.795,67.373,1423.795,66.769z"/>
		</g>
	</g>
</g>
</svg>
