<?xml version="1.0" encoding="utf-8"?>
<!-- Generator: Adobe Illustrator 28.0.0, SVG Export Plug-In . SVG Version: 6.00 Build 0)  -->
<svg version="1.1" id="Details" xmlns="http://www.w3.org/2000/svg" xmlns:xlink="http://www.w3.org/1999/xlink" x="0px" y="0px"
	 width="1500px" height="310px" viewBox="0 0 1500 310" style="enable-background:new 0 0 1500 310;" xml:space="preserve">
<g>
	<defs>
		<rect id="SVGID_1_" width="1500" height="310"/>
	</defs>
	<clipPath id="SVGID_00000054971348289611777780000018366174852010166690_">
		<use xlink:href="#SVGID_1_"  style="overflow:visible;"/>
	</clipPath>
	<g style="clip-path:url(#SVGID_00000054971348289611777780000018366174852010166690_);">
		<path style="opacity:0.25;fill-rule:evenodd;clip-rule:evenodd;fill:#EBF3FF;" d="M0,310V78.673
			C0,36.945,33.948,2.996,75.677,2.996s75.677,33.949,75.677,75.677v55.314c16.603-14.413,38.194-22.948,61.297-22.948
			c46.929,0,85.892,34.759,92.492,79.885c11.053-7.625,24.405-12.037,38.603-12.037c24.952,0,46.894,13.614,58.732,33.802
			c8.868-6.631,19.862-10.466,31.679-10.466c10.144,0,19.683,2.828,27.793,7.827c10.377-24.331,34.538-41.431,62.617-41.431
			c21.384,0,40.67,9.821,53.204,25.536c9.57-9.486,22.742-15.268,37.207-15.268c8.631,0,16.885,2.087,24.199,5.856
			c8.644-29.916,36.28-51.857,68.942-51.857c16.678,0,32.446,5.903,44.929,15.937c12.562-36.812,47.489-63.358,88.5-63.358
			c22.797,0,44.349,8.275,61.052,22.677c10.908-23.049,34.393-39.032,61.54-39.032c28.058,0,52.204,17.073,62.594,41.376
			c8.114-5.007,17.664-7.842,27.817-7.842c5.922,0,11.698,0.983,17.13,2.842v-25.37c0-37.515,30.521-68.035,68.036-68.035
			c23.346,0,43.985,11.822,56.243,29.792c16.993-23.53,44.656-38.876,75.833-38.876c29.156,0,56.29,13.801,73.735,36.09
			c9.653-9.647,22.957-15.52,37.345-15.52c11.513,0,22.177,3.704,30.863,9.984C1424.449,13.598,1445.519,0,1469.705,0
			c23.554,0,44.151,12.894,55.104,31.996c3.74-1.467,7.808-2.272,12.062-2.272c18.267,0,33.129,14.862,33.129,33.129V310H0z"/>
		<path style="opacity:0.5;fill-rule:evenodd;clip-rule:evenodd;fill:#EBF3FF;" d="M-15,310V131.749
			c0-42.526,34.597-77.124,77.123-77.124s77.124,34.598,77.124,77.124v56.371c16.92-14.688,38.923-23.387,62.468-23.387
			c47.826,0,87.533,35.423,94.26,81.411c11.265-7.771,24.871-12.267,39.341-12.267c25.429,0,47.79,13.874,59.854,34.448
			c9.037-6.758,20.241-10.666,32.284-10.666c10.338,0,20.06,2.882,28.324,7.977c10.575-24.796,35.198-42.223,63.813-42.223
			c21.793,0,41.447,10.008,54.221,26.023c9.753-9.667,23.177-15.56,37.918-15.56c8.796,0,17.208,2.127,24.661,5.968
			c8.81-30.488,36.974-52.848,70.26-52.848c16.997,0,33.066,6.016,45.787,16.241c12.802-37.516,48.396-64.569,90.191-64.569
			c23.232,0,45.196,8.433,62.219,23.11c11.116-23.489,35.05-39.778,62.716-39.778c28.594,0,53.201,17.399,63.79,42.166
			c8.269-5.103,18.002-7.992,28.349-7.992c6.035,0,11.922,1.001,17.457,2.896v-25.855c0-38.231,31.104-69.335,69.336-69.335
			c23.792,0,44.825,12.048,57.317,30.361c17.317-23.98,45.51-39.619,77.282-39.619c29.713,0,57.365,14.064,75.145,36.779
			c9.838-9.832,23.396-15.816,38.059-15.816c11.733,0,22.601,3.775,31.453,10.175c10.916-20.333,32.389-34.191,57.037-34.191
			c24.004,0,44.995,13.14,56.157,32.607c3.812-1.495,7.957-2.315,12.292-2.315c18.616,0,33.762,15.146,33.762,33.762V310H-15z"/>
		
			<linearGradient id="SVGID_00000053518059123233854310000000091636496697279674_" gradientUnits="userSpaceOnUse" x1="785" y1="308.2397" x2="785" y2="102.1259">
			<stop  offset="0" style="stop-color:#EBF3FF"/>
			<stop  offset="0.918" style="stop-color:#EBF3FF;stop-opacity:0.6"/>
		</linearGradient>
		<path style="fill-rule:evenodd;clip-rule:evenodd;fill:url(#SVGID_00000053518059123233854310000000091636496697279674_);" d="
			M0,310V131.749c0-34.31,27.813-62.123,62.123-62.123h0c34.31,0,62.123,27.814,62.123,62.123v107.243
			c9.235-34.137,40.41-59.259,77.469-59.259h0c44.329,0,80.264,35.936,80.264,80.264v32.847
			c4.842-25.047,26.874-43.967,53.335-43.967h0c29.861,0,54.087,24.091,54.324,53.897c3.947-17.245,19.373-30.114,37.814-30.114h0
			c18.424,0,33.838,12.845,37.803,30.066v-9.977c0-30.009,24.327-54.335,54.335-54.335c26.885,0,49.196,19.531,53.551,45.176
			c2.044-19.507,18.538-34.712,38.587-34.712c17.132,0,31.66,11.107,36.803,26.509v-15.272c0-32.097,26.02-58.117,58.117-58.117
			c26.348,0,48.587,17.538,55.714,41.574v-9.637c0-44.329,35.936-80.264,80.264-80.264h0c30.494,0,57.014,17.005,70.599,42.049
			v-4.382c0-30.009,24.327-54.335,54.335-54.335h0c30.009,0,54.335,24.327,54.335,54.335v9.905
			c3.965-17.221,19.379-30.066,37.803-30.066h0c13.581,0,25.525,6.982,32.458,17.547v-55.505c0-30.009,24.327-54.335,54.335-54.335
			s54.335,24.327,54.335,54.335v16.672c0-44.329,35.936-80.264,80.264-80.264c34.41,0,63.751,21.659,75.164,52.083
			c3.565-17.75,19.24-31.121,38.039-31.121h0c21.43,0,38.803,17.373,38.803,38.803v-13.132c0-27.441,22.246-49.687,49.687-49.687h0
			c27.441,0,49.687,22.246,49.687,49.687v-0.633c0-10.362,8.4-18.762,18.762-18.762s18.762,8.4,18.762,18.762V310H0z"/>
	</g>
</g>
</svg>
