<?xml version="1.0" encoding="utf-8"?>
<!-- Generator: Adobe Illustrator 27.8.1, SVG Export Plug-In . SVG Version: 6.00 Build 0)  -->
<svg version="1.1" xmlns="http://www.w3.org/2000/svg" xmlns:xlink="http://www.w3.org/1999/xlink" x="0px" y="0px" width="1500px"
	 height="145px" viewBox="0 0 1500 145" style="enable-background:new 0 0 1500 145;" xml:space="preserve">
<g id="background">
	<rect x="-80.448" y="-1306.777" style="fill:#04D5D8;" width="1640.647" height="4634.864"/>
	<path style="fill:#57E9E4;" d="M796.221,135.385c-41.651,0-84.385-27.125-101.61-64.497c-0.533-1.156-1.755-1.965-2.971-1.965
		H-42.403c-81.91,0-148.684-67.031-148.852-149.425c-0.099-49.104-40.131-89.054-89.239-89.054h158.279v-957.881h257.79
		c28.573,0,56.616,9.787,78.961,27.557c22.556,17.938,38.384,43.268,44.57,71.323c3.204,14.528,16.339,25.073,31.234,25.073h152.318
		c17.632,0,31.977-14.345,31.977-31.977v-7.461c0-93.816,76.325-170.141,170.141-170.141h188.858
		c93.815,0,170.141,76.325,170.141,170.141c0,21.746,17.691,39.438,39.438,39.438h107.816c29.888,0,58.881,10.673,81.637,30.053
		c22.736,19.364,37.892,46.267,42.676,75.756c1.474,9.081,6.199,17.445,13.308,23.553c7.14,6.134,16.239,9.513,25.621,9.513h257.685
		v827.976h-347.973c-14.935,0-29.001,5.855-39.61,16.487c-10.607,10.631-16.432,24.712-16.398,39.649
		c0.068,30.785-11.914,59.787-33.741,81.663c-22.018,22.065-51.313,34.218-82.491,34.218H796.221z"/>
	<path style="fill:#FFED9E;" d="M796.221,105.385c-30.031,0-62-20.229-74.365-47.055c-5.434-11.789-17.294-19.407-30.216-19.407
		H357.641c-65.402,0-118.718-53.601-118.852-119.485c-0.132-65.613-53.623-118.993-119.239-118.993H-92.214v-897.881h227.79
		c21.818,0,43.229,7.471,60.289,21.038c17.183,13.665,29.239,32.95,33.947,54.302c6.211,28.168,31.668,48.613,60.53,48.613h152.318
		c34.174,0,61.977-27.802,61.977-61.977v-7.461c0-77.274,62.867-140.141,140.141-140.141h188.858
		c77.273,0,140.141,62.867,140.141,140.141c0,38.288,31.149,69.438,69.438,69.438h107.816c22.767,0,44.852,8.13,62.186,22.893
		c17.322,14.753,28.869,35.252,32.515,57.721c2.604,16.051,10.902,30.79,23.368,41.502c12.578,10.808,28.621,16.76,45.173,16.76
		h227.685v767.976h-317.973c-22.96,0-44.569,8.984-60.847,25.297c-16.276,16.312-25.213,37.942-25.162,60.906
		c0.051,22.76-8.82,44.213-24.979,60.407c-16.348,16.384-38.102,25.407-61.254,25.407H796.221z"/>
	<path style="fill:#FFD479;" d="M796.221,75.385c-18.076,0-39.553-13.196-47.119-29.612c-10.016-21.73-32.006-36.85-57.461-36.85
		H357.641c-49.251,0-88.752-40.294-88.852-89.545c-0.166-82.151-67.05-148.933-149.239-148.933H-62.214v-837.881h197.789
		c31.082,0,58.247,21.448,64.94,51.8c9.09,41.22,45.913,72.153,89.826,72.153h152.318c50.797,0,91.977-41.179,91.977-91.977v-7.461
		c0-60.829,49.312-110.14,110.14-110.14h188.859c60.829,0,110.14,49.312,110.14,110.14v0c0,54.918,44.52,99.438,99.438,99.438
		h107.817c32.355,0,59.906,23.48,65.087,55.417c7.666,47.26,48.763,83.458,98.155,83.458h197.685v707.976h-287.973
		c-64.054,0-116.15,52.182-116.009,116.269c0.068,30.868-25.365,55.749-56.233,55.749H796.221z"/>
	<g>
		<defs>
			<path id="SVGID_00000018206064018784385880000006309873044215343490_" d="M1612.346-526.065h-216.64
				c-15.84,0-28.681,12.841-28.681,28.681v0c0,70.832-57.421,128.252-128.252,128.252h0c-20.413,0-36.961,16.548-36.961,36.961
				v31.534c0,20.413,16.548,36.961,36.961,36.961h369.664L1612.346-526.065z"/>
		</defs>
		<clipPath id="SVGID_00000178893031162707479860000001730501337969419415_">
			<use xlink:href="#SVGID_00000018206064018784385880000006309873044215343490_"  style="overflow:visible;"/>
		</clipPath>
		<g style="opacity:0.4;clip-path:url(#SVGID_00000178893031162707479860000001730501337969419415_);">
			<path style="fill:none;stroke:#97CEC8;stroke-width:1.5;stroke-linecap:round;stroke-linejoin:round;stroke-miterlimit:10;" d="
				M1332.679-4.32h16.599c1.073,0,1.943,0.87,1.943,1.943v6.383c0,1.073-0.87,1.943-1.943,1.943h-16.599
				c-1.073,0-1.943-0.87-1.943-1.943v-6.383C1330.736-3.45,1331.606-4.32,1332.679-4.32z"/>
			<path style="fill:none;stroke:#97CEC8;stroke-width:1.5;stroke-linecap:round;stroke-linejoin:round;stroke-miterlimit:10;" d="
				M1312.194-4.32h16.599c1.073,0,1.943,0.87,1.943,1.943v6.383c0,1.073-0.87,1.943-1.943,1.943h-16.599
				c-1.073,0-1.943-0.87-1.943-1.943v-6.383C1310.25-3.45,1311.12-4.32,1312.194-4.32z"/>
			<path style="fill:none;stroke:#97CEC8;stroke-width:1.5;stroke-linecap:round;stroke-linejoin:round;stroke-miterlimit:10;" d="
				M1291.687-4.32h16.599c1.073,0,1.943,0.87,1.943,1.943v6.383c0,1.073-0.87,1.943-1.943,1.943h-16.599
				c-1.073,0-1.943-0.87-1.943-1.943v-6.383C1289.744-3.45,1290.614-4.32,1291.687-4.32z"/>
			<path style="fill:none;stroke:#97CEC8;stroke-width:1.5;stroke-linecap:round;stroke-linejoin:round;stroke-miterlimit:10;" d="
				M1271.202-4.32h16.599c1.073,0,1.943,0.87,1.943,1.943v6.383c0,1.073-0.87,1.943-1.943,1.943h-16.599
				c-1.073,0-1.943-0.87-1.943-1.943v-6.383C1269.258-3.45,1270.128-4.32,1271.202-4.32z"/>
			<path style="fill:none;stroke:#97CEC8;stroke-width:1.5;stroke-linecap:round;stroke-linejoin:round;stroke-miterlimit:10;" d="
				M1250.713-4.32h16.599c1.073,0,1.943,0.87,1.943,1.943v6.383c0,1.073-0.87,1.943-1.943,1.943h-16.599
				c-1.073,0-1.943-0.87-1.943-1.943v-6.383C1248.769-3.45,1249.639-4.32,1250.713-4.32z"/>
			<path style="fill:none;stroke:#97CEC8;stroke-width:1.5;stroke-linecap:round;stroke-linejoin:round;stroke-miterlimit:10;" d="
				M1230.227-4.32h16.599c1.073,0,1.943,0.87,1.943,1.943v6.383c0,1.073-0.87,1.943-1.943,1.943h-16.599
				c-1.073,0-1.943-0.87-1.943-1.943v-6.383C1228.284-3.45,1229.154-4.32,1230.227-4.32z"/>
			<path style="fill:none;stroke:#97CEC8;stroke-width:1.5;stroke-linecap:round;stroke-linejoin:round;stroke-miterlimit:10;" d="
				M1209.72-4.32h16.599c1.073,0,1.943,0.87,1.943,1.943v6.383c0,1.073-0.87,1.943-1.943,1.943h-16.599
				c-1.073,0-1.943-0.87-1.943-1.943v-6.383C1207.777-3.45,1208.647-4.32,1209.72-4.32z"/>
			<path style="fill:none;stroke:#97CEC8;stroke-width:1.5;stroke-linecap:round;stroke-linejoin:round;stroke-miterlimit:10;" d="
				M1332.714-4.32h16.599c1.073,0,1.943,0.87,1.943,1.943v6.383c0,1.073-0.87,1.943-1.943,1.943h-16.599
				c-1.073,0-1.943-0.87-1.943-1.943v-6.383C1330.771-3.45,1331.641-4.32,1332.714-4.32z"/>
			<path style="fill:none;stroke:#97CEC8;stroke-width:1.5;stroke-linecap:round;stroke-linejoin:round;stroke-miterlimit:10;" d="
				M1496.599-4.32h16.599c1.073,0,1.943,0.87,1.943,1.943v6.383c0,1.073-0.87,1.943-1.943,1.943h-16.599
				c-1.073,0-1.943-0.87-1.943-1.943v-6.383C1494.656-3.45,1495.526-4.32,1496.599-4.32z"/>
			<path style="fill:none;stroke:#97CEC8;stroke-width:1.5;stroke-linecap:round;stroke-linejoin:round;stroke-miterlimit:10;" d="
				M1476.114-4.32h16.599c1.073,0,1.943,0.87,1.943,1.943v6.383c0,1.073-0.87,1.943-1.943,1.943h-16.599
				c-1.073,0-1.943-0.87-1.943-1.943v-6.383C1474.171-3.45,1475.041-4.32,1476.114-4.32z"/>
			<path style="fill:none;stroke:#97CEC8;stroke-width:1.5;stroke-linecap:round;stroke-linejoin:round;stroke-miterlimit:10;" d="
				M1455.625-4.32h16.599c1.073,0,1.943,0.87,1.943,1.943v6.383c0,1.073-0.87,1.943-1.943,1.943h-16.599
				c-1.073,0-1.943-0.87-1.943-1.943v-6.383C1453.682-3.45,1454.552-4.32,1455.625-4.32z"/>
			<path style="fill:none;stroke:#97CEC8;stroke-width:1.5;stroke-linecap:round;stroke-linejoin:round;stroke-miterlimit:10;" d="
				M1435.139-4.32h16.599c1.073,0,1.943,0.87,1.943,1.943v6.383c0,1.073-0.87,1.943-1.943,1.943h-16.599
				c-1.073,0-1.943-0.87-1.943-1.943v-6.383C1433.196-3.45,1434.066-4.32,1435.139-4.32z"/>
			<path style="fill:none;stroke:#97CEC8;stroke-width:1.5;stroke-linecap:round;stroke-linejoin:round;stroke-miterlimit:10;" d="
				M1414.633-4.32h16.599c1.073,0,1.943,0.87,1.943,1.943v6.383c0,1.073-0.87,1.943-1.943,1.943h-16.599
				c-1.073,0-1.943-0.87-1.943-1.943v-6.383C1412.689-3.45,1413.559-4.32,1414.633-4.32z"/>
			<path style="fill:none;stroke:#97CEC8;stroke-width:1.5;stroke-linecap:round;stroke-linejoin:round;stroke-miterlimit:10;" d="
				M1394.147-4.32h16.599c1.073,0,1.943,0.87,1.943,1.943v6.383c0,1.073-0.87,1.943-1.943,1.943h-16.599
				c-1.073,0-1.943-0.87-1.943-1.943v-6.383C1392.204-3.45,1393.074-4.32,1394.147-4.32z"/>
			<path style="fill:none;stroke:#97CEC8;stroke-width:1.5;stroke-linecap:round;stroke-linejoin:round;stroke-miterlimit:10;" d="
				M1373.686-4.32h16.599c1.073,0,1.943,0.87,1.943,1.943v6.383c0,1.073-0.87,1.943-1.943,1.943h-16.599
				c-1.073,0-1.943-0.87-1.943-1.943v-6.383C1371.742-3.45,1372.612-4.32,1373.686-4.32z"/>
			<path style="fill:none;stroke:#97CEC8;stroke-width:1.5;stroke-linecap:round;stroke-linejoin:round;stroke-miterlimit:10;" d="
				M1353.2-4.32h16.599c1.073,0,1.943,0.87,1.943,1.943v6.383c0,1.073-0.87,1.943-1.943,1.943H1353.2
				c-1.073,0-1.943-0.87-1.943-1.943v-6.383C1351.257-3.45,1352.127-4.32,1353.2-4.32z"/>
			<path style="fill:none;stroke:#97CEC8;stroke-width:1.5;stroke-linecap:round;stroke-linejoin:round;stroke-miterlimit:10;" d="
				M1332.679,139.571h16.599c1.073,0,1.943,0.87,1.943,1.943v6.383c0,1.073-0.87,1.943-1.943,1.943h-16.599
				c-1.073,0-1.943-0.87-1.943-1.943v-6.383C1330.736,140.441,1331.606,139.571,1332.679,139.571z"/>
			<path style="fill:none;stroke:#97CEC8;stroke-width:1.5;stroke-linecap:round;stroke-linejoin:round;stroke-miterlimit:10;" d="
				M1312.194,139.571h16.599c1.073,0,1.943,0.87,1.943,1.943v6.383c0,1.073-0.87,1.943-1.943,1.943h-16.599
				c-1.073,0-1.943-0.87-1.943-1.943v-6.383C1310.25,140.441,1311.12,139.571,1312.194,139.571z"/>
			<path style="fill:none;stroke:#97CEC8;stroke-width:1.5;stroke-linecap:round;stroke-linejoin:round;stroke-miterlimit:10;" d="
				M1291.687,139.571h16.599c1.073,0,1.943,0.87,1.943,1.943v6.383c0,1.073-0.87,1.943-1.943,1.943h-16.599
				c-1.073,0-1.943-0.87-1.943-1.943v-6.383C1289.744,140.441,1290.614,139.571,1291.687,139.571z"/>
			<path style="fill:none;stroke:#97CEC8;stroke-width:1.5;stroke-linecap:round;stroke-linejoin:round;stroke-miterlimit:10;" d="
				M1271.202,139.571h16.599c1.073,0,1.943,0.87,1.943,1.943v6.383c0,1.073-0.87,1.943-1.943,1.943h-16.599
				c-1.073,0-1.943-0.87-1.943-1.943v-6.383C1269.258,140.441,1270.128,139.571,1271.202,139.571z"/>
			<path style="fill:none;stroke:#97CEC8;stroke-width:1.5;stroke-linecap:round;stroke-linejoin:round;stroke-miterlimit:10;" d="
				M1250.713,139.571h16.599c1.073,0,1.943,0.87,1.943,1.943v6.383c0,1.073-0.87,1.943-1.943,1.943h-16.599
				c-1.073,0-1.943-0.87-1.943-1.943v-6.383C1248.769,140.441,1249.639,139.571,1250.713,139.571z"/>
			<path style="fill:none;stroke:#97CEC8;stroke-width:1.5;stroke-linecap:round;stroke-linejoin:round;stroke-miterlimit:10;" d="
				M1230.227,139.571h16.599c1.073,0,1.943,0.87,1.943,1.943v6.383c0,1.073-0.87,1.943-1.943,1.943h-16.599
				c-1.073,0-1.943-0.87-1.943-1.943v-6.383C1228.284,140.441,1229.154,139.571,1230.227,139.571z"/>
			<path style="fill:none;stroke:#97CEC8;stroke-width:1.5;stroke-linecap:round;stroke-linejoin:round;stroke-miterlimit:10;" d="
				M1209.72,139.571h16.599c1.073,0,1.943,0.87,1.943,1.943v6.383c0,1.073-0.87,1.943-1.943,1.943h-16.599
				c-1.073,0-1.943-0.87-1.943-1.943v-6.383C1207.777,140.441,1208.647,139.571,1209.72,139.571z"/>
			<path style="fill:none;stroke:#97CEC8;stroke-width:1.5;stroke-linecap:round;stroke-linejoin:round;stroke-miterlimit:10;" d="
				M1322.45,129.302h16.599c1.073,0,1.943,0.87,1.943,1.943v6.383c0,1.073-0.87,1.943-1.943,1.943h-16.599
				c-1.073,0-1.943-0.87-1.943-1.943v-6.383C1320.507,130.172,1321.377,129.302,1322.45,129.302z"/>
			<path style="fill:none;stroke:#97CEC8;stroke-width:1.5;stroke-linecap:round;stroke-linejoin:round;stroke-miterlimit:10;" d="
				M1301.965,129.302h16.599c1.073,0,1.943,0.87,1.943,1.943v6.383c0,1.073-0.87,1.943-1.943,1.943h-16.599
				c-1.073,0-1.943-0.87-1.943-1.943v-6.383C1300.021,130.172,1300.891,129.302,1301.965,129.302z"/>
			<path style="fill:none;stroke:#97CEC8;stroke-width:1.5;stroke-linecap:round;stroke-linejoin:round;stroke-miterlimit:10;" d="
				M1281.458,129.302h16.599c1.073,0,1.943,0.87,1.943,1.943v6.383c0,1.073-0.87,1.943-1.943,1.943h-16.599
				c-1.073,0-1.943-0.87-1.943-1.943v-6.383C1279.515,130.172,1280.385,129.302,1281.458,129.302z"/>
			<path style="fill:none;stroke:#97CEC8;stroke-width:1.5;stroke-linecap:round;stroke-linejoin:round;stroke-miterlimit:10;" d="
				M1260.973,129.302h16.599c1.073,0,1.943,0.87,1.943,1.943v6.383c0,1.073-0.87,1.943-1.943,1.943h-16.599
				c-1.073,0-1.943-0.87-1.943-1.943v-6.383C1259.029,130.172,1259.899,129.302,1260.973,129.302z"/>
			<path style="fill:none;stroke:#97CEC8;stroke-width:1.5;stroke-linecap:round;stroke-linejoin:round;stroke-miterlimit:10;" d="
				M1240.484,129.302h16.599c1.073,0,1.943,0.87,1.943,1.943v6.383c0,1.073-0.87,1.943-1.943,1.943h-16.599
				c-1.073,0-1.943-0.87-1.943-1.943v-6.383C1238.54,130.172,1239.41,129.302,1240.484,129.302z"/>
			<path style="fill:none;stroke:#97CEC8;stroke-width:1.5;stroke-linecap:round;stroke-linejoin:round;stroke-miterlimit:10;" d="
				M1219.998,129.302h16.599c1.073,0,1.943,0.87,1.943,1.943v6.383c0,1.073-0.87,1.943-1.943,1.943h-16.599
				c-1.073,0-1.943-0.87-1.943-1.943v-6.383C1218.055,130.172,1218.925,129.302,1219.998,129.302z"/>
			<path style="fill:none;stroke:#97CEC8;stroke-width:1.5;stroke-linecap:round;stroke-linejoin:round;stroke-miterlimit:10;" d="
				M1199.491,129.302h16.599c1.073,0,1.943,0.87,1.943,1.943v6.383c0,1.073-0.87,1.943-1.943,1.943h-16.599
				c-1.073,0-1.943-0.87-1.943-1.943v-6.383C1197.548,130.172,1198.418,129.302,1199.491,129.302z"/>
			<path style="fill:none;stroke:#97CEC8;stroke-width:1.5;stroke-linecap:round;stroke-linejoin:round;stroke-miterlimit:10;" d="
				M1332.679,119.032h16.599c1.073,0,1.943,0.87,1.943,1.943v6.383c0,1.073-0.87,1.943-1.943,1.943h-16.599
				c-1.073,0-1.943-0.87-1.943-1.943v-6.383C1330.736,119.902,1331.606,119.032,1332.679,119.032z"/>
			<path style="fill:none;stroke:#97CEC8;stroke-width:1.5;stroke-linecap:round;stroke-linejoin:round;stroke-miterlimit:10;" d="
				M1312.194,119.032h16.599c1.073,0,1.943,0.87,1.943,1.943v6.383c0,1.073-0.87,1.943-1.943,1.943h-16.599
				c-1.073,0-1.943-0.87-1.943-1.943v-6.383C1310.25,119.902,1311.12,119.032,1312.194,119.032z"/>
			<path style="fill:none;stroke:#97CEC8;stroke-width:1.5;stroke-linecap:round;stroke-linejoin:round;stroke-miterlimit:10;" d="
				M1291.687,119.032h16.599c1.073,0,1.943,0.87,1.943,1.943v6.383c0,1.073-0.87,1.943-1.943,1.943h-16.599
				c-1.073,0-1.943-0.87-1.943-1.943v-6.383C1289.744,119.902,1290.614,119.032,1291.687,119.032z"/>
			<path style="fill:none;stroke:#97CEC8;stroke-width:1.5;stroke-linecap:round;stroke-linejoin:round;stroke-miterlimit:10;" d="
				M1271.202,119.032h16.599c1.073,0,1.943,0.87,1.943,1.943v6.383c0,1.073-0.87,1.943-1.943,1.943h-16.599
				c-1.073,0-1.943-0.87-1.943-1.943v-6.383C1269.258,119.902,1270.128,119.032,1271.202,119.032z"/>
			<path style="fill:none;stroke:#97CEC8;stroke-width:1.5;stroke-linecap:round;stroke-linejoin:round;stroke-miterlimit:10;" d="
				M1250.713,119.032h16.599c1.073,0,1.943,0.87,1.943,1.943v6.383c0,1.073-0.87,1.943-1.943,1.943h-16.599
				c-1.073,0-1.943-0.87-1.943-1.943v-6.383C1248.769,119.902,1249.639,119.032,1250.713,119.032z"/>
			<path style="fill:none;stroke:#97CEC8;stroke-width:1.5;stroke-linecap:round;stroke-linejoin:round;stroke-miterlimit:10;" d="
				M1230.227,119.032h16.599c1.073,0,1.943,0.87,1.943,1.943v6.383c0,1.073-0.87,1.943-1.943,1.943h-16.599
				c-1.073,0-1.943-0.87-1.943-1.943v-6.383C1228.284,119.902,1229.154,119.032,1230.227,119.032z"/>
			<path style="fill:none;stroke:#97CEC8;stroke-width:1.5;stroke-linecap:round;stroke-linejoin:round;stroke-miterlimit:10;" d="
				M1209.72,119.032h16.599c1.073,0,1.943,0.87,1.943,1.943v6.383c0,1.073-0.87,1.943-1.943,1.943h-16.599
				c-1.073,0-1.943-0.87-1.943-1.943v-6.383C1207.777,119.902,1208.647,119.032,1209.72,119.032z"/>
			<path style="fill:none;stroke:#97CEC8;stroke-width:1.5;stroke-linecap:round;stroke-linejoin:round;stroke-miterlimit:10;" d="
				M1322.45,108.791h16.599c1.073,0,1.943,0.87,1.943,1.943v6.383c0,1.073-0.87,1.943-1.943,1.943h-16.599
				c-1.073,0-1.943-0.87-1.943-1.943v-6.383C1320.507,109.661,1321.377,108.791,1322.45,108.791z"/>
			<path style="fill:none;stroke:#97CEC8;stroke-width:1.5;stroke-linecap:round;stroke-linejoin:round;stroke-miterlimit:10;" d="
				M1301.965,108.791h16.599c1.073,0,1.943,0.87,1.943,1.943v6.383c0,1.073-0.87,1.943-1.943,1.943h-16.599
				c-1.073,0-1.943-0.87-1.943-1.943v-6.383C1300.021,109.661,1300.891,108.791,1301.965,108.791z"/>
			<path style="fill:none;stroke:#97CEC8;stroke-width:1.5;stroke-linecap:round;stroke-linejoin:round;stroke-miterlimit:10;" d="
				M1281.458,108.791h16.599c1.073,0,1.943,0.87,1.943,1.943v6.383c0,1.073-0.87,1.943-1.943,1.943h-16.599
				c-1.073,0-1.943-0.87-1.943-1.943v-6.383C1279.515,109.661,1280.385,108.791,1281.458,108.791z"/>
			<path style="fill:none;stroke:#97CEC8;stroke-width:1.5;stroke-linecap:round;stroke-linejoin:round;stroke-miterlimit:10;" d="
				M1260.973,108.791h16.599c1.073,0,1.943,0.87,1.943,1.943v6.383c0,1.073-0.87,1.943-1.943,1.943h-16.599
				c-1.073,0-1.943-0.87-1.943-1.943v-6.383C1259.029,109.661,1259.899,108.791,1260.973,108.791z"/>
			<path style="fill:none;stroke:#97CEC8;stroke-width:1.5;stroke-linecap:round;stroke-linejoin:round;stroke-miterlimit:10;" d="
				M1240.484,108.791h16.599c1.073,0,1.943,0.87,1.943,1.943v6.383c0,1.073-0.87,1.943-1.943,1.943h-16.599
				c-1.073,0-1.943-0.87-1.943-1.943v-6.383C1238.54,109.661,1239.41,108.791,1240.484,108.791z"/>
			<path style="fill:none;stroke:#97CEC8;stroke-width:1.5;stroke-linecap:round;stroke-linejoin:round;stroke-miterlimit:10;" d="
				M1219.998,108.791h16.599c1.073,0,1.943,0.87,1.943,1.943v6.383c0,1.073-0.87,1.943-1.943,1.943h-16.599
				c-1.073,0-1.943-0.87-1.943-1.943v-6.383C1218.055,109.661,1218.925,108.791,1219.998,108.791z"/>
			<path style="fill:none;stroke:#97CEC8;stroke-width:1.5;stroke-linecap:round;stroke-linejoin:round;stroke-miterlimit:10;" d="
				M1199.491,108.791h16.599c1.073,0,1.943,0.87,1.943,1.943v6.383c0,1.073-0.87,1.943-1.943,1.943h-16.599
				c-1.073,0-1.943-0.87-1.943-1.943v-6.383C1197.548,109.661,1198.418,108.791,1199.491,108.791z"/>
			<path style="fill:none;stroke:#97CEC8;stroke-width:1.5;stroke-linecap:round;stroke-linejoin:round;stroke-miterlimit:10;" d="
				M1332.679,98.521h16.599c1.073,0,1.943,0.87,1.943,1.943v6.383c0,1.073-0.87,1.943-1.943,1.943h-16.599
				c-1.073,0-1.943-0.87-1.943-1.943v-6.383C1330.736,99.391,1331.606,98.521,1332.679,98.521z"/>
			<path style="fill:none;stroke:#97CEC8;stroke-width:1.5;stroke-linecap:round;stroke-linejoin:round;stroke-miterlimit:10;" d="
				M1312.194,98.521h16.599c1.073,0,1.943,0.87,1.943,1.943v6.383c0,1.073-0.87,1.943-1.943,1.943h-16.599
				c-1.073,0-1.943-0.87-1.943-1.943v-6.383C1310.25,99.391,1311.12,98.521,1312.194,98.521z"/>
			<path style="fill:none;stroke:#97CEC8;stroke-width:1.5;stroke-linecap:round;stroke-linejoin:round;stroke-miterlimit:10;" d="
				M1291.687,98.521h16.599c1.073,0,1.943,0.87,1.943,1.943v6.383c0,1.073-0.87,1.943-1.943,1.943h-16.599
				c-1.073,0-1.943-0.87-1.943-1.943v-6.383C1289.744,99.391,1290.614,98.521,1291.687,98.521z"/>
			<path style="fill:none;stroke:#97CEC8;stroke-width:1.5;stroke-linecap:round;stroke-linejoin:round;stroke-miterlimit:10;" d="
				M1271.202,98.521h16.599c1.073,0,1.943,0.87,1.943,1.943v6.383c0,1.073-0.87,1.943-1.943,1.943h-16.599
				c-1.073,0-1.943-0.87-1.943-1.943v-6.383C1269.258,99.391,1270.128,98.521,1271.202,98.521z"/>
			<path style="fill:none;stroke:#97CEC8;stroke-width:1.5;stroke-linecap:round;stroke-linejoin:round;stroke-miterlimit:10;" d="
				M1250.713,98.521h16.599c1.073,0,1.943,0.87,1.943,1.943v6.383c0,1.073-0.87,1.943-1.943,1.943h-16.599
				c-1.073,0-1.943-0.87-1.943-1.943v-6.383C1248.769,99.391,1249.639,98.521,1250.713,98.521z"/>
			<path style="fill:none;stroke:#97CEC8;stroke-width:1.5;stroke-linecap:round;stroke-linejoin:round;stroke-miterlimit:10;" d="
				M1230.227,98.521h16.599c1.073,0,1.943,0.87,1.943,1.943v6.383c0,1.073-0.87,1.943-1.943,1.943h-16.599
				c-1.073,0-1.943-0.87-1.943-1.943v-6.383C1228.284,99.391,1229.154,98.521,1230.227,98.521z"/>
			<path style="fill:none;stroke:#97CEC8;stroke-width:1.5;stroke-linecap:round;stroke-linejoin:round;stroke-miterlimit:10;" d="
				M1209.72,98.521h16.599c1.073,0,1.943,0.87,1.943,1.943v6.383c0,1.073-0.87,1.943-1.943,1.943h-16.599
				c-1.073,0-1.943-0.87-1.943-1.943v-6.383C1207.777,99.391,1208.647,98.521,1209.72,98.521z"/>
			<path style="fill:none;stroke:#97CEC8;stroke-width:1.5;stroke-linecap:round;stroke-linejoin:round;stroke-miterlimit:10;" d="
				M1322.45,88.252h16.599c1.073,0,1.943,0.87,1.943,1.943v6.383c0,1.073-0.87,1.943-1.943,1.943h-16.599
				c-1.073,0-1.943-0.87-1.943-1.943v-6.383C1320.507,89.122,1321.377,88.252,1322.45,88.252z"/>
			<path style="fill:none;stroke:#97CEC8;stroke-width:1.5;stroke-linecap:round;stroke-linejoin:round;stroke-miterlimit:10;" d="
				M1301.965,88.252h16.599c1.073,0,1.943,0.87,1.943,1.943v6.383c0,1.073-0.87,1.943-1.943,1.943h-16.599
				c-1.073,0-1.943-0.87-1.943-1.943v-6.383C1300.021,89.122,1300.891,88.252,1301.965,88.252z"/>
			<path style="fill:none;stroke:#97CEC8;stroke-width:1.5;stroke-linecap:round;stroke-linejoin:round;stroke-miterlimit:10;" d="
				M1281.458,88.252h16.599c1.073,0,1.943,0.87,1.943,1.943v6.383c0,1.073-0.87,1.943-1.943,1.943h-16.599
				c-1.073,0-1.943-0.87-1.943-1.943v-6.383C1279.515,89.122,1280.385,88.252,1281.458,88.252z"/>
			<path style="fill:none;stroke:#97CEC8;stroke-width:1.5;stroke-linecap:round;stroke-linejoin:round;stroke-miterlimit:10;" d="
				M1260.973,88.252h16.599c1.073,0,1.943,0.87,1.943,1.943v6.383c0,1.073-0.87,1.943-1.943,1.943h-16.599
				c-1.073,0-1.943-0.87-1.943-1.943v-6.383C1259.029,89.122,1259.899,88.252,1260.973,88.252z"/>
			<path style="fill:none;stroke:#97CEC8;stroke-width:1.5;stroke-linecap:round;stroke-linejoin:round;stroke-miterlimit:10;" d="
				M1240.484,88.252h16.599c1.073,0,1.943,0.87,1.943,1.943v6.383c0,1.073-0.87,1.943-1.943,1.943h-16.599
				c-1.073,0-1.943-0.87-1.943-1.943v-6.383C1238.54,89.122,1239.41,88.252,1240.484,88.252z"/>
			<path style="fill:none;stroke:#97CEC8;stroke-width:1.5;stroke-linecap:round;stroke-linejoin:round;stroke-miterlimit:10;" d="
				M1219.998,88.252h16.599c1.073,0,1.943,0.87,1.943,1.943v6.383c0,1.073-0.87,1.943-1.943,1.943h-16.599
				c-1.073,0-1.943-0.87-1.943-1.943v-6.383C1218.055,89.122,1218.925,88.252,1219.998,88.252z"/>
			<path style="fill:none;stroke:#97CEC8;stroke-width:1.5;stroke-linecap:round;stroke-linejoin:round;stroke-miterlimit:10;" d="
				M1199.491,88.252h16.599c1.073,0,1.943,0.87,1.943,1.943v6.383c0,1.073-0.87,1.943-1.943,1.943h-16.599
				c-1.073,0-1.943-0.87-1.943-1.943v-6.383C1197.548,89.122,1198.418,88.252,1199.491,88.252z"/>
			<path style="fill:none;stroke:#97CEC8;stroke-width:1.5;stroke-linecap:round;stroke-linejoin:round;stroke-miterlimit:10;" d="
				M1332.679,77.982h16.599c1.073,0,1.943,0.87,1.943,1.943v6.383c0,1.073-0.87,1.943-1.943,1.943h-16.599
				c-1.073,0-1.943-0.87-1.943-1.943v-6.383C1330.736,78.852,1331.606,77.982,1332.679,77.982z"/>
			<path style="fill:none;stroke:#97CEC8;stroke-width:1.5;stroke-linecap:round;stroke-linejoin:round;stroke-miterlimit:10;" d="
				M1312.194,77.982h16.599c1.073,0,1.943,0.87,1.943,1.943v6.383c0,1.073-0.87,1.943-1.943,1.943h-16.599
				c-1.073,0-1.943-0.87-1.943-1.943v-6.383C1310.25,78.852,1311.12,77.982,1312.194,77.982z"/>
			<path style="fill:none;stroke:#97CEC8;stroke-width:1.5;stroke-linecap:round;stroke-linejoin:round;stroke-miterlimit:10;" d="
				M1291.687,77.982h16.599c1.073,0,1.943,0.87,1.943,1.943v6.383c0,1.073-0.87,1.943-1.943,1.943h-16.599
				c-1.073,0-1.943-0.87-1.943-1.943v-6.383C1289.744,78.852,1290.614,77.982,1291.687,77.982z"/>
			<path style="fill:none;stroke:#97CEC8;stroke-width:1.5;stroke-linecap:round;stroke-linejoin:round;stroke-miterlimit:10;" d="
				M1271.202,77.982h16.599c1.073,0,1.943,0.87,1.943,1.943v6.383c0,1.073-0.87,1.943-1.943,1.943h-16.599
				c-1.073,0-1.943-0.87-1.943-1.943v-6.383C1269.258,78.852,1270.128,77.982,1271.202,77.982z"/>
			<path style="fill:none;stroke:#97CEC8;stroke-width:1.5;stroke-linecap:round;stroke-linejoin:round;stroke-miterlimit:10;" d="
				M1250.713,77.982h16.599c1.073,0,1.943,0.87,1.943,1.943v6.383c0,1.073-0.87,1.943-1.943,1.943h-16.599
				c-1.073,0-1.943-0.87-1.943-1.943v-6.383C1248.769,78.852,1249.639,77.982,1250.713,77.982z"/>
			<path style="fill:none;stroke:#97CEC8;stroke-width:1.5;stroke-linecap:round;stroke-linejoin:round;stroke-miterlimit:10;" d="
				M1230.227,77.982h16.599c1.073,0,1.943,0.87,1.943,1.943v6.383c0,1.073-0.87,1.943-1.943,1.943h-16.599
				c-1.073,0-1.943-0.87-1.943-1.943v-6.383C1228.284,78.852,1229.154,77.982,1230.227,77.982z"/>
			<path style="fill:none;stroke:#97CEC8;stroke-width:1.5;stroke-linecap:round;stroke-linejoin:round;stroke-miterlimit:10;" d="
				M1209.72,77.982h16.599c1.073,0,1.943,0.87,1.943,1.943v6.383c0,1.073-0.87,1.943-1.943,1.943h-16.599
				c-1.073,0-1.943-0.87-1.943-1.943v-6.383C1207.777,78.852,1208.647,77.982,1209.72,77.982z"/>
			<path style="fill:none;stroke:#97CEC8;stroke-width:1.5;stroke-linecap:round;stroke-linejoin:round;stroke-miterlimit:10;" d="
				M1322.45,67.723h16.599c1.073,0,1.943,0.87,1.943,1.943v6.383c0,1.073-0.87,1.943-1.943,1.943h-16.599
				c-1.073,0-1.943-0.87-1.943-1.943v-6.383C1320.507,68.593,1321.377,67.723,1322.45,67.723z"/>
			<path style="fill:none;stroke:#97CEC8;stroke-width:1.5;stroke-linecap:round;stroke-linejoin:round;stroke-miterlimit:10;" d="
				M1301.965,67.723h16.599c1.073,0,1.943,0.87,1.943,1.943v6.383c0,1.073-0.87,1.943-1.943,1.943h-16.599
				c-1.073,0-1.943-0.87-1.943-1.943v-6.383C1300.021,68.593,1300.891,67.723,1301.965,67.723z"/>
			<path style="fill:none;stroke:#97CEC8;stroke-width:1.5;stroke-linecap:round;stroke-linejoin:round;stroke-miterlimit:10;" d="
				M1281.458,67.723h16.599c1.073,0,1.943,0.87,1.943,1.943v6.383c0,1.073-0.87,1.943-1.943,1.943h-16.599
				c-1.073,0-1.943-0.87-1.943-1.943v-6.383C1279.515,68.593,1280.385,67.723,1281.458,67.723z"/>
			<path style="fill:none;stroke:#97CEC8;stroke-width:1.5;stroke-linecap:round;stroke-linejoin:round;stroke-miterlimit:10;" d="
				M1260.973,67.723h16.599c1.073,0,1.943,0.87,1.943,1.943v6.383c0,1.073-0.87,1.943-1.943,1.943h-16.599
				c-1.073,0-1.943-0.87-1.943-1.943v-6.383C1259.029,68.593,1259.899,67.723,1260.973,67.723z"/>
			<path style="fill:none;stroke:#97CEC8;stroke-width:1.5;stroke-linecap:round;stroke-linejoin:round;stroke-miterlimit:10;" d="
				M1240.484,67.723h16.599c1.073,0,1.943,0.87,1.943,1.943v6.383c0,1.073-0.87,1.943-1.943,1.943h-16.599
				c-1.073,0-1.943-0.87-1.943-1.943v-6.383C1238.54,68.593,1239.41,67.723,1240.484,67.723z"/>
			<path style="fill:none;stroke:#97CEC8;stroke-width:1.5;stroke-linecap:round;stroke-linejoin:round;stroke-miterlimit:10;" d="
				M1219.998,67.723h16.599c1.073,0,1.943,0.87,1.943,1.943v6.383c0,1.073-0.87,1.943-1.943,1.943h-16.599
				c-1.073,0-1.943-0.87-1.943-1.943v-6.383C1218.055,68.593,1218.925,67.723,1219.998,67.723z"/>
			<path style="fill:none;stroke:#97CEC8;stroke-width:1.5;stroke-linecap:round;stroke-linejoin:round;stroke-miterlimit:10;" d="
				M1199.491,67.723h16.599c1.073,0,1.943,0.87,1.943,1.943v6.383c0,1.073-0.87,1.943-1.943,1.943h-16.599
				c-1.073,0-1.943-0.87-1.943-1.943v-6.383C1197.548,68.593,1198.418,67.723,1199.491,67.723z"/>
			<path style="fill:none;stroke:#97CEC8;stroke-width:1.5;stroke-linecap:round;stroke-linejoin:round;stroke-miterlimit:10;" d="
				M1332.679,57.454l16.599,0c1.073,0,1.943,0.87,1.943,1.943v6.383c0,1.073-0.87,1.943-1.943,1.943h-16.599
				c-1.073,0-1.943-0.87-1.943-1.943v-6.383C1330.736,58.324,1331.606,57.454,1332.679,57.454z"/>
			<path style="fill:none;stroke:#97CEC8;stroke-width:1.5;stroke-linecap:round;stroke-linejoin:round;stroke-miterlimit:10;" d="
				M1312.194,57.454l16.599,0c1.073,0,1.943,0.87,1.943,1.943v6.383c0,1.073-0.87,1.943-1.943,1.943h-16.599
				c-1.073,0-1.943-0.87-1.943-1.943v-6.383C1310.25,58.324,1311.12,57.454,1312.194,57.454z"/>
			<path style="fill:none;stroke:#97CEC8;stroke-width:1.5;stroke-linecap:round;stroke-linejoin:round;stroke-miterlimit:10;" d="
				M1291.687,57.454l16.599,0c1.073,0,1.943,0.87,1.943,1.943v6.383c0,1.073-0.87,1.943-1.943,1.943h-16.599
				c-1.073,0-1.943-0.87-1.943-1.943v-6.383C1289.744,58.324,1290.614,57.454,1291.687,57.454z"/>
			<path style="fill:none;stroke:#97CEC8;stroke-width:1.5;stroke-linecap:round;stroke-linejoin:round;stroke-miterlimit:10;" d="
				M1271.202,57.454l16.599,0c1.073,0,1.943,0.87,1.943,1.943v6.383c0,1.073-0.87,1.943-1.943,1.943h-16.599
				c-1.073,0-1.943-0.87-1.943-1.943v-6.383C1269.258,58.324,1270.128,57.454,1271.202,57.454z"/>
			<path style="fill:none;stroke:#97CEC8;stroke-width:1.5;stroke-linecap:round;stroke-linejoin:round;stroke-miterlimit:10;" d="
				M1250.713,57.454l16.599,0c1.073,0,1.943,0.87,1.943,1.943v6.383c0,1.073-0.87,1.943-1.943,1.943h-16.599
				c-1.073,0-1.943-0.87-1.943-1.943v-6.383C1248.769,58.324,1249.639,57.454,1250.713,57.454z"/>
			<path style="fill:none;stroke:#97CEC8;stroke-width:1.5;stroke-linecap:round;stroke-linejoin:round;stroke-miterlimit:10;" d="
				M1230.227,57.454l16.599,0c1.073,0,1.943,0.87,1.943,1.943v6.383c0,1.073-0.87,1.943-1.943,1.943h-16.599
				c-1.073,0-1.943-0.87-1.943-1.943v-6.383C1228.284,58.324,1229.154,57.454,1230.227,57.454z"/>
			<path style="fill:none;stroke:#97CEC8;stroke-width:1.5;stroke-linecap:round;stroke-linejoin:round;stroke-miterlimit:10;" d="
				M1209.72,57.454l16.599,0c1.073,0,1.943,0.87,1.943,1.943v6.383c0,1.073-0.87,1.943-1.943,1.943h-16.599
				c-1.073,0-1.943-0.87-1.943-1.943v-6.383C1207.777,58.324,1208.647,57.454,1209.72,57.454z"/>
			<path style="fill:none;stroke:#97CEC8;stroke-width:1.5;stroke-linecap:round;stroke-linejoin:round;stroke-miterlimit:10;" d="
				M1322.45,47.184h16.599c1.073,0,1.943,0.87,1.943,1.943v6.383c0,1.073-0.87,1.943-1.943,1.943h-16.599
				c-1.073,0-1.943-0.87-1.943-1.943v-6.383C1320.507,48.054,1321.377,47.184,1322.45,47.184z"/>
			<path style="fill:none;stroke:#97CEC8;stroke-width:1.5;stroke-linecap:round;stroke-linejoin:round;stroke-miterlimit:10;" d="
				M1301.965,47.184h16.599c1.073,0,1.943,0.87,1.943,1.943v6.383c0,1.073-0.87,1.943-1.943,1.943h-16.599
				c-1.073,0-1.943-0.87-1.943-1.943v-6.383C1300.021,48.054,1300.891,47.184,1301.965,47.184z"/>
			<path style="fill:none;stroke:#97CEC8;stroke-width:1.5;stroke-linecap:round;stroke-linejoin:round;stroke-miterlimit:10;" d="
				M1281.458,47.184h16.599c1.073,0,1.943,0.87,1.943,1.943v6.383c0,1.073-0.87,1.943-1.943,1.943h-16.599
				c-1.073,0-1.943-0.87-1.943-1.943v-6.383C1279.515,48.054,1280.385,47.184,1281.458,47.184z"/>
			<path style="fill:none;stroke:#97CEC8;stroke-width:1.5;stroke-linecap:round;stroke-linejoin:round;stroke-miterlimit:10;" d="
				M1260.973,47.184h16.599c1.073,0,1.943,0.87,1.943,1.943v6.383c0,1.073-0.87,1.943-1.943,1.943h-16.599
				c-1.073,0-1.943-0.87-1.943-1.943v-6.383C1259.029,48.054,1259.899,47.184,1260.973,47.184z"/>
			<path style="fill:none;stroke:#97CEC8;stroke-width:1.5;stroke-linecap:round;stroke-linejoin:round;stroke-miterlimit:10;" d="
				M1240.484,47.184h16.599c1.073,0,1.943,0.87,1.943,1.943v6.383c0,1.073-0.87,1.943-1.943,1.943h-16.599
				c-1.073,0-1.943-0.87-1.943-1.943v-6.383C1238.54,48.054,1239.41,47.184,1240.484,47.184z"/>
			<path style="fill:none;stroke:#97CEC8;stroke-width:1.5;stroke-linecap:round;stroke-linejoin:round;stroke-miterlimit:10;" d="
				M1219.998,47.184h16.599c1.073,0,1.943,0.87,1.943,1.943v6.383c0,1.073-0.87,1.943-1.943,1.943h-16.599
				c-1.073,0-1.943-0.87-1.943-1.943v-6.383C1218.055,48.054,1218.925,47.184,1219.998,47.184z"/>
			<path style="fill:none;stroke:#97CEC8;stroke-width:1.5;stroke-linecap:round;stroke-linejoin:round;stroke-miterlimit:10;" d="
				M1199.491,47.184h16.599c1.073,0,1.943,0.87,1.943,1.943v6.383c0,1.073-0.87,1.943-1.943,1.943h-16.599
				c-1.073,0-1.943-0.87-1.943-1.943v-6.383C1197.548,48.054,1198.418,47.184,1199.491,47.184z"/>
			<path style="fill:none;stroke:#97CEC8;stroke-width:1.5;stroke-linecap:round;stroke-linejoin:round;stroke-miterlimit:10;" d="
				M1332.679,36.915h16.599c1.073,0,1.943,0.87,1.943,1.943v6.383c0,1.073-0.87,1.943-1.943,1.943h-16.599
				c-1.073,0-1.943-0.87-1.943-1.943v-6.383C1330.736,37.785,1331.606,36.915,1332.679,36.915z"/>
			<path style="fill:none;stroke:#97CEC8;stroke-width:1.5;stroke-linecap:round;stroke-linejoin:round;stroke-miterlimit:10;" d="
				M1312.194,36.915h16.599c1.073,0,1.943,0.87,1.943,1.943v6.383c0,1.073-0.87,1.943-1.943,1.943h-16.599
				c-1.073,0-1.943-0.87-1.943-1.943v-6.383C1310.25,37.785,1311.12,36.915,1312.194,36.915z"/>
			<path style="fill:none;stroke:#97CEC8;stroke-width:1.5;stroke-linecap:round;stroke-linejoin:round;stroke-miterlimit:10;" d="
				M1291.687,36.915h16.599c1.073,0,1.943,0.87,1.943,1.943v6.383c0,1.073-0.87,1.943-1.943,1.943h-16.599
				c-1.073,0-1.943-0.87-1.943-1.943v-6.383C1289.744,37.785,1290.614,36.915,1291.687,36.915z"/>
			<path style="fill:none;stroke:#97CEC8;stroke-width:1.5;stroke-linecap:round;stroke-linejoin:round;stroke-miterlimit:10;" d="
				M1271.202,36.915h16.599c1.073,0,1.943,0.87,1.943,1.943v6.383c0,1.073-0.87,1.943-1.943,1.943h-16.599
				c-1.073,0-1.943-0.87-1.943-1.943v-6.383C1269.258,37.785,1270.128,36.915,1271.202,36.915z"/>
			<path style="fill:none;stroke:#97CEC8;stroke-width:1.5;stroke-linecap:round;stroke-linejoin:round;stroke-miterlimit:10;" d="
				M1250.713,36.915h16.599c1.073,0,1.943,0.87,1.943,1.943v6.383c0,1.073-0.87,1.943-1.943,1.943h-16.599
				c-1.073,0-1.943-0.87-1.943-1.943v-6.383C1248.769,37.785,1249.639,36.915,1250.713,36.915z"/>
			<path style="fill:none;stroke:#97CEC8;stroke-width:1.5;stroke-linecap:round;stroke-linejoin:round;stroke-miterlimit:10;" d="
				M1230.227,36.915h16.599c1.073,0,1.943,0.87,1.943,1.943v6.383c0,1.073-0.87,1.943-1.943,1.943h-16.599
				c-1.073,0-1.943-0.87-1.943-1.943v-6.383C1228.284,37.785,1229.154,36.915,1230.227,36.915z"/>
			<path style="fill:none;stroke:#97CEC8;stroke-width:1.5;stroke-linecap:round;stroke-linejoin:round;stroke-miterlimit:10;" d="
				M1209.72,36.915h16.599c1.073,0,1.943,0.87,1.943,1.943v6.383c0,1.073-0.87,1.943-1.943,1.943h-16.599
				c-1.073,0-1.943-0.87-1.943-1.943v-6.383C1207.777,37.785,1208.647,36.915,1209.72,36.915z"/>
			<path style="fill:none;stroke:#97CEC8;stroke-width:1.5;stroke-linecap:round;stroke-linejoin:round;stroke-miterlimit:10;" d="
				M1322.45,26.645h16.599c1.073,0,1.943,0.87,1.943,1.943v6.383c0,1.073-0.87,1.943-1.943,1.943h-16.599
				c-1.073,0-1.943-0.87-1.943-1.943v-6.383C1320.507,27.515,1321.377,26.645,1322.45,26.645z"/>
			<path style="fill:none;stroke:#97CEC8;stroke-width:1.5;stroke-linecap:round;stroke-linejoin:round;stroke-miterlimit:10;" d="
				M1301.965,26.645h16.599c1.073,0,1.943,0.87,1.943,1.943v6.383c0,1.073-0.87,1.943-1.943,1.943h-16.599
				c-1.073,0-1.943-0.87-1.943-1.943v-6.383C1300.021,27.515,1300.891,26.645,1301.965,26.645z"/>
			<path style="fill:none;stroke:#97CEC8;stroke-width:1.5;stroke-linecap:round;stroke-linejoin:round;stroke-miterlimit:10;" d="
				M1281.458,26.645h16.599c1.073,0,1.943,0.87,1.943,1.943v6.383c0,1.073-0.87,1.943-1.943,1.943h-16.599
				c-1.073,0-1.943-0.87-1.943-1.943v-6.383C1279.515,27.515,1280.385,26.645,1281.458,26.645z"/>
			<path style="fill:none;stroke:#97CEC8;stroke-width:1.5;stroke-linecap:round;stroke-linejoin:round;stroke-miterlimit:10;" d="
				M1260.973,26.645h16.599c1.073,0,1.943,0.87,1.943,1.943v6.383c0,1.073-0.87,1.943-1.943,1.943h-16.599
				c-1.073,0-1.943-0.87-1.943-1.943v-6.383C1259.029,27.515,1259.899,26.645,1260.973,26.645z"/>
			<path style="fill:none;stroke:#97CEC8;stroke-width:1.5;stroke-linecap:round;stroke-linejoin:round;stroke-miterlimit:10;" d="
				M1240.484,26.645h16.599c1.073,0,1.943,0.87,1.943,1.943v6.383c0,1.073-0.87,1.943-1.943,1.943h-16.599
				c-1.073,0-1.943-0.87-1.943-1.943v-6.383C1238.54,27.515,1239.41,26.645,1240.484,26.645z"/>
			<path style="fill:none;stroke:#97CEC8;stroke-width:1.5;stroke-linecap:round;stroke-linejoin:round;stroke-miterlimit:10;" d="
				M1219.998,26.645h16.599c1.073,0,1.943,0.87,1.943,1.943v6.383c0,1.073-0.87,1.943-1.943,1.943h-16.599
				c-1.073,0-1.943-0.87-1.943-1.943v-6.383C1218.055,27.515,1218.925,26.645,1219.998,26.645z"/>
			<path style="fill:none;stroke:#97CEC8;stroke-width:1.5;stroke-linecap:round;stroke-linejoin:round;stroke-miterlimit:10;" d="
				M1199.491,26.645h16.599c1.073,0,1.943,0.87,1.943,1.943v6.383c0,1.073-0.87,1.943-1.943,1.943h-16.599
				c-1.073,0-1.943-0.87-1.943-1.943v-6.383C1197.548,27.515,1198.418,26.645,1199.491,26.645z"/>
			<path style="fill:none;stroke:#97CEC8;stroke-width:1.5;stroke-linecap:round;stroke-linejoin:round;stroke-miterlimit:10;" d="
				M1332.679,16.376h16.599c1.073,0,1.943,0.87,1.943,1.943v6.383c0,1.073-0.87,1.943-1.943,1.943h-16.599
				c-1.073,0-1.943-0.87-1.943-1.943v-6.383C1330.736,17.246,1331.606,16.376,1332.679,16.376z"/>
			<path style="fill:none;stroke:#97CEC8;stroke-width:1.5;stroke-linecap:round;stroke-linejoin:round;stroke-miterlimit:10;" d="
				M1312.194,16.376h16.599c1.073,0,1.943,0.87,1.943,1.943v6.383c0,1.073-0.87,1.943-1.943,1.943h-16.599
				c-1.073,0-1.943-0.87-1.943-1.943v-6.383C1310.25,17.246,1311.12,16.376,1312.194,16.376z"/>
			<path style="fill:none;stroke:#97CEC8;stroke-width:1.5;stroke-linecap:round;stroke-linejoin:round;stroke-miterlimit:10;" d="
				M1291.687,16.376h16.599c1.073,0,1.943,0.87,1.943,1.943v6.383c0,1.073-0.87,1.943-1.943,1.943h-16.599
				c-1.073,0-1.943-0.87-1.943-1.943v-6.383C1289.744,17.246,1290.614,16.376,1291.687,16.376z"/>
			<path style="fill:none;stroke:#97CEC8;stroke-width:1.5;stroke-linecap:round;stroke-linejoin:round;stroke-miterlimit:10;" d="
				M1271.202,16.376h16.599c1.073,0,1.943,0.87,1.943,1.943v6.383c0,1.073-0.87,1.943-1.943,1.943h-16.599
				c-1.073,0-1.943-0.87-1.943-1.943v-6.383C1269.258,17.246,1270.128,16.376,1271.202,16.376z"/>
			<path style="fill:none;stroke:#97CEC8;stroke-width:1.5;stroke-linecap:round;stroke-linejoin:round;stroke-miterlimit:10;" d="
				M1250.713,16.376h16.599c1.073,0,1.943,0.87,1.943,1.943v6.383c0,1.073-0.87,1.943-1.943,1.943h-16.599
				c-1.073,0-1.943-0.87-1.943-1.943v-6.383C1248.769,17.246,1249.639,16.376,1250.713,16.376z"/>
			<path style="fill:none;stroke:#97CEC8;stroke-width:1.5;stroke-linecap:round;stroke-linejoin:round;stroke-miterlimit:10;" d="
				M1230.227,16.376h16.599c1.073,0,1.943,0.87,1.943,1.943v6.383c0,1.073-0.87,1.943-1.943,1.943h-16.599
				c-1.073,0-1.943-0.87-1.943-1.943v-6.383C1228.284,17.246,1229.154,16.376,1230.227,16.376z"/>
			<path style="fill:none;stroke:#97CEC8;stroke-width:1.5;stroke-linecap:round;stroke-linejoin:round;stroke-miterlimit:10;" d="
				M1209.72,16.376h16.599c1.073,0,1.943,0.87,1.943,1.943v6.383c0,1.073-0.87,1.943-1.943,1.943h-16.599
				c-1.073,0-1.943-0.87-1.943-1.943v-6.383C1207.777,17.246,1208.647,16.376,1209.72,16.376z"/>
			<path style="fill:none;stroke:#97CEC8;stroke-width:1.5;stroke-linecap:round;stroke-linejoin:round;stroke-miterlimit:10;" d="
				M1322.45,6.106h16.599c1.073,0,1.943,0.87,1.943,1.943v6.383c0,1.073-0.87,1.943-1.943,1.943h-16.599
				c-1.073,0-1.943-0.87-1.943-1.943V8.05C1320.507,6.976,1321.377,6.106,1322.45,6.106z"/>
			<path style="fill:none;stroke:#97CEC8;stroke-width:1.5;stroke-linecap:round;stroke-linejoin:round;stroke-miterlimit:10;" d="
				M1301.965,6.106h16.599c1.073,0,1.943,0.87,1.943,1.943v6.383c0,1.073-0.87,1.943-1.943,1.943h-16.599
				c-1.073,0-1.943-0.87-1.943-1.943V8.05C1300.021,6.976,1300.891,6.106,1301.965,6.106z"/>
			<path style="fill:none;stroke:#97CEC8;stroke-width:1.5;stroke-linecap:round;stroke-linejoin:round;stroke-miterlimit:10;" d="
				M1281.458,6.106h16.599c1.073,0,1.943,0.87,1.943,1.943v6.383c0,1.073-0.87,1.943-1.943,1.943h-16.599
				c-1.073,0-1.943-0.87-1.943-1.943V8.05C1279.515,6.976,1280.385,6.106,1281.458,6.106z"/>
			<path style="fill:none;stroke:#97CEC8;stroke-width:1.5;stroke-linecap:round;stroke-linejoin:round;stroke-miterlimit:10;" d="
				M1260.973,6.106h16.599c1.073,0,1.943,0.87,1.943,1.943v6.383c0,1.073-0.87,1.943-1.943,1.943h-16.599
				c-1.073,0-1.943-0.87-1.943-1.943V8.05C1259.029,6.976,1259.899,6.106,1260.973,6.106z"/>
			<path style="fill:none;stroke:#97CEC8;stroke-width:1.5;stroke-linecap:round;stroke-linejoin:round;stroke-miterlimit:10;" d="
				M1240.484,6.106h16.599c1.073,0,1.943,0.87,1.943,1.943v6.383c0,1.073-0.87,1.943-1.943,1.943h-16.599
				c-1.073,0-1.943-0.87-1.943-1.943V8.05C1238.54,6.976,1239.41,6.106,1240.484,6.106z"/>
			<path style="fill:none;stroke:#97CEC8;stroke-width:1.5;stroke-linecap:round;stroke-linejoin:round;stroke-miterlimit:10;" d="
				M1219.998,6.106h16.599c1.073,0,1.943,0.87,1.943,1.943v6.383c0,1.073-0.87,1.943-1.943,1.943h-16.599
				c-1.073,0-1.943-0.87-1.943-1.943V8.05C1218.055,6.976,1218.925,6.106,1219.998,6.106z"/>
			<path style="fill:none;stroke:#97CEC8;stroke-width:1.5;stroke-linecap:round;stroke-linejoin:round;stroke-miterlimit:10;" d="
				M1199.491,6.106h16.599c1.073,0,1.943,0.87,1.943,1.943v6.383c0,1.073-0.87,1.943-1.943,1.943h-16.599
				c-1.073,0-1.943-0.87-1.943-1.943V8.05C1197.548,6.976,1198.418,6.106,1199.491,6.106z"/>
			<path style="fill:none;stroke:#97CEC8;stroke-width:1.5;stroke-linecap:round;stroke-linejoin:round;stroke-miterlimit:10;" d="
				M1332.714,139.571h16.599c1.073,0,1.943,0.87,1.943,1.943v6.383c0,1.073-0.87,1.943-1.943,1.943h-16.599
				c-1.073,0-1.943-0.87-1.943-1.943v-6.383C1330.771,140.441,1331.641,139.571,1332.714,139.571z"/>
			<path style="fill:none;stroke:#97CEC8;stroke-width:1.5;stroke-linecap:round;stroke-linejoin:round;stroke-miterlimit:10;" d="
				M1496.599,139.571h16.599c1.073,0,1.943,0.87,1.943,1.943v6.383c0,1.073-0.87,1.943-1.943,1.943h-16.599
				c-1.073,0-1.943-0.87-1.943-1.943v-6.383C1494.656,140.441,1495.526,139.571,1496.599,139.571z"/>
			<path style="fill:none;stroke:#97CEC8;stroke-width:1.5;stroke-linecap:round;stroke-linejoin:round;stroke-miterlimit:10;" d="
				M1476.114,139.571h16.599c1.073,0,1.943,0.87,1.943,1.943v6.383c0,1.073-0.87,1.943-1.943,1.943h-16.599
				c-1.073,0-1.943-0.87-1.943-1.943v-6.383C1474.171,140.441,1475.041,139.571,1476.114,139.571z"/>
			<path style="fill:none;stroke:#97CEC8;stroke-width:1.5;stroke-linecap:round;stroke-linejoin:round;stroke-miterlimit:10;" d="
				M1455.625,139.571h16.599c1.073,0,1.943,0.87,1.943,1.943v6.383c0,1.073-0.87,1.943-1.943,1.943h-16.599
				c-1.073,0-1.943-0.87-1.943-1.943v-6.383C1453.682,140.441,1454.552,139.571,1455.625,139.571z"/>
			<path style="fill:none;stroke:#97CEC8;stroke-width:1.5;stroke-linecap:round;stroke-linejoin:round;stroke-miterlimit:10;" d="
				M1435.139,139.571h16.599c1.073,0,1.943,0.87,1.943,1.943v6.383c0,1.073-0.87,1.943-1.943,1.943h-16.599
				c-1.073,0-1.943-0.87-1.943-1.943v-6.383C1433.196,140.441,1434.066,139.571,1435.139,139.571z"/>
			<path style="fill:none;stroke:#97CEC8;stroke-width:1.5;stroke-linecap:round;stroke-linejoin:round;stroke-miterlimit:10;" d="
				M1414.633,139.571h16.599c1.073,0,1.943,0.87,1.943,1.943v6.383c0,1.073-0.87,1.943-1.943,1.943h-16.599
				c-1.073,0-1.943-0.87-1.943-1.943v-6.383C1412.689,140.441,1413.559,139.571,1414.633,139.571z"/>
			<path style="fill:none;stroke:#97CEC8;stroke-width:1.5;stroke-linecap:round;stroke-linejoin:round;stroke-miterlimit:10;" d="
				M1394.147,139.571h16.599c1.073,0,1.943,0.87,1.943,1.943v6.383c0,1.073-0.87,1.943-1.943,1.943h-16.599
				c-1.073,0-1.943-0.87-1.943-1.943v-6.383C1392.204,140.441,1393.074,139.571,1394.147,139.571z"/>
			<path style="fill:none;stroke:#97CEC8;stroke-width:1.5;stroke-linecap:round;stroke-linejoin:round;stroke-miterlimit:10;" d="
				M1373.686,139.571h16.599c1.073,0,1.943,0.87,1.943,1.943v6.383c0,1.073-0.87,1.943-1.943,1.943h-16.599
				c-1.073,0-1.943-0.87-1.943-1.943v-6.383C1371.742,140.441,1372.612,139.571,1373.686,139.571z"/>
			<path style="fill:none;stroke:#97CEC8;stroke-width:1.5;stroke-linecap:round;stroke-linejoin:round;stroke-miterlimit:10;" d="
				M1353.2,139.571h16.599c1.073,0,1.943,0.87,1.943,1.943v6.383c0,1.073-0.87,1.943-1.943,1.943H1353.2
				c-1.073,0-1.943-0.87-1.943-1.943v-6.383C1351.257,140.441,1352.127,139.571,1353.2,139.571z"/>
			<path style="fill:none;stroke:#97CEC8;stroke-width:1.5;stroke-linecap:round;stroke-linejoin:round;stroke-miterlimit:10;" d="
				M1486.37,129.302h16.599c1.073,0,1.943,0.87,1.943,1.943v6.383c0,1.073-0.87,1.943-1.943,1.943h-16.599
				c-1.073,0-1.943-0.87-1.943-1.943v-6.383C1484.427,130.172,1485.297,129.302,1486.37,129.302z"/>
			<path style="fill:none;stroke:#97CEC8;stroke-width:1.5;stroke-linecap:round;stroke-linejoin:round;stroke-miterlimit:10;" d="
				M1465.885,129.302h16.599c1.073,0,1.943,0.87,1.943,1.943v6.383c0,1.073-0.87,1.943-1.943,1.943h-16.599
				c-1.073,0-1.943-0.87-1.943-1.943v-6.383C1463.941,130.172,1464.812,129.302,1465.885,129.302z"/>
			<path style="fill:none;stroke:#97CEC8;stroke-width:1.5;stroke-linecap:round;stroke-linejoin:round;stroke-miterlimit:10;" d="
				M1445.396,129.302h16.599c1.073,0,1.943,0.87,1.943,1.943v6.383c0,1.073-0.87,1.943-1.943,1.943h-16.599
				c-1.073,0-1.943-0.87-1.943-1.943v-6.383C1443.453,130.172,1444.323,129.302,1445.396,129.302z"/>
			<path style="fill:none;stroke:#97CEC8;stroke-width:1.5;stroke-linecap:round;stroke-linejoin:round;stroke-miterlimit:10;" d="
				M1424.91,129.302h16.599c1.073,0,1.943,0.87,1.943,1.943v6.383c0,1.073-0.87,1.943-1.943,1.943h-16.599
				c-1.073,0-1.943-0.87-1.943-1.943v-6.383C1422.967,130.172,1423.837,129.302,1424.91,129.302z"/>
			<path style="fill:none;stroke:#97CEC8;stroke-width:1.5;stroke-linecap:round;stroke-linejoin:round;stroke-miterlimit:10;" d="
				M1404.404,129.302h16.599c1.073,0,1.943,0.87,1.943,1.943v6.383c0,1.073-0.87,1.943-1.943,1.943h-16.599
				c-1.073,0-1.943-0.87-1.943-1.943v-6.383C1402.46,130.172,1403.33,129.302,1404.404,129.302z"/>
			<path style="fill:none;stroke:#97CEC8;stroke-width:1.5;stroke-linecap:round;stroke-linejoin:round;stroke-miterlimit:10;" d="
				M1383.918,129.302h16.599c1.073,0,1.943,0.87,1.943,1.943v6.383c0,1.073-0.87,1.943-1.943,1.943h-16.599
				c-1.073,0-1.943-0.87-1.943-1.943v-6.383C1381.975,130.172,1382.845,129.302,1383.918,129.302z"/>
			<path style="fill:none;stroke:#97CEC8;stroke-width:1.5;stroke-linecap:round;stroke-linejoin:round;stroke-miterlimit:10;" d="
				M1363.457,129.302h16.599c1.073,0,1.943,0.87,1.943,1.943v6.383c0,1.073-0.87,1.943-1.943,1.943h-16.599
				c-1.073,0-1.943-0.87-1.943-1.943v-6.383C1361.513,130.172,1362.383,129.302,1363.457,129.302z"/>
			<path style="fill:none;stroke:#97CEC8;stroke-width:1.5;stroke-linecap:round;stroke-linejoin:round;stroke-miterlimit:10;" d="
				M1342.971,129.302h16.599c1.073,0,1.943,0.87,1.943,1.943v6.383c0,1.073-0.87,1.943-1.943,1.943h-16.599
				c-1.073,0-1.943-0.87-1.943-1.943v-6.383C1341.028,130.172,1341.898,129.302,1342.971,129.302z"/>
			<path style="fill:none;stroke:#97CEC8;stroke-width:1.5;stroke-linecap:round;stroke-linejoin:round;stroke-miterlimit:10;" d="
				M1332.714,119.032h16.599c1.073,0,1.943,0.87,1.943,1.943v6.383c0,1.073-0.87,1.943-1.943,1.943h-16.599
				c-1.073,0-1.943-0.87-1.943-1.943v-6.383C1330.771,119.902,1331.641,119.032,1332.714,119.032z"/>
			<path style="fill:none;stroke:#97CEC8;stroke-width:1.5;stroke-linecap:round;stroke-linejoin:round;stroke-miterlimit:10;" d="
				M1496.599,119.032h16.599c1.073,0,1.943,0.87,1.943,1.943v6.383c0,1.073-0.87,1.943-1.943,1.943h-16.599
				c-1.073,0-1.943-0.87-1.943-1.943v-6.383C1494.656,119.902,1495.526,119.032,1496.599,119.032z"/>
			<path style="fill:none;stroke:#97CEC8;stroke-width:1.5;stroke-linecap:round;stroke-linejoin:round;stroke-miterlimit:10;" d="
				M1476.114,119.032h16.599c1.073,0,1.943,0.87,1.943,1.943v6.383c0,1.073-0.87,1.943-1.943,1.943h-16.599
				c-1.073,0-1.943-0.87-1.943-1.943v-6.383C1474.171,119.902,1475.041,119.032,1476.114,119.032z"/>
			<path style="fill:none;stroke:#97CEC8;stroke-width:1.5;stroke-linecap:round;stroke-linejoin:round;stroke-miterlimit:10;" d="
				M1455.625,119.032h16.599c1.073,0,1.943,0.87,1.943,1.943v6.383c0,1.073-0.87,1.943-1.943,1.943h-16.599
				c-1.073,0-1.943-0.87-1.943-1.943v-6.383C1453.682,119.902,1454.552,119.032,1455.625,119.032z"/>
			<path style="fill:none;stroke:#97CEC8;stroke-width:1.5;stroke-linecap:round;stroke-linejoin:round;stroke-miterlimit:10;" d="
				M1435.139,119.032h16.599c1.073,0,1.943,0.87,1.943,1.943v6.383c0,1.073-0.87,1.943-1.943,1.943h-16.599
				c-1.073,0-1.943-0.87-1.943-1.943v-6.383C1433.196,119.902,1434.066,119.032,1435.139,119.032z"/>
			<path style="fill:none;stroke:#97CEC8;stroke-width:1.5;stroke-linecap:round;stroke-linejoin:round;stroke-miterlimit:10;" d="
				M1414.633,119.032h16.599c1.073,0,1.943,0.87,1.943,1.943v6.383c0,1.073-0.87,1.943-1.943,1.943h-16.599
				c-1.073,0-1.943-0.87-1.943-1.943v-6.383C1412.689,119.902,1413.559,119.032,1414.633,119.032z"/>
			<path style="fill:none;stroke:#97CEC8;stroke-width:1.5;stroke-linecap:round;stroke-linejoin:round;stroke-miterlimit:10;" d="
				M1394.147,119.032h16.599c1.073,0,1.943,0.87,1.943,1.943v6.383c0,1.073-0.87,1.943-1.943,1.943h-16.599
				c-1.073,0-1.943-0.87-1.943-1.943v-6.383C1392.204,119.902,1393.074,119.032,1394.147,119.032z"/>
			<path style="fill:none;stroke:#97CEC8;stroke-width:1.5;stroke-linecap:round;stroke-linejoin:round;stroke-miterlimit:10;" d="
				M1373.686,119.032h16.599c1.073,0,1.943,0.87,1.943,1.943v6.383c0,1.073-0.87,1.943-1.943,1.943h-16.599
				c-1.073,0-1.943-0.87-1.943-1.943v-6.383C1371.742,119.902,1372.612,119.032,1373.686,119.032z"/>
			<path style="fill:none;stroke:#97CEC8;stroke-width:1.5;stroke-linecap:round;stroke-linejoin:round;stroke-miterlimit:10;" d="
				M1353.2,119.032h16.599c1.073,0,1.943,0.87,1.943,1.943v6.383c0,1.073-0.87,1.943-1.943,1.943H1353.2
				c-1.073,0-1.943-0.87-1.943-1.943v-6.383C1351.257,119.902,1352.127,119.032,1353.2,119.032z"/>
			<path style="fill:none;stroke:#97CEC8;stroke-width:1.5;stroke-linecap:round;stroke-linejoin:round;stroke-miterlimit:10;" d="
				M1486.37,108.791h16.599c1.073,0,1.943,0.87,1.943,1.943v6.383c0,1.073-0.87,1.943-1.943,1.943h-16.599
				c-1.073,0-1.943-0.87-1.943-1.943v-6.383C1484.427,109.661,1485.297,108.791,1486.37,108.791z"/>
			<path style="fill:none;stroke:#97CEC8;stroke-width:1.5;stroke-linecap:round;stroke-linejoin:round;stroke-miterlimit:10;" d="
				M1465.885,108.791h16.599c1.073,0,1.943,0.87,1.943,1.943v6.383c0,1.073-0.87,1.943-1.943,1.943h-16.599
				c-1.073,0-1.943-0.87-1.943-1.943v-6.383C1463.941,109.661,1464.812,108.791,1465.885,108.791z"/>
			<path style="fill:none;stroke:#97CEC8;stroke-width:1.5;stroke-linecap:round;stroke-linejoin:round;stroke-miterlimit:10;" d="
				M1445.396,108.791h16.599c1.073,0,1.943,0.87,1.943,1.943v6.383c0,1.073-0.87,1.943-1.943,1.943h-16.599
				c-1.073,0-1.943-0.87-1.943-1.943v-6.383C1443.453,109.661,1444.323,108.791,1445.396,108.791z"/>
			<path style="fill:none;stroke:#97CEC8;stroke-width:1.5;stroke-linecap:round;stroke-linejoin:round;stroke-miterlimit:10;" d="
				M1424.91,108.791h16.599c1.073,0,1.943,0.87,1.943,1.943v6.383c0,1.073-0.87,1.943-1.943,1.943h-16.599
				c-1.073,0-1.943-0.87-1.943-1.943v-6.383C1422.967,109.661,1423.837,108.791,1424.91,108.791z"/>
			<path style="fill:none;stroke:#97CEC8;stroke-width:1.5;stroke-linecap:round;stroke-linejoin:round;stroke-miterlimit:10;" d="
				M1404.404,108.791h16.599c1.073,0,1.943,0.87,1.943,1.943v6.383c0,1.073-0.87,1.943-1.943,1.943h-16.599
				c-1.073,0-1.943-0.87-1.943-1.943v-6.383C1402.46,109.661,1403.33,108.791,1404.404,108.791z"/>
			<path style="fill:none;stroke:#97CEC8;stroke-width:1.5;stroke-linecap:round;stroke-linejoin:round;stroke-miterlimit:10;" d="
				M1383.918,108.791h16.599c1.073,0,1.943,0.87,1.943,1.943v6.383c0,1.073-0.87,1.943-1.943,1.943h-16.599
				c-1.073,0-1.943-0.87-1.943-1.943v-6.383C1381.975,109.661,1382.845,108.791,1383.918,108.791z"/>
			<path style="fill:none;stroke:#97CEC8;stroke-width:1.5;stroke-linecap:round;stroke-linejoin:round;stroke-miterlimit:10;" d="
				M1363.457,108.791h16.599c1.073,0,1.943,0.87,1.943,1.943v6.383c0,1.073-0.87,1.943-1.943,1.943h-16.599
				c-1.073,0-1.943-0.87-1.943-1.943v-6.383C1361.513,109.661,1362.383,108.791,1363.457,108.791z"/>
			<path style="fill:none;stroke:#97CEC8;stroke-width:1.5;stroke-linecap:round;stroke-linejoin:round;stroke-miterlimit:10;" d="
				M1342.971,108.791h16.599c1.073,0,1.943,0.87,1.943,1.943v6.383c0,1.073-0.87,1.943-1.943,1.943h-16.599
				c-1.073,0-1.943-0.87-1.943-1.943v-6.383C1341.028,109.661,1341.898,108.791,1342.971,108.791z"/>
			<path style="fill:none;stroke:#97CEC8;stroke-width:1.5;stroke-linecap:round;stroke-linejoin:round;stroke-miterlimit:10;" d="
				M1332.714,98.521h16.599c1.073,0,1.943,0.87,1.943,1.943v6.383c0,1.073-0.87,1.943-1.943,1.943h-16.599
				c-1.073,0-1.943-0.87-1.943-1.943v-6.383C1330.771,99.391,1331.641,98.521,1332.714,98.521z"/>
			<path style="fill:none;stroke:#97CEC8;stroke-width:1.5;stroke-linecap:round;stroke-linejoin:round;stroke-miterlimit:10;" d="
				M1496.599,98.521h16.599c1.073,0,1.943,0.87,1.943,1.943v6.383c0,1.073-0.87,1.943-1.943,1.943h-16.599
				c-1.073,0-1.943-0.87-1.943-1.943v-6.383C1494.656,99.391,1495.526,98.521,1496.599,98.521z"/>
			<path style="fill:none;stroke:#97CEC8;stroke-width:1.5;stroke-linecap:round;stroke-linejoin:round;stroke-miterlimit:10;" d="
				M1476.114,98.521h16.599c1.073,0,1.943,0.87,1.943,1.943v6.383c0,1.073-0.87,1.943-1.943,1.943h-16.599
				c-1.073,0-1.943-0.87-1.943-1.943v-6.383C1474.171,99.391,1475.041,98.521,1476.114,98.521z"/>
			<path style="fill:none;stroke:#97CEC8;stroke-width:1.5;stroke-linecap:round;stroke-linejoin:round;stroke-miterlimit:10;" d="
				M1455.625,98.521h16.599c1.073,0,1.943,0.87,1.943,1.943v6.383c0,1.073-0.87,1.943-1.943,1.943h-16.599
				c-1.073,0-1.943-0.87-1.943-1.943v-6.383C1453.682,99.391,1454.552,98.521,1455.625,98.521z"/>
			<path style="fill:none;stroke:#97CEC8;stroke-width:1.5;stroke-linecap:round;stroke-linejoin:round;stroke-miterlimit:10;" d="
				M1435.139,98.521h16.599c1.073,0,1.943,0.87,1.943,1.943v6.383c0,1.073-0.87,1.943-1.943,1.943h-16.599
				c-1.073,0-1.943-0.87-1.943-1.943v-6.383C1433.196,99.391,1434.066,98.521,1435.139,98.521z"/>
			<path style="fill:none;stroke:#97CEC8;stroke-width:1.5;stroke-linecap:round;stroke-linejoin:round;stroke-miterlimit:10;" d="
				M1414.633,98.521h16.599c1.073,0,1.943,0.87,1.943,1.943v6.383c0,1.073-0.87,1.943-1.943,1.943h-16.599
				c-1.073,0-1.943-0.87-1.943-1.943v-6.383C1412.689,99.391,1413.559,98.521,1414.633,98.521z"/>
			<path style="fill:none;stroke:#97CEC8;stroke-width:1.5;stroke-linecap:round;stroke-linejoin:round;stroke-miterlimit:10;" d="
				M1394.147,98.521h16.599c1.073,0,1.943,0.87,1.943,1.943v6.383c0,1.073-0.87,1.943-1.943,1.943h-16.599
				c-1.073,0-1.943-0.87-1.943-1.943v-6.383C1392.204,99.391,1393.074,98.521,1394.147,98.521z"/>
			<path style="fill:none;stroke:#97CEC8;stroke-width:1.5;stroke-linecap:round;stroke-linejoin:round;stroke-miterlimit:10;" d="
				M1373.686,98.521h16.599c1.073,0,1.943,0.87,1.943,1.943v6.383c0,1.073-0.87,1.943-1.943,1.943h-16.599
				c-1.073,0-1.943-0.87-1.943-1.943v-6.383C1371.742,99.391,1372.612,98.521,1373.686,98.521z"/>
			<path style="fill:none;stroke:#97CEC8;stroke-width:1.5;stroke-linecap:round;stroke-linejoin:round;stroke-miterlimit:10;" d="
				M1353.2,98.521h16.599c1.073,0,1.943,0.87,1.943,1.943v6.383c0,1.073-0.87,1.943-1.943,1.943H1353.2
				c-1.073,0-1.943-0.87-1.943-1.943v-6.383C1351.257,99.391,1352.127,98.521,1353.2,98.521z"/>
			<path style="fill:none;stroke:#97CEC8;stroke-width:1.5;stroke-linecap:round;stroke-linejoin:round;stroke-miterlimit:10;" d="
				M1486.37,88.252h16.599c1.073,0,1.943,0.87,1.943,1.943v6.383c0,1.073-0.87,1.943-1.943,1.943h-16.599
				c-1.073,0-1.943-0.87-1.943-1.943v-6.383C1484.427,89.122,1485.297,88.252,1486.37,88.252z"/>
			<path style="fill:none;stroke:#97CEC8;stroke-width:1.5;stroke-linecap:round;stroke-linejoin:round;stroke-miterlimit:10;" d="
				M1465.885,88.252h16.599c1.073,0,1.943,0.87,1.943,1.943v6.383c0,1.073-0.87,1.943-1.943,1.943h-16.599
				c-1.073,0-1.943-0.87-1.943-1.943v-6.383C1463.941,89.122,1464.812,88.252,1465.885,88.252z"/>
			<path style="fill:none;stroke:#97CEC8;stroke-width:1.5;stroke-linecap:round;stroke-linejoin:round;stroke-miterlimit:10;" d="
				M1445.396,88.252h16.599c1.073,0,1.943,0.87,1.943,1.943v6.383c0,1.073-0.87,1.943-1.943,1.943h-16.599
				c-1.073,0-1.943-0.87-1.943-1.943v-6.383C1443.453,89.122,1444.323,88.252,1445.396,88.252z"/>
			<path style="fill:none;stroke:#97CEC8;stroke-width:1.5;stroke-linecap:round;stroke-linejoin:round;stroke-miterlimit:10;" d="
				M1424.91,88.252h16.599c1.073,0,1.943,0.87,1.943,1.943v6.383c0,1.073-0.87,1.943-1.943,1.943h-16.599
				c-1.073,0-1.943-0.87-1.943-1.943v-6.383C1422.967,89.122,1423.837,88.252,1424.91,88.252z"/>
			<path style="fill:none;stroke:#97CEC8;stroke-width:1.5;stroke-linecap:round;stroke-linejoin:round;stroke-miterlimit:10;" d="
				M1404.404,88.252h16.599c1.073,0,1.943,0.87,1.943,1.943v6.383c0,1.073-0.87,1.943-1.943,1.943h-16.599
				c-1.073,0-1.943-0.87-1.943-1.943v-6.383C1402.46,89.122,1403.33,88.252,1404.404,88.252z"/>
			<path style="fill:none;stroke:#97CEC8;stroke-width:1.5;stroke-linecap:round;stroke-linejoin:round;stroke-miterlimit:10;" d="
				M1383.918,88.252h16.599c1.073,0,1.943,0.87,1.943,1.943v6.383c0,1.073-0.87,1.943-1.943,1.943h-16.599
				c-1.073,0-1.943-0.87-1.943-1.943v-6.383C1381.975,89.122,1382.845,88.252,1383.918,88.252z"/>
			<path style="fill:none;stroke:#97CEC8;stroke-width:1.5;stroke-linecap:round;stroke-linejoin:round;stroke-miterlimit:10;" d="
				M1363.457,88.252h16.599c1.073,0,1.943,0.87,1.943,1.943v6.383c0,1.073-0.87,1.943-1.943,1.943h-16.599
				c-1.073,0-1.943-0.87-1.943-1.943v-6.383C1361.513,89.122,1362.383,88.252,1363.457,88.252z"/>
			<path style="fill:none;stroke:#97CEC8;stroke-width:1.5;stroke-linecap:round;stroke-linejoin:round;stroke-miterlimit:10;" d="
				M1342.971,88.252h16.599c1.073,0,1.943,0.87,1.943,1.943v6.383c0,1.073-0.87,1.943-1.943,1.943h-16.599
				c-1.073,0-1.943-0.87-1.943-1.943v-6.383C1341.028,89.122,1341.898,88.252,1342.971,88.252z"/>
			<path style="fill:none;stroke:#97CEC8;stroke-width:1.5;stroke-linecap:round;stroke-linejoin:round;stroke-miterlimit:10;" d="
				M1332.714,77.982h16.599c1.073,0,1.943,0.87,1.943,1.943v6.383c0,1.073-0.87,1.943-1.943,1.943h-16.599
				c-1.073,0-1.943-0.87-1.943-1.943v-6.383C1330.771,78.852,1331.641,77.982,1332.714,77.982z"/>
			<path style="fill:none;stroke:#97CEC8;stroke-width:1.5;stroke-linecap:round;stroke-linejoin:round;stroke-miterlimit:10;" d="
				M1496.599,77.982h16.599c1.073,0,1.943,0.87,1.943,1.943v6.383c0,1.073-0.87,1.943-1.943,1.943h-16.599
				c-1.073,0-1.943-0.87-1.943-1.943v-6.383C1494.656,78.852,1495.526,77.982,1496.599,77.982z"/>
			<path style="fill:none;stroke:#97CEC8;stroke-width:1.5;stroke-linecap:round;stroke-linejoin:round;stroke-miterlimit:10;" d="
				M1476.114,77.982h16.599c1.073,0,1.943,0.87,1.943,1.943v6.383c0,1.073-0.87,1.943-1.943,1.943h-16.599
				c-1.073,0-1.943-0.87-1.943-1.943v-6.383C1474.171,78.852,1475.041,77.982,1476.114,77.982z"/>
			<path style="fill:none;stroke:#97CEC8;stroke-width:1.5;stroke-linecap:round;stroke-linejoin:round;stroke-miterlimit:10;" d="
				M1455.625,77.982h16.599c1.073,0,1.943,0.87,1.943,1.943v6.383c0,1.073-0.87,1.943-1.943,1.943h-16.599
				c-1.073,0-1.943-0.87-1.943-1.943v-6.383C1453.682,78.852,1454.552,77.982,1455.625,77.982z"/>
			<path style="fill:none;stroke:#97CEC8;stroke-width:1.5;stroke-linecap:round;stroke-linejoin:round;stroke-miterlimit:10;" d="
				M1435.139,77.982h16.599c1.073,0,1.943,0.87,1.943,1.943v6.383c0,1.073-0.87,1.943-1.943,1.943h-16.599
				c-1.073,0-1.943-0.87-1.943-1.943v-6.383C1433.196,78.852,1434.066,77.982,1435.139,77.982z"/>
			<path style="fill:none;stroke:#97CEC8;stroke-width:1.5;stroke-linecap:round;stroke-linejoin:round;stroke-miterlimit:10;" d="
				M1414.633,77.982h16.599c1.073,0,1.943,0.87,1.943,1.943v6.383c0,1.073-0.87,1.943-1.943,1.943h-16.599
				c-1.073,0-1.943-0.87-1.943-1.943v-6.383C1412.689,78.852,1413.559,77.982,1414.633,77.982z"/>
			<path style="fill:none;stroke:#97CEC8;stroke-width:1.5;stroke-linecap:round;stroke-linejoin:round;stroke-miterlimit:10;" d="
				M1394.147,77.982h16.599c1.073,0,1.943,0.87,1.943,1.943v6.383c0,1.073-0.87,1.943-1.943,1.943h-16.599
				c-1.073,0-1.943-0.87-1.943-1.943v-6.383C1392.204,78.852,1393.074,77.982,1394.147,77.982z"/>
			<path style="fill:none;stroke:#97CEC8;stroke-width:1.5;stroke-linecap:round;stroke-linejoin:round;stroke-miterlimit:10;" d="
				M1373.686,77.982h16.599c1.073,0,1.943,0.87,1.943,1.943v6.383c0,1.073-0.87,1.943-1.943,1.943h-16.599
				c-1.073,0-1.943-0.87-1.943-1.943v-6.383C1371.742,78.852,1372.612,77.982,1373.686,77.982z"/>
			<path style="fill:none;stroke:#97CEC8;stroke-width:1.5;stroke-linecap:round;stroke-linejoin:round;stroke-miterlimit:10;" d="
				M1353.2,77.982h16.599c1.073,0,1.943,0.87,1.943,1.943v6.383c0,1.073-0.87,1.943-1.943,1.943H1353.2
				c-1.073,0-1.943-0.87-1.943-1.943v-6.383C1351.257,78.852,1352.127,77.982,1353.2,77.982z"/>
			<path style="fill:none;stroke:#97CEC8;stroke-width:1.5;stroke-linecap:round;stroke-linejoin:round;stroke-miterlimit:10;" d="
				M1486.37,67.723h16.599c1.073,0,1.943,0.87,1.943,1.943v6.383c0,1.073-0.87,1.943-1.943,1.943h-16.599
				c-1.073,0-1.943-0.87-1.943-1.943v-6.383C1484.427,68.593,1485.297,67.723,1486.37,67.723z"/>
			<path style="fill:none;stroke:#97CEC8;stroke-width:1.5;stroke-linecap:round;stroke-linejoin:round;stroke-miterlimit:10;" d="
				M1465.885,67.723h16.599c1.073,0,1.943,0.87,1.943,1.943v6.383c0,1.073-0.87,1.943-1.943,1.943h-16.599
				c-1.073,0-1.943-0.87-1.943-1.943v-6.383C1463.941,68.593,1464.812,67.723,1465.885,67.723z"/>
			<path style="fill:none;stroke:#97CEC8;stroke-width:1.5;stroke-linecap:round;stroke-linejoin:round;stroke-miterlimit:10;" d="
				M1445.396,67.723h16.599c1.073,0,1.943,0.87,1.943,1.943v6.383c0,1.073-0.87,1.943-1.943,1.943h-16.599
				c-1.073,0-1.943-0.87-1.943-1.943v-6.383C1443.453,68.593,1444.323,67.723,1445.396,67.723z"/>
			<path style="fill:none;stroke:#97CEC8;stroke-width:1.5;stroke-linecap:round;stroke-linejoin:round;stroke-miterlimit:10;" d="
				M1424.91,67.723h16.599c1.073,0,1.943,0.87,1.943,1.943v6.383c0,1.073-0.87,1.943-1.943,1.943h-16.599
				c-1.073,0-1.943-0.87-1.943-1.943v-6.383C1422.967,68.593,1423.837,67.723,1424.91,67.723z"/>
			<path style="fill:none;stroke:#97CEC8;stroke-width:1.5;stroke-linecap:round;stroke-linejoin:round;stroke-miterlimit:10;" d="
				M1404.404,67.723h16.599c1.073,0,1.943,0.87,1.943,1.943v6.383c0,1.073-0.87,1.943-1.943,1.943h-16.599
				c-1.073,0-1.943-0.87-1.943-1.943v-6.383C1402.46,68.593,1403.33,67.723,1404.404,67.723z"/>
			<path style="fill:none;stroke:#97CEC8;stroke-width:1.5;stroke-linecap:round;stroke-linejoin:round;stroke-miterlimit:10;" d="
				M1383.918,67.723h16.599c1.073,0,1.943,0.87,1.943,1.943v6.383c0,1.073-0.87,1.943-1.943,1.943h-16.599
				c-1.073,0-1.943-0.87-1.943-1.943v-6.383C1381.975,68.593,1382.845,67.723,1383.918,67.723z"/>
			<path style="fill:none;stroke:#97CEC8;stroke-width:1.5;stroke-linecap:round;stroke-linejoin:round;stroke-miterlimit:10;" d="
				M1363.457,67.723h16.599c1.073,0,1.943,0.87,1.943,1.943v6.383c0,1.073-0.87,1.943-1.943,1.943h-16.599
				c-1.073,0-1.943-0.87-1.943-1.943v-6.383C1361.513,68.593,1362.383,67.723,1363.457,67.723z"/>
			<path style="fill:none;stroke:#97CEC8;stroke-width:1.5;stroke-linecap:round;stroke-linejoin:round;stroke-miterlimit:10;" d="
				M1342.971,67.723h16.599c1.073,0,1.943,0.87,1.943,1.943v6.383c0,1.073-0.87,1.943-1.943,1.943h-16.599
				c-1.073,0-1.943-0.87-1.943-1.943v-6.383C1341.028,68.593,1341.898,67.723,1342.971,67.723z"/>
			<path style="fill:none;stroke:#97CEC8;stroke-width:1.5;stroke-linecap:round;stroke-linejoin:round;stroke-miterlimit:10;" d="
				M1332.714,57.454l16.599,0c1.073,0,1.943,0.87,1.943,1.943v6.383c0,1.073-0.87,1.943-1.943,1.943h-16.599
				c-1.073,0-1.943-0.87-1.943-1.943v-6.383C1330.771,58.324,1331.641,57.454,1332.714,57.454z"/>
			<path style="fill:none;stroke:#97CEC8;stroke-width:1.5;stroke-linecap:round;stroke-linejoin:round;stroke-miterlimit:10;" d="
				M1496.599,57.454l16.599,0c1.073,0,1.943,0.87,1.943,1.943v6.383c0,1.073-0.87,1.943-1.943,1.943h-16.599
				c-1.073,0-1.943-0.87-1.943-1.943v-6.383C1494.656,58.324,1495.526,57.454,1496.599,57.454z"/>
			<path style="fill:none;stroke:#97CEC8;stroke-width:1.5;stroke-linecap:round;stroke-linejoin:round;stroke-miterlimit:10;" d="
				M1476.114,57.454l16.599,0c1.073,0,1.943,0.87,1.943,1.943v6.383c0,1.073-0.87,1.943-1.943,1.943h-16.599
				c-1.073,0-1.943-0.87-1.943-1.943v-6.383C1474.171,58.324,1475.041,57.454,1476.114,57.454z"/>
			<path style="fill:none;stroke:#97CEC8;stroke-width:1.5;stroke-linecap:round;stroke-linejoin:round;stroke-miterlimit:10;" d="
				M1455.625,57.454l16.599,0c1.073,0,1.943,0.87,1.943,1.943v6.383c0,1.073-0.87,1.943-1.943,1.943h-16.599
				c-1.073,0-1.943-0.87-1.943-1.943v-6.383C1453.682,58.324,1454.552,57.454,1455.625,57.454z"/>
			<path style="fill:none;stroke:#97CEC8;stroke-width:1.5;stroke-linecap:round;stroke-linejoin:round;stroke-miterlimit:10;" d="
				M1435.139,57.454l16.599,0c1.073,0,1.943,0.87,1.943,1.943v6.383c0,1.073-0.87,1.943-1.943,1.943h-16.599
				c-1.073,0-1.943-0.87-1.943-1.943v-6.383C1433.196,58.324,1434.066,57.454,1435.139,57.454z"/>
			<path style="fill:none;stroke:#97CEC8;stroke-width:1.5;stroke-linecap:round;stroke-linejoin:round;stroke-miterlimit:10;" d="
				M1414.633,57.454l16.599,0c1.073,0,1.943,0.87,1.943,1.943v6.383c0,1.073-0.87,1.943-1.943,1.943h-16.599
				c-1.073,0-1.943-0.87-1.943-1.943v-6.383C1412.689,58.324,1413.559,57.454,1414.633,57.454z"/>
			<path style="fill:none;stroke:#97CEC8;stroke-width:1.5;stroke-linecap:round;stroke-linejoin:round;stroke-miterlimit:10;" d="
				M1394.147,57.454l16.599,0c1.073,0,1.943,0.87,1.943,1.943v6.383c0,1.073-0.87,1.943-1.943,1.943h-16.599
				c-1.073,0-1.943-0.87-1.943-1.943v-6.383C1392.204,58.324,1393.074,57.454,1394.147,57.454z"/>
			<path style="fill:none;stroke:#97CEC8;stroke-width:1.5;stroke-linecap:round;stroke-linejoin:round;stroke-miterlimit:10;" d="
				M1373.686,57.454l16.599,0c1.073,0,1.943,0.87,1.943,1.943v6.383c0,1.073-0.87,1.943-1.943,1.943h-16.599
				c-1.073,0-1.943-0.87-1.943-1.943v-6.383C1371.742,58.324,1372.612,57.454,1373.686,57.454z"/>
			<path style="fill:none;stroke:#97CEC8;stroke-width:1.5;stroke-linecap:round;stroke-linejoin:round;stroke-miterlimit:10;" d="
				M1353.2,57.454l16.599,0c1.073,0,1.943,0.87,1.943,1.943v6.383c0,1.073-0.87,1.943-1.943,1.943H1353.2
				c-1.073,0-1.943-0.87-1.943-1.943v-6.383C1351.257,58.324,1352.127,57.454,1353.2,57.454z"/>
			<path style="fill:none;stroke:#97CEC8;stroke-width:1.5;stroke-linecap:round;stroke-linejoin:round;stroke-miterlimit:10;" d="
				M1486.37,47.184h16.599c1.073,0,1.943,0.87,1.943,1.943v6.383c0,1.073-0.87,1.943-1.943,1.943h-16.599
				c-1.073,0-1.943-0.87-1.943-1.943v-6.383C1484.427,48.054,1485.297,47.184,1486.37,47.184z"/>
			<path style="fill:none;stroke:#97CEC8;stroke-width:1.5;stroke-linecap:round;stroke-linejoin:round;stroke-miterlimit:10;" d="
				M1465.885,47.184h16.599c1.073,0,1.943,0.87,1.943,1.943v6.383c0,1.073-0.87,1.943-1.943,1.943h-16.599
				c-1.073,0-1.943-0.87-1.943-1.943v-6.383C1463.941,48.054,1464.812,47.184,1465.885,47.184z"/>
			<path style="fill:none;stroke:#97CEC8;stroke-width:1.5;stroke-linecap:round;stroke-linejoin:round;stroke-miterlimit:10;" d="
				M1445.396,47.184h16.599c1.073,0,1.943,0.87,1.943,1.943v6.383c0,1.073-0.87,1.943-1.943,1.943h-16.599
				c-1.073,0-1.943-0.87-1.943-1.943v-6.383C1443.453,48.054,1444.323,47.184,1445.396,47.184z"/>
			<path style="fill:none;stroke:#97CEC8;stroke-width:1.5;stroke-linecap:round;stroke-linejoin:round;stroke-miterlimit:10;" d="
				M1424.91,47.184h16.599c1.073,0,1.943,0.87,1.943,1.943v6.383c0,1.073-0.87,1.943-1.943,1.943h-16.599
				c-1.073,0-1.943-0.87-1.943-1.943v-6.383C1422.967,48.054,1423.837,47.184,1424.91,47.184z"/>
			<path style="fill:none;stroke:#97CEC8;stroke-width:1.5;stroke-linecap:round;stroke-linejoin:round;stroke-miterlimit:10;" d="
				M1404.404,47.184h16.599c1.073,0,1.943,0.87,1.943,1.943v6.383c0,1.073-0.87,1.943-1.943,1.943h-16.599
				c-1.073,0-1.943-0.87-1.943-1.943v-6.383C1402.46,48.054,1403.33,47.184,1404.404,47.184z"/>
			<path style="fill:none;stroke:#97CEC8;stroke-width:1.5;stroke-linecap:round;stroke-linejoin:round;stroke-miterlimit:10;" d="
				M1383.918,47.184h16.599c1.073,0,1.943,0.87,1.943,1.943v6.383c0,1.073-0.87,1.943-1.943,1.943h-16.599
				c-1.073,0-1.943-0.87-1.943-1.943v-6.383C1381.975,48.054,1382.845,47.184,1383.918,47.184z"/>
			<path style="fill:none;stroke:#97CEC8;stroke-width:1.5;stroke-linecap:round;stroke-linejoin:round;stroke-miterlimit:10;" d="
				M1363.457,47.184h16.599c1.073,0,1.943,0.87,1.943,1.943v6.383c0,1.073-0.87,1.943-1.943,1.943h-16.599
				c-1.073,0-1.943-0.87-1.943-1.943v-6.383C1361.513,48.054,1362.383,47.184,1363.457,47.184z"/>
			<path style="fill:none;stroke:#97CEC8;stroke-width:1.5;stroke-linecap:round;stroke-linejoin:round;stroke-miterlimit:10;" d="
				M1342.971,47.184h16.599c1.073,0,1.943,0.87,1.943,1.943v6.383c0,1.073-0.87,1.943-1.943,1.943h-16.599
				c-1.073,0-1.943-0.87-1.943-1.943v-6.383C1341.028,48.054,1341.898,47.184,1342.971,47.184z"/>
			<path style="fill:none;stroke:#97CEC8;stroke-width:1.5;stroke-linecap:round;stroke-linejoin:round;stroke-miterlimit:10;" d="
				M1332.714,36.915h16.599c1.073,0,1.943,0.87,1.943,1.943v6.383c0,1.073-0.87,1.943-1.943,1.943h-16.599
				c-1.073,0-1.943-0.87-1.943-1.943v-6.383C1330.771,37.785,1331.641,36.915,1332.714,36.915z"/>
			<path style="fill:none;stroke:#97CEC8;stroke-width:1.5;stroke-linecap:round;stroke-linejoin:round;stroke-miterlimit:10;" d="
				M1496.599,36.915h16.599c1.073,0,1.943,0.87,1.943,1.943v6.383c0,1.073-0.87,1.943-1.943,1.943h-16.599
				c-1.073,0-1.943-0.87-1.943-1.943v-6.383C1494.656,37.785,1495.526,36.915,1496.599,36.915z"/>
			<path style="fill:none;stroke:#97CEC8;stroke-width:1.5;stroke-linecap:round;stroke-linejoin:round;stroke-miterlimit:10;" d="
				M1476.114,36.915h16.599c1.073,0,1.943,0.87,1.943,1.943v6.383c0,1.073-0.87,1.943-1.943,1.943h-16.599
				c-1.073,0-1.943-0.87-1.943-1.943v-6.383C1474.171,37.785,1475.041,36.915,1476.114,36.915z"/>
			<path style="fill:none;stroke:#97CEC8;stroke-width:1.5;stroke-linecap:round;stroke-linejoin:round;stroke-miterlimit:10;" d="
				M1455.625,36.915h16.599c1.073,0,1.943,0.87,1.943,1.943v6.383c0,1.073-0.87,1.943-1.943,1.943h-16.599
				c-1.073,0-1.943-0.87-1.943-1.943v-6.383C1453.682,37.785,1454.552,36.915,1455.625,36.915z"/>
			<path style="fill:none;stroke:#97CEC8;stroke-width:1.5;stroke-linecap:round;stroke-linejoin:round;stroke-miterlimit:10;" d="
				M1435.139,36.915h16.599c1.073,0,1.943,0.87,1.943,1.943v6.383c0,1.073-0.87,1.943-1.943,1.943h-16.599
				c-1.073,0-1.943-0.87-1.943-1.943v-6.383C1433.196,37.785,1434.066,36.915,1435.139,36.915z"/>
			<path style="fill:none;stroke:#97CEC8;stroke-width:1.5;stroke-linecap:round;stroke-linejoin:round;stroke-miterlimit:10;" d="
				M1414.633,36.915h16.599c1.073,0,1.943,0.87,1.943,1.943v6.383c0,1.073-0.87,1.943-1.943,1.943h-16.599
				c-1.073,0-1.943-0.87-1.943-1.943v-6.383C1412.689,37.785,1413.559,36.915,1414.633,36.915z"/>
			<path style="fill:none;stroke:#97CEC8;stroke-width:1.5;stroke-linecap:round;stroke-linejoin:round;stroke-miterlimit:10;" d="
				M1394.147,36.915h16.599c1.073,0,1.943,0.87,1.943,1.943v6.383c0,1.073-0.87,1.943-1.943,1.943h-16.599
				c-1.073,0-1.943-0.87-1.943-1.943v-6.383C1392.204,37.785,1393.074,36.915,1394.147,36.915z"/>
			<path style="fill:none;stroke:#97CEC8;stroke-width:1.5;stroke-linecap:round;stroke-linejoin:round;stroke-miterlimit:10;" d="
				M1373.686,36.915h16.599c1.073,0,1.943,0.87,1.943,1.943v6.383c0,1.073-0.87,1.943-1.943,1.943h-16.599
				c-1.073,0-1.943-0.87-1.943-1.943v-6.383C1371.742,37.785,1372.612,36.915,1373.686,36.915z"/>
			<path style="fill:none;stroke:#97CEC8;stroke-width:1.5;stroke-linecap:round;stroke-linejoin:round;stroke-miterlimit:10;" d="
				M1353.2,36.915h16.599c1.073,0,1.943,0.87,1.943,1.943v6.383c0,1.073-0.87,1.943-1.943,1.943H1353.2
				c-1.073,0-1.943-0.87-1.943-1.943v-6.383C1351.257,37.785,1352.127,36.915,1353.2,36.915z"/>
			<path style="fill:none;stroke:#97CEC8;stroke-width:1.5;stroke-linecap:round;stroke-linejoin:round;stroke-miterlimit:10;" d="
				M1486.37,26.645h16.599c1.073,0,1.943,0.87,1.943,1.943v6.383c0,1.073-0.87,1.943-1.943,1.943h-16.599
				c-1.073,0-1.943-0.87-1.943-1.943v-6.383C1484.427,27.515,1485.297,26.645,1486.37,26.645z"/>
			<path style="fill:none;stroke:#97CEC8;stroke-width:1.5;stroke-linecap:round;stroke-linejoin:round;stroke-miterlimit:10;" d="
				M1465.885,26.645h16.599c1.073,0,1.943,0.87,1.943,1.943v6.383c0,1.073-0.87,1.943-1.943,1.943h-16.599
				c-1.073,0-1.943-0.87-1.943-1.943v-6.383C1463.941,27.515,1464.812,26.645,1465.885,26.645z"/>
			<path style="fill:none;stroke:#97CEC8;stroke-width:1.5;stroke-linecap:round;stroke-linejoin:round;stroke-miterlimit:10;" d="
				M1445.396,26.645h16.599c1.073,0,1.943,0.87,1.943,1.943v6.383c0,1.073-0.87,1.943-1.943,1.943h-16.599
				c-1.073,0-1.943-0.87-1.943-1.943v-6.383C1443.453,27.515,1444.323,26.645,1445.396,26.645z"/>
			<path style="fill:none;stroke:#97CEC8;stroke-width:1.5;stroke-linecap:round;stroke-linejoin:round;stroke-miterlimit:10;" d="
				M1424.91,26.645h16.599c1.073,0,1.943,0.87,1.943,1.943v6.383c0,1.073-0.87,1.943-1.943,1.943h-16.599
				c-1.073,0-1.943-0.87-1.943-1.943v-6.383C1422.967,27.515,1423.837,26.645,1424.91,26.645z"/>
			<path style="fill:none;stroke:#97CEC8;stroke-width:1.5;stroke-linecap:round;stroke-linejoin:round;stroke-miterlimit:10;" d="
				M1404.404,26.645h16.599c1.073,0,1.943,0.87,1.943,1.943v6.383c0,1.073-0.87,1.943-1.943,1.943h-16.599
				c-1.073,0-1.943-0.87-1.943-1.943v-6.383C1402.46,27.515,1403.33,26.645,1404.404,26.645z"/>
			<path style="fill:none;stroke:#97CEC8;stroke-width:1.5;stroke-linecap:round;stroke-linejoin:round;stroke-miterlimit:10;" d="
				M1383.918,26.645h16.599c1.073,0,1.943,0.87,1.943,1.943v6.383c0,1.073-0.87,1.943-1.943,1.943h-16.599
				c-1.073,0-1.943-0.87-1.943-1.943v-6.383C1381.975,27.515,1382.845,26.645,1383.918,26.645z"/>
			<path style="fill:none;stroke:#97CEC8;stroke-width:1.5;stroke-linecap:round;stroke-linejoin:round;stroke-miterlimit:10;" d="
				M1363.457,26.645h16.599c1.073,0,1.943,0.87,1.943,1.943v6.383c0,1.073-0.87,1.943-1.943,1.943h-16.599
				c-1.073,0-1.943-0.87-1.943-1.943v-6.383C1361.513,27.515,1362.383,26.645,1363.457,26.645z"/>
			<path style="fill:none;stroke:#97CEC8;stroke-width:1.5;stroke-linecap:round;stroke-linejoin:round;stroke-miterlimit:10;" d="
				M1342.971,26.645h16.599c1.073,0,1.943,0.87,1.943,1.943v6.383c0,1.073-0.87,1.943-1.943,1.943h-16.599
				c-1.073,0-1.943-0.87-1.943-1.943v-6.383C1341.028,27.515,1341.898,26.645,1342.971,26.645z"/>
			<path style="fill:none;stroke:#97CEC8;stroke-width:1.5;stroke-linecap:round;stroke-linejoin:round;stroke-miterlimit:10;" d="
				M1332.714,16.376h16.599c1.073,0,1.943,0.87,1.943,1.943v6.383c0,1.073-0.87,1.943-1.943,1.943h-16.599
				c-1.073,0-1.943-0.87-1.943-1.943v-6.383C1330.771,17.246,1331.641,16.376,1332.714,16.376z"/>
			<path style="fill:none;stroke:#97CEC8;stroke-width:1.5;stroke-linecap:round;stroke-linejoin:round;stroke-miterlimit:10;" d="
				M1496.599,16.376h16.599c1.073,0,1.943,0.87,1.943,1.943v6.383c0,1.073-0.87,1.943-1.943,1.943h-16.599
				c-1.073,0-1.943-0.87-1.943-1.943v-6.383C1494.656,17.246,1495.526,16.376,1496.599,16.376z"/>
			<path style="fill:none;stroke:#97CEC8;stroke-width:1.5;stroke-linecap:round;stroke-linejoin:round;stroke-miterlimit:10;" d="
				M1476.114,16.376h16.599c1.073,0,1.943,0.87,1.943,1.943v6.383c0,1.073-0.87,1.943-1.943,1.943h-16.599
				c-1.073,0-1.943-0.87-1.943-1.943v-6.383C1474.171,17.246,1475.041,16.376,1476.114,16.376z"/>
			<path style="fill:none;stroke:#97CEC8;stroke-width:1.5;stroke-linecap:round;stroke-linejoin:round;stroke-miterlimit:10;" d="
				M1455.625,16.376h16.599c1.073,0,1.943,0.87,1.943,1.943v6.383c0,1.073-0.87,1.943-1.943,1.943h-16.599
				c-1.073,0-1.943-0.87-1.943-1.943v-6.383C1453.682,17.246,1454.552,16.376,1455.625,16.376z"/>
			<path style="fill:none;stroke:#97CEC8;stroke-width:1.5;stroke-linecap:round;stroke-linejoin:round;stroke-miterlimit:10;" d="
				M1435.139,16.376h16.599c1.073,0,1.943,0.87,1.943,1.943v6.383c0,1.073-0.87,1.943-1.943,1.943h-16.599
				c-1.073,0-1.943-0.87-1.943-1.943v-6.383C1433.196,17.246,1434.066,16.376,1435.139,16.376z"/>
			<path style="fill:none;stroke:#97CEC8;stroke-width:1.5;stroke-linecap:round;stroke-linejoin:round;stroke-miterlimit:10;" d="
				M1414.633,16.376h16.599c1.073,0,1.943,0.87,1.943,1.943v6.383c0,1.073-0.87,1.943-1.943,1.943h-16.599
				c-1.073,0-1.943-0.87-1.943-1.943v-6.383C1412.689,17.246,1413.559,16.376,1414.633,16.376z"/>
			<path style="fill:none;stroke:#97CEC8;stroke-width:1.5;stroke-linecap:round;stroke-linejoin:round;stroke-miterlimit:10;" d="
				M1394.147,16.376h16.599c1.073,0,1.943,0.87,1.943,1.943v6.383c0,1.073-0.87,1.943-1.943,1.943h-16.599
				c-1.073,0-1.943-0.87-1.943-1.943v-6.383C1392.204,17.246,1393.074,16.376,1394.147,16.376z"/>
			<path style="fill:none;stroke:#97CEC8;stroke-width:1.5;stroke-linecap:round;stroke-linejoin:round;stroke-miterlimit:10;" d="
				M1373.686,16.376h16.599c1.073,0,1.943,0.87,1.943,1.943v6.383c0,1.073-0.87,1.943-1.943,1.943h-16.599
				c-1.073,0-1.943-0.87-1.943-1.943v-6.383C1371.742,17.246,1372.612,16.376,1373.686,16.376z"/>
			<path style="fill:none;stroke:#97CEC8;stroke-width:1.5;stroke-linecap:round;stroke-linejoin:round;stroke-miterlimit:10;" d="
				M1353.2,16.376h16.599c1.073,0,1.943,0.87,1.943,1.943v6.383c0,1.073-0.87,1.943-1.943,1.943H1353.2
				c-1.073,0-1.943-0.87-1.943-1.943v-6.383C1351.257,17.246,1352.127,16.376,1353.2,16.376z"/>
			<path style="fill:none;stroke:#97CEC8;stroke-width:1.5;stroke-linecap:round;stroke-linejoin:round;stroke-miterlimit:10;" d="
				M1486.37,6.106h16.599c1.073,0,1.943,0.87,1.943,1.943v6.383c0,1.073-0.87,1.943-1.943,1.943h-16.599
				c-1.073,0-1.943-0.87-1.943-1.943V8.05C1484.427,6.976,1485.297,6.106,1486.37,6.106z"/>
			<path style="fill:none;stroke:#97CEC8;stroke-width:1.5;stroke-linecap:round;stroke-linejoin:round;stroke-miterlimit:10;" d="
				M1465.885,6.106h16.599c1.073,0,1.943,0.87,1.943,1.943v6.383c0,1.073-0.87,1.943-1.943,1.943h-16.599
				c-1.073,0-1.943-0.87-1.943-1.943V8.05C1463.941,6.976,1464.812,6.106,1465.885,6.106z"/>
			<path style="fill:none;stroke:#97CEC8;stroke-width:1.5;stroke-linecap:round;stroke-linejoin:round;stroke-miterlimit:10;" d="
				M1445.396,6.106h16.599c1.073,0,1.943,0.87,1.943,1.943v6.383c0,1.073-0.87,1.943-1.943,1.943h-16.599
				c-1.073,0-1.943-0.87-1.943-1.943V8.05C1443.453,6.976,1444.323,6.106,1445.396,6.106z"/>
			<path style="fill:none;stroke:#97CEC8;stroke-width:1.5;stroke-linecap:round;stroke-linejoin:round;stroke-miterlimit:10;" d="
				M1424.91,6.106h16.599c1.073,0,1.943,0.87,1.943,1.943v6.383c0,1.073-0.87,1.943-1.943,1.943h-16.599
				c-1.073,0-1.943-0.87-1.943-1.943V8.05C1422.967,6.976,1423.837,6.106,1424.91,6.106z"/>
			<path style="fill:none;stroke:#97CEC8;stroke-width:1.5;stroke-linecap:round;stroke-linejoin:round;stroke-miterlimit:10;" d="
				M1404.404,6.106h16.599c1.073,0,1.943,0.87,1.943,1.943v6.383c0,1.073-0.87,1.943-1.943,1.943h-16.599
				c-1.073,0-1.943-0.87-1.943-1.943V8.05C1402.46,6.976,1403.33,6.106,1404.404,6.106z"/>
			<path style="fill:none;stroke:#97CEC8;stroke-width:1.5;stroke-linecap:round;stroke-linejoin:round;stroke-miterlimit:10;" d="
				M1383.918,6.106h16.599c1.073,0,1.943,0.87,1.943,1.943v6.383c0,1.073-0.87,1.943-1.943,1.943h-16.599
				c-1.073,0-1.943-0.87-1.943-1.943V8.05C1381.975,6.976,1382.845,6.106,1383.918,6.106z"/>
			<path style="fill:none;stroke:#97CEC8;stroke-width:1.5;stroke-linecap:round;stroke-linejoin:round;stroke-miterlimit:10;" d="
				M1363.457,6.106h16.599c1.073,0,1.943,0.87,1.943,1.943v6.383c0,1.073-0.87,1.943-1.943,1.943h-16.599
				c-1.073,0-1.943-0.87-1.943-1.943V8.05C1361.513,6.976,1362.383,6.106,1363.457,6.106z"/>
			<path style="fill:none;stroke:#97CEC8;stroke-width:1.5;stroke-linecap:round;stroke-linejoin:round;stroke-miterlimit:10;" d="
				M1342.971,6.106h16.599c1.073,0,1.943,0.87,1.943,1.943v6.383c0,1.073-0.87,1.943-1.943,1.943h-16.599
				c-1.073,0-1.943-0.87-1.943-1.943V8.05C1341.028,6.976,1341.898,6.106,1342.971,6.106z"/>
		</g>
	</g>
</g>
<g id="Details">
	<g>
		<path style="fill:#00C6C6;" d="M1383.312,62.52c-0.056-0.203-0.106-0.386-0.147-0.537c-0.086-0.314-0.094-0.644-0.022-0.962
			c0.045-0.198,0.102-0.448,0.166-0.731c0.256-1.131,0.633-2.795,0.87-3.838c0.026-0.115-0.029-0.233-0.133-0.287
			c-0.104-0.054-0.232-0.031-0.311,0.056c-1.159,1.285-3.462,3.762-3.78,4.104c-0.669-0.015-1.671-0.037-2.85-0.064
			c-0.049-0.028-0.095-0.06-0.137-0.099c-0.136-0.129-0.214-0.307-0.218-0.495c-0.006-0.245-0.012-0.521-0.017-0.77
			c-0.002-0.107-0.074-0.2-0.176-0.231c-0.103-0.03-0.213,0.009-0.274,0.097c-0.281,0.412-0.636,0.933-0.871,1.277
			c-0.046,0.068-0.087,0.128-0.123,0.18c-4.112-0.092-9.227-0.207-10.595-0.237c-0.233-0.005-0.466-0.005-0.699,0
			c-0.328,0.007-0.871,0.02-1.564,0.035c-0.526-0.227-0.895-0.744-0.908-1.346c-0.013-0.583-0.039-1.726-0.054-2.394
			c-0.002-0.073-0.05-0.136-0.12-0.157c-0.07-0.021-0.145,0.006-0.186,0.066c-0.754,1.097-2.693,3.918-2.693,3.918l0.071,0.001
			c-3.07,0.069-6.634,0.15-8.771,0.198c-0.319,0.007-0.603,0.205-0.719,0.501c-0.115,0.296-0.04,0.632,0.191,0.851c0,0,0,0,0,0
			c0.688,0.652,1.525,1.112,2.427,1.352c0.002,0.072,0.003,0.147,0.005,0.222c0.011,0.484,0.214,0.945,0.565,1.279
			c0.093,0.089,0.196,0.187,0.306,0.292c2.044,1.95,4.726,3.013,7.478,3.046c-0.061,0.127-0.092,0.267-0.089,0.41
			c0.011,0.469,0.029,1.278,0.041,1.804c0.002,0.094,0.058,0.179,0.144,0.219c0.086,0.039,0.187,0.026,0.26-0.035
			c0.863-0.717,2.91-2.418,3.682-3.059c0.154-0.042,0.309-0.085,0.466-0.128c0.64,0.485,3.007,2.277,3.966,3.003
			c0.075,0.057,0.177,0.066,0.261,0.023c0.084-0.043,0.136-0.13,0.134-0.225c-0.012-0.526-0.03-1.335-0.041-1.804
			c-0.005-0.239-0.105-0.465-0.278-0.631c-0.267-0.256-0.707-0.677-1.196-1.145c2.802-0.767,5.723-1.566,8.131-2.226
			c0.028-0.008,0.057-0.016,0.085-0.023c0.246,0.327,0.574,0.765,0.839,1.119c0.064,0.086,0.176,0.12,0.278,0.085
			c0.101-0.035,0.168-0.131,0.166-0.238c-0.005-0.218-0.01-0.455-0.015-0.671c-0.006-0.285,0.117-0.548,0.32-0.729
			c1.285-0.352,2.323-0.636,2.973-0.814c0.625,0.655,2.721,2.848,3.826,3.966c0.083,0.084,0.211,0.101,0.313,0.042
			c0.102-0.059,0.151-0.179,0.12-0.292C1384.105,65.41,1383.618,63.634,1383.312,62.52z"/>
		<path style="fill:#00C6C6;" d="M1355.685,34.042c0.104-0.377,0.197-0.718,0.274-0.998c0.161-0.584,0.174-1.198,0.041-1.789
			c-0.083-0.368-0.189-0.834-0.308-1.359c-0.477-2.104-1.178-5.198-1.617-7.139c-0.048-0.213,0.053-0.433,0.248-0.533
			c0.194-0.101,0.432-0.058,0.578,0.105c2.156,2.39,6.439,6.997,7.032,7.634c1.245-0.028,3.108-0.07,5.302-0.119
			c0.091-0.052,0.177-0.112,0.254-0.185c0.252-0.241,0.398-0.572,0.406-0.92c0.01-0.456,0.022-0.969,0.032-1.433
			c0.005-0.199,0.137-0.372,0.328-0.429c0.191-0.057,0.396,0.017,0.509,0.181c0.522,0.766,1.183,1.735,1.62,2.376
			c0.086,0.126,0.162,0.238,0.228,0.334c7.649-0.171,17.163-0.384,19.708-0.441c0.434-0.01,0.867-0.01,1.301,0
			c0.61,0.014,1.621,0.037,2.91,0.066c0.979-0.423,1.664-1.383,1.69-2.503c0.025-1.085,0.073-3.21,0.101-4.453
			c0.003-0.135,0.093-0.254,0.223-0.292c0.13-0.039,0.27,0.011,0.347,0.122c1.402,2.04,5.009,7.289,5.009,7.289l-0.133,0.001
			c5.71,0.129,12.341,0.279,16.315,0.369c0.594,0.013,1.122,0.381,1.337,0.932c0.215,0.55,0.074,1.175-0.356,1.582c0,0,0,0,0,0
			c-1.28,1.212-2.836,2.069-4.515,2.515c-0.003,0.134-0.006,0.273-0.009,0.412c-0.02,0.901-0.398,1.757-1.051,2.379
			c-0.173,0.165-0.364,0.347-0.569,0.543c-3.803,3.628-8.792,5.604-13.909,5.666c0.113,0.236,0.172,0.496,0.166,0.763
			c-0.02,0.873-0.054,2.377-0.076,3.356c-0.004,0.176-0.108,0.334-0.268,0.407c-0.16,0.073-0.348,0.048-0.483-0.065
			c-1.605-1.334-5.413-4.498-6.848-5.691c-0.286-0.078-0.575-0.158-0.866-0.237c-1.191,0.902-5.594,4.236-7.378,5.586
			c-0.14,0.106-0.329,0.123-0.485,0.043c-0.157-0.08-0.254-0.243-0.25-0.418c0.022-0.979,0.056-2.483,0.076-3.356
			c0.01-0.444,0.196-0.866,0.517-1.173c0.497-0.476,1.314-1.259,2.225-2.131c-5.211-1.427-10.645-2.914-15.124-4.14
			c-0.053-0.014-0.106-0.029-0.158-0.043c-0.457,0.609-1.068,1.423-1.562,2.081c-0.12,0.159-0.328,0.223-0.516,0.158
			c-0.188-0.065-0.313-0.244-0.308-0.443c0.009-0.406,0.019-0.847,0.028-1.249c0.012-0.531-0.217-1.019-0.595-1.356
			c-2.39-0.654-4.321-1.183-5.53-1.514c-1.162,1.218-5.062,5.297-7.117,7.377c-0.154,0.156-0.393,0.188-0.583,0.079
			c-0.19-0.109-0.281-0.333-0.223-0.544C1354.209,39.418,1355.116,36.115,1355.685,34.042z"/>
	</g>
	<g>
		<g>
			<circle style="fill-rule:evenodd;clip-rule:evenodd;fill:#FCB96E;" cx="953.823" cy="36.872" r="1.452"/>
			<circle style="fill-rule:evenodd;clip-rule:evenodd;fill:#FCB96E;" cx="959.405" cy="35.7" r="1.452"/>
			<circle style="fill-rule:evenodd;clip-rule:evenodd;fill:#FCB96E;" cx="956.855" cy="31.845" r="1.452"/>
			<circle style="fill-rule:evenodd;clip-rule:evenodd;fill:#FCB96E;" cx="970.054" cy="30.446" r="1.452"/>
			<circle style="fill-rule:evenodd;clip-rule:evenodd;fill:#FCB96E;" cx="969.18" cy="40.208" r="1.452"/>
		</g>
	</g>
	<g>
		<g>
			<g>
				<path style="fill-rule:evenodd;clip-rule:evenodd;fill:#17C6C1;" d="M636.173,121.249c0-3.513,2.85-6.365,6.361-6.365h39.965
					c3.51,0,6.361,2.852,6.361,6.365v5.609c0,3.513-2.85,6.365-6.361,6.365h-39.965c-3.51,0-6.361-2.852-6.361-6.365V121.249z"/>
				<path style="fill-rule:evenodd;clip-rule:evenodd;fill:#F9BC50;" d="M665.141,101.304c-0.917-1.53-2.57-2.467-4.353-2.467
					c-1.205,0-2.605,0-3.815,0c-1.81,0-3.483,0.964-4.391,2.53c-2.717,4.685-8.467,14.601-10.805,18.633
					c-0.574,0.99-0.28,2.255,0.671,2.89c2.035,1.358,5.18,3.456,5.18,3.456h22.907c0,0,1.907,1.909,3.261,3.263
					c0.801,0.802,2.003,1.049,3.054,0.627c2.109-0.844,5.655-2.264,7.831-3.135c1.062-0.425,1.61-1.603,1.252-2.689
					c-0.783-2.376-2.135-6.482-3.18-9.655c-0.877-2.661-3.36-4.459-6.16-4.459c-2.895,0-6.057,0-6.057,0
					S667.16,104.673,665.141,101.304z"/>
				<g>
					<defs>
						<path id="SVGID_00000118399594145465894810000013715932513501624192_" d="M665.141,101.304
							c-0.917-1.53-2.57-2.467-4.353-2.467c-1.205,0-2.605,0-3.815,0c-1.81,0-3.483,0.964-4.391,2.53
							c-2.717,4.685-8.467,14.601-10.805,18.633c-0.574,0.99-0.28,2.255,0.671,2.89c2.035,1.358,5.18,3.456,5.18,3.456h22.907
							c0,0,1.907,1.909,3.261,3.263c0.801,0.802,2.003,1.049,3.054,0.627c2.109-0.844,5.655-2.264,7.831-3.135
							c1.062-0.425,1.61-1.603,1.252-2.689c-0.783-2.376-2.135-6.482-3.18-9.655c-0.877-2.661-3.36-4.459-6.16-4.459
							c-2.895,0-6.057,0-6.057,0S667.16,104.673,665.141,101.304z"/>
					</defs>
					<clipPath id="SVGID_00000178190114736959630070000001577038563112026550_">
						<use xlink:href="#SVGID_00000118399594145465894810000013715932513501624192_"  style="overflow:visible;"/>
					</clipPath>
					
						<path style="clip-path:url(#SVGID_00000178190114736959630070000001577038563112026550_);fill-rule:evenodd;clip-rule:evenodd;fill:#FFD479;" d="
						M654.499,99.412c0-1.584,1.283-2.867,2.865-2.867c1.093,0,2.339,0,3.432,0c1.582,0,2.865,1.284,2.865,2.867
						c0,0.913,0,1.923,0,2.836c0,1.584-1.283,2.867-2.865,2.867c-1.093,0-2.339,0-3.432,0c-1.582,0-2.865-1.284-2.865-2.867
						C654.499,101.335,654.499,100.325,654.499,99.412z"/>
					
						<path style="clip-path:url(#SVGID_00000178190114736959630070000001577038563112026550_);fill-rule:evenodd;clip-rule:evenodd;fill:#FFD479;" d="
						M670.534,110.874c0-1.584,1.283-2.867,2.865-2.867c1.748,0,3.975,0,5.723,0c1.582,0,2.865,1.284,2.865,2.867
						c0,0.378,0,0.765,0,1.143c0,1.584-1.283,2.867-2.865,2.867c-1.748,0-3.975,0-5.723,0c-1.582,0-2.865-1.284-2.865-2.867
						C670.534,111.639,670.534,111.252,670.534,110.874z"/>
				</g>
			</g>
			<path style="fill-rule:evenodd;clip-rule:evenodd;fill:#17C6C1;" d="M628.096,146.256c-1.907,0-3.774-0.773-5.121-2.124
				c-1.345-1.343-2.118-3.209-2.118-5.118v-2.413c0-1.932,0.752-3.75,2.118-5.118c1.348-1.351,3.213-2.124,5.121-2.124h6.992
				c1.934,0,3.753,0.755,5.121,2.124c1.366,1.366,2.119,3.184,2.119,5.118v2.413c0,1.909-0.774,3.778-2.125,5.123
				c-1.361,1.364-3.18,2.118-5.115,2.118H628.096z"/>
			<path style="fill-rule:evenodd;clip-rule:evenodd;fill:#FFD479;" d="M624.72,136.602c0-0.896,0.356-1.755,0.989-2.389
				c0.633-0.634,1.492-0.99,2.387-0.99c2.128,0,4.865,0,6.992,0c0.895,0,1.754,0.356,2.387,0.99
				c0.633,0.634,0.989,1.493,0.989,2.389c0,0.787,0,1.625,0,2.413c0,0.896-0.356,1.755-0.989,2.389
				c-0.633,0.634-1.492,0.99-2.387,0.99c-2.128,0-4.865,0-6.992,0c-0.895,0-1.754-0.356-2.387-0.99
				c-0.633-0.634-0.989-1.493-0.989-2.389C624.72,138.227,624.72,137.389,624.72,136.602z"/>
			<path style="fill-rule:evenodd;clip-rule:evenodd;fill:#17C6C1;" d="M641.84,102.7c-3.992,0-7.239-3.248-7.239-7.242
				c0-4.112,3.247-7.361,7.239-7.361h2.411c3.992,0,7.24,3.248,7.24,7.242c0,4.112-3.247,7.361-7.24,7.361H641.84z"/>
			<path style="fill-rule:evenodd;clip-rule:evenodd;fill:#F9BC50;" d="M638.464,95.339c0-1.866,1.511-3.379,3.376-3.379
				c0.787,0,1.624,0,2.411,0c1.864,0,3.376,1.513,3.376,3.379c0,0.04,0,0.08,0,0.12c0,1.866-1.512,3.379-3.376,3.379
				c-0.787,0-1.624,0-2.411,0c-1.865,0-3.376-1.513-3.376-3.379C638.464,95.419,638.464,95.379,638.464,95.339z"/>
			<path style="fill-rule:evenodd;clip-rule:evenodd;fill:#17C6C1;" d="M673.91,154.279c-3.992,0-7.24-3.248-7.24-7.242
				c0-4.112,3.247-7.361,7.24-7.361h2.411c3.992,0,7.239,3.248,7.239,7.242c0,4.112-3.247,7.361-7.239,7.361H673.91z"/>
			<path style="fill-rule:evenodd;clip-rule:evenodd;fill:#FFD479;" d="M670.534,146.918c0-1.866,1.511-3.379,3.376-3.379
				c0.787,0,1.624,0,2.411,0c1.864,0,3.376,1.513,3.376,3.379c0,0.04,0,0.08,0,0.12c0,1.866-1.512,3.379-3.376,3.379
				c-0.787,0-1.624,0-2.411,0c-1.865,0-3.376-1.513-3.376-3.379C670.534,146.998,670.534,146.958,670.534,146.918z"/>
		</g>
		<g>
			
				<line style="fill:none;stroke:#1FC8CC;stroke-width:4;stroke-linecap:round;stroke-linejoin:round;stroke-miterlimit:10;" x1="698.197" y1="140.01" x2="705.727" y2="140.01"/>
			
				<line style="fill:none;stroke:#1FC8CC;stroke-width:4;stroke-linecap:round;stroke-linejoin:round;stroke-miterlimit:10;" x1="721.877" y1="140.01" x2="713.049" y2="140.01"/>
			
				<line style="fill:none;stroke:#1FC8CC;stroke-width:4;stroke-linecap:round;stroke-linejoin:round;stroke-miterlimit:10;" x1="691.846" y1="140.01" x2="692.37" y2="140.01"/>
			
				<line style="fill:none;stroke:#1FC8CC;stroke-width:4;stroke-linecap:round;stroke-linejoin:round;stroke-miterlimit:10;" x1="709" y1="130.44" x2="705.879" y2="130.44"/>
			
				<line style="fill:none;stroke:#1FC8CC;stroke-width:4;stroke-linecap:round;stroke-linejoin:round;stroke-miterlimit:10;" x1="695.491" y1="130.44" x2="694.967" y2="130.44"/>
		</g>
		<g>
			
				<line style="fill:none;stroke:#1FC8CC;stroke-width:4;stroke-linecap:round;stroke-linejoin:round;stroke-miterlimit:10;" x1="607.913" y1="110.603" x2="615.442" y2="110.603"/>
			
				<line style="fill:none;stroke:#1FC8CC;stroke-width:4;stroke-linecap:round;stroke-linejoin:round;stroke-miterlimit:10;" x1="631.592" y1="110.603" x2="622.764" y2="110.603"/>
			
				<line style="fill:none;stroke:#1FC8CC;stroke-width:4;stroke-linecap:round;stroke-linejoin:round;stroke-miterlimit:10;" x1="601.562" y1="110.603" x2="602.086" y2="110.603"/>
			
				<line style="fill:none;stroke:#1FC8CC;stroke-width:4;stroke-linecap:round;stroke-linejoin:round;stroke-miterlimit:10;" x1="618.716" y1="101.033" x2="615.595" y2="101.033"/>
			
				<line style="fill:none;stroke:#1FC8CC;stroke-width:4;stroke-linecap:round;stroke-linejoin:round;stroke-miterlimit:10;" x1="605.206" y1="101.033" x2="604.683" y2="101.033"/>
		</g>
	</g>
	<g>
		<path style="fill-rule:evenodd;clip-rule:evenodd;fill:#F39836;" d="M887.019,21.283V-0.525c0-2.409,1.953-4.362,4.362-4.362
			h43.616c2.409,0,4.362,1.953,4.362,4.362v15.269H923.09c-2.198,0-4.347,0.592-6.232,1.723c-1.593,0.955-3.567,2.139-5.16,3.094
			c-1.885,1.13-4.033,1.722-6.231,1.722L887.019,21.283z"/>
		<g>
			<defs>
				<path id="SVGID_00000045607116370233410020000014834659542931239353_" d="M887.019,21.283V-0.525
					c0-2.409,1.953-4.362,4.362-4.362h43.616c2.409,0,4.362,1.953,4.362,4.362v15.269H923.09c-2.198,0-4.347,0.592-6.232,1.723
					c-1.593,0.955-3.567,2.139-5.16,3.094c-1.885,1.13-4.033,1.722-6.231,1.722L887.019,21.283z"/>
			</defs>
			<clipPath id="SVGID_00000103952947071413777530000011300404006919978430_">
				<use xlink:href="#SVGID_00000045607116370233410020000014834659542931239353_"  style="overflow:visible;"/>
			</clipPath>
			
				<path style="clip-path:url(#SVGID_00000103952947071413777530000011300404006919978430_);fill-rule:evenodd;clip-rule:evenodd;fill:#F08821;" d="
				M915.37,12.56c0-1.204,0.976-2.181,2.181-2.181c1.204,0,2.181,0.976,2.181,2.181c0,2.586,0,6.549,0,6.549h-4.362
				C915.37,19.108,915.37,15.145,915.37,12.56z"/>
		</g>
		<path style="fill-rule:evenodd;clip-rule:evenodd;fill:#F08821;" d="M895.742-4.887h34.893c0,0,0,2.201,0,4.392
			c0,1.15-0.457,2.252-1.269,3.065c-0.813,0.813-1.915,1.269-3.064,1.269c-6.706,0-19.519,0-26.225,0
			c-1.149,0-2.252-0.456-3.064-1.269c-0.813-0.813-1.269-1.915-1.269-3.065C895.742-2.686,895.742-4.887,895.742-4.887z"/>
		<path style="fill-rule:evenodd;clip-rule:evenodd;fill:#F08821;" d="M891.381,15.826c0-1.804,1.463-3.267,3.267-3.267
			c0.003,0,0.006,0,0.009,0c1.804,0,3.267,1.462,3.267,3.267c0,2.479,0,5.463,0,5.463h-6.542
			C891.381,21.289,891.381,18.305,891.381,15.826z"/>
	</g>
</g>
<g id="aulas" style="display:none;">
	<g style="display:inline;">
		<rect x="368.174" style="fill-rule:evenodd;clip-rule:evenodd;fill:#FFFFFF;" width="33.652" height="145"/>
		<circle style="fill-rule:evenodd;clip-rule:evenodd;fill:#5654A2;" cx="385" cy="72.5" r="42.5"/>
	</g>
</g>
</svg>
