<?xml version="1.0" encoding="utf-8"?>
<!-- Generator: Adobe Illustrator 27.8.1, SVG Export Plug-In . SVG Version: 6.00 Build 0)  -->
<svg version="1.1" xmlns="http://www.w3.org/2000/svg" xmlns:xlink="http://www.w3.org/1999/xlink" x="0px" y="0px" width="1500px"
	 height="145px" viewBox="0 0 1500 145" style="enable-background:new 0 0 1500 145;" xml:space="preserve">
<g id="background">
	<rect x="-80.448" y="-3336.777" style="fill:#04D5D8;" width="1640.647" height="4634.864"/>
	<g>
		<path style="fill:#57E9E4;" d="M1241.738-88.882h8.456c33.137,0,60-26.863,60-60v-16.68c0-35.472,28.756-64.228,64.228-64.228
			h159.471c0,0,0,0,0,0v-459.943v0h-416.574c-18.023,0-32.634-14.611-32.634-32.634v0c0-18.023-14.611-32.634-32.634-32.634h-54.02
			c-23.472,0-42.5-19.028-42.5-42.5v0c0-23.472-19.028-42.5-42.5-42.5h-41.148c-23.472,0-42.5-19.028-42.5-42.5v-31.588
			c0-24.301-19.699-44-44-44H583.491c-28.719,0-52,23.281-52,52v0.9c0,28.719-23.281,52-52,52H285.48c-28.719,0-52-23.281-52-52
			V-933c0-28.719-23.281-52-52-52h-336.245c0,0,0,0,0,0l-18.825,872.518c-0.497,21.933,17.146,39.981,39.085,39.981H145.45
			c43.697,0,79.121,35.424,79.121,79.121v0c0,43.697,35.424,79.121,79.121,79.121h306.919c36.428,0,65.959-29.531,65.959-65.959l0,0
			c0-36.428,29.531-65.959,65.959-65.959h224.3c36.428,0,65.959,29.531,65.959,65.959V75c0,38.66,31.34,70,70,70h431.105
			c0,0,0,0,0,0V49.254v0h-292.155c-33.137,0-60-26.863-60-60v-18.135C1181.738-62.019,1208.601-88.882,1241.738-88.882z"/>
		<g>
			<path style="fill:#E8F4F7;" d="M939.154-659.732c-77.193,0-139.771-62.578-139.771-139.771v-12.383
				c0-14.554-11.799-26.353-26.353-26.353h-9.724c-6.838,0-12.381-5.543-12.381-12.381l0,0c0-6.838-5.543-12.381-12.381-12.381
				h-21.388c-21.392,0-38.734-17.342-38.734-38.734v0c0-14.554-11.799-26.353-26.353-26.353h-68.578c-12.15,0-22,9.85-22,22v0.9
				c0,45.287-36.713,82-82,82H285.479c-45.287,0-82-36.713-82-82V-933c0-12.15-9.85-22-22-22h-306.885l-18.192,843.198
				c-0.076,3.33,1.589,5.542,2.589,6.564s3.173,2.737,6.503,2.737H145.45c60.099,0,109.006,48.837,109.121,108.908
				c0.052,27.133,21.988,49.334,49.121,49.334H610.61c19.833,0,35.973-16.057,35.959-35.89
				c-0.037-52.944,43.024-96.028,95.959-96.028h224.301c52.997,0,95.959,42.962,95.959,95.959V80c0,19.33,15.67,35,35,35h18.949
				c19.33,0,35-15.67,35-35V-28.882c0-49.706,40.294-90,90-90h8.456c16.569,0,30-13.431,30-30v-16.68
				c0-51.957,42.271-94.228,94.229-94.228l129.471-0.001v-399.942H939.154z"/>
		</g>
	</g>
	<path style="fill:#1FC8CC;" d="M1510.353-126.24h-88.665c-15.829,0-28.662,12.832-28.662,28.662v0
		c0,15.829-12.832,28.662-28.662,28.662h-22.12c-10.256,0-18.57,8.314-18.57,18.57v10.985c0,10.256,8.314,18.57,18.57,18.57h14.544
		c10.256,0,18.57,8.314,18.57,18.57v0c0,10.256,8.314,18.57,18.57,18.57h116.424c10.256,0,18.57-8.314,18.57-18.57V-107.67
		C1528.923-117.926,1520.609-126.24,1510.353-126.24z"/>
</g>
<g id="Details">
	<g>
		<path style="fill:#04D5D8;" d="M1238.344,83.502h-63.57c-1.788,0-3.252-1.463-3.252-3.252v0c0-1.788,1.463-3.252,3.252-3.252
			h63.57c1.788,0,3.252,1.463,3.252,3.252v0C1241.596,82.038,1240.133,83.502,1238.344,83.502z"/>
		<g id="Med_00000018920063379238262950000005732981321127605903_">
			<defs>
				<path id="SVGID_00000165922791318681055430000004690826343472774538_" d="M1237.296,80.25h-61.474l0.689-3.863
					c0.129-0.732,0.635-1.345,1.334-1.603l9.501-3.594c0.269,0,4.057-8.425,6.327-13.536c1.076-2.41,3.185-4.218,5.735-4.907
					l4.552-1.227c1.001-0.269,2.034,0.301,2.324,1.302l3.164,10.696c0.333,1.108,0.882,2.131,1.625,3.013l4.143,4.939l5.326-2.701
					c0.667-0.344,1.41-0.516,2.152-0.516l5.24,0.011c0.742,0,1.41,0.484,1.646,1.184l2.238,6.639l2.765-0.753
					c0.904-0.247,1.818,0.323,2.001,1.248L1237.296,80.25z"/>
			</defs>
			<clipPath id="SVGID_00000007427992055587636930000001723893323501497239_">
				<use xlink:href="#SVGID_00000165922791318681055430000004690826343472774538_"  style="overflow:visible;"/>
			</clipPath>
			<path style="clip-path:url(#SVGID_00000007427992055587636930000001723893323501497239_);fill:#F1F8FF;" d="M1237.296,80.25
				h-61.474l0.689-3.863c0.129-0.732,0.635-1.345,1.334-1.603l9.501-3.594c0.269,0,4.057-8.425,6.327-13.536
				c1.076-2.41,3.185-4.218,5.735-4.907l4.552-1.227c1.001-0.269,2.034,0.301,2.324,1.302l3.164,10.696
				c0.333,1.108,0.882,2.131,1.625,3.013l4.143,4.939l5.326-2.701c0.667-0.344,1.41-0.516,2.152-0.516l5.24,0.011
				c0.742,0,1.41,0.484,1.646,1.184l2.238,6.639l2.765-0.753c0.904-0.247,1.818,0.323,2.001,1.248L1237.296,80.25z"/>
			<path style="opacity:0.5;clip-path:url(#SVGID_00000007427992055587636930000001723893323501497239_);fill:#CBEDF6;" d="
				M1190.066,77.089L1190.066,77.089c1.527,0,2.777-1.25,2.777-2.777V55.743c0-1.527-1.25-2.777-2.777-2.777l0,0
				c-1.527,0-2.777,1.25-2.777,2.777v18.569C1187.289,75.839,1188.539,77.089,1190.066,77.089z"/>
			<path style="opacity:0.5;clip-path:url(#SVGID_00000007427992055587636930000001723893323501497239_);fill:#CBEDF6;" d="
				M1212.462,74.322L1212.462,74.322c1.531,0,2.784-1.253,2.784-2.784V60.164c0-1.531-1.253-2.784-2.784-2.784l0,0
				c-1.531,0-2.784,1.253-2.784,2.784v11.374C1209.678,73.07,1210.931,74.322,1212.462,74.322z"/>
			<path style="opacity:0.5;clip-path:url(#SVGID_00000007427992055587636930000001723893323501497239_);fill:#CBEDF6;" d="
				M1233.051,78.84L1233.051,78.84c0.688,0,1.251-0.563,1.251-1.251v-5.112c0-0.688-0.563-1.251-1.251-1.251l0,0
				c-0.688,0-1.251,0.563-1.251,1.251v5.112C1231.799,78.277,1232.362,78.84,1233.051,78.84z"/>
			<path style="clip-path:url(#SVGID_00000007427992055587636930000001723893323501497239_);fill:#F1F8FF;" d="M1197.817,80.25
				l22.726-11.481c0.667-0.344,1.41-0.516,2.152-0.516l5.24,0.011c0.742,0,1.41,0.484,1.646,1.184l3.72,10.803H1197.817z"/>
		</g>
	</g>
	<g>
		<path style="fill:#1FC8CC;" d="M994.717,14.363H893.958c-3.073,0-5.588-2.514-5.588-5.588v0c0-3.073,2.514-5.588,5.588-5.588
			h100.759c3.073,0,5.588,2.514,5.588,5.588v0C1000.304,11.848,997.79,14.363,994.717,14.363z"/>
		<g id="Large_00000055666315116707444160000009868274962892800444_">
			<defs>
				<path id="SVGID_00000179625427552638923970000011271478300647590071_" d="M991.831,8.775h-94.988l1.384-5.736
					c0.216-0.894,0.764-1.657,1.542-2.147l9.368-6.01l19.254-32.542c0.721-1.196,1.686-2.234,2.839-3.041l3.589-2.493
					c1.701-1.182,4.035-0.663,5.087,1.11l14.959,25.177l4.986-3.113c0.692-0.418,1.484-0.648,2.292-0.648h4.943
					c1.167,0,2.248,0.663,2.781,1.715l10.809,21.286l2.868-2.724c1.528-1.441,4.05-0.922,4.857,1.023L991.831,8.775z"/>
			</defs>
			<clipPath id="SVGID_00000031925162901226388790000015560711518230453176_">
				<use xlink:href="#SVGID_00000179625427552638923970000011271478300647590071_"  style="overflow:visible;"/>
			</clipPath>
			<path style="clip-path:url(#SVGID_00000031925162901226388790000015560711518230453176_);fill:#F1F8FF;" d="M991.831,8.775
				h-94.988l1.384-5.736c0.216-0.894,0.764-1.657,1.542-2.147l9.368-6.01l19.254-32.542c0.721-1.196,1.686-2.234,2.839-3.041
				l3.589-2.493c1.701-1.182,4.035-0.663,5.087,1.11l14.959,25.177l4.986-3.113c0.692-0.418,1.484-0.648,2.292-0.648h4.943
				c1.167,0,2.248,0.663,2.781,1.715l10.809,21.286l2.868-2.724c1.528-1.441,4.05-0.922,4.857,1.023L991.831,8.775z"/>
			<path style="opacity:0.5;clip-path:url(#SVGID_00000031925162901226388790000015560711518230453176_);fill:#CBEDF6;" d="
				M918.626,3.538L918.626,3.538c5.198,0,9.451-4.253,9.451-9.451V-44.53c0-5.198-4.253-9.451-9.451-9.451l0,0
				c-5.198,0-9.451,4.253-9.451,9.451v38.617C909.175-0.715,913.428,3.538,918.626,3.538z"/>
			<path style="opacity:0.5;clip-path:url(#SVGID_00000031925162901226388790000015560711518230453176_);fill:#CBEDF6;" d="
				M982.461,5.689L982.461,5.689c1.057,0,1.921-0.864,1.921-1.921v-7.849c0-1.057-0.864-1.921-1.921-1.921l0,0
				c-1.057,0-1.921,0.864-1.921,1.921v7.849C980.54,4.824,981.405,5.689,982.461,5.689z"/>
			<path style="clip-path:url(#SVGID_00000031925162901226388790000015560711518230453176_);fill:#F1F8FF;" d="M934.761-17.681
				l0.052-22.839c0.006-2.71,3.639-3.923,5.061-1.616c0.011,0.017,0.021,0.035,0.032,0.053l22.339,37.546
				c2.236,3.757-1.888,8.076-5.744,6.017l-15.104-8.065C937.303-8.773,934.75-13.04,934.761-17.681z"/>
			<polygon style="clip-path:url(#SVGID_00000031925162901226388790000015560711518230453176_);fill:#F1F8FF;" points="
				969.781,8.775 969.781,-18.953 983.988,8.775 			"/>
		</g>
	</g>
	<g>
		<path style="fill:#DAEDF2;" d="M553.939,35.963H526.73c-1.908,0-3.469-1.561-3.469-3.469v0c0-1.908,1.561-3.469,3.469-3.469
			h27.209c1.908,0,3.469,1.561,3.469,3.469v0C557.408,34.402,555.847,35.963,553.939,35.963z"/>
		<g id="Side_00000160875430933857111950000009837635879474960004_">
			<path id="Tail_00000083771957708959285140000004731724369559091875_" style="fill:#FFFFFF;" d="M555.258,19.661h-8.064l0,0
				c0-3.095,2.298-5.605,5.132-5.605h3.942h4.122C560.39,17.152,558.092,19.661,555.258,19.661z"/>
			<g id="Backleg_00000111888809122490917260000007482795531696175760_">
				<path style="fill:#F7F7F7;" d="M532.145,30.904h0.984l-0.42,1.59h-2.61l0,0C530.099,31.615,530.899,30.904,532.145,30.904z"/>
				<rect x="531.941" y="23.17" style="fill:#F7F7F7;" width="2.052" height="9.324"/>
				<path style="fill:#F7F7F7;" d="M533.039,26.214h-0.143c-1.122,0-2.031-0.909-2.031-2.031v-3.531c0-0.345,0.28-0.625,0.625-0.625
					h2.955c0.345,0,0.625,0.28,0.625,0.625v3.531C535.07,25.305,534.16,26.214,533.039,26.214z"/>
			</g>
			<g id="Front_x5F_leg_00000040565981800712756000000012159212707404370111_">
				<path style="fill:#FFFFFF;" d="M535.19,30.904h0.984l-0.42,1.59h-2.61l0,0C533.144,31.615,533.944,30.904,535.19,30.904z"/>
				<rect x="534.986" y="23.17" style="fill:#FFFFFF;" width="2.052" height="9.324"/>
				<path style="fill:#FFFFFF;" d="M536.083,26.214h-0.143c-1.122,0-2.031-0.909-2.031-2.031v-1.358c0-0.345,0.28-0.625,0.625-0.625
					h2.955c0.345,0,0.625,0.28,0.625,0.625v1.358C538.114,25.305,537.205,26.214,536.083,26.214z"/>
			</g>
			<g id="Back_x5F_leg_00000006676999175709501360000010437248501720179082_">
				<path style="fill:#F7F7F7;" d="M545.847,26.403v2.643h-2.407c-0.01,0-0.022,0-0.032-0.001c-2.106-0.017-3.808-1.729-3.808-3.839
					v-3.36h5.05v3.359C544.65,25.867,545.186,26.403,545.847,26.403L545.847,26.403z"/>
				<path style="fill:#F7F7F7;" d="M543.666,30.904h0.984l-0.42,1.59h-2.61l0,0C541.62,31.615,542.42,30.904,543.666,30.904z"/>
				<path style="fill:#F7F7F7;" d="M545.695,32.494h-1.956l1.516-5.913l0.453-0.186c1.399,0.094,1.137,1.159,0.843,2.335
					L545.695,32.494z"/>
				<path style="fill:#C1C5E5;" d="M543.44,29.046h-0.032v-0.001C543.419,29.046,543.43,29.046,543.44,29.046z"/>
			</g>
			<g id="Front_x5F_leg_00000169534434455632994930000016435806756054698159_">
				<path style="fill:#FFFFFF;" d="M549.548,26.403v2.643h-2.407c-0.01,0-0.021,0-0.032-0.001c-2.106-0.017-3.808-1.729-3.808-3.839
					v-3.36h5.05v3.359C548.351,25.867,548.887,26.403,549.548,26.403L549.548,26.403z"/>
				<path style="fill:#FFFFFF;" d="M547.367,30.904h0.984l-0.42,1.59h-2.61l0,0C545.321,31.615,546.121,30.904,547.367,30.904z"/>
				<path style="fill:#FFFFFF;" d="M549.396,32.494h-1.956l1.516-5.913l0.453-0.186c1.399,0.094,1.137,1.159,0.844,2.335
					L549.396,32.494z"/>
				<path style="fill:#D5DAF3;" d="M547.141,29.046h-0.032v-0.001C547.12,29.046,547.131,29.046,547.141,29.046z"/>
			</g>
			<path id="Body_00000177471058377387504530000004072350457261529229_" style="fill:#FFFFFF;" d="M548.351,23.82h-15.248
				c-1.232,0-2.231-0.999-2.231-2.232v-4.73h17.479V23.82z"/>
			<g id="Head_x5F_front_00000172440040303688600540000012795783585654422705_">
				<g id="Head_00000023283242307938763210000010038390437959263669_">
					<g id="Ears_00000083805323075292620160000001356917046433717665_">
						<path style="fill:#FFFFFF;" d="M529.459,14.81h-4.816l2.442-4.764c0.15-0.293,0.451-0.477,0.78-0.477l0,0
							c0.43,0,0.797,0.312,0.866,0.737L529.459,14.81z"/>
					</g>
					<g>
						<g>
							<path style="fill:#FFFFFF;" d="M535.929,10.525l-1.881,7.709c0,1.322-1.072,2.393-2.394,2.393h-8.153v-3.591l1.289-2.515
								h4.637l5.232-4.751c0.142-0.129,0.327-0.201,0.519-0.201l0,0C535.679,9.569,536.048,10.038,535.929,10.525z"/>
						</g>
					</g>
					<g>
						<defs>
							<path id="Snot_00000108291146166339999720000007802157137359119768_" d="M524.865,20.627h-2.528
								c-0.781,0-1.415-0.634-1.415-1.415l0,0c0-0.54,0.307-1.032,0.791-1.27l1.804-0.885c0.961-0.472,2.083,0.228,2.083,1.298
								v1.537C525.6,20.298,525.271,20.627,524.865,20.627z"/>
						</defs>
						<use xlink:href="#Snot_00000108291146166339999720000007802157137359119768_"  style="overflow:visible;fill:#FFFFFF;"/>
						<clipPath id="Snot_00000081618125731522479370000009477984365067908994_">
							<use xlink:href="#Snot_00000108291146166339999720000007802157137359119768_"  style="overflow:visible;"/>
						</clipPath>
						
							<path id="Snot_00000036932980239109573030000002835730439613550500_" style="clip-path:url(#Snot_00000081618125731522479370000009477984365067908994_);fill:#F7F7F7;" d="
							M524.865,20.627h-2.528c-0.781,0-1.415-0.634-1.415-1.415l0,0c0-0.54,0.307-1.032,0.791-1.27l1.804-0.885
							c0.961-0.472,2.083,0.228,2.083,1.298v1.537C525.6,20.298,525.271,20.627,524.865,20.627z"/>
						
							<rect id="boop_00000127037331885636548070000015296069043855269283_" x="519.362" y="18.513" style="clip-path:url(#Snot_00000081618125731522479370000009477984365067908994_);" width="2.749" height="1.063"/>
					</g>
					<rect id="Eye_00000105400770434784015770000016546541929932804537_" x="526.986" y="16.561" width="3.06" height="1.07"/>
				</g>
			</g>
		</g>
	</g>
	<g>
		
			<line style="fill:none;stroke:#04D5D8;stroke-width:3;stroke-linecap:round;stroke-linejoin:round;stroke-miterlimit:10;" x1="1311.959" y1="81.143" x2="1304.587" y2="81.143"/>
		
			<line style="fill:none;stroke:#04D5D8;stroke-width:3;stroke-linecap:round;stroke-linejoin:round;stroke-miterlimit:10;" x1="1288.774" y1="81.143" x2="1297.418" y2="81.143"/>
		
			<line style="fill:none;stroke:#04D5D8;stroke-width:3;stroke-linecap:round;stroke-linejoin:round;stroke-miterlimit:10;" x1="1318.177" y1="81.143" x2="1317.664" y2="81.143"/>
		
			<line style="fill:none;stroke:#04D5D8;stroke-width:3;stroke-linecap:round;stroke-linejoin:round;stroke-miterlimit:10;" x1="1301.381" y1="90.514" x2="1304.437" y2="90.514"/>
		
			<line style="fill:none;stroke:#04D5D8;stroke-width:3;stroke-linecap:round;stroke-linejoin:round;stroke-miterlimit:10;" x1="1314.609" y1="90.514" x2="1315.121" y2="90.514"/>
	</g>
	<g>
		
			<line style="fill:none;stroke:#04D5D8;stroke-width:3;stroke-linecap:round;stroke-linejoin:round;stroke-miterlimit:10;" x1="1215.043" y1="90.184" x2="1207.671" y2="90.184"/>
		
			<line style="fill:none;stroke:#04D5D8;stroke-width:3;stroke-linecap:round;stroke-linejoin:round;stroke-miterlimit:10;" x1="1191.858" y1="90.184" x2="1200.501" y2="90.184"/>
		
			<line style="fill:none;stroke:#04D5D8;stroke-width:3;stroke-linecap:round;stroke-linejoin:round;stroke-miterlimit:10;" x1="1221.261" y1="90.184" x2="1220.748" y2="90.184"/>
		
			<line style="fill:none;stroke:#04D5D8;stroke-width:3;stroke-linecap:round;stroke-linejoin:round;stroke-miterlimit:10;" x1="1204.465" y1="99.554" x2="1207.521" y2="99.554"/>
		
			<line style="fill:none;stroke:#04D5D8;stroke-width:3;stroke-linecap:round;stroke-linejoin:round;stroke-miterlimit:10;" x1="1217.692" y1="99.554" x2="1218.205" y2="99.554"/>
	</g>
	<g>
		<g>
			<path style="fill:#B7DCE5;" d="M1126.868,70.388h-13.406c-1.242,0-2.259-1.016-2.259-2.259l0,0c0-1.242,1.016-2.259,2.259-2.259
				h13.406c1.242,0,2.259,1.016,2.259,2.259l0,0C1129.126,69.371,1128.11,70.388,1126.868,70.388z"/>
			<g>
				<rect x="1115.63" y="66.571" style="fill-rule:evenodd;clip-rule:evenodd;" width="3.627" height="1.814"/>
				<path style="fill-rule:evenodd;clip-rule:evenodd;fill:#E9E9E9;" d="M1122.885,50.247h-5.441l-2.721,3.118c0,0,0,8.605,0,11.923
					c0,0.709,0.574,1.283,1.283,1.283c2.094,0,6.222,0,8.316,0c0.709,0,1.283-0.574,1.283-1.283c0-3.389,0-12.32,0-12.32
					L1122.885,50.247z"/>
				<rect x="1121.071" y="66.571" style="fill-rule:evenodd;clip-rule:evenodd;" width="3.627" height="1.814"/>
				<path style="fill-rule:evenodd;clip-rule:evenodd;fill:#F9BA2D;" d="M1125.399,46.62c0-1.002-0.812-1.814-1.814-1.814
					c-2.405,0-4.179,0-4.179,0v1.814H1125.399z"/>
				<path style="fill-rule:evenodd;clip-rule:evenodd;fill:#FAD12C;" d="M1123.792,50.247h-7.255c0,0,0,1.298,0,2.721
					c0,2.003,1.624,3.627,3.627,3.627c2.003,0,3.627-1.624,3.627-3.627C1123.792,51.545,1123.792,50.247,1123.792,50.247z"/>
				<path style="fill-rule:evenodd;clip-rule:evenodd;" d="M1122.885,46.62c0-0.722-0.287-1.414-0.797-1.924
					s-1.202-0.797-1.924-0.797s-1.414,0.287-1.924,0.797c-0.51,0.51-0.797,1.202-0.797,1.924c0,1.723,0,3.627,0,3.627h5.441
					C1122.885,50.247,1122.885,48.342,1122.885,46.62z"/>
				<path style="fill-rule:evenodd;clip-rule:evenodd;" d="M1118.056,49.431l0.204-1.814c0,0-3.409,3.409-5.194,5.194
					c-0.68,0.68-1.062,1.603-1.062,2.565c0,1.519,0,3.901,0,5.752c0,1.503,1.218,2.721,2.721,2.721c0,0,0-6.63,0-9.08
					c0-0.581,0.188-1.147,0.537-1.612C1116.203,51.901,1118.056,49.431,1118.056,49.431z"/>
				<path style="fill-rule:evenodd;clip-rule:evenodd;" d="M1122.273,49.431l-0.204-1.814c0,0,3.409,3.409,5.194,5.194
					c0.68,0.68,1.062,1.603,1.062,2.565c0,1.519,0,3.901,0,5.752c0,1.503-1.218,2.721-2.721,2.721c0,0,0-6.63,0-9.08
					c0-0.581-0.189-1.147-0.537-1.612C1124.126,51.901,1122.273,49.431,1122.273,49.431z"/>
			</g>
		</g>
		<g>
			<path style="fill:#B7DCE5;" d="M1093.045,84.897h13.406c1.242,0,2.259-1.016,2.259-2.259v0c0-1.242-1.016-2.259-2.259-2.259
				h-13.406c-1.242,0-2.259,1.016-2.259,2.259v0C1090.786,83.881,1091.802,84.897,1093.045,84.897z"/>
			<g>
				<rect x="1100.654" y="81.08" style="fill-rule:evenodd;clip-rule:evenodd;" width="3.627" height="1.814"/>
				<path style="fill-rule:evenodd;clip-rule:evenodd;fill:#E9E9E9;" d="M1097.027,64.757h5.441l2.721,3.118c0,0,0,8.605,0,11.923
					c0,0.709-0.574,1.283-1.283,1.283c-2.094,0-6.222,0-8.316,0c-0.709,0-1.283-0.574-1.283-1.283c0-3.389,0-12.32,0-12.32
					L1097.027,64.757z"/>
				<rect x="1095.213" y="81.08" style="fill-rule:evenodd;clip-rule:evenodd;" width="3.627" height="1.814"/>
				<path style="fill-rule:evenodd;clip-rule:evenodd;fill:#F9BA2D;" d="M1094.513,61.129c0-1.002,0.812-1.814,1.814-1.814
					c2.405,0,4.179,0,4.179,0v1.814H1094.513z"/>
				<path style="fill-rule:evenodd;clip-rule:evenodd;fill:#FAD12C;" d="M1096.12,64.757h7.255c0,0,0,1.298,0,2.721
					c0,2.003-1.624,3.627-3.627,3.627c-2.003,0-3.627-1.624-3.627-3.627C1096.12,66.055,1096.12,64.757,1096.12,64.757z"/>
				<path style="fill-rule:evenodd;clip-rule:evenodd;" d="M1097.027,61.129c0-0.722,0.287-1.414,0.797-1.924
					c0.51-0.51,1.202-0.797,1.924-0.797c0.722,0,1.414,0.287,1.924,0.797c0.51,0.51,0.797,1.202,0.797,1.924
					c0,1.723,0,3.627,0,3.627h-5.441C1097.027,64.757,1097.027,62.852,1097.027,61.129z"/>
				<path style="fill-rule:evenodd;clip-rule:evenodd;" d="M1101.856,63.941l-0.204-1.814c0,0,3.409,3.409,5.195,5.194
					c0.68,0.68,1.062,1.603,1.062,2.565c0,1.519,0,3.9,0,5.752c0,1.503-1.218,2.721-2.721,2.721c0,0,0-6.63,0-9.08
					c0-0.581-0.188-1.147-0.537-1.612C1103.709,66.411,1101.856,63.941,1101.856,63.941z"/>
				<path style="fill-rule:evenodd;clip-rule:evenodd;" d="M1097.639,63.941l0.204-1.814c0,0-3.409,3.409-5.194,5.194
					c-0.68,0.68-1.062,1.603-1.062,2.565c0,1.519,0,3.9,0,5.752c0,1.503,1.218,2.721,2.721,2.721c0,0,0-6.63,0-9.08
					c0-0.581,0.189-1.147,0.537-1.612C1095.786,66.411,1097.639,63.941,1097.639,63.941z"/>
			</g>
		</g>
		<g>
			<path style="fill:#B7DCE5;" d="M1111.026,86.884h7.395c0.685,0,1.246-0.561,1.246-1.246v0c0-0.685-0.561-1.246-1.246-1.246
				h-7.395c-0.685,0-1.246,0.561-1.246,1.246v0C1109.78,86.323,1110.34,86.884,1111.026,86.884z"/>
			<g>
				<rect x="1115.224" y="84.778" style="fill-rule:evenodd;clip-rule:evenodd;" width="2.001" height="1.001"/>
				<path style="fill-rule:evenodd;clip-rule:evenodd;fill:#E9E9E9;" d="M1113.223,75.773h3.002l1.501,1.72c0,0,0,4.747,0,6.577
					c0,0.391-0.317,0.708-0.708,0.708c-1.155,0-3.432,0-4.588,0c-0.391,0-0.708-0.317-0.708-0.708c0-1.869,0-6.796,0-6.796
					L1113.223,75.773z"/>
				<rect x="1112.222" y="84.778" style="fill-rule:evenodd;clip-rule:evenodd;" width="2.001" height="1.001"/>
				<path style="fill-rule:evenodd;clip-rule:evenodd;fill:#F9BA2D;" d="M1111.836,73.772c0-0.553,0.448-1.001,1.001-1.001
					c1.327,0,2.305,0,2.305,0v1.001H1111.836z"/>
				<path style="fill-rule:evenodd;clip-rule:evenodd;fill:#B7DCE5;" d="M1112.722,75.773h4.002c0,0,0,0.716,0,1.501
					c0,1.105-0.896,2.001-2.001,2.001c-1.105,0-2.001-0.896-2.001-2.001C1112.722,76.489,1112.722,75.773,1112.722,75.773z"/>
				<path style="fill-rule:evenodd;clip-rule:evenodd;" d="M1113.223,73.772c0-0.398,0.158-0.78,0.44-1.061
					c0.281-0.281,0.663-0.44,1.061-0.44s0.78,0.158,1.061,0.44c0.281,0.281,0.44,0.663,0.44,1.061c0,0.95,0,2.001,0,2.001h-3.002
					C1113.223,75.773,1113.223,74.722,1113.223,73.772z"/>
				<path style="fill-rule:evenodd;clip-rule:evenodd;" d="M1115.887,75.323l-0.112-1.001c0,0,1.881,1.881,2.865,2.866
					c0.375,0.375,0.586,0.884,0.586,1.415c0,0.838,0,2.152,0,3.173c0,0.829-0.672,1.501-1.501,1.501c0,0,0-3.658,0-5.009
					c0-0.321-0.104-0.633-0.296-0.889C1116.909,76.686,1115.887,75.323,1115.887,75.323z"/>
				<path style="fill-rule:evenodd;clip-rule:evenodd;" d="M1113.56,75.323l0.113-1.001c0,0-1.881,1.881-2.865,2.866
					c-0.375,0.375-0.586,0.884-0.586,1.415c0,0.838,0,2.152,0,3.173c0,0.829,0.672,1.501,1.501,1.501c0,0,0-3.658,0-5.009
					c0-0.321,0.104-0.633,0.296-0.889C1112.538,76.686,1113.56,75.323,1113.56,75.323z"/>
			</g>
		</g>
		<g>
			<path style="fill:#B7DCE5;" d="M1092.783,86.884h-7.395c-0.685,0-1.246-0.561-1.246-1.246v0c0-0.685,0.561-1.246,1.246-1.246
				h7.395c0.685,0,1.246,0.561,1.246,1.246v0C1094.029,86.323,1093.469,86.884,1092.783,86.884z"/>
			<g>
				<rect x="1086.584" y="84.778" style="fill-rule:evenodd;clip-rule:evenodd;" width="2.001" height="1.001"/>
				<path style="fill-rule:evenodd;clip-rule:evenodd;fill:#E9E9E9;" d="M1090.587,75.773h-3.002l-1.501,1.72c0,0,0,4.747,0,6.577
					c0,0.391,0.317,0.708,0.708,0.708c1.155,0,3.432,0,4.588,0c0.391,0,0.708-0.317,0.708-0.708c0-1.869,0-6.796,0-6.796
					L1090.587,75.773z"/>
				<rect x="1089.586" y="84.778" style="fill-rule:evenodd;clip-rule:evenodd;" width="2.001" height="1.001"/>
				<path style="fill-rule:evenodd;clip-rule:evenodd;fill:#F9BA2D;" d="M1091.974,73.772c0-0.553-0.448-1.001-1.001-1.001
					c-1.327,0-2.305,0-2.305,0v1.001H1091.974z"/>
				<path style="fill-rule:evenodd;clip-rule:evenodd;fill:#B7DCE5;" d="M1091.087,75.773h-4.002c0,0,0,0.716,0,1.501
					c0,1.105,0.896,2.001,2.001,2.001s2.001-0.896,2.001-2.001C1091.087,76.489,1091.087,75.773,1091.087,75.773z"/>
				<path style="fill-rule:evenodd;clip-rule:evenodd;" d="M1090.587,73.772c0-0.398-0.158-0.78-0.44-1.061
					c-0.281-0.281-0.663-0.44-1.061-0.44s-0.78,0.158-1.061,0.44c-0.281,0.281-0.44,0.663-0.44,1.061c0,0.95,0,2.001,0,2.001h3.002
					C1090.587,75.773,1090.587,74.722,1090.587,73.772z"/>
				<path style="fill-rule:evenodd;clip-rule:evenodd;" d="M1087.923,75.323l0.112-1.001c0,0-1.881,1.881-2.865,2.866
					c-0.375,0.375-0.586,0.884-0.586,1.415c0,0.838,0,2.152,0,3.173c0,0.829,0.672,1.501,1.501,1.501c0,0,0-3.658,0-5.009
					c0-0.321,0.104-0.633,0.296-0.889C1086.901,76.686,1087.923,75.323,1087.923,75.323z"/>
				<path style="fill-rule:evenodd;clip-rule:evenodd;" d="M1090.249,75.323l-0.113-1.001c0,0,1.881,1.881,2.865,2.866
					c0.375,0.375,0.586,0.884,0.586,1.415c0,0.838,0,2.152,0,3.173c0,0.829-0.672,1.501-1.501,1.501c0,0,0-3.658,0-5.009
					c0-0.321-0.104-0.633-0.296-0.889C1091.271,76.686,1090.249,75.323,1090.249,75.323z"/>
			</g>
		</g>
	</g>
	<g>
		<path style="fill:#1FC8CC;" d="M717.271,107.144l9.964-2.324c1.327-0.31,2.722-0.08,3.88,0.638
			c6.044,3.749,13.352,12.012,14.2,12.666c0,0,62.037,1.35,73.24,0.409c1.094-0.092,2.189-0.155,3.286-0.196
			c8.6-0.323,39.504-4.559,57.958-5.324c0.446-0.019,0.891,0.023,1.327,0.12v0c4.635,1.034,6.228,6.58,3.331,9.932l0.167,0.094
			c-0.193,0.34-0.386,0.677-0.579,1.012c-0.354,0.614-0.71,1.216-1.066,1.81c-1.548,4.283-6.263,13.026-7.434,14.531
			c-1.187,1.527-0.693,0.995-1.187,1.527c-10.583,11.386-25.684,17.346-40.974,16.639l0,0c0.103,2.207,0.192,4.11,0.255,5.453
			c0.002,0.044,0.002,0.087,0.003,0.13c0.027,1.296-0.442,2.546-1.317,3.493c-1.778,1.923-4.841,5.236-6.834,7.393
			c-0.358,0.387-0.91,0.532-1.42,0.373c-0.51-0.159-0.889-0.595-0.975-1.121c-0.373-2.28-0.933-5.704-1.538-9.404
			c-0.458-2.8-0.942-5.759-1.39-8.499c-1.62-0.407-3.258-0.851-4.909-1.325c-1.997,1.71-3.995,3.421-5.784,4.953
			c-1.704,1.459-3.219,2.756-4.364,3.737c-0.41,0.351-0.984,0.436-1.478,0.22c-0.495-0.216-0.821-0.696-0.842-1.235
			c-0.059-1.564-0.133-3.563-0.206-5.499c-0.067-1.781-0.131-3.509-0.179-4.792c-0.019-0.515,0.039-1.024,0.169-1.513
			c-22.126-7.962-44.034-19.416-52.931-24.258c-0.333-0.144-0.665-0.287-0.999-0.432c-0.055-0.024-0.11-0.048-0.166-0.072
			l-1.812-0.783l0.098-0.227c-0.622-0.195-1.243-0.39-1.865-0.582c-0.515,0.172-1.025,0.328-1.531,0.461
			c-2.136,0.815-11.169,4.904-17.678,5.874c-1.347,0.201-2.719-0.141-3.815-0.951l-8.228-6.082c-0.362-0.268-0.612-0.679-0.623-1.13
			c-0.017-0.665,0.422-1.231,1.039-1.398c3.015-0.813,8.049-2.172,13.056-3.523c-4.022-3.192-8.048-6.388-10.469-8.309
			c-0.5-0.397-0.679-1.091-0.4-1.695C716.44,107.525,716.832,107.246,717.271,107.144z"/>
	</g>
	<g>
		<path style="fill:#04D5D8;" d="M1270.063,63.682l-3.576,3.561c-0.629,0.626-1.48,0.978-2.368,0.978h-3.239
			c-0.741,0-1.342,0.601-1.342,1.342v2.015c0,1.854,1.503,3.356,3.356,3.356h2.61h24.553h2.143c2.189,0,4.267-0.961,5.684-2.63
			l2.67-3.143c0.515-0.607,0.798-1.377,0.798-2.173v-2.123c0-1.854-1.503-3.356-3.356-3.356h-22.671
			C1273.353,61.509,1271.461,62.29,1270.063,63.682z"/>
		<path style="fill:#F3FAFF;" d="M1270.063,60.381l-3.576,3.561c-0.629,0.626-1.48,0.978-2.368,0.978h-1.224
			c-1.854,0-3.356,1.503-3.356,3.356v0c0,1.854,1.503,3.356,3.356,3.356h2.61h24.553h2.143c2.189,0,4.267-0.962,5.684-2.63
			l2.67-3.143c0.515-0.607,0.798-1.377,0.798-2.173v-2.123c0-1.854-1.503-3.356-3.356-3.356h-22.671
			C1273.353,58.208,1271.461,58.989,1270.063,60.381z"/>
		
			<line style="fill:none;stroke:#FFFFFF;stroke-width:2.7999;stroke-linecap:round;stroke-miterlimit:10;" x1="1276.003" y1="63.069" x2="1294.832" y2="63.069"/>
	</g>
	<g>
		<path style="fill:#1FC8CC;" d="M1259.243,28.87h-4.431c-1.781,0-3.51,0.597-4.912,1.694l-3.83,2.999
			c-1.402,1.098-3.131,1.694-4.912,1.694h-12.98c-4.4,0-7.967-3.567-7.967-7.967v-7.19c0-4.4,3.567-7.967,7.967-7.967h29.671
			c3.849,0,6.969,3.12,6.969,6.969v4.191C1264.818,26.374,1262.322,28.87,1259.243,28.87z"/>
		<path style="fill:#F3FAFF;" d="M1259.94,25.51h-6.521c-1.781,0-3.51,0.597-4.912,1.694l-3.83,2.999
			c-1.402,1.098-3.131,1.694-4.912,1.694h-11.586c-4.4,0-7.967-3.567-7.967-7.967v-7.19c0-4.4,3.567-7.967,7.967-7.967h26.883
			c5.388,0,9.757,4.368,9.757,9.757v2.1C1264.818,23.326,1262.634,25.51,1259.94,25.51z"/>
		
			<line style="fill:none;stroke:#FFFFFF;stroke-width:2.7876;stroke-linecap:round;stroke-miterlimit:10;" x1="1233.163" y1="14.695" x2="1253.304" y2="14.695"/>
	</g>
	<g>
		<path style="fill:#04D5D8;" d="M1250.718,115.309L1250.718,115.309c-0.696,0-1.377-0.198-1.964-0.571l-14.969-9.5
			c-1.06-0.672-1.702-1.84-1.702-3.095v-5.469c0-2.025,1.641-3.666,3.666-3.666h8.323c0.687,0,1.36,0.193,1.943,0.557l6.646,4.154
			c1.072,0.67,1.723,1.845,1.723,3.109v10.815C1254.384,113.668,1252.742,115.309,1250.718,115.309z"/>
		<path style="fill:#F3FAFF;" d="M1250.718,111.482L1250.718,111.482c-0.696,0-1.377-0.198-1.964-0.571l-14.969-9.5
			c-1.06-0.672-1.702-1.84-1.702-3.095v-5.469c0-2.025,1.641-3.666,3.666-3.666h8.323c0.687,0,1.36,0.193,1.943,0.557l6.646,4.154
			c1.072,0.67,1.723,1.845,1.723,3.109v10.815C1254.384,109.84,1252.742,111.482,1250.718,111.482z"/>
		
			<line style="fill:none;stroke:#FFFFFF;stroke-width:2.7851;stroke-linecap:round;stroke-miterlimit:10;" x1="1244.187" y1="100.795" x2="1249.008" y2="100.795"/>
		
			<line style="fill:none;stroke:#FFFFFF;stroke-width:2.7851;stroke-linecap:round;stroke-miterlimit:10;" x1="1236.748" y1="94.926" x2="1245.606" y2="94.926"/>
	</g>
	<g>
		<g>
			<path style="fill:#1FC8CC;" d="M1030.691,130.762h-79.733c-2.432,0-4.422-1.99-4.422-4.422v0c0-2.432,1.99-4.422,4.422-4.422
				h79.733c2.432,0,4.422,1.99,4.422,4.422v0C1035.112,128.772,1033.123,130.762,1030.691,130.762z"/>
			<g id="Large_00000012444847487181755100000018400509362702757250_">
				<defs>
					<path id="SVGID_00000039832353860786023360000016822397369094902972_" d="M1028.407,126.341h-75.166l1.095-4.539
						c0.171-0.707,0.604-1.311,1.22-1.699l7.413-4.756l15.236-25.751c0.57-0.947,1.334-1.768,2.247-2.406l2.84-1.973
						c1.346-0.935,3.193-0.525,4.026,0.878l11.838,19.924l3.946-2.463c0.547-0.331,1.175-0.513,1.813-0.513h3.912
						c0.924,0,1.779,0.525,2.201,1.357l8.553,16.844l2.269-2.155c1.209-1.14,3.205-0.73,3.843,0.81L1028.407,126.341z"/>
				</defs>
				<clipPath id="SVGID_00000012474646833735246590000014683508516120666528_">
					<use xlink:href="#SVGID_00000039832353860786023360000016822397369094902972_"  style="overflow:visible;"/>
				</clipPath>
				<path style="clip-path:url(#SVGID_00000012474646833735246590000014683508516120666528_);fill:#F1F8FF;" d="M1028.407,126.341
					h-75.166l1.095-4.539c0.171-0.707,0.604-1.311,1.22-1.699l7.413-4.756l15.236-25.751c0.57-0.947,1.334-1.768,2.247-2.406
					l2.84-1.973c1.346-0.935,3.193-0.525,4.026,0.878l11.838,19.924l3.946-2.463c0.547-0.331,1.175-0.513,1.813-0.513h3.912
					c0.924,0,1.779,0.525,2.201,1.357l8.553,16.844l2.269-2.155c1.209-1.14,3.205-0.73,3.843,0.81L1028.407,126.341z"/>
				<path style="opacity:0.5;clip-path:url(#SVGID_00000012474646833735246590000014683508516120666528_);fill:#CBEDF6;" d="
					M970.478,122.196L970.478,122.196c4.113,0,7.479-3.366,7.479-7.479V84.159c0-4.113-3.366-7.479-7.479-7.479l0,0
					c-4.114,0-7.479,3.366-7.479,7.479v30.559C962.999,118.831,966.365,122.196,970.478,122.196z"/>
				<path style="opacity:0.5;clip-path:url(#SVGID_00000012474646833735246590000014683508516120666528_);fill:#CBEDF6;" d="
					M1001.993,113.487L1001.993,113.487c1.572,0,2.858-1.286,2.858-2.858V98.953c0-1.572-1.286-2.858-2.858-2.858h0
					c-1.572,0-2.858,1.286-2.858,2.858v11.677C999.135,112.201,1000.421,113.487,1001.993,113.487z"/>
				<path style="opacity:0.5;clip-path:url(#SVGID_00000012474646833735246590000014683508516120666528_);fill:#CBEDF6;" d="
					M1020.992,123.898L1020.992,123.898c0.836,0,1.52-0.684,1.52-1.52v-6.211c0-0.836-0.684-1.52-1.52-1.52l0,0
					c-0.836,0-1.52,0.684-1.52,1.52v6.211C1019.472,123.214,1020.156,123.898,1020.992,123.898z"/>
				<path style="clip-path:url(#SVGID_00000012474646833735246590000014683508516120666528_);fill:#F1F8FF;" d="M983.246,105.405
					l0.041-18.073c0.005-2.145,2.88-3.105,4.005-1.279c0.009,0.014,0.017,0.028,0.025,0.042l17.678,29.711
					c1.769,2.973-1.494,6.391-4.546,4.761l-11.952-6.382C985.257,112.454,983.237,109.077,983.246,105.405z"/>
				<polygon style="clip-path:url(#SVGID_00000012474646833735246590000014683508516120666528_);fill:#F1F8FF;" points="
					1010.959,126.341 1010.959,104.399 1022.201,126.341 				"/>
			</g>
		</g>
		<g>
			<path style="opacity:0.5;fill:#CBEDF6;" d="M977.45,98.328h12.149c1.126,0,2.047-0.921,2.047-2.047l0,0
				c0-1.126-0.921-2.047-2.047-2.047H977.45c-1.126,0-2.047,0.921-2.047,2.047l0,0C975.403,97.407,976.324,98.328,977.45,98.328z"/>
			<g>
				<rect x="984.346" y="94.869" style="fill-rule:evenodd;clip-rule:evenodd;" width="3.287" height="1.644"/>
				<path style="fill-rule:evenodd;clip-rule:evenodd;fill:#E9E9E9;" d="M981.059,80.076h4.931l2.466,2.826c0,0,0,7.798,0,10.805
					c0,0.642-0.521,1.163-1.163,1.163c-1.898,0-5.639,0-7.537,0c-0.642,0-1.163-0.521-1.163-1.163c0-3.071,0-11.165,0-11.165
					L981.059,80.076z"/>
				<rect x="979.415" y="94.869" style="fill-rule:evenodd;clip-rule:evenodd;" width="3.287" height="1.644"/>
				<path style="fill-rule:evenodd;clip-rule:evenodd;fill:#F9BA2D;" d="M978.78,76.788c0-0.908,0.736-1.644,1.644-1.644
					c2.179,0,3.787,0,3.787,0v1.644H978.78z"/>
				<path style="fill-rule:evenodd;clip-rule:evenodd;fill:#FAD12C;" d="M980.237,80.076h6.575c0,0,0,1.177,0,2.466
					c0,1.816-1.472,3.287-3.287,3.287s-3.287-1.472-3.287-3.287C980.237,81.252,980.237,80.076,980.237,80.076z"/>
				<path style="fill-rule:evenodd;clip-rule:evenodd;" d="M981.059,76.788c0-0.654,0.26-1.281,0.722-1.743
					c0.462-0.462,1.089-0.722,1.743-0.722c0.654,0,1.281,0.26,1.743,0.722c0.462,0.462,0.722,1.09,0.722,1.743
					c0,1.561,0,3.287,0,3.287h-4.931C981.059,80.076,981.059,78.349,981.059,76.788z"/>
				<path style="fill-rule:evenodd;clip-rule:evenodd;" d="M985.435,79.336l-0.185-1.644c0,0,3.089,3.09,4.708,4.708
					c0.617,0.617,0.963,1.453,0.963,2.325c0,1.377,0,3.535,0,5.213c0,1.362-1.104,2.466-2.466,2.466c0,0,0-6.009,0-8.229
					c0-0.527-0.171-1.039-0.487-1.461C987.114,81.575,985.435,79.336,985.435,79.336z"/>
				<path style="fill-rule:evenodd;clip-rule:evenodd;" d="M981.613,79.336l0.185-1.644c0,0-3.089,3.09-4.708,4.708
					c-0.617,0.617-0.963,1.453-0.963,2.325c0,1.377,0,3.535,0,5.213c0,1.362,1.104,2.466,2.466,2.466c0,0,0-6.009,0-8.229
					c0-0.527,0.171-1.039,0.487-1.461C979.934,81.575,981.613,79.336,981.613,79.336z"/>
			</g>
		</g>
		<g>
			<path style="fill:#1FC8CC;" d="M952.051,107.522L952.051,107.522c-0.696,0-1.377-0.198-1.964-0.571l-14.969-9.5
				c-1.06-0.672-1.702-1.84-1.702-3.095v-5.469c0-2.025,1.641-3.666,3.666-3.666h8.323c0.687,0,1.36,0.193,1.943,0.557l6.646,4.154
				c1.072,0.67,1.723,1.845,1.723,3.109v10.815C955.717,105.881,954.076,107.522,952.051,107.522z"/>
			<path style="fill:#F3FAFF;" d="M952.051,103.695L952.051,103.695c-0.696,0-1.377-0.198-1.964-0.571l-14.969-9.5
				c-1.06-0.672-1.702-1.84-1.702-3.095v-5.469c0-2.025,1.641-3.666,3.666-3.666h8.323c0.687,0,1.36,0.193,1.943,0.557l6.646,4.154
				c1.072,0.67,1.723,1.845,1.723,3.109v10.815C955.717,102.053,954.076,103.695,952.051,103.695z"/>
			
				<line style="fill:none;stroke:#FFFFFF;stroke-width:2.7851;stroke-linecap:round;stroke-miterlimit:10;" x1="945.521" y1="93.008" x2="950.342" y2="93.008"/>
			
				<line style="fill:none;stroke:#FFFFFF;stroke-width:2.7851;stroke-linecap:round;stroke-miterlimit:10;" x1="938.082" y1="87.139" x2="946.94" y2="87.139"/>
		</g>
	</g>
</g>
<g id="aulas" style="display:none;">
	<g style="display:inline;">
		<rect x="368.174" style="fill-rule:evenodd;clip-rule:evenodd;fill:#FFFFFF;" width="33.652" height="145"/>
		<circle style="fill-rule:evenodd;clip-rule:evenodd;fill:#5654A2;" cx="385" cy="72.5" r="42.5"/>
	</g>
</g>
</svg>
